<svg width="24" height="24" viewBox="0 0 24 24" fill="none" xmlns="http://www.w3.org/2000/svg">
<path d="M18.713 12.0002H18.769C18.688 12.0052 18.674 12.0072 18.713 12.0002H4.765C4.34 11.9822 1.947 11.8432 1.213 9.82923C1.07175 10.2097 0.999615 10.6124 1 11.0182C1 14.2872 4.262 14.4792 4.765 14.5002H18.713C19.035 14.4422 23 13.7932 23 9.85723C22.9998 9.45173 22.9449 9.0481 22.837 8.65723C22.088 11.4422 19 11.9492 18.713 12.0002Z" fill="#B8C3F7"/>
<path d="M20.4967 13.9061C21.2648 13.5511 21.9114 12.9778 22.356 12.2578C22.8005 11.5378 23.0234 10.7029 22.9967 9.85711C22.9873 9.22388 22.8504 8.59905 22.5941 8.01995C22.3377 7.44085 21.9673 6.91938 21.5048 6.48671C21.0424 6.05404 20.4974 5.71905 19.9026 5.50177C19.3077 5.28449 18.6752 5.18937 18.0427 5.22211C17.4842 4.09807 16.6215 3.15333 15.5527 2.49535C14.4839 1.83736 13.2518 1.49254 11.9967 1.50011C10.3156 1.47755 8.6891 2.09696 7.44882 3.23207C6.20854 4.36718 5.44782 5.93254 5.32171 7.60911C4.80725 7.49599 4.27409 7.49843 3.76067 7.61623C3.24726 7.73403 2.76637 7.96427 2.35268 8.29035C1.93898 8.61643 1.60278 9.03023 1.3683 9.50192C1.13382 9.97361 1.00691 10.4914 0.996715 11.0181C0.956451 11.7728 1.18578 12.5172 1.64373 13.1184C2.10169 13.7196 2.75845 14.1385 3.49671 14.3001" stroke="url(#paint0_linear_152_236)" stroke-linecap="round" stroke-linejoin="round"/>
<path d="M12.8382 11.5001C12.7571 11.3483 12.6363 11.2213 12.4887 11.1328C12.3412 11.0443 12.1723 10.9976 12.0002 10.9976C11.8281 10.9976 11.6592 11.0443 11.5116 11.1328C11.364 11.2213 11.2433 11.3483 11.1622 11.5001L6.10619 21.1371C6.03151 21.279 5.99509 21.4379 6.00053 21.5982C6.00597 21.7584 6.05307 21.9145 6.13719 22.0511C6.2222 22.1886 6.34099 22.302 6.48225 22.3806C6.62351 22.4592 6.78254 22.5003 6.94419 22.5001H17.0562C17.2177 22.5003 17.3767 22.4593 17.5179 22.3809C17.6591 22.3025 17.778 22.1893 17.8632 22.0521C17.9473 21.9155 17.9944 21.7594 17.9998 21.5992C18.0053 21.4389 17.9689 21.28 17.8942 21.1381L12.8382 11.5001Z" fill="#B8C3F7"/>
<path d="M12.0002 11C11.8282 10.9992 11.6593 11.0454 11.5117 11.1335C11.364 11.2216 11.2432 11.3483 11.1622 11.5L6.10619 21.137C6.03151 21.2789 5.99509 21.4378 6.00053 21.5981C6.00597 21.7584 6.05307 21.9145 6.13719 22.051C6.2222 22.1885 6.34099 22.302 6.48225 22.3805C6.62351 22.4591 6.78254 22.5003 6.94419 22.5H12.0002V11Z" fill="white" fill-opacity="0.66"/>
<path d="M12.8382 11.5001C12.7571 11.3483 12.6363 11.2213 12.4887 11.1328C12.3412 11.0443 12.1723 10.9976 12.0002 10.9976C11.8281 10.9976 11.6592 11.0443 11.5116 11.1328C11.364 11.2213 11.2433 11.3483 11.1622 11.5001L6.10619 21.1371C6.03151 21.279 5.99509 21.4379 6.00053 21.5982C6.00597 21.7584 6.05307 21.9145 6.13719 22.0511C6.2222 22.1886 6.34099 22.302 6.48225 22.3806C6.62351 22.4592 6.78254 22.5003 6.94419 22.5001H17.0562C17.2177 22.5003 17.3767 22.4593 17.5179 22.3809C17.6591 22.3025 17.778 22.1893 17.8632 22.0521C17.9473 21.9155 17.9944 21.7594 17.9998 21.5992C18.0053 21.4389 17.9689 21.28 17.8942 21.1381L12.8382 11.5001Z" stroke="url(#paint1_linear_152_236)" stroke-linecap="round" stroke-linejoin="round"/>
<path d="M12 19.5C11.9506 19.5 11.9022 19.5147 11.8611 19.5421C11.82 19.5696 11.788 19.6086 11.769 19.6543C11.7501 19.7 11.7452 19.7503 11.7548 19.7988C11.7644 19.8473 11.7883 19.8918 11.8232 19.9268C11.8582 19.9617 11.9027 19.9855 11.9512 19.9952C11.9997 20.0048 12.05 19.9999 12.0957 19.981C12.1414 19.962 12.1804 19.93 12.2079 19.8889C12.2353 19.8478 12.25 19.7994 12.25 19.75C12.25 19.6837 12.2237 19.6201 12.1768 19.5732C12.1299 19.5263 12.0663 19.5 12 19.5Z" stroke="url(#paint2_linear_152_236)" stroke-linecap="round" stroke-linejoin="round"/>
<path d="M12 17.5V14.5" stroke="url(#paint3_linear_152_236)" stroke-linecap="round" stroke-linejoin="round"/>
<defs>
<linearGradient id="paint0_linear_152_236" x1="24.6097" y1="25.9486" x2="7.32157" y2="-15.6903" gradientUnits="userSpaceOnUse">
<stop offset="0.39705" stop-color="#4F68EE"/>
<stop offset="0.62624" stop-color="#7385F2"/>
</linearGradient>
<linearGradient id="paint1_linear_152_236" x1="18.8788" y1="32.9673" x2="-1.56427" y2="3.08769" gradientUnits="userSpaceOnUse">
<stop offset="0.39705" stop-color="#4F68EE"/>
<stop offset="0.62624" stop-color="#7385F2"/>
</linearGradient>
<linearGradient id="paint2_linear_152_236" x1="12.2866" y1="20.455" x2="11.3849" y2="19.1918" gradientUnits="userSpaceOnUse">
<stop offset="0.39705" stop-color="#4F68EE"/>
<stop offset="0.62624" stop-color="#7385F2"/>
</linearGradient>
<linearGradient id="paint3_linear_152_236" x1="13.0732" y1="20.23" x2="8.68697" y2="18.1817" gradientUnits="userSpaceOnUse">
<stop offset="0.39705" stop-color="#4F68EE"/>
<stop offset="0.62624" stop-color="#7385F2"/>
</linearGradient>
</defs>
</svg>
