<svg width="24" height="24" viewBox="0 0 24 24" fill="none" xmlns="http://www.w3.org/2000/svg">
<g clip-path="url(#clip0_152_247)">
<path d="M18.5 23.5H1.5C1.23478 23.5 0.98043 23.3947 0.792893 23.2071C0.605357 23.0196 0.5 22.7652 0.5 22.5V1.50001C0.5 1.23479 0.605357 0.980437 0.792893 0.7929C0.98043 0.605364 1.23478 0.500007 1.5 0.500007H14.789C14.921 0.499508 15.0518 0.525142 15.1738 0.57543C15.2958 0.625717 15.4067 0.699665 15.5 0.793007L19.2 4.50001C19.3876 4.6875 19.4929 4.94181 19.493 5.20701V22.5C19.493 22.764 19.3886 23.0173 19.2026 23.2047C19.0166 23.392 18.764 23.4982 18.5 23.5Z" fill="white" fill-opacity="0.66"/>
<path d="M11.061 23.5H1.5C1.23478 23.5 0.98043 23.3947 0.792893 23.2071C0.605357 23.0196 0.5 22.7652 0.5 22.5V1.50001C0.5 1.23479 0.605357 0.980437 0.792893 0.7929C0.98043 0.605364 1.23478 0.500007 1.5 0.500007H14.789C14.921 0.499508 15.0518 0.525142 15.1738 0.57543C15.2958 0.625717 15.4067 0.699665 15.5 0.793007L19.2 4.50001C19.3876 4.6875 19.4929 4.94181 19.493 5.20701V9.08901" stroke="url(#paint0_linear_152_247)" stroke-linecap="round" stroke-linejoin="round"/>
<path d="M3 14.5H9" stroke="url(#paint1_linear_152_247)" stroke-linecap="round" stroke-linejoin="round"/>
<path d="M4.5 9.5H5.5C5.63261 9.5 5.75979 9.55268 5.85355 9.64645C5.94732 9.74021 6 9.86739 6 10V14.5H4V10C4 9.86739 4.05268 9.74021 4.14645 9.64645C4.24021 9.55268 4.36739 9.5 4.5 9.5Z" fill="#B8C3F7" stroke="url(#paint2_linear_152_247)" stroke-linecap="round" stroke-linejoin="round"/>
<path d="M10 14.5V7C10 6.86739 9.94732 6.74021 9.85355 6.64645C9.75979 6.55268 9.63261 6.5 9.5 6.5H8.5C8.36739 6.5 8.24021 6.55268 8.14645 6.64645C8.05268 6.74021 8 6.86739 8 7V14.5H10Z" fill="#B8C3F7" stroke="url(#paint3_linear_152_247)" stroke-linecap="round" stroke-linejoin="round"/>
<path d="M17.029 21.56C17.9248 21.56 18.8004 21.2943 19.5452 20.7967C20.29 20.299 20.8705 19.5917 21.2133 18.7641C21.556 17.9366 21.6457 17.0259 21.471 16.1474C21.2962 15.2689 20.8649 14.4619 20.2315 13.8285C19.5981 13.1951 18.7911 12.7637 17.9126 12.589C17.034 12.4142 16.1234 12.5039 15.2958 12.8467C14.4683 13.1895 13.7609 13.77 13.2633 14.5148C12.7656 15.2596 12.5 16.1352 12.5 17.031C12.5 18.2321 12.9772 19.3841 13.8265 20.2334C14.6759 21.0828 15.8278 21.56 17.029 21.56Z" fill="#B8C3F7"/>
<path d="M17.0289 12.5C16.1316 12.4996 15.2544 12.7659 14.5087 13.2651C13.7631 13.7642 13.1826 14.4737 12.8409 15.3035C12.4993 16.1332 12.412 17.0458 12.59 17.9253C12.7681 18.8047 13.2035 19.6115 13.8409 20.243L20.2409 13.843C19.8211 13.4176 19.321 13.0799 18.7696 12.8493C18.2183 12.6188 17.6266 12.5 17.0289 12.5Z" fill="white" fill-opacity="0.66"/>
<path d="M17.029 21.56C17.9248 21.56 18.8004 21.2943 19.5452 20.7967C20.29 20.299 20.8705 19.5917 21.2133 18.7641C21.556 17.9366 21.6457 17.0259 21.471 16.1474C21.2962 15.2689 20.8649 14.4619 20.2315 13.8285C19.5981 13.1951 18.7911 12.7637 17.9126 12.589C17.034 12.4142 16.1234 12.5039 15.2958 12.8467C14.4683 13.1895 13.7609 13.77 13.2633 14.5148C12.7656 15.2596 12.5 16.1352 12.5 17.031C12.5 18.2321 12.9772 19.3841 13.8265 20.2334C14.6759 21.0828 15.8278 21.56 17.029 21.56Z" stroke="url(#paint4_linear_152_247)" stroke-linecap="round" stroke-linejoin="round"/>
<path d="M23.498 23.5L20.25 20.252" stroke="url(#paint5_linear_152_247)" stroke-linecap="round" stroke-linejoin="round"/>
</g>
<defs>
<linearGradient id="paint0_linear_152_247" x1="20.8833" y1="44.43" x2="-22.5119" y2="-5.77352" gradientUnits="userSpaceOnUse">
<stop offset="0.39705" stop-color="#4F68EE"/>
<stop offset="0.62624" stop-color="#7385F2"/>
</linearGradient>
<linearGradient id="paint1_linear_152_247" x1="9.4392" y1="16.41" x2="8.99184" y2="12.6496" gradientUnits="userSpaceOnUse">
<stop offset="0.39705" stop-color="#4F68EE"/>
<stop offset="0.62624" stop-color="#7385F2"/>
</linearGradient>
<linearGradient id="paint2_linear_152_247" x1="6.1464" y1="19.05" x2="-1.98547" y2="14.493" gradientUnits="userSpaceOnUse">
<stop offset="0.39705" stop-color="#4F68EE"/>
<stop offset="0.62624" stop-color="#7385F2"/>
</linearGradient>
<linearGradient id="paint3_linear_152_247" x1="10.1464" y1="21.78" x2="0.628418" y2="18.4464" gradientUnits="userSpaceOnUse">
<stop offset="0.39705" stop-color="#4F68EE"/>
<stop offset="0.62624" stop-color="#7385F2"/>
</linearGradient>
<linearGradient id="paint4_linear_152_247" x1="22.221" y1="29.8027" x2="5.88633" y2="6.91841" gradientUnits="userSpaceOnUse">
<stop offset="0.39705" stop-color="#4F68EE"/>
<stop offset="0.62624" stop-color="#7385F2"/>
</linearGradient>
<linearGradient id="paint5_linear_152_247" x1="23.7358" y1="26.4556" x2="17.8785" y2="18.2498" gradientUnits="userSpaceOnUse">
<stop offset="0.39705" stop-color="#4F68EE"/>
<stop offset="0.62624" stop-color="#7385F2"/>
</linearGradient>
<clipPath id="clip0_152_247">
<rect width="24" height="24" fill="white"/>
</clipPath>
</defs>
</svg>
