<svg width="24" height="24" viewBox="0 0 24 24" fill="none" xmlns="http://www.w3.org/2000/svg">
<path d="M3.5 9.5C3.5 11.6217 4.34285 13.6566 5.84315 15.1569C7.34344 16.6571 9.37827 17.5 11.5 17.5C13.6217 17.5 15.6566 16.6571 17.1569 15.1569C18.6571 13.6566 19.5 11.6217 19.5 9.5C19.5 7.37827 18.6571 5.34344 17.1569 3.84315C15.6566 2.34285 13.6217 1.5 11.5 1.5C9.37827 1.5 7.34344 2.34285 5.84315 3.84315C4.34285 5.34344 3.5 7.37827 3.5 9.5Z" fill="#B8C3F7"/>
<path d="M11.4993 1.5C9.91905 1.50014 8.3742 1.96829 7.05968 2.84542C5.74516 3.72254 4.71986 4.96933 4.11313 6.4285C3.5064 7.88768 3.34542 9.49386 3.65049 11.0444C3.95557 12.595 4.71304 14.0204 5.82734 15.141L17.1403 3.828C15.6428 2.3351 13.6139 1.49777 11.4993 1.5Z" fill="white" fill-opacity="0.66"/>
<path d="M3.75 7.51599C4.23255 5.63055 5.38586 3.98567 6.99395 2.88941C8.60204 1.79314 10.5546 1.32068 12.486 1.5605C14.4174 1.80032 16.1951 2.73597 17.4862 4.19223C18.7774 5.64849 19.4934 7.52548 19.5001 9.47168C19.5069 11.4179 18.804 13.2998 17.523 14.765C16.2421 16.2302 14.4709 17.1782 12.5412 17.4315C10.6116 17.6848 8.65577 17.2259 7.04009 16.1409C5.4244 15.0558 4.25967 13.419 3.764 11.537" stroke="url(#paint0_linear_152_285)" stroke-linecap="round" stroke-linejoin="round"/>
<path d="M16.6328 15.6362L23.4988 22.5002" stroke="url(#paint1_linear_152_285)" stroke-linecap="round" stroke-linejoin="round"/>
<path d="M0.5 9.49986H6.212C6.2996 9.49968 6.38561 9.4765 6.46143 9.43262C6.53724 9.38874 6.6002 9.32572 6.644 9.24986L7.926 7.03386C7.97442 6.94949 8.0464 6.88107 8.13312 6.83699C8.21984 6.79291 8.31753 6.77509 8.41423 6.7857C8.51093 6.79632 8.60243 6.83491 8.67752 6.89675C8.75262 6.95859 8.80804 7.04099 8.837 7.13386L10.137 11.3459C10.1665 11.4413 10.2238 11.5257 10.3017 11.5882C10.3795 11.6507 10.4743 11.6885 10.5738 11.6967C10.6733 11.7048 10.773 11.683 10.86 11.6341C10.947 11.5851 11.0174 11.5112 11.062 11.4219L12.619 8.30886C12.6582 8.23057 12.7172 8.16392 12.7902 8.1156C12.8632 8.06728 12.9476 8.03897 13.035 8.0335C13.1223 8.02803 13.2096 8.0456 13.2881 8.08445C13.3665 8.12329 13.4334 8.18206 13.482 8.25486L14.619 9.96086C14.6629 10.0269 14.7219 10.0815 14.791 10.1202C14.8602 10.1589 14.9376 10.1806 15.0168 10.1836C15.096 10.1865 15.1748 10.1706 15.2467 10.1371C15.3185 10.1035 15.3813 10.0534 15.43 9.99086L16.979 7.99986" stroke="url(#paint2_linear_152_285)" stroke-linecap="round" stroke-linejoin="round"/>
<defs>
<linearGradient id="paint0_linear_152_285" x1="20.6531" y1="32.0596" x2="-8.34521" y2="-7.93163" gradientUnits="userSpaceOnUse">
<stop offset="0.39705" stop-color="#4F68EE"/>
<stop offset="0.62624" stop-color="#7385F2"/>
</linearGradient>
<linearGradient id="paint1_linear_152_285" x1="24.0014" y1="28.7465" x2="11.6244" y2="11.4017" gradientUnits="userSpaceOnUse">
<stop offset="0.39705" stop-color="#4F68EE"/>
<stop offset="0.62624" stop-color="#7385F2"/>
</linearGradient>
<linearGradient id="paint2_linear_152_285" x1="18.1853" y1="16.1716" x2="14.3668" y2="-1.76184" gradientUnits="userSpaceOnUse">
<stop offset="0.39705" stop-color="#4F68EE"/>
<stop offset="0.62624" stop-color="#7385F2"/>
</linearGradient>
</defs>
</svg>
