<svg width="24" height="24" viewBox="0 0 24 24" fill="none" xmlns="http://www.w3.org/2000/svg">
<g clip-path="url(#clip0_152_291)">
<path d="M20.1584 11.19C19.6181 11.0605 19.0641 10.9967 18.5084 11C17.0271 10.9955 15.5783 11.4344 14.3484 12.26C14.0496 11.5223 13.6454 10.8318 13.1484 10.21C14.0261 9.7439 15.0047 9.50011 15.9984 9.50003C17.5533 9.4948 19.0477 10.1019 20.1584 11.19Z" fill="#B8C3F7"/>
<path d="M15.9984 10.805C16.584 10.8048 17.1665 10.89 17.7274 11.058C17.9866 11.025 18.2473 11.0056 18.5084 11C19.0641 10.9967 19.6181 11.0605 20.1584 11.19C19.0477 10.1019 17.5533 9.4948 15.9984 9.50003C15.0047 9.50011 14.0261 9.7439 13.1484 10.21C13.3986 10.527 13.6262 10.8611 13.8294 11.21C14.5215 10.9433 15.2567 10.806 15.9984 10.805Z" fill="white" fill-opacity="0.66"/>
<path d="M0.5 15.5C0.5 13.9087 1.13214 12.3826 2.25736 11.2574C3.38258 10.1321 4.9087 9.5 6.5 9.5C8.0913 9.5 9.61742 10.1321 10.7426 11.2574C11.8679 12.3826 12.5 13.9087 12.5 15.5H0.5Z" fill="white" fill-opacity="0.66"/>
<path d="M2.75 4.25C2.75 5.24456 3.14509 6.19839 3.84835 6.90165C4.55161 7.60491 5.50544 8 6.5 8C7.49456 8 8.44839 7.60491 9.15165 6.90165C9.85491 6.19839 10.25 5.24456 10.25 4.25C10.25 3.25544 9.85491 2.30161 9.15165 1.59835C8.44839 0.895088 7.49456 0.5 6.5 0.5C5.50544 0.5 4.55161 0.895088 3.84835 1.59835C3.14509 2.30161 2.75 3.25544 2.75 4.25Z" fill="white" fill-opacity="0.66"/>
<path d="M12.25 4.25C12.25 5.24456 12.6451 6.19839 13.3483 6.90165C14.0516 7.60491 15.0054 8 16 8C16.9946 8 17.9484 7.60491 18.6517 6.90165C19.3549 6.19839 19.75 5.24456 19.75 4.25C19.75 3.25544 19.3549 2.30161 18.6517 1.59835C17.9484 0.895088 16.9946 0.5 16 0.5C15.0054 0.5 14.0516 0.895088 13.3483 1.59835C12.6451 2.30161 12.25 3.25544 12.25 4.25Z" fill="#B8C3F7"/>
<path d="M16 2.333C16.8334 2.33437 17.6425 2.61391 18.299 3.12729C18.9555 3.64067 19.4218 4.35852 19.624 5.167C19.7037 4.86771 19.746 4.5597 19.75 4.25C19.75 3.25544 19.3549 2.30161 18.6517 1.59835C17.9484 0.895088 16.9946 0.5 16 0.5C15.0054 0.5 14.0516 0.895088 13.3483 1.59835C12.6451 2.30161 12.25 3.25544 12.25 4.25C12.254 4.5597 12.2963 4.86771 12.376 5.167C12.5782 4.35852 13.0445 3.64067 13.701 3.12729C14.3575 2.61391 15.1666 2.33437 16 2.333Z" fill="white" fill-opacity="0.66"/>
<path d="M10.5 15.4998H0.5C0.500031 14.2847 0.869002 13.0983 1.55809 12.0974C2.24718 11.0966 3.22391 10.3286 4.35904 9.89498C5.49417 9.46139 6.7342 9.38268 7.91504 9.66925C9.09589 9.95582 10.1619 10.5942 10.972 11.4998" stroke="url(#paint0_linear_152_291)" stroke-linecap="round" stroke-linejoin="round"/>
<path d="M2.75 4.25C2.75 5.24456 3.14509 6.19839 3.84835 6.90165C4.55161 7.60491 5.50544 8 6.5 8C7.49456 8 8.44839 7.60491 9.15165 6.90165C9.85491 6.19839 10.25 5.24456 10.25 4.25C10.25 3.25544 9.85491 2.30161 9.15165 1.59835C8.44839 0.895088 7.49456 0.5 6.5 0.5C5.50544 0.5 4.55161 0.895088 3.84835 1.59835C3.14509 2.30161 2.75 3.25544 2.75 4.25Z" stroke="url(#paint1_linear_152_291)" stroke-linecap="round" stroke-linejoin="round"/>
<path d="M12.25 4.25C12.25 5.24456 12.6451 6.19839 13.3483 6.90165C14.0516 7.60491 15.0054 8 16 8C16.9946 8 17.9484 7.60491 18.6517 6.90165C19.3549 6.19839 19.75 5.24456 19.75 4.25C19.75 3.25544 19.3549 2.30161 18.6517 1.59835C17.9484 0.895088 16.9946 0.5 16 0.5C15.0054 0.5 14.0516 0.895088 13.3483 1.59835C12.6451 2.30161 12.25 3.25544 12.25 4.25Z" stroke="url(#paint2_linear_152_291)" stroke-linecap="round" stroke-linejoin="round"/>
<path d="M19.473 10.6049C18.536 9.94055 17.4279 9.55913 16.2805 9.50595C15.1331 9.45277 13.9945 9.73007 13 10.3049" stroke="url(#paint3_linear_152_291)" stroke-linecap="round" stroke-linejoin="round"/>
<path d="M18.9823 23.415L19.4433 23.239C21.6353 22.404 23.5363 20.302 23.5363 17.957V15.13C23.5367 14.9602 23.4874 14.794 23.3945 14.6518C23.3015 14.5096 23.169 14.3978 23.0133 14.33C21.5733 13.7924 20.0503 13.5108 18.5133 13.498C16.9895 13.5104 15.4799 13.7921 14.0543 14.33C13.8985 14.3978 13.766 14.5096 13.6731 14.6518C13.5801 14.794 13.5308 14.9602 13.5313 15.13V17.957C13.6178 19.1375 14.0481 20.2667 14.7691 21.2054C15.49 22.144 16.4701 22.851 17.5883 23.239L18.0483 23.415C18.3491 23.5293 18.6814 23.5293 18.9823 23.415Z" fill="#B8C3F7"/>
<path d="M18.5133 13.5C16.9895 13.5124 15.4799 13.7941 14.0543 14.332C13.8985 14.3997 13.766 14.5116 13.6731 14.6537C13.5801 14.7959 13.5308 14.9622 13.5313 15.132V17.959C13.5727 19.2791 14.108 20.5356 15.0313 21.48L22.3983 14.111C21.139 13.7232 19.8308 13.5174 18.5133 13.5Z" fill="white" fill-opacity="0.66"/>
<path d="M18.9823 23.415L19.4433 23.239C21.6353 22.404 23.5363 20.302 23.5363 17.957V15.13C23.5367 14.9602 23.4874 14.794 23.3945 14.6518C23.3015 14.5096 23.169 14.3978 23.0133 14.33C21.5733 13.7924 20.0503 13.5108 18.5133 13.498C16.9895 13.5104 15.4799 13.7921 14.0543 14.33C13.8985 14.3978 13.766 14.5096 13.6731 14.6518C13.5801 14.794 13.5308 14.9602 13.5313 15.13V17.957C13.6178 19.1375 14.0481 20.2667 14.7691 21.2054C15.49 22.144 16.4701 22.851 17.5883 23.239L18.0483 23.415C18.3491 23.5293 18.6814 23.5293 18.9823 23.415Z" stroke="url(#paint4_linear_152_291)" stroke-linecap="round" stroke-linejoin="round"/>
<path d="M18.5312 15.5V19.5" stroke="url(#paint5_linear_152_291)" stroke-linecap="round" stroke-linejoin="round"/>
<path d="M20.5312 17.5H16.5312" stroke="url(#paint6_linear_152_291)" stroke-linecap="round" stroke-linejoin="round"/>
</g>
<defs>
<linearGradient id="paint0_linear_152_291" x1="11.7386" y1="20.9597" x2="3.72177" y2="1.35701" gradientUnits="userSpaceOnUse">
<stop offset="0.39705" stop-color="#4F68EE"/>
<stop offset="0.62624" stop-color="#7385F2"/>
</linearGradient>
<linearGradient id="paint1_linear_152_291" x1="10.799" y1="14.825" x2="-2.7261" y2="-4.12316" gradientUnits="userSpaceOnUse">
<stop offset="0.39705" stop-color="#4F68EE"/>
<stop offset="0.62624" stop-color="#7385F2"/>
</linearGradient>
<linearGradient id="paint2_linear_152_291" x1="20.299" y1="14.825" x2="6.7739" y2="-4.12316" gradientUnits="userSpaceOnUse">
<stop offset="0.39705" stop-color="#4F68EE"/>
<stop offset="0.62624" stop-color="#7385F2"/>
</linearGradient>
<linearGradient id="paint3_linear_152_291" x1="19.9468" y1="11.6108" x2="19.4405" y2="7.45693" gradientUnits="userSpaceOnUse">
<stop offset="0.39705" stop-color="#4F68EE"/>
<stop offset="0.62624" stop-color="#7385F2"/>
</linearGradient>
<linearGradient id="paint4_linear_152_291" x1="24.2686" y1="32.6032" x2="6.2316" y2="7.32825" gradientUnits="userSpaceOnUse">
<stop offset="0.39705" stop-color="#4F68EE"/>
<stop offset="0.62624" stop-color="#7385F2"/>
</linearGradient>
<linearGradient id="paint5_linear_152_291" x1="19.6045" y1="23.14" x2="14.8455" y2="21.4732" gradientUnits="userSpaceOnUse">
<stop offset="0.39705" stop-color="#4F68EE"/>
<stop offset="0.62624" stop-color="#7385F2"/>
</linearGradient>
<linearGradient id="paint6_linear_152_291" x1="20.8241" y1="19.41" x2="20.1645" y2="15.7141" gradientUnits="userSpaceOnUse">
<stop offset="0.39705" stop-color="#4F68EE"/>
<stop offset="0.62624" stop-color="#7385F2"/>
</linearGradient>
<clipPath id="clip0_152_291">
<rect width="24" height="24" fill="white"/>
</clipPath>
</defs>
</svg>
