<svg width="1139" height="1043" viewBox="0 0 1139 1043" fill="none" xmlns="http://www.w3.org/2000/svg">
<g clip-path="url(#clip0_253_484)">
<rect width="642" height="850" rx="100" transform="matrix(0.99863 0.052336 -0.139173 0.990268 372.777 161.833)" fill="#B8C3F7"/>
<rect width="642" height="850" rx="100" transform="matrix(0.99863 0.052336 -0.139173 0.990268 243.859 5.44287)" fill="url(#paint0_linear_253_484)"/>
<path d="M293.483 532.761C282.452 532.183 274.664 522.822 277.203 511.983C288.857 462.225 317.534 416.308 358.581 382.399C405.004 344.049 463.446 324.2 521.052 327.219C578.657 330.238 630.707 355.878 665.751 398.497C696.735 436.181 712.181 484.411 709.781 534.653C709.258 545.599 698.972 554.012 687.941 553.434L490.712 543.097L293.483 532.761Z" fill="white"/>
<path d="M451.266 541.03C449.789 551.536 452.582 561.832 459.029 569.653C465.476 577.474 475.05 582.179 485.644 582.735C496.238 583.29 506.985 579.649 515.52 572.613C524.055 565.577 529.68 555.723 531.156 545.217L491.211 543.124L451.266 541.03Z" fill="white"/>
<rect width="24.4243" height="161.413" rx="12.2121" transform="matrix(0.963432 -0.372469 0.297369 0.919041 435.992 409.364)" fill="#B8C3F7"/>
</g>
<defs>
<linearGradient id="paint0_linear_253_484" x1="688.994" y1="1623.5" x2="-929.218" y2="-88.7942" gradientUnits="userSpaceOnUse">
<stop offset="0.39705" stop-color="#4F68EE"/>
<stop offset="0.62624" stop-color="#7385F2"/>
</linearGradient>
<clipPath id="clip0_253_484">
<rect width="1000" height="1000" fill="white" transform="matrix(0.99863 0.052336 -0.139173 0.990268 140 0)"/>
</clipPath>
</defs>
</svg>
