<svg width="100" height="100" viewBox="0 0 100 100" fill="none" xmlns="http://www.w3.org/2000/svg">
<path d="M17.7 1H82.3C92.1 1 100 8.9 100 18.7V80.8C100 90.6 92.1 98.5 82.3 98.5H17.7C7.9 98.5 0 90.6 0 80.8V18.7C0 8.9 7.9 1 17.7 1Z" fill="#0A0A0A"/>
<path d="M40.2 59.2999H24.7L21.5 69.0999C21.4 69.4999 21.1 69.6999 20.7 69.6999H12.9C12.4 69.6999 12.3 69.4999 12.4 68.8999L25.8 30.3999C25.9 29.9999 26 29.5999 26.2 29.0999C26.4 28.1999 26.4 27.2999 26.4 26.3999C26.4 26.1999 26.5 25.9999 26.7 25.8999H27H37.7C38 25.8999 38.2 25.9999 38.2 26.1999L53.4 68.6999C53.5 69.1999 53.4 69.3999 53 69.3999H44.3C44 69.3999 43.7 69.1999 43.6 68.8999L40.2 58.8999V59.2999ZM27.1 50.9999H37.7C37.5 50.0999 37.1 49.0999 36.7 47.9999C36.3 46.8999 35.9 45.6999 35.6 44.3999C35.2 43.0999 34.8 41.8999 34.4 40.5999C34 39.2999 33.6 38.0999 33.3 36.8999C33 35.6999 32.7 34.6999 32.4 33.6999H32.3C31.9 35.4999 31.5 37.2999 30.9 39.0999C30.3 41.0999 29.7 43.1999 29 45.2999C28.4 47.2999 27.7 49.2999 27.1 50.9999Z" fill="#A4A4A4"/>
<path d="M77.9 55.5998H64.7C64.9 56.8998 65.3 58.1998 66 59.2998C66.8 60.3998 67.8 61.2998 69 61.7998C70.7 62.4998 72.5 62.8998 74.3 62.7998C75.8 62.7998 77.2 62.5998 78.6 62.2998C79.9 62.0998 81.1 61.7998 82.3 61.2998C82.5 61.0998 82.6 61.1998 82.6 61.5998V67.9998C82.6 68.1998 82.6 68.2998 82.5 68.4998C82.4 68.5998 82.3 68.6998 82.2 68.7998C80.9 69.3998 79.5 69.7998 78 69.9998C76 70.3998 74.1 70.4998 72.1 70.4998C68.9 70.4998 66.3 69.9998 64.1 68.9998C62.1 68.0998 60.3 66.7998 58.9 64.9998C57.6 63.3998 56.6 61.4998 56 59.4998C55.4 57.4998 55.1 55.4998 55.1 53.3998C55.1 51.1998 55.4 48.8998 56.1 46.7998C56.8 44.6998 57.8 42.7998 59.2 41.0998C60.6 39.3998 62.3 38.0998 64.2 37.0998C66.2 36.0998 68.5 35.7998 71.2 35.7998C73.4 35.7998 75.6 36.1998 77.7 37.0998C79.4 37.8998 80.9 38.9998 82.1 40.3998C83.2 41.7998 84.1 43.3998 84.6 45.1998C85.1 46.8998 85.4 48.5998 85.4 50.2998C85.4 51.2998 85.4 52.1998 85.3 52.9998C85.2 53.7998 85.2 54.3998 85.1 54.7998C85.1 55.0998 84.8 55.2998 84.5 55.2998C84.3 55.2998 83.8 55.2998 83.1 55.3998C82.4 55.4998 81.6 55.4998 80.7 55.4998C80 55.6998 79 55.5998 77.9 55.5998ZM64.7 49.4998H73.5C74.6 49.4998 75.4 49.4998 75.9 49.4998C76.2 49.4998 76.6 49.3998 76.9 49.1998V48.7998C76.9 48.2998 76.8 47.7998 76.7 47.2998C75.9 44.9998 73.7 43.3998 71.3 43.4998C69 43.3998 66.8 44.5998 65.8 46.6998C65.1 47.4998 64.8 48.4998 64.7 49.4998Z" fill="#A4A4A4"/>
</svg>
