<svg width="100" height="100" viewBox="0 0 100 100" fill="none" xmlns="http://www.w3.org/2000/svg">
<g clip-path="url(#clip0_755_19482)">
<mask id="mask0_755_19482" style="mask-type:luminance" maskUnits="userSpaceOnUse" x="0" y="0" width="100" height="100">
<path d="M100 0H0V100H100V0Z" fill="white"/>
</mask>
<g mask="url(#mask0_755_19482)">
<path fill-rule="evenodd" clip-rule="evenodd" d="M100 9.8C100 4.4 95.6 0 90.2 0H9.8C4.4 0 0 4.4 0 9.8V90.3C0 95.7 4.4 100.1 9.8 100.1H90.3C95.7 100.1 100.1 95.7 100.1 90.3L100 9.8Z" fill="#434343"/>
<path fill-rule="evenodd" clip-rule="evenodd" d="M92.7 63.4998V88.7998C92.7 90.8998 91 92.6998 88.9 92.6998H63L46.2 63.4998H92.7ZM59.2 92.6998H13.5L36.4 53.1998L59.2 92.6998ZM9.79999 92.3998C8.39999 91.8998 7.39999 90.5998 7.29999 88.9998V71.5998L25.9 39.3998H40.4L9.79999 92.3998ZM53.7 39.3998C55 39.3998 56.2 40.0998 56.8 41.1998L60.6 47.7998V47.8998C61.2 48.9998 61.3 50.3998 60.6 51.4998C59.3 53.7998 58 55.9998 56.7 58.1998C56.1 59.2998 54.9 59.9998 53.6 59.9998C51.2 59.9998 46.3 59.9998 46.2 59.9998C44.9 59.9998 43.7 59.2998 43.1 58.1998V58.0998C43.1 58.0998 39.3 51.4998 39.3 51.3998C38.7 50.2998 38.7 48.8998 39.3 47.7998C39.3 47.7998 41.9 43.2998 43.2 41.0998C43.8 39.9998 45 39.2998 46.3 39.1998H46.4L53.7 39.3998ZM90 7.4998L59.6 60.1998H92.6V11.1998C92.7 9.4998 91.6 8.0998 90 7.4998ZM44.5 7.2998H86.3L63.7 46.4998L42.8 10.2998L44.5 7.2998ZM53.9 36.1998H27.9L40.9 13.6998L53.9 36.1998Z" fill="url(#paint0_radial_755_19482)"/>
</g>
</g>
<defs>
<radialGradient id="paint0_radial_755_19482" cx="0" cy="0" r="1" gradientUnits="userSpaceOnUse" gradientTransform="translate(72.5573 -8.71765) scale(101.392)">
<stop stop-color="#C9C9C9"/>
<stop offset="1" stop-color="#A6A6A6"/>
</radialGradient>
<clipPath id="clip0_755_19482">
<rect width="100" height="100" fill="white"/>
</clipPath>
</defs>
</svg>
