<svg width="100" height="100" viewBox="0 0 100 100" fill="none" xmlns="http://www.w3.org/2000/svg">
<path d="M17.7 1H82.3C92.1 1 100 8.9 100 18.7V80.8C100 90.6 92.1 98.5 82.3 98.5H17.7C7.9 98.5 0 90.6 0 80.8V18.7C0 8.9 7.9 1 17.7 1Z" fill="#0F0F0F"/>
<path d="M48.5 59.4999H33L29.8 69.2999C29.7 69.6999 29.4 69.8999 29 69.8999H21.2C20.7 69.8999 20.6 69.6999 20.7 69.0999L34.1 30.4999C34.2 30.0999 34.3 29.5999 34.5 29.0999C34.7 28.1999 34.7 27.2999 34.7 26.3999C34.7 26.1999 34.8 25.9999 35 25.8999H35.1H45.8C46.1 25.8999 46.3 25.9999 46.3 26.1999L61.5 69.0999C61.6 69.5999 61.5 69.7999 61.1 69.7999H52.4C52.1 69.7999 51.8 69.5999 51.7 69.2999L48.5 59.4999ZM35.4 50.9999H46C45.8 50.0999 45.4 49.0999 45 47.9999C44.6 46.8999 44.2 45.6999 43.9 44.3999C43.5 43.0999 43.1 41.8999 42.7 40.5999C42.3 39.2999 41.9 38.0999 41.6 36.8999C41.3 35.6999 41 34.6999 40.7 33.6999H40.6C40.2 35.4999 39.8 37.2999 39.2 39.0999C38.6 41.0999 38 43.1999 37.3 45.2999C36.6 47.2999 36 49.2999 35.4 50.9999Z" fill="#A7A7A7"/>
<path d="M70.8 33.1001C69.4 33.1001 68.1 32.6001 67.1 31.6001C66.1 30.6001 65.6 29.2001 65.7 27.8001C65.7 26.4001 66.2 25.0001 67.2 24.1001C68.2 23.1001 69.5 22.6001 70.9 22.6001C72.5 22.6001 73.8 23.1001 74.7 24.1001C75.6 25.1001 76.1 26.4001 76.1 27.8001C76.1 29.2001 75.6 30.6001 74.6 31.6001C73.6 32.6001 72.2 33.2001 70.8 33.1001ZM66.1 69.2001V37.2001C66.1 36.8001 66.3 36.6001 66.6 36.6001H74.8C75.2 36.6001 75.3 36.8001 75.3 37.2001V69.3001C75.3 69.8001 75.1 70.0001 74.8 70.0001H66.6C66.3 69.9001 66.1 69.7001 66.1 69.2001Z" fill="#A7A7A7"/>
</svg>
