<svg width="100" height="100" viewBox="0 0 100 100" fill="none" xmlns="http://www.w3.org/2000/svg">
<path d="M44.7 9.1001L7.39995 24.5001C5.29995 25.4001 5.29995 28.3001 7.39995 29.1001L44.7999 44.0001C48.0999 45.3001 51.7999 45.3001 55 44.0001L92.4 29.2001C94.5 28.4001 94.5 25.4001 92.4 24.6001L55.2999 9.1001C51.8999 7.6001 48.1 7.6001 44.7 9.1001Z" fill="#B6B6B6"/>
<path d="M53.3 52.0999V89.1999C53.3 90.9999 55.1001 92.1999 56.7001 91.4999L98.4001 75.2999C98.9001 75.0999 99.3 74.7999 99.5 74.3999C99.8 73.9999 99.9001 73.4999 99.9001 72.9999V35.8999C99.9001 34.0999 98.1 32.8999 96.5 33.5999L54.9001 49.6999C54.4001 49.8999 54 50.1999 53.8 50.5999C53.4 51.0999 53.3 51.5999 53.3 52.0999Z" fill="#949494"/>
<path d="M43.5 53.9998L31.1 59.9998L29.8 60.5998L3.8 73.0998C2.1 73.8998 0 72.6998 0 70.7998V35.9998C0 35.2998 0.3 34.7998 0.8 34.2998C1 34.1998 1.2 33.9998 1.4 33.8998C2 33.4998 2.9 33.3998 3.7 33.6998L43.3 49.3998C45.4 50.1998 45.5 52.9998 43.5 53.9998Z" fill="#6E6E6E"/>
<path d="M43.5 53.9998L31.1 59.9998L0.800049 34.3998C1.00005 34.1998 1.20005 33.9998 1.40005 33.8998C2.00005 33.4998 2.90005 33.3998 3.70005 33.6998L43.3 49.3998C45.4 50.1998 45.5 52.9998 43.5 53.9998Z" fill="black" fill-opacity="0.25"/>
</svg>
