<svg width="100" height="100" viewBox="0 0 100 100" fill="none" xmlns="http://www.w3.org/2000/svg">
<g clip-path="url(#clip0_755_19509)">
<mask id="mask0_755_19509" style="mask-type:luminance" maskUnits="userSpaceOnUse" x="0" y="0" width="100" height="100">
<path d="M100 0H0V100H100V0Z" fill="white"/>
</mask>
<g mask="url(#mask0_755_19509)">
<path fill-rule="evenodd" clip-rule="evenodd" d="M43.1 60.5998L40.9 65.8998C46.7 83.8998 46.7 83.8998 50 99.5998C53.3 83.8998 53.3 83.8998 59.1 65.8998L56.9 60.5998L50 43.7998L43.1 60.5998Z" fill="#7B7B7B"/>
<path fill-rule="evenodd" clip-rule="evenodd" d="M42.3 4.5H57.6L91.6 88.8H77.4L50 24.4L22.6 88.7H8.40002L42.3 4.5Z" fill="url(#paint0_linear_755_19509)"/>
<path fill-rule="evenodd" clip-rule="evenodd" d="M50 78.2L77.2 10.5L22.9 10.8L50 78.2Z" fill="white"/>
</g>
</g>
<defs>
<linearGradient id="paint0_linear_755_19509" x1="50.1171" y1="4.4575" x2="49.9905" y2="95.5672" gradientUnits="userSpaceOnUse">
<stop stop-color="#5F5F5F"/>
<stop offset="1" stop-color="#B5B5B5"/>
</linearGradient>
<clipPath id="clip0_755_19509">
<rect width="100" height="100" fill="white"/>
</clipPath>
</defs>
</svg>
