<svg width="100" height="100" viewBox="0 0 100 100" fill="none" xmlns="http://www.w3.org/2000/svg">
<g clip-path="url(#clip0_755_19535)">
<mask id="mask0_755_19535" style="mask-type:luminance" maskUnits="userSpaceOnUse" x="0" y="0" width="100" height="100">
<path d="M100 0H0V100H100V0Z" fill="white"/>
</mask>
<g mask="url(#mask0_755_19535)">
<path d="M50 93.7C75.9 93.7 96.9 72.7 96.9 46.8C96.9 21 75.9 0 50 0C24.1 0 3.09998 21 3.09998 46.9C3.09998 72.8 24.1 93.7 50 93.7Z" fill="black"/>
<path d="M50 93.7C75.9 93.7 96.9 72.7 96.9 46.8C96.9 21 75.9 0 50 0C24.1 0 3.09998 21 3.09998 46.9C3.09998 72.8 24.1 93.7 50 93.7Z" fill="#E5E5E5"/>
<path d="M50 93.7C75.9 93.7 96.9 72.7 96.9 46.8C96.9 21 75.9 0 50 0C24.1 0 3.09998 21 3.09998 46.9C3.09998 72.8 24.1 93.7 50 93.7Z" fill="url(#paint0_linear_755_19535)"/>
<path d="M50 92.2001C75 92.2001 95.3 71.9001 95.3 46.9001C95.3 21.8001 75 1.6001 50 1.6001C25 1.6001 4.69995 21.8001 4.69995 46.9001C4.69995 71.9001 25 92.2001 50 92.2001Z" stroke="black" stroke-opacity="0.097" stroke-width="3.125"/>
<path d="M32.3 71.8999L54.9 32.4999L58 42.6999L40.7 71.8999H49.5L60.6 52.8999L65.5 71.8999H73.5L66 43.5999L71.3 34.2999H63.3L60.2 21.8999H52.7L23.5 71.8999H32.3Z" fill="black"/>
</g>
</g>
<defs>
<linearGradient id="paint0_linear_755_19535" x1="50.0001" y1="-0.0009" x2="50.0001" y2="93.7491" gradientUnits="userSpaceOnUse">
<stop stop-color="white" stop-opacity="0.5"/>
<stop offset="1" stop-opacity="0.5"/>
</linearGradient>
<clipPath id="clip0_755_19535">
<rect width="100" height="100" fill="white"/>
</clipPath>
</defs>
</svg>
