<svg width="100" height="100" viewBox="0 0 100 100" fill="none" xmlns="http://www.w3.org/2000/svg">
<g clip-path="url(#clip0_755_19520)">
<path d="M13.2 0H86.9C94.1 0 100 5.9 100 13.2V86.9C100 94.1 94.1 100.1 86.8 100.1H13.2C5.9 100 0 94.1 0 86.8V13.1C0 5.9 5.9 0 13.2 0Z" fill="#737373"/>
<path d="M60.4 22.3V18.9C60.4 17.7 59.9 16.6 59.1 15.8C58.3 15 57.2 14.5 56 14.5H46C44.8 14.5 43.7 15 42.9 15.8C42.1 16.6 41.6 17.7 41.6 18.9V22.4C41.6 22.8 42 23.1 42.4 23C45.3 22.2 48.2 21.8 51.2 21.8C54.1 21.8 56.9 22.2 59.7 22.9C60.1 23 60.4 22.7 60.4 22.3ZM32.7 26.8L31 25.1C30.6 24.7 30.1 24.4 29.6 24.2C29.1 24 28.5 23.9 27.9 23.9C27.3 23.9 26.8 24 26.2 24.2C25.7 24.4 25.2 24.7 24.8 25.1L22.7 27.2C22.3 27.6 22 28.1 21.8 28.6C21.6 29.1 21.5 29.7 21.5 30.3C21.5 30.9 21.6 31.4 21.8 32C22 32.5 22.3 33 22.7 33.4L24.4 35.1C24.7 35.4 25.1 35.3 25.3 35C26.3 33.6 27.4 32.3 28.6 31.1C29.8 29.9 31.1 28.8 32.5 27.8C32.9 27.5 32.9 27.1 32.7 26.8ZM51.2 37.7V52.5C51.2 52.9 51.7 53.2 52.1 53L65.3 46.2C65.6 46.1 65.7 45.7 65.5 45.4C62.8 40.6 57.7 37.3 51.8 37.1C51.5 37.1 51.2 37.4 51.2 37.7ZM51.2 73.4C40.2 73.4 31.3 64.5 31.3 53.5C31.3 42.5 40.2 33.6 51.2 33.6C62.2 33.6 71.1 42.5 71.1 53.5C71.1 64.5 62.2 73.4 51.2 73.4ZM51.2 25.3C35.6 25.3 22.9 37.9 22.9 53.6C22.9 69.2 35.6 81.8 51.2 81.8C66.8 81.8 79.5 69.1 79.5 53.5C79.4 37.9 66.8 25.3 51.2 25.3Z" fill="white"/>
</g>
<defs>
<clipPath id="clip0_755_19520">
<rect width="100" height="100" fill="white"/>
</clipPath>
</defs>
</svg>
