<svg width="100" height="100" viewBox="0 0 100 100" fill="none" xmlns="http://www.w3.org/2000/svg">
<path fill-rule="evenodd" clip-rule="evenodd" d="M27.2 89.5L14.8 85V66.8L27.2 71V89.5ZM29.5 89.5L42 85.1V66.8L29.6 71V89.5H29.5ZM16.1 65.5L28.7 62L40.4 65.8L28.7 69.8L16.1 65.5ZM12.4 64.1L0 59.6V41.4L12.4 45.6V64.1ZM14.7 64.1L27.1 59.6V41.4L14.7 45.6V64.1ZM1.3 40L13.9 36.5L25.6 40.3L13.9 44.3L1.3 40ZM41.5 64.1L29 59.6V41.4L41.4 45.6V64.1H41.5ZM43.7 64.1L56.1 59.6V41.4L43.7 45.6V64.1ZM30.3 40L42.9 36.5L54.6 40.3L42.9 44.3L30.3 40ZM56.3 38.6L43.9 34.1V15.9L56.3 20.1V38.6ZM58.5 38.6L71 34.1V15.9L58.6 20.1L58.5 38.6ZM45.1 14.5L57.7 11L69.4 14.8L57.7 18.8L45.1 14.5ZM85.3 38.6L72.9 34.1V15.9L85.3 20.1V38.6ZM87.6 38.6L100 34.1V15.9L87.6 20.1V38.6ZM74.1 14.5L86.7 11L98.4 14.8L86.7 18.8L74.1 14.5Z" fill="#A7A7A7"/>
</svg>
