<svg width="100" height="100" viewBox="0 0 100 100" fill="none" xmlns="http://www.w3.org/2000/svg">
<g clip-path="url(#clip0_755_19549)">
<path d="M95.2999 87.5002C95.2999 94.4002 89.7999 100 82.8999 100C82.3999 100 81.8999 100 81.3999 99.9002C74.9999 99.0002 70.3999 93.4002 70.4999 87.0002V13.0002C70.3999 6.60022 75.0999 1.00022 81.4999 0.100221C88.2999 -0.699779 94.4999 4.20022 95.2999 11.0002C95.3999 11.5002 95.3999 12.0002 95.3999 12.5002V87.5002H95.2999Z" fill="#B0B0B0"/>
<path d="M17.4 75.2001C24.2 75.2001 29.8 80.7001 29.8 87.6001C29.8 94.4001 24.3 100 17.4 100C10.5 100 5 94.5001 5 87.6001C5 80.8001 10.5 75.2001 17.4 75.2001ZM50 37.7001C43.1 38.1001 37.8 43.8001 38 50.7001V84.0001C38 93.0001 42 98.5001 47.8 99.7001C54.5 101.1 61.1 96.7001 62.4 90.0001C62.6 89.2001 62.7 88.3001 62.6 87.5001V50.1001C62.6 43.2001 57.1 37.7001 50.2 37.6001C50.1 37.7001 50 37.7001 50 37.7001Z" fill="#898989"/>
</g>
<defs>
<clipPath id="clip0_755_19549">
<rect width="100" height="100" fill="white"/>
</clipPath>
</defs>
</svg>
