<svg width="100" height="100" viewBox="0 0 100 100" fill="none" xmlns="http://www.w3.org/2000/svg">
<mask id="mask0_755_19559" style="mask-type:luminance" maskUnits="userSpaceOnUse" x="3" y="0" width="95" height="100">
<path d="M97.5 0H3V100H97.5V0Z" fill="white"/>
</mask>
<g mask="url(#mask0_755_19559)">
<path d="M97.1 16.8L93.6 69.9L61.2 0L97.1 16.8ZM74.5 85.5L50.3 99.6L25.7 85.5L30.4 73.4H69.9L74.5 85.5ZM50.3 26.6L62.8 57.8H37.4L50.3 26.6ZM6.5 69.9L3 16.8L38.9 0L6.5 69.9Z" fill="url(#paint0_linear_755_19559)"/>
<path d="M97.1 16.8L93.6 69.9L61.2 0L97.1 16.8ZM74.5 85.5L50.3 99.6L25.7 85.5L30.4 73.4H69.9L74.5 85.5ZM50.3 26.6L62.8 57.8H37.4L50.3 26.6ZM6.5 69.9L3 16.8L38.9 0L6.5 69.9Z" fill="url(#paint1_linear_755_19559)"/>
</g>
<defs>
<linearGradient id="paint0_linear_755_19559" x1="11.7486" y1="65.2796" x2="86.6704" y2="29.6546" gradientUnits="userSpaceOnUse">
<stop stop-color="#4A4A4A"/>
<stop offset="0.2" stop-color="#585858"/>
<stop offset="0.4" stop-color="#565656"/>
<stop offset="0.5" stop-color="#545454"/>
<stop offset="0.7" stop-color="#545454"/>
<stop offset="1" stop-color="#3B3B3B"/>
</linearGradient>
<linearGradient id="paint1_linear_755_19559" x1="22.6321" y1="10.0214" x2="71.6555" y2="65.998" gradientUnits="userSpaceOnUse">
<stop stop-color="#818181"/>
<stop offset="1" stop-color="#9B9B9B" stop-opacity="0"/>
</linearGradient>
</defs>
</svg>
