<svg width="100" height="100" viewBox="0 0 100 100" fill="none" xmlns="http://www.w3.org/2000/svg">
<g clip-path="url(#clip0_755_19568)">
<mask id="mask0_755_19568" style="mask-type:luminance" maskUnits="userSpaceOnUse" x="0" y="0" width="100" height="100">
<path d="M100 0H0V100H100V0Z" fill="white"/>
</mask>
<g mask="url(#mask0_755_19568)">
<path d="M45.8 2.09981L2.1 45.7998C-0.2 48.0998 -0.2 51.8998 2.1 54.2998L45.8 97.9998C48.1 100.3 51.9 100.3 54.3 97.9998L72.6 79.6998C74.7 77.5998 74.7 74.1998 72.6 72.0998C70.5 69.9998 67.1 69.9998 65 72.0998L51.1 85.8998C50.5 86.4998 49.6 86.4998 49 85.8998L14.1 50.9998C13.5 50.3998 13.5 49.4998 14.1 48.8998L49 14.0998C49.6 13.4998 50.5 13.4998 51.1 14.0998L65 27.8998C67.1 29.9998 70.5 29.9998 72.6 27.8998C74.7 25.7998 74.7 22.3998 72.6 20.2998L54.3 1.99981C51.9 -0.300191 48.1 -0.300191 45.8 2.09981Z" fill="url(#paint0_linear_755_19568)"/>
<path d="M45.8 2.09981L2.1 45.7998C-0.2 48.0998 -0.2 51.8998 2.1 54.2998L45.8 97.9998C48.1 100.3 51.9 100.3 54.3 97.9998L72.6 79.6998C74.7 77.5998 74.7 74.1998 72.6 72.0998C70.5 69.9998 67.1 69.9998 65 72.0998L51.1 85.8998C50.5 86.4998 49.6 86.4998 49 85.8998L14.1 50.9998C13.5 50.3998 13.5 49.4998 14.1 48.8998L49 14.0998C50.5 12.7998 52.8 10.2998 56.3 9.69981C58.9 9.29981 61.7 10.1998 64.8 12.5998C62.8 10.4998 59.3 6.99981 54.3 1.99981C51.9 -0.300191 48.1 -0.300191 45.8 2.09981Z" fill="url(#paint1_linear_755_19568)"/>
<path d="M76.8 67.8997C78.9 69.9997 82.3 69.9997 84.4 67.8997L98 54.3997C100.3 52.0997 100.3 48.2997 98 45.8997L84.3 32.3997C82.2 30.2997 78.8 30.2997 76.7 32.3997C74.6 34.4997 74.6 37.8997 76.7 39.9997L85.9 49.1997C86.5 49.7997 86.5 50.6997 85.9 51.2997L76.8 60.3997C74.7 62.3997 74.7 65.7997 76.8 67.8997Z" fill="url(#paint2_linear_755_19568)"/>
<path d="M50.3 61.9999C56.8 61.9999 62.1 56.6999 62.1 50.1999C62.1 43.6999 56.8 38.3999 50.3 38.3999C43.8 38.3999 38.5 43.6999 38.5 50.1999C38.5 56.6999 43.7 61.9999 50.3 61.9999Z" fill="url(#paint3_linear_755_19568)"/>
</g>
</g>
<defs>
<linearGradient id="paint0_linear_755_19568" x1="3332.81" y1="2054.72" x2="7485.97" y2="4590.99" gradientUnits="userSpaceOnUse">
<stop stop-color="#7C7C7C"/>
<stop offset="1" stop-color="#9F9F9F"/>
</linearGradient>
<linearGradient id="paint1_linear_755_19568" x1="233.227" y1="-949.947" x2="-1818.05" y2="9651.64" gradientUnits="userSpaceOnUse">
<stop stop-color="#A1A1A1"/>
<stop offset="0.3786" stop-color="#767676"/>
<stop offset="1" stop-color="#585858"/>
</linearGradient>
<linearGradient id="paint2_linear_755_19568" x1="815.105" y1="-1094.74" x2="-1853.93" y2="3079.4" gradientUnits="userSpaceOnUse">
<stop stop-color="#A3A3A3"/>
<stop offset="0.4147" stop-color="#808080"/>
<stop offset="1" stop-color="#5F5F5F"/>
</linearGradient>
<linearGradient id="paint3_linear_755_19568" x1="344.93" y1="-1128.51" x2="-543.132" y2="2423.88" gradientUnits="userSpaceOnUse">
<stop stop-color="#ADADAD"/>
<stop offset="0.5126" stop-color="#808080"/>
<stop offset="1" stop-color="#5F5F5F"/>
</linearGradient>
<clipPath id="clip0_755_19568">
<rect width="100" height="100" fill="white"/>
</clipPath>
</defs>
</svg>
