<svg width="100" height="100" viewBox="0 0 100 100" fill="none" xmlns="http://www.w3.org/2000/svg">
<g clip-path="url(#clip0_755_19579)">
<mask id="mask0_755_19579" style="mask-type:luminance" maskUnits="userSpaceOnUse" x="0" y="0" width="100" height="100">
<path d="M100 0H0V100H100V0Z" fill="white"/>
</mask>
<g mask="url(#mask0_755_19579)">
<path d="M76.6 0H23.4C10.5 0 0 10.5 0 23.4V76.5C0 89.5 10.5 100 23.4 100H76.5C89.4 100 99.9 89.5 99.9 76.6V23.4C100 10.5 89.5 0 76.6 0Z" fill="#6E6E6E"/>
<path fill-rule="evenodd" clip-rule="evenodd" d="M62.5 75.3001C57.9 75.3001 53.6 74.1001 49.9 71.9001C47.1 73.5001 44 74.6001 40.8 75.0001C34.2 75.9001 27.5 74.2001 22.2 70.2001C19.6 68.2001 17.3 65.7001 15.7 62.9001C14 60.1001 12.9 56.9001 12.5 53.6001C12 50.3001 12.2 47.0001 13.1 43.8001C13.9 40.6001 15.4 37.6001 17.4 35.0001C19.4 32.4001 21.9 30.1001 24.7 28.5001C27.5 26.8001 30.7 25.7001 34 25.3001C37.3 24.8001 40.6 25.0001 43.8 25.9001C46 26.5001 48.1 27.3001 50.1 28.5001C53.8 26.3001 58.1 25.1001 62.7 25.1001C76.6 25.1001 87.9 36.4001 87.9 50.3001C87.6 64.1001 76.4 75.3001 62.5 75.3001ZM45.7 31.5001C42.2 29.9001 38.3 29.4001 34.5 29.9001C29.1 30.7001 24.2 33.5001 21 37.9001C17.7 42.2001 16.3 47.7001 17.1 53.1001C17.9 58.5001 20.7 63.4001 25.1 66.6001C29.4 69.9001 34.9 71.3001 40.3 70.5001C45.7 69.7001 50.6 66.9001 53.8 62.5001C57.1 58.2001 58.5 52.7001 57.7 47.3001C57.4 44.8001 56.6 42.4001 55.4 40.3001C53.1 36.4001 49.7 33.3001 45.7 31.5001Z" fill="white"/>
<path d="M37.9001 41.4998C37.9001 41.5998 37.5001 43.0998 37.1001 44.8998C36.7001 46.6998 36.0001 49.4998 35.6001 51.1998C34.9001 54.2998 34.4001 56.2998 34.4001 56.4998C34.4001 56.5998 34.9001 56.5998 35.4001 56.5998H36.4001L36.9001 54.5998C37.2001 53.4998 37.8001 50.8998 38.2001 48.8998C38.7001 46.8998 39.3001 44.4998 39.5001 43.4998C39.7001 42.4998 39.9001 41.5998 40.0001 41.4998C40.0001 41.3998 39.8001 41.2998 39.0001 41.2998C38.5001 41.3998 38.0001 41.3998 37.9001 41.4998ZM30.0001 47.8998L28.6001 49.3998L29.0001 49.8998C29.2001 50.1998 29.8001 50.7998 30.3001 51.3998L31.2001 52.3998H34.0001L32.7001 50.9998C32.0001 50.2998 31.4001 49.4998 31.4001 49.4998C31.4001 49.3998 31.9001 48.6998 32.6001 47.9998C33.3001 47.2998 33.8001 46.6998 33.8001 46.5998C33.8001 46.4998 33.2001 46.4998 32.6001 46.4998H31.4001L30.0001 47.8998ZM40.4001 46.4998C40.4001 46.4998 40.7001 46.7998 41.0001 47.0998C42.2001 48.2998 43.0001 49.1998 42.9001 49.3998C42.9001 49.4998 42.3001 50.1998 41.6001 50.8998L40.4001 52.1998H41.8001H43.2001L44.5001 50.7998C45.2001 49.9998 45.8001 49.2998 45.8001 49.2998C45.8001 49.1998 45.2001 48.4998 44.5001 47.6998L43.0001 46.3998H41.7001C40.9001 46.3998 40.4001 46.3998 40.4001 46.4998Z" fill="white"/>
</g>
</g>
<defs>
<clipPath id="clip0_755_19579">
<rect width="100" height="100" fill="white"/>
</clipPath>
</defs>
</svg>
