<svg width="100" height="100" viewBox="0 0 100 100" fill="none" xmlns="http://www.w3.org/2000/svg">
<mask id="mask0_755_19589" style="mask-type:luminance" maskUnits="userSpaceOnUse" x="0" y="7" width="100" height="86">
<path d="M100 7H0V92.5H100V7Z" fill="white"/>
</mask>
<g mask="url(#mask0_755_19589)">
<path d="M48.3 7C53.7 7.2 58.6 10.3 60.9 15.2L70.2 34.7L70.3 34.3C70.7 33.3 71 32.3 71.2 31.3L71.3 30.7C72.9 22.9 80.5 17.8 88.3 19.4C90.2 19.8 91.9 20.5 93.5 21.6C95.1 22.7 96.4 24 97.5 25.6C98.6 27.2 99.3 28.9 99.7 30.8C100.1 32.7 100.1 34.6 99.7 36.4C97.6 46.8 92.2 56.5 84.5 64.1L84.3 64.3L87.6 71.1C91.4 79 87.5 88.6 79.2 91.3L78.8 91.4L78.5 91.5C77.2 91.9 75.9 92 74.6 92C71.9 92 69.2 91.2 66.9 89.8C64.6 88.3 62.7 86.3 61.6 83.8L59.1 78.5L58.5 78.7C55.1 79.5 51.7 79.9 48.2 80H47.3C44 80 40.6 79.6 37.2 78.9L36.5 78.7L34.1 84C32.5 87.4 29.6 90.1 26 91.4L25.6 91.5C23.7 92.1 21.8 92.3 19.8 92.2C17.9 92 16 91.5 14.2 90.6C7.30001 87 4.70001 78.4 8.10001 71.4L11.1 65.1L10.8 64.8C6.70001 60.7 3.40001 56.1 1.30001 51.2L1.00001 50.5V50.4C-1.99999 43 1.60001 34.6 9.00001 31.6C14.8 29.3 21.2 30.9 25.2 35.3L25.3 35.4L34.8 15.3C35.9 12.9 37.7 10.8 39.9 9.4C42.1 7.9 44.7 7.1 47.4 7H47.8H48.3Z" fill="white"/>
<path d="M34 73.4001L42.6 55.4001C36.1 54.0001 29.5 50.0001 25.8 45.1001L16.9 63.9001C21.8 68.1001 27.8 71.4001 34 73.4001Z" fill="#161616"/>
<path d="M69.7 44.5C65.4 49.8 59.4 53.7 53.1 55.2L61.6 73.1C67.8 71 73.6 67.6 78.7 63.3L69.7 44.5Z" fill="#191919"/>
<path d="M16.8 63.8999L12.3 73.2999C10 78.0999 11.7 83.9999 16.4 86.4999C21.4 89.0999 27.5 87.0999 29.9 82.0999L34 73.4999C27.7 71.3999 21.9 68.1999 16.8 63.8999Z" fill="#161616"/>
<path d="M87.5 23.9999C86.2 23.6999 84.9 23.6999 83.7 23.9999C82.4 24.2999 81.2 24.6999 80.2 25.4999C79.1 26.1999 78.2 27.0999 77.5 28.1999C76.8 29.2999 76.3 30.4999 76 31.6999C75.1 36.3999 72.8 40.7999 69.8 44.4999L78.7 63.2999C86.9 56.0999 93 46.3999 95.2 35.4999C96.2 30.1999 92.8 25.0999 87.5 23.9999Z" fill="#B4B4B4"/>
<path d="M53.1 55.1999C51.2 55.6999 49.2 55.8999 47.3 55.8999C45.8 55.8999 44.2 55.6999 42.6 55.3999C36.1 53.9999 29.5 49.9999 25.8 45.0999C24.9 43.8999 24.1 42.5999 23.6 41.2999C21.6 36.2999 15.8 33.8999 10.8 35.8999C5.80001 37.8999 3.40001 43.6999 5.40001 48.6999C7.70001 54.3999 11.8 59.6999 16.9 63.9999C22 68.2999 27.8 71.4999 34.1 73.4999C38.4 74.8999 42.9 75.6999 47.3 75.6999C52.2 75.6999 57 74.8999 61.6 73.2999L53.1 55.1999Z" fill="#313131"/>
<path d="M83.4 73.2001L78.7 63.3001L69.8 44.5001L56.8 17.2001C56 15.5001 54.7 14.1001 53.2 13.1001C51.6 12.1001 49.8 11.6001 48 11.6001C44.2 11.6001 40.8 13.8001 39.1 17.2001L25.8 45.1001C29.5 50.0001 36.1 54.1001 42.6 55.4001L46.9 46.4001C47.3 45.6001 48.5 45.6001 48.9 46.4001L53.1 55.2001L61.6 73.1001L65.8 81.9001C66.6 83.6001 67.9 85.0001 69.4 86.0001C71 87.0001 72.8 87.5001 74.7 87.5001C75.6 87.5001 76.5 87.4001 77.3 87.1001C83.2 85.6001 86 78.8001 83.4 73.2001Z" fill="#898989"/>
</g>
</svg>
