<svg width="100" height="100" viewBox="0 0 100 100" fill="none" xmlns="http://www.w3.org/2000/svg">
<g clip-path="url(#clip0_755_19605)">
<path d="M29.6 46.2002C29.1 45.6002 28.5 45.2002 27.7 45.1002C27 45.0002 26.2 45.2002 25.6 45.7002C25.2 46.0002 25 46.3002 24.8 46.7002L0.299993 95.7002C-7.00355e-06 96.4002 -0.100007 97.2002 0.099993 97.9002C0.299993 98.6002 0.899993 99.2002 1.59999 99.6002C1.99999 99.8002 2.49999 100 2.89999 100H37C37.5 100 38.1 99.9002 38.6 99.6002C39.1 99.3002 39.4 98.9002 39.7 98.4002C47 83.1002 42.6 60.0002 29.6 46.2002Z" fill="url(#paint0_linear_755_19605)"/>
<path d="M47.6 1.6001C41.5 11.0001 38 21.8001 37.3 33.0001C36.6 44.2001 38.9 55.4001 43.9 65.4001L60.4 98.3001C60.6 98.8001 61 99.2001 61.5 99.5001C62 99.8001 62.5 99.9001 63 99.9001H97.1C97.5 99.9001 97.9 99.8001 98.2 99.7001C98.6 99.6001 98.9 99.3001 99.2 99.1001C99.5 98.8001 99.7 98.5001 99.8 98.1001C99.9 97.7001 100 97.4001 100 97.0001C100 96.5001 99.9 96.1001 99.7 95.7001L52.6 1.6001C52.4 1.1001 52 0.700098 51.6 0.500098C51.2 0.200098 50.6 0.100098 50.1 0.100098C49.6 0.100098 49.1 0.200098 48.6 0.500098C48.2 0.700098 47.9 1.1001 47.6 1.6001Z" fill="#757575"/>
</g>
<defs>
<linearGradient id="paint0_linear_755_19605" x1="43.0997" y1="53.718" x2="17.2276" y2="98.529" gradientUnits="userSpaceOnUse">
<stop stop-color="#474747"/>
<stop offset="0.92" stop-color="#757575"/>
</linearGradient>
<clipPath id="clip0_755_19605">
<rect width="100" height="100" fill="white"/>
</clipPath>
</defs>
</svg>
