<svg width="100" height="100" viewBox="0 0 100 100" fill="none" xmlns="http://www.w3.org/2000/svg">
<g clip-path="url(#clip0_755_19609)">
<mask id="mask0_755_19609" style="mask-type:luminance" maskUnits="userSpaceOnUse" x="0" y="0" width="100" height="100">
<path d="M100 0H0V100H100V0Z" fill="white"/>
</mask>
<g mask="url(#mask0_755_19609)">
<path d="M50 100C77.6 100 100 77.6 100 50C100 22.4 77.6 0 50 0C22.4 0 0 22.4 0 50C0 77.6 22.4 100 50 100Z" fill="#959595"/>
<path d="M46 23.0998C46.3 23.2998 46.5 23.6998 46.5 23.9998C46.5 24.3998 46.4 24.6998 46.2 24.9998C46 25.2998 45.6 25.4998 45.3 25.4998C44.9 25.4998 44.6 25.3998 44.3 25.1998C40.6 22.2998 37.6 21.2998 35.7 22.1998C33.5 23.2998 32.7 26.8998 33.1 31.8998L33.2 32.5998C33.2 32.8998 33.3 33.2998 33.3 33.5998L33.4 34.2998C33.5 35.0998 33.7 35.9998 33.9 36.8998C36.5 36.4998 39.4 36.1998 42.4 36.0998C43.7 34.4998 45 32.8998 46.3 31.3998L47 30.6998C48.7 28.8998 50.3 27.3998 52 25.9998L52.7 25.4998C58.7 20.6998 64.2 18.7998 67.8 21.0998C70.9 23.0998 71.8 27.6998 70.6 33.8998C70.6 34.0998 70.5 34.2998 70.4 34.3998C70.3 34.5998 70.2 34.6998 70 34.7998C69.8 34.8998 69.7 34.9998 69.5 34.9998C69.3 34.9998 69.1 34.9998 68.9 34.9998C68.7 34.9998 68.5 34.8998 68.4 34.7998C68.2 34.6998 68.1 34.5998 68 34.3998C67.9 34.1998 67.8 34.0998 67.8 33.8998C67.8 33.6998 67.8 33.4998 67.8 33.2998C68.8 28.0998 68.1 24.5998 66.2 23.3998C63.7 21.7998 59.1 23.5998 53.9 27.9998L53.3 28.4998C53 28.7998 52.7 28.9998 52.4 29.2998L51.8 29.7998C51.2 30.3998 50.6 30.8998 50 31.4998L49.4 32.0998C49.3 32.1998 49.2 32.2998 49.1 32.3998L48.5 32.9998L47.9 33.6998L47.3 34.3998C47.1 34.5998 46.9 34.8998 46.7 35.0998L46.1 35.7998L46 36.2998C47.4 36.2998 48.8 36.2998 50.3 36.3998H50.9L52 36.4998C52.9 36.5998 53.8 36.5998 54.7 36.6998L55.8 36.7998C56 36.7998 56.2 36.7998 56.3 36.8998L57.4 36.9998C58.3 37.0998 59.1 37.1998 60 37.3998L61 37.5998L62 37.7998L63 37.9998C66.2 38.6998 69.2 39.4998 71.9 40.4998L72.7 40.7998C79.6 43.5998 83.9 47.3998 83.7 51.5998C83.5 55.0998 80.4 57.8998 75.2 59.9998C75 60.0998 74.8 60.0998 74.7 60.0998C74.5 60.0998 74.3 60.0998 74.2 59.9998C74 59.8998 73.9 59.7998 73.7 59.6998C73.6 59.5998 73.5 59.3998 73.4 59.1998C73.3 58.9998 73.3 58.7998 73.3 58.6998C73.3 58.4998 73.3 58.2998 73.4 58.1998C73.5 57.9998 73.6 57.8998 73.7 57.6998C73.8 57.5998 74 57.4998 74.2 57.3998C78.5 55.6998 80.8 53.5998 80.9 51.4998C81 48.7998 77.8 46.0998 72.5 43.7998L71.8 43.4998C71.4 43.2998 70.9 43.0998 70.4 42.9998L69.7 42.6998C69.5 42.5998 69.2 42.4998 69 42.4998L68 42.1998L67.2 41.9998C67.1 41.9998 66.9 41.8998 66.8 41.8998L66 41.5998C65.9 41.5998 65.7 41.4998 65.6 41.4998L64.8 41.2998C63.9 41.0998 63.1 40.8998 62.2 40.6998L61.3 40.4998L60.8 40.3998L59.9 40.1998H59L58.5 40.0998L57.6 39.9998C57.3 39.9998 57 39.8998 56.6 39.8998L55.6 39.7998L54.6 39.6998C54.1 39.5998 53.6 39.5998 53.1 39.5998L52.1 39.4998C51.8 39.4998 51.4 39.4998 51.1 39.3998L50.1 39.2998H49.1H48.1C46.9 39.2998 45.8 39.2998 44.6 39.2998H43.8L43.5 39.6998C43.3 39.9998 43.1 40.1998 42.9 40.4998L42.3 41.2998C41.4 42.5998 40.6 43.7998 39.7 45.0998L39.2 45.9998C38.6 46.8998 38.1 47.8998 37.5 48.7998C37.5 48.8998 37.6 48.9998 37.6 49.1998L38 50.0998C38.1 50.2998 38.1 50.3998 38.2 50.5998L38.6 51.4998L39 52.3998L39.4 53.2998L39.8 54.1998L40.3 55.0998L40.8 55.9998L41.3 56.8998L41.8 57.7998L42 58.1998L42.5 59.0998C42.7 59.3998 42.8 59.6998 43 59.9998L43.5 60.7998C43.7 61.0998 43.8 61.3998 44 61.5998L44.5 62.3998L45 63.1998C45.4 63.7998 45.9 64.4998 46.3 65.0998L46.8 65.7998C47.1 66.2998 47.5 66.7998 47.9 67.1998L48.4 67.8998L48.9 68.5998C49 68.6998 49.1 68.7998 49.2 68.8998L49.7 69.4998L50.2 70.0998C50.7 70.6998 51.2 71.2998 51.8 71.7998L52.3 72.2998L52.8 72.7998C53.1 72.9998 53.3 73.2998 53.6 73.4998L54.1 73.9998C54.3 74.1998 54.6 74.3998 54.9 74.6998L55.4 75.0998C59 77.8998 62 78.9998 64 77.8998C65.9 76.8998 66.8 74.0998 66.7 70.1998V69.5998C66.7 69.3998 66.7 69.1998 66.7 68.9998V68.3998C66.7 68.1998 66.7 67.9998 66.6 67.6998L66.5 66.9998C66.5 66.8998 66.5 66.7998 66.5 66.6998L66.3 65.9998L66.2 65.2998L66.1 64.5998C66 63.9998 65.9 63.3998 65.7 62.6998L65.6 61.9998L65.4 61.1998C65.4 61.0998 65.3 60.8998 65.3 60.7998L65.1 59.9998L64.9 59.1998L64.8 58.7998L64.5 57.9998L64.2 57.1998C64.1 56.7998 63.9 56.3998 63.8 55.8998L63.5 55.0998L63.2 54.1998C63 53.5998 62.8 52.9998 62.5 52.4998L62.1 51.5998L61.7 50.6998L61.5 50.2998L61.1 49.3998L60.7 48.4998C60.6 48.3998 60.6 48.1998 60.5 48.0998L60.1 47.1998C60 47.0998 60 46.8998 59.9 46.7998C59.8 46.5998 59.8 46.4998 59.8 46.2998C59.8 46.0998 59.8 45.8998 59.9 45.6998C60 45.4998 60.1 45.3998 60.2 45.1998C60.3 45.0998 60.5 44.8998 60.6 44.8998C60.8 44.7998 61 44.7998 61.1 44.7998C61.3 44.7998 61.5 44.7998 61.6 44.8998C61.8 44.9998 61.9 45.0998 62.1 45.1998C62.2 45.2998 62.4 45.4998 62.4 45.5998L62.9 46.5998C63.1 46.8998 63.2 47.1998 63.4 47.5998L63.8 48.5998C64.2 49.5998 64.6 50.4998 65 51.4998L65.4 52.3998C65.5 52.5998 65.5 52.6998 65.6 52.8998L66 53.7998C66.1 53.9998 66.1 54.0998 66.2 54.2998L66.5 55.1998C66.7 55.7998 66.9 56.3998 67.1 56.9998L67.4 57.8998C70.7 68.9998 70.3 77.9998 65.3 80.5998C61.3 82.6998 55.6 79.7998 49.8 73.7998L49.2 72.9998C48.8 72.5998 48.4 72.0998 48 71.6998L47.4 70.9998C45.8 69.0998 44.3 66.9998 42.7 64.6998L42.1 63.7998C40.6 61.4998 39.3 59.1998 38 56.7998L37.7 56.2998C37.5 55.9998 37.4 55.5998 37.2 55.2998L36.7 54.2998C36.3 53.4998 36 52.6998 35.6 51.8998L35.4 52.2998C35.3 52.3998 35.3 52.5998 35.2 52.6998L34.8 53.4998L34.4 54.2998L34 55.0998C33.9 55.1998 33.9 55.3998 33.8 55.4998L33.5 56.2998C33.4 56.3998 33.4 56.5998 33.3 56.6998L33 57.4998C33.1 57.7998 33 57.8998 33 57.9998L32.7 58.7998C32.7 58.8998 32.6 59.0998 32.6 59.1998L32.3 59.9998L32 60.7998C31.9 61.1998 31.8 61.5998 31.6 61.8998L31.4 62.5998L31.2 63.2998C31.2 63.3998 31.1 63.4998 31.1 63.6998L30.9 64.3998C30.8 64.9998 30.6 65.4998 30.5 66.0998L30.4 66.7998C29.6 71.3998 30.1 74.7998 32.1 76.0998C34.1 77.3998 37.8 76.3998 42.3 73.0998C42.4 72.9998 42.6 72.8998 42.8 72.8998C43 72.8998 43.2 72.7998 43.4 72.8998C43.6 72.8998 43.8 72.9998 43.9 73.0998C44.1 73.1998 44.2 73.2998 44.3 73.4998C44.4 73.6998 44.5 73.7998 44.5 73.9998C44.5 74.1998 44.5 74.3998 44.5 74.5998C44.5 74.7998 44.4 74.9998 44.3 75.0998C44.2 75.1998 44.1 75.3998 43.9 75.4998C38.5 79.3998 33.7 80.6998 30.5 78.5998C26.6 76.0998 26.3 69.2998 28.9 60.8998L29.2 60.0998C29.4 59.4998 29.6 58.9998 29.8 58.3998L30.1 57.4998C30.6 56.2998 31.1 55.0998 31.6 53.8998L32 52.9998L32.4 52.0998C33 50.8998 33.6 49.7998 34.2 48.5998C34.1 48.3998 34 48.1998 33.9 47.9998L33.5 46.9998C33 45.6998 32.6 44.4998 32.2 43.1998L31.9 42.2998C31.7 41.6998 31.6 41.0998 31.4 40.5998C31.2 40.5998 31.1 40.6998 30.9 40.6998L30.1 40.8998L29.4 41.0998C29.3 41.0998 29.2 41.1998 29 41.1998L28.3 41.3998L27.6 41.5998C27.4 41.6998 27.1 41.6998 26.9 41.7998L26.2 41.9998C26 42.0998 25.8 42.0998 25.6 42.1998L25 42.3998C20.8 43.9998 18.2 46.0998 18.1 48.3998C18 50.4998 20.1 52.8998 24.2 54.9998C24.4 55.0998 24.5 55.1998 24.6 55.2998C24.7 55.3998 24.8 55.5998 24.9 55.7998C25 55.9998 25 56.1998 25 56.3998C25 56.5998 24.9 56.7998 24.8 56.8998C24.7 57.0998 24.6 57.1998 24.5 57.2998C24.4 57.3998 24.2 57.4998 24 57.5998C23.8 57.6998 23.6 57.6998 23.4 57.6998C23.2 57.6998 23 57.5998 22.9 57.4998C17.9 54.8998 15.1 51.6998 15.3 48.2998C15.6 43.4998 21.7 39.7998 30.8 37.8998C29 29.0998 29.9 22.2998 34.1 20.0998C37.5 18.1998 41.6 19.4998 46 23.0998ZM53.7 49.2998C54.2 51.4998 52.8 53.5998 50.6 54.0998C48.4 54.5998 46.3 53.1998 45.8 50.9998C45.3 48.7998 46.7 46.6998 48.9 46.1998C51.1 45.7998 53.3 47.0998 53.7 49.2998ZM40.1 39.2998H39.8C39.6 39.2998 39.4 39.2998 39.2 39.2998L38.3 39.3998L37.4 39.4998C37.3 39.4998 37.1 39.4998 37 39.4998L36.1 39.5998L35.7 39.6998L34.8 39.7998L34.5 39.8998L34.6 40.2998C34.8 40.9998 35 41.6998 35.2 42.3998L35.5 43.2998L35.6 43.6998L35.9 44.5998C36 44.7998 36.1 45.0998 36.1 45.2998C36.6 44.5998 37 43.7998 37.5 43.0998L37.8 42.5998C38.6 41.4998 39.3 40.3998 40.1 39.2998Z" fill="white"/>
</g>
</g>
<defs>
<clipPath id="clip0_755_19609">
<rect width="100" height="100" fill="white"/>
</clipPath>
</defs>
</svg>
