<svg width="100" height="100" viewBox="0 0 100 100" fill="none" xmlns="http://www.w3.org/2000/svg">
<g clip-path="url(#clip0_755_19619)">
<path d="M22.7 24.0999C23.9 24.8999 24.8 25.7999 25.3 26.8999C26.1 28.5999 26.9 30.4999 27.8 32.5999C28.7 34.5999 29.6 36.6999 30.6 38.7999C31.5 40.8999 32.4 42.8999 33.3 44.8999C34.1 46.8999 34.9 48.6999 35.6 50.3999C36.3 51.9999 36.8 53.4999 37.2 54.5999C37.6 55.7999 37.8 56.4999 37.8 56.8999C37.8 57.4999 37.7 58.0999 37.6 58.6999C37.4 59.2999 37.1 59.7999 36.7 60.2999C36.3 60.7999 35.7 61.1999 34.9 61.4999C34.1 61.7999 33.1 61.8999 31.9 61.8999C30.6 61.8999 29.5 61.6999 28.7 61.3999C27.9 61.0999 27.2 60.5999 26.7 60.0999C26.2 59.5999 25.7 58.9999 25.3 58.3999C24.9 57.7999 24.6 57.1999 24.2 56.6999C23.8 56.1999 23.4 55.6999 22.9 55.3999C22.4 55.0999 21.7 54.8999 20.9 54.8999H17.4C16.4 54.8999 15.6 55.0999 15 55.3999C14.4 55.6999 13.9 56.1999 13.5 56.6999C13.1 57.1999 12.8 57.7999 12.4 58.3999C12.1 58.9999 11.7 59.5999 11.1 60.0999C10.6 60.5999 9.90003 61.0999 9.10003 61.3999C8.30002 61.6999 7.20002 61.8999 5.80002 61.8999C3.80002 61.8999 2.30002 61.4999 1.30002 60.4999C0.400024 59.5999 -0.0999756 58.4999 -0.0999756 57.2999C-0.0999756 56.7999 0.100024 55.9999 0.500024 54.7999C0.900024 53.5999 1.40002 52.1999 2.10002 50.5999C2.80002 48.9999 3.50002 47.1999 4.40002 45.1999C5.20002 43.1999 6.10002 41.1999 7.10002 38.9999C8.00002 36.9999 8.90003 34.8999 9.80002 32.6999C10.7 30.5999 11.6 28.4999 12.5 26.5999C13 25.4999 13.9 24.5999 15 23.8999C16.2 23.2999 17.5 22.8999 18.9 22.8999C20.3 22.9999 21.5 23.3999 22.7 24.0999ZM66.6 24.2999C67.5 25.1999 68 26.1999 68 27.5999C68 28.3999 67.8 29.2999 67.4 30.5999C67 31.7999 66.5 33.1999 65.9 34.7999C65.3 36.3999 64.6 37.9999 63.8 39.7999C63 41.5999 62.2 43.3999 61.4 45.2999C60.3 47.8999 59.4 50.1999 58.6 52.1999C57.8 54.1999 57 55.9999 56.2 57.3999C55.4 58.7999 54.5 59.8999 53.5 60.6999C52.5 61.4999 51.4 61.8999 50 61.8999C48.5 61.8999 47.3 61.5999 46.4 60.8999C45.4 60.2999 44.6 59.2999 43.8 57.9999C43 56.6999 42.3 55.0999 41.5 53.1999C40.8 51.2999 39.9 48.8999 38.9 46.2999C38.1 44.2999 37.4 42.2999 36.6 40.3999C35.8 38.4999 35.1 36.6999 34.4 35.0999C33.8 33.4999 33.2 31.9999 32.8 30.6999C32.4 29.3999 32.2 28.3999 32.2 27.6999C32.2 25.9999 32.8 24.7999 33.9 24.0999C35 23.3999 36.4 22.9999 38.1 22.9999C39.6 22.9999 40.8 23.1999 41.6 23.5999C42.4 23.9999 43.2 24.4999 43.8 25.0999C44.2 25.4999 44.7 26.1999 45.1 26.9999C45.5 27.7999 45.9 28.6999 46.3 29.6999C46.7 30.6999 47.1 31.6999 47.4 32.6999C47.8 33.6999 48.1 34.5999 48.5 35.4999C48.8 36.3999 49.1 36.9999 49.5 37.5999C49.8 38.0999 50.1 38.3999 50.3 38.3999C50.6 38.3999 50.9 38.0999 51.2 37.5999C51.5 37.0999 51.8 36.3999 52.2 35.5999C52.5 34.7999 52.9 33.8999 53.2 32.8999C53.5 31.8999 53.9 30.8999 54.3 29.8999C54.7 28.8999 55.1 27.9999 55.5 27.1999C55.9 26.3999 56.3 25.7999 56.8 25.2999C57.2 24.8999 57.6 24.5999 58 24.2999C58.4 23.9999 58.8 23.7999 59.3 23.5999C59.7 23.3999 60.3 23.2999 60.9 23.1999C61.5 23.0999 62.2 23.0999 63 23.0999C64.4 23.0999 65.6 23.4999 66.6 24.2999ZM85 24.0999C86.2 24.8999 87.1 25.7999 87.6 26.8999C88.4 28.5999 89.2 30.4999 90.1 32.5999C91 34.5999 91.9 36.6999 92.9 38.7999C93.8 40.8999 94.7 42.8999 95.6 44.8999C96.4 46.8999 97.2 48.6999 97.9 50.3999C98.6 51.9999 99.1 53.4999 99.5 54.5999C99.9 55.7999 100.1 56.4999 100.1 56.8999C100.1 57.4999 100 58.0999 99.9 58.6999C99.7 59.2999 99.4 59.7999 99 60.2999C98.6 60.7999 98 61.1999 97.2 61.4999C96.4 61.7999 95.4 61.8999 94.2 61.8999C92.9 61.8999 91.8 61.6999 91 61.3999C90.2 61.0999 89.5 60.5999 89 60.0999C88.5 59.5999 88 58.9999 87.6 58.3999C87.2 57.7999 86.9 57.1999 86.5 56.6999C86.1 56.1999 85.7 55.6999 85.2 55.3999C84.7 55.0999 84 54.8999 83.2 54.8999H79.7C78.7 54.8999 77.9 55.0999 77.3 55.3999C76.7 55.6999 76.2 56.1999 75.8 56.6999C75.4 57.1999 75.1 57.7999 74.7 58.3999C74.4 58.9999 74 59.5999 73.4 60.0999C72.9 60.5999 72.2 61.0999 71.4 61.3999C70.6 61.6999 69.5 61.8999 68.1 61.8999C66.1 61.8999 64.6 61.4999 63.6 60.4999C62.7 59.5999 62.2 58.4999 62.2 57.2999C62.2 56.7999 62.4 55.9999 62.8 54.7999C63.2 53.5999 63.7 52.1999 64.4 50.5999C65 48.9999 65.8 47.1999 66.6 45.1999C67.4 43.1999 68.3 41.1999 69.3 38.9999C70.2 36.8999 71.2 34.7999 72.1 32.6999C73 30.5999 73.9 28.4999 74.8 26.5999C75.3 25.4999 76.2 24.5999 77.3 23.8999C78.5 23.2999 79.8 22.8999 81.2 22.8999C82.6 22.9999 83.8 23.3999 85 24.0999Z" fill="#505050"/>
<path d="M18.9 77.5C19.2 77.5 19.5 77.3 19.6 77.1C19.6 77.1 20.8 74.9 21.9 72.4C22.5 71.1 23.1 69.7 23.5 68.5C23.7 67.9 23.9 67.2 24 66.7C24.1 66.1 24.2 65.6 24.2 65.1C24.2 63.3 23.5 61.6 22.4 60.5C21.4 59.5 20.2 59 18.8 59C17.4 59 16.1 59.6 15.2 60.5C14.1 61.6 13.4 63.3 13.4 65.1C13.4 65.6 13.5 66.1 13.6 66.7C13.8 67.7 14.2 68.8 14.7 70C16.1 73.5 18.1 77.2 18.1 77.2C18.3 77.4 18.6 77.5 18.9 77.5ZM81.2 77.5C81.5 77.5 81.8 77.3 81.9 77.1C81.9 77.1 83.1 74.9 84.2 72.4C84.8 71.1 85.4 69.7 85.8 68.5C86 67.9 86.2 67.2 86.3 66.7C86.4 66.1 86.5 65.6 86.5 65.1C86.5 63.3 85.8 61.6 84.7 60.5C83.7 59.5 82.5 59 81.1 59C79.7 59 78.4 59.6 77.5 60.5C76.4 61.6 75.7 63.3 75.7 65.1C75.7 65.6 75.8 66.1 75.9 66.7C76.1 67.7 76.5 68.8 77 70C78.4 73.5 80.4 77.2 80.4 77.2C80.6 77.4 80.9 77.5 81.2 77.5Z" fill="#CECECE"/>
</g>
<defs>
<clipPath id="clip0_755_19619">
<rect width="100" height="100" fill="white"/>
</clipPath>
</defs>
</svg>
