<svg width="100" height="100" viewBox="0 0 100 100" fill="none" xmlns="http://www.w3.org/2000/svg">
<mask id="mask0_755_19627" style="mask-type:luminance" maskUnits="userSpaceOnUse" x="0" y="7" width="100" height="87">
<path d="M100 7H0V93.3H100V7Z" fill="white"/>
</mask>
<g mask="url(#mask0_755_19627)">
<path d="M99.1 67.2L77.8 31.5C76.8 29.9 74.4 28.5 72.4 28.5H59.0999C56 28.5 54.7 26.4 56.2999 23.8L63.5999 11.6C64.2 10.6 64.2 9.4 63.5999 8.5C63 7.6 61.8999 7 60.7999 7H42.2C40.2 7 37.7999 8.3 36.7999 10L0.699951 70C-0.300049 71.6 -0.300049 74.3 0.699951 76L9.99995 91.4C11.5 94 14.1 94 15.6 91.4L22.9 79.4C24.5 76.8 27 76.8 28.5 79.4L35.0999 90.3C36.0999 91.9 38.5 93.3 40.5 93.3H83.4C85.4 93.3 87.8 92 88.8 90.3L99.1 73.1C100.1 71.5 100.1 68.9 99.1 67.2ZM70.3 65.5C71.8 68.1 70.6 70.2 67.5 70.2H34.0999C30.9999 70.2 29.6999 68.1 31.2999 65.5L48 37.7C49.5 35.1 52.0999 35.1 53.5999 37.7L70.3 65.5Z" fill="black"/>
</g>
</svg>
