<svg width="100" height="100" viewBox="0 0 100 100" fill="none" xmlns="http://www.w3.org/2000/svg">
<path d="M50 25L76 70" stroke="black" stroke-width="1.25"/>
<path d="M24 70L50 25" stroke="black" stroke-width="1.25"/>
<path d="M24 80C29.5 80 34 75.5 34 70C34 64.5 29.5 60 24 60C18.5 60 14 64.5 14 70C14 75.5 18.5 80 24 80Z" fill="#4D4D4D" stroke="black" stroke-width="1.25"/>
<path d="M50 35C55.5 35 60 30.5 60 25C60 19.5 55.5 15 50 15C44.5 15 40 19.5 40 25C40 30.5 44.5 35 50 35Z" fill="#969696" stroke="black" stroke-width="1.25"/>
<path d="M76 80C81.5 80 86 75.5 86 70C86 64.5 81.5 60 76 60C70.5 60 66 64.5 66 70C66 75.5 70.5 80 76 80Z" fill="#1C1C1C" stroke="black" stroke-width="1.25"/>
</svg>
