<svg width="100" height="100" viewBox="0 0 100 100" fill="none" xmlns="http://www.w3.org/2000/svg">
<path fill-rule="evenodd" clip-rule="evenodd" d="M90.9 38C86.8 38 84.5 38.8 83.2 40.6C81.8 42.5 81.5 45.6 81.5 49.9C81.5 58.3 82.8 61.8 90.9 61.8C91.9 61.8 95.2 61.8 97.1 61.5C97.9 61.4 98.2 60.8 98.2 60.3V59.4C98.2 58.7 97.7 58.1 96.9 58.1H90.9C86.3 58.1 85.5 57 85.4 50.9V48.9C85.4 42.7 86.3 41.6 90.9 41.6C95.2 41.6 96 42.6 96.1 48.1H89.3V51.8H98.2C100 51.8 100 50.6 100 50.2V49C99.9 40.5 97.8 38 90.9 38ZM79.1 38.3C78.2 38.1 75.9 38 74.8 38C70.8 38 68.7 39.7 68.7 42.8V60.4C68.7 61.1 69.2 61.6 69.9 61.6H71.3C72 61.6 72.5 61.1 72.5 60.4V43.2C72.5 42.4 72.7 41.7 75.1 41.7H78.6C78.9 41.7 79.3 41.6 79.5 41.4C79.8 41.2 79.9 40.8 79.9 40.4V39.5C80 39 79.7 38.5 79.1 38.3ZM62.1 38.3H60.7C60 38.3 59.5 38.8 59.5 39.5V58.2H53.6C49.9 58.2 48.5 58 48.5 52.2V39.5C48.5 38.8 48 38.3 47.3 38.3H45.9C45.2 38.3 44.6 38.8 44.6 39.5V52.1C44.6 60.4 47.6 61.8 53.9 61.8C56.2 61.8 59.3 61.8 62.2 61.4H62.3C63 61.2 63.4 60.8 63.4 60.2V39.5C63.3 38.8 62.8 38.3 62.1 38.3Z" fill="#272727"/>
<path fill-rule="evenodd" clip-rule="evenodd" d="M40.1 38.8998C39.9 38.4998 39.5 38.2998 39.1 38.2998H37.3C36.8 38.2998 36.4 38.4998 36.2 38.8998L33.5 42.7998L35.9 45.9998L40 40.0998C40.4 39.4998 40.2 39.0998 40.1 38.8998Z" fill="#939393"/>
<path fill-rule="evenodd" clip-rule="evenodd" d="M25.9 38.8002C25.5 38.2002 24.9 38.2002 24.8 38.2002H23C22.5 38.2002 22.2 38.4002 22 38.8002C21.8 39.2002 21.8 39.6002 22.1 40.0002L28.7 49.2002L21 59.8002C20.7 60.2002 20.7 60.6002 20.9 61.0002C21.1 61.4002 21.5 61.6002 21.9 61.6002H23.7C24.2 61.6002 24.6 61.4002 24.8 61.0002L33.3 49.3002L25.9 38.8002Z" fill="#747474"/>
<path fill-rule="evenodd" clip-rule="evenodd" d="M41 59.9001L35.7 52.6001L33.4 55.8001L37.6 61.4001H37.7C37.9 61.5001 38 61.5001 38.2 61.5001H40C40.4 61.5001 40.8 61.3001 41 61.0001C41.2 60.7001 41.2 60.3001 41 59.9001Z" fill="#686868"/>
<path fill-rule="evenodd" clip-rule="evenodd" d="M14 51.7V57.9C12.2 58.2 9.4 58.2 8.5 58.2C4.4 58.2 3.9 57.1 3.9 54.7C3.9 52.4 4.7 51.7 7.4 51.7H14ZM8.3 38C7 38 5.3 38 3.1 38.3H3C2.4 38.5 2 38.9 2 39.5V40.4C2 41.2 2.5 41.6 3.2 41.6H8.2C12.2 41.6 13.9 42.7 13.9 45.4V48H7.4C2.2 48 0 50 0 54.6C0 59.8 2.3 61.8 8.2 61.8C10.6 61.8 15 61.6 16.6 61.1C18 60.7 18 59.7 18 59.3V45.2C17.9 40.4 14.8 38 8.3 38Z" fill="#272727"/>
</svg>
