<svg width="100" height="100" viewBox="0 0 100 100" fill="none" xmlns="http://www.w3.org/2000/svg">
<g clip-path="url(#clip0_755_19646)">
<path d="M33.3 3H62.9L32.2 94.1C32 94.6 31.8 95 31.5 95.4C31.2 95.8 30.9 96.1 30.5 96.4C30.1 96.7 29.7 96.9 29.2 97.1C28.7 97.3 28.2 97.3 27.8 97.3H4.80002C4.10002 97.3 3.30002 97.1 2.60002 96.8C1.90002 96.5 1.40002 96 0.900021 95.4C0.500021 94.8 0.200022 94.1 0.100022 93.3C2.14987e-05 92.6 0.100022 91.8 0.300022 91.1L28.9 6.2C29.1 5.7 29.3 5.3 29.6 4.9C29.9 4.5 30.2 4.2 30.6 3.9C31 3.6 31.4 3.4 31.9 3.2C32.4 3.1 32.8 3 33.3 3Z" fill="url(#paint0_linear_755_19646)"/>
<path d="M87.9001 97.3H61.3001C61.0001 97.3 60.7001 97.3 60.4001 97.2C60.1001 97.1 59.8001 97.1 59.5001 97C59.2001 96.9 59.0001 96.8 58.7001 96.6C58.4001 96.4 58.2001 96.3 58.0001 96.1L27.9001 67.8C27.6001 67.5 27.4001 67.1 27.3001 66.7C27.2001 66.3 27.2001 65.8 27.4001 65.4C27.6001 65 27.8001 64.6 28.2001 64.4C28.6001 64.2 29.0001 64 29.4001 64H76.3001L87.9001 97.3Z" fill="#5E5E5E"/>
<path d="M63 3L42.3 64.1H76.1L87.7 97.3H61.3C61 97.3 60.8 97.3 60.5 97.2C60.2 97.2 60 97.1 59.7 97C59.2 96.8 58.7 96.5 58.3 96.2L37.9 77.2L32.2 94C32.1 94.4 31.8 94.8 31.6 95.2C31.1 95.9 30.4 96.5 29.6 96.9C29.2 97.1 28.8 97.2 28.3 97.3H4.70005C3.90005 97.3 3.20005 97.1 2.50005 96.8C1.80005 96.5 1.30005 95.9 0.800046 95.3C0.400046 94.7 0.100046 94 4.59142e-05 93.2C-0.0999541 92.5 4.59105e-05 91.7 0.200046 91L28.9 6.3C29 5.8 29.2 5.4 29.5 5C29.8 4.6 30.1 4.2 30.5 3.9C30.9 3.6 31.3 3.4 31.8 3.2C32.3 3 32.8 3 33.3 3H63Z" fill="url(#paint1_linear_755_19646)"/>
<path d="M99.8 91.1C100 91.8 100.1 92.6 100 93.3C99.9 94 99.6 94.7 99.2 95.4C98.8 96 98.2001 96.5 97.5 96.8C96.8 97.1 96.1001 97.3 95.3001 97.3H62.3C63 97.3 63.8 97.1 64.5 96.8C65.2001 96.5 65.7 96 66.2 95.4C66.6 94.8 66.9001 94.1 67 93.3C67.1 92.6 67.0001 91.8 66.8001 91.1L38.2001 6.2C37.9001 5.3 37.3 4.5 36.5 3.9C36.1 3.6 35.7001 3.4 35.2001 3.2C34.7001 3 34.2 3 33.8 3H66.8001C67.3001 3 67.8 3.1 68.2 3.2C68.7 3.4 69.1 3.6 69.5 3.9C69.9001 4.2 70.2001 4.5 70.5 4.9C70.8 5.3 71 5.7 71.2 6.2L99.8 91.1Z" fill="url(#paint2_linear_755_19646)"/>
</g>
<defs>
<linearGradient id="paint0_linear_755_19646" x1="44.131" y1="9.9882" x2="13.379" y2="100.832" gradientUnits="userSpaceOnUse">
<stop stop-color="#404040"/>
<stop offset="1" stop-color="#545454"/>
</linearGradient>
<linearGradient id="paint1_linear_755_19646" x1="53.7279" y1="52.3246" x2="46.6149" y2="54.7372" gradientUnits="userSpaceOnUse">
<stop stop-opacity="0.3"/>
<stop offset="0.1" stop-opacity="0.2"/>
<stop offset="0.3" stop-opacity="0.1"/>
<stop offset="0.6" stop-opacity="0.1"/>
<stop offset="1" stop-opacity="0"/>
</linearGradient>
<linearGradient id="paint2_linear_755_19646" x1="50.0254" y1="7.2559" x2="83.7776" y2="97.1743" gradientUnits="userSpaceOnUse">
<stop stop-color="#A5A5A5"/>
<stop offset="1" stop-color="#7B7B7B"/>
</linearGradient>
<clipPath id="clip0_755_19646">
<rect width="100" height="100" fill="white"/>
</clipPath>
</defs>
</svg>
