<svg width="100" height="100" viewBox="0 0 100 100" fill="none" xmlns="http://www.w3.org/2000/svg">
<g clip-path="url(#clip0_755_19656)">
<path d="M68.6 34.5002V34.3002H68.3V34.5002H68.6ZM70.9 40.1002V40.2002H71.1C71.1 40.1002 71.1 40.0002 71.2 39.9002V39.7002C71.1 39.6002 71 39.8002 70.9 40.1002ZM61.7999 47.1002C61.7999 46.9002 61.2 46.1002 59.9 44.8002C59.9 44.5002 60.2999 44.2002 61.2 43.7002L63.7 41.6002C64.2999 40.9002 64.6 39.8002 64.7 38.2002V37.8002C64.6 36.7002 63.7999 35.8002 62.2999 35.2002C61.3999 34.6002 59.7999 34.3002 57.5 34.2002C55.5999 34.4002 53.0999 35.0002 50 36.2002C49.2 36.8002 48.1999 37.4002 47.0999 38.0002V38.2002C47.1999 38.2002 47.3 38.2002 47.4 38.1002C47.5 38.1002 47.5999 38.1002 47.5999 38.3002L47.7999 38.2002H47.9V38.3002C47.9 38.4002 47.2 38.9002 45.9 39.9002L46 40.1002H45.9L45.7 40.0002C45.7 40.1002 45.6 40.1002 45.4 40.1002V40.2002L45.5999 40.5002C45.5 40.5002 45.3999 40.5002 45.2999 40.4002C45 40.4002 44.7 40.6002 44.4 40.9002L44.5 40.4002C45 38.5002 45.3 36.7002 45.4 35.2002V35.1002C45.1 34.9002 44.7999 34.6002 44.5 34.3002C44.5 34.1002 44.5 33.9002 44.5 33.9002V33.8002H44.4C43.4 35.3002 41.5 37.8002 38.7999 41.3002C36.7 43.8002 35.5999 45.2002 35.5 45.5002C34.5999 46.4002 34.2 46.9002 34.2999 47.1002C34.0999 47.2002 34 47.4002 34 47.6002C33.9 47.6002 33.9 47.6002 33.9 47.5002C33.5 48.1002 33 48.5002 32.2999 48.7002L31.5 48.9002C31.4 48.9002 31.2999 49.0002 31.4 49.1002V49.2002L31.7 49.1002V49.2002L31 49.3002L29.7999 49.6002H29.2C29.1 49.7002 29.7 49.6002 29.5 49.6002L28.7 49.8002C28.2 49.9002 28 49.9002 27.9 49.7002H27.7999C27.7999 49.8002 27.7999 49.8002 27.7999 49.9002V49.7002L27.2 49.8002C27.2 49.5002 26.3 48.5002 24.7 46.7002C24.7 46.4002 25.1999 45.9002 26.4 45.2002L29.6 42.4002C30.3 41.5002 30.7999 40.0002 30.9 37.9002V37.4002C30.7999 36.0002 29.6999 34.8002 27.7999 33.9002C26.5999 33.1002 24.5 32.7002 21.5 32.6002C19 32.8002 15.7 33.7002 11.7 35.3002C10.6 36.1002 9.29995 36.9002 7.89995 37.7002V38.0002C7.99995 38.0002 8.19995 38.0002 8.29995 37.9002C8.49995 37.9002 8.59995 38.0002 8.59995 38.1002L8.89995 38.0002H8.99995C8.99995 38.1002 8.09995 38.8002 6.29995 40.1002L6.39995 40.3002H6.29995L5.99995 40.2002C5.99995 40.3002 5.89995 40.3002 5.59995 40.3002V40.4002L5.99995 40.8002C5.89995 40.8002 5.79995 40.8002 5.59995 40.7002C4.99995 40.8002 4.49995 41.2002 3.89995 42.0002L3.99995 42.2002C4.49995 41.8002 4.79995 41.5002 4.79995 41.5002V41.9002C4.69995 41.9002 4.59995 42.0002 4.39995 42.0002L4.69995 42.5002C5.29995 41.9002 5.89995 41.3002 6.59995 40.9002C6.89995 41.0002 7.09995 41.1002 7.09995 41.2002H7.39995C9.29995 39.8002 11.2 38.8002 13.1 38.1002V38.4002C12.8 38.9002 12.5 39.2002 12.4 39.2002C12.4 39.4002 12.5 39.5002 12.6 39.7002C12.6 40.0002 11.8 42.2002 10.1 46.1002C6.19995 55.3002 2.89995 62.1002 0.199951 66.5002C0.199951 66.6002 0.299951 66.7002 0.399951 66.9002C1.09995 66.7002 1.49995 66.6002 1.59995 66.4002H1.69995V66.7002H1.89995L2.19995 66.6002C2.19995 66.7002 2.29995 66.7002 2.49995 66.7002V67.0002C2.49995 67.2002 2.39995 67.6002 2.09995 68.1002C1.79995 68.4002 1.49995 69.0002 1.19995 70.0002V70.1002H1.39995C2.49995 68.9002 3.29995 67.7002 3.79995 66.6002C6.89995 65.7002 9.29995 64.8002 10.9 63.9002C12.5 63.8002 13.8 63.3002 14.7 62.6002V62.5002L14.1 62.7002H14V62.6002C15.2 62.4002 16 62.1002 16.5 61.8002C18.9 60.0002 20.5999 58.7002 21.7999 57.9002C24.2999 56.1002 25.9 54.3002 26.6 52.6002C26.7 52.6002 26.9 52.5002 27 52.5002C27.2999 52.5002 27.5 52.5002 27.6 52.5002C27.6 52.4002 27.6 52.4002 27.7 52.4002C28.3 52.3002 28 52.4002 28.2999 52.4002L29.2 52.2002C29.1 52.2002 29.1 52.2002 29.1 52.3002L29.2 52.2002H29.1H29.2999H29.2C29.3 52.2002 29.4 52.2002 29.5 52.2002L29.6 52.5002L25.4 59.2002L24.7999 60.0002L24.2999 61.5002H24.4L24.9 61.3002L24.7 62.0002V62.2002L24.7999 62.4002C24.6999 62.4002 24.7 62.5002 24.7 62.5002V62.6002H24.9C25.1999 62.4002 25.2999 62.1002 25.2999 61.9002C25.5999 62.0002 25.7999 62.0002 25.9 61.9002V62.0002C25.6999 62.0002 25.6 62.2002 25.6 62.4002V62.5002H25.7C27.2 60.8002 31 55.1002 34 51.2002C33.9 50.8002 35.5 50.2002 38.7 49.4002H38.7999C38.8999 49.9002 38.7 51.1002 38 53.1002C37.5999 54.3002 37.4 54.9002 37.4 55.0002C36.9 56.6002 36.6 57.4002 36.7 57.6002L35.5 61.4002C34.7999 63.3002 34.2 65.4002 33.7999 67.5002C33.8999 67.5002 34 67.5002 34.0999 67.5002L34.2999 67.4002C34.2999 67.5002 34.4 67.5002 34.4 67.5002L34.2999 67.2002H34.7999C34.8999 67.2002 35.1 67.0002 35.2 66.6002C35.2 66.1002 35.2999 65.8002 35.5 65.8002C35.7999 64.6002 36 64.0002 36.0999 64.0002C36.3999 62.8002 36.6 62.1002 36.7 61.9002C37.1 60.3002 37.5 59.5002 37.7 59.5002V59.7002L37.4 60.5002C36.8 63.0002 36.2999 64.9002 35.7 66.3002L35.9 67.0002H36C37.4 64.0002 39.4 58.2002 41.9 49.5002C42 48.7002 42.2999 48.1002 43 47.7002L42.9 47.5002V47.4002C43.2 47.3002 43.4 47.2002 43.5 47.1002C43.5 47.0002 43.2 46.9002 42.7 46.8002L44 41.3002C44.2999 41.0002 44.4 40.9002 44.5 40.9002V41.2002C44.4 41.2002 44.2999 41.2002 44.2 41.3002L44.4 41.6002C44.8 41.1002 45.2999 40.7002 45.7999 40.4002C46.0999 40.5002 46.2 40.6002 46.2 40.7002H46.4C47.9 39.6002 49.2999 38.9002 50.7 38.4002V38.6002C50.4 39.0002 50.2999 39.2002 50.2 39.2002C50.2 39.3002 50.2999 39.5002 50.2999 39.6002C50.2999 39.8002 49.7 41.5002 48.4 44.5002C45.4 51.5002 42.9 56.6002 40.9 60.0002C40.9 60.1002 41 60.2002 41 60.3002C41.5 60.2002 41.8 60.1002 41.9 59.9002H42V60.1002H42.2L42.4 60.0002C42.4 60.1002 42.5 60.1002 42.5999 60.1002V60.3002C42.5999 60.5002 42.5 60.8002 42.2999 61.1002C42.0999 61.3002 41.8999 61.8002 41.5999 62.5002V62.6002H41.7999C42.5999 61.7002 43.1999 60.8002 43.5999 59.9002C46 59.2002 47.7999 58.5002 49 57.9002C50.2999 57.8002 51.2 57.5002 51.9 56.9002V56.8002L51.4 56.9002H51.2999V56.8002C52.2 56.7002 52.9 56.5002 53.2 56.2002C55 54.8002 56.2999 53.8002 57.2999 53.3002C60.5999 51.0002 62 49.1002 61.7999 47.1002ZM61.2999 47.3002L61.4 48.0002C61.3 48.2002 61.1999 48.3002 61.0999 48.3002L61 47.0002C61.2 47.1002 61.2999 47.2002 61.2999 47.3002ZM5.39995 41.3002H5.29995V41.1002H5.79995V41.2002C5.69995 41.1002 5.59995 41.2002 5.39995 41.3002ZM2.89995 66.1002C2.59995 66.0002 2.29995 66.0002 2.09995 66.0002V65.6002C2.09995 65.5002 2.19995 65.4002 2.29995 65.3002C2.49995 65.3002 2.59995 65.4002 2.59995 65.6002C2.99995 65.1002 3.29995 64.8002 3.29995 64.8002L3.59995 65.0002C3.49995 65.7002 3.29995 66.1002 2.89995 66.1002ZM29.5 38.3002C29.4 38.3002 29.0999 37.9002 28.7999 37.1002V36.9002C29 36.9002 29.2999 37.3002 29.5 38.1002V38.3002ZM29.2 35.6002L29 35.8002L25.4 34.3002C27.7999 34.4002 29.1 34.8002 29.2 35.6002ZM13.9 48.7002H13.4V48.5002H13.9V48.7002ZM13.5 40.8002H13.6V41.2002C13.5 41.2002 13.3 41.4002 13.1 41.7002V41.4002C13.4 41.2002 13.5 40.9002 13.5 40.8002ZM12.4 43.3002V43.8002H12.3V43.3002H12.4ZM11.9 44.2002H12.1C12.1 44.6002 12 44.8002 11.8 44.8002H11.7C11.8 44.6002 11.9 44.4002 11.9 44.2002ZM11.4 45.5002H11.5V45.6002L11.4 46.0002H11.2V45.9002C11.3 45.9002 11.5 45.7002 11.4 45.5002ZM11 46.6002L10.9 47.2002H10.8L10.7 46.6002H11ZM6.89995 58.4002C6.69995 59.2002 6.59995 59.6002 6.39995 59.7002V59.6002C6.29995 59.1002 6.49995 58.7002 6.89995 58.4002ZM6.09995 60.0002V60.1002C6.09995 60.3002 5.99995 60.4002 5.89995 60.4002V60.3002C5.89995 60.2002 5.99995 60.1002 6.09995 60.0002ZM5.89995 63.5002H6.29995V63.6002C6.19995 63.6002 6.09995 63.7002 5.89995 63.7002H5.69995C5.69995 63.6002 5.69995 63.5002 5.89995 63.5002ZM16.7999 60.1002C14.5999 61.2002 13.4 61.9002 13 62.3002C10.7 63.1002 9.49995 63.6002 9.49995 63.8002C7.39995 64.6002 6.09995 65.2002 5.39995 65.6002C5.19995 65.6002 4.99995 65.6002 4.69995 65.4002C4.69995 65.0002 4.89995 64.6002 5.29995 64.4002C5.69995 64.4002 5.99995 64.4002 6.29995 64.6002C6.69995 64.4002 7.39995 64.2002 8.29995 63.9002V63.6002L7.49995 63.7002C7.59995 63.6002 8.29995 63.2002 9.69995 62.7002H10.1V62.8002C9.39995 62.9002 9.09995 63.1002 8.99995 63.4002C8.99995 63.6002 9.09995 63.6002 9.29995 63.6002C9.79995 63.3002 9.99995 63.1002 9.99995 63.1002C10.9 62.9002 13.4999 61.6002 17.7999 59.0002V59.2002C17.9 59.2002 17.5999 59.6002 16.7999 60.1002ZM10.3 62.2002C10.9 62.1002 11.5 61.9002 11.9 61.5002C12.1 61.5002 12.2 61.6002 12.2 61.7002C11.9 61.7002 11.3 62.0002 10.5 62.5002H10.4L10.3 62.2002ZM20.7999 54.2002L17.5 56.8002C15.1 58.4002 13.8 59.2002 13.6 59.2002C9.69995 61.3002 7.29995 62.4002 6.39995 62.5002H6.29995C6.39995 62.1002 8.09995 58.6002 11.5 52.0002C13 51.9002 15.2999 51.2002 18.4 50.0002L19.2 49.9002C20.8 49.8002 22 50.1002 22.7999 50.8002V51.3002C22.1999 52.9002 21.5 53.9002 20.7999 54.2002ZM14.5 50.6002H15V50.7002H14.5V50.6002ZM21.7999 49.3002H22.2C22.6 49.5002 22.6999 49.6002 22.7999 49.8002V49.9002C22.4 49.9002 22.0999 49.7002 21.7999 49.3002ZM22.9 43.4002C22.6 43.8002 21.6 44.5002 20.1 45.5002C19.6 45.5002 17.7 46.3002 14.5 47.7002C14.3 47.6002 14.2 47.6002 14 47.6002V47.4002C14 46.9002 14.2 46.4002 14.6 45.6002C14.9 44.3002 15.1 43.5002 15.4 43.3002L18.1 37.2002C18.1 36.8002 18.5999 36.5002 19.7999 36.3002H20.2V36.6002C21.4 36.4002 22.1 36.3002 22.4 36.3002C24.5 36.1002 25.7 36.6002 25.7 37.6002H25.9V37.0002H26.2C26.8 37.3002 27.2 37.8002 27.2 38.3002C27.2 38.6002 27 39.1002 26.7 39.6002C26.5 39.6002 26.4 39.5002 26.4 39.3002H26.1L26 40.0002C24.9 41.6002 24.1 42.5002 23.6 42.5002C23.2 43.1002 23 43.4002 22.9 43.4002ZM24.5 47.6002C24.2999 47.5002 24.1 47.4002 24 47.4002V47.0002H24.2L24.7 47.3002C24.8 47.5002 24.7 47.6002 24.5 47.6002ZM26.2 49.7002C26.4 49.8002 26.6 49.9002 26.6 50.0002H26.5H26.4L26.2 50.1002V49.7002ZM26.4 50.7002L26.7 50.5002V50.6002L26.4 50.7002ZM27.1 51.5002C27.4 51.4002 27.6 51.4002 28.2 51.3002V51.4002L27.1 51.7002C27.1 51.6002 27.1 51.6002 27.1 51.5002ZM28.2 52.0002C27.7 52.0002 27.8 52.0002 27.1 52.2002V52.1002L28 51.8002L28.5 51.7002V51.9002C28.2999 51.9002 28.5 51.9002 28.2 52.0002ZM29.2 51.8002C29.1 51.8002 29 51.8002 28.9 51.7002L29.2 51.6002C29.3 51.6002 29.4 51.6002 29.4 51.7002L29.2 51.8002ZM31.9 48.8002L32.2999 48.6002V48.8002H31.9ZM34.7999 66.6002C34.7999 66.5002 34.7999 66.4002 34.7999 66.3002H34.9C35 66.3002 35.0999 66.3002 35.0999 66.4002V66.5002L34.7999 66.6002ZM36.7999 49.6002H36.5999C36.2999 49.7002 36 49.8002 35.7999 49.9002H35.5999C35.5 49.9002 35.4 49.9002 35.4 49.8002L36.7999 49.5002L37.2 49.3002L37.2999 49.5002C37.0999 49.5002 36.8999 49.5002 36.7999 49.6002ZM37.9 49.3002C37.9 49.2002 38 49.1002 38.0999 49.0002L39.0999 48.8002V48.9002C38.5999 49.0002 38.2 49.1002 37.9 49.3002ZM38 47.3002C37.9 47.3002 37.7999 47.4002 37.7 47.5002C37.7 47.4002 37.5999 47.4002 37.2999 47.5002C37.2999 47.3002 38 47.1002 39.4 46.7002H39.5999V46.9002C38.6999 47.1002 38.0999 47.3002 38 47.3002ZM40.5999 44.5002C40.5 45.7002 40.1 46.3002 39.4 46.5002V46.4002L38.7 46.7002L38.4 46.8002C38.3 46.8002 38.0999 46.8002 38 46.8002L37.9 46.5002C37.9 46.4002 38.7999 45.1002 40.7 42.6002H40.9C41.1 43.0002 40.8999 43.6002 40.5999 44.5002ZM45.2 40.6002L45.0999 40.4002H45.5V40.5002C45.4 40.5002 45.2999 40.6002 45.2 40.6002ZM43.2999 59.5002C43.0999 59.4002 42.9 59.4002 42.7 59.4002V59.1002C42.7 59.0002 42.8 58.9002 42.9 58.9002C43 58.9002 43.0999 59.0002 43.0999 59.2002C43.3999 58.8002 43.5999 58.6002 43.5999 58.6002L43.7999 58.7002C43.7 59.2002 43.5999 59.5002 43.2999 59.5002ZM63.5 38.4002C63.4 38.4002 63.2 38.1002 62.9 37.5002V37.3002C63.1 37.3002 63.2999 37.6002 63.5 38.2002V38.4002ZM63.2 36.3002L63.0999 36.5002L60.4 35.4002C62.2 35.4002 63.2 35.7002 63.2 36.3002ZM51.5999 46.3002H51.2V46.1002H51.5999V46.3002ZM51.2999 40.3002H51.4V40.6002C51.3 40.6002 51.2 40.7002 51 41.0002V40.8002C51.2 40.5002 51.2999 40.4002 51.2999 40.3002ZM50.5 42.2002V42.6002H50.4V42.2002H50.5ZM50.0999 42.9002H50.2999C50.2999 43.2002 50.1999 43.4002 50.0999 43.4002H50C50 43.2002 50.0999 43.0002 50.0999 42.9002ZM49.7999 43.8002L49.7 44.2002H49.5V44.1002C49.7 44.1002 49.7999 44.0002 49.7999 43.8002ZM49.5 44.7002L49.4 45.2002H49.2999V44.7002H49.5ZM46.2999 53.6002C46.2 54.2002 46 54.5002 45.9 54.6002V54.5002C45.9 54.2002 46 53.9002 46.2999 53.6002ZM45.7 54.9002C45.7 55.1002 45.7 55.2002 45.5 55.2002V55.1002C45.5 55.0002 45.6 54.9002 45.7 54.9002ZM45.5999 57.5002H45.9V57.6002C45.8 57.6002 45.6999 57.6002 45.5999 57.7002H45.4C45.4 57.6002 45.3999 57.5002 45.5999 57.5002ZM53.9 54.9002C52.3 55.7002 51.2999 56.3002 51 56.5002C49.2 57.1002 48.3 57.5002 48.4 57.7002C46.8 58.3002 45.7999 58.8002 45.2999 59.1002C45.2 59.1002 45 59.1002 44.7999 59.0002C44.7999 58.7002 44.9 58.4002 45.2 58.2002C45.5 58.2002 45.7 58.2002 46 58.3002C46.2999 58.2002 46.7999 58.0002 47.5 57.8002V57.6002H46.9C47 57.5002 47.5 57.2002 48.5999 56.8002H48.9V56.9002C48.4 56.9002 48.0999 57.1002 48.0999 57.4002C48.0999 57.5002 48.2 57.6002 48.2999 57.6002C48.7 57.4002 48.7999 57.2002 48.7999 57.2002C49.5 57.1002 51.5 56.0002 54.7 54.1002V54.3002C54.7 54.3002 54.4 54.5002 53.9 54.9002ZM48.9 56.6002C49.4 56.6002 49.7999 56.4002 50.0999 56.0002C50.1999 56.0002 50.2999 56.0002 50.2999 56.2002C50.0999 56.2002 49.5999 56.4002 49 56.8002H48.9V56.6002ZM56.9 50.4002L54.4 52.4002C52.6 53.6002 51.6 54.2002 51.4 54.2002C48.5 55.8002 46.7 56.6002 45.9 56.7002H45.7999C45.8999 56.4002 47.2 53.7002 49.7 48.7002C50.7999 48.6002 52.5 48.1002 54.9 47.1002L55.5 47.0002C56.7 46.9002 57.6 47.1002 58.2 47.7002V48.1002C57.9 49.4002 57.4 50.2002 56.9 50.4002ZM52.0999 47.7002H52.5V47.8002L52.0999 47.7002ZM57.7 46.7002H58C58.2999 46.8002 58.4 47.0002 58.4 47.0002V47.1002C58.1 47.2002 57.9 47.0002 57.7 46.7002ZM58.4 42.2002C58.1 42.5002 57.3999 43.0002 56.2999 43.8002C55.8999 43.8002 54.5 44.4002 52 45.4002C51.9 45.4002 51.6999 45.3002 51.5999 45.3002V45.1002C51.5999 44.7002 51.6999 44.3002 52.0999 43.8002C52.2999 42.8002 52.5 42.2002 52.7 42.1002L54.7999 37.5002C54.7999 37.2002 55.1999 37.0002 56.0999 36.8002H56.4V37.1002C57.3 37.0002 57.7999 36.9002 58 36.9002C59.5999 36.8002 60.5 37.1002 60.5 37.9002H60.7V37.5002H60.9C61.4 37.8002 61.6 38.1002 61.7 38.4002C61.7 38.7002 61.5999 39.0002 61.2999 39.4002C61.2 39.4002 61.0999 39.3002 61.0999 39.1002H60.9L60.7999 39.7002C60 40.9002 59.4 41.6002 59 41.6002C58.7 42.0002 58.5 42.2002 58.4 42.2002ZM59.2999 45.3002V45.0002H59.5L59.9 45.3002C59.9 45.4002 59.7999 45.5002 59.7 45.5002C59.5 45.4002 59.3999 45.3002 59.2999 45.3002ZM24.9 63.3002H24.7L24.5 63.4002C24.5 63.5002 24.6 63.6002 24.7 63.5002C24.9 63.5002 25 63.5002 24.9 63.3002ZM24.2 61.8002C24.3 61.9002 24.4 61.8002 24.4 61.7002V61.6002C24.1999 61.6002 24.2 61.7002 24.2 61.8002ZM29.4 49.4002L29.6 49.3002V49.1002L29.4 49.2002V49.4002ZM96.4 55.1002C94.2 55.6002 93.9 55.5002 93.4 55.6002V55.8002H93.6H93.7L93.9 55.7002C96.2 55.3002 96.4 55.4002 96.4 55.1002ZM82.9 51.8002L82.7 51.7002C82.5 52.1002 82.5 52.4002 82.5 52.5002V52.6002C82.7 52.6002 82.8 52.3002 82.9 51.8002ZM96.9 55.0002V55.2002L97.2 55.3002V55.1002L96.9 55.0002ZM81.6 56.9002L81.1 56.8002L81 57.0002V57.1002L84 56.8002V56.6002L81.6 56.9002ZM80.2 50.3002L80.1 50.2002L79.9 50.3002L80 50.5002C80.2 50.5002 80.2 50.5002 80.2 50.3002ZM98.3 53.7002H98.4C98.5 53.7002 98.5 53.6002 98.5 53.5002L98.4 53.3002C97.9 53.3002 97.7 53.4002 97.2 53.6002V53.5002L96.6 53.6002C96.6 53.4002 96.5 53.3002 96.5 53.3002H96.2C95.7999 53.3002 95.7 53.3002 95.5 53.5002C95.5 53.4002 95.5 53.4002 95.4 53.4002H95L94.8 53.5002C94.8 53.4002 94.7999 53.4002 94.7 53.4002L94.6 53.5002V53.4002H94.1H94V53.6002L94.3 53.7002H94.5C94.6 53.8002 94.7 53.8002 94.8 53.8002L95 53.7002V53.8002C93.8 54.1002 93.7999 54.0002 93.1 54.2002C93 54.0002 92.9 53.9002 92.9 54.0002C92.8 54.0002 92.8 53.9002 92.8 53.8002L93.2 53.7002C93.2 53.7002 93.3 53.7002 93.5 53.8002C93.8 53.6002 93.8 53.6002 94 53.6002V53.4002C92.9 53.6002 93.3 53.5002 91.9 53.6002H91.8V53.4002C93.6 53.2002 93 53.3002 93.6 53.1002C93.6 53.2002 93.6 53.2002 93.7 53.2002C93.7999 53.1002 93.9 53.1002 94 53.1002H94.1C94.7 53.0002 95 53.2002 96.2 52.8002V52.9002L96.4 52.8002H96.6C96.6 52.6002 96.9 52.6002 97 52.6002V52.4002C94.8 52.9002 94.2 52.7002 93.6 52.9002V52.8002C93 52.9002 93 52.9002 92.8 52.9002C92.8 52.9002 92.7 52.9002 92.6 53.0002C92.6 52.9002 92.6 52.9002 92.5 52.9002L90.6 53.2002C90.6 53.1002 90.6 53.1002 90.5 53.1002C89.5 53.3002 89.8 53.3002 88.5 53.5002C88.4 53.5002 88.4 53.5002 88.3 53.6002C88.3 53.5002 88.2999 53.5002 88.2 53.5002L87.4 53.6002L86.9 53.7002C86.9 53.6002 86.9 53.6002 86.8 53.6002C86.5 53.7002 86.2 53.7002 86 53.7002C85.9 53.7002 86.1 53.7002 86 53.6002L85.8 53.7002C85.6 53.7002 85.7 53.7002 84.9 53.7002C83.3 54.0002 83.4 54.0002 83.3 54.0002H82.8C82.8 54.1002 82.7999 54.1002 82.7 54.1002C82.1 54.0002 81.8 53.9002 81.8 53.8002C81.9 53.2002 82 52.9002 82.2 52.9002H82.3L82.2 53.1002H82.3C82.5 53.0002 82.6 52.9002 82.6 52.8002V52.6002H82.4V52.4002C82.4 52.3002 82.4 52.1002 82.5 52.0002L82.9 51.3002V51.5002H83.1V51.3002L83 51.1002C83.2 51.0002 83.3 50.9002 83.4 50.9002V50.8002H83.1V50.5002C83.7 49.3002 83.9 48.7002 83.9 48.5002L84.1 48.6002C84.2 48.6002 84.3 48.5002 84.3 48.4002H84.1V48.3002C84.1 48.2002 84.1 48.0002 84.2 47.9002C84.5 47.6002 84.6 47.3002 84.6 46.9002C84.7 46.9002 84.7 46.9002 84.7 47.0002C85 46.9002 85.2 46.5002 85.3 45.8002C85.8 45.0002 86.4 43.3002 87.3 40.8002C88.9 36.4002 88.9 36.0002 89.1 34.9002H88.9C88.9 35.0002 88.9 35.2002 88.8 35.3002C88.7 35.2002 88.6 35.2002 88.5 35.2002V35.1002C88.5 34.7002 88.6 34.3002 89 33.7002H89.1L89.3 34.3002H89.5C89.5 34.3002 89.5 34.0002 89.6 33.5002C89.6 33.4002 89.5 33.3002 89.4 33.3002L89 33.7002C89 33.6002 89 33.2002 89 32.7002H88.9C88.7 32.5002 88.7 32.4002 88.6 32.3002L87.5 32.4002C87.5 32.3002 87.5 32.2002 87.4 32.1002C87.4 32.0002 87.6 31.9002 88.1 31.8002L88.3 31.9002L88.5 31.8002C88.5 31.9002 88.5 31.9002 88.6 31.9002L88.8 31.8002C88.8 31.9002 88.8 31.9002 88.9 31.9002H89V31.7002C88.9 31.7002 88.5 31.7002 87.8 31.7002L87.6 31.8002V31.7002C82.6 32.1002 79.7999 32.3002 79.2 32.4002C79.1 32.4002 78.7999 32.4002 78.2 32.4002C78.2 32.5002 78.1 32.5002 78 32.5002L77.8 32.4002L77.1 32.6002C76.9 32.6002 76.6 32.6002 76.2 32.6002C76.1 32.7002 76 32.7002 75.8 32.8002C75.7 32.8002 76.9 32.7002 77.9 32.7002C77.8 32.8002 77.6 32.8002 77.4 32.9002C77.2 32.9002 77.1 32.9002 77 32.8002C76.8 32.9002 76.3 33.0002 75.4 33.2002L75.2 33.1002L71.7 33.6002C71.6 33.5002 71.3999 33.5002 71.2 33.5002C71 33.5002 70.7 33.6002 70.3 33.7002L68.6 34.4002L68.7 34.6002C68.7999 34.6002 68.9 34.5002 69 34.5002L69.6 34.6002L69.5 35.2002C69 35.4002 68.6 35.8002 68.5 36.3002C67.7 36.7002 67.3 36.9002 67.3 37.1002V37.2002H67.4L67.6 37.1002L67.9 37.4002V37.8002C67.9 37.9002 66.4999 40.8002 63.7999 46.5002C61.3999 52.0002 60.2 55.0002 60 55.5002C59.2 55.7002 58.6999 56.1002 58.5999 56.5002C58.5999 56.6002 58.8999 56.7002 59.2999 56.8002V57.0002H59.4V57.4002C59.4 57.6002 60 57.8002 61.2 57.9002C61.2 57.8002 61.2 57.8002 61.2999 57.8002C61.2999 58.1002 61.1999 58.6002 61.0999 59.4002H61.2C61.7 58.7002 61.9 58.3002 61.9 58.0002H62C62.0999 58.0002 62.2 58.1002 62.4 58.4002C62.3 58.5002 61.7 59.6002 60.7999 61.9002L60.9 62.1002H61C62.0999 59.4002 62.7999 57.8002 63 57.5002C64.3999 57.4002 66.9 57.1002 70.4 56.7002L70.6 56.6002C70.6 56.7002 70.7 56.7002 70.7 56.7002H70.9L71.1 56.6002C71.1 56.7002 71.2 56.7002 71.2 56.7002L73.9 56.5002C74.6 56.4002 74.9 56.2002 74.9 55.9002C74.9 55.8002 75.2999 55.7002 76.1 55.6002C76.2 55.6002 76.3 55.6002 76.5 55.7002C76.5 55.6002 76.9 55.6002 77.8 55.5002C77.8 55.1002 78 54.8002 78.2 54.8002V54.6002C78 54.6002 77.7 54.7002 77.4 54.8002C76.8 54.8002 76.5 54.7002 76.3 54.7002C76.2 54.8002 76 54.8002 76 54.8002L74.2 54.9002L74 55.0002C74 54.9002 73.9 54.9002 73.9 54.9002H73.8L73.6 55.0002C73.6 54.9002 73.4 54.9002 73 54.8002L72.8 54.9002H72.3V54.8002C74.7 54.5002 75.9 54.2002 75.8 53.8002C76 53.8002 76 53.9002 76.1 54.0002L76.8 53.8002V53.6002L71.1 53.8002C71.1 53.9002 71.1 53.9002 71 53.9002L70.3 53.8002C70.1 53.8002 70 53.9002 69.9 54.0002L69.6 53.9002C68.9 54.0002 68.4 54.0002 68 54.2002C67.5 54.2002 67 54.2002 66.4 54.2002L65.1 54.3002L64.5 54.2002C64.5 53.8002 65.2 52.0002 66.7 48.6002C67.1 47.5002 67.5 46.8002 67.9 46.5002C68 46.5002 68.1 46.5002 68.3 46.6002L69.2 46.3002L69.7 46.4002C70.5 46.3002 71.4 46.1002 72.4 45.7002C72.7 45.7002 72.9 45.7002 73 45.8002L73.7 45.6002L75.8 45.4002C76.7 45.3002 77.6 45.1002 78.7 44.8002V44.6002C78.2999 44.6002 78.1 44.6002 78.1 44.4002C78.1 44.1002 77.8 44.0002 77.3 44.0002V43.8002L77.9 43.6002L79.4 43.5002V43.3002C79.3 43.3002 79 43.3002 78.5 43.3002V43.1002L79.1 43.0002C79.2999 43.0002 79.3 42.9002 79.3 42.8002C78.5 42.8002 78.1 42.8002 78.1 42.7002C72.7 43.0002 70 43.0002 70 42.8002C69.9 42.8002 69.7999 42.9002 69.7 42.9002L69.6 42.7002C71 39.7002 71.9 38.1002 72.1 38.1002C72.1 38.2002 72 38.4002 71.9 38.7002V38.8002H72.1C72.7 37.4002 73.1 36.7002 73.5 36.7002C75.2 36.6002 73.3 36.4002 76.9 35.9002C77 36.0002 77.2 36.0002 77.2 36.0002C78.6 35.7002 80.6 35.4002 83.2 35.1002V34.9002L81.8 35.0002V34.8002C82 34.8002 82.1 34.7002 82.2 34.6002V34.7002C82.2999 34.7002 82.4 34.6002 82.5 34.6002C82.7 34.6002 82.9 34.6002 83 34.7002C83.5 34.6002 83.9 34.5002 84.1 34.5002L84.9 34.4002C85.1 34.3002 85.2 34.1002 85.2 34.0002V33.9002C85 33.9002 84.7 33.9002 84.5 33.9002C84.5 33.8002 84.6 33.7002 84.7 33.7002L86.3 33.6002L87 33.4002C87 33.5002 87 33.5002 87.1 33.5002C87.2 33.5002 87.3 33.4002 87.4 33.4002H87.5C87.4 33.6002 87.2999 33.9002 87.2 34.3002H87C87 34.2002 86.9 34.0002 86.9 33.9002H86.8C84.9 39.2002 84 41.7002 82.3 45.8002C82 46.8002 81.7 47.4002 81.5 47.6002C81.5 47.7002 81.6 47.8002 81.7 47.8002C81.7 48.3002 81.6 48.8002 81.3 49.3002C80.5 51.7002 79.8999 53.0002 79.7 53.2002L79.9 54.3002C79.9 54.4002 79.7999 54.5002 79.7 54.5002H79.5C79.5 54.2002 79.3999 54.0002 79.2 54.1002H79.1C78.7999 54.5002 78.7 54.9002 78.5 55.5002H78.7C79 55.3002 79.1 55.1002 79.1 54.9002H79.5L79.7 55.0002C79.5 55.3002 79.4 55.5002 79.5 55.7002L79.6 55.9002L79 56.3002V56.4002C79.2 56.4002 79.5 56.5002 79.7 56.6002C79.8999 56.6002 80.1 56.5002 80.3 56.4002C80.5 56.4002 81.3 56.4002 82.8 56.4002L83.5 56.2002C84.4 56.2002 84.5 56.2002 85.3 56.1002H85.6L85.8 56.0002V56.1002C86.6 56.0002 86.6 56.1002 87.3 56.2002V56.3002H86.9V56.5002C87 56.5002 87.2 56.4002 87.2 56.4002C87.2999 56.4002 87.4 56.5002 87.4 56.6002C87.2 56.6002 87 56.7002 86.8 56.7002L86.6 56.6002C86.2999 56.7002 86.3999 56.7002 86.2 56.7002L85.9 56.6002C85.9 56.7002 85.9 56.7002 85.8 56.7002C85.8 56.8002 85.9 56.9002 86 56.9002H86.3L87.9 56.8002L88.5 56.7002C88.5 56.8002 88.5 56.8002 88.6 56.8002L88.9 56.7002H89.5C89.9 56.7002 89.9 56.6002 90.9 56.5002C90.9 56.4002 90.9 56.4002 91 56.4002V56.5002C92.5 56.2002 92.6 56.2002 92.9 56.1002C93.3 56.0002 93.1 56.0002 93.2 56.0002C93.2 56.1002 93.2 56.1002 93.3 56.1002H93.6V55.9002H93.1C93.1 55.9002 93.1 55.9002 93 55.9002H92.9C92.5 56.0002 92.5 55.9002 92.3 55.9002L90.9 56.0002V55.9002L91.7 55.8002H92L92.2 55.7002V55.8002C93.2999 55.7002 93.6 56.0002 98.6 54.9002C98.9 54.9002 98.8 54.7002 99 54.2002C98.9 54.2002 98.7999 54.2002 98.7 54.1002C98.2999 54.3002 98.1 54.2002 97.3 54.3002C97.2 54.3002 97.2 54.2002 97.2 54.1002V54.0002H98C97.7 53.8002 97.9 53.8002 98.3 53.7002C98.3 53.6002 98.2 53.7002 98.3 53.7002ZM61.9 54.2002H61.5999C61.5999 54.1002 61.7999 53.5002 62.2 52.6002H62.4C62.4 52.9002 62.2 53.4002 61.9 54.2002ZM62.2999 52.6002C62.2999 52.4002 62.4 52.3002 62.5 52.3002V52.4002C62.5999 52.5002 62.5 52.6002 62.2999 52.6002ZM66.9 56.1002L66.3 56.2002V56.1002H66.9ZM66.3 56.1002C66.3 56.2002 66.1 56.4002 65.7 56.5002L65 56.4002H64.8V56.2002L66.3 56.1002ZM70.9 34.6002H70.6V34.5002C70.6 34.4002 70.7 34.3002 70.8 34.3002H70.9L71.1 34.4002C71.1 34.5002 71.1 34.6002 70.9 34.6002ZM76.2 33.6002H76.3V33.8002H76C76 33.7002 76.1 33.6002 76.2 33.6002ZM74.9 34.0002H74.3V33.9002C75 33.8002 75.2 33.8002 75.6 33.6002C75.6 33.7002 75.7 33.7002 75.8 33.7002V33.9002H75.6C75.4 33.9002 75.2999 33.9002 75.2 33.8002C75.2 34.0002 75 34.0002 74.9 34.0002ZM75.5 35.9002L76.3 35.7002V35.8002L75.5 35.9002ZM76.4 35.2002V35.1002H76.8V35.2002H76.4ZM76.5 33.7002H76.4L76.5 33.5002L77.4 33.4002V33.5002C77.2 33.6002 76.9 33.6002 76.5 33.7002ZM77 35.8002V35.6002H77.4C77.5 35.6002 77.6 35.7002 77.6 35.8002H77ZM79.5 32.4002L79 32.5002H78.9C78.6 32.5002 78.3 32.5002 77.9 32.5002C78.6 32.5002 79.3 32.4002 79.5 32.4002ZM79 34.7002L78.3 34.9002V34.8002L79 34.7002ZM80.1 35.3002C80.1 35.2002 80 35.2002 79.7 35.1002L79 35.3002H78.4C78.3 35.2002 78.2 35.2002 78.2 35.1002H78.9L80.4 34.9002H81.1V35.0002C80.7 35.2002 80.4 35.2002 80.1 35.3002ZM87.7 33.4002C87.7999 33.4002 87.8 33.4002 87.9 33.4002C88.2 33.1002 88.4 32.9002 88.8 32.8002C88.5 34.0002 88.1 34.8002 87.6 35.4002L87.2 35.1002C87.3999 34.2002 87.6 33.7002 87.7 33.4002ZM86.4 35.5002H86.5C86.4 35.8002 86.2 35.9002 86.1 35.9002V35.6002C86.2 35.7002 86.3 35.6002 86.4 35.5002ZM85.6 37.5002C85.7999 36.7002 86 36.3002 86.2 36.1002V36.2002C86.1 36.9002 85.8999 37.3002 85.7 37.4002V37.9002C85.5 38.2002 85.4 38.3002 85.4 38.5002H85.3L85.2 37.9002C85.3999 37.8002 85.5 37.7002 85.6 37.5002ZM85.3 38.6002C85.3 38.7002 85.2 39.0002 85.1 39.4002H85V39.1002C85.1 38.7002 85.2 38.6002 85.3 38.6002ZM79.3 55.9002L79.5 55.8002V56.1002C79.4 56.1002 79.3 56.0002 79.3 55.9002ZM87.8 56.1002C87.8 56.0002 87.7999 56.0002 87.7 56.0002H87.2V55.9002L88.3 55.8002V55.9002C88.1 56.0002 87.9 56.0002 87.8 56.1002ZM87.3 55.8002C87.3 55.9002 87.3 55.9002 87.3 55.8002C87.2 55.9002 87.2 55.9002 87.3 55.8002ZM87.3 54.5002L86.7 54.6002V54.5002H87.3L87.7 54.3002C87.7 54.4002 87.7 54.4002 87.8 54.4002C88.4 54.3002 88.2999 54.3002 88.6 54.2002C88.7 54.2002 88.8 54.3002 88.8 54.4002L87.3 54.5002ZM89.5 54.3002C89.1 54.3002 89.1 54.2002 88.9 54.3002V54.2002L89.5 54.1002V54.3002C89.6 54.2002 89.4 54.2002 89.5 54.3002ZM89.6 54.2002L89.9 54.1002V54.2002H89.6ZM90.3 54.2002C90.3 54.1002 90.4 54.1002 90.5 54.0002C90.7 54.0002 90.7 54.1002 90.8 54.2002H90.3ZM91.1 54.1002L91.5 54.0002V54.1002H91.1ZM91.7 54.0002C91.7 53.9002 91.7 53.8002 91.8 53.8002L91.9 54.0002C91.9 53.9002 91.9 53.9002 92 53.9002L92.1 54.1002L91.7 54.0002ZM86.1 56.4002V56.2002H86L86.1 56.4002ZM99.1 53.1002C99.1 53.0002 99.2 53.0002 99.1 53.1002C99 53.1002 99.1 53.1002 99 53.1002V53.2002C99 53.1002 99 53.1002 99.1 53.1002H99L98.8 53.3002L99.1 53.2002V53.1002ZM99.6 53.5002V53.7002H100C100 53.5002 99.7 53.5002 99.6 53.5002Z" fill="black"/>
<path d="M70.6 39.4998V39.5998H70.8C70.8 39.4998 70.8 39.3998 70.9 39.2998V39.0998C70.8 38.9998 70.7 39.1998 70.6 39.4998ZM68.2 33.8998V33.6998H67.9V33.8998H68.2ZM61.5 46.4998C61.5 46.2998 60.9 45.4998 59.6 44.1998C59.6 43.8998 60 43.5998 60.9 43.0998L63.4 40.9998C64 40.2998 64.3 39.1998 64.4 37.5998V37.1998C64.3 36.0998 63.5 35.1998 62 34.5998C61.1 33.9998 59.5 33.6998 57.2 33.5998C55.3 33.7998 52.8 34.3998 49.7 35.5998C48.9 36.1998 47.9 36.7998 46.8 37.3998V37.5998C46.9 37.5998 47 37.5998 47.1 37.4998C47.2 37.4998 47.3 37.4998 47.3 37.6998L47.5 37.5998H47.6V37.6998C47.6 37.7998 46.9 38.2998 45.6 39.2998L45.7 39.4998H45.6L45.4 39.3998C45.4 39.4998 45.3 39.4998 45.1 39.4998V39.5998L45.3 39.8998C45.2 39.8998 45.1 39.8998 45 39.7998C44.7 39.7998 44.4 39.9998 44.1 40.2998L44.2 39.7998C44.7 37.8998 45 36.0998 45.1 34.5998V34.4998C44.8 34.2998 44.5 33.9998 44.2 33.6998C44.2 33.4998 44.2 33.2998 44.2 33.2998V33.1998H44.1C43.1 34.6998 41.2 37.1998 38.5 40.6998C36.4 43.1998 35.3 44.5998 35.2 44.8998C34.3 45.7998 33.9 46.2998 34 46.4998C33.8 46.5998 33.7 46.7998 33.7 46.9998C33.6 46.9998 33.6 46.9998 33.6 46.8998C33.2 47.4998 32.7 47.8998 32 48.0998L31.2 48.2998C31.1 48.2998 31 48.3998 31.1 48.4998V48.5998L31.4 48.4998V48.5998L30.8 48.8998L29.6 49.1998H29C28.9 49.2998 29.5 49.1998 29.3 49.1998L28.5 49.3998C28 49.4998 27.8 49.4998 27.7 49.2998H27.6C27.6 49.3998 27.6 49.3998 27.6 49.4998V49.2998L27 49.3998C27 49.0998 26.1 48.0998 24.5 46.2998C24.5 45.9998 25 45.4998 26.2 44.7998L29.4 41.9998C30.1 41.0998 30.6 39.5998 30.7 37.4998V36.9998C30.6 35.5998 29.5 34.3998 27.6 33.4998C26.4 32.6998 24.3 32.2998 21.3 32.1998C18.8 32.3998 15.5 33.2998 11.5 34.8998C10.4 35.6998 9.09998 36.4998 7.69998 37.2998V37.5998C7.79998 37.5998 7.89998 37.4998 8.09998 37.4998C8.29998 37.4998 8.39997 37.5998 8.39997 37.6998L8.69998 37.5998H8.79998V37.6998C8.79998 37.7998 7.89998 38.4998 6.09998 39.7998L6.19998 39.9998H6.09998L5.79998 39.8998C5.79998 39.9998 5.69998 39.9998 5.39998 39.9998V40.0998L5.69998 40.3998C5.59998 40.3998 5.49998 40.3998 5.29998 40.2998C4.69998 40.3998 4.19998 40.7998 3.59998 41.4998L3.69998 41.6998C4.19998 41.1998 4.49998 40.9998 4.49998 40.9998V41.3998C4.39998 41.3998 4.29998 41.4998 4.09998 41.4998L4.39998 41.9998C4.99998 41.3998 5.59998 40.7998 6.29998 40.3998C6.79998 40.3998 6.99998 40.4998 6.99998 40.5998H7.29998C9.19998 39.1998 11.1 38.1998 13 37.4998V37.7998C12.7 38.2998 12.4 38.5998 12.3 38.5998C12.3 38.7998 12.4 38.8998 12.5 39.0998C12.5 39.3998 11.7 41.5998 9.99998 45.4998C6.09998 54.6998 2.79998 61.4998 0.0999756 65.8998C0.0999756 65.9998 0.199976 66.0998 0.299976 66.2998C0.999976 66.0998 1.39998 65.9998 1.49998 65.7998H1.59998V66.0998H1.79998L2.09998 65.9998C2.09998 66.0998 2.19998 66.0998 2.39998 66.0998V66.3998C2.39998 66.5998 2.29998 66.9998 1.99998 67.4998C1.69998 67.7998 1.39998 68.3998 1.09998 69.3998V69.4998H1.29998C2.39998 68.2998 3.19998 67.0998 3.69998 65.9998C6.79998 65.0998 9.19998 64.1998 10.8 63.2998C12.4 63.1998 13.7 62.6998 14.6 61.9998V61.8998H14H13.9V61.7998C15.1 61.5998 15.9 61.2998 16.4 60.9998C18.8 59.1998 20.5 57.8998 21.7 57.0998C24.2 55.2998 25.8 53.4998 26.5 51.7998C26.6 51.7998 26.8 51.6998 26.9 51.6998C27.2 51.6998 27.4 51.6998 27.5 51.6998C27.5 51.5998 27.5 51.5998 27.6 51.5998C28.2 51.4998 27.9 51.5998 28.2 51.5998L29.1 51.3998H29.3H29.2C29.3 51.3998 29.4 51.3998 29.5 51.3998L29.6 51.6998L25.4 58.3998L24.5 59.5998L24 60.9998H24.1L24.6 60.7998L24.5 61.3998V61.5998L24.6 61.7998C24.5 61.7998 24.5 61.8998 24.5 61.8998V61.9998H24.7C25 61.7998 25.1 61.4998 25.1 61.2998C25.4 61.3998 25.6 61.3998 25.7 61.2998V61.3998C25.5 61.3998 25.4 61.5998 25.4 61.7998V61.8998H25.5C27 60.1998 30.8 54.4998 33.8 50.5998C33.7 50.1998 35.3 49.5998 38.5 48.7998H38.6C38.7 49.2998 38.5 50.4998 37.8 52.4998C37.4 53.6998 37.2 54.2998 37.2 54.3998C36.7 55.9998 36.4 56.7998 36.5 56.9998L35.3 60.7998C34.6 62.6998 34 64.7998 33.6 66.8998C33.7 66.8998 33.8 66.8998 33.9 66.8998L34.1 66.7998C34.1 66.8998 34.2 66.8998 34.2 66.8998L34.1 66.5998H34.6C34.7 66.5998 34.9 66.3998 35 65.9998C35 65.4998 35.1 65.1998 35.3 65.1998C35.6 63.9998 35.8 63.3998 35.9 63.3998C36.2 62.1998 36.4 61.4998 36.5 61.2998C36.9 59.6998 37.3 58.8998 37.5 58.8998V59.0998L37.2 59.8998C36.6 62.3998 36.1 64.2998 35.5 65.6998L35.7 66.3998H35.8C37.2 63.3998 39.2 57.5998 41.7 48.8998C42 47.9998 42.4 47.3998 43 46.9998L42.9 46.7998V46.6998C43.2 46.5998 43.4 46.4998 43.5 46.3998C43.5 46.2998 43.2 46.1998 42.7 46.0998L44 40.5998C44.3 40.2998 44.4 40.1998 44.5 40.1998V40.4998C44.4 40.4998 44.3 40.4998 44.2 40.5998L44.4 40.8998C44.8 40.3998 45.3 39.9998 45.8 39.6998C46.1 39.7998 46.2 39.8998 46.2 39.9998H46.4C47.9 38.8998 49.3 38.1998 50.7 37.6998V37.8998C50.4 38.2998 50.3 38.4998 50.2 38.4998C50.2 38.5998 50.3 38.7998 50.3 38.8998C50.3 39.0998 49.7 40.7998 48.4 43.7998C45.4 50.7998 42.9 55.8998 40.9 59.2998C40.9 59.3998 41 59.4998 41 59.5998C41.5 59.4998 41.8 59.3998 41.9 59.1998H42V59.3998H42.2L42.4 59.2998C42.4 59.3998 42.5 59.3998 42.6 59.3998V59.5998C42.6 59.7998 42.5 60.0998 42.3 60.3998C42.1 60.5998 41.9 61.0998 41.6 61.7998V61.8998H41.8C42.6 60.9998 43.2 60.0998 43.6 59.1998C46 58.4998 47.8 57.7998 49 57.1998C50.3 57.0998 51.2 56.7998 51.9 56.1998V56.0998L51.4 56.1998H51.3V56.0998C52.2 55.9998 52.9 55.7998 53.2 55.4998C55 54.0998 56.3 53.0998 57.3 52.5998C60.3 50.4998 61.6 48.4998 61.5 46.4998ZM61 46.6998L61.1 47.3998C61 47.5998 60.9 47.6998 60.8 47.6998L60.7 46.3998C60.9 46.4998 61 46.5998 61 46.6998ZM5.09998 40.6998H4.99998V40.4998H5.49998V40.5998C5.39998 40.4998 5.19998 40.5998 5.09998 40.6998ZM2.59998 65.5998C2.29998 65.4998 1.99998 65.3998 1.79998 65.3998V64.9998C1.79998 64.8998 1.89998 64.7998 1.99998 64.6998C2.19998 64.6998 2.29998 64.7998 2.29998 64.9998C2.69998 64.4998 2.99998 64.1998 2.99998 64.1998L3.29998 64.2998C3.19998 65.1998 2.89998 65.4998 2.59998 65.5998ZM29.2 37.6998C29.1 37.6998 28.8 37.2998 28.5 36.4998V36.2998C28.7 36.2998 29 36.6998 29.2 37.4998V37.6998ZM28.8 34.9998L28.7 35.1998L25.1 33.6998C27.5 33.7998 28.8 34.1998 28.8 34.9998ZM13.6 48.0998H13.1V47.8998H13.6V48.0998ZM13.2 40.1998H13.3V40.5998C13.2 40.5998 13 40.7998 12.8 41.0998V40.7998C13.1 40.5998 13.2 40.3998 13.2 40.1998ZM12.1 42.6998V43.1998H12V42.6998H12.1ZM11.5 43.5998H11.7C11.7 43.9998 11.6 44.1998 11.4 44.1998H11.3C11.5 43.9998 11.5 43.7998 11.5 43.5998ZM11.1 44.8998H11.2V44.9998L11 45.3998H10.8V45.2998C11 45.2998 11.1 45.0998 11.1 44.8998ZM10.7 45.9998L10.6 46.5998H10.5L10.4 45.9998H10.7ZM6.49998 57.7998C6.29998 58.5998 6.19998 58.9998 5.99998 59.0998V58.9998C5.99998 58.4998 6.09998 58.1998 6.49998 57.7998ZM5.79998 59.3998V59.4998C5.79998 59.6998 5.69998 59.7998 5.59998 59.7998V59.6998C5.49998 59.5998 5.59998 59.4998 5.79998 59.3998ZM5.59998 62.8998H5.99998V62.9998C5.89998 62.9998 5.79998 63.0998 5.59998 63.0998H5.39998C5.29998 62.9998 5.39998 62.8998 5.59998 62.8998ZM16.5 59.4998C14.3 60.5998 13.1 61.2998 12.7 61.6998C10.4 62.4998 9.19998 62.9998 9.19998 63.1998C7.09998 63.9998 5.79998 64.5998 5.09998 64.9998C4.89998 64.9998 4.69998 64.9998 4.39998 64.7998C4.39998 64.3998 4.59998 63.9998 4.99998 63.7998C5.39998 63.7998 5.69998 63.7998 5.99998 63.9998C6.39998 63.7998 7.09998 63.5998 7.99998 63.2998V62.9998L7.19998 63.0998C7.29998 62.9998 7.99997 62.5998 9.39997 62.0998H9.79998V62.1998C9.09998 62.2998 8.79998 62.4998 8.69998 62.7998C8.69998 62.9998 8.79998 62.9998 8.99998 62.9998C9.49998 62.6998 9.69998 62.4998 9.69998 62.4998C10.6 62.2998 13.2 60.9998 17.5 58.3998V58.5998C17.6 58.6998 17.2 58.9998 16.5 59.4998ZM9.99998 61.5998C10.6 61.4998 11.2 61.2998 11.6 60.8998C11.8 60.8998 11.9 60.9998 11.9 61.0998C11.6 61.0998 11 61.3998 10.2 61.8998H10.1L9.99998 61.5998ZM20.5 53.5998L17.2 56.1998C14.8 57.7998 13.5 58.5998 13.3 58.5998C9.39997 60.6998 6.99998 61.7998 6.09998 61.8998H5.99998C6.09998 61.4998 7.79997 57.9998 11.2 51.3998C12.7 51.2998 15 50.5998 18.1 49.3998L18.9 49.2998C20.5 49.1998 21.7 49.4998 22.5 50.1998V50.6998C21.8 52.2998 21.2 53.2998 20.5 53.5998ZM14.1 49.9998H14.6V50.0998H14.1V49.9998ZM21.5 48.6998H21.9C22.3 48.8998 22.4 48.9998 22.5 49.1998V49.2998C22.1 49.2998 21.8 49.0998 21.5 48.6998ZM22.5 42.7998C22.2 43.1998 21.2 43.8998 19.7 44.8998C19.2 44.8998 17.3 45.6998 14.1 47.0998C14 46.9998 13.8 46.9998 13.6 46.9998V46.7998C13.6 46.2998 13.8 45.7998 14.2 44.9998C14.5 43.6998 14.7 42.8998 15 42.6998L17.7 36.5998C17.7 36.1998 18.2 35.8998 19.4 35.6998H19.8V35.9998C21 35.7998 21.7 35.6998 22 35.6998C24.1 35.4998 25.3 35.9998 25.3 36.9998H25.5L25.4 36.3998H25.7C26.3 36.6998 26.7 37.1998 26.7 37.6998C26.7 37.9998 26.5 38.4998 26.2 38.9998C26 38.9998 25.9 38.8998 25.9 38.6998H25.6L25.5 39.3998C24.4 40.9998 23.6 41.8998 23.1 41.8998C22.9 42.4998 22.6 42.7998 22.5 42.7998ZM24.2 46.9998C24 46.8998 23.8 46.7998 23.7 46.7998V46.3998H23.9L24.4 46.6998C24.4 46.8998 24.4 46.9998 24.2 46.9998ZM25.9 49.0998C26.1 49.1998 26.3 49.2998 26.3 49.3998H26.2H26.1L25.9 49.4998V49.0998ZM26.1 50.0998L26.4 49.8998V49.9998L26.1 50.0998ZM26.8 50.8998C27.1 50.7998 27.3 50.7998 27.9 50.6998V50.7998L26.8 51.0998C26.8 50.9998 26.8 50.9998 26.8 50.8998ZM27.9 51.3998C27.4 51.3998 27.5 51.3998 26.8 51.5998V51.4998L27.7 51.1998L28.2 51.0998V51.2998C28 51.2998 28.1 51.2998 27.9 51.3998ZM28.9 51.1998C28.8 51.1998 28.7 51.1998 28.6 51.0998L28.9 50.9998C29 50.9998 29.1 50.9998 29.1 51.0998L28.9 51.1998ZM31.6 48.2998L32 47.9998V48.1998L31.6 48.2998ZM34.5 65.9998C34.5 65.8998 34.5 65.7998 34.5 65.6998H34.6C34.7 65.6998 34.8 65.6998 34.8 65.7998V65.8998L34.5 65.9998ZM36.5 48.9998H36.3C36 49.0998 35.7 49.1998 35.5 49.2998H35.3C35.2 49.2998 35.1 49.2998 35.1 49.1998L36.5 48.8998L36.9 48.6998L37 48.8998C36.8 48.8998 36.6 48.8998 36.5 48.9998ZM37.5 48.6998C37.5 48.5998 37.6 48.4998 37.7 48.3998L38.7 48.1998V48.2998C38.2 48.3998 37.8 48.4998 37.5 48.6998ZM37.7 46.6998C37.6 46.6998 37.5 46.7998 37.4 46.8998C37.4 46.7998 37.3 46.7998 37 46.8998C37 46.6998 37.7 46.4998 39.1 46.0998H39.3V46.2998C38.4 46.4998 37.8 46.6998 37.7 46.6998ZM40.3 43.8998C40.2 45.0998 39.8 45.6998 39.1 45.8998V45.7998L38.5 46.0998L38.2 46.1998C38.1 46.1998 37.9 46.1998 37.8 46.1998L37.7 45.8998C37.7 45.7998 38.6 44.4998 40.5 41.9998H40.7C40.7 42.3998 40.6 42.9998 40.3 43.8998ZM44.9 39.9998L44.8 39.7998H45.2V39.8998C45.1 39.8998 45 39.9998 44.9 39.9998ZM43 58.8998C42.8 58.7998 42.6 58.7998 42.4 58.7998V58.4998C42.4 58.3998 42.5 58.2998 42.6 58.2998C42.7 58.2998 42.8 58.3998 42.8 58.5998C43.1 58.1998 43.3 57.9998 43.3 57.9998L43.5 58.0998C43.4 58.5998 43.2 58.8998 43 58.8998ZM63.2 37.7998C63.1 37.7998 62.9 37.4998 62.6 36.8998V36.6998C62.8 36.6998 63 36.9998 63.2 37.5998V37.7998ZM62.9 35.6998L62.8 35.8998L60.1 34.7998C61.9 34.7998 62.8 35.0998 62.9 35.6998ZM51.3 45.6998H50.9V45.4998H51.3V45.6998ZM51 39.6998H51.1V39.9998C51 39.9998 50.9 40.0998 50.7 40.3998V40.1998C50.9 39.9998 51 39.7998 51 39.6998ZM50.2 41.5998V41.9998H50.1V41.5998H50.2ZM49.7 42.2998H49.9C49.9 42.5998 49.8 42.7998 49.7 42.7998H49.6C49.7 42.5998 49.8 42.3998 49.7 42.2998ZM49.4 43.1998L49.3 43.5998H49.1V43.4998C49.4 43.4998 49.5 43.3998 49.4 43.1998ZM49.1 44.0998L49 44.5998H48.9V44.0998H49.1ZM46 53.0998C45.9 53.6998 45.7 53.9998 45.6 54.0998V53.9998C45.5 53.5998 45.7 53.2998 46 53.0998ZM45.4 54.2998C45.4 54.4998 45.4 54.5998 45.2 54.5998V54.4998C45.2 54.3998 45.3 54.2998 45.4 54.2998ZM45.2 56.8998H45.5V56.9998C45.4 56.9998 45.3 56.9998 45.2 57.0998H45C45 56.9998 45.1 56.8998 45.2 56.8998ZM53.5 54.2998C51.9 55.0998 50.9 55.6998 50.6 55.8998C48.8 56.4998 47.9 56.8998 48 57.0998C46.4 57.6998 45.4 58.1998 44.9 58.4998C44.8 58.4998 44.6 58.4998 44.4 58.3998C44.4 58.0998 44.5 57.7998 44.8 57.5998C45.1 57.5998 45.3 57.5998 45.6 57.6998C45.9 57.5998 46.4 57.3998 47.1 57.1998V56.9998L46.5 57.0998C46.6 56.9998 47.1 56.6998 48.2 56.2998H48.5V56.3998C48 56.3998 47.7 56.5998 47.7 56.8998C47.7 56.9998 47.8 57.0998 47.9 57.0998C48.3 56.8998 48.4 56.6998 48.4 56.6998C49.1 56.5998 51.1 55.4998 54.3 53.5998V53.7998C54.3 53.6998 54.1 53.8998 53.5 54.2998ZM48.6 55.9998C49.1 55.9998 49.5 55.7998 49.8 55.3998C49.9 55.3998 50 55.3998 50 55.5998C49.8 55.5998 49.3 55.7998 48.7 56.1998H48.6V55.9998ZM56.6 49.7998L54.1 51.7998C52.3 52.9998 51.3 53.5998 51.1 53.5998C48.2 55.1998 46.4 55.9998 45.6 56.0998H45.5C45.6 55.7998 46.9 53.0998 49.4 48.0998C50.5 47.9998 52.2 47.4998 54.6 46.4998L55.2 46.3998C56.4 46.2998 57.3 46.4998 57.9 47.0998V47.4998C57.6 48.8998 57.1 49.5998 56.6 49.7998ZM51.7 47.0998H52.1V47.1998L51.7 47.0998ZM57.3 46.1998H57.6C57.9 46.2998 58 46.4998 58 46.4998V46.5998C57.8 46.5998 57.5 46.4998 57.3 46.1998ZM58.1 41.6998C57.8 41.9998 57.1 42.4998 56 43.2998C55.6 43.2998 54.2 43.8998 51.7 44.8998C51.6 44.8998 51.4 44.7998 51.3 44.7998V44.5998C51.3 44.1998 51.4 43.7998 51.8 43.2998C52 42.2998 52.2 41.6998 52.4 41.5998L54.5 36.9998C54.5 36.6998 54.9 36.4998 55.8 36.2998H56.1V36.5998C57 36.4998 57.5 36.3998 57.7 36.3998C59.3 36.2998 60.2 36.5998 60.2 37.3998H60.4V36.9998H60.6C61.1 37.2998 61.3 37.5998 61.4 37.8998C61.4 38.1998 61.3 38.4998 61 38.8998C60.9 38.8998 60.8 38.7998 60.8 38.5998H60.6L60.5 39.1998C59.7 40.3998 59.1 41.0998 58.7 41.0998C58.4 41.3998 58.2 41.6998 58.1 41.6998ZM59 44.6998V44.3998H59.2L59.6 44.6998C59.6 44.7998 59.5 44.8998 59.4 44.8998C59.2 44.7998 59.1 44.6998 59 44.6998ZM24.6 62.6998H24.4L24.2 62.7998C24.2 62.8998 24.3 62.9998 24.4 62.8998C24.6 62.9998 24.6 62.8998 24.6 62.6998ZM23.9 61.1998C24 61.2998 24.1 61.1998 24.1 61.0998V60.9998C23.9 60.9998 23.8 61.0998 23.9 61.1998ZM29.1 51.3998L29.2 51.2998H29.1C29.1 51.2998 29.1 51.2998 29.1 51.3998ZM29.1 48.7998L29.3 48.6998V48.4998L29 48.6998L29.1 48.7998ZM81.2 56.2998L80.7 56.1998L80.6 56.3998V56.4998L83.6 56.1998V55.9998L81.2 56.2998ZM96.5 54.3998V54.5998L96.8 54.6998V54.4998L96.5 54.3998ZM96.1 54.4998C93.9 54.9998 93.6 54.8998 93.1 54.9998V55.1998H93.3H93.4L93.6 55.0998C95.8 54.6998 96.1 54.7998 96.1 54.4998ZM82.6 51.1998L82.4 51.0998C82.2 51.4998 82.2 51.7998 82.2 51.8998V51.9998C82.3 51.9998 82.5 51.6998 82.6 51.1998ZM79.9 49.7998L79.8 49.6998L79.6 49.7998L79.7 49.9998C79.8 49.8998 79.9 49.8998 79.9 49.7998ZM85.8 55.7998V55.5998H85.7L85.8 55.7998ZM97.9 53.0998H98C98.1 53.0998 98.1 52.9998 98.1 52.8998L98 52.6998C97.5 52.6998 97.3 52.7998 96.8 52.9998V52.8998L96.2 52.9998C96.2 52.7998 96.1 52.6998 96.1 52.6998H95.8C95.4 52.6998 95.3 52.6998 95.1 52.8998C95.1 52.7998 95.1 52.7998 95 52.7998H94.6L94.4 52.8998C94.4 52.7998 94.4 52.7998 94.3 52.7998L94.2 52.8998V52.7998H93.7H93.6V52.9998L93.9 53.0998H94.1C94.2 53.1998 94.3 53.1998 94.4 53.1998L94.6 53.0998V53.1998C93.4 53.4998 93.4 53.3998 92.7 53.5998C92.6 53.4998 92.5 53.4998 92.5 53.4998C92.4 53.4998 92.4 53.3998 92.4 53.2998L92.8 53.1998C92.8 53.1998 92.9 53.1998 93.1 53.2998C93.4 53.0998 93.4 53.0998 93.6 53.0998V52.8998C92.5 53.0998 92.9 52.9998 91.5 53.0998H91.4V52.8998C93.2 52.6998 92.6 52.7998 93.2 52.5998C93.2 52.6998 93.2 52.6998 93.3 52.6998C93.4 52.5998 93.5 52.5998 93.6 52.5998H93.7C94.3 52.4998 94.6 52.6998 95.8 52.2998V52.3998L96 52.2998H96.2C96.2 52.0998 96.5 52.0998 96.6 52.0998V51.8998C94.4 52.3998 93.8 52.1998 93.2 52.3998V52.2998C92.6 52.3998 92.6 52.3998 92.4 52.3998C92.4 52.3998 92.3 52.3998 92.2 52.4998C92.2 52.3998 92.2 52.3998 92.1 52.3998L90.2 52.6998C90.2 52.5998 90.2 52.5998 90.1 52.5998C89.1 52.7998 89.4 52.7998 88.1 52.9998C88 52.9998 88 52.9998 87.9 53.0998C87.9 52.9998 87.9 52.9998 87.8 52.9998H86.9L86.4 53.0998C86.4 52.9998 86.4 52.9998 86.3 52.9998C86 53.0998 85.7 53.0998 85.5 53.0998C85.4 53.0998 85.6 53.0998 85.5 52.9998L85.3 53.0998C85.1 53.0998 85.2 53.0998 84.4 53.0998C83 53.2998 83.1 53.2998 83 53.2998H82.5C82.5 53.3998 82.5 53.3998 82.4 53.3998C81.8 53.2998 81.5 53.1998 81.5 53.0998C81.6 52.4998 81.7 52.1998 81.9 52.1998H82L81.9 52.3998H82C82.2 52.2998 82.3 52.1998 82.3 52.0998V51.8998L82 51.9998V51.7998C82 51.6998 82 51.4998 82.1 51.3998L82.5 50.6998V50.8998H82.7V50.6998L82.6 50.4998C82.8 50.3998 82.9 50.2998 83 50.2998V50.1998H82.7V49.8998C83.3 48.6998 83.5 48.0998 83.5 47.8998L83.7 47.9998C83.8 47.9998 83.9 47.8998 83.9 47.7998H83.7V47.6998C83.7 47.5998 83.7 47.3998 83.8 47.2998C84.1 46.9998 84.2 46.6998 84.2 46.2998C84.3 46.2998 84.3 46.2998 84.3 46.3998C84.6 46.2998 84.8 45.8998 84.9 45.1998C85.4 44.3998 86 42.6998 86.9 40.1998C88.5 35.7998 88.5 35.3998 88.7 34.2998H88.5C88.5 34.3998 88.5 34.5998 88.4 34.6998C88.3 34.5998 88.2 34.5998 88.1 34.5998V34.4998C88.1 34.0998 88.2 33.6998 88.6 33.0998H88.7L88.9 33.6998H89.1C89.1 33.6998 89.1 33.3998 89.2 32.8998C89.2 32.7998 89.1 32.6998 89 32.6998L88.8 32.7998C88.8 32.6998 88.8 32.2998 88.8 31.7998H88.7C88.5 31.5998 88.5 31.4998 88.4 31.3998L87.3 31.4998C87.3 31.3998 87.3 31.2998 87.2 31.1998C87.2 31.0998 87.4 30.9998 87.9 30.8998L88.1 30.9998L88.3 30.8998C88.3 30.9998 88.3 30.9998 88.4 30.9998L88.6 30.8998C88.6 30.9998 88.6 30.9998 88.7 30.9998H88.8V30.7998C88.7 30.7998 88.3 30.7998 87.6 30.7998L87.4 30.8998V30.7998C82.4 31.1998 79.6 31.3998 79 31.4998C78.9 31.4998 78.6 31.4998 78 31.4998C78 31.5998 77.9 31.5998 77.8 31.5998L77.6 31.4998L76.9 31.6998C76.7 31.6998 76.4 31.6998 76 31.6998C75.8 31.9998 75.7 31.9998 75.5 31.9998C75.4 31.9998 76.6 31.8998 77.6 31.8998C77.5 31.9998 77.3 31.9998 77.1 32.0998C76.9 32.0998 76.8 32.0998 76.7 31.9998C76.5 32.0998 76 32.1998 75.1 32.3998L74.9 32.2998L71.4 32.7998C71.3 32.6998 71.1 32.6998 70.9 32.6998C70.7 32.6998 70.4 32.7998 70 32.8998L68.3 33.5998L68.4 33.7998C68.5 33.7998 68.6 33.6998 68.7 33.6998L69.3 33.7998L69.2 34.3998C68.7 34.5998 68.3 34.9998 68.2 35.4998C67.4 35.8998 67 36.0998 67 36.2998V36.3998H67.1L67.3 36.2998L67.6 36.5998V36.9998C67.6 37.0998 66.2 39.9998 63.5 45.6998C61.1 51.1998 59.9 54.1998 59.7 54.6998C58.9 54.8998 58.4 55.2998 58.3 55.6998C58.3 55.7998 58.6 55.8998 59 55.9998V56.1998L58.8 56.5998V56.9998C58.8 57.1998 59.4 57.3998 60.6 57.4998C60.6 57.3998 60.6 57.3998 60.7 57.3998C60.7 57.6998 60.6 58.1998 60.5 58.9998H60.6C61.1 58.2998 61.3 57.8998 61.3 57.5998H61.4C61.5 57.5998 61.6 57.6998 61.8 57.9998C61.7 58.0998 61.1 59.1998 60.2 61.4998L60.3 61.6998H60.4C61.5 58.9998 62.2 57.3998 62.4 57.0998C63.8 56.9998 66.3 56.6998 69.8 56.2998L70 56.1998C70 56.2998 70.1 56.2998 70.1 56.2998H70.3L71 55.9998C71 56.0998 71.1 56.0998 71.1 56.0998L73.8 55.8998C74.5 55.7998 74.8 55.5998 74.8 55.2998C74.8 55.1998 75.2 55.0998 76 54.9998C76.1 54.9998 76.2 54.9998 76.4 55.0998C76.4 54.9998 76.8 54.9998 77.7 54.8998C77.7 54.4998 77.9 54.1998 78.1 54.1998V53.9998C77.9 53.9998 77.6 54.0998 77.3 54.1998C76.7 54.1998 76.4 54.0998 76.2 54.0998C76.1 54.1998 75.9 54.1998 75.9 54.1998H74L73.8 54.2998C73.8 54.1998 73.7 54.1998 73.7 54.1998H73.6L73.4 54.2998C73.4 54.1998 73.2 54.1998 72.8 54.0998L72.6 54.1998H72.1V54.0998C74.5 53.7998 75.7 53.4998 75.6 53.0998C75.8 53.0998 75.8 53.1998 75.9 53.2998L76.6 53.0998V52.8998L70.9 53.0998C70.9 53.1998 70.9 53.1998 70.8 53.1998L70 53.2998C69.8 53.2998 69.7 53.3998 69.6 53.4998L69.3 53.3998C68.6 53.4998 68.1 53.4998 67.7 53.6998C67.2 53.6998 66.7 53.6998 66.1 53.6998L64.8 53.7998L64.2 53.6998C64.2 53.2998 64.9 51.4998 66.4 48.0998C66.8 46.9998 67.2 46.2998 67.6 45.9998C67.7 45.9998 67.8 45.9998 68 46.0998L68.9 45.7998L69.4 45.8998C70.2 45.7998 71.1 45.5998 72.1 45.1998C72.4 45.1998 72.6 45.1998 72.7 45.2998L73.4 45.0998L75.5 44.8998C76.4 44.7998 77.3 44.5998 78.4 44.2998V44.0998C78 44.0998 77.8 44.0998 77.8 43.8998C77.8 43.5998 77.5 43.4998 77 43.4998V43.2998L77.6 43.0998L79.1 42.9998V42.7998C79 42.7998 78.7 42.7998 78.2 42.7998V42.5998L78.8 42.4998C79 42.4998 79 42.3998 79 42.2998C78.2 42.2998 77.8 42.2998 77.8 42.1998C72.4 42.4998 69.7 42.4998 69.7 42.2998C69.6 42.2998 69.5 42.3998 69.4 42.3998L69.3 42.1998C70.7 39.1998 71.6 37.5998 71.8 37.5998C71.8 37.6998 71.7 37.8998 71.6 38.1998V38.2998H71.8C72.4 36.8998 72.8 36.1998 73.2 36.1998C74.9 36.0998 73 35.8998 76.6 35.3998C76.7 35.4998 76.9 35.4998 76.9 35.4998C78.3 35.1998 80.3 34.8998 82.9 34.5998V34.3998L81.5 34.4998V34.2998C81.7 34.2998 81.8 34.1998 81.9 34.0998V34.1998C82 34.1998 82.1 34.0998 82.2 34.0998C82.4 34.0998 82.6 34.0998 82.7 34.1998C83.2 34.0998 83.6 33.9998 83.8 33.9998L84.6 33.8998C84.8 33.7998 84.9 33.5998 84.9 33.4998V33.3998C84.7 33.3998 84.4 33.3998 84.2 33.3998C84.2 33.2998 84.3 33.1998 84.4 33.1998L86 33.0998L86.7 32.8998C86.7 32.9998 86.7 32.9998 86.8 32.9998C86.9 32.9998 87 32.8998 87.1 32.8998H87.2C87.1 33.0998 87 33.3998 86.9 33.7998H86.7C86.7 33.6998 86.6 33.4998 86.6 33.3998H86.5C84.6 38.6998 83.7 41.1998 82 45.2998C81.7 46.2998 81.4 46.8998 81.2 47.0998C81.2 47.1998 81.3 47.2998 81.4 47.2998C81.4 47.7998 81.3 48.2998 81 48.7998C80.2 51.1998 79.6 52.4998 79.4 52.6998L79.6 53.7998C79.6 53.8998 79.5 53.9998 79.4 53.9998H79.2C79.2 53.6998 79.1 53.4998 78.9 53.5998H78.8C78.5 53.9998 78.4 54.3998 78.2 54.9998H78.4C78.7 54.7998 78.8 54.5998 78.8 54.3998H79.2L79.4 54.4998C79.2 54.7998 79.1 54.9998 79.2 55.1998L79.3 55.3998L79 55.9998V56.0998C79.2 56.0998 79.5 56.1998 79.7 56.2998C79.9 56.2998 80.1 56.1998 80.3 56.0998C80.5 56.0998 81.3 56.0998 82.8 56.0998L83.5 55.8998C84.4 55.8998 84.5 55.8998 85.3 55.7998H85.6L85.8 55.6998V55.7998C86.6 55.6998 86.6 55.7998 87.3 55.8998V55.9998H86.9V56.1998C87 56.1998 87.2 56.0998 87.2 56.0998C87.3 56.0998 87.4 56.1998 87.4 56.2998C87.2 56.2998 87 56.3998 86.8 56.3998L86.6 56.2998C85.9 55.9998 86 55.9998 85.8 55.9998L85.5 55.8998C85.5 55.9998 85.5 55.9998 85.4 55.9998C85.4 56.0998 85.5 56.1998 85.6 56.1998H85.9L87.5 56.0998L88.1 55.9998C88.1 56.0998 88.1 56.0998 88.2 56.0998L88.5 55.9998H89.1C89.5 55.9998 89.5 55.8998 90.5 55.7998C90.5 55.6998 90.5 55.6998 90.6 55.6998V55.7998C92.1 55.4998 92.2 55.4998 92.5 55.3998C92.9 55.2998 92.7 55.2998 92.8 55.2998C92.8 55.3998 92.8 55.3998 92.9 55.3998H93.2V55.1998H92.7C92.7 55.1998 92.7 55.1998 92.6 55.1998H92.5C92.1 55.2998 92.1 55.1998 91.9 55.1998L90.5 55.2998V55.1998L91.3 55.0998H91.6L91.8 54.9998V55.0998C92.9 54.9998 93.2 55.2998 98.2 54.1998C98.5 54.1998 98.4 53.9998 98.6 53.4998C98.5 53.4998 98.4 53.4998 98.3 53.3998C97.9 53.5998 97.7 53.4998 96.9 53.5998C96.8 53.5998 96.8 53.4998 96.8 53.3998V53.2998H97.6C97.3 53.1998 97.6 53.1998 97.9 53.0998ZM61.6 53.6998H61.3C61.3 53.5998 61.5 52.9998 61.9 52.0998H62.1C62 52.2998 61.9 52.7998 61.6 53.6998ZM62 51.9998C62 51.7998 62.1 51.6998 62.2 51.6998V51.7998C62.2 51.8998 62.2 51.9998 62 51.9998ZM66.6 55.4998L66 55.6998V55.5998L66.6 55.4998ZM65.9 55.4998C65.9 55.5998 65.7 55.7998 65.3 55.8998L64.6 55.7998H64.4V55.5998L65.9 55.4998ZM70.6 33.9998H70.3V33.8998C70.3 33.7998 70.4 33.6998 70.5 33.6998H70.6L70.8 33.7998C70.8 33.8998 70.7 33.9998 70.6 33.9998ZM75.9 32.9998H76V33.1998H75.7C75.7 33.0998 75.7 32.9998 75.9 32.9998ZM74.5 33.3998H74V33.2998C74.7 33.1998 74.9 33.1998 75.3 32.9998C75.3 33.0998 75.4 33.0998 75.5 33.0998V33.2998H75.3C75.1 33.2998 75 33.2998 74.9 33.1998C74.8 33.3998 74.7 33.3998 74.5 33.3998ZM75.2 35.2998L76 35.0998V35.1998L75.2 35.2998ZM76.1 34.5998V34.4998H76.5V34.5998H76.1ZM76.2 33.1998H76.1L76.2 32.9998L77.1 32.8998V32.9998C76.9 32.9998 76.6 33.0998 76.2 33.1998ZM76.7 35.1998V34.9998H77.1C77.2 34.9998 77.3 35.0998 77.3 35.1998H76.7ZM79.2 31.7998L78.7 31.8998H78.6C78.3 31.8998 78 31.8998 77.6 31.8998C78.3 31.8998 78.9 31.7998 79.2 31.7998ZM78.6 34.0998L77.9 34.2998V34.1998L78.6 34.0998ZM79.8 34.6998C79.8 34.5998 79.7 34.5998 79.4 34.4998L78.7 34.6998H78.1C78 34.5998 77.9 34.5998 77.9 34.4998H78.5L80 34.2998H80.7V34.3998C80.4 34.5998 80.1 34.5998 79.8 34.6998ZM87.3 32.7998C87.4 32.7998 87.4 32.7998 87.5 32.7998C87.8 32.4998 88 32.2998 88.4 32.1998C88.1 33.3998 87.7 34.1998 87.2 34.7998L86.8 34.4998C87.1 33.6998 87.3 33.0998 87.3 32.7998ZM86.1 34.9998H86.2C86.1 35.2998 85.9 35.3998 85.8 35.3998V35.0998C85.8 35.0998 85.9 34.9998 86.1 34.9998ZM85.3 36.8998C85.5 36.0998 85.7 35.6998 85.9 35.4998V35.5998C85.8 36.2998 85.6 36.6998 85.4 36.7998V37.2998C85.2 37.5998 85.1 37.6998 85.1 37.8998H85V37.1998C85.1 37.1998 85.2 37.0998 85.3 36.8998ZM84.9 37.9998C84.9 38.0998 84.8 38.3998 84.7 38.7998H84.6V38.4998C84.7 38.0998 84.9 37.9998 84.9 37.9998ZM79 55.2998L79.2 55.1998V55.4998C79.1 55.4998 79 55.3998 79 55.2998ZM87.5 55.4998C87.5 55.3998 87.5 55.3998 87.4 55.3998H86.9V55.2998L88 55.1998V55.2998C87.8 55.3998 87.6 55.3998 87.5 55.4998ZM87 53.8998L86.3 53.9998V53.8998H87L87.4 53.6998C87.4 53.7998 87.4 53.7998 87.5 53.7998C88.1 53.6998 88 53.6998 88.3 53.5998C88.4 53.5998 88.5 53.6998 88.5 53.7998L87 53.8998ZM89.2 53.6998C88.8 53.6998 88.8 53.5998 88.6 53.6998V53.5998L89.2 53.4998V53.6998C89.3 53.6998 89.1 53.5998 89.2 53.6998ZM89.2 53.5998L89.5 53.4998V53.5998H89.2ZM89.9 53.5998C89.9 53.4998 90 53.4998 90.1 53.3998C90.3 53.3998 90.3 53.4998 90.4 53.5998H89.9ZM90.8 53.4998L91.2 53.3998V53.4998H90.8ZM91.3 53.3998C91.3 53.2998 91.3 53.1998 91.4 53.1998L91.5 53.3998C91.5 53.2998 91.5 53.2998 91.6 53.2998L91.7 53.4998L91.3 53.3998ZM98.7 52.4998C98.8 52.3998 98.8 52.3998 98.7 52.4998C98.6 52.4998 98.7 52.4998 98.6 52.4998V52.5998C98.6 52.4998 98.7 52.4998 98.7 52.4998L98.6 52.5998L98.4 52.7998L98.7 52.6998V52.4998ZM99.3 52.8998V53.0998H99.7C99.7 52.8998 99.4 52.8998 99.3 52.8998Z" fill="#D3D3D3"/>
</g>
<defs>
<clipPath id="clip0_755_19656">
<rect width="100" height="100" fill="white"/>
</clipPath>
</defs>
</svg>
