<svg width="100" height="100" viewBox="0 0 100 100" fill="none" xmlns="http://www.w3.org/2000/svg">
<path d="M87.4 20.3998L55.8 1.6998C52.1 -0.500195 47.4 -0.500195 43.6 1.6998L12.1 20.3998C8.4 22.5998 6 26.7998 6 31.2998V68.7998C6 73.2998 8.3 77.3998 12.1 79.5998L43.6 98.2998C45.5 99.3998 47.6 99.9998 49.7 99.9998C51.8 99.9998 53.9 99.3998 55.8 98.2998L87.3 79.5998C91 77.3998 93.4 73.1998 93.4 68.7998V31.1998C93.5 26.7998 91.2 22.5998 87.4 20.3998Z" fill="white"/>
<path d="M87.4 20.4L55.8 1.7C54 0.6 51.8 0 49.7 0C47.6 0 45.5 0.6 43.6 1.7L12.1 20.4C8.4 22.6 6 26.8 6 31.3V68.8C6 73.3 8.3 77.4 12.1 79.6L43.6 98.3C45.5 99.4 47.6 100 49.7 100C51.8 100 53.9 99.4 55.8 98.3L87.3 79.6C91 77.4 93.4 73.2 93.4 68.8V31.2C93.5 26.8 91.2 22.6 87.4 20.4ZM44.7 96.3L13.2 77.5C10.1 75.6 8.2 72.2 8.2 68.6V31.2C8.2 27.6 10.1 24.1 13.2 22.3L44.7 3.6C46.2 2.7 47.9 2.2 49.7 2.2C51.5 2.2 53.2 2.7 54.7 3.6L86.2 22.3C88.8 23.8 90.5 26.5 91 29.5C90 27.3 87.6 26.6 84.8 28.2L55.2 46.7C51.5 48.9 48.8 51.3 48.8 55.8V92.6C48.8 95.3 49.9 97 51.5 97.5C51 97.6 50.4 97.7 49.8 97.7C48 97.7 46.3 97.2 44.7 96.3Z" fill="#303030"/>
<path d="M79.0999 72.3002L71.1999 77.0002C70.9999 77.1002 70.8999 77.3002 70.8999 77.5002V79.5002C70.8999 79.8002 71.0999 79.8002 71.1999 79.8002L79.1999 75.0002C79.3999 74.9002 79.4999 74.7002 79.4999 74.4002V72.6002C79.4999 72.3002 79.2999 72.2002 79.0999 72.3002Z" fill="#7F7F7F"/>
<path d="M62.4001 54.9999C62.7001 54.7999 62.8001 54.9999 62.9001 55.2999V57.9999C64.0001 57.5999 65.0001 57.3999 66.0001 57.6999C66.2001 57.7999 66.3001 57.9999 66.2001 58.2999L65.6001 60.6999C65.5001 60.8999 65.4001 60.9999 65.3001 61.1999C65.2001 61.2999 65.2001 61.2999 65.1001 61.2999C65.0001 61.2999 64.9001 61.3999 64.8001 61.2999C64.4001 61.1999 63.4001 60.9999 61.9001 61.7999C60.3001 62.5999 59.7001 63.9999 59.8001 64.9999C59.8001 66.2999 60.5001 66.5999 62.6001 66.5999C65.5001 66.6999 66.8001 67.9999 66.8001 70.7999C66.8001 73.6999 65.3001 76.7999 62.9001 78.6999L63.0001 81.3999C63.0001 81.6999 62.8001 82.0999 62.6001 82.1999L61.0001 83.1999C60.7001 83.3999 60.6001 83.1999 60.5001 82.8999V80.2999C59.1001 80.8999 57.8001 80.9999 56.9001 80.5999C56.7001 80.4999 56.6001 80.2999 56.7001 79.9999L57.3001 77.4999C57.4001 77.2999 57.5001 77.0999 57.6001 76.9999C57.7001 76.8999 57.7001 76.8999 57.8001 76.8999C57.9001 76.7999 58.0001 76.7999 58.1001 76.8999C59.0001 77.1999 60.3001 77.0999 61.4001 76.4999C62.9001 75.6999 63.9001 74.1999 63.9001 72.6999C63.9001 71.2999 63.1001 70.7999 61.4001 70.7999C59.1001 70.7999 57.0001 70.3999 56.9001 66.9999C56.9001 64.1999 58.3001 61.2999 60.6001 59.4999V56.7999C60.6001 56.4999 60.8001 56.0999 61.0001 55.9999L62.4001 54.9999Z" fill="white"/>
</svg>
