<svg width="100" height="100" viewBox="0 0 100 100" fill="none" xmlns="http://www.w3.org/2000/svg">
<g clip-path="url(#clip0_755_19664)">
<path d="M3.2 5C2.8 5 2.3 5.1 1.9 5.3C1.5 5.5 1.1 5.8 0.8 6.1C0.5 6.5 0.2 6.9 0.1 7.3C0 7.8 0 8.3 0 8.7L13.6 91.3C13.8 92.3 14.3 93.2 15.1 93.9C15.9 94.6 16.9 94.9 17.9 94.9H83.1C83.9 94.9 84.6 94.6 85.2 94.1C85.8 93.6 86.2 92.9 86.3 92.2L100 8.7C100.1 8.2 100 7.8 99.9 7.3C99.8 6.8 99.5 6.4 99.2 6.1C98.9 5.7 98.5 5.5 98.1 5.3C97.7 5.1 97.2 5 96.8 5H3.2ZM60.5 64.7H39.7L34.1 35.2H65.6L60.5 64.7Z" fill="#757575"/>
<path d="M95.6001 35.2002H65.6001L60.6001 64.6002H39.7001L15.1001 93.8002C15.9001 94.5002 16.9001 94.8002 17.9001 94.9002H83.1001C83.9001 94.9002 84.6001 94.6002 85.2001 94.2002C85.8001 93.7002 86.2001 93.0002 86.3001 92.3002L95.6001 35.2002Z" fill="url(#paint0_linear_755_19664)"/>
</g>
<defs>
<linearGradient id="paint0_linear_755_19664" x1="91.3224" y1="35.5467" x2="56.6159" y2="84.8267" gradientUnits="userSpaceOnUse">
<stop offset="0.18" stop-color="#474747"/>
<stop offset="1" stop-color="#757575"/>
</linearGradient>
<clipPath id="clip0_755_19664">
<rect width="100" height="100" fill="white"/>
</clipPath>
</defs>
</svg>
