<svg width="100" height="100" viewBox="0 0 100 100" fill="none" xmlns="http://www.w3.org/2000/svg">
<mask id="mask0_755_19668" style="mask-type:luminance" maskUnits="userSpaceOnUse" x="5" y="0" width="90" height="100">
<path d="M94.4 0H5V100H94.4V0Z" fill="white"/>
</mask>
<g mask="url(#mask0_755_19668)">
<path fill-rule="evenodd" clip-rule="evenodd" d="M60.7001 44.0003L49.9001 37.8003L39.1001 44.0003L49.9001 50.3003L60.7001 44.0003Z" fill="#414141"/>
<path fill-rule="evenodd" clip-rule="evenodd" d="M49.9001 62.7L60.7001 56.5V44L49.9001 50.2V62.7Z" fill="#323232"/>
<path fill-rule="evenodd" clip-rule="evenodd" d="M49.9001 62.7L39.1001 56.5V44L49.9001 50.2V62.7Z" fill="#1D1D1D"/>
<path d="M75.6001 35.5V65.1L49.9001 80L24.2001 65.1L6.90015 75C7.80015 76.6 9.10015 77.9 10.5001 78.7C21.9001 85.3 33.3001 91.9 44.7001 98.5C48.0001 100.4 51.6001 100.4 55.0001 98.5L89.3001 78.7C92.5001 76.9 94.2001 73.9 94.2001 70.2V30.7C94.2001 28.8 93.8001 27 93.0001 25.5L75.6001 35.5Z" fill="#353535"/>
<path d="M10.5001 21.7003C7.3001 23.5003 5.6001 25.4003 5.6001 29.0003V70.0003C5.6001 71.9003 6.1001 73.6003 6.9001 75.0003L24.2001 65.1003V13.8003L10.5001 21.7003Z" fill="url(#paint0_linear_755_19668)"/>
<path d="M44.9001 2.0001L39.1001 5.4001V26.9001L49.9001 20.7001L75.6001 35.5001V35.6001L92.9001 25.6001C92.1001 24.1001 90.8001 22.8001 89.2001 21.9001L54.9001 2.0001C53.4001 1.1001 51.7001 0.700098 49.9001 0.600098C48.1001 0.600098 46.4001 1.1001 44.9001 2.0001Z" fill="url(#paint1_linear_755_19668)"/>
</g>
<defs>
<linearGradient id="paint0_linear_755_19668" x1="-869.44" y1="-186.203" x2="938.019" y2="284.737" gradientUnits="userSpaceOnUse">
<stop stop-color="#353535"/>
<stop offset="1" stop-color="#2B2B2B"/>
</linearGradient>
<linearGradient id="paint1_linear_755_19668" x1="39.067" y1="18.0654" x2="92.9402" y2="18.0654" gradientUnits="userSpaceOnUse">
<stop stop-color="#353535"/>
<stop offset="1" stop-color="#737373"/>
</linearGradient>
</defs>
</svg>
