<svg width="100" height="100" viewBox="0 0 100 100" fill="none" xmlns="http://www.w3.org/2000/svg">
<path d="M71.5 37.7998L92.9 50.4998V75.4998L71.5 87.7998L50 75.4998V50.4998L71.5 37.7998Z" fill="#767676"/>
<path d="M49.9999 0L71.5999 12.8V37.8L49.9999 50L28.3999 37.8V12.8L49.9999 0Z" fill="#797979"/>
<path d="M71.5 12.7998L92.9 25.4998V50.4998L71.5 62.7998L50 50.4998V25.4998L71.5 12.7998Z" fill="#797979"/>
<path d="M28.4 12.7998L50 25.4998V50.4998L28.4 62.7998L7 50.4998V25.4998L28.4 12.7998Z" fill="#858585"/>
<path d="M28.4 37.7998L50 50.4998V75.4998L28.4 87.7998L7 75.4998V50.4998L28.4 37.7998Z" fill="#858585"/>
<path d="M49.9999 50L71.5999 62.8V87.8L49.9999 100L28.3999 87.8V62.8L49.9999 50Z" fill="#767676"/>
<path d="M71.4999 12.8L49.9999 25.5L28.3999 12.8L49.9999 0L71.4999 12.8ZM92.8999 25.5L71.3999 38.3L49.9999 25.5L71.5999 12.7L92.8999 25.5Z" fill="#919191"/>
<path d="M49.9999 75V50L28.3999 62.8V87.8L49.9999 75Z" fill="#707070"/>
<path d="M71.4999 62.8L49.9999 75L28.3999 62.8L49.9999 50L71.4999 62.8Z" fill="#898989"/>
<path d="M49.9999 75L28.3999 62.8L49.9999 50V75Z" fill="#848484"/>
<path d="M49.9999 25.5L28.3999 12.8L49.9999 0V25.5Z" fill="#8D8D8D"/>
<path d="M50 25.4998L28.4 38.2998L7 25.4998L28.4 12.7998L50 25.4998Z" fill="#9A9A9A"/>
<path d="M92.9 50.4998L71.5 62.7998L50 49.9998L71.6 38.2998L92.9 50.4998Z" fill="#757575"/>
<path d="M28.1 87.5L7 75.3L28.1 62.5V87.5Z" fill="#7B7B7B"/>
<path d="M28.3999 38.2998V12.7998L49.9999 25.4998V49.9998L28.3999 38.2998Z" fill="#919191"/>
<path d="M49.9999 50V25.5L28.3999 38.3V62.8L49.9999 50Z" fill="#4B4B4B"/>
<path d="M49.9999 50L28.3999 38.3L49.9999 25.5V50Z" fill="#484848"/>
<path d="M92.9 75.5L71.5 62.8L92.9 50.5V75.5Z" fill="#151515" fill-opacity="0.2"/>
<path d="M71.5 87.8V62.8L50 75V100L71.5 87.8ZM92.9 75.5V50.5L71.4 62.7V87.7L92.9 75.5Z" fill="#494949"/>
<path d="M92.9 75.5L71.5 62.8L92.9 50.5V75.5Z" fill="#424242"/>
<path d="M92.9 50.5V25.5L71.5 38.3V62.8L92.9 50.5Z" fill="#4B4B4B"/>
<path d="M92.9 50.5L71.5 38.3L92.9 25.5V50.5Z" fill="#505050"/>
<path opacity="0.78" d="M7 25.5L28.6 37.7L50 25.5L29 38.4L28.5 62.6L28 38.4L7 25.5Z" fill="#CFCFCF"/>
<path opacity="0.78" d="M50 25.5L71.6 37.8L93 25.5L72 38.4L71.5 62.8L70.9 38.4L50 25.5Z" fill="#B4B4B4"/>
<path opacity="0.78" d="M28.3999 62.7998L49.9999 74.4998L71.5999 62.7998L50.5999 75.2998L49.9999 99.9998L49.4999 75.2998L28.3999 62.7998Z" fill="#A5A5A5"/>
</svg>
