<svg width="100" height="100" viewBox="0 0 100 100" fill="none" xmlns="http://www.w3.org/2000/svg">
<g clip-path="url(#clip0_755_19706)">
<path d="M0 87.1C0 94.2 5.8 100 12.9 100H87.1C94.2 100 100 94.2 100 87.1V12.9C100 5.8 94.2 0 87.1 0H12.9C5.8 0 0 5.8 0 12.9V87.1Z" fill="#4B4B4B"/>
<path d="M41.5 44.2002V30.1002H54C55.2 30.1002 56.3 30.2002 57.4 30.4002C58.5 30.6002 59.5 31.0002 60.2999 31.5002C61.0999 32.0002 61.7999 32.7002 62.2999 33.6002C62.7999 34.5002 63.0999 35.7002 63.0999 37.1002C63.0999 39.6002 62.2999 41.5002 60.7999 42.6002C59.2999 43.7002 57.3 44.3002 54.9 44.3002H41.5V44.2002ZM28.2 19.7002V80.2002H57.5C60.2 80.2002 62.9 79.9002 65.4 79.2002C68 78.5002 70.3 77.5002 72.3 76.1002C74.3 74.7002 75.8999 72.9002 77.0999 70.6002C78.2999 68.4002 78.9 65.7002 78.9 62.7002C78.9 58.9002 78 55.7002 76.0999 53.0002C74.2999 50.3002 71.4999 48.4002 67.6999 47.4002C70.3999 46.1002 72.5 44.4002 73.8 42.4002C75.2 40.4002 75.9 37.8002 75.9 34.8002C75.9 32.0002 75.4 29.6002 74.5 27.7002C73.5999 25.8002 72.2999 24.2002 70.5999 23.1002C68.8999 21.9002 66.9 21.1002 64.5 20.6002C62.0999 20.1002 59.4999 19.8002 56.5999 19.8002H28.2V19.7002ZM41.5 69.9002V53.3002H56C58.9 53.3002 61.2 54.0002 63 55.3002C64.7999 56.6002 65.5999 58.8002 65.5999 62.0002C65.5999 63.6002 65.3 64.9002 64.8 65.9002C64.3 66.9002 63.5 67.7002 62.5999 68.3002C61.6999 68.9002 60.5999 69.3002 59.5 69.6002C58.2999 69.9002 57.0999 70.0002 55.7999 70.0002H41.5V69.9002Z" fill="white"/>
</g>
<defs>
<clipPath id="clip0_755_19706">
<rect width="100" height="100" fill="white"/>
</clipPath>
</defs>
</svg>
