<svg width="100" height="100" viewBox="0 0 100 100" fill="none" xmlns="http://www.w3.org/2000/svg">
<path d="M92 32.3L89 23.9L91.1 19.1C91.4 18.5 91.2 17.8 90.8 17.3L85 11.4C82.4 8.8 78.7 7.9 75.2 9.1L73.6 9.7L64.7 0.1L49.6 0H49.5L34.3 0.1L25.4 9.8L23.8 9.2C20.4 8 16.6 8.9 14 11.6L8.1 17.6C7.7 18 7.6 18.6 7.8 19.1L10 24.1L7 32.3L9 39.8L18 74.1C19 78.1 21.4 81.5 24.8 83.9C24.8 83.9 35.8 91.6 46.6 98.7C47.6 99.3 48.6 99.8 49.6 99.8C50.7 99.8 51.7 99.4 52.6 98.7C64.8 90.8 74.4 84 74.4 84C77.7 81.6 80.1 78.2 81.1 74.2L90.1 39.9L92 32.3Z" fill="#818181"/>
<path opacity="0.15" d="M18.5 75.5998L7 33.0998L10.4 24.7998L8 18.4998L13.5 12.8998C15.3 11.2998 18.9 10.6998 20.6 11.6998L29.3 16.6998L40.6 19.2998L49.4 15.5998L50.1 91.1998C50 102.1 50.7 100.9 42.7 95.7998L22.9 82.5998C20.8 80.5998 19.2 78.2998 18.5 75.5998Z" fill="url(#paint0_linear_755_19960)"/>
<path opacity="0.4" d="M74.1999 83.8001L57.4 95.3001C52.7 97.9001 50.4999 100.4 50.0999 99.2001C49.7999 98.2001 50 95.4001 49.9 91.0001L49.7 17.0001C49.7 16.3001 50.1999 15.0001 51.0999 15.2001L59.7 17.8001L72 15.8001L80.1999 9.80014C81.0999 9.10014 82.2999 9.20014 83.0999 10.0001L90.4 17.0001C91.1 17.7001 91.0999 19.1001 90.6999 19.9001L88.6999 23.7001L92.0999 32.4001L80.5 75.4001C78.7 80.6001 76.1999 82.0001 74.1999 83.8001Z" fill="url(#paint1_linear_755_19960)"/>
<path d="M51.5001 61.4001C51.1001 61.2001 50.7001 61.1001 50.5001 61.1001H50.0001H49.5001C49.4001 61.1001 48.9001 61.2001 48.5001 61.4001L44.2001 63.2001C43.8001 63.4001 43.1001 63.7001 42.7001 63.9001L36.2001 67.3001C35.8001 67.5001 35.8001 67.9001 36.1001 68.1001L41.8001 72.2001C42.2001 72.5001 42.7001 72.9001 43.1001 73.2001L45.7001 75.4001C46.0001 75.7001 46.6001 76.2001 46.9001 76.5001L49.4001 78.7001C49.7001 79.0001 50.3001 79.0001 50.6001 78.7001L53.1001 76.5001C53.4001 76.2001 54.0001 75.7001 54.3001 75.4001L56.9001 73.2001C57.2001 72.9001 57.8001 72.5001 58.2001 72.2001L63.9001 68.1001C64.3001 67.8001 64.2001 67.5001 63.8001 67.3001L57.3001 64.0001C56.9001 63.8001 56.2001 63.5001 55.8001 63.3001L51.5001 61.4001Z" fill="white"/>
<path d="M82.7001 33.6998C82.8001 33.2998 82.8001 33.0998 82.8001 33.0998C82.8001 32.6998 82.8001 31.8998 82.7001 31.4998L82.4001 30.4998C82.2001 30.0998 81.9001 29.4998 81.6001 29.0998L77.8001 23.5998C77.6001 23.1998 77.1001 22.6998 76.8001 22.2998L72.0001 16.2998C71.7001 15.9998 71.5001 15.6998 71.4001 15.6998H71.3001C71.3001 15.6998 70.9001 15.7998 70.5001 15.7998L63.1001 17.2998C62.7001 17.3998 62.0001 17.4998 61.5001 17.5998H61.4001C61.0001 17.6998 60.3001 17.5998 59.8001 17.4998L53.6001 15.4998C53.2001 15.3998 52.5001 15.1998 52.1001 15.0998C52.1001 15.0998 50.8001 14.7998 49.8001 14.7998C48.8001 14.7998 47.5001 15.0998 47.5001 15.0998C47.1001 15.1998 46.4001 15.3998 46.0001 15.4998L39.8001 17.4998C39.4001 17.5998 38.7001 17.6998 38.2001 17.5998H38.1001C37.7001 17.4998 37.0001 17.3998 36.5001 17.2998L29.0001 15.8998C28.6001 15.7998 28.2001 15.7998 28.2001 15.7998H28.1001C28.1001 15.7998 27.8001 16.0998 27.5001 16.3998L22.6001 22.4998C22.3001 22.7998 21.9001 23.3998 21.6001 23.7998L17.8001 29.2998C17.6001 29.6998 17.2001 30.2998 17.0001 30.6998L16.7001 31.6998C16.6001 32.0998 16.6001 32.8998 16.6001 33.2998C16.6001 33.2998 16.6001 33.3998 16.7001 33.8998C16.9001 34.6998 17.5001 35.3998 17.5001 35.3998C17.8001 35.6998 18.3001 36.2998 18.6001 36.5998L29.6001 48.2998C29.9001 48.5998 30.0001 49.1998 29.8001 49.5998L27.8001 54.9998C27.6001 55.3998 27.6001 56.0998 27.8001 56.4998L28.4001 58.1998C28.9001 59.5998 29.8001 60.8998 31.0001 61.8998L33.2001 63.6998C33.5001 63.9998 34.1001 64.0998 34.5001 63.8998L41.5001 60.4998C41.9001 60.2998 42.5001 59.8998 42.8001 59.5998L47.8001 54.9998C48.5001 54.2998 48.6001 53.1998 47.9001 52.4998L37.3001 45.3998C36.9001 45.1998 36.8001 44.5998 37.0001 44.1998L41.7001 35.3998C41.9001 34.9998 41.9001 34.3998 41.8001 33.9998L41.2001 32.6998C41.0001 32.2998 40.5001 31.7998 40.1001 31.6998L26.4001 26.5998C26.0001 26.3998 26.0001 26.2998 26.4001 26.1998L35.2001 25.3998C35.6001 25.3998 36.3001 25.3998 36.8001 25.4998L44.6001 27.6998C45.0001 27.7998 45.3001 28.2998 45.2001 28.6998L42.5001 43.5998C42.4001 43.9998 42.4001 44.5998 42.5001 44.9998C42.6001 45.2998 43.0001 45.5998 43.5001 45.6998L48.9001 46.8998C49.3001 46.9998 50.0001 46.9998 50.5001 46.8998L55.6001 45.6998C56.0001 45.5998 56.5001 45.2998 56.6001 44.9998C56.7001 44.6998 56.7001 44.0998 56.6001 43.5998L53.9001 28.6998C53.8001 28.2998 54.1001 27.7998 54.5001 27.6998L62.3001 25.4998C62.7001 25.3998 63.4001 25.2998 63.9001 25.3998L72.7001 26.1998C73.1001 26.1998 73.2001 26.3998 72.7001 26.5998L59.0001 31.7998C58.6001 31.9998 58.1001 32.3998 57.9001 32.7998L57.8001 33.9998C57.6001 34.3998 57.6001 35.0998 57.9001 35.3998L62.6001 44.1998C62.8001 44.5998 62.7001 45.0998 62.3001 45.3998L51.7001 52.5998C51.0001 53.2998 51.1001 54.4998 51.8001 55.0998L56.8001 59.6998C57.1001 59.9998 57.7001 60.3998 58.1001 60.5998L65.2001 63.9998C65.6001 64.1998 66.2001 64.0998 66.5001 63.7998L68.7001 61.9998C69.9001 60.9998 70.8001 59.7998 71.3001 58.2998L71.9001 56.5998C72.1001 56.1998 72.0001 55.4998 71.9001 55.0998L69.6001 49.6998C69.4001 49.2998 69.5001 48.6998 69.8001 48.3998L80.8001 36.6998C81.1001 36.3998 81.6001 35.7998 81.9001 35.4998C81.9001 35.2998 82.5001 34.4998 82.7001 33.6998Z" fill="white"/>
<defs>
<linearGradient id="paint0_linear_755_19960" x1="7" y1="55.4156" x2="4326.8" y2="55.4156" gradientUnits="userSpaceOnUse">
<stop stop-color="white"/>
<stop offset="0.1413" stop-color="white" stop-opacity="0.9576"/>
<stop offset="1" stop-color="white" stop-opacity="0.7"/>
</linearGradient>
<linearGradient id="paint1_linear_755_19960" x1="48.0364" y1="54.416" x2="4285.57" y2="54.416" gradientUnits="userSpaceOnUse">
<stop stop-color="#F1F1F1"/>
<stop offset="0.0919144" stop-color="#E5E5E5"/>
<stop offset="0.2357" stop-color="#DADADA"/>
<stop offset="0.438" stop-color="#D4D4D4"/>
<stop offset="1" stop-color="#D2D2D2"/>
</linearGradient>
</defs>
</svg>
