<svg width="100" height="100" viewBox="0 0 100 100" fill="none" xmlns="http://www.w3.org/2000/svg">
<path d="M89.2 32.3001C89 32.1001 88.8 31.9001 88.6 31.7001C88.4 31.5001 88.2 31.3001 88 31.1001C87.8 30.9001 87.6 30.7001 87.4 30.5001C87.2 30.3001 87 30.1001 86.8 29.9001C86.6 29.7001 86.4 29.5001 86.2 29.3001C86 29.1001 85.8 28.9001 85.6 28.7001C85.4 28.5001 85.2 28.3001 85 28.1001C91.2 34.2001 94.8 42.5001 94.9 51.2001C94.9 71.9001 73.9 88.8001 48 88.8001C33.5 88.8001 20.6 83.5001 12 75.2001L12.6 75.8001L13.2 76.4001L13.8 77.0001L14.4 77.6001L15 78.2001L15.6 78.8001L16.2 79.4001C24.8 88.0001 38 93.6001 52.9 93.6001C78.7 93.6001 99.8 76.7001 99.8 56.1001C99.7 47.2001 95.9 38.9001 89.2 32.3001Z" fill="black"/>
<path d="M91.6 51.0001C91.6 70.0001 72 85.4001 47.8 85.4001C23.6 85.4001 4.10001 70.0001 4.10001 51.0001C4.10001 39.2001 11.6 28.8001 23.1 22.6001C34.6 16.4001 41.8 10.1001 47.8 10.1001C53.8 10.1001 59 15.3001 72.6 22.6001C84.1 28.8001 91.6 39.2001 91.6 51.0001Z" fill="#F1F1F1"/>
<path d="M91.6 50.9998C91.6 48.5998 91.3 46.0998 90.6 43.7998C87.2 85.3998 36.4 87.3998 16.4 74.9998C25.4 81.9998 36.4 85.5998 47.8 85.4998C72 85.3998 91.6 69.9998 91.6 50.9998Z" fill="#E3E3E3"/>
<path d="M31 20.3001C36.6 17.0001 44 10.7001 51.3 10.7001C50.2 10.3001 49 10.1001 47.8 10.1001C44.8 10.1001 41.6 11.7001 37.5 14.0001C36.1 14.8001 34.6 15.7001 33.1 16.7001C30.2 18.5001 26.9 20.5001 23.1 22.6001C11.2 29.0001 4.10001 39.6001 4.10001 51.0001C4.10001 51.5001 4.10001 52.0001 4.10001 52.5001C11.7 25.7001 25.5 23.7001 31 20.3001Z" fill="#FEFEFE"/>
<path fill-rule="evenodd" clip-rule="evenodd" d="M44.3 13.3002C44.3 16.3002 43.7 19.2002 42.5 21.9002C41.3 24.6002 39.5 27.0002 37.3 28.9002C37 29.2002 37.2 29.8002 37.7 29.6002C41.9 28.0002 47.6 23.1002 45.2 13.2002C45 12.6002 44.3 12.8002 44.3 13.3002ZM47.1 13.3002C48.6 15.8002 49.6 18.6002 49.9 21.5002C50.2 24.4002 50 27.4002 49.1 30.1002C49 30.5002 49.5 30.9002 49.8 30.6002C52.5 27.1002 54.9 20.1002 47.8 12.6002C47.4 12.3002 46.9 12.8002 47.1 13.3002ZM50.6 13.1002C53 14.8002 55 17.0002 56.5 19.5002C58 22.0002 58.9 24.9002 59.2 27.8002C59.2 27.9002 59.2 28.0002 59.3 28.1002C59.4 28.2002 59.5 28.2002 59.6 28.3002C59.7 28.3002 59.8 28.3002 59.9 28.2002C60 28.1002 60 28.0002 60.1 27.9002C61.3 23.5002 60.6 16.1002 51.1 12.2002C50.5 12.0002 50.2 12.7002 50.6 13.1002ZM27.5 26.1002C30.3 25.2002 33 23.8002 35.2 21.9002C37.5 20.0002 39.3 17.6002 40.5 14.9002C40.7 14.5002 41.4 14.6002 41.3 15.1002C39.2 25.0002 32 27.1002 27.5 26.9002C27 26.9002 27 26.2002 27.5 26.1002Z" fill="#C0C0C0"/>
<path d="M47.9 88.6C22 88.6 1 71.7 1 51C1 38.5 8.7 26.8 21.7 19.9C25.5 17.9 28.7 15.9 31.5 14.1C33.1 13.1 34.6 12.2 36 11.4C40.4 8.7 44.1 7 47.9 7C51.7 7 54.9 8.5 59 10.9C60.2 11.6 61.5 12.4 62.8 13.2C65.9 15.1 69.4 17.3 74 19.8C87 26.8 94.8 38.5 94.8 51C94.8 71.7 73.7 88.6 47.9 88.6ZM47.9 10.1C44.9 10.1 41.7 11.7 37.6 14C36.2 14.8 34.7 15.7 33.2 16.7C30.3 18.5 27 20.5 23.2 22.6C11.2 29 4.1 39.6 4.1 51C4.1 70 23.7 85.4 47.9 85.4C72.1 85.4 91.6 70 91.6 51C91.6 39.7 84.5 29 72.6 22.6C67.9 20.1 64.2 17.7 61.2 15.9C59.8 15.1 58.6 14.3 57.4 13.6C53.7 11.4 50.9 10.1 47.9 10.1Z" fill="black"/>
<path d="M56.7 60.1002C56.1 62.4002 54.9 64.5002 53 66.0002C51.6 67.3002 49.9 68.1002 48 68.3002C46.1 68.1002 44.2 67.3002 42.8 66.0002C41 64.5002 39.7 62.4002 39.2 60.1002C39.2 60.0002 39.2 59.8002 39.2 59.7002C39.2 59.6002 39.3 59.5002 39.4 59.4002C39.5 59.3002 39.6 59.2002 39.7 59.2002C39.8 59.2002 40 59.1002 40.1 59.2002H55.5C55.6 59.2002 55.8 59.2002 55.9 59.2002C56 59.2002 56.1 59.3002 56.2 59.4002C56.3 59.5002 56.4 59.6002 56.4 59.7002C56.7 59.9002 56.7 60.0002 56.7 60.1002Z" fill="#464646"/>
<path d="M42.9 66.0999C44.3 67.3999 46.1 68.2999 48 68.4999C49.9 68.2999 51.7 67.4999 53.1 66.0999C53.5 65.6999 54 65.1999 54.3 64.7999C53.5 63.8999 52.6 63.1999 51.5 62.6999C50.4 62.1999 49.3 61.8999 48.1 61.8999C46.9 61.8999 45.6 62.2999 44.5 62.8999C43.4 63.4999 42.5 64.3999 41.8 65.3999C42.3 65.5999 42.6 65.8999 42.9 66.0999Z" fill="#919191"/>
<path d="M43.1 65.1002C43.7 64.3002 44.5 63.6002 45.4 63.2002C46.3 62.7002 47.3 62.5002 48.3 62.5002C50.2 62.6002 52 63.3002 53.3 64.6002C53.6 64.3002 53.9 64.0002 54.1 63.6002C52.5 62.1002 50.4 61.2002 48.2 61.2002C47 61.2002 45.9 61.5002 44.8 62.0002C43.7 62.5002 42.8 63.2002 42.1 64.2002C42.4 64.5002 42.7 64.8002 43.1 65.1002Z" fill="black"/>
<path d="M48 69.0998C45.9 68.8998 44 67.9998 42.4 66.5998C40.5 64.9998 39.1 62.7998 38.5 60.2998C38.5 60.0998 38.5 59.8998 38.5 59.5998C38.6 59.3998 38.7 59.1998 38.8 58.9998C39 58.7998 39.2 58.5998 39.4 58.4998C39.6 58.3998 39.9 58.2998 40.2 58.2998H55.6C55.9 58.2998 56.1 58.2998 56.4 58.4998C56.6 58.5998 56.9 58.7998 57 58.9998C57.1 59.1998 57.2 59.3998 57.3 59.5998C57.4 59.7998 57.4 59.9998 57.3 60.2998C56.7 62.7998 55.3 64.9998 53.4 66.5998C52 67.9998 50.1 68.8998 48 69.0998ZM40.3 59.8998C40.1 59.8998 40.1 59.9998 40 59.9998C40.5 62.0998 41.7 64.0998 43.4 65.4998C44.6 66.6998 46.2 67.4998 48 67.6998C49.7 67.4998 51.3 66.6998 52.6 65.4998C54.3 64.0998 55.5 62.1998 56 59.9998L55.9 59.8998H55.8H40.3Z" fill="black"/>
<path d="M66.9 60.8998C70.9 60.8998 74.2 58.9998 74.2 56.5998C74.2 54.1998 70.9 52.2998 66.9 52.2998C62.9 52.2998 59.6 54.1998 59.6 56.5998C59.6 58.9998 62.9 60.8998 66.9 60.8998Z" fill="#D1D1D1"/>
<path d="M29.1 60.8998C33.1 60.8998 36.4 58.9998 36.4 56.5998C36.4 54.1998 33.1 52.2998 29.1 52.2998C25.1 52.2998 21.8 54.1998 21.8 56.5998C21.8 58.9998 25 60.8998 29.1 60.8998Z" fill="#D1D1D1"/>
<path fill-rule="evenodd" clip-rule="evenodd" d="M32.5 54.9C33.9 54.9 35.2 54.5 36.3 53.7C37.4 52.9 38.3 51.9 38.8 50.6C39.3 49.3 39.5 48 39.2 46.6C38.9 45.3 38.3 44 37.3 43.1C36.3 42.1 35.1 41.5 33.8 41.2C32.5 40.9 31.1 41.1 29.8 41.6C28.5 42.1 27.5 43 26.7 44.1C25.9 45.2 25.5 46.6 25.5 47.9C25.5 49.7 26.2 51.5 27.5 52.8C28.9 54.1 30.7 54.9 32.5 54.9ZM63.5 54.9C64.9 54.9 66.2 54.5 67.3 53.8C68.4 53 69.3 52 69.9 50.7C70.4 49.4 70.6 48.1 70.3 46.7C70 45.4 69.4 44.1 68.4 43.2C67.4 42.2 66.2 41.6 64.9 41.3C63.6 41 62.2 41.2 60.9 41.7C59.6 42.2 58.6 43.1 57.8 44.2C57 45.3 56.6 46.7 56.6 48C56.6 49.8 57.3 51.6 58.6 52.9C59.9 54.1 61.6 54.9 63.5 54.9Z" fill="black"/>
<path fill-rule="evenodd" clip-rule="evenodd" d="M30.4 48.4001C30.9 48.4001 31.4 48.3001 31.8 48.0001C32.2 47.7001 32.6 47.3001 32.8 46.8001C33 46.3001 33.1 45.8001 33 45.3001C32.9 44.8001 32.7 44.3001 32.3 44.0001C31.9 43.6001 31.5 43.4001 31 43.3001C30.5 43.2001 30 43.2001 29.5 43.4001C29 43.6001 28.6 43.9001 28.3 44.4001C28 44.8001 27.9 45.3001 27.9 45.8001C27.9 46.5001 28.2 47.1001 28.7 47.6001C29 48.1001 29.7 48.4001 30.4 48.4001ZM61.3 48.4001C61.8 48.4001 62.3 48.3001 62.7 48.0001C63.1 47.7001 63.5 47.3001 63.7 46.8001C63.9 46.3001 64 45.8001 63.9 45.3001C63.8 44.8001 63.6 44.3001 63.2 44.0001C62.8 43.6001 62.4 43.4001 61.9 43.3001C61.4 43.2001 60.9 43.2001 60.4 43.4001C59.9 43.6001 59.5 43.9001 59.2 44.4001C58.9 44.9001 58.8 45.3001 58.8 45.8001C58.8 46.5001 59.1 47.1001 59.5 47.6001C59.9 48.1001 60.6 48.4001 61.3 48.4001Z" fill="white"/>
</svg>
