<svg width="100" height="100" viewBox="0 0 100 100" fill="none" xmlns="http://www.w3.org/2000/svg">
<path d="M11.9 71.2998C12.7 71.2998 13.5 71.4998 13.9 71.8998C14 72.4998 13.4 73.4998 13.1 73.4998C12.7 73.2998 12.3 73.2998 11.8 73.2998C9.8 73.2998 8.9 75.2998 8.9 77.2998C8.9 78.4998 9.3 79.2998 10.3 79.2998C11.4 79.2998 12.4 78.5998 13 78.0998C13.2 78.1998 13.3 78.5998 13.3 78.8998C13.3 79.2998 13.2 79.6998 12.8 80.0998C12.1 80.7998 11 81.3998 9.3 81.3998C7.4 81.3998 6 80.2998 6 77.6998C6.1 74.3998 8.3 71.2998 11.9 71.2998Z" fill="#363636"/>
<path d="M18.3 79.1998C19.4 79.1998 21.3 77.3998 21.8 73.7998C21.8 73.5998 21.8 73.4998 21.9 73.2998C21.7 73.1998 21.3 73.0998 21 73.0998C20.2 73.0998 19.4 73.2998 18.7 74.2998C17.9 75.3998 17.6 76.6998 17.6 77.6998C17.5 78.6998 17.8 79.1998 18.3 79.1998ZM14.8 78.1998C14.8 76.8998 15.2 74.6998 16.8 73.0998C18.2 71.6998 19.9 71.2998 21.4 71.2998C22.4 71.2998 23.8 71.5998 24.6 71.7998C24.4 72.6998 23.9 76.2998 23.6 78.3998C23.5 79.2998 23.4 80.4998 23.5 80.9998C22.8 81.2998 21.5 81.3998 21.1 81.3998C20.9 81.3998 20.9 80.4998 20.9 79.6998C20.9 79.3998 21 78.9998 21 78.7998C20.2 80.1998 18.5 81.3998 16.8 81.3998C15.6 81.3998 14.8 80.2998 14.8 78.1998Z" fill="#363636"/>
<path d="M30 71.2998C30.9 71.2998 31.7 71.5998 32.1 71.9998C32.1 72.5998 31.6 73.5998 30.9 73.2998C30.6 73.1998 30.3 73.0998 29.8 73.0998C29.2 73.0998 28.7 73.3998 28.7 73.8998C28.7 74.2998 29 74.5998 30.4 75.5998C31.4 76.3998 31.8 76.9998 31.8 77.9998C31.8 79.5998 30.3 81.2998 27.7 81.2998C26.6 81.2998 25.7 80.8998 25.4 80.4998C25 79.8998 25.3 78.5998 25.7 78.7998C26.3 79.0998 27.2 79.3998 27.9 79.3998C28.6 79.3998 29.1 79.0998 29.1 78.5998C29.1 78.1998 28.8 77.8998 27.5 76.9998C26.4 76.1998 26.1 75.3998 26.1 74.5998C26.2 72.7998 27.7 71.2998 30 71.2998Z" fill="#363636"/>
<path d="M37.4 71.2998C38.3 71.2998 39.1 71.5998 39.5 71.9998C39.5 72.5998 39 73.5998 38.3 73.2998C38 73.1998 37.7 73.0998 37.2 73.0998C36.6 73.0998 36.1 73.3998 36.1 73.8998C36.1 74.2998 36.4 74.5998 37.8 75.5998C38.8 76.3998 39.2 76.9998 39.2 77.9998C39.2 79.5998 37.7 81.2998 35.1 81.2998C34 81.2998 33.1 80.8998 32.8 80.4998C32.4 79.8998 32.7 78.5998 33.1 78.7998C33.7 79.0998 34.6 79.3998 35.3 79.3998C36 79.3998 36.5 79.0998 36.5 78.5998C36.5 78.1998 36.2 77.8998 34.9 76.9998C33.8 76.1998 33.5 75.3998 33.5 74.5998C33.6 72.7998 35.2 71.2998 37.4 71.2998Z" fill="#363636"/>
<path d="M44.2 79.1998C45.3 79.1998 47.2 77.3998 47.7 73.7998C47.7 73.5998 47.7 73.4998 47.8 73.2998C47.6 73.1998 47.2 73.0998 46.9 73.0998C46.1 73.0998 45.3 73.2998 44.6 74.2998C43.8 75.3998 43.5 76.6998 43.5 77.6998C43.5 78.6998 43.7 79.1998 44.2 79.1998ZM40.7 78.1998C40.7 76.8998 41.1 74.6998 42.7 73.0998C44.1 71.6998 45.8 71.2998 47.3 71.2998C48.3 71.2998 49.7 71.5998 50.5 71.7998C50.3 72.6998 49.8 76.2998 49.5 78.3998C49.4 79.2998 49.3 80.4998 49.4 80.9998C48.7 81.2998 47.4 81.3998 47 81.3998C46.8 81.3998 46.8 80.4998 46.8 79.6998C46.8 79.3998 46.9 78.9998 46.9 78.7998C46.1 80.1998 44.4 81.3998 42.7 81.3998C41.5 81.3998 40.7 80.2998 40.7 78.1998Z" fill="#363636"/>
<path d="M55.5 74.1002C56.5 72.5002 57.8 71.3002 59.6 71.3002C61.1 71.3002 61.6 72.7002 61.3 74.7002C61.1 75.6002 60.9 77.0002 60.7 78.2002C60.5 79.3002 60.4 80.2002 60.5 80.8002C59.9 81.1002 58.3 81.2002 57.9 81.2002C57.7 81.2002 57.7 80.0002 57.9 78.8002C58.1 77.8002 58.4 75.9002 58.6 74.8002C58.7 74.2002 58.7 73.4002 58.1 73.4002C57.3 73.4002 55.4 74.7002 54.5 79.9002C54.4 80.3002 54.3 80.6002 54 80.7002C53.7 80.9002 53 81.1002 51.6 81.1002C51.9 79.8002 52.3 77.1002 52.6 75.1002C52.9 73.3002 53 72.1002 52.9 71.7002C53.3 71.6002 55.2 71.2002 55.4 71.2002C55.6 71.2002 55.7 71.9002 55.5 73.5002C55.4 73.8002 55.4 74.0002 55.5 74.1002Z" fill="#363636"/>
<path d="M66.4 79.1001C67.3 79.1001 69.3 77.3001 69.8 74.2001C69.8 74.0001 69.9 73.7001 69.9 73.5001C69.6 73.2001 69.3 73.1001 68.7 73.1001C66.5 73.1001 65.6 75.7001 65.6 77.6001C65.5 78.6001 65.9 79.1001 66.4 79.1001ZM65 81.4001C63.6 81.4001 62.8 80.2001 62.8 78.1001C62.8 74.6001 65 71.4001 68.6 71.4001C69.2 71.4001 69.8 71.6001 70.2 71.8001C70.4 70.8001 70.8 67.8001 70.9 66.9001C71.5 66.8001 72.8 66.6001 73.4 66.6001C73.6 66.6001 73.7 66.8001 73.6 67.4001C73.1 70.6001 72.2 76.8001 72 78.2001C71.9 79.4001 71.8 80.5001 71.9 81.1001C71.2 81.4001 69.8 81.5001 69.5 81.5001C69.3 81.5001 69.3 80.5001 69.3 79.6001C69.3 79.3001 69.4 78.9001 69.4 78.8001C68.1 80.5001 66.6 81.4001 65 81.4001Z" fill="#363636"/>
<path d="M77.5 74.4002C78.6 71.9002 80 71.3002 80.9 71.3002C81.2 71.3002 81.6 71.5002 81.8 71.7002C81.9 72.4002 81.3 73.8002 80.8 74.4002C80.5 74.3002 80.2 74.1002 79.9 74.1002C79.2 74.1002 77.7 75.2002 76.8 80.1002C76.7 80.5002 76.6 80.7002 76.4 80.8002C76 81.0002 74.6 81.2002 73.9 81.2002C74.2 79.4002 74.8 75.8002 75 73.7002C75.1 73.2002 75.1 72.2002 75 71.8002C75.4 71.6002 77 71.2002 77.4 71.2002C77.6 71.3002 77.8 72.5002 77.5 74.4002Z" fill="#363636"/>
<path d="M85.1 79.1998C86.2 79.1998 88.1 77.3998 88.6 73.7998C88.6 73.5998 88.6 73.4998 88.7 73.2998C88.5 73.1998 88.1 73.0998 87.8 73.0998C87 73.0998 86.2 73.2998 85.5 74.2998C84.7 75.3998 84.4 76.6998 84.4 77.6998C84.4 78.6998 84.7 79.1998 85.1 79.1998ZM81.7 78.1998C81.7 76.8998 82.1 74.6998 83.7 73.0998C85.1 71.6998 86.8 71.2998 88.3 71.2998C89.3 71.2998 90.7 71.5998 91.5 71.7998C91.3 72.6998 90.8 76.2998 90.5 78.3998C90.4 79.2998 90.3 80.4998 90.4 80.9998C89.7 81.2998 88.4 81.3998 88 81.3998C87.8 81.3998 87.8 80.4998 87.8 79.6998C87.8 79.3998 87.9 78.9998 87.9 78.7998C87.1 80.1998 85.4 81.3998 83.7 81.3998C82.5 81.3998 81.7 80.2998 81.7 78.1998Z" fill="#363636"/>
<path d="M78.8 34.8998C79.5 43.1998 66.5 50.9998 49.8 52.4998C33 53.8998 18.9 48.3998 18.2 40.0998C17.5 31.7998 30.5 23.9998 47.2 22.4998C64 21.0998 78.1 26.6998 78.8 34.8998Z" fill="#DBDBDB"/>
<path opacity="0.4" d="M47.7 23.5C41.3 23.4 33.8 25.9 28.3 28.3C27.7 30 27.4 31.7 27.4 33.6C27.4 43.4 36.2 51.3 47.2 51.3C58.1 51.3 67 43.4 67 33.6C67 30.5 66.1 27.6 64.6 25C60 24.4 53.9 23.6 47.7 23.5Z" fill="white"/>
<path d="M47.2 23.5001C43.7 23.3001 37.6 25.1001 32.5 27.0001C31.7 28.8001 31.3 30.8001 31.3 32.9001C31.3 41.5001 39.1 48.4001 47.3 48.4001C55.5 48.4001 62.7 41.4001 63.3 32.9001C63.5 30.1001 62.5 27.5001 61.2 25.2001C55.9 24.3001 50.3 23.7001 47.2 23.5001Z" fill="white"/>
<path d="M38.1 31.7999C38.5 30.7999 39.2 30.3999 39.8 29.5999C39.7 29.3999 39.6 28.7999 39.6 28.5999C39.6 27.5999 40.4 26.8999 41.3 26.8999C41.5 26.8999 41.7 26.8999 41.9 26.9999C44.8 24.7999 48.6 23.7999 52.4 24.6999C52.7 24.7999 53.1 24.8999 53.4 24.9999C49.6 24.4999 45.3 25.7999 42.4 28.1999C42.5 28.3999 42.7 28.9999 42.7 29.1999C42.7 30.1999 42.1 30.3999 41.1 30.3999C40.9 30.3999 40.7 30.3999 40.5 30.2999C39.8 31.1999 39 32.8999 38.6 33.8999C40.2 35.2999 41.7 35.8999 43.5 36.5999C43.5 36.4999 43.6 36.3999 43.6 36.2999C43.6 33.3999 46.2 30.9999 49.1 30.9999C51.7 30.9999 53.9 32.8999 54.3 35.3999C55.6 34.5999 56.9 33.8999 57.8 32.6999C57.6 32.3999 57.3 31.6999 57.3 31.2999C57.3 30.3999 58 29.6999 58.9 29.6999C59 29.6999 59.1 29.6999 59.3 29.6999C59.8 28.6999 60.2 27.5999 60.4 26.4999C55.8 23.0999 47 23.5999 47 23.5999C47 23.5999 40 23.1999 35.2 25.4999C35.8 27.7999 36.7 29.8999 38.1 31.7999Z" fill="#363636"/>
<path d="M59.8 30.5002C60.1 30.8002 60.3 31.0002 60.4 31.3002C60.8 32.1002 60 32.8002 59.1 32.8002C59 32.8002 58.9 32.8002 58.8 32.8002C57.8 34.3002 56.1 36.3002 54.5 37.3002C56.9 37.7002 59.1 38.6002 60.8 40.1002C62.1 37.8002 63.1 34.5002 63.1 31.6002C63.1 29.4002 62.1 27.9002 60.7 26.7002C60.8 27.8002 60.2 29.4002 59.8 30.5002Z" fill="#363636"/>
<path d="M40.7 45.1C41.5 42.9 43.4 41.3 45.2 39.8C44.9 39.4 44.5 38.5 44.4 38.1C42.2 37.4 40.2 36.2 38.7 34.5V34.6C38.4 35.9 38.4 37.2 38.5 38.4C39.6 38.6 40.4 39.5 40.4 40.7C40.4 41.4 39.8 42.3 39.4 42.8C39.8 43.8 40.1 44.3 40.7 45.1Z" fill="#363636"/>
<path d="M40.6 46.9C39.7 46 39 44.1 38.4 42.9C38.3 42.9 38.2 42.9 38.1 42.9C36.8 42.9 35.5 41.8 35.8 40.6C36 39.9 36.4 39.5 37.2 39.1C37 37.7 37 35.7 37.3 34.2C37.4 33.8 37.6 33.6 37.7 33.2C36.3 31.1 35.4 28.5 35.4 25.8C35.4 25.7 35.4 25.6 35.4 25.5C33 26.7 31.3 28.6 31.3 31.5C31.2 38.1 35 44.4 40.6 46.9Z" fill="#363636"/>
<path d="M54.3 37.8999C53.6 39.9999 51.6 41.3999 49.3 41.3999C48.1 41.3999 46.9 40.9999 46 40.2999C44.2 41.6999 42.5 44.2999 41.6 46.4999C42 46.8999 42.2 47.2999 42.7 47.5999C44 47.8999 45.8 47.5999 47.2 47.5999C52.8 47.5999 57.8 45.0999 60.7 40.6999C58.8 39.3999 56.6 38.0999 54.3 37.8999Z" fill="#363636"/>
<path d="M37.9 32.5C38.3 31.5 38.9 30.7 39.5 29.8C39.4 29.6 39.4 29.4 39.4 29.2C39.4 28.2 40.2 27.5 41.1 27.5C41.3 27.5 41.5 27.5 41.7 27.6C44.6 25.4 48.4 24.4 52.2 25.3C52.5 25.4 52.9 25.5 53.2 25.6C49.4 25.1 45.5 26.2 42.6 28.6C42.7 28.8 42.7 29 42.7 29.3C42.7 30.3 41.9 31 41 31C40.8 31 40.6 31 40.4 30.9C39.7 31.8 39.2 32.8 38.8 33.8C40.2 35.3 41.9 36.5 43.8 37.2C43.8 37.1 43.8 37 43.8 36.9C43.8 34 46.2 31.6 49.1 31.6C51.7 31.6 53.9 33.5 54.3 36C55.6 35.2 56.8 34.1 57.7 32.9C57.5 32.6 57.3 32.3 57.3 31.9C57.3 31 58 30.3 58.9 30.3C59 30.3 59.1 30.3 59.3 30.3C59.8 29.3 60.2 28.2 60.4 27.1C55.8 23.7 47 24.2 47 24.2C47 24.2 40 23.8 35.2 26.1C35.7 28.5 36.6 30.7 37.9 32.5Z" fill="#696969"/>
<path d="M60.1 30.7C60.4 31 60.6 31.4 60.6 31.9C60.6 32.8 59.9 33.5 59 33.5C58.9 33.5 58.8 33.5 58.7 33.5C57.7 35 56.4 36.4 54.9 37.4C57.2 37.8 59.3 38.7 61.1 40.2C62.4 37.9 63.1 35.2 63.1 32.4C63.1 30.2 62.1 28.7 60.7 27.5C60.7 28.6 60.4 29.7 60.1 30.7Z" fill="#696969"/>
<path d="M41 45.6002C41.8 43.4002 43.1 41.5002 45 40.0002C44.7 39.6002 44.5 39.2002 44.3 38.8002C42.1 38.1002 40.1 36.9002 38.6 35.2002V35.3002C38.3 36.6002 38.3 37.9002 38.4 39.1002C39.5 39.3002 40.3 40.2002 40.3 41.4002C40.3 42.1002 40 42.7002 39.6 43.1002C39.9 44.0002 40.4 44.8002 41 45.6002Z" fill="#696969"/>
<path d="M40.6 46.8998C39.7 45.9998 38.9 44.8998 38.3 43.6998C38.2 43.6998 38.1 43.6998 38 43.6998C36.7 43.6998 35.7 42.6998 35.7 41.3998C35.7 40.4998 36.2 39.6998 37 39.2998C36.8 37.8998 36.9 36.3998 37.2 34.9998C37.3 34.5998 37.4 34.1998 37.5 33.7998C36.1 31.7998 35.3 29.2998 35.3 26.5998C35.3 26.4998 35.3 26.3998 35.3 26.2998C32.9 27.4998 31.2 29.3998 31.2 32.2998C31.1 38.7998 35 44.3998 40.6 46.8998Z" fill="#696969"/>
<path d="M54.2 38.7002C53.5 40.8002 51.5 42.2002 49.2 42.2002C48 42.2002 46.8 41.8002 45.9 41.1002C44.1 42.5002 42.7 44.5002 41.8 46.7002C42.2 47.1002 42.6 47.5002 43 47.9002C44.3 48.2002 45.6 48.4002 47 48.4002C52.6 48.4002 57.6 45.5002 60.4 41.1002C58.6 39.7002 56.4 38.9002 54.2 38.7002Z" fill="#696969"/>
<path d="M54.3 37.2999L59.2 36.0999L54.3 35.8999L58.3 32.8999L53.8 34.4999L56.9 30.1999L52.6 32.9999L54.1 27.9999L51.2 32.0999L51.1 26.9999L49.2 31.5999L47.6 26.8999L47.7 32.3999L44.9 27.4999L46.4 32.6999L42 29.4999L45.5 33.8999L39.9 31.8999L44.3 35.0999L38.7 35.2999L44.4 36.7999L38.7 37.9999L44.4 38.3999L39.6 41.4999L44.5 39.6999L41.1 43.9999L45.4 40.4999L43.8 46.2999L47.1 41.5999L46.6 47.1999L48.5 42.0999L50.1 47.3999L50.5 42.0999L52.9 46.6999L51.5 41.4999L55.9 44.8999L53.1 40.5999L57.9 42.4999L54.2 38.8999L59.1 39.2999L54.3 37.2999Z" fill="white"/>
<path opacity="0.3" d="M2.5 46.6001C17.6 31.5001 29.7 26.8001 40.6 24.7001C42 24.4001 42.3 21.3001 42.3 21.3001C42.3 21.3001 42.5 23.6001 43.5 23.9001C44.5 24.2001 45.8 20.3001 45.8 20.3001C45.8 20.3001 44.6 23.8001 45.8 24.1001C47 24.3001 49.2 20.7001 49.2 20.7001C49.2 20.7001 48.3 23.8001 48.9 24.0001C49.5 24.2001 52.5 19.4001 52.5 19.4001C52.5 19.4001 50.7 22.5001 52.4 22.8001C54.1 23.1001 56.6 20.7001 56.6 20.7001C56.6 20.7001 54.6 22.9001 55.5 23.3001C59.3 24.6001 62.3 19.7001 62.3 19.7001C62.3 19.7001 61.6 21.8001 59.8 24.2001C63.8 25.2001 66.7 19.3001 66.7 19.3001L63.8 25.3001C65.3 26.1001 71.4 19.1001 71.4 19.1001C71.4 19.1001 68.3 24.6001 66.4 25.7001C67.4 26.5001 71.1 23.3001 71.1 23.3001C71.1 23.3001 68.2 26.9001 69.3 27.2001C70.9 28.5001 76.9 20.4001 76.9 20.4001C76.9 20.4001 74.6 25.2001 71.1 28.9001C74 30.3001 81.1 21.1001 81.1 21.1001C81.1 21.1001 80.9 24.0001 75.7 28.7001C79.6 28.2001 84.5 20.9001 84.5 20.9001C84.5 20.9001 82.7 26.4001 78.3 30.2001C82.1 29.8001 88.1 20.5001 88.1 20.5001C88.1 20.5001 85.8 27.0001 81 30.7001C86.3 31.9001 93.9 24.0001 93.9 24.0001C93.9 24.0001 90.9 29.6001 87 31.9001C91.4 33.6001 97.3 26.7001 97.3 26.7001C97.3 26.7001 91.3 35.9001 81.8 35.5001C78.7 35.4001 69.2 26.0001 49 26.8001C22.5 27.6001 16.8 38.9001 2.5 46.6001Z" fill="#363636"/>
<path d="M3.09998 45.5C18.2 30.4 30.3 25.7 41.2 23.6C42.6 23.3 42.9 20.2 42.9 20.2C42.9 20.2 43.1 22.5 44.1 22.8C45.1 23.1 46.4 19.2 46.4 19.2C46.4 19.2 45.2 22.7 46.4 23C47.6 23.2 49.8 19.6 49.8 19.6C49.8 19.6 48.9 22.7 49.5 22.9C50.1 23.1 53.2 18.3 53.2 18.3C53.2 18.3 51.4 21.4 53.1 21.7C54.8 22 57.3 19.6 57.3 19.6C57.3 19.6 55.3 21.8 56.2 22.2C60 23.5 63 18.6 63 18.6C63 18.6 62.3 20.7 60.5 23.1C64.5 24.1 67.4 18.2 67.4 18.2L64.5 24.2C66 25 72.1 18 72.1 18C72.1 18 69 23.5 67.1 24.6C68.1 25.4 71.8 22.2 71.8 22.2C71.8 22.2 68.9 25.8 70 26.1C71.6 27.4 77.6 19.3 77.6 19.3C77.6 19.3 75.3 24.1 71.8 27.8C74.7 29.2 81.8 20 81.8 20C81.8 20 81.6 22.9 76.4 27.6C80.3 27.1 85.2 19.8 85.2 19.8C85.2 19.8 83.4 25.3 79 29.1C82.8 28.7 88.8 19.4 88.8 19.4C88.8 19.4 86.5 25.9 81.7 29.6C87 30.8 94.6 22.9 94.6 22.9C94.6 22.9 91.6 28.5 87.7 30.8C92.1 32.5 98 25.6 98 25.6C98 25.6 92 34.8 82.5 34.4C79.4 34.3 69.9 24.9 49.7 25.7C23.1 26.4 17.4 37.8 3.09998 45.5Z" fill="#363636"/>
<path opacity="0.3" d="M2.09998 48.3001C10.1 52.3001 17.4 47.7001 26.6 50.3001C33.6 52.3001 42.1 54.7001 53.7 53.0001C65.3 51.3001 75.1 46.3001 79.9 37.3001C81.4 33.3001 87.4 38.2001 87.4 38.2001C87.4 38.2001 83 36.4001 83.1 37.2001C83.2 38.1001 89.6 41.1001 89.6 41.1001C89.6 41.1001 83.8 39.3001 84.1 40.6001C84.5 42.0001 91.4 47.4001 91.4 47.4001C91.4 47.4001 83.5 41.4001 82.9 42.2001C82.2 43.0001 86.2 46.3001 86.2 46.3001C86.2 46.3001 79.6 42.2001 77.2 43.4001C75.5 44.3001 84.1 49.9001 84.1 49.9001C84.1 49.9001 78.5 45.6001 77.2 46.8001C75.9 47.9001 83.5 57.0001 83.5 57.0001C83.5 57.0001 74.9 47.7001 74 48.1001C73.1 48.6001 76.4 53.0001 76.4 53.0001C76.4 53.0001 72.1 48.3001 71 49.1001C69.8 49.9001 77.1 62.0001 77.1 62.0001C77.1 62.0001 69.2 49.8001 66 51.9001C71.1 63.1001 69.2 64.7001 69.2 64.7001C69.2 64.7001 68.5 53.3001 62.2 53.6001C59 53.8001 63.7 62.1001 63.7 62.1001C63.7 62.1001 59.4 54.5001 56.5 54.6001C61.8 64.7001 59.9 68.8001 59.9 68.8001C59.9 68.8001 60.8 60.2001 53.6 55.4001C56.3 57.8001 51.9 68.8001 51.9 68.8001C51.9 68.8001 55.8 52.6001 49 55.7001C47.9 56.2001 48.9 63.8001 48.9 63.8001C48.9 63.8001 47.5 55.1001 45.5 55.6001C44.3 55.9001 37.9 67.6001 37.9 67.6001C37.9 67.6001 43.1 54.9001 41.6 55.4001C40.4 55.8001 38.3 61.0001 38.3 61.0001C38.3 61.0001 39.4 55.8001 38.3 55.5001C37.2 55.2001 31.3 61.0001 31.3 61.0001C31.3 61.0001 35.7 55.8001 34.9 54.8001C33.7 53.2001 32.4 53.1001 30.8 53.7001C28.5 54.6001 25.3 58.9001 25.3 58.9001C25.3 58.9001 28.4 54.6001 27.9 53.0001C27 50.4001 18 58.0001 18 58.0001C18 58.0001 23.3 53.0001 22.1 51.9001C20.9 50.8001 14.3 51.2001 12.2 51.2001C5.99998 51.2001 3.89998 49.7001 2.09998 48.3001Z" fill="#363636"/>
<path d="M1.79999 47.4002C9.79999 51.4002 17.1 46.8002 26.3 49.4002C33.3 51.4002 41.8 53.8002 53.4 52.1002C65 50.4002 74.8 45.4002 79.6 36.4002C81.1 32.4002 87.1 37.3002 87.1 37.3002C87.1 37.3002 82.7 35.5002 82.8 36.3002C82.9 37.2002 89.3 40.2002 89.3 40.2002C89.3 40.2002 83.5 38.4002 83.8 39.7002C84.2 41.1002 91.1 46.5002 91.1 46.5002C91.1 46.5002 83.2 40.5002 82.6 41.3002C81.9 42.1002 85.9 45.4002 85.9 45.4002C85.9 45.4002 79.3 41.3002 76.9 42.5002C75.2 43.4002 83.8 49.0002 83.8 49.0002C83.8 49.0002 78.2 44.7002 76.9 45.9002C75.6 47.0002 83.2 56.1002 83.2 56.1002C83.2 56.1002 74.6 46.8002 73.7 47.2002C72.8 47.7002 76.1 52.1002 76.1 52.1002C76.1 52.1002 71.8 47.4002 70.7 48.2002C69.5 49.0002 76.8 61.1002 76.8 61.1002C76.8 61.1002 68.9 48.9002 65.7 51.0002C70.8 62.2002 68.9 63.8002 68.9 63.8002C68.9 63.8002 68.2 52.4002 61.9 52.7002C58.7 52.9002 63.4 61.2002 63.4 61.2002C63.4 61.2002 59.1 53.6002 56.2 53.7002C61.5 63.8002 59.6 67.9002 59.6 67.9002C59.6 67.9002 60.5 59.3002 53.3 54.5002C56 56.9002 51.6 67.9002 51.6 67.9002C51.6 67.9002 55.5 51.7002 48.7 54.8002C47.6 55.3002 48.6 62.9002 48.6 62.9002C48.6 62.9002 47.2 54.2002 45.2 54.7002C44 55.0002 37.6 66.7002 37.6 66.7002C37.6 66.7002 42.8 54.0002 41.3 54.5002C40.1 54.9002 38 60.1002 38 60.1002C38 60.1002 39.1 54.9002 38 54.6002C36.9 54.3002 31 60.1002 31 60.1002C31 60.1002 35.4 54.9002 34.6 53.9002C33.4 52.3002 32.1 52.2002 30.5 52.8002C28 53.7002 24.9 58.0002 24.9 58.0002C24.9 58.0002 28 53.7002 27.5 52.1002C26.6 49.5002 17.6 57.1002 17.6 57.1002C17.6 57.1002 22.9 52.1002 21.7 51.0002C20.5 49.9002 13.9 50.3002 11.8 50.3002C5.69999 50.2002 3.59999 48.8002 1.79999 47.4002Z" fill="#363636"/>
</svg>
