<svg width="100" height="100" viewBox="0 0 100 100" fill="none" xmlns="http://www.w3.org/2000/svg">
<path fill-rule="evenodd" clip-rule="evenodd" d="M49.4 0C26.1 0 6.6 16 1.1 37.6C1 37.8 1 37.9 1 38.1C1 39.4 2.1 40.5 3.4 40.5H23.5C24.5 40.5 25.3 39.9 25.7 39.1C29.8 30.1 38.9 23.8 49.5 23.8C63.9 23.8 75.6 35.5 75.6 50C75.6 64.5 63.9 76.2 49.5 76.2C39 76.2 29.9 69.9 25.7 60.9C25.3 60.1 24.5 59.5 23.5 59.5H3.4C2.1 59.5 1 60.6 1 61.9C1 62.1 1 62.2 1.1 62.4C6.6 84 26.1 100 49.4 100C77 100 99.3 77.6 99.3 50C99.3 22.4 77 0 49.4 0ZM37.5 50C37.5 43.4 42.8 38.1 49.4 38.1C56 38.1 61.3 43.4 61.3 50C61.3 56.6 56 61.9 49.4 61.9C42.8 61.9 37.5 56.6 37.5 50Z" fill="black"/>
</svg>
