<svg width="100" height="100" viewBox="0 0 100 100" fill="none" xmlns="http://www.w3.org/2000/svg">
<g clip-path="url(#clip0_755_19984)">
<path d="M9.9 0H1.2C0.5 0 0 0.5 0 1.2V98.9C0 99.5 0.5 100.1 1.2 100.1H10C10.6 100.1 11.2 99.6 11.2 98.9V1.2C11.1 0.5 10.6 0 9.9 0Z" fill="#EDEDED"/>
<path d="M32.2 0H23.4C22.8 0 22.2 0.5 22.2 1.2V98.9C22.2 99.5 22.7 100.1 23.4 100.1H32.2C32.8 100.1 33.4 99.6 33.4 98.9V1.2C33.3 0.5 32.8 0 32.2 0Z" fill="#EDEDED"/>
<path d="M54.4 0H45.6C45 0 44.4 0.5 44.4 1.2V98.9C44.4 99.5 44.9 100.1 45.6 100.1H54.4C55 100.1 55.6 99.6 55.6 98.9V1.2C55.6 0.5 55 0 54.4 0Z" fill="#EDEDED"/>
<path d="M76.6 0H67.8C67.2 0 66.6 0.5 66.6 1.2V98.9C66.6 99.5 67.1 100.1 67.8 100.1H76.6C77.2 100.1 77.8 99.6 77.8 98.9V1.2C77.8 0.5 77.3 0 76.6 0Z" fill="#EDEDED"/>
<path d="M98.8 38.8999H90C89.4 38.8999 88.8 39.3999 88.8 40.0999V59.9999C88.8 60.5999 89.3 61.1999 90 61.1999H98.8C99.4 61.1999 100 60.6999 100 59.9999V40.0999C100 39.3999 99.5 38.8999 98.8 38.8999Z" fill="#EDEDED"/>
</g>
<defs>
<clipPath id="clip0_755_19984">
<rect width="100" height="100" fill="white"/>
</clipPath>
</defs>
</svg>
