<svg width="100" height="100" viewBox="0 0 100 100" fill="none" xmlns="http://www.w3.org/2000/svg">
<g clip-path="url(#clip0_755_19990)">
<path d="M50 0C22.4 0 0 22.4 0 50C0 77.6 22.4 100 50 100C77.6 100 100 77.6 100 50C100 22.4 77.6 0 50 0Z" fill="white"/>
<path d="M48.2 50.8999C47.8 51.8999 47.3 52.9999 46.7 54.0999C44.9 58.1999 42.8999 63.1999 42.0999 66.3999C41.7999 67.4999 41.7 68.9999 41.7 70.4999C41.7 71.0999 41.6999 71.7999 41.7999 72.3999C44.3999 73.2999 47.1 73.8999 50 73.8999C52.6 73.8999 55.2 73.4999 57.5 72.6999C56.9 72.1999 56.4 71.5999 55.9 70.9999C52.8 66.9999 51 60.9999 48.2 50.8999Z" fill="#B5B5B5"/>
<path d="M36.2999 30.6001C30.1999 34.9001 26.2 42.0001 26.2 50.1001C26.2 58.1001 30.0999 65.1001 36.0999 69.4001C37.5999 63.3001 41.1999 57.7001 46.7999 46.5001C46.5 45.6001 46.1 44.6001 45.7 43.6001C44.2 39.8001 42 35.3001 40 33.3001C38.9 32.2001 37.6999 31.3001 36.2999 30.6001Z" fill="#B5B5B5"/>
<path d="M70.9 77.4999C67.7 77.0999 65.1 76.5999 62.8 75.7999C59 77.6999 54.6 78.7999 50 78.7999C34.1 78.7999 21.3 65.9999 21.3 50.0999C21.3 41.4999 25.1 33.7999 31.1 28.4999C29.5 28.0999 27.8 27.8999 26.1 27.8999C17.7 27.9999 8.80005 32.5999 5.10005 45.1999C4.80005 46.9999 4.80005 48.3999 4.80005 50.0999C4.80005 75.0999 25 95.2999 50 95.2999C65.3 95.2999 78.8 87.6999 87 76.0999C82.6 77.1999 78.3 77.6999 74.7 77.6999C73.3 77.6999 72 77.5999 70.9 77.4999Z" fill="#8C8C8C"/>
<path d="M62.4 68.7001C62.7 68.8001 63.3 69.1001 64.2 69.3001C70.1 65.0001 74 58.0001 74 50.0001C74 36.8001 63.3 26.1001 50.1 26.1001C47.5 26.1001 45 26.5001 42.6 27.3001C47.5 32.8001 49.8 40.7001 52 49.4001C52 49.4001 52.7 51.8001 54 55.0001C55.2 58.2001 57 62.1001 58.9 65.0001C60.1 66.9001 61.4 68.3001 62.4 68.7001Z" fill="#B1B1B1"/>
<path d="M50 4.8999C34.9 4.8999 21.5 12.3999 13.3 23.7999C17.6 21.0999 21.9 20.1999 25.7 20.1999C31 20.1999 35.1 21.7999 37.1 22.9999C37.6 23.2999 38 23.5999 38.5 23.8999C42 22.2999 45.9 21.4999 50.1 21.4999C66 21.4999 78.8 34.3999 78.8 50.1999C78.8 58.1999 75.5001 65.3999 70.3001 70.5999C71.6001 70.6999 73 70.7999 74.4001 70.7999C79.4001 70.7999 84.8 69.6999 88.9 66.2999C91.5 64.0999 93.8 60.7999 95 55.8999C95.2 53.9999 95.4 52.0999 95.4 50.0999C95.2001 25.0999 75 4.8999 50 4.8999Z" fill="#7E7E7E"/>
</g>
<defs>
<clipPath id="clip0_755_19990">
<rect width="100" height="100" fill="white"/>
</clipPath>
</defs>
</svg>
