<svg width="100" height="100" viewBox="0 0 100 100" fill="none" xmlns="http://www.w3.org/2000/svg">
<path d="M51.8999 36.7002C58.3999 44.3002 61.0999 54.5002 59.0999 64.4002C69.2999 60.3002 73.2999 53.5002 74.4999 46.6002C74.4999 46.6002 77.9999 33.6002 83.3999 28.2002C72.7999 29.9002 71.7999 25.6002 51.8999 36.7002Z" fill="#868686"/>
<path d="M35.4999 49.9999C33.3999 43.3999 29.6999 37.2999 24.6999 32.3999C24.6999 32.3999 39.5999 36.2999 48.1999 64.1999C40.1999 61.7999 36.6999 53.7999 35.4999 49.9999ZM53.9999 68.1999C54.1999 66.8999 58.1999 53.3999 50.2999 42.3999C37.2999 27.8999 17.3999 25.8999 17.3999 25.8999C21.1999 33.3999 21.3999 40.3999 25.5999 54.5999C30.6999 69.2999 49.5999 70.2999 50.9999 70.3999C52.2999 72.3999 55.1999 75.0999 61.7999 76.4999L62.4999 72.9999C56.8999 71.6999 54.7999 69.3999 53.9999 68.1999Z" fill="#868686"/>
<path d="M19.6 21.6C11.2 25.6 7.9 35.1 7.9 49.8C7.9 64.2 11.2 73.9 19.6 78.1L18.7 81.7C5.8 77.2 0 67.2 0 49.9C0 32.4 5.8 22.4 18.6 18L19.6 21.6Z" fill="#1D1D1D"/>
<path d="M81.4 18C94.2 22.4 100 32.4 100 49.8C100 67.1 94.2 77.1 81.4 81.6L80.4 78C88.7 73.8 92 64.2 92 49.7C92 35 88.7 25.4 80.3 21.5L81.4 18Z" fill="#1D1D1D"/>
</svg>
