<svg width="100" height="100" viewBox="0 0 100 100" fill="none" xmlns="http://www.w3.org/2000/svg">
<g clip-path="url(#clip0_755_20011)">
<path d="M34.8 99.9999C22.9 97.2999 12.4 89.4999 9.10004 77.3999C5.80004 65.1999 10.3 52.9999 17.6 43.1999C21.3 38.2999 25.5 33.9999 30 29.7999C34.1 25.8999 38.7 22.3999 42.4 18.0999C46.3 13.6999 51.1 5.8999 47.4 -0.100098C54.1 4.8999 59.4 13.1999 58.5 21.6999C57.8 28.4999 52.7 35.4999 57.7 41.8999C60.8 45.8999 67.1 45.0999 69.5 41.1999L69.3 41.3999C69.7 40.7999 70 40.0999 70.2 39.2999C70.2 38.6999 70.1 37.9999 69.8 37.2999L70.4 37.5999C82.1 43.6999 91.5 54.2999 91.3 67.9999C90.9 84.9999 75.4 96.6999 60.3 99.9999C67.4 97.1999 73.8 91.5999 74.7 83.5999C75.5 76.1999 71.5 69.7999 66.2 65.0999C61.1 60.5999 55 57.6999 49.5 53.8999C46.3 51.6999 41.4 47.2999 43.2 42.7999C41 44.6999 39.2 47.3999 38.5 50.1999C37.1 55.8999 40.6 60.2999 44.3 64.2999C48 68.2999 47.7 75.0999 41.5 76.3999C38.8 76.9999 36 75.8999 34.4 73.6999C32.7 71.2999 33.1 68.8999 33.8 66.2999C28 70.3999 23.4 76.5999 23.4 83.9999C23.2 90.7999 28.8 97.3999 34.8 99.9999Z" fill="#737373"/>
</g>
<defs>
<clipPath id="clip0_755_20011">
<rect width="100" height="100" fill="white"/>
</clipPath>
</defs>
</svg>
