<svg width="102" height="102" viewBox="0 0 102 102" fill="none" xmlns="http://www.w3.org/2000/svg">
<g clip-path="url(#clip0_755_20008)">
<path d="M51 101C78.6 101 101 78.6 101 51C101 23.4 78.6 1 51 1C23.4 1 1 23.4 1 51C1 78.6 23.4 101 51 101Z" fill="white" fill-opacity="0.9651" stroke="white" stroke-width="0.378" stroke-linecap="round"/>
<path d="M84.0001 59.9002L59.9001 84.0002C59.8001 84.1002 59.7001 84.1002 59.6001 84.1002L26.7001 75.3002C26.6001 75.3002 26.5001 75.2002 26.5001 75.1002L17.6001 42.2002C17.6001 42.1002 17.6001 42.0002 17.7001 41.9002L41.8001 17.8002C41.9001 17.7002 42.0001 17.7002 42.1001 17.7002L75.0001 26.5002C75.1001 26.5002 75.2001 26.6002 75.2001 26.7002L84.0001 59.6002C84.2001 59.7002 84.1001 59.8002 84.0001 59.9002ZM51.7001 33.7002L19.3001 42.3002C19.3001 42.3002 19.2001 42.4002 19.3001 42.4002L43.0001 66.2002H43.1001L51.7001 33.7002C51.8001 33.8002 51.8001 33.7002 51.7001 33.7002Z" fill="black"/>
</g>
<defs>
<clipPath id="clip0_755_20008">
<rect width="102" height="102" fill="white"/>
</clipPath>
</defs>
</svg>
