<svg width="100" height="100" viewBox="0 0 100 100" fill="none" xmlns="http://www.w3.org/2000/svg">
<path d="M4.8 63.1999C3.6 58.9999 3 54.4999 3 49.9999C3 29.4999 15.9 10.6999 35 3.3999L37.5 9.8999C21.1 16.1999 10 32.3999 10 49.9999C10 53.8999 10.5 57.6999 11.5 61.3999L4.8 63.1999Z" fill="#AEAEAE"/>
<path d="M91.3999 30.2C83.9999 15.9 69.2999 7 53.0999 7C47.3999 7 41.7999 8.1 36.5999 10.3L33.8999 3.9C39.9999 1.3 46.4999 0 53.0999 0C71.8999 0 88.9999 10.3 97.5999 27L91.3999 30.2Z" fill="url(#paint0_linear_755_20039)"/>
<path d="M38.2001 39.6998C42.2001 39.6998 45.5 41.8998 47.2001 45.5998L47.3 45.8998L54.1 43.5998L54 43.1998C51.4 36.7998 45.3001 32.7998 38.2001 32.7998C33.2001 32.7998 29.1 34.3998 25.8 37.6998C22.5 40.9998 20.8 45.0998 20.8 49.9998C20.8 54.7998 22.5 58.8998 25.8 62.1998C29.2 65.4998 33.2001 67.0998 38.2001 67.0998C45.3001 67.0998 51.4 63.0998 54 56.6998L54.1 56.3998L47.3 54.0998L47.2001 54.3998C45.7001 58.0998 42.3001 60.2998 38.2001 60.2998C35.4001 60.2998 33 59.2998 31.1 57.3998C29.2001 55.3998 28.2001 52.9998 28.2001 50.0998C28.2001 47.1998 29.1 44.7998 31.1 42.6998C33 40.6998 35.3001 39.6998 38.2001 39.6998Z" fill="#1F1F1F"/>
<path d="M80.7 33.5L71 58L61.3 33.5H53.3L67 66.9L57.3 90.5L64.3001 91.9L88.3001 33.5H80.7Z" fill="#1F1F1F"/>
<path d="M58.5 87.5L56.7999 91.6C56.5 92.4 55.7 93 54.7999 93C54.2 93 53.5999 93 53.0999 93C33.0999 93 15.4 78.9 11 59.5L4.19995 61C6.69995 71.9 12.8 81.8 21.6 88.8C30.5 96 41.6 100 53 100H53.0999C53.7999 100 54.3999 100 55.0999 100C58.6999 99.8 61.9 97.6 63.2 94.3L65.4 88.9L58.5 87.5Z" fill="url(#paint1_linear_755_20039)"/>
<defs>
<linearGradient id="paint0_linear_755_20039" x1="47.932" y1="-3.2478" x2="85.9839" y2="37.4224" gradientUnits="userSpaceOnUse">
<stop offset="0.0939" stop-color="#A6A6A6"/>
<stop offset="0.9883" stop-color="#A6A6A6" stop-opacity="0"/>
</linearGradient>
<linearGradient id="paint1_linear_755_20039" x1="2.46855" y1="72.7416" x2="75.1653" y2="92.0909" gradientUnits="userSpaceOnUse">
<stop offset="0.0774" stop-color="#A6A6A6"/>
<stop offset="0.7617" stop-color="#1F1F1F"/>
</linearGradient>
</defs>
</svg>
