<svg width="100" height="100" viewBox="0 0 100 100" fill="none" xmlns="http://www.w3.org/2000/svg">
<g clip-path="url(#clip0_755_20021)">
<mask id="mask0_755_20021" style="mask-type:luminance" maskUnits="userSpaceOnUse" x="0" y="0" width="100" height="100">
<path d="M100 0H0V100H100V0Z" fill="white"/>
</mask>
<g mask="url(#mask0_755_20021)">
<path d="M26.9 27.0997L20.5 20.6997V66.9997L20.6 69.1997C20.6 70.1997 20.8 71.3997 21.1 72.4997L72 90.3997L84.7 84.7997L26.9 27.0997Z" fill="#878787"/>
<path d="M84.6 84.8L71.9 90.4L21.2 72.5C22.2 76.2 24.3 80.4 26.6 82.7L43.2 99.2L80.1 99.3L84.6 84.8Z" fill="#9C9C9C"/>
<path d="M20.6 20.6001L0.900003 50.5001C-0.699997 52.2001 0.100003 55.8001 2.7 58.6001L14.1 70.0001L21.2 72.5001C20.9 71.3001 20.7 70.1001 20.7 69.2001L20.6 67.0001V20.6001Z" fill="#5B5B5B"/>
<path d="M72.3 21.2001C71.1 20.9001 69.9 20.7001 69 20.7001L66.7 20.6001H20.5L84.7 84.8001L90.2 72.0001L72.3 21.2001Z" fill="#5B5B5B"/>
<path d="M82.5 26.5997C80.1 24.1997 76.1 22.0997 72.3 21.1997L90.2 71.9997L84.6 84.6997L98.4 80.2997V42.4997L82.5 26.5997Z" fill="#7C7C7C"/>
<path d="M69.8 14.0999L58.3 2.69991C55.7 0.0999115 52.1 -0.700089 50.2 0.899911L20.4 20.5999H66.6L68.9 20.6999C69.9 20.6999 71.1 20.8999 72.2 21.1999L69.8 14.0999Z" fill="#878787"/>
</g>
</g>
<defs>
<clipPath id="clip0_755_20021">
<rect width="100" height="100" fill="white"/>
</clipPath>
</defs>
</svg>
