<svg width="100" height="100" viewBox="0 0 100 100" fill="none" xmlns="http://www.w3.org/2000/svg">
<g clip-path="url(#clip0_755_20049)">
<mask id="mask0_755_20049" style="mask-type:luminance" maskUnits="userSpaceOnUse" x="0" y="0" width="100" height="100">
<path d="M100 0H0V100H100V0Z" fill="white"/>
</mask>
<g mask="url(#mask0_755_20049)">
<path fill-rule="evenodd" clip-rule="evenodd" d="M81.2 71L72.9 65.5L66 77.1L57.9 74.8L50.8 85.6L51.2 89L89.8 81.9L87.6 57.8L81.2 71ZM45.2 60.6L51.4 59.8C52.4 60.2 53.1 60.4 54.3 60.7C55.5 61.1 56.7 61.2 58 61.1C59.2 61 60.4 60.6 61.5 60C62.2 59.6 63.8 58.2 64.4 57.4L89.8 52.8L92.4 84.2L49 92L45.2 60.6ZM92.4 49.3L89.9 49.8L85 0L3 9.5L13.1 91.6L22.7 90.1C21.9 89 20.7 87.7 18.7 86C15.9 83.6 16.9 79.6 18.6 77.1C20.8 72.8 32.2 67.4 31.5 60.6C31.3 58.2 30.9 54.9 28.6 52.7C28.5 53.6 28.7 54.5 28.7 54.5C28.7 54.5 27.8 53.3 27.3 51.6C26.9 51 26.5 50.8 26 50C25.6 50.9 25.7 52.1 25.7 52.1C25.7 52.1 24.9 50.3 24.8 48.7C24.5 49.3 24.3 50 24.2 50.7C24.2 50.7 23.2 47.8 23.5 46.3C23 44.9 21.7 42.3 22 36.2C24.5 38 30 37.6 32.1 34.4C32.8 33.3 33.3 30.5 31.7 24.8C30.7 21.2 28.2 15.8 27.3 13.8L27.2 14C27.9 16.2 28.5 18.5 29.1 20.8C30.4 25.9 30.7 27.7 30.1 30C29.6 32 28.5 33.4 25.5 34.9C22.5 36.4 18.6 32.7 18.3 32.6C15.8 30.6 13.9 27.9 13 24.8C12.7 22.8 14.1 21.6 14.8 20C14.1 20.2 13.4 20.5 12.7 20.8C12.7 20.8 14.1 19.4 15.7 18.2C16.4 17.7 16.8 17.4 17.5 16.8H15.6C15.6 16.8 17.4 15.9 19.2 15.2C17.8 15.1 16.6 15.2 16.6 15.2C16.6 15.2 20.5 13.4 23.6 12.2C25.7 11.3 27.8 11.6 29 13.3C30.5 15.5 32.1 16.7 35.5 17.4C37.6 16.5 38.2 16 40.8 15.3C43.1 12.7 44.9 12.5 44.9 12.5C44.9 12.5 44 13.3 43.8 14.6C45.1 13.6 46.5 12.7 46.5 12.7C46.5 12.7 46 13.4 45.4 14.5L45.5 14.7C46.6 14.1 47.7 13.5 48.8 13.1L47.7 14.6C48.8 14.6 51.2 14.7 52.1 14.8C57.5 14.9 58.6 9.1 60.6 8.3C63.2 7.4 64.3 6.8 68.7 11.1C72.5 14.7 75.4 21.4 74 22.9C72.8 24.1 70.4 22.4 67.7 19.1C66.2 17.2 65.1 15 64.7 12.6C64.3 10.4 62.7 9.1 62.7 9.1C62.7 9.1 63.6 11.2 63.6 13.1C63.6 14.1 63.7 17.9 65.4 20.1C65.3 20.4 65.2 21.7 65 21.9C63.1 19.6 59 17.9 58.3 17.4C60.6 19.2 65.7 23.5 67.8 27.6C69.7 31.5 68.5 35 69.5 35.9C69.8 36.2 73.6 40.9 74.3 43.3C75.6 47.4 74.4 51.8 72.7 54.5L68.1 55.2C67.4 55 67 54.9 66.3 54.5C66.7 53.7 67.1 53 67.3 52.1L67 51.6C65.4 53.7 63.4 55.5 61.1 56.8C59.9 57.4 58.7 57.8 57.3 57.9C56 58 54.7 57.9 53.4 57.5C49 56 44.9 53.8 41.2 51C41.2 51 41.2 51.8 41.4 52C42.8 53.6 46 56.5 49.2 58.5L42.5 59.2L45.7 83.8C44.3 84 44.1 84.1 42.5 84.3C41.5 80.3 39.1 76.9 35.7 74.6C32.9 73 29.6 72.6 26.5 73.3L26.3 73.5C28.6 73.3 31.3 73.6 34 75.4C36.7 77.1 38.9 81.6 39.7 84.2C40.8 87.6 41.5 91.3 38.7 95.1C36.7 97.9 30.9 99.4 26.3 96.1C27.5 98.1 29.2 99.7 31.5 100C34.9 100.5 38.1 99.9 40.3 97.6C42.2 95.7 43.2 91.6 42.9 87.4L45.9 87L47 94.6L96.3 88.7L92.4 49.3ZM62.5 28.5C62.3 28.8 62.1 29 62.4 30V30.1L62.5 30.2L62.6 30.5C63.2 31.7 63.8 32.8 64.9 33.4C65.2 33.3 65.4 33.3 65.8 33.3C66.8 33.3 67.4 33.4 67.8 33.6V32.7C67.7 31.2 68.1 28.6 65.2 27.3C64.1 26.8 62.5 26.9 62 27.6L62.3 27.7C63.1 28 62.6 28.2 62.5 28.5ZM70.6 42.7C67.5 42.4 64.4 42.9 61.6 44.3C60.6 45.1 61.1 46.5 61.8 47C63.9 48.6 65.8 49.7 67.7 49.4C68.9 49.3 70 47.3 70.7 45.6C71.3 44.4 71.3 43.1 70.6 42.7ZM49.4 30.4C50.1 29.7 46 28.9 42.9 31C40.6 32.6 40.5 36 42.7 37.9L43.3 38.3C45.1 37.4 47.1 36.8 49.1 36.6C49.6 36.1 50.1 35.1 50 33.5C49.9 31.3 48.1 31.6 49.4 30.4Z" fill="#4A4A4A"/>
</g>
</g>
<defs>
<clipPath id="clip0_755_20049">
<rect width="100" height="100" fill="white"/>
</clipPath>
</defs>
</svg>
