<svg width="100" height="100" viewBox="0 0 100 100" fill="none" xmlns="http://www.w3.org/2000/svg">
<g clip-path="url(#clip0_755_20056)">
<path d="M50 0C77.6 0 100 22.4 100 50C100 77.6 77.6 100 50 100C22.4 100 0 77.6 0 50C0 22.4 22.4 0 50 0Z" fill="black"/>
<path d="M48.9 74.4999C47.6 74.1999 46.3 74.8999 45.9 76.1999V76.2999L42.6 88.5999V88.6999C42.3 89.9999 43.1 91.2999 44.3 91.5999C45.6 91.8999 46.9 91.1999 47.3 89.8999V89.7999L50.6 77.4999V77.3999C50.6 77.2999 50.6 77.1999 50.7 77.0999V76.9999L50.6 76.5999L50.5 75.9999L50.4 75.5999C50.2 75.2999 50 74.9999 49.8 74.7999C49.5 74.6999 49.2 74.5999 48.9 74.4999ZM25.7 61.7999C25.6 61.8999 25.6 61.9999 25.5 62.1999V62.2999L22.2 74.5999V74.6999C21.9 75.9999 22.7 77.2999 23.9 77.5999C25.2 77.8999 26.5 77.1999 26.9 75.8999V75.7999L29.9 64.5999C28.4 63.7999 27 62.8999 25.7 61.7999ZM17.8 47.5999C16.5 47.2999 15.2 47.9999 14.8 49.2999V49.3999L11.5 61.6999V61.7999C11.2 63.0999 12 64.3999 13.2 64.6999C14.5 64.9999 15.8 64.2999 16.2 62.9999V62.8999L19.5 50.5999V50.4999C19.9 49.2999 19.1 47.9999 17.8 47.5999ZM92.3 44.7999C91 44.4999 89.7 45.1999 89.3 46.4999V46.5999L86 58.8999V58.9999C85.7 60.2999 86.5 61.5999 87.7 61.8999C89 62.1999 90.3 61.4999 90.7 60.1999V60.0999L94 47.7999V47.6999C94.3 46.4999 93.6 45.1999 92.3 44.7999ZM10.6 28.3999C7.79999 33.4999 5.99999 38.9999 5.39999 44.7999C5.69999 45.1999 6.09999 45.3999 6.59999 45.4999C7.89999 45.7999 9.19999 45.0999 9.59999 43.7999V43.6999L12.9 31.3999V31.2999C13.2 29.9999 12.4 28.6999 11.2 28.3999C11 28.4999 10.8 28.3999 10.6 28.3999ZM83.9 28.4999C82.6 28.1999 81.3 28.8999 80.9 30.1999V30.2999L77.6 42.5999V42.6999C77.3 43.9999 78.1 45.2999 79.3 45.5999C80.6 45.8999 81.9 45.1999 82.3 43.8999V43.7999L85.6 31.4999V31.3999C85.9 30.1999 85.1 28.7999 83.9 28.4999Z" fill="white"/>
<path d="M25 16.7998C23.7 16.4998 22.4 17.1998 22 18.4998V18.5998L18.7 30.8998V30.9998C18.4 32.2998 19.2 33.5998 20.4 33.8998C21.7 34.1998 23 33.4998 23.4 32.1998V32.0998L26.7 19.7998V19.6998C27.1 18.4998 26.3 17.0998 25 16.7998ZM67.7 19.0998C66.4 18.7998 65.1 19.4998 64.7 20.7998V20.8998L62.5 29.1998C63.9 29.8998 65.3 30.7998 66.6 31.6998L66.8 31.8998L69.4 22.1998V22.0998C69.8 20.7998 69 19.4998 67.7 19.0998ZM46 5.2998C44.4 5.3998 42.9 5.6998 41.4 5.9998H41L37.9 17.4998V17.5998C37.6 18.8998 38.4 20.1998 39.6 20.4998C40.9 20.7998 42.2 20.0998 42.6 18.7998V18.6998L46 6.3998V6.2998C46.1 5.9998 46.1 5.5998 46 5.2998ZM76.5 13.7998L75.8 16.1998V16.2998C75.5 17.5998 76.3 18.8998 77.5 19.1998C78.8 19.4998 80.1 18.7998 80.5 17.4998V17.3998L80.6 17.0998C79.5 15.9998 78.2 14.9998 76.8 13.9998L76.5 13.7998ZM57.2 5.6998L56 9.9998V10.0998C55.7 11.3998 56.5 12.6998 57.7 12.9998C59 13.2998 60.3 12.5998 60.7 11.2998V11.1998L62 6.6998C60.5 6.2998 59.1 5.9998 57.6 5.6998H57.2Z" fill="white"/>
<path d="M32.3 82.1C32.7 80.8 34 80.1 35.3 80.4C36.6 80.7 37.3 82.1 37 83.3V83.4L34.6 92.2L34.3 92.1C32.9 91.6 31.5 91 30.1 90.3L32.3 82.1Z" fill="white"/>
<path d="M48 28.2998C33.5 28.2998 22.2 37.4998 22.2 48.7998C22.2 59.5998 32.6 66.3998 48.7 66.0998C50.1 66.0998 50.5 66.9998 50.9 68.1998C51.3 69.3998 52.5 75.9998 53.5 80.9998C54.4 85.4998 55.2 89.9998 55.9 94.4998C66.4 93.0998 76.2 87.8998 83.3 80.0998L75.7 51.6998C73.8 44.7998 71.6 38.4998 65.7 33.8998C61 30.1998 55 28.2998 48 28.2998Z" fill="white"/>
<path d="M51.2 36.5C52.9 36.5 54.3 37.9 54.3 39.6C54.3 41.3 52.9 42.7 51.2 42.7C49.5 42.7 48.1 41.3 48.1 39.6C48.1 37.9 49.4 36.5 51.2 36.5Z" fill="black"/>
</g>
<defs>
<clipPath id="clip0_755_20056">
<rect width="100" height="100" fill="white"/>
</clipPath>
</defs>
</svg>
