<svg width="100" height="100" viewBox="0 0 100 100" fill="none" xmlns="http://www.w3.org/2000/svg">
<path d="M74.2 55.1998C84 55.1998 91.9 47.8998 91.9 38.9998C91.9 29.9998 84 22.7998 74.2 22.7998C64.4 22.7998 56.5 30.0998 56.5 38.9998C56.5 47.9998 64.4 55.1998 74.2 55.1998Z" fill="#5C5C5C"/>
<path d="M94.3 26.4C97.4 26.4 100 24.1 100 21.2C100 18.3 97.5 16 94.3 16C91.2 16 88.6 18.3 88.6 21.2C88.6 24.1 91.2 26.4 94.3 26.4Z" fill="#5C5C5C"/>
<path d="M2.2 17.8002C1 17.9002 0 18.9002 0 20.1002L0.1 80.8002C0.1 81.7002 0.3 83.6002 2.9 83.6002L26.2 83.5002C32.8 83.5002 37.3 83.4002 40 83.0002C40 83.0002 40 83.0002 40.1 83.0002C42.6 82.6002 45.3 82.0002 48.2 81.0002C53.3 79.4002 57.8 77.1002 61.7 73.9002C65.5 70.9002 68.4 67.3002 70.5 63.2002C72.6 59.2002 73.6 54.9002 73.6 50.4002C73.6 44.2002 71.7 38.4002 68 33.3002C64.3 28.1002 59.1 24.1002 52.8 21.5002C46.3 19.0002 38 17.7002 27.6 17.7002H2.5C2.4 17.8002 2.3 17.8002 2.2 17.8002ZM15.7 30.3002H26.5C31.6 30.3002 35.2 30.4002 37.2 30.7002C39.3 31.0002 41.5 31.6002 43.9 32.5002C46.3 33.4002 48.4 34.5002 50.1 35.9002C55 39.7002 57.3 44.2002 57.3 50.2002C57.3 56.3002 55.1 61.1002 50.3 65.1002C48.8 66.3002 47.2 67.3002 45.4 68.2002C43.7 69.0002 41.5 69.7002 38.7 70.3002C36.1 70.8002 32 71.1002 26.8 71.1002H15.7V30.3002Z" fill="#5C5C5C"/>
</svg>
