<svg width="100" height="100" viewBox="0 0 100 100" fill="none" xmlns="http://www.w3.org/2000/svg">
<path fill-rule="evenodd" clip-rule="evenodd" d="M49.2 24.7998H92.3V42.1998H49.2V24.7998Z" fill="white"/>
<path fill-rule="evenodd" clip-rule="evenodd" d="M10.3 81.8002C6.5 81.8002 3.2 79.7002 1.4 76.7002C0.5 78.2002 0 80.0002 0 81.8002C0 87.4002 4.6 92.0002 10.3 92.0002H20.6V81.8002H10.3Z" fill="#959595"/>
<path fill-rule="evenodd" clip-rule="evenodd" d="M56.4 27.5998L92.3 25.3998V20.2998C92.3 14.5998 87.7 9.9998 82 9.9998H35.9L34.6 7.7998C34 6.7998 32.6 6.7998 32 7.7998L30.8 9.9998L29.5 7.7998C28.9 6.7998 27.5 6.7998 26.9 7.7998L25.6 9.9998L24.3 7.7998C23.7 6.7998 22.3 6.7998 21.7 7.7998L20.5 9.9998L18.4 7.8998C17.6 7.0998 16.2 7.4998 15.9 8.5998L15.2 11.1998L12.5 10.4998C11.4 10.1998 10.4 11.1998 10.7 12.2998L11.4 14.9998L8.8 15.6998C7.7 15.9998 7.3 17.3998 8.1 18.1998L10.2 20.2998L8 21.4998C7 22.0998 7 23.4998 8 24.0998L10.2 25.3998L8 26.5998C7 27.1998 7 28.5998 8 29.1998L10.2 30.4998L8 31.7998C7 32.3998 7 33.7998 8 34.3998L10.2 35.6998L8 36.8998C7 37.4998 7 38.8998 8 39.4998L10.2 40.7998L8 41.9998C7 42.5998 7 43.9998 8 44.5998L10.2 45.8998L8 47.0998C7 47.6998 7 49.0998 8 49.6998L10.2 50.9998L8 52.2998C7 52.8998 7 54.2998 8 54.8998L10.2 56.1998L8 57.3998C7 57.9998 7 59.3998 8 59.9998L10.2 61.2998L8 62.4998C7 63.0998 7 64.4998 8 65.0998L10.2 66.3998L8 67.6998C7 68.2998 7 69.6998 8 70.2998L10.2 71.5998L8 72.7998C7 73.3998 7 74.7998 8 75.3998L10.2 76.6998L8 77.8998C7 78.4998 7 79.8998 8 80.4998L10.2 81.7998C10.2 87.4998 14.8 92.0998 20.5 92.0998H82C87.7 92.0998 92.3 87.4998 92.3 81.7998V40.7998L56.4 38.5998C55 38.4998 53.7 37.8998 52.8 36.8998C51.8 35.8998 51.3 34.5998 51.3 33.1998C51.3 30.1998 53.5 27.7998 56.4 27.5998Z" fill="#959595"/>
<path fill-rule="evenodd" clip-rule="evenodd" d="M71.8 92H87.2V71.5H71.8V92Z" fill="#959595"/>
<path fill-rule="evenodd" clip-rule="evenodd" d="M97.4 79.1998C97.3 79.1998 97.2 79.1998 97.1 79.1998C97.1 79.0998 97.1 78.9998 97 78.9998C97.5 78.7998 98 78.3998 98.3 77.7998C98.6 77.2998 98.7 76.6998 98.6 76.0998C98.5 75.4998 98.2 74.9998 97.7 74.5998C97.2 74.1998 96.7 73.9998 96.1 73.9998C95.5 73.9998 95 74.1998 94.6 74.4998C94.5 74.3998 94.5 74.3998 94.4 74.2998C94.7 73.8998 94.9 73.2998 94.9 72.7998C94.9 72.1998 94.7 71.5998 94.3 71.1998C93.9 70.6998 93.4 70.3998 92.8 70.2998C92.2 70.1998 91.6 70.2998 91.1 70.4998C90.6 70.7998 90.2 71.1998 89.9 71.7998C89.8 71.7998 89.7 71.7998 89.7 71.6998C89.7 71.5998 89.7 71.4998 89.7 71.3998C89.7 70.6998 89.4 70.0998 88.9 69.5998C88.4 69.0998 87.8 68.7998 87.1 68.7998C86.4 68.7998 85.8 69.0998 85.3 69.5998C84.8 70.0998 84.5 70.6998 84.5 71.3998C84.5 71.4998 84.5 71.5998 84.5 71.6998C84.4 71.6998 84.3 71.6998 84.3 71.7998C84.1 71.2998 83.7 70.7998 83.1 70.4998C82.6 70.1998 82 70.0998 81.4 70.2998C80.8 70.3998 80.3 70.6998 79.9 71.1998C79.5 71.6998 79.3 72.1998 79.3 72.7998C79.3 73.3998 79.5 73.8998 79.8 74.2998C77.9 76.1998 76.7 78.7998 76.7 81.5998C76.7 87.2998 81.3 91.8998 87 91.8998C91.8 91.8998 95.8 88.5998 96.9 84.1998C97 84.1998 97.1 84.1998 97.2 84.1998C97.9 84.1998 98.5 83.8998 99 83.3998C99.5 82.8998 99.8 82.2998 99.8 81.5998C99.8 80.8998 99.5 80.2998 99 79.7998C98.8 79.4998 98.1 79.1998 97.4 79.1998Z" fill="#9E9E9E"/>
<path fill-rule="evenodd" clip-rule="evenodd" d="M76.9 61.2H92.3V51H76.9V61.2Z" fill="#959595"/>
<path fill-rule="evenodd" clip-rule="evenodd" d="M97.4 57.3998C97.7 57.3998 98.1 57.2998 98.3 56.9998C98.5 56.7998 98.7 56.3998 98.7 56.0998C98.7 55.7998 98.6 55.3998 98.3 55.1998C98.1 54.9998 97.7 54.7998 97.4 54.7998C97.3 54.7998 97.3 54.7998 97.2 54.7998V54.6998C97.5 54.5998 97.7 54.3998 97.8 54.0998C97.9 53.7998 98 53.4998 97.9 53.1998C97.8 52.8998 97.7 52.5998 97.5 52.4998C97.3 52.2998 97 52.1998 96.7 52.1998C96.4 52.1998 96.1 52.2998 95.9 52.4998L95.8 52.3998C96 52.1998 96.1 51.8998 96.1 51.5998C96.1 51.2998 96 50.9998 95.8 50.7998C95.6 50.5998 95.4 50.3998 95.1 50.3998C94.8 50.2998 94.5 50.3998 94.2 50.4998C93.9 50.5998 93.7 50.8998 93.6 51.0998C93.2 50.9998 92.7 50.8998 92.2 50.8998C89.4 50.8998 87.1 53.1998 87.1 55.9998C87.1 58.7998 89.4 61.0998 92.2 61.0998C92.7 61.0998 93.1 60.9998 93.6 60.8998C93.7 61.1998 93.9 61.3998 94.2 61.4998C94.5 61.5998 94.8 61.6998 95.1 61.5998C95.4 61.4998 95.6 61.3998 95.8 61.1998C96 60.9998 96.1 60.6998 96.1 60.3998C96.1 60.0998 96 59.7998 95.8 59.5998L95.9 59.4998C96.1 59.6998 96.4 59.7998 96.7 59.7998C97 59.7998 97.3 59.6998 97.5 59.4998C97.7 59.2998 97.9 59.0998 97.9 58.7998C98 58.4998 97.9 58.1998 97.8 57.8998C97.7 57.5998 97.4 57.3998 97.2 57.2998V57.1998C97.3 57.3998 97.4 57.3998 97.4 57.3998Z" fill="#9E9E9E"/>
<path fill-rule="evenodd" clip-rule="evenodd" d="M30.8 26.5999C30.5 26.5999 30.1 26.4999 29.9 26.1999C29.7 25.8999 29.5 25.5999 29.5 25.2999C29.5 23.1999 27.8001 21.4999 25.7001 21.4999C23.6001 21.4999 21.9 23.1999 21.9 25.2999C21.9 25.5999 21.8 25.9999 21.5 26.1999C21.3 26.3999 20.9 26.5999 20.6 26.5999C20.3001 26.5999 19.9001 26.4999 19.7001 26.1999C19.5001 25.9999 19.3 25.5999 19.3 25.2999C19.3 21.7999 22.2001 18.8999 25.7001 18.8999C29.2001 18.8999 32.1 21.7999 32.1 25.2999C32.1 25.5999 32.0001 25.9999 31.7001 26.1999C31.4001 26.3999 31.1 26.5999 30.8 26.5999Z" fill="black"/>
<path fill-rule="evenodd" clip-rule="evenodd" d="M51.2999 91.9999H82.0999C87.7999 91.9999 92.4 87.3999 92.4 81.6999V45.8999H61.5C55.8 45.8999 51.2 50.4999 51.2 56.1999V91.9999H51.2999Z" fill="#ECECEC"/>
<path fill-rule="evenodd" clip-rule="evenodd" d="M84.6 61.7998H59C58.9 61.7998 58.7 61.6998 58.6 61.5998C58.5 61.4998 58.4 61.3998 58.4 61.1998C58.4 61.0998 58.5 60.8998 58.6 60.7998C58.7 60.6998 58.8 60.5998 59 60.5998H84.7C84.8 60.5998 85 60.6998 85.1 60.7998C85.2 60.8998 85.3 60.9998 85.3 61.1998C85.3 61.2998 85.2 61.4998 85.1 61.5998C84.9 61.6998 84.8 61.7998 84.6 61.7998ZM84.6 71.9998H59C58.9 71.9998 58.7 71.8998 58.6 71.7998C58.5 71.6998 58.4 71.5998 58.4 71.3998C58.4 71.2998 58.5 71.0998 58.6 70.9998C58.7 70.9998 58.8 70.9998 59 70.9998H84.7C84.8 70.9998 85 71.0998 85.1 71.1998C85.2 71.2998 85.3 71.3998 85.3 71.5998C85.3 71.6998 85.2 71.8998 85.1 71.9998C84.9 71.9998 84.8 71.9998 84.6 71.9998ZM84.6 82.2998H59C58.9 82.2998 58.7 82.1998 58.6 82.0998C58.5 81.9998 58.4 81.8998 58.4 81.6998C58.4 81.5998 58.5 81.3998 58.6 81.2998C58.7 81.1998 58.8 81.0998 59 81.0998H84.7C84.8 81.0998 85 81.1998 85.1 81.2998C85.2 81.3998 85.3 81.4998 85.3 81.6998C85.3 81.7998 85.2 81.9998 85.1 82.0998C84.9 82.1998 84.8 82.2998 84.6 82.2998ZM84.6 56.6998H59C58.9 56.6998 58.7 56.5998 58.6 56.4998C58.5 56.3998 58.4 56.2998 58.4 56.0998C58.4 55.8998 58.5 55.7998 58.6 55.6998C58.7 55.5998 58.8 55.4998 59 55.4998H84.7C84.8 55.4998 85 55.5998 85.1 55.6998C85.2 55.7998 85.3 55.8998 85.3 56.0998C85.3 56.2998 85.2 56.3998 85.1 56.4998C84.9 56.6998 84.8 56.6998 84.6 56.6998ZM84.6 66.8998H59C58.9 66.8998 58.7 66.7998 58.6 66.6998C58.5 66.5998 58.4 66.4998 58.4 66.2998C58.4 66.0998 58.5 65.9998 58.6 65.8998C58.7 65.7998 58.8 65.6998 59 65.6998H84.7C84.8 65.6998 85 65.7998 85.1 65.8998C85.2 65.9998 85.3 66.0998 85.3 66.2998C85.3 66.4998 85.2 66.5998 85.1 66.6998C84.9 66.7998 84.8 66.8998 84.6 66.8998ZM84.6 77.0998H59C58.9 77.0998 58.7 76.9998 58.6 76.8998C58.5 76.7998 58.4 76.6998 58.4 76.4998C58.4 76.2998 58.5 76.1998 58.6 76.0998C58.7 75.9998 58.8 75.8998 59 75.8998H84.7C84.8 75.8998 85 75.9998 85.1 76.0998C85.2 76.1998 85.3 76.2998 85.3 76.4998C85.3 76.6998 85.1 76.8998 85 76.9998C84.9 77.0998 84.8 77.0998 84.6 77.0998ZM92.3 29.7998C90.7 29.8998 89.9 31.3998 89.3 32.7998C88.6 34.2998 88.1 35.1998 87.2 35.1998C86.2 35.1998 85.7 34.0998 85.1 32.8998C84.4 31.5998 83.7 30.0998 82 30.0998C80.4 30.1998 79.7 31.4998 79 32.6998C78.3 33.9998 77.8 34.7998 76.9 34.6998C75.9 34.6998 75.4 33.7998 74.8 32.6998C74.1 31.5998 73.3 30.2998 71.8 30.2998C70.3 30.3998 69.5 31.4998 68.8 32.5998C68.1 33.6998 67.6 34.3998 66.7 34.2998C65.7 34.2998 65.2 33.4998 64.6 32.6998C63.9 31.6998 63.2 30.6998 61.6 30.6998C60.1 30.7998 59.3 31.6998 58.7 32.5998C58.1 33.3998 57.6 33.9998 56.5 33.9998C56.4 33.9998 56.2 33.9998 56.1 34.0998C56 34.1998 55.9 34.2998 55.9 34.4998C55.9 34.5998 55.9 34.7998 56 34.8998C56.1 34.9998 56.2 35.0998 56.4 35.0998C57.9 35.1998 58.7 34.1998 59.4 33.2998C60 32.4998 60.5 31.8998 61.6 31.7998C62.6 31.7998 63.1 32.3998 63.8 33.3998C64.5 34.2998 65.2 35.3998 66.7 35.4998C68.3 35.5998 69.1 34.3998 69.7 33.2998C70.3 32.3998 70.8 31.4998 71.8 31.4998C72.7 31.4998 73.2 32.1998 73.9 33.3998C74.6 34.4998 75.3 35.7998 76.9 35.8998C78.5 35.9998 79.3 34.5998 80 33.2998C80.6 32.1998 81.1 31.1998 82.1 31.1998C83 31.1998 83.5 31.9998 84.2 33.3998C84.9 34.6998 85.6 36.1998 87.2 36.1998H87.3C88.9 36.1998 89.6 34.5998 90.3 33.1998C90.9 31.9998 91.4 30.7998 92.4 30.7998V29.7998H92.3Z" fill="black"/>
<path fill-rule="evenodd" clip-rule="evenodd" d="M41 92H61.5V71.5H41V92Z" fill="#959595"/>
<path d="M92.2 38.8002L52.3 49.5002C51.8 49.6002 51.4 50.2002 51.6 50.8002L55.5 65.3002C55.6 65.8002 56.2 66.2002 56.8 66.0002L96.7 55.3002C97.2 55.2002 97.6 54.6002 97.4 54.0002L93.5 39.5002C93.3 39.0002 92.7 38.6002 92.2 38.8002Z" fill="#D8D8D8"/>
<path d="M64.3 57.3999L62.9 57.7999C62.6 57.8999 62.5 58.1999 62.5 58.3999L62.9 59.7999C63 60.0999 63.3 60.1999 63.5 60.1999L64.9 59.7999C65.2 59.6999 65.3 59.3999 65.3 59.1999L65 57.7999C64.9 57.4999 64.6 57.3999 64.3 57.3999Z" fill="#4A4A4A"/>
<path d="M67.2 56.6999L65.8 57.0999C65.5 57.1999 65.4 57.4999 65.4 57.6999L65.8 59.0999C65.9 59.3999 66.2 59.4999 66.4 59.4999L67.8 59.0999C68.1 58.9999 68.2 58.6999 68.2 58.4999L67.8 56.9999C67.8 56.7999 67.5 56.5999 67.2 56.6999Z" fill="#4A4A4A"/>
<path d="M70.1 55.9L68.7 56.3C68.4 56.4 68.3 56.7 68.3 56.9L68.7 58.3C68.8 58.6 69.1 58.7 69.3 58.7L70.7 58.3C71 58.2 71.1 57.9 71.1 57.7L70.7 56.3C70.6 56 70.3 55.8 70.1 55.9Z" fill="#4A4A4A"/>
<path d="M72.9 55.1001L71.5 55.5001C71.2 55.6001 71.1 55.9001 71.1 56.1001L71.5 57.5001C71.6 57.8001 71.9 57.9001 72.1 57.9001L73.5 57.5001C73.8 57.4001 73.9 57.1001 73.9 56.9001L73.5 55.5001C73.5 55.2001 73.2 55.1001 72.9 55.1001Z" fill="#4A4A4A"/>
<path d="M75.8 54.4L74.4 54.8C74.1 54.9 74 55.2 74 55.4L74.4 56.8C74.5 57.1 74.8 57.2 75 57.2L76.4 56.8C76.7 56.7 76.8 56.4 76.8 56.2L76.4 54.8C76.4 54.5 76.1 54.3 75.8 54.4Z" fill="#4A4A4A"/>
<path d="M78.7 53.6002L77.2 54.0002C76.9 54.1002 76.8 54.4002 76.8 54.6002L77.2 56.0002C77.3 56.3002 77.6 56.4002 77.8 56.4002L79.2 56.0002C79.5 55.9002 79.6 55.6002 79.6 55.4002L79.3 54.0002C79.2 53.7002 78.9 53.5002 78.7 53.6002Z" fill="#4A4A4A"/>
<path d="M81.5 52.7998L80.1 53.1998C79.8 53.2998 79.7 53.5998 79.7 53.7998L80.1 55.1998C80.2 55.4998 80.5 55.5998 80.7 55.5998L82.1 55.1998C82.4 55.0998 82.5 54.7998 82.5 54.5998L82.1 53.1998C82.1 52.8998 81.8 52.7998 81.5 52.7998Z" fill="#4A4A4A"/>
<path d="M84.4 52.0998L83 52.3998C82.7 52.4998 82.6 52.7998 82.6 52.9998L83 54.3998C83.1 54.6998 83.4 54.7998 83.6 54.7998L85 54.3998C85.3 54.2998 85.4 53.9998 85.4 53.7998L85 52.3998C85 52.1998 84.7 51.9998 84.4 52.0998Z" fill="#4A4A4A"/>
<path d="M87.3 51.2999L85.9 51.6999C85.6 51.7999 85.5 52.0999 85.5 52.2999L85.9 53.6999C86 53.9999 86.3 54.0999 86.5 54.0999L87.9 53.6999C88.2 53.5999 88.3 53.2999 88.3 53.0999L87.9 51.6999C87.8 51.3999 87.5 51.1999 87.3 51.2999Z" fill="#4A4A4A"/>
<path fill-rule="evenodd" clip-rule="evenodd" d="M55.3 59.8998L61.4 58.2998C61.5 58.2998 61.7 58.2998 61.8 58.3998C61.9 58.4998 62 58.5998 62 58.6998L62.4 60.0998C62.4 60.1998 62.4 60.3998 62.3 60.4998C62.2 60.5998 62.1 60.6998 62 60.6998L55.9 62.2998C55.8 62.2998 55.6 62.2998 55.5 62.1998C55.4 62.0998 55.3 61.9998 55.3 61.8998L54.9 60.4998C54.9 60.3998 54.9 60.1998 55 60.0998C55.1 59.9998 55.2 59.8998 55.3 59.8998ZM88.8 50.8998L94.9 49.2998C95 49.2998 95.2 49.2998 95.3 49.3998C95.4 49.4998 95.5 49.5998 95.5 49.6998L95.9 51.0998C95.9 51.1998 95.9 51.3998 95.8 51.4998C95.7 51.5998 95.6 51.6998 95.5 51.6998L89.4 53.2998C89.3 53.2998 89.1 53.2998 89 53.1998C88.9 53.0998 88.8 52.9998 88.8 52.8998L88.4 51.4998C88.4 51.3998 88.4 51.1998 88.5 51.0998C88.6 50.9998 88.7 50.8998 88.8 50.8998Z" fill="#4A4A4A"/>
<path fill-rule="evenodd" clip-rule="evenodd" d="M53.7001 54.1L56 53.5C56.1 53.5 56.3001 53.5 56.4001 53.6C56.5001 53.7 56.6 53.8 56.6 53.9L57 55.3C57 55.4 57.0001 55.6 56.9001 55.7C56.8001 55.8 56.7 55.9 56.6 55.9L54.3 56.5C54.2 56.5 54.0001 56.5 53.9001 56.4C53.8001 56.3 53.7001 56.2 53.7001 56.1L53.3 54.7C53.3 54.6 53.3001 54.4 53.4001 54.3C53.5001 54.2 53.6001 54.1 53.7001 54.1Z" fill="#4A4A4A"/>
<path d="M58.9 52.6999L57.5 53.0999C57.2 53.1999 57.1 53.4999 57.1 53.6999L57.5 55.0999C57.6 55.3999 57.9 55.4999 58.1 55.4999L59.5 55.0999C59.8 54.9999 59.9 54.6999 59.9 54.4999L59.6 52.9999C59.5 52.7999 59.2 52.5999 58.9 52.6999Z" fill="#4A4A4A"/>
<path d="M61.8 51.9L60.4 52.3C60.1 52.4 60 52.7 60 52.9L60.4 54.3C60.5 54.6 60.8 54.7 61 54.7L62.4 54.3C62.7 54.2 62.8 53.9 62.8 53.7L62.4 52.3C62.4 52 62.1 51.8 61.8 51.9Z" fill="#4A4A4A"/>
<path d="M64.7 51.2001L63.3 51.6001C63 51.7001 62.9 52.0001 62.9 52.2001L63.3 53.6001C63.4 53.9001 63.7 54.0001 63.9 54.0001L65.3 53.6001C65.6 53.5001 65.7 53.2001 65.7 53.0001L65.3 51.6001C65.2 51.2001 64.9 51.1001 64.7 51.2001Z" fill="#4A4A4A"/>
<path d="M67.5 50.4L66.1 50.8C65.8 50.9 65.7 51.2 65.7 51.4L66.1 52.8C66.2 53.1 66.5 53.2 66.7 53.2L68.1 52.8C68.4 52.7 68.5 52.4 68.5 52.2L68.1 50.8C68.1 50.5 67.8 50.3 67.5 50.4Z" fill="#4A4A4A"/>
<path d="M70.4 49.6002L69 50.0002C68.7 50.1002 68.6 50.4002 68.6 50.6002L69 52.0002C69.1 52.3002 69.4 52.4002 69.6 52.4002L71 52.0002C71.3 51.9002 71.4 51.6002 71.4 51.4002L71 50.0002C71 49.7002 70.7 49.5002 70.4 49.6002Z" fill="#4A4A4A"/>
<path d="M73.3 48.7998L71.9 49.1998C71.6 49.2998 71.5 49.5998 71.5 49.7998L71.9 51.1998C72 51.4998 72.3 51.5998 72.5 51.5998L73.9 51.1998C74.2 51.0998 74.3 50.7998 74.3 50.5998L73.9 49.1998C73.8 48.8998 73.5 48.7998 73.3 48.7998Z" fill="#4A4A4A"/>
<path d="M76.1 48.1002L74.7 48.5002C74.4 48.6002 74.3 48.9002 74.3 49.1002L74.7 50.5002C74.8 50.8002 75.1 50.9002 75.3 50.9002L76.7 50.5002C77 50.4002 77.1 50.1002 77.1 49.9002L76.7 48.5002C76.7 48.2002 76.4 48.0002 76.1 48.1002Z" fill="#4A4A4A"/>
<path d="M79 47.2999L77.6 47.6999C77.3 47.7999 77.2 48.0999 77.2 48.2999L77.6 49.6999C77.7 49.9999 78 50.0999 78.2 50.0999L79.6 49.6999C79.9 49.5999 80 49.2999 80 49.0999L79.6 47.6999C79.6 47.3999 79.3 47.1999 79 47.2999Z" fill="#4A4A4A"/>
<path d="M81.9 46.5L80.5 46.9C80.2 47 80.1 47.3 80.1 47.5L80.5 48.9C80.6 49.2 80.9 49.3 81.1 49.3L82.5 48.9C82.8 48.8 82.9 48.5 82.9 48.3L82.5 46.9C82.4 46.6 82.1 46.5 81.9 46.5Z" fill="#4A4A4A"/>
<path d="M84.7 45.7999L83.3 46.1999C83 46.2999 82.9 46.5999 82.9 46.7999L83.3 48.1999C83.4 48.4999 83.7 48.5999 83.9 48.5999L85.3 48.1999C85.6 48.0999 85.7 47.7999 85.7 47.5999L85.3 46.1999C85.3 45.8999 85 45.6999 84.7 45.7999Z" fill="#4A4A4A"/>
<path d="M87.6 45.0001L86.2 45.4001C85.9 45.5001 85.8 45.8001 85.8 46.0001L86.2 47.4001C86.3 47.7001 86.6 47.8001 86.8 47.8001L88.2 47.4001C88.5 47.3001 88.6 47.0001 88.6 46.8001L88.2 45.4001C88.2 45.1001 87.9 44.9001 87.6 45.0001Z" fill="#4A4A4A"/>
<path d="M90.5 44.2002L89 44.6002C88.7 44.7002 88.6 45.0002 88.6 45.2002L89 46.6002C89.1 46.9002 89.4 47.0002 89.6 47.0002L91 46.6002C91.3 46.5002 91.4 46.2002 91.4 46.0002L91 44.6002C91 44.3002 90.7 44.2002 90.5 44.2002Z" fill="#4A4A4A"/>
<path d="M93.3 43.5002L91.9 43.9002C91.6 44.0002 91.5 44.3002 91.5 44.5002L91.9 45.9002C92 46.2002 92.3 46.3002 92.5 46.3002L93.9 45.9002C94.2 45.8002 94.3 45.5002 94.3 45.3002L94 43.8002C93.9 43.6002 93.6 43.4002 93.3 43.5002Z" fill="#4A4A4A"/>
<path fill-rule="evenodd" clip-rule="evenodd" d="M93.2 43.0998L90.9 43.6998C90.8 43.6998 90.6 43.6998 90.5 43.5998C90.4 43.4998 90.3 43.3998 90.3 43.2998L89.9 41.9998C89.9 41.8998 89.9 41.6998 90 41.5998C90.1 41.4998 90.2 41.3998 90.3 41.3998L92.6 40.7998C92.7 40.7998 92.9 40.7998 93 40.8998C93.1 40.9998 93.2 41.0998 93.2 41.1998L93.6 42.5998C93.6 42.6998 93.6 42.8998 93.5 42.9998C93.5 42.9998 93.4 43.0998 93.2 43.0998Z" fill="#4A4A4A"/>
<path d="M88.1 44.5002L89.5 44.1002C89.8 44.0002 89.9 43.7002 89.9 43.5002L89.5 42.1002C89.4 41.8002 89.1 41.7002 88.9 41.7002L87.5 42.1002C87.2 42.2002 87.1 42.5002 87.1 42.7002L87.5 44.1002C87.5 44.4002 87.8 44.6002 88.1 44.5002Z" fill="#4A4A4A"/>
<path d="M85.2 45.3L86.6 44.9C86.9 44.8 87 44.5 87 44.3L86.6 42.9C86.5 42.6 86.2 42.5 86 42.5L84.6 42.9C84.3 43 84.2 43.3 84.2 43.5L84.6 44.9C84.6 45.2 84.9 45.4 85.2 45.3Z" fill="#4A4A4A"/>
<path d="M82.3 46.0998L83.7 45.6998C84 45.5998 84.1 45.2998 84.1 45.0998L83.7 43.6998C83.6 43.3998 83.3 43.2998 83.1 43.2998L81.7 43.6998C81.4 43.7998 81.3 44.0998 81.3 44.2998L81.7 45.6998C81.8 45.9998 82 46.0998 82.3 46.0998Z" fill="#4A4A4A"/>
<path d="M79.5 46.8L80.9 46.4C81.2 46.3 81.3 46 81.3 45.8L80.9 44.4C80.8 44.1 80.5 44 80.3 44L78.9 44.4C78.6 44.5 78.5 44.8 78.5 45L78.9 46.4C78.9 46.8 79.2 46.9 79.5 46.8Z" fill="#4A4A4A"/>
<path d="M76.6 47.5998L78 47.1998C78.3 47.0998 78.4 46.7998 78.4 46.5998L78 45.1998C77.9 44.8998 77.6 44.7998 77.4 44.7998L76 45.1998C75.7 45.2998 75.6 45.5998 75.6 45.7998L76 47.1998C76 47.4998 76.3 47.6998 76.6 47.5998Z" fill="#4A4A4A"/>
<path d="M73.7 48.4001L75.1 48.0001C75.4 47.9001 75.5 47.6001 75.5 47.4001L75.1 46.0001C75 45.7001 74.7 45.6001 74.5 45.6001L73.1 46.0001C72.8 46.1001 72.7 46.4001 72.7 46.6001L73.1 48.0001C73.2 48.3001 73.4 48.5001 73.7 48.4001Z" fill="#4A4A4A"/>
<path d="M70.9 49.0998L72.3 48.6998C72.6 48.5998 72.7 48.2998 72.7 48.0998L72.3 46.6998C72.2 46.3998 71.9 46.2998 71.7 46.2998L70.3 46.6998C70 46.7998 69.9 47.0998 69.9 47.2998L70.3 48.6998C70.3 49.0998 70.6 49.1998 70.9 49.0998Z" fill="#4A4A4A"/>
<path d="M68 49.9001L69.4 49.5001C69.7 49.4001 69.8 49.1001 69.8 48.9001L69.4 47.5001C69.3 47.2001 69 47.1001 68.8 47.1001L67.4 47.5001C67.1 47.6001 67 47.9001 67 48.1001L67.4 49.5001C67.4 49.8001 67.7 50.0001 68 49.9001Z" fill="#4A4A4A"/>
<path d="M65.1 50.6999L66.5 50.2999C66.8 50.1999 66.9 49.8999 66.9 49.6999L66.5 48.2999C66.4 47.9999 66.1 47.8999 65.9 47.8999L64.5 48.2999C64.2 48.3999 64.1 48.6999 64.1 48.8999L64.5 50.2999C64.6 50.5999 64.8 50.7999 65.1 50.6999Z" fill="#4A4A4A"/>
<path d="M62.2999 51.4001L63.7 51.0001C64 50.9001 64.0999 50.6001 64.0999 50.4001L63.7 49.0001C63.6 48.7001 63.2999 48.6001 63.0999 48.6001L61.5999 49.0001C61.2999 49.1001 61.2 49.4001 61.2 49.6001L61.5999 51.0001C61.6999 51.4001 61.9999 51.5001 62.2999 51.4001Z" fill="#4A4A4A"/>
<path d="M59.4 52.1999L60.8 51.7999C61.1 51.6999 61.2 51.3999 61.2 51.1999L60.8 49.7999C60.7 49.4999 60.4 49.3999 60.2 49.3999L58.8 49.7999C58.5 49.8999 58.4 50.1999 58.4 50.3999L58.8 51.7999C58.8 52.0999 59.1 52.2999 59.4 52.1999Z" fill="#4A4A4A"/>
<path d="M56.5 53.0002L57.9 52.6002C58.2 52.5002 58.3 52.2002 58.3 52.0002L57.9 50.6002C57.8 50.3002 57.5 50.2002 57.3 50.2002L55.9 50.6002C55.6 50.7002 55.5 51.0002 55.5 51.2002L55.9 52.6002C56 52.9002 56.2 53.1002 56.5 53.0002Z" fill="#4A4A4A"/>
<path d="M53.7 53.7999L55.1 53.3999C55.4 53.2999 55.5 52.9999 55.5 52.7999L55.1 51.3999C55 50.9999 54.7 50.8999 54.4 50.9999L53 51.2999C52.7 51.3999 52.6 51.6999 52.6 51.8999L53 53.2999C53.1 53.6999 53.4 53.7999 53.7 53.7999Z" fill="#4A4A4A"/>
<path d="M88.1 44.5002L89.5 44.1002C89.8 44.0002 89.9 43.7002 89.9 43.5002L89.5 42.1002C89.4 41.8002 89.1 41.7002 88.9 41.7002L87.5 42.1002C87.2 42.2002 87.1 42.5002 87.1 42.7002L87.5 44.1002C87.5 44.4002 87.8 44.6002 88.1 44.5002Z" fill="#4A4A4A"/>
<path d="M85.2 45.3L86.6 44.9C86.9 44.8 87 44.5 87 44.3L86.6 42.9C86.5 42.6 86.2 42.5 86 42.5L84.6 42.9C84.3 43 84.2 43.3 84.2 43.5L84.6 44.9C84.6 45.2 84.9 45.4 85.2 45.3Z" fill="#4A4A4A"/>
<path d="M82.3 46.0998L83.7 45.6998C84 45.5998 84.1 45.2998 84.1 45.0998L83.7 43.6998C83.6 43.3998 83.3 43.2998 83.1 43.2998L81.7 43.6998C81.4 43.7998 81.3 44.0998 81.3 44.2998L81.7 45.6998C81.8 45.9998 82 46.0998 82.3 46.0998Z" fill="#4A4A4A"/>
<path d="M79.5 46.8L80.9 46.4C81.2 46.3 81.3 46 81.3 45.8L80.9 44.4C80.8 44.1 80.5 44 80.3 44L78.9 44.4C78.6 44.5 78.5 44.8 78.5 45L78.9 46.4C78.9 46.8 79.2 46.9 79.5 46.8Z" fill="#4A4A4A"/>
<path d="M76.6 47.5998L78 47.1998C78.3 47.0998 78.4 46.7998 78.4 46.5998L78 45.1998C77.9 44.8998 77.6 44.7998 77.4 44.7998L76 45.1998C75.7 45.2998 75.6 45.5998 75.6 45.7998L76 47.1998C76 47.4998 76.3 47.6998 76.6 47.5998Z" fill="#4A4A4A"/>
<path d="M73.7 48.4001L75.1 48.0001C75.4 47.9001 75.5 47.6001 75.5 47.4001L75.1 46.0001C75 45.7001 74.7 45.6001 74.5 45.6001L73.1 46.0001C72.8 46.1001 72.7 46.4001 72.7 46.6001L73.1 48.0001C73.2 48.3001 73.4 48.5001 73.7 48.4001Z" fill="#4A4A4A"/>
<path d="M70.9 49.0998L72.3 48.6998C72.6 48.5998 72.7 48.2998 72.7 48.0998L72.3 46.6998C72.2 46.3998 71.9 46.2998 71.7 46.2998L70.3 46.6998C70 46.7998 69.9 47.0998 69.9 47.2998L70.3 48.6998C70.3 49.0998 70.6 49.1998 70.9 49.0998Z" fill="#4A4A4A"/>
<path d="M68 49.9001L69.4 49.5001C69.7 49.4001 69.8 49.1001 69.8 48.9001L69.4 47.5001C69.3 47.2001 69 47.1001 68.8 47.1001L67.4 47.5001C67.1 47.6001 67 47.9001 67 48.1001L67.4 49.5001C67.4 49.8001 67.7 50.0001 68 49.9001Z" fill="#4A4A4A"/>
<path d="M65.1 50.6999L66.5 50.2999C66.8 50.1999 66.9 49.8999 66.9 49.6999L66.5 48.2999C66.4 47.9999 66.1 47.8999 65.9 47.8999L64.5 48.2999C64.2 48.3999 64.1 48.6999 64.1 48.8999L64.5 50.2999C64.6 50.5999 64.8 50.7999 65.1 50.6999Z" fill="#4A4A4A"/>
<path d="M62.2999 51.4001L63.7 51.0001C64 50.9001 64.0999 50.6001 64.0999 50.4001L63.7 49.0001C63.6 48.7001 63.2999 48.6001 63.0999 48.6001L61.5999 49.0001C61.2999 49.1001 61.2 49.4001 61.2 49.6001L61.5999 51.0001C61.6999 51.4001 61.9999 51.5001 62.2999 51.4001Z" fill="#4A4A4A"/>
<path d="M59.4 52.1999L60.8 51.7999C61.1 51.6999 61.2 51.3999 61.2 51.1999L60.8 49.7999C60.7 49.4999 60.4 49.3999 60.2 49.3999L58.8 49.7999C58.5 49.8999 58.4 50.1999 58.4 50.3999L58.8 51.7999C58.8 52.0999 59.1 52.2999 59.4 52.1999Z" fill="#4A4A4A"/>
<path d="M56.5 53.0002L57.9 52.6002C58.2 52.5002 58.3 52.2002 58.3 52.0002L57.9 50.6002C57.8 50.3002 57.5 50.2002 57.3 50.2002L55.9 50.6002C55.6 50.7002 55.5 51.0002 55.5 51.2002L55.9 52.6002C56 52.9002 56.2 53.1002 56.5 53.0002Z" fill="#4A4A4A"/>
<path d="M53.7 53.7999L55.1 53.3999C55.4 53.2999 55.5 52.9999 55.5 52.7999L55.1 51.3999C55 50.9999 54.7 50.8999 54.4 50.9999L53 51.2999C52.7 51.3999 52.6 51.6999 52.6 51.8999L53 53.2999C53.1 53.6999 53.4 53.7999 53.7 53.7999Z" fill="#4A4A4A"/>
<path fill-rule="evenodd" clip-rule="evenodd" d="M54.5 56.9L57.8 56C57.9 56 58.1 56 58.2 56.1C58.3 56.2 58.4 56.3 58.4 56.4L58.8 57.8C58.8 57.9 58.8 58.1 58.7 58.2C58.6 58.3 58.5 58.4 58.4 58.4L55.1 59.3C55 59.3 54.8 59.3 54.7 59.2C54.6 59.1 54.5 59 54.5 58.9L54.1 57.5C54.1 57.4 54.1 57.2 54.2 57.1C54.3 57.1 54.4 57 54.5 56.9Z" fill="#4A4A4A"/>
<path d="M60.8 55.2999L59.4 55.6999C59.1 55.7999 59 56.0999 59 56.2999L59.4 57.6999C59.5 57.9999 59.8 58.0999 60 58.0999L61.4 57.6999C61.7 57.5999 61.8 57.2999 61.8 57.0999L61.4 55.6999C61.3 55.3999 61 55.1999 60.8 55.2999Z" fill="#4A4A4A"/>
<path d="M63.6 54.5001L62.2001 54.9001C61.9001 55.0001 61.8 55.3001 61.8 55.5001L62.2001 56.9001C62.3001 57.2001 62.6 57.3001 62.8 57.3001L64.2 56.9001C64.5 56.8001 64.6 56.5001 64.6 56.3001L64.2 54.9001C64.2 54.6001 63.9 54.4001 63.6 54.5001Z" fill="#4A4A4A"/>
<path d="M66.5 53.7002L65.1 54.1002C64.8 54.2002 64.7 54.5002 64.7 54.7002L65.1 56.1002C65.2 56.4002 65.5 56.5002 65.7 56.5002L67.1 56.1002C67.4 56.0002 67.5 55.7002 67.5 55.5002L67.1 54.1002C67.1 53.8002 66.8 53.7002 66.5 53.7002Z" fill="#4A4A4A"/>
<path d="M69.4 52.9999L68 53.3999C67.7 53.4999 67.6 53.7999 67.6 53.9999L68 55.3999C68.1 55.6999 68.4 55.7999 68.6 55.7999L70 55.3999C70.3 55.2999 70.4 54.9999 70.4 54.7999L70 53.2999C69.9 52.9999 69.6 52.8999 69.4 52.9999Z" fill="#4A4A4A"/>
<path d="M72.2 52.1998L70.8 52.5998C70.5 52.6998 70.4 52.9998 70.4 53.1998L70.8 54.5998C70.9 54.8998 71.2 54.9998 71.4 54.9998L72.8 54.5998C73.1 54.4998 73.2 54.1998 73.2 53.9998L72.8 52.5998C72.8 52.2998 72.5 52.0998 72.2 52.1998Z" fill="#4A4A4A"/>
<path d="M75.1 51.4L73.7 51.8C73.4 51.9 73.3 52.2 73.3 52.4L73.7 53.8C73.8 54.1 74.1 54.2 74.3 54.2L75.7 53.8C76 53.7 76.1 53.4 76.1 53.2L75.7 51.8C75.7 51.5 75.4 51.3 75.1 51.4Z" fill="#4A4A4A"/>
<path d="M78 50.7001L76.5 51.0001C76.2 51.1001 76.1 51.4001 76.1 51.6001L76.5 53.0001C76.6 53.3001 76.9 53.4001 77.1 53.4001L78.5 53.0001C78.8 52.9001 78.9 52.6001 78.9 52.4001L78.6 51.0001C78.5 50.7001 78.2 50.6001 78 50.7001Z" fill="#4A4A4A"/>
<path d="M80.8 49.9L79.4 50.3C79.1 50.4 79 50.7 79 50.9L79.4 52.3C79.5 52.6 79.8 52.7 80 52.7L81.4 52.3C81.7 52.2 81.8 51.9 81.8 51.7L81.4 50.3C81.4 50 81.1 49.8 80.8 49.9Z" fill="#4A4A4A"/>
<path d="M83.7 49.1002L82.3 49.5002C82 49.6002 81.9 49.9002 81.9 50.1002L82.3 51.5002C82.4 51.8002 82.7 51.9002 82.9 51.9002L84.3 51.5002C84.6 51.4002 84.7 51.1002 84.7 50.9002L84.3 49.5002C84.3 49.2002 84 49.0002 83.7 49.1002Z" fill="#4A4A4A"/>
<path d="M86.6 48.3998L85.2 48.7998C84.9 48.8998 84.8 49.1998 84.8 49.3998L85.2 50.7998C85.3 51.0998 85.6 51.1998 85.8 51.1998L87.2 50.7998C87.5 50.6998 87.6 50.3998 87.6 50.1998L87.2 48.7998C87.1 48.3998 86.8 48.2998 86.6 48.3998Z" fill="#4A4A4A"/>
<path d="M89.4 47.6002L88 48.0002C87.7 48.1002 87.6 48.4002 87.6 48.6002L88 50.0002C88.1 50.3002 88.4 50.4002 88.6 50.4002L90 50.0002C90.3 49.9002 90.4 49.6002 90.4 49.4002L90 48.0002C90 47.7002 89.7 47.5002 89.4 47.6002Z" fill="#4A4A4A"/>
<path fill-rule="evenodd" clip-rule="evenodd" d="M91 47.1999L94.1 46.3999C94.2 46.3999 94.4 46.3999 94.5 46.4999C94.6 46.5999 94.7 46.6999 94.7 46.7999L95.1 48.1999C95.1 48.2999 95.1 48.4999 95 48.5999C94.9 48.6999 94.8 48.7999 94.7 48.7999L91.6 49.5999C91.5 49.5999 91.3 49.5999 91.2 49.4999C91.1 49.3999 91 49.2999 91 49.1999L90.6 47.7999C90.6 47.6999 90.6 47.4999 90.7 47.3999C90.7 47.2999 90.8 47.1999 91 47.1999Z" fill="#4A4A4A"/>
<path d="M57.5 62.5001L56.0999 62.9001C55.7999 63.0001 55.7 63.3001 55.7 63.5001L56.0999 64.9001C56.1999 65.2001 56.5 65.3001 56.7 65.3001L58.0999 64.9001C58.3999 64.8001 58.5 64.5001 58.5 64.3001L58.0999 62.9001C58.0999 62.6001 57.8 62.4001 57.5 62.5001Z" fill="#4A4A4A"/>
<path d="M60.4 61.6998L59 62.0998C58.7 62.1998 58.6 62.4998 58.6 62.6998L59 64.0998C59.1 64.3998 59.4 64.4998 59.6 64.4998L61 64.0998C61.3 63.9998 61.4 63.6998 61.4 63.4998L61 62.0998C60.9 61.7998 60.7 61.5998 60.4 61.6998Z" fill="#4A4A4A"/>
<path d="M63.3 60.8999L61.9 61.2999C61.6 61.3999 61.5 61.6999 61.5 61.8999L61.9 63.2999C62 63.5999 62.3 63.6999 62.5 63.6999L63.9 63.2999C64.2 63.1999 64.3 62.8999 64.3 62.6999L63.9 61.2999C63.8 60.9999 63.5 60.8999 63.3 60.8999Z" fill="#4A4A4A"/>
<path d="M66.1 60.1998L64.7 60.5998C64.4 60.6998 64.3 60.9998 64.3 61.1998L64.7 62.5998C64.8 62.8998 65.1 62.9998 65.3 62.9998L66.7 62.5998C67 62.4998 67.1 62.1998 67.1 61.9998L66.7 60.5998C66.7 60.2998 66.4 60.0998 66.1 60.1998Z" fill="#4A4A4A"/>
<path fill-rule="evenodd" clip-rule="evenodd" d="M67.6 59.8002L81.4 56.1002C81.5 56.1002 81.7 56.1002 81.8 56.2002C81.9 56.3002 82 56.4002 82 56.5002L82.4 57.9002C82.4 58.0002 82.4 58.2002 82.3 58.3002C82.2 58.4002 82.1 58.5002 82 58.5002L68.2 62.2002C68.1 62.2002 67.9 62.2002 67.8 62.1002C67.7 62.0002 67.6 61.9002 67.6 61.8002L67.2 60.4002C67.2 60.3002 67.2 60.1002 67.3 60.0002C67.3 59.9002 67.4 59.8002 67.6 59.8002ZM82.8 55.7002L84.6 55.2002C84.7 55.2002 84.9 55.2002 85 55.3002C85.1 55.4002 85.2 55.5002 85.2 55.6002L85.6 57.0002C85.6 57.1002 85.6 57.3002 85.5 57.4002C85.4 57.5002 85.3 57.6002 85.2 57.6002L83.4 58.1002C83.3 58.1002 83.1 58.1002 83 58.0002C82.9 57.9002 82.8 57.8002 82.8 57.7002L82.4 56.3002C82.4 56.2002 82.4 56.0002 82.5 55.9002C82.5 55.8002 82.7 55.7002 82.8 55.7002Z" fill="#4A4A4A"/>
<path d="M87.4 54.4999L86 54.7999C85.7 54.8999 85.6 55.1999 85.6 55.3999L86 56.7999C86.1 57.0999 86.4 57.1999 86.6 57.1999L88 56.7999C88.3 56.6999 88.4 56.3999 88.4 56.1999L88 54.7999C88 54.4999 87.7 54.3999 87.4 54.4999Z" fill="#4A4A4A"/>
<path d="M90.3 53.6998L88.9 54.0998C88.6 54.1998 88.5 54.4998 88.5 54.6998L88.9 56.0998C89 56.3998 89.3 56.4998 89.5 56.4998L90.9 56.0998C91.2 55.9998 91.3 55.6998 91.3 55.4998L90.9 54.0998C90.9 53.7998 90.6 53.5998 90.3 53.6998Z" fill="#4A4A4A"/>
<path d="M95.7 52.2002L94.3 52.6002C94 52.7002 93.9 53.0002 93.9 53.2002L94.3 54.6002C94.4 54.9002 94.7 55.0002 94.9 55.0002L96.3 54.6002C96.6 54.5002 96.7 54.2002 96.7 54.0002L96.3 52.6002C96.2 52.3002 96 52.2002 95.7 52.2002Z" fill="#4A4A4A"/>
<path d="M91.3 54.5L91.2 54C91.2 53.9 91.2 53.7 91.3 53.6C91.4 53.5 91.5 53.4 91.6 53.4L93 53C93.1 53 93.3 53 93.4 53.1C93.5 53.2 93.6 53.3 93.6 53.4L93.7 53.9L91.3 54.5Z" fill="#4A4A4A"/>
<path d="M93.9 54.2002L94 54.7002C94 54.8002 94 55.0002 93.9 55.1002C93.8 55.2002 93.7 55.3002 93.6 55.3002L92.2 55.7002C92.1 55.7002 91.9 55.7002 91.8 55.6002C91.7 55.5002 91.6 55.4002 91.6 55.3002L91.5 54.8002L93.9 54.2002Z" fill="#4A4A4A"/>
<path d="M92.1 39.4L52.9 49.9C52.6 50 52.4 50.3 52.5 50.6C52.6 50.9 52.9 51.1 53.2 51L92.4 40.5C92.7 40.4 92.9 40.1 92.8 39.8C92.7 39.5 92.4 39.3 92.1 39.4Z" fill="#4A4A4A"/>
<path opacity="0.136" d="M55.3 49.3999L53.8 49.7999C53.6 49.8999 53.5 50.0999 53.5 50.2999C53.6 50.4999 53.8 50.5999 54 50.5999L55.5 50.1999C55.7 50.0999 55.8 49.8999 55.8 49.6999C55.7 49.4999 55.5 49.3999 55.3 49.3999Z" fill="#D8D8D8"/>
<path opacity="0.136" d="M58.4 48.6001L56.8 49.0001C56.6 49.1001 56.5 49.3001 56.5 49.5001C56.6 49.7001 56.8 49.8001 57 49.8001L58.5 49.4001C58.7 49.3001 58.8 49.1001 58.8 48.9001C58.8 48.7001 58.5 48.6001 58.4 48.6001Z" fill="#D8D8D8"/>
<path opacity="0.136" d="M60.7 47.9999L59.2 48.3999C59 48.4999 58.9 48.6999 58.9 48.8999C59 49.0999 59.2 49.1999 59.4 49.1999L60.9 48.7999C61.1 48.6999 61.2 48.4999 61.2 48.2999C61.1 47.9999 60.9 47.8999 60.7 47.9999Z" fill="#D8D8D8"/>
<path opacity="0.136" d="M63.1 47.2998L61.6 47.6998C61.4 47.7998 61.3 47.9998 61.3 48.1998C61.4 48.3998 61.6 48.4998 61.8 48.4998L63.3 48.0998C63.5 47.9998 63.6 47.7998 63.6 47.5998C63.5 47.3998 63.3 47.2998 63.1 47.2998Z" fill="#D8D8D8"/>
<path opacity="0.136" d="M65.5 46.7002L64 47.1002C63.8 47.2002 63.7 47.4002 63.7 47.6002C63.8 47.8002 63.9999 47.9002 64.1999 47.9002L65.6999 47.5002C65.8999 47.4002 66 47.2002 66 47.0002C65.9 46.8002 65.7 46.7002 65.5 46.7002Z" fill="#D8D8D8"/>
<path opacity="0.136" d="M68.5 45.8999L67 46.2999C66.8 46.3999 66.7 46.5999 66.7 46.7999C66.8 46.9999 67 47.0999 67.2 47.0999L68.7 46.6999C68.9 46.5999 69 46.3999 69 46.1999C68.9 45.9999 68.7 45.8999 68.5 45.8999Z" fill="#D8D8D8"/>
<path opacity="0.136" d="M70.8 45.3L69.3 45.7C69.1 45.8 69 46 69 46.2C69.1 46.4 69.3 46.5 69.5 46.5L71 46C71.2 45.9 71.3 45.7 71.3 45.5C71.2 45.3 71 45.2 70.8 45.3Z" fill="#D8D8D8"/>
<path opacity="0.136" d="M73.2 44.6001L71.7 45.0001C71.5 45.1001 71.4 45.3001 71.4 45.5001C71.5 45.7001 71.7 45.8001 71.9 45.8001L73.4 45.4001C73.6 45.3001 73.7 45.1001 73.7 44.9001C73.6 44.7001 73.4 44.6001 73.2 44.6001Z" fill="#D8D8D8"/>
<path opacity="0.136" d="M75.6 44.0002L74.1 44.4002C73.9 44.5002 73.8 44.7002 73.8 44.9002C73.9 45.1002 74.1 45.2002 74.3 45.2002L75.8 44.8002C76 44.7002 76.1 44.5002 76.1 44.3002C76 44.1002 75.8 43.9002 75.6 44.0002Z" fill="#D8D8D8"/>
<path opacity="0.136" d="M78.6 43.1999L77 43.5999C76.8 43.6999 76.7 43.8999 76.7 44.0999C76.8 44.2999 77 44.3999 77.2 44.3999L78.7 43.9999C78.9 43.8999 79 43.6999 79 43.4999C79 43.2999 78.8 43.0999 78.6 43.1999Z" fill="#D8D8D8"/>
<path opacity="0.136" d="M81 42.6L79.4 43C79.2 43.1 79.1 43.3 79.1 43.5C79.2 43.7 79.4 43.8 79.6 43.8L81.1 43.4C81.3 43.3 81.4 43.1 81.4 42.9C81.4 42.6 81.2 42.5 81 42.6Z" fill="#D8D8D8"/>
<path opacity="0.136" d="M83.3 41.8999L81.8 42.2999C81.6 42.3999 81.5 42.5999 81.5 42.7999C81.6 42.9999 81.8 43.0999 82 43.0999L83.5 42.6999C83.7 42.5999 83.8 42.3999 83.8 42.1999C83.7 41.9999 83.5 41.8999 83.3 41.8999Z" fill="#D8D8D8"/>
<path opacity="0.136" d="M86.3 41.1001L84.8 41.5001C84.6 41.6001 84.5 41.8001 84.5 42.0001C84.6 42.2001 84.8 42.3001 85 42.3001L86.5 41.9001C86.7 41.8001 86.8 41.6001 86.8 41.4001C86.7 41.2001 86.5 41.1001 86.3 41.1001Z" fill="#D8D8D8"/>
<path opacity="0.136" d="M88.7 40.5002L87.2 40.9002C87 41.0002 86.9 41.2002 86.9 41.4002C87 41.6002 87.2 41.7002 87.4 41.7002L88.9 41.3002C89.1 41.2002 89.2 41.0002 89.2 40.8002C89.1 40.6002 88.9 40.4002 88.7 40.5002Z" fill="#D8D8D8"/>
<path opacity="0.136" d="M91.1 39.8998L89.6 40.2998C89.4 40.3998 89.3 40.5998 89.3 40.7998C89.4 40.9998 89.6 41.0998 89.8 41.0998L91.3 40.6998C91.5 40.5998 91.6 40.3998 91.6 40.1998C91.5 39.8998 91.3 39.7998 91.1 39.8998Z" fill="#D8D8D8"/>
<path fill-rule="evenodd" clip-rule="evenodd" d="M71.8 79.1998C71.7 79.1998 71.6 79.1998 71.5 79.1998C71.5 79.0998 71.5 78.9998 71.4 78.9998C71.9 78.7998 72.4 78.3998 72.7 77.7998C73 77.2998 73.1 76.6998 73 76.0998C72.9 75.4998 72.6 74.9998 72.1 74.5998C71.6 74.1998 71.1 73.9998 70.5 73.9998C69.9 73.9998 69.4 74.1998 69 74.4998C68.9 74.3998 68.9 74.3998 68.8 74.2998C69.1 73.8998 69.3 73.2998 69.3 72.7998C69.3 72.1998 69.1 71.5998 68.7 71.1998C68.3 70.6998 67.8 70.3998 67.2 70.2998C66.6 70.1998 66 70.2998 65.5 70.4998C65 70.7998 64.6 71.1998 64.3 71.7998C64.2 71.7998 64.1 71.7998 64.1 71.6998C64.1 71.5998 64.1 71.4998 64.1 71.3998C64.1 70.6998 63.8 70.0998 63.3 69.5998C62.8 69.0998 62.2 68.7998 61.5 68.7998C60.8 68.7998 60.2 69.0998 59.7 69.5998C59.2 70.0998 58.9 70.6998 58.9 71.3998C58.9 71.4998 58.9 71.5998 58.9 71.6998C58.8 71.6998 58.7 71.6998 58.7 71.7998C58.5 71.2998 58.1 70.7998 57.5 70.4998C57 70.1998 56.4 70.0998 55.8 70.2998C55.2 70.3998 54.7 70.6998 54.3 71.1998C53.9 71.6998 53.7 72.1998 53.7 72.7998C53.7 73.3998 53.9 73.8998 54.2 74.2998C52.3 76.1998 51.1 78.7998 51.1 81.5998C51.1 87.2998 55.7 91.8998 61.4 91.8998C66.2 91.8998 70.2 88.5998 71.3 84.1998C71.4 84.1998 71.5 84.1998 71.6 84.1998C72.3 84.1998 72.9 83.8998 73.4 83.3998C73.9 82.8998 74.2 82.2998 74.2 81.5998C74.2 80.8998 73.9 80.2998 73.4 79.7998C73.1 79.4998 72.5 79.1998 71.8 79.1998Z" fill="#9E9E9E"/>
<path fill-rule="evenodd" clip-rule="evenodd" d="M41 61.2H61.5V51H41V61.2Z" fill="#959595"/>
<path fill-rule="evenodd" clip-rule="evenodd" d="M66.7 57.3998C67 57.3998 67.4 57.2998 67.6 56.9998C67.8 56.7998 68 56.3998 68 56.0998C68 55.7998 67.9 55.3998 67.6 55.1998C67.4 54.9998 67 54.7998 66.7 54.7998C66.6 54.7998 66.6 54.7998 66.5 54.7998V54.6998C66.8 54.5998 67 54.3998 67.1 54.0998C67.2 53.7998 67.3 53.4998 67.2 53.1998C67.1 52.8998 67 52.5998 66.8 52.4998C66.6 52.2998 66.3 52.1998 66 52.1998C65.7 52.1998 65.4 52.2998 65.2 52.4998L65.1 52.3998C65.3 52.1998 65.4 51.8998 65.4 51.5998C65.4 51.2998 65.3 50.9998 65.1 50.7998C64.9 50.5998 64.7 50.3998 64.4 50.3998C64.1 50.2998 63.8 50.3998 63.5 50.4998C63.2 50.5998 63 50.8998 62.9 51.0998C62.5 51.0998 62 50.9998 61.5 50.9998C58.7 50.9998 56.4 53.2998 56.4 56.0998C56.4 58.8998 58.7 61.1998 61.5 61.1998C62 61.1998 62.4 61.0998 62.9 60.9998C63 61.2998 63.2 61.4998 63.5 61.5998C63.8 61.6998 64.1 61.7998 64.4 61.6998C64.7 61.5998 64.9 61.4998 65.1 61.2998C65.3 61.0998 65.4 60.7998 65.4 60.4998C65.4 60.1998 65.3 59.8998 65.1 59.6998L65.2 59.5998C65.4 59.7998 65.7 59.8998 66 59.8998C66.3 59.8998 66.6 59.7998 66.8 59.5998C67 59.3998 67.2 59.1998 67.2 58.8998C67.3 58.5998 67.2 58.2998 67.1 57.9998C67 57.6998 66.7 57.4998 66.5 57.3998V57.2998C66.6 57.3998 66.6 57.3998 66.7 57.3998Z" fill="#9E9E9E"/>
<path fill-rule="evenodd" clip-rule="evenodd" d="M71.8 19.5998C71.7 19.5998 71.6 19.5998 71.5 19.5998C71.4 19.5998 71.3 19.5998 71.3 19.4998C71.2 19.4998 71.2 19.3998 71.1 19.3998C71 19.3998 71 19.2998 70.9 19.1998C70.8 19.0998 70.8 19.0998 70.7 18.9998C70.7 18.8998 70.6 18.8998 70.6 18.7998C70.5 18.5998 70.5 18.4998 70.5 18.2998C70.5 18.1998 70.5 18.0998 70.5 17.9998C70.5 17.8998 70.5 17.7998 70.6 17.7998C70.6 17.6998 70.7 17.6998 70.7 17.5998C70.7 17.4998 70.8 17.4998 70.9 17.3998C71 17.2998 71 17.2998 71.1 17.1998C71.2 17.1998 71.2 17.0998 71.3 17.0998C71.4 17.0998 71.5 16.9998 71.5 16.9998C71.7 16.9998 71.8 16.9998 72 16.9998C72.1 16.9998 72.2 16.9998 72.2 17.0998C72.3 17.0998 72.3 17.1998 72.4 17.1998C72.5 17.1998 72.5 17.2998 72.6 17.3998C72.7 17.4998 72.7 17.4998 72.8 17.5998C72.8 17.6998 72.9 17.6998 72.9 17.7998C72.9 17.8998 73 17.9998 73 17.9998C73 18.0998 73 18.1998 73 18.2998C73 18.5998 72.9 18.9998 72.6 19.1998C72.5 19.2998 72.5 19.2998 72.4 19.3998C72.3 19.3998 72.3 19.4998 72.2 19.4998C72.1 19.4998 72 19.5998 71.8 19.5998ZM82.1 18.8998C81.8 18.8998 81.4 18.7998 81.2 18.4998C81.1 18.3998 81.1 18.3998 81 18.2998C81 18.1998 80.9 18.1998 80.9 18.0998C80.8 17.8998 80.8 17.7998 80.8 17.5998C80.8 17.2998 80.9 16.8998 81.2 16.6998C81.3 16.5998 81.3 16.5998 81.4 16.4998C81.5 16.4998 81.5 16.3998 81.6 16.3998C81.7 16.3998 81.8 16.2998 81.8 16.2998C82 16.2998 82.1 16.2998 82.3 16.2998C82.4 16.2998 82.5 16.2998 82.5 16.3998C82.6 16.3998 82.6 16.4998 82.7 16.4998C82.8 16.4998 82.8 16.5998 82.9 16.6998C83.1 16.8998 83.3 17.2998 83.3 17.5998C83.3 17.6998 83.3 17.7998 83.3 17.8998C83.3 17.9998 83.3 18.0998 83.2 18.0998C83.2 18.1998 83.1 18.1998 83.1 18.2998C83.1 18.3998 83 18.3998 82.9 18.4998C82.8 18.5998 82.8 18.5998 82.7 18.6998C82.6 18.6998 82.6 18.7998 82.5 18.7998C82.4 18.8998 82.2 18.8998 82.1 18.8998Z" fill="black"/>
</svg>
