<svg width="100" height="100" viewBox="0 0 100 100" fill="none" xmlns="http://www.w3.org/2000/svg">
<path d="M22.8 79.1001L13.1 81.3001V18.6001L22.8 20.8001V79.1001Z" fill="#9E9E9E"/>
<path d="M34.9001 82.8L22.8 86.2V13.8L34.9001 17.2V82.8ZM50.4001 86.6L34.9001 92.3V7.7L50.4001 13.4V86.6ZM91.8 79.3L50.4001 100V0L91.8 20.7V79.3Z" fill="#9E9E9E"/>
<path d="M42.1 4.1L50.4 0V100L42.1 95.9V4.1ZM28.5 10.9L34.9 7.7V92.2L28.5 89V10.9ZM17.7 16.3L22.8 13.8V86.2L17.7 83.7V16.3ZM13.2 18.6L9 20.7V79.3L13.2 81.4V18.6Z" fill="#626262"/>
</svg>
