<svg width="100" height="100" viewBox="0 0 100 100" fill="none" xmlns="http://www.w3.org/2000/svg">
<g clip-path="url(#clip0_755_20211)">
<path d="M100 52.2C100 43.8 94.8 36.5 87 33.6C87.3 31.8 87.5 30 87.5 28.2C87.5 12.7 74.8 0 59.3 0C50.2 0 41.7 4.4 36.4 11.7C33.8 9.7 30.6 8.6 27.2 8.6C18.9 8.6 12.2 15.3 12.2 23.6C12.2 25.4 12.5 27.2 13.1 28.8C5.3 31.6 0 39.1 0 47.4C0 55.8 5.2 63.2 13.1 66C12.8 67.7 12.6 69.6 12.6 71.4C12.6 87 25.2 99.6 40.8 99.6C49.9 99.6 58.4 95.2 63.7 87.9C66.3 90 69.5 91.1 72.9 91.1C81.2 91.1 87.9 84.4 87.9 76.1C87.9 74.3 87.6 72.5 87 70.9C94.6 68 100 60.5 100 52.2Z" fill="white"/>
<path d="M39.3 42.9L61.2 52.9L83.3 33.5C83.6 31.9 83.8 30.3 83.8 28.6C83.7 15 72.7 4 59 4C50.8 4 43.3 8 38.7 14.7L35 33.8L39.3 42.9Z" fill="#C9C9C9"/>
<path d="M16.7 66.1001C16.4 67.7001 16.2 69.4001 16.2 71.0001C16.2 84.7001 27.3 95.7001 41 95.7001C49.2 95.7001 56.7999 91.6001 61.5 84.9001L65.0999 65.9001L60.2 56.6001L38.2 46.6001L16.7 66.1001Z" fill="#8D8D8D"/>
<path d="M16.5 28.1999L31.5 31.7999L34.8 14.7999C32.8 13.1999 30.2 12.3999 27.6 12.3999C21.1 12.3999 15.8 17.6999 15.8 24.1999C15.8 25.4999 16.1 26.8999 16.5 28.1999Z" fill="#888888"/>
<path d="M15.2 31.7998C8.50005 33.9998 3.80005 40.3998 3.80005 47.4998C3.80005 54.3998 8.10005 60.4998 14.5 62.9998L35.5 43.9998L31.7001 35.7998L15.2 31.7998Z" fill="#878787"/>
<path d="M65.2 84.9C67.3 86.5 69.8 87.4 72.3 87.4C78.8 87.4 84.1 82.1 84.1 75.6C84.1 74.2 83.8 72.8 83.4 71.5L68.4 68L65.2 84.9Z" fill="#A9A9A9"/>
<path d="M68.3 64.0002L84.8 67.8002C91.5 65.6002 96.2 59.2002 96.2 52.1002C96.2 45.3002 91.9 39.1002 85.5 36.7002L63.9 55.6002L68.3 64.0002Z" fill="#5D5D5D"/>
</g>
<defs>
<clipPath id="clip0_755_20211">
<rect width="100" height="100" fill="white"/>
</clipPath>
</defs>
</svg>
