<svg width="100" height="100" viewBox="0 0 100 100" fill="none" xmlns="http://www.w3.org/2000/svg">
<g clip-path="url(#clip0_755_20198)">
<path fill-rule="evenodd" clip-rule="evenodd" d="M53.3 0.200195C45.9 2.8002 39 10.4002 32.2 22.7002C22 41.5002 8.99996 68.0002 27 89.1002C35.3 98.8002 49.3 104.5 67.3 95.5002C81.7 88.1002 86 67.1002 80.5 57.3002C69.6 37.0002 58.7 32.0002 55.9 19.4002C54 10.9002 53 4.5002 53.3 0.200195Z" fill="url(#paint0_linear_755_20198)"/>
<path fill-rule="evenodd" clip-rule="evenodd" d="M53.3 0C46 2.6 38.8 10.2 32.2 22.5C22 41.2 8.99996 67.8 27 88.9C35.3 98.6 49 101.7 56.6 96C61.6 92.2 64.9 88.7 66.8 81.1C68.9 72.6 67.3 61.4 66.1 56C64.7 49.4 64.2 42.3 64.7 34.2C64.7 34.2 64.5 34.2 64.5 34C60.5 29.3 57.6 25 56.2 19.1C54 10.7 53 4.3 53.3 0Z" fill="url(#paint1_linear_755_20198)"/>
<path fill-rule="evenodd" clip-rule="evenodd" d="M47.1001 3.2998C40.2001 8.6998 35.3001 17.7998 31.9001 30.2998C26.9001 49.2998 26.5001 66.7998 28.1001 77.1998C31.4001 97.0998 49.2001 104.4 67.2001 95.1998C78.3001 89.4998 83.1001 77.3998 82.8001 64.1998C82.6001 50.4998 56.0001 35.0998 51.5001 23.6998C48.5001 15.8998 47.1001 9.1998 47.1001 3.2998Z" fill="url(#paint2_linear_755_20198)"/>
<path fill-rule="evenodd" clip-rule="evenodd" d="M64.4001 38.9C72.7001 49.3 74.4001 56.7 69.8001 60.7C62.9001 66.9 45.9001 70.9 35.4001 63.5C28.3001 58.5 25.7001 47.9 27.3001 31.5C24.6001 37.7 22.0001 43.6 20.1001 50C18.2001 56.2 17.5001 62.8 18.4001 69.4C21.0001 74.4 26.9001 77.9 36.6001 79.6C51.1001 82.2 64.8001 80.8 74.0001 76.3C80.2001 73.2 83.0001 70.1 82.8001 67.1C83.0001 62.6 81.6001 58.3 78.5001 54.1C75.8001 49.8 71.0001 44.8 64.4001 38.9Z" fill="url(#paint3_linear_755_20198)"/>
<path fill-rule="evenodd" clip-rule="evenodd" d="M32.3999 28.3999C32.3999 35.9999 34.2999 43.0999 38.2999 49.9999C44.1999 60.1999 51.0999 70.3999 61.4999 78.6999C68.3999 84.3999 74.0999 85.9999 78.0999 84.0999C74.7999 90.2999 70.9999 93.0999 67.1999 93.0999C61.4999 92.8999 54.3999 90.4999 43.2999 76.9999C35.6999 67.9999 30.6999 59.4999 27.8999 51.3999C28.3999 48.2999 28.7999 44.9999 29.2999 41.8999C29.9999 38.8999 30.9999 34.3999 32.3999 28.3999Z" fill="url(#paint4_linear_755_20198)"/>
<path fill-rule="evenodd" clip-rule="evenodd" d="M50.2 38.9001C50.9 45.1001 53.3 55.0001 50.2 61.4001C47.1 68.0001 33.1 79.8001 36.9 90.3001C40.7 100.7 50.2 98.4001 56.1 93.6001C62 88.9001 65.1 81.0001 65.8 75.4001C66.5 70.0001 64.1 59.3001 63.4 50.0001C62.9 43.8001 63.2 38.6001 64.3 34.1001L62.4 31.7001L51.7 28.6001C50.4 31.3001 49.7 34.6001 50.2 38.9001Z" fill="url(#paint5_linear_755_20198)"/>
<path fill-rule="evenodd" clip-rule="evenodd" d="M54.0001 8.2998C50.4001 9.6998 47.4001 12.5998 44.3001 17.0998C39.6001 23.4998 37.2001 27.4998 39.1001 40.2998C40.3001 48.7998 41.0001 56.5998 41.7001 63.9998L56.6001 20.5998C56.1001 18.4998 55.7001 16.2998 55.2001 14.6998C54.4001 12.5998 54.2001 10.6998 54.0001 8.2998Z" fill="url(#paint6_linear_755_20198)"/>
<path fill-rule="evenodd" clip-rule="evenodd" d="M56.3 20.3999C52.5 22.4999 49.7 27.2999 47.5 33.8999C45.4 40.7999 43.5 50.1999 41.8 62.5999C44.2 54.7999 45.6 49.0999 46.3 45.4999C47.5 40.2999 47.7 32.6999 50.8 27.6999C52.8 24.3999 54.7 21.9999 56.3 20.3999Z" fill="#1E1E1E" fill-opacity="0.3163"/>
<path fill-rule="evenodd" clip-rule="evenodd" d="M38.6001 93.7998C44.8001 94.6998 48.1001 95.4998 48.3001 96.1998C48.8001 97.0998 47.6001 98.0998 44.0001 97.5998C41.9001 97.0998 40.0001 95.9998 38.6001 93.7998Z" fill="white"/>
<path fill-rule="evenodd" clip-rule="evenodd" d="M41.9 8.2998C38.6 12.2998 35.5 16.7998 32.9 21.2998C30.3 25.7998 28.6 29.3998 27.5 31.4998C27.3 33.1998 27 35.7998 27 39.0998C27 42.3998 27.2 45.9998 27.9 49.9998C28.4 42.1998 29.8 34.3998 32.4 26.9998C34.8 19.6998 38.1 13.2998 41.9 8.2998Z" fill="#EDEDED" fill-opacity="0.6033"/>
</g>
<defs>
<linearGradient id="paint0_linear_755_20198" x1="52.5921" y1="7.6018" x2="49.1131" y2="100.152" gradientUnits="userSpaceOnUse">
<stop stop-color="#D9D9D9"/>
<stop offset="1" stop-color="white" stop-opacity="0.3853"/>
</linearGradient>
<linearGradient id="paint1_linear_755_20198" x1="66.8101" y1="13.6616" x2="30.4646" y2="93.3198" gradientUnits="userSpaceOnUse">
<stop stop-color="#7A7A7A" stop-opacity="0.6719"/>
<stop offset="1" stop-color="#969696"/>
</linearGradient>
<linearGradient id="paint2_linear_755_20198" x1="55.0867" y1="33.3653" x2="55.0867" y2="97.441" gradientUnits="userSpaceOnUse">
<stop stop-color="#151515" stop-opacity="0.7616"/>
<stop offset="1" stop-color="#B5B5B5" stop-opacity="0.2777"/>
</linearGradient>
<linearGradient id="paint3_linear_755_20198" x1="38.0277" y1="32.6395" x2="54.34" y2="75.8477" gradientUnits="userSpaceOnUse">
<stop stop-color="#818181" stop-opacity="0.4595"/>
<stop offset="1" stop-color="#1B1B1B" stop-opacity="0.5399"/>
</linearGradient>
<linearGradient id="paint4_linear_755_20198" x1="74.0871" y1="83.6936" x2="29.2361" y2="46.5456" gradientUnits="userSpaceOnUse">
<stop stop-color="#414141" stop-opacity="0.3312"/>
<stop offset="1" stop-color="#1E1E1E" stop-opacity="0.8214"/>
</linearGradient>
<linearGradient id="paint5_linear_755_20198" x1="68.4278" y1="40.1484" x2="36.7964" y2="88.2777" gradientUnits="userSpaceOnUse">
<stop stop-color="#616161" stop-opacity="0.1452"/>
<stop offset="1" stop-color="#F4F4F4" stop-opacity="0.2336"/>
</linearGradient>
<linearGradient id="paint6_linear_755_20198" x1="62.7245" y1="37.0433" x2="40.3241" y2="35.676" gradientUnits="userSpaceOnUse">
<stop stop-color="#A3A3A3" stop-opacity="0.3561"/>
<stop offset="1" stop-color="#202020" stop-opacity="0.582"/>
</linearGradient>
<clipPath id="clip0_755_20198">
<rect width="100" height="100" fill="white"/>
</clipPath>
</defs>
</svg>
