<svg width="100" height="100" viewBox="0 0 100 100" fill="none" xmlns="http://www.w3.org/2000/svg">
<g clip-path="url(#clip0_755_20274)">
<path d="M50 0C77.6 0 100 22.4 100 50C100 77.6 77.6 100 50 100C22.4 100 0 77.6 0 50C0 22.4 22.4 0 50 0Z" fill="#818181"/>
<path fill-rule="evenodd" clip-rule="evenodd" d="M51 18.9001C57.4 18.8001 62 20.5001 65.9 26.1001C74.4 47.3001 43.9 58.2001 42.7 58.6001C42.7 58.6001 41.8 64.4001 50.5 64.1001C61.3 64.1001 72.6 55.7001 76.9 52.2001C77.4 51.8001 78 51.6001 78.7 51.6001C79.3 51.6001 80 51.9001 80.4 52.4001L83.6 55.8001C84.1 56.3001 84.3 56.9001 84.3 57.5001C84.3 58.2001 84.1 58.8001 83.6 59.3001C80.8 62.4001 74.2 68.8001 64.3 73.0001C64.3 73.0001 47.8 80.7001 36.6 73.4001C30 69.1001 28.1 63.9001 27.4 58.5001C27.4 58.5001 19.3 58.1001 14.2 56.1001C9.00003 54.1001 14.2 48.0001 14.2 48.0001C14.2 48.0001 15.8 45.5001 18.8 48.0001C21.8 50.5001 27.5 49.4001 27.5 49.4001C28 45.4001 28.8 40.2001 31.3 34.6001C36.6 22.9001 44.5 19.0001 51 18.9001ZM54.8 30.5001C51.4 27.2001 41.5 33.8001 41.2 48.8001C41.2 48.8001 44.1 49.7001 50.6 45.3001C56.9 40.9001 58.2 33.8001 54.8 30.5001Z" fill="white"/>
</g>
<defs>
<clipPath id="clip0_755_20274">
<rect width="100" height="100" fill="white"/>
</clipPath>
</defs>
</svg>
