<svg width="100" height="100" viewBox="0 0 100 100" fill="none" xmlns="http://www.w3.org/2000/svg">
<path d="M15.7 69.3C7.9 61.1 3.4 49.7 3.4 36.2C3.4 24.2 7.2 13.9 13.6 6.1H0V69.4L15.7 69.3ZM87.4 69.3C90.7 65.7 93.7 61.5 96.5 56.7L81.4 49.2C76.1 57.8 68.4 65.7 57.7 65.8C42.1 65.7 35.9 52.3 36 35.2H94.2C94.3 33.3 94.3 32.4 94.2 31.4C94.6 21.2 91.9 12.6 87 6H100V69.3H87.4ZM36.9 20.5C37.5 12.7 43.7 7.5 50.8 7.5C58 7.5 63.2 12.7 63.4 20.5H36.9Z" fill="#3B3B3B"/>
<path d="M8.29995 79.9999V77.3999H0.199951V92.9999H8.29995V90.3999H3.19995V86.2999H8.09995V83.6999H3.19995V79.9999H8.29995ZM22 86.3999C24 86.0999 25.1 84.0999 25.2 82.0999C25.1 78.7999 23 77.3999 19.9 77.3999H15.8V92.9999H18.7999V86.7999L22.6 92.9999H26.4L22 86.3999ZM18.7999 79.7999H19.2C20.8 79.8999 22.1 80.1999 22 82.1999C22.1 83.9999 20.9 84.4999 19.2 84.4999H18.7999V79.7999ZM35.7999 77.3999H32.7999V92.9999H40.0999V90.3999H35.7999V77.3999ZM55.5999 89.7999L56.9 92.9999H60.0999L54.2999 76.9999H51.9L45.7 92.9999H48.9L50.2 89.7999H55.5999ZM54.7999 87.3999H51L52.7 81.5999L54.7999 87.3999ZM65.7 92.9999H68.9V82.4999L77.2 93.3999H79.5V77.3999H76.3V87.8999L68 76.9999H65.7V92.9999ZM92.7 84.6999V87.0999H96C95.9 89.0999 94.3 90.6999 92.4 90.6999C89.4 90.7999 87.9 87.8999 87.9 85.1999C87.9 82.5999 89.4 79.5999 92.4 79.5999C94 79.5999 95.3 80.6999 96 81.9999L98.6 80.6999C97.4 78.2999 95.1 76.8999 92.4 76.8999C87.7 76.8999 84.7 80.6999 84.7 85.1999C84.7999 89.5999 87.7 93.3999 92.2 93.4999C97.1 93.3999 99.4 89.4999 99.4 84.9999V84.5999H92.7V84.6999Z" fill="#202020"/>
</svg>
