<svg width="100" height="100" viewBox="0 0 100 100" fill="none" xmlns="http://www.w3.org/2000/svg">
<g clip-path="url(#clip0_755_20324)">
<path d="M30.5001 37.4998L49.5001 26.4998C49.7001 26.3998 50.0001 26.2998 50.3001 26.2998C50.6001 26.2998 50.8001 26.3998 51.1001 26.4998L70.1001 37.4998C70.3001 37.5998 70.5001 37.7998 70.7001 38.0998C70.8001 38.2998 70.9001 38.5998 70.9001 38.8998V60.7998C70.9001 61.2998 70.6001 61.8998 70.1001 62.0998L51.0001 72.9998C50.8001 73.0998 50.5001 73.1998 50.2001 73.1998C49.9001 73.1998 49.7001 73.0998 49.4001 72.9998L30.4001 61.9998C30.2001 61.8998 30.0001 61.6998 29.8001 61.3998C29.7001 61.1998 29.6001 60.8998 29.6001 60.5998V38.7998C29.7001 38.2998 30.0001 37.6998 30.5001 37.4998Z" fill="#8D8D8D"/>
<path d="M99.4 48L76.7 8.5C75.9 7.1 74.4 6 72.7 6H27.3C25.7 6 24.1 7.1 23.3 8.5L0.6 47.9C-0.2 49.3 -0.2 51.1 0.6 52.6L23.3 91.8C24.1 93.2 25.6 94 27.3 94H72.7C74.3 94 75.9 93.3 76.7 91.9L99.4 52.7C100.2 51.1 100.2 49.4 99.4 48ZM80.6 66.9C80.6 67.5 80.3 68 79.7 68.3L50.8 85C50.6 85.1 50.3 85.2 50 85.2C49.7 85.2 49.4 85.1 49.2 85L20.3 68.4C19.8 68.1 19.4 67.6 19.4 67V33.6C19.4 33 19.7 32.5 20.2 32.2L49.1 15.5C49.3 15.4 49.6 15.3 49.9 15.3C50.2 15.3 50.5 15.4 50.7 15.5L79.6 32.2C80.1 32.5 80.5 33 80.5 33.6V66.9H80.6Z" fill="#494949"/>
</g>
<defs>
<clipPath id="clip0_755_20324">
<rect width="100" height="100" fill="white"/>
</clipPath>
</defs>
</svg>
