<svg width="100" height="100" viewBox="0 0 100 100" fill="none" xmlns="http://www.w3.org/2000/svg">
<path d="M75 21C68.8 23.1 65.8 26.8 63.8 32.5C63.3 34 62 35.7 60.5 36.9L65.6 42.3L49.5 31.1L5 0C5 0 8.2 20.8 9.3 28.5C10.1 33.9 11.4 36.3 15.7 38.8L17.4 39.7L24.7 43.6L20.3 41.3L40.4 52.3L40.3 52.6L18.7 42.6C19.8 46.5 22.1 54.1 23 57.4C24 61 25.2 62.3 28.7 63.6L35.1 66L39.1 64.4L34 67.8L8.7 100C25.6 84.3 39.8 78.8 50.3 74.2C63.6 68.4 71.6 64.7 76.9 51.4C80.6 42.1 83.5 30.1 87.2 25.5L95.1 15.4C95.1 15.4 78.7 19.7 75 21Z" fill="#252525"/>
</svg>
