<svg width="100" height="100" viewBox="0 0 100 100" fill="none" xmlns="http://www.w3.org/2000/svg">
<path d="M80.3 9.2998C77.9 12.0998 76.7 18.4998 79.2 24.9998C81.7 31.4998 85.5 30.0998 87.8 36.6998C90.9 45.3998 89.5 57.0998 89.5 57.0998C89.5 57.0998 93.2 67.8998 95.8 56.3998C101.6 34.6998 80.3 14.5998 80.3 9.2998Z" fill="url(#paint0_radial_755_20255)"/>
<path d="M50.6 99.0999C75.5 99.0999 95.7 78.7999 95.7 53.7999C95.7 28.7999 75.5 8.49988 50.6 8.49988C25.7 8.39988 5.5 28.6999 5.5 53.6999C5.5 78.7999 25.7 99.0999 50.6 99.0999Z" fill="url(#paint1_radial_755_20255)"/>
<path d="M84.4 81.7001C83.4 82.4001 82.4 83.0001 81.3 83.5001C82.7 81.4001 84 79.3001 85.2 77.1001C86.2 76.0001 87 75.0001 87.8 73.9001C88.1 73.4001 88.5 72.7001 89 71.9001C91.5 67.3001 94.3 60.0001 94.4 52.4001C94.4 52.2001 94.4 52.0001 94.4 51.8001C94.4 49.9001 94.2 48.0001 93.8 46.1001C93.8 46.2001 93.8 46.4001 93.9 46.5001C93.9 46.4001 93.9 46.3001 93.8 46.2001C93.8 46.4001 93.9 46.6001 93.9 46.8001C94.4 51.2001 94.1 55.5001 92.2 58.6001L92.1 58.7001C93.1 53.9001 93.4 48.6001 92.3 43.3001C92.3 43.3001 91.9 40.7001 88.7 32.9001C86.9 28.4001 83.6 24.7001 80.8 22.0001C78.3 18.9001 76 16.8001 74.8 15.5001C72.2 12.7001 71.1 10.7001 70.6 9.3001C70.2 9.1001 65.2 4.2001 64.8 4.1001C62.6 7.5001 55.7 18.1001 59 28.0001C60.5 32.5001 64.2 37.1001 68.2 39.8001C68.4 40.0001 70.5 42.3001 71.6 47.6001C72.7 53.1001 72.1 57.3001 69.9 63.7001C67.3 69.2001 60.7 74.7001 54.6 75.3001C41.4 76.5001 36.6 68.7001 36.6 68.7001C41.3 70.6001 46.5 70.2001 49.7 68.2001C52.9 66.2001 54.8 64.8001 56.4 65.3001C57.9 65.9001 59.2 64.2001 58.1 62.5001C56.4 59.8001 53.2 58.4001 50 59.0001C46.8 59.5001 43.9 62.0001 39.7 59.6001C39.4 59.4001 39.2 59.3001 38.9 59.1001C38.6 58.9001 39.8 59.4001 39.5 59.2001C38.7 58.8001 37.2 57.8001 36.9 57.4001C36.8 57.3001 37.5 57.6001 37.5 57.6001C33.6 54.4001 34.1 52.2001 34.2 50.8001C34.3 49.7001 35 48.3001 36.2 47.7001C36.8 48.0001 37.1 48.3001 37.1 48.3001C37.1 48.3001 36.9 47.8001 36.7 47.5001H36.8C37.3 47.7001 38.3 48.3001 38.9 48.7001C39.6 49.2001 39.8 49.7001 39.8 49.7001C39.8 49.7001 40 49.6001 39.8 49.2001C39.7 49.0001 39.5 48.4001 38.8 47.9001C39.2 48.1001 39.6 48.4001 40 48.7001C40.2 48.0001 40.6 47.2001 40.5 45.8001C40.5 44.8001 40.5 44.6001 40.3 44.2001C40.1 43.9001 40.4 43.8001 40.6 44.1001C40.6 43.8001 40.5 43.6001 40.4 43.3001C40.7 42.2001 47.3 39.2001 47.8 38.8001C48.6 38.2001 49.3 37.5001 49.7 36.7001C50.1 36.1001 50.3 35.3001 50.4 34.0001C50.4 33.1001 50 32.5001 43.3 31.8001C41.5 31.6001 40.4 30.3001 39.8 29.1001C39.7 28.8001 39.6 28.6001 39.5 28.4001C39.4 28.1001 39.3 27.8001 39.2 27.5001C40.3 24.4001 42.1 21.7001 44.8 19.7001C44.9 19.6001 44.2 19.7001 44.4 19.6001C44.6 19.4001 45.7 19.0001 45.9 18.9001C46.2 18.8001 44.8 18.2001 43.6 18.3001C42.4 18.4001 42.1 18.6001 41.5 18.9001C41.8 18.6001 42.6 18.3001 42.4 18.3001C41.1 18.5001 39.4 19.3001 38 20.1001C38 19.9001 38 19.8001 38.1 19.7001C37.6 20.0001 36 21.1001 35.5 22.0001C35.5 21.8001 35.5 21.6001 35.5 21.5001C35 21.9001 34.6 22.4001 34.2 22.9001C30.4 21.4001 27.1 21.3001 24.2 22.0001C23.6 21.4001 23.3 21.8001 21.9 18.7001C21.8 18.5001 22 18.9001 21.9 18.7001C21.7 18.1001 22 19.5001 21.9 18.7001C19.5 20.6001 16.4 22.7001 14.9 24.2001C14.9 24.3001 16.6 23.7001 14.9 24.2001C14.3 24.4001 14.3 24.7001 14.2 28.0001C14.2 28.2001 14.2 28.5001 14.2 28.8001C13 30.3001 12.2 31.6001 11.9 32.3001C10.4 35.0001 8.7 39.1001 7 45.7001C7.7 43.9001 8.6 42.2001 9.6 40.6001C8.2 44.1001 6.9 49.6001 6.6 58.0001C6.9 56.3001 7.4 54.5001 7.9 52.9001C7.6 59.9001 8.8 66.9001 11.4 73.3001C12.3 75.6001 13.9 79.1001 16.6 83.0001C25 91.7001 36.9 97.2001 50 97.2001C63.7 97.2001 75.9 91.2001 84.4 81.7001Z" fill="url(#paint2_linear_755_20255)"/>
<path d="M74.3 88.1001C90.9 86.2001 98.2 69.1001 88.8 68.8001C80.2 68.5001 66.4 89.0001 74.3 88.1001Z" fill="url(#paint3_radial_755_20255)"/>
<path d="M89.9 65.2999C101.3 58.6999 98.3 44.3999 98.3 44.3999C98.3 44.3999 94 49.4999 91 57.5999C88 65.6999 83.1 69.2999 89.9 65.2999Z" fill="url(#paint4_radial_755_20255)"/>
<path d="M53.8 96.6001C69.7 101.7 83.3 89.2001 74.9 85.0001C67.2 81.2001 46.2 94.2001 53.8 96.6001Z" fill="url(#paint5_radial_755_20255)"/>
<path d="M91.1 71.4C91.5 70.9 92 69.1 92.5 68.3C95.3 63.8 95.3 60.2 95.3 60.1C97 51.6 96.8 48.2 95.8 41.8C95 36.7 91.3 29.3 88.1 25.7C84.8 22 87.1 23.2 84 20.6C81.2 17.5 78.5 14.5 77.1 13.2C66.5 4.4 66.7 2.5 66.9 2.2C66.9 2.2 66.8 2.3 66.7 2.4C66.6 1.9 66.5 1.5 66.5 1.5C66.5 1.5 60.7 7.3 59.5 16.9C58.7 23.2 61.1 29.8 64.5 34C66.3 36.2 68.3 38.2 70.5 39.9C73.1 43.6 74.5 48.2 74.5 53.1C74.5 65.4 64.5 75.4 52.2 75.4C50.5 75.4 48.8 75.2 47.2 74.8C41.4 73.7 38 70.8 36.3 68.8C35.3 67.7 34.9 66.8 34.9 66.8C40.1 68.7 45.9 68.3 49.4 66.3C52.9 64.3 55.1 62.9 56.8 63.5C58.5 64.1 59.9 62.4 58.7 60.7C57.5 59 54.4 56.5 49.8 57.2C46.3 57.7 43 60.2 38.4 57.8C38.1 57.6 37.8 57.5 37.5 57.3C37.2 57.1 38.5 57.6 38.2 57.4C37.3 57 35.7 56 35.3 55.7C35.2 55.6 36 55.9 35.9 55.9C31.6 52.7 32.1 50.5 32.2 49.2C32.3 48.1 33.1 46.7 34.4 46.2C35 46.5 35.4 46.8 35.4 46.8C35.4 46.8 35.1 46.3 35 46C35.1 46 35.1 46 35.2 46C35.7 46.2 36.9 46.8 37.5 47.2C38.3 47.7 38.5 48.2 38.5 48.2C38.5 48.2 38.7 48.1 38.6 47.7C38.5 47.5 38.3 46.9 37.5 46.4C38 46.6 38.4 46.9 38.8 47.2C39 46.5 39.4 45.7 39.3 44.4C39.2 43.5 39.3 43.2 39.1 42.8C38.9 42.5 39.2 42.4 39.5 42.7C39.4 42.4 39.4 42.2 39.3 42C39.7 40.9 47 37.9 47.5 37.6C48.4 37.1 49.1 36.3 49.7 35.5C50.1 34.9 50.4 34.1 50.5 32.9C50.5 32.3 50.4 31.9 48.4 31.5C47.2 31.2 45.4 31 42.7 30.7C40.7 30.5 39.5 29.2 38.8 28C38.7 27.7 38.6 27.5 38.4 27.3C38.3 27 38.2 26.7 38.1 26.4C39.3 23.2 41.5 20.5 44.3 18.7C44.5 18.6 43.6 18.7 43.8 18.6C44 18.4 45.2 18 45.5 17.9C45.8 17.8 44.3 17.2 42.9 17.3C41.5 17.4 41.3 17.6 40.5 17.9C40.8 17.6 41.8 17.3 41.5 17.3C40 17.5 38.2 18.3 36.7 19.1C36.7 18.9 36.7 18.8 36.8 18.7C36.1 19 34.3 20.1 33.8 21C33.8 20.8 33.8 20.6 33.8 20.5C33.3 20.9 32.8 21.4 32.3 21.9C28.1 20.4 24.4 20.3 21.3 21C20.6 20.4 19.5 19.5 18 16.4C17.9 16.2 17.8 16.8 17.8 16.6C17.2 15.2 16.8 12.9 16.9 11.3C16.9 11.3 15.6 11.9 14.6 14.3C14.4 14.7 14.3 15 14.2 15.2C14.1 15.3 14.3 14.4 14.3 14.5C14.1 14.8 13.7 15.2 13.5 15.8C13.4 16.2 13.2 16.4 13 16.9C13 16.7 13 16.3 13 16.4C12.5 17.4 12.1 18.4 11.8 19.4C11.2 21.2 10.6 23.7 10.5 27C10.5 27.2 10.5 27.5 10.5 27.7C9 28.7 8.1 30 7.8 30.7C6.1 33.3 4.2 37.4 2.4 43.9C3.2 42.1 4.2 40.4 5.3 38.8C3.8 42.3 2.3 47.7 2 56C2.4 54.3 2.8 52.6 3.4 50.9C3.1 56.5 3.8 63.4 7.3 71.2C9.4 75.8 14.2 85.1 26 92.3C37.8 99.6 30 95.3 36.9 97.5C37.4 97.7 37.9 97.9 38.4 98C38.2 97.9 38.1 97.9 37.9 97.8C42.5 99.2 47.2 99.9 52 99.9C69.8 99.9 75.1 92.8 75.1 92.8C75.1 92.8 75.1 92.8 75 92.8C75.2 92.6 75.5 92.3 75.7 92.1C72.9 94.8 66.5 94.9 64.1 94.7C68.2 93.5 70.9 92.5 76.1 90.5C76.7 90.3 77.3 90 78 89.7C78.1 89.7 78.1 89.6 78.2 89.6C78.3 89.5 78.5 89.5 78.6 89.4C81.1 88.2 83.5 86.7 85.7 84.9C91 80.7 92.1 76.6 92.7 73.9C92.6 74.2 92.4 74.8 92.2 75.2C90.8 78.1 87.8 79.9 84.6 81.4C86.1 79.4 87.6 77.2 88.9 75.1C90 74.1 90.3 72.5 91.1 71.4Z" fill="url(#paint6_radial_755_20255)"/>
<path d="M84.7 81.4C86.8 79 88.8 76.3 90.2 73.3C94 65.4 99.7 52.3 95.2 38.6C91.6 27.8 86.6 21.9 80.3 16.1C70.1 6.7 67.3 2.5 67.3 0C67.3 0 55.5 13.2 60.6 26.9C65.7 40.6 76.2 40.1 83.1 54.4C91.3 71.2 76.5 89.6 64.3 94.8C65 94.6 91.4 88.7 92.8 73.6C92.8 73.8 92.2 78 84.7 81.4Z" fill="url(#paint7_radial_755_20255)"/>
<path d="M50.5 32.5C50.5 31.6 50.1 31 42.7 30.3C39.7 30 38.5 27.2 38.2 26C37.1 28.8 36.7 31.7 36.9 35.3C37.1 37.6 38.6 40.1 39.4 41.6C39.4 41.6 39.6 41.4 39.6 41.3C41 39.8 46.9 37.6 47.5 37.3C48.1 36.9 50.4 35.2 50.5 32.5Z" fill="url(#paint8_linear_755_20255)"/>
<path d="M18.1 15.8998C18 15.6998 17.9 16.2998 17.9 16.0998C17.3 14.6998 16.9 12.3998 17 10.7998C17 10.7998 15.7 11.3998 14.7 13.7998C14.5 14.1998 14.4 14.4998 14.3 14.6998C14.2 14.7998 14.4 13.8998 14.4 13.9998C14.2 14.2998 13.8 14.6998 13.5 15.2998C13.3 15.6998 13.2 15.9998 13 16.4998C13 16.5998 13 15.8998 13 15.9998C10.6 20.6998 10.1 27.6998 10.4 27.3998C15.5 21.8998 21.4 20.5998 21.4 20.5998C20.8 19.9998 19.4 18.6998 18.1 15.8998Z" fill="url(#paint9_linear_755_20255)"/>
<path d="M37.6 73.2002C30.5 70.2002 22.5 65.9002 22.8 56.2002C23.1 43.4002 34.6 46.0002 34.6 46.0002C34.2 46.1002 33 46.9002 32.6 47.8002C32.2 48.9002 31.4 51.4002 33.8 54.0002C37.6 58.1002 26.1 63.7002 43.8 74.3002C44.3 74.5002 39.7 74.1002 37.6 73.2002Z" fill="url(#paint10_linear_755_20255)"/>
<path d="M35 66.7998C40 68.4998 45.9 68.1998 49.4 66.2998C51.7 64.9998 54.8 62.8998 56.6 63.3998C55 62.7998 53.8 62.4998 52.3 62.3998C52.1 62.3998 51.8 62.3998 51.5 62.3998C51 62.3998 50.4 62.3998 49.9 62.4998C49 62.5998 48 63.1998 47.1 63.0998C47.1 63.0998 48 62.6998 47.9 62.6998C47.4 62.7998 46.9 62.7998 46.3 62.8998C45.9 62.8998 45.6 62.9998 45.3 62.9998C34.9 63.8998 26 57.2998 26 57.2998C25.3 59.8998 29.4 64.8998 35 66.7998Z" fill="url(#paint11_linear_755_20255)"/>
<path d="M84.7 81.4999C95.3 71.0999 100.6 58.4999 98.4 44.2999C98.4 44.2999 99.3 51.5999 95.9 58.9999C97.5 51.6999 97.7 42.6999 93.4 33.3999C87.6 20.8999 78 14.3999 74.3 11.5999C68.7 7.4999 66.4 3.1999 66.4 2.3999C64.7 5.7999 59.7 17.4999 65.9 27.4999C71.7 36.8999 80.7 39.6999 87.1 48.2999C98.6 64.1999 84.7 81.4999 84.7 81.4999Z" fill="url(#paint12_linear_755_20255)"/>
<path d="M83.2 54.3998C79.5 46.7998 74.9 43.3998 70.5 39.7998C71 40.4998 71.1 40.7998 71.4 41.1998C75.2 45.2998 80.9 55.2998 76.8 67.7998C69.1 91.3998 38.1 80.2998 34.8 77.1998C36.1 90.8998 59 97.4998 73.9 88.5998C82.4 80.5998 89.2 66.9998 83.2 54.3998Z" fill="url(#paint13_linear_755_20255)"/>
<defs>
<radialGradient id="paint0_radial_755_20255" cx="0" cy="0" r="1" gradientUnits="userSpaceOnUse" gradientTransform="translate(94.3028 25.0259) rotate(2.55506) scale(34.9489 51.3744)">
<stop offset="0.045" stop-color="#D7D7D7"/>
<stop offset="0.12" stop-color="#CFCFCF"/>
<stop offset="0.254" stop-color="#BDBDBD"/>
<stop offset="0.429" stop-color="#A0A0A0"/>
<stop offset="0.769" stop-color="#686868"/>
<stop offset="0.872" stop-color="#636363"/>
<stop offset="0.953" stop-color="#606060"/>
<stop offset="1" stop-color="#5E5E5E"/>
</radialGradient>
<radialGradient id="paint1_radial_755_20255" cx="0" cy="0" r="1" gradientUnits="userSpaceOnUse" gradientTransform="translate(69.3861 19.6267) scale(98.5004 98.5095)">
<stop stop-color="#909090"/>
<stop offset="0.22" stop-color="#696969"/>
<stop offset="0.261" stop-color="#636363"/>
<stop offset="0.33" stop-color="#525252"/>
<stop offset="0.333" stop-color="#515151"/>
<stop offset="0.438" stop-color="#404040"/>
<stop offset="0.522" stop-color="#333333"/>
<stop offset="0.566" stop-color="#2F2F2F"/>
</radialGradient>
<linearGradient id="paint2_linear_755_20255" x1="56.9345" y1="74.1124" x2="37.4764" y2="10.4673" gradientUnits="userSpaceOnUse">
<stop stop-color="#101010" stop-opacity="0.4"/>
<stop offset="0.485" stop-color="#1A1A1A" stop-opacity="0.173"/>
<stop offset="1" stop-color="#202020" stop-opacity="0"/>
</linearGradient>
<radialGradient id="paint3_radial_755_20255" cx="0" cy="0" r="1" gradientUnits="userSpaceOnUse" gradientTransform="translate(84.1758 51.4488) rotate(5.6702) scale(33.224 33.2271)">
<stop offset="0.003" stop-color="#D7D7D7"/>
<stop offset="0.497" stop-color="#686868"/>
<stop offset="1" stop-color="#5E5E5E"/>
</radialGradient>
<radialGradient id="paint4_radial_755_20255" cx="0" cy="0" r="1" gradientUnits="userSpaceOnUse" gradientTransform="translate(84.3106 19.3865) rotate(5.67024) scale(55.4822 55.4867)">
<stop offset="0.003" stop-color="#D6D6D6"/>
<stop offset="0.157" stop-color="#B5B5B5"/>
<stop offset="0.316" stop-color="#979797"/>
<stop offset="0.472" stop-color="#7F7F7F"/>
<stop offset="0.621" stop-color="#6C6C6C"/>
<stop offset="0.762" stop-color="#5E5E5E"/>
<stop offset="0.892" stop-color="#565656"/>
<stop offset="1" stop-color="#535353"/>
</radialGradient>
<radialGradient id="paint5_radial_755_20255" cx="0" cy="0" r="1" gradientUnits="userSpaceOnUse" gradientTransform="translate(87.0399 71.34) rotate(5.67023) scale(50.9105 50.9145)">
<stop offset="0.003" stop-color="#686868"/>
<stop offset="0.497" stop-color="#5E5E5E"/>
<stop offset="0.986" stop-color="#222222"/>
</radialGradient>
<radialGradient id="paint6_radial_755_20255" cx="0" cy="0" r="1" gradientUnits="userSpaceOnUse" gradientTransform="translate(74.6796 40.0491) scale(79.4889 79.4963)">
<stop offset="0.156" stop-color="#D7D7D7"/>
<stop offset="0.231" stop-color="#CFCFCF"/>
<stop offset="0.365" stop-color="#BDBDBD"/>
<stop offset="0.541" stop-color="#A0A0A0"/>
<stop offset="0.763" stop-color="#686868"/>
<stop offset="0.796" stop-color="#666666"/>
<stop offset="0.841" stop-color="#5E5E5E"/>
<stop offset="0.893" stop-color="#515151"/>
<stop offset="0.935" stop-color="#444444"/>
</radialGradient>
<radialGradient id="paint7_radial_755_20255" cx="0" cy="0" r="1" gradientUnits="userSpaceOnUse" gradientTransform="translate(68.7013 0.128834) scale(93.8623 93.8709)">
<stop offset="0.279" stop-color="#D7D7D7"/>
<stop offset="0.402" stop-color="#CFCFCF"/>
<stop offset="0.63" stop-color="#BABABA"/>
<stop offset="0.856" stop-color="#A2A2A2"/>
<stop offset="0.933" stop-color="#8B8B8B"/>
<stop offset="0.994" stop-color="#7B7B7B"/>
</radialGradient>
<linearGradient id="paint8_linear_755_20255" x1="3.85951" y1="39.1136" x2="39.9773" y2="33.6322" gradientUnits="userSpaceOnUse">
<stop stop-color="#5E5E5E" stop-opacity="0.5"/>
<stop offset="0.474" stop-color="#686868" stop-opacity="0.5"/>
<stop offset="0.486" stop-color="#6B6B6B" stop-opacity="0.513"/>
<stop offset="0.675" stop-color="#979797" stop-opacity="0.72"/>
<stop offset="0.829" stop-color="#B7B7B7" stop-opacity="0.871"/>
<stop offset="0.942" stop-color="#CBCBCB" stop-opacity="0.964"/>
<stop offset="1" stop-color="#D3D3D3"/>
</linearGradient>
<linearGradient id="paint9_linear_755_20255" x1="16.5451" y1="26.2071" x2="12.4454" y2="11.5111" gradientUnits="userSpaceOnUse">
<stop stop-color="#3E3E3E" stop-opacity="0.6"/>
<stop offset="1" stop-color="#5E5E5E" stop-opacity="0"/>
</linearGradient>
<linearGradient id="paint10_linear_755_20255" x1="24.4052" y1="47.6786" x2="32.8375" y2="59.4421" gradientUnits="userSpaceOnUse">
<stop offset="0.005" stop-color="#3E3E3E" stop-opacity="0.5"/>
<stop offset="0.484" stop-color="#686868" stop-opacity="0.5"/>
<stop offset="1" stop-color="#686868" stop-opacity="0"/>
</linearGradient>
<linearGradient id="paint11_linear_755_20255" x1="40.5156" y1="68.2988" x2="41.2812" y2="60.7377" gradientUnits="userSpaceOnUse">
<stop stop-color="#5E5E5E"/>
<stop offset="0.083" stop-color="#5E5E5E" stop-opacity="0.81"/>
<stop offset="0.206" stop-color="#5E5E5E" stop-opacity="0.565"/>
<stop offset="0.328" stop-color="#5E5E5E" stop-opacity="0.362"/>
<stop offset="0.447" stop-color="#5E5E5E" stop-opacity="0.204"/>
<stop offset="0.562" stop-color="#5E5E5E" stop-opacity="0.091"/>
<stop offset="0.673" stop-color="#5E5E5E" stop-opacity="0.023"/>
<stop offset="0.773" stop-color="#5E5E5E" stop-opacity="0"/>
</linearGradient>
<linearGradient id="paint12_linear_755_20255" x1="65.056" y1="3.6719" x2="96.123" y2="73.1363" gradientUnits="userSpaceOnUse">
<stop stop-color="#E3E3E3"/>
<stop offset="0.268" stop-color="#E1E1E1"/>
<stop offset="0.452" stop-color="#DCDCDC"/>
<stop offset="0.612" stop-color="#D2D2D2"/>
<stop offset="0.757" stop-color="#C3C3C3"/>
<stop offset="0.892" stop-color="#B2B2B2"/>
<stop offset="0.902" stop-color="#B0B0B0"/>
<stop offset="0.949" stop-color="#ABABAB"/>
<stop offset="1" stop-color="#A2A2A2"/>
</linearGradient>
<linearGradient id="paint13_linear_755_20255" x1="71.1969" y1="43.6216" x2="56.4806" y2="83.131" gradientUnits="userSpaceOnUse">
<stop stop-color="#A0A0A0"/>
<stop offset="0.04" stop-color="#A0A0A0" stop-opacity="0.858"/>
<stop offset="0.084" stop-color="#A0A0A0" stop-opacity="0.729"/>
<stop offset="0.13" stop-color="#A0A0A0" stop-opacity="0.628"/>
<stop offset="0.178" stop-color="#A0A0A0" stop-opacity="0.557"/>
<stop offset="0.227" stop-color="#A0A0A0" stop-opacity="0.514"/>
<stop offset="0.282" stop-color="#A0A0A0" stop-opacity="0.5"/>
<stop offset="0.389" stop-color="#A0A0A0" stop-opacity="0.478"/>
<stop offset="0.524" stop-color="#A0A0A0" stop-opacity="0.416"/>
<stop offset="0.676" stop-color="#A0A0A0" stop-opacity="0.314"/>
<stop offset="0.838" stop-color="#A0A0A0" stop-opacity="0.172"/>
<stop offset="1" stop-color="#A0A0A0" stop-opacity="0"/>
</linearGradient>
</defs>
</svg>
