<svg width="100" height="100" viewBox="0 0 100 100" fill="none" xmlns="http://www.w3.org/2000/svg">
<path fill-rule="evenodd" clip-rule="evenodd" d="M69.9 17.2998H81.4C91.6 17.2998 100 25.5998 100 35.8998V76.3998C100 86.5998 91.7 94.9998 81.4 94.9998H80.5C75.2 94.1998 72.9 92.5998 71.2 91.2998L56.6 79.2998C56.2 78.9998 55.8 78.7998 55.3 78.7998C54.8 78.7998 54.4 78.9998 54 79.2998L49.2 83.1998L35.8 72.1998C35.4 71.8998 35 71.6998 34.5 71.6998C34 71.6998 33.6 71.8998 33.2 72.1998L14.6 88.3998C10.9 91.3998 8.4 90.8998 6.8 90.6998C2.6 87.2998 0 82.1998 0 76.3998V35.8998C0 25.6998 8.3 17.2998 18.6 17.2998H30L29.6 18.3998L29.5 18.7998L29 21.1998L28.9 21.5998L28.7 23.8998V24.4998V24.6998V25.7998L28.8 26.3998L28.9 27.3998L29.1 28.2998L29.3 29.0998L29.6 29.9998L30.3 31.8998L30.5 32.4998L31.6 34.8998L32 35.5998L33.3 37.8998L33.8 38.6998L35.6 41.3998L35.9 41.7998L38.3 44.8998L39.1 45.8998L41.8 49.0998L42.4 49.6998L44.7 52.0998L45.6 52.9998L47.1 54.4998L46.8 54.6998L46.6 54.8998C46.1 55.3998 45.6 55.8998 45.2 56.3998C45 56.6998 44.8 56.8998 44.6 57.1998C44.3 57.5998 44 57.9998 43.8 58.4998C43.7 58.6998 43.6 58.9998 43.5 59.1998C43.3 59.7998 43.1 60.4998 43.1 61.1998V61.7998C43.1 62.5998 43.3 63.3998 43.6 64.1998C43.9 64.9998 44.4 65.6998 44.9 66.2998C45.3 66.6998 45.8 67.0998 46.3 67.3998C46.7 67.6998 47.2 67.8998 47.7 68.0998C48.8 68.4998 49.9 68.5998 51 68.4998C51.9 68.3998 52.9 68.0998 53.7 67.6998C54.1 67.4998 54.4 67.2998 54.7 66.9998C55.6 66.2998 56.3 65.2998 56.8 64.1998C57.1 63.2998 57.3 62.3998 57.3 61.4998V60.9998C57.2 60.3998 57.1 59.6998 56.9 59.1998C56.8 58.8998 56.7 58.6998 56.6 58.3998C56.4 57.8998 56.1 57.4998 55.8 57.0998C55.7 56.8998 55.5 56.6998 55.4 56.4998C54.9 55.8998 54.4 55.3998 53.8 54.7998L53 54.4998L53.7 53.7998L56.6 50.7998L57.6 49.6998L59.2 47.8998L60.2 46.6998L61.7 44.8998L62.7 43.6998L64.1 41.7998L64.8 40.7998L65.8 39.2998L66.7 37.9998L68.3 35.1998L69.2 33.2998V33.1998L69.9 31.4998C69.9 31.4998 69.9 31.4998 69.9 31.3998L70.7 28.9998L70.8 28.6998L71.1 26.7998L71.2 26.2998V25.9998V24.7998V24.5998L71.1 23.4998L71 22.6998L70.6 20.2998V20.1998L70.1 18.3998L69.9 17.8998V17.2998ZM75.4 67.7998C74.2 67.7998 73.1 68.2998 72.3 69.0998C71.5 69.9998 71 71.0998 71 72.1998C71 73.3998 71.5 74.4998 72.3 75.2998C73.1 76.0998 74.2 76.5998 75.4 76.5998C76.6 76.5998 77.7 76.0998 78.5 75.2998C79.3 74.4998 79.8 73.3998 79.8 72.1998C79.8 70.9998 79.3 69.8998 78.5 69.0998C77.7 68.2998 76.6 67.8998 75.4 67.7998Z" fill="url(#paint0_radial_755_20270)"/>
<path fill-rule="evenodd" clip-rule="evenodd" d="M43.4 93.4L42.6 94C41.9 94.6 41 94.9 40.1 94.9H18.6C14.3 94.9 10.2 93.4 6.79999 90.7C8.39999 90.9 10.9 91.4 14.6 88.4L33.2 72C33.6 71.7 34 71.5 34.5 71.5C35 71.5 35.4 71.7 35.8 72L49.2 83L54 79.1C54.8 78.5 55.8 78.5 56.6 79.1L71.2 91.1C73 92.4 75.3 94 80.5 94.8H70.8C69.9 94.8 69.1 94.5 68.4 94H68.2L67.5 93.4C67.4 93.3 67.4 93.3 67.3 93.2C66.5 92.5 56.1 83.9 56.1 83.9C55.9 83.7 55.6 83.6 55.3 83.6C55 83.6 54.7 83.7 54.5 83.9C54.5 83.9 54.5 83.9 43.5 93.2C43.5 93.3 43.5 93.3 43.4 93.4ZM75.4 67.8C74.2 67.8 73.1 68.3 72.3 69.1C71.5 70 71 71.1 71 72.2C71 73.4 71.5 74.5 72.3 75.3C73.1 76.1 74.2 76.6 75.4 76.6C76.6 76.6 77.7 76.1 78.5 75.3C79.3 74.5 79.8 73.4 79.8 72.2C79.8 71 79.3 69.9 78.5 69.1C77.7 68.3 76.6 67.8 75.4 67.8ZM47 54.5L45.5 53L44.6 52.1L42.3 49.7L41.7 49.1L39 45.8L38.2 44.8L35.8 41.7L35.5 41.3L33.7 38.6L33.2 37.8L31.9 35.5L31.5 34.8L30.4 32.4L30.2 31.8L29.5 30L29.2 29.1L29 28.3L28.8 27.4L28.7 26.4L28.6 25.8V24.7V24.5V23.9L28.8 21.6L28.9 21.2L29.4 18.9L29.5 18.5L29.9 17.4L30 17.1L30.6 15.7L31 14.9L31.6 13.9L32.2 13L32.6 12.4L33.1 11.8L33.6 11.2L34.1 10.7L35.2 9.7L36 9C36 9 36 9 36.1 9L37.1 8.3L38 8L39.5 7.2C39.5 7.2 39.5 7.2 39.6 7.2L41.7 6.3L41.9 6.2L43.7 5.7L44.5 5.5L45.5 5.3L46.2 5.2L47.3 5.1H48L49.4 5H50H51.1H51.4L53 5.1L55.1 5.4H55.3L57.3 5.9L57.9 6.1L58.6 6.3L59.4 6.6L59.9 7L60.8 7.4L61.4 7.7L62.5 8.3L62.9 8.5L64.3 9.6L64.7 10L65.7 10.9L66.6 11.8L66.9 12.1L67.9 13.4L68.1 13.7L68.9 15L69.1 15.5L69.5 16.5L70 17.7L70.2 18.2L70.7 20V20.1L71.1 22.5L71.2 23.3L71.3 24.4V24.6V25.8V26.1L71.2 26.6L70.9 28.5L70.8 29L70 31.4C70 31.4 70 31.4 70 31.5L69.3 33.2V33.3L68.4 35.2L66.8 38L65.9 39.3L64.9 40.8L64.2 41.8L62.8 43.7L61.8 44.9L60.3 46.7L59.3 47.9L57.7 49.7L56.7 50.8L53.8 53.8L53 54.5L53.4 54.8C54 55.3 54.5 55.9 55 56.5C55.1 56.7 55.3 56.9 55.4 57.1C55.7 57.5 56 57.9 56.2 58.4C56.3 58.6 56.4 58.9 56.5 59.2C56.7 59.8 56.9 60.4 56.9 61V61.5C56.9 62.4 56.7 63.3 56.4 64.2C56 65.3 55.2 66.2 54.3 67C54 67.3 53.6 67.5 53.3 67.7C52.5 68.1 51.5 68.4 50.6 68.5C49.5 68.6 48.4 68.5 47.3 68.1C46.8 67.9 46.3 67.7 45.9 67.4C45.4 67.1 44.9 66.7 44.5 66.3C43.9 65.7 43.5 65 43.2 64.2C42.9 63.4 42.7 62.6 42.7 61.8V61.2C42.7 60.5 42.9 59.9 43.1 59.2C43.2 59 43.3 58.7 43.4 58.5C43.6 58 43.9 57.6 44.2 57.2C44.4 56.9 44.6 56.7 44.8 56.4C45.2 55.9 45.7 55.4 46.2 54.9L46.4 54.7L47 54.5Z" fill="black"/>
<path fill-rule="evenodd" clip-rule="evenodd" d="M42.6 94.0002L54.5 83.9002C54.7 83.7002 55 83.6002 55.3 83.6002C55.6 83.6002 55.9 83.7002 56.1 83.9002L68.2 94.0002C68.9 94.6002 69.9 94.9002 70.8 94.9002H40C41 94.9002 41.9 94.6002 42.6 94.0002ZM50.1 58.1002H50.2C50.2 58.1002 50.3 58.1002 50.3 58.2002L50.4 58.3002C50.6 58.5002 50.9 58.8002 51.1 59.0002C51.3 59.2002 51.4 59.3002 51.6 59.5002C51.8 59.7002 52 60.0002 52.1 60.2002C52.2 60.3002 52.2 60.4002 52.3 60.5002C52.4 60.6002 52.4 60.7002 52.4 60.8002C52.5 61.0002 52.5 61.2002 52.5 61.4002V61.8002C52.5 62.1002 52.4 62.5002 52.2 62.7002C52 63.0002 51.8 63.2002 51.5 63.4002C51.1 63.6002 50.7 63.8002 50.3 63.8002H49.8H49.4C49.2 63.8002 49 63.7002 48.9 63.7002C48.7 63.6002 48.6 63.6002 48.4 63.5002L48.1 63.3002C47.7 63.0002 47.5 62.6002 47.4 62.1002C47.4 62.0002 47.4 61.9002 47.4 61.9002V61.5002C47.4 61.4002 47.4 61.3002 47.4 61.2002C47.5 61.0002 47.5 60.8002 47.6 60.6002C47.7 60.4002 47.9 60.1002 48 59.9002C48.3 59.5002 48.5 59.2002 48.8 58.9002C49 58.7002 49.2 58.5002 49.4 58.3002L49.5 58.2002C49.6 58.1002 49.6 58.1002 49.7 58.1002H50.1ZM49.3 9.2002V50.2002V50.0002C48 47.5002 46.7 45.0002 45.5 42.4002C44.6 40.3002 43.7 38.2002 42.9 36.0002C42.3 34.3002 41.8 32.5002 41.4 30.7002C41.1 29.3002 40.8 27.8002 40.7 26.4002C40.7 25.8002 40.6 25.2002 40.7 24.5002C40.7 24.0002 40.7 23.4002 40.8 22.9002C40.9 22.1002 40.9 21.2002 41.1 20.4002C41.2 19.7002 41.3 19.1002 41.5 18.4002C41.6 17.9002 41.8 17.4002 41.9 16.9002C42.1 16.2002 42.4 15.5002 42.7 14.8002C42.8 14.5002 42.9 14.3002 43.1 14.1002C43.9 12.6002 45 11.3002 46.4 10.4002C47.2 9.6002 48.2 9.3002 49.3 9.2002ZM54.6 9.3002L57.4 10.1002C58.7 10.6002 59.9 11.2002 61 12.0002C62.5 13.0002 63.9 14.4002 64.9 15.9002C65.5 16.8002 66 17.8002 66.4 18.8002C67 20.3002 67.3 21.9002 67.5 23.5002C67.5 23.9002 67.6 24.3002 67.6 24.8002C67.6 25.2002 67.6 25.6002 67.6 26.0002C67.5 26.9002 67.4 27.8002 67.1 28.6002C66.9 29.3002 66.7 30.0002 66.4 30.7002C66.1 31.5002 65.7 32.4002 65.3 33.2002C64.4 35.0002 63.3 36.7002 62.2 38.3002C60.8 40.3002 59.3 42.3002 57.7 44.2002C56 46.3002 54.2 48.2002 52.3 50.2002C53.6 47.8002 54.7 45.4002 55.8 43.0002C56.4 41.6002 57 40.2002 57.5 38.9002C58.1 37.4002 58.6 35.8002 59.1 34.2002C59.5 33.0002 59.8 31.8002 60 30.6002C60.2 29.6002 60.4 28.5002 60.5 27.5002C60.6 26.6002 60.6 25.7002 60.6 24.9002C60.6 24.4002 60.6 23.8002 60.5 23.3002C60.4 21.1002 60 19.0002 59.4 16.9002C59.2 16.1002 58.9 15.3002 58.5 14.6002C57.7 12.8002 56.6 11.2002 55 10.0002L54.6 9.3002Z" fill="white"/>
<defs>
<radialGradient id="paint0_radial_755_20270" cx="0" cy="0" r="1" gradientUnits="userSpaceOnUse" gradientTransform="translate(53.094 55.804) scale(72.4412 72.4412)">
<stop stop-color="#9B9B9B"/>
<stop offset="0.45" stop-color="#878787"/>
<stop offset="1" stop-color="#5A5A5A"/>
</radialGradient>
</defs>
</svg>
