<svg width="100" height="100" viewBox="0 0 100 100" fill="none" xmlns="http://www.w3.org/2000/svg">
<path d="M80.8 64.7998C81.9 65.8998 81.1 67.5998 79.6 67.5998H52C51.1 67.5998 50.3 68.2998 50.3 69.2998V96.9998C50.3 98.4998 48.5 99.1998 47.5 98.1998L17.6 68.2998C17.2 67.8998 17 67.2998 17 66.6998V35.9998C17 35.0998 17.7 34.2998 18.7 34.2998H50.4L80.8 64.7998Z" fill="black"/>
<path d="M50.3 34.3L19.8 3.8C18.8 2.8 19.5 1 21 1H82C82.9 1 83.7 1.7 83.7 2.7V32.7C83.7 33.6 83 34.4 82 34.4H50.3V34.3Z" fill="black"/>
</svg>
