<svg width="100" height="100" viewBox="0 0 100 100" fill="none" xmlns="http://www.w3.org/2000/svg">
<g clip-path="url(#clip0_755_20302)">
<path d="M50 0C22.4 0 0 22.4 0 50C0 77.6 22.4 100 50 100C77.6 100 100 77.6 100 50C100 22.4 77.6 0 50 0ZM10.7 50.5L49.4 89.2C28.2 89 11 71.8 10.7 50.5ZM58.8 88.3L11.7 41.2C15.7 23.7 31.3 10.7 50 10.7C63 10.7 74.6 17.1 81.7 26.9L76.3 31.7C70.5 23.4 60.9 17.9 50 17.9C36.1 17.9 24.3 26.7 19.9 39L61 80.1C71 76.5 78.6 68.1 81.2 57.6H64.2V50H89.4C89.3 68.7 76.2 84.3 58.8 88.3Z" fill="#616161"/>
</g>
<defs>
<clipPath id="clip0_755_20302">
<rect width="100" height="100" fill="white"/>
</clipPath>
</defs>
</svg>
