<svg width="100" height="100" viewBox="0 0 100 100" fill="none" xmlns="http://www.w3.org/2000/svg">
<mask id="mask0_755_20236" style="mask-type:luminance" maskUnits="userSpaceOnUse" x="0" y="10" width="100" height="81">
<path d="M100 10H0V90.5H100V10Z" fill="white"/>
</mask>
<g mask="url(#mask0_755_20236)">
<path d="M63.5 32.2H66.6L75.3 23.5L75.7 19.8C59.5 5.5 34.8 7 20.5 23.2C16.5 27.7 13.7 33 12.1 38.8C13.1 38.4 14.1 38.3 15.2 38.6L32.6 35.7C32.6 35.7 33.5 34.2 33.9 34.3C41.6 25.9 54.6 24.9 63.5 32.2Z" fill="#747474"/>
<path d="M87.6 38.7998C85.6 31.3998 81.5 24.7998 75.8 19.7998L63.6 31.9998C68.8 36.1998 71.7 42.5998 71.6 49.1998V51.3998C77.6 51.3998 82.5 56.2998 82.5 62.2998C82.5 68.2998 77.6 73.1998 71.6 73.1998H49.8L47.6 75.3998V88.3998L49.8 90.5998H71.5C83.9 90.6998 95 82.5998 98.7 70.6998C102.4 58.6998 97.9 45.7998 87.6 38.7998Z" fill="#7D7D7D"/>
<path d="M28.1 90.4H49.8V73H28.1C26.6 73 25 72.7 23.6 72L20.5 72.9L11.7 81.6L11 84.7C15.9 88.4 21.9 90.4 28.1 90.4Z" fill="#7C7C7C"/>
<path d="M28.1 33.9998C16 33.9998 5.3 41.7998 1.5 53.1998C-2.3 64.5998 1.5 77.1998 11 84.5998L23.6 71.9998C18.1 69.4998 15.7 63.0998 18.2 57.5998C20.7 52.0998 27.1 49.6998 32.6 52.1998C35 53.2998 36.9 55.1998 38 57.5998L50.6 44.9998C45.2 37.9998 36.9 33.8998 28.1 33.9998Z" fill="#BBBBBB"/>
</g>
</svg>
