<svg width="100" height="100" viewBox="0 0 100 100" fill="none" xmlns="http://www.w3.org/2000/svg">
<path d="M50 96.0999L68.4 39.3999H31.6L50 96.0999Z" fill="#707070"/>
<path d="M50 96.0999L31.6 39.3999H5.80005L50 96.0999Z" fill="#909090"/>
<path d="M5.80005 39.3999L0.200049 56.6999C4.88311e-05 57.4999 4.88311e-05 58.2999 0.200049 59.0999C0.400049 59.8999 0.900049 60.4999 1.60005 60.9999L50 96.0999L5.80005 39.3999Z" fill="#B0B0B0"/>
<path d="M5.80005 39.4002H31.6L20.5 5.3002C19.9 3.5002 17.4 3.5002 16.9 5.3002L5.80005 39.4002Z" fill="#707070"/>
<path d="M50 96.0999L68.4 39.3999H94.2L50 96.0999Z" fill="#909090"/>
<path d="M94.2 39.3999L99.8 56.5999C100 57.3999 100 58.1999 99.8 58.9999C99.6 59.7999 99.1 60.3999 98.4 60.8999L50 96.0999L94.2 39.3999Z" fill="#B0B0B0"/>
<path d="M94.2 39.4002H68.4L79.5 5.3002C80.1 3.5002 82.6 3.5002 83.1 5.3002L94.2 39.4002Z" fill="#707070"/>
</svg>
