<svg width="100" height="100" viewBox="0 0 100 100" fill="none" xmlns="http://www.w3.org/2000/svg">
<path d="M7.5 42.3002C7.3 42.3002 7.3 42.2002 7.4 42.1002L8.4 40.8002C8.5 40.7002 8.7 40.6002 8.9 40.6002H26.3C26.5 40.6002 26.5 40.7002 26.4 40.9002L25.6 42.2002C25.5 42.3002 25.3 42.5002 25.1 42.5002L7.5 42.3002ZM0.2 46.8002C0 46.8002 0 46.7002 0 46.5002L1 45.2002C1.2 45.1002 1.4 45.0002 1.6 45.0002H23.8C24 45.0002 24.1 45.1002 24 45.3002L23.6 46.5002C23.6 46.7002 23.4 46.8002 23.2 46.8002H0.2ZM12 51.3002C11.8 51.3002 11.8 51.2002 11.9 51.0002L12.6 49.8002C12.7 49.7002 12.9 49.5002 13.1 49.5002H22.8C23 49.5002 23.1 49.6002 23.1 49.8002L22.9 51.0002C22.9 51.2002 22.7 51.3002 22.6 51.3002H12ZM62.5 41.4002C59.4 42.2002 57.3 42.8002 54.3 43.5002C53.6 43.7002 53.5 43.7002 52.9 43.0002C52.2 42.2002 51.6 41.6002 50.6 41.1002C47.5 39.6002 44.6 40.0002 41.8 41.8002C38.5 43.9002 36.8 47.1002 36.8 51.1002C36.8 55.0002 39.5 58.2002 43.4 58.7002C46.7 59.1002 49.5 58.0002 51.7 55.5002C52.1 55.0002 52.5 54.4002 53 53.7002H43.6C42.6 53.7002 42.3 53.1002 42.7 52.2002C43.3 50.7002 44.5 48.2002 45.2 46.9002C45.3 46.6002 45.7 46.1002 46.4 46.1002H64.1C64 47.4002 64 48.7002 63.8 50.0002C63.3 53.5002 61.9 56.7002 59.8 59.5002C56.3 64.1002 51.7 67.0002 45.9 67.8002C41.1 68.4002 36.7 67.5002 32.8 64.6002C29.2 61.9002 27.2 58.3002 26.6 53.8002C26 48.7002 27.6 44.0002 30.8 39.8002C34.3 35.3002 38.8 32.4002 44.4 31.4002C49 30.6002 53.4 31.1002 57.3 33.8002C59.9 35.5002 61.7 37.8002 62.9 40.7002C63.3 41.0002 63.1 41.3002 62.5 41.4002Z" fill="#7D7D7D"/>
<path d="M78.6 68.4C74.2 68.3 70.1 67 66.7 64.1C63.8 61.6 62 58.5 61.4 54.7C60.5 49.2 62 44.3 65.3 40C68.9 35.3 73.1 32.9 78.9 31.9C83.9 31 88.5 31.5 92.8 34.4C96.6 37 99 40.6 99.7 45.3C100.5 51.9 98.6 57.2 94.1 61.8C91 65 87.1 67 82.5 67.9C81.2 68.2 79.9 68.2 78.6 68.4ZM90.2 48.7C90.2 48.1 90.2 47.6 90.1 47.1C89.2 42.3 84.8 39.6 80.2 40.6C75.7 41.6 72.8 44.5 71.7 49.1C70.8 52.9 72.7 56.7 76.2 58.3C78.9 59.5 81.6 59.3 84.1 58C87.9 56 90 52.9 90.2 48.7Z" fill="#7D7D7D"/>
</svg>
