<svg width="100" height="100" viewBox="0 0 100 100" fill="none" xmlns="http://www.w3.org/2000/svg">
<g clip-path="url(#clip0_755_20296)">
<path fill-rule="evenodd" clip-rule="evenodd" d="M53.4999 2.19976C53.6999 2.69976 53.8999 3.19976 53.8999 3.69976C53.8999 4.19976 53.8999 4.69976 53.6999 5.19976C53.4999 5.69976 53.2999 6.09976 52.8999 6.49976C52.5999 6.89976 52.0999 7.19976 51.6999 7.39976L12.6999 26.8998L49.9999 45.5998L87.1999 26.9998L72.9999 19.8998L51.6999 30.4998C51.1999 30.6998 50.6999 30.8998 50.1999 30.8998C49.6999 30.8998 49.1999 30.8998 48.6999 30.6998C48.1999 30.4998 47.6999 30.2998 47.2999 29.8998C46.8999 29.5998 46.5999 29.0998 46.2999 28.6998C46.0999 28.1998 45.8999 27.6998 45.8999 27.1998C45.8999 26.6998 45.8999 26.1998 46.0999 25.6998C46.2999 25.1998 46.4999 24.6998 46.8999 24.3998C47.1999 23.9998 47.6999 23.6998 48.0999 23.4998L71.0999 11.9998C71.5999 11.6998 72.1999 11.5998 72.8999 11.5998C73.4999 11.5998 74.0999 11.6998 74.6999 11.9998L97.7999 23.4998C98.4999 23.7998 98.9999 24.2998 99.3999 24.9998C99.7999 25.5998 99.9999 26.2998 99.9999 27.0998C99.9999 27.7998 99.7999 28.5998 99.3999 29.1998C98.9999 29.7998 98.4999 30.2998 97.7999 30.6998L51.7999 53.6998C51.1999 53.9998 50.5999 54.0998 49.9999 54.0998C49.3999 54.0998 48.6999 53.9998 48.1999 53.6998L2.1999 30.6998C1.4999 30.0998 0.999902 29.5998 0.599902 28.9998C0.199902 28.3998 -9.76548e-05 27.6998 -9.76548e-05 26.8998C-9.76548e-05 26.1998 0.199902 25.3998 0.599902 24.7998C0.999902 24.1998 1.4999 23.6998 2.1999 23.2998L48.1999 0.299757C49.0999 -0.200243 50.1999 -0.200243 51.1999 0.099757C52.1999 0.499757 52.9999 1.19976 53.4999 2.19976ZM0.499902 71.1998C0.699902 70.6998 0.999902 70.2998 1.3999 69.9998C1.7999 69.6998 2.1999 69.3997 2.6999 69.1998C3.1999 68.9998 3.7999 68.9998 4.2999 68.9998C4.7999 68.9998 5.2999 69.1998 5.7999 69.3998L49.9999 91.4998L94.1999 69.3998C95.0999 68.8998 96.1999 68.8997 97.1999 69.1998C98.1999 69.4998 98.9999 70.1998 99.4999 71.1998C99.9999 72.0998 99.9999 73.1998 99.6999 74.1998C99.3999 75.1998 98.6999 75.9998 97.6999 76.4998L51.6999 99.4998C51.1999 99.7998 50.4999 99.8998 49.8999 99.8998C49.2999 99.8998 48.6999 99.7998 48.0999 99.4998L2.0999 76.4998C1.5999 76.2998 1.1999 75.8998 0.899902 75.5998C0.599902 75.1998 0.299902 74.7998 0.0999023 74.2998C-0.100098 73.7998 -0.100098 73.2998 -0.100098 72.7998C0.0999023 72.0998 0.199902 71.5998 0.499902 71.1998Z" fill="black"/>
<path fill-rule="evenodd" clip-rule="evenodd" d="M0.5 48.1999C1 47.2999 1.8 46.5999 2.8 46.1999C3.8 45.8999 4.9 45.8999 5.8 46.3999L50 68.4999L94.2 46.3999C95.1 45.8999 96.2 45.8999 97.2 46.1999C98.2 46.4999 99 47.1999 99.5 48.1999C100 49.0999 100 50.1999 99.7 51.1999C99.4 52.1999 98.7 52.9999 97.8 53.4999L51.8 76.4999C51.3 76.7999 50.6 76.8999 50 76.8999C49.4 76.8999 48.8 76.7999 48.2 76.4999L2.2 53.4999C1.3 52.9999 0.6 52.1999 0.2 51.1999C-0.1 50.1999 0 49.0999 0.5 48.1999Z" fill="black"/>
</g>
<defs>
<clipPath id="clip0_755_20296">
<rect width="100" height="100" fill="white"/>
</clipPath>
</defs>
</svg>
