<svg width="100" height="100" viewBox="0 0 100 100" fill="none" xmlns="http://www.w3.org/2000/svg">
<path d="M96.4 44.2C96.2 42.6 96 40.6 95.3 38.5C94.8 36.4 93.9 34.1 92.6 31.6C91.4 29.1 89.8 26.6 87.8 24.1C87.1 23.2 86.2 22.1 85.1 21.3C86.5 15.6 83.3 10.8 83.3 10.8C78 10.4 74.4 12.4 73.2 13.5C73 13.5 72.8 13.3 72.5 13.1C71.6 12.7 70.7 12.4 69.7 12C68.6 11.6 67.7 11.5 66.7 11.1C65.6 10.9 64.6 10.7 63.7 10.6C63.5 10.6 63.3 10.6 63.2 10.6C60.8 3.2 54.1 0 54.1 0C46.6 4.8 45.2 11.4 45.2 11.4C45.2 11.4 45.2 11.6 45.2 11.8C44.8 12 44.3 12 44 12.2C43.5 12.4 42.9 12.6 42.2 12.7C41.7 12.9 41.1 13.1 40.4 13.4C39.3 13.9 38.1 14.5 37 15C35.9 15.5 34.9 16.2 33.8 17C33.6 17 33.6 16.8 33.6 16.8C23.1 12.9 13.9 17.7 13.9 17.7C13 28.7 18 35.8 19.1 37.1C18.9 37.8 18.6 38.5 18.4 39.2C17.7 41.7 17 44.4 16.6 47C16.6 47.4 16.4 47.7 16.4 48.1C6.8 52.8 4 62.5 4 62.5C12 71.7 21.4 72.3 21.4 72.3C22.6 74.4 23.9 76.4 25.5 78.3C26.2 79 26.9 79.9 27.5 80.6C24.7 88.9 27.9 95.9 27.9 95.9C36.8 96.3 42.6 92 43.9 90.9C44.8 91.3 45.7 91.4 46.6 91.8C49.3 92.5 52.1 92.9 54.9 93C55.6 93 56.3 93 57 93H57.4H57.6H58H58.4C62.7 99 69.9 99.9 69.9 99.9C75.2 94.4 75.4 88.9 75.4 87.6V87.4V87.2C76.5 86.5 77.5 85.6 78.6 84.7C80.7 82.7 82.5 80.6 84.1 78.3C84.3 78.1 84.5 77.9 84.5 77.6C90.5 78 94.6 73.9 94.6 73.9C93.5 67.7 90 64.7 89.3 64.1H89.1C89.1 63.7 89.1 63.4 89.1 63C89.1 62.3 89.1 61.6 89.1 61V60.1V59.9V60V59.8V59.4V59C89.1 58.8 89.1 58.6 89.1 58.5C89.1 58.3 89.1 58.1 89.1 58V57.5V57C88.9 56.3 88.9 55.6 88.7 55C88 52.3 87.1 49.8 85.7 47.5C84.3 45.2 82.7 43.2 80.7 41.5C78.7 39.7 76.6 38.5 74.3 37.4C72 36.3 69.7 35.8 67.2 35.4C66 35.2 64.9 35.2 63.6 35.2H63.2H63H62.8H62.6H62.2C62 35.2 61.8 35.2 61.7 35.2C61.2 35.2 60.5 35.4 59.9 35.4C57.6 35.8 55.3 36.6 53.3 37.9C51.3 39.1 49.6 40.6 48.1 42.2C46.7 43.8 45.6 45.8 44.9 47.7C44.2 49.6 43.8 51.6 43.7 53.6C43.7 54.1 43.7 54.5 43.7 55C43.7 55.2 43.7 55.2 43.7 55.4V55.8C43.7 56 43.7 56.3 43.7 56.5C43.9 57.4 44.1 58.5 44.2 59.3C44.7 61.1 45.6 62.7 46.5 64.1C47.6 65.5 48.8 66.6 50.1 67.5C51.3 68.4 52.8 69.1 54.2 69.5C55.6 69.9 56.9 70 58.3 70C58.5 70 58.7 70 58.8 70H59H59.2C59.4 70 59.6 70 59.6 70C59.6 70 59.6 70 59.8 70H60H60.2C60.4 70 60.6 70 60.7 70C60.9 70 61.1 70 61.2 69.8C61.6 69.8 61.7 69.6 62.1 69.6C62.6 69.4 63.2 69.2 63.7 68.9C64.2 68.7 64.6 68.4 65.1 68C65.3 68 65.3 67.8 65.5 67.6C66 67.2 66 66.5 65.7 66.2C65.3 65.8 64.8 65.7 64.5 66C64.3 66 64.3 66.2 64.1 66.2C63.7 66.4 63.4 66.6 62.9 66.7C62.5 66.9 62 66.9 61.7 67.1C61.5 67.1 61.2 67.1 61 67.1C60.8 67.1 60.8 67.1 60.6 67.1C60.4 67.1 60.4 67.1 60.2 67.1C60 67.1 60 67.1 59.8 67.1C59.6 67.1 59.4 67.1 59.4 67.1H59.2H59C58.8 67.1 58.8 67.1 58.6 67.1C57.5 66.9 56.6 66.7 55.6 66.2C54.5 65.8 53.6 65.1 52.8 64.4C51.9 63.7 51.2 62.6 50.7 61.7C50.2 60.8 49.6 59.6 49.5 58.3C49.3 57.8 49.3 57.1 49.3 56.5C49.3 56.3 49.3 56.1 49.3 56V55.8V55.6C49.3 55.2 49.3 54.9 49.5 54.5C50 51.8 51.3 49.3 53.4 47.2C53.9 46.7 54.5 46.3 55 45.8C55.5 45.4 56.2 45.1 56.8 44.7C57.5 44.3 58.2 44.2 58.8 44C59.5 43.8 60.2 43.6 60.9 43.6C61.3 43.6 61.6 43.6 62 43.6H62.2H62.6H62.8H63C63.7 43.6 64.6 43.8 65.3 44C66.9 44.4 68.3 44.9 69.7 45.8C72.5 47.4 74.9 49.9 76.4 52.7C77.1 54.1 77.6 55.7 78 57.3C78 57.7 78.2 58.2 78.2 58.5V59V59.4C78.2 59.6 78.2 59.6 78.2 59.8C78.2 60 78.2 60 78.2 60.2V60.6V61C78.2 61.2 78.2 61.5 78.2 61.7C78.2 62.2 78.2 62.6 78 63.1C78 63.5 77.8 64 77.8 64.3C77.8 64.7 77.6 65.2 77.4 65.5C77.2 66.4 76.9 67.3 76.5 68C75.9 69.4 75 71 74 72.6C71.9 75.4 69 77.9 65.7 79.3C64.1 80 62.3 80.5 60.5 80.9C59.6 81.1 58.7 81.1 57.8 81.3H57.6H57.4H57H56.6H56.4C55.9 81.3 55.5 81.3 55 81.3C53 81.1 51.1 80.8 49.3 80.2C47.5 79.7 45.6 79 44 78.1C40.6 76.3 37.6 73.8 35.1 70.8C33.9 69.4 32.8 67.8 32.1 66C31.2 64.2 30.5 62.4 30 60.7C29.5 58.9 29.1 57 29.1 55.2V54.8V54.6V54.2V53.1V52.9V52.5V52.3C29.1 52.1 29.1 51.8 29.1 51.6C29.1 50.7 29.3 49.6 29.3 48.8C29.5 47.9 29.7 46.8 29.8 46C30 45.1 30.2 44 30.5 43.2C31 41.4 31.7 39.6 32.5 37.9C34.1 34.5 36.1 31.5 38.5 29.2C39 28.7 39.7 28 40.5 27.4C41.2 26.9 41.9 26.3 42.6 26C43.3 25.5 44 25.1 44.7 24.8C45.1 24.6 45.4 24.4 45.8 24.3C46 24.3 46.2 24.1 46.3 24.1C46.4 24.1 46.8 24 47 24C47.7 23.6 48.6 23.5 49.3 23.1C49.5 23.1 49.7 22.9 49.8 22.9C50 22.9 50.2 22.7 50.3 22.7C50.7 22.5 51.2 22.5 51.5 22.3C51.7 22.3 51.9 22.1 52.2 22.1C52.4 22.1 52.6 22.1 52.9 21.9C53.1 21.9 53.3 21.9 53.6 21.7H54H54.4C54.6 21.7 54.8 21.7 55.1 21.5C55.3 21.5 55.6 21.5 55.8 21.3C56 21.3 56.3 21.3 56.5 21.3C56.7 21.3 56.9 21.3 57 21.3H57.4H57.6H57.8C58 21.3 58.3 21.3 58.5 21.3H58.9H59.1C59.3 21.3 59.5 21.3 59.6 21.3C60.5 21.3 61.2 21.3 62.1 21.3C63.7 21.3 65.3 21.5 66.9 21.8C69.9 22.3 72.8 23.4 75.4 24.6C78.1 25.8 80.4 27.4 82.3 29.2C82.5 29.4 82.5 29.4 82.7 29.6C82.9 29.8 82.9 29.8 83.1 30C83.3 30.2 83.6 30.4 83.8 30.7C84 31.1 84.3 31.1 84.5 31.4C84.7 31.8 85 31.9 85.2 32.1C86.1 33 86.8 33.9 87.5 34.9C88.9 36.7 90.2 38.6 91.1 40.4C91.1 40.6 91.3 40.6 91.3 40.8C91.3 41 91.5 41 91.5 41.2C91.7 41.4 91.7 41.6 91.9 41.9C92.1 42.1 92.1 42.3 92.3 42.6C92.5 42.8 92.5 43 92.7 43.3C93.1 44.2 93.4 44.9 93.6 45.6C94 46.8 94.3 47.9 94.5 48.8C94.7 49.2 95 49.5 95.4 49.3C95.8 49.3 96.1 48.9 96.1 48.6C96.5 46.7 96.5 45.5 96.4 44.2Z" fill="url(#paint0_linear_755_20322)"/>
<defs>
<linearGradient id="paint0_linear_755_20322" x1="50.2303" y1="127.024" x2="50.2303" y2="11.3411" gradientUnits="userSpaceOnUse">
<stop stop-color="#DBDBDB"/>
<stop offset="1" stop-color="#818181"/>
</linearGradient>
</defs>
</svg>
