<svg width="100" height="100" viewBox="0 0 100 100" fill="none" xmlns="http://www.w3.org/2000/svg">
<g clip-path="url(#clip0_755_20327)">
<path d="M90.3999 41.3002C95.1999 41.1002 99.4999 44.8002 99.8999 49.6002C101.7 72.9002 80.7999 98.9002 50.6999 99.8002C45.8999 99.9002 41.8999 96.1002 41.6999 91.3002C41.5999 86.5002 45.3999 82.5002 50.1999 82.3002C70.0999 81.7002 82.6999 64.5002 82.0999 50.5002C81.8999 45.7002 85.5999 41.6002 90.3999 41.3002Z" fill="url(#paint0_linear_755_20327)"/>
<path d="M8.8 40.7998C13.6 40.7998 17.5 44.6998 17.5 49.4998C17.5 69.6998 33.7 82.6998 49.9 82.2998C54.7 82.1998 58.7 85.9998 58.8 90.7998C58.9 95.5998 55.1 99.5998 50.3 99.7998C25 100.5 0 80.1998 0 49.5998C0 44.6998 4 40.7998 8.8 40.7998Z" fill="url(#paint1_linear_755_20327)"/>
<path d="M68.6001 50.2002C68.6001 45.3002 72.6001 41.2002 77.6001 41.2002H90.7001C95.7001 41.2002 99.8001 45.2002 99.8001 50.2002C99.8001 55.1002 95.6001 59.2002 90.7001 59.2002H77.6001C72.7001 59.2002 68.6001 55.2002 68.6001 50.2002Z" fill="url(#paint2_linear_755_20327)"/>
<path d="M41.1001 50.2998C41.1001 45.2998 45.1001 41.2998 50.0001 41.2998C54.9001 41.2998 58.9001 45.2998 58.9001 50.2998C58.9001 55.2998 54.9001 59.2998 50.0001 59.2998C45.1001 59.1998 41.1001 55.1998 41.1001 50.2998Z" fill="url(#paint3_linear_755_20327)"/>
<path d="M58.6999 8.40022C58.8999 13.2002 55.1999 17.3002 50.3999 17.5002C29.5999 18.4002 16.9999 34.7002 17.5999 50.2002C17.7999 55.0002 14.0999 59.1002 9.29993 59.3002C4.49993 59.5002 0.299927 55.6002 0.099927 50.8002C-1.00007 25.5002 20.0999 0.500223 49.6999 0.000223329C54.4999 -0.199777 58.4999 3.60022 58.6999 8.40022Z" fill="url(#paint4_linear_755_20327)"/>
</g>
<defs>
<linearGradient id="paint0_linear_755_20327" x1="60.578" y1="69.2609" x2="87.5962" y2="72.7339" gradientUnits="userSpaceOnUse">
<stop stop-color="#5E5E5E"/>
<stop offset="1" stop-color="#636363"/>
</linearGradient>
<linearGradient id="paint1_linear_755_20327" x1="33.7766" y1="58.9164" x2="20.0575" y2="94.9876" gradientUnits="userSpaceOnUse">
<stop offset="0.013" stop-color="#666666"/>
<stop offset="1" stop-color="#808080"/>
</linearGradient>
<linearGradient id="paint2_linear_755_20327" x1="66.1195" y1="22.7664" x2="78.4083" y2="41.3995" gradientUnits="userSpaceOnUse">
<stop stop-color="#7E7E7E"/>
<stop offset="1" stop-color="#AFAFAF"/>
</linearGradient>
<linearGradient id="paint3_linear_755_20327" x1="31.2005" y1="33.9428" x2="56.0619" y2="55.4793" gradientUnits="userSpaceOnUse">
<stop stop-color="#7E7E7E"/>
<stop offset="1" stop-color="#AFAFAF"/>
</linearGradient>
<linearGradient id="paint4_linear_755_20327" x1="78.6827" y1="46.2329" x2="6.46042" y2="21.8552" gradientUnits="userSpaceOnUse">
<stop stop-color="#7E7E7E"/>
<stop offset="1" stop-color="#AFAFAF"/>
</linearGradient>
<clipPath id="clip0_755_20327">
<rect width="100" height="100" fill="white"/>
</clipPath>
</defs>
</svg>
