<svg width="100" height="100" viewBox="0 0 100 100" fill="none" xmlns="http://www.w3.org/2000/svg">
<mask id="mask0_755_20334" style="mask-type:luminance" maskUnits="userSpaceOnUse" x="13" y="0" width="75" height="100">
<path d="M87.4 0H13V100H87.4V0Z" fill="white"/>
</mask>
<g mask="url(#mask0_755_20334)">
<path d="M17.9999 24.2002C17.9999 24.2002 19.6999 30.8002 19.9999 33.0002C20.1999 35.2002 15.5999 40.1002 15.5999 42.5002C15.5999 44.9002 16.5999 49.3002 21.8999 51.5002C27.2999 53.7002 27.9999 59.3002 27.9999 62.7002C27.9999 66.1002 25.9999 72.7002 25.9999 72.7002C25.9999 72.7002 24.8999 89.1002 31.3999 92.0002C37.9999 95.0002 36.5999 95.0002 37.9999 95.0002C39.4999 95.0002 50.1999 99.4002 56.4999 97.7002C62.7999 96.0002 64.4999 94.0002 64.4999 94.0002C64.4999 94.0002 70.7999 94.5002 72.7999 88.9002C74.7999 83.3002 75.9999 71.6002 75.1999 66.2002C74.4999 60.8002 73.4999 53.8002 77.8999 51.3002C82.2999 48.9002 86.8998 45.9002 86.1999 43.5002C85.4999 41.1002 81.5999 37.6002 81.5999 37.6002C81.5999 37.6002 80.5999 31.5002 81.3999 30.0002C82.0999 28.5002 86.4999 24.9002 84.0999 22.2002C81.6999 19.5002 77.2999 19.5002 77.2999 19.5002L71.6999 20.0002C71.6999 20.0002 62.1999 11.5002 49.6999 12.0002C37.2999 12.5002 29.4999 20.0002 29.4999 20.0002C29.4999 20.0002 25.3999 18.5002 21.6999 20.0002C17.9999 21.5002 17.2999 20.1002 17.9999 24.2002Z" fill="#B2B2B2"/>
<path d="M40.2999 60.4999C40.2999 60.4999 35.4999 67.8999 31.8999 73.0999C31.3999 73.9999 35.4999 73.9999 35.4999 73.9999L40.2999 60.4999ZM42.5999 45.1999C42.5999 45.1999 41.0999 48.7999 40.2999 50.7999C39.3999 52.8999 36.0999 53.8999 36.0999 53.8999C36.0999 53.8999 37.7999 52.0999 37.7999 47.5999C37.7999 45.6999 40.2999 44.8999 40.2999 44.8999L42.5999 45.1999Z" fill="#999999"/>
<path d="M41.0999 47.3002C41.0999 47.3002 38.0999 50.9002 32.5999 48.9002C27.0999 46.9002 26.5 39.8002 26.5 37.8002C26.5 35.8002 37 39.8002 38.4 40.6002C39.9 41.5002 42.5999 44.9002 41.0999 47.3002ZM20.2 9.30022C20.2 9.30022 25.3 8.30022 28.7 11.0002C32.1 13.7002 33.0999 15.8002 33.0999 15.8002L27.4 20.4002C27.4 20.4002 24.5999 19.1002 23.7999 15.4002C22.8999 11.8002 23.5 10.1002 20.2 9.30022Z" fill="#999999"/>
<path d="M39.6 36.9999C37.4 33.8999 33.8 32.4999 30.9 32.2999C26 31.8999 23.6 33.6999 23.6 33.6999C23.6 33.6999 31.7 33.9999 34 37.0999C38.3 42.7999 44.7 43.2999 45.7 41.9999C44.5 42.0999 43.2 41.4999 41.9 40.1999C41 39.2999 40.3 37.9999 39.6 36.9999ZM26 48.0999C26 48.0999 17 44.9999 18.7 41.8999C20.4 38.7999 19 37.0999 19 37.0999C19 37.0999 14 40.7999 15.3 44.7999C16.1 47.1999 17.4 48.9999 24.6 52.3999C28.1 58.7999 25.3 70.3999 25.5 70.4999C25.8 70.5999 30.4 68.1999 30.1 57.3999C30 53.9999 29.7 49.3999 26 48.0999ZM37.8 14.8999C34 16.7999 28.9 19.4999 28.9 19.4999L30.9 20.4999C30.7 20.7999 30.6 20.9999 30.6 20.9999L32.7 21.8999C32.7 21.8999 37.8 25.5999 40.9 27.9999C39.9 24.7999 36.8 19.7999 36.8 19.7999C36.8 19.7999 35.9 17.4999 37.8 14.8999ZM50.3 92.7999C38.7 92.7999 34.8 86.8999 34.8 86.8999L36.6 91.2999C37.3 93.1999 44.6 99.0999 50.3 99.0999" fill="#999999"/>
<path d="M35.9999 82.9998C35.9999 82.9998 37.0999 89.4998 41.2999 89.4998C44.8999 89.4998 45.9999 83.9998 45.9999 82.8998L35.9999 82.9998ZM28.8999 73.1998C29.2999 72.1998 30.5999 67.8998 30.9999 64.0998C31.4999 59.4998 31.2999 52.7998 31.2999 52.7998C31.2999 52.7998 30.1999 57.1998 29.1999 57.8998C28.1999 58.5998 26.3999 63.3998 26.3999 63.3998C26.3999 63.3998 25.3999 70.5998 24.8999 72.9998C26.2999 73.2998 27.3999 72.4998 28.8999 73.1998ZM18.6999 44.6998C18.6999 44.6998 21.0999 43.7998 21.7999 38.5998C22.4999 33.2998 20.8999 28.7998 20.8999 28.7998C20.8999 28.7998 20.9999 35.9998 20.1999 37.4998C19.2999 38.8998 18.5999 39.2998 17.5999 41.1998C16.6999 42.9998 18.0999 44.0998 18.6999 44.6998Z" fill="#999999"/>
<path d="M21.5 10.5998L21 10.2998C19.6 10.2998 21.5 10.5998 21.5 10.5998Z" fill="#C9C9C9"/>
<path d="M39.6999 13.3C39.6999 13.3 37.3999 12.9 36.2999 11.2C35.1999 9.5 31.8999 6.1 26.7999 6C21.6999 6 16.5999 7.4 16.5999 7.4L20.9999 10.2C21.4999 10.2 22.2999 10.2 23.5999 10.2C29.1999 10.4 29.9999 15.9 29.9999 15.9L49.5999 13.2" fill="#B2B2B2"/>
<path d="M41.5998 43.6999C41.5998 43.6999 38.8998 46.3999 34.8998 45.4999C30.7998 44.5999 28.3998 42.7999 28.1998 39.6999C27.9998 36.5999 28.9998 35.3999 28.9998 35.3999C28.9998 35.3999 33.4998 36.7999 35.6998 38.6999C37.8998 40.5999 39.4998 43.5999 41.5998 43.6999Z" fill="white"/>
<path d="M38.4 42.7999C38.4 42.7999 36.1 43.8999 33.5 42.9999C30.1 41.8999 29.9 38.3999 29.9 38.3999C29.9 38.3999 27.8 44.4999 33.6 45.5999C38.2 46.4999 41 43.7999 41 43.7999L38.4 42.7999Z" fill="#C9C9C9"/>
<path d="M40 12.1C39.8 6.9 44 2.8 45.5 2.6C45.6 3.5 45.4 6.9 46.9 8C47.3 5.1 48.8 2 54.5 0C53.3 3.3 54.3 6 54.8 7.3C58.7 3.7 61.4 4.3 61.4 4.3C61.4 4.3 58.7 9 59.7 12.1C51.9 11.4 40.1 12.9 40 12.1ZM23.4 20C21.5 18.4 22.9 17 22.8 15.2C22.7 14.3 22.6 13.4 22.3 12.9C20.6 10.2 16.5 9.3 16.5 9.3L14.5 9L15.8 7.5C16 7.3 21.2 2.4 29.2 4.9C34.8 6.7 39 12.9 39.1 13.1L36.3 14.4C36.3 14.3 33 8.6 28.2 7C24.3 5.7 20.7 6.9 19.2 7.7C20.8 8.4 23 9.5 24.3 11.6C24.9 12.6 25 13.8 25.1 14.9C25.2 16.5 25.4 17.9 26.5 18.9L23.4 20ZM18.4 42.7C18.4 42.7 20.8 39.8 21.5 34.1C21.8 31.9 21.3 27.4 20.5 25.7C20.6 29.9 19.6 34.1 19.6 34.1C19.6 34.1 18.8 41.8 18.4 42.7Z" fill="#343434"/>
<path d="M30.7998 16.9999C30.7998 16.9999 29.9998 13.6999 27.8998 11.9999C24.8998 9.5999 21.2998 10.8999 21.2998 10.8999L20.7998 9.2999C20.9998 9.1999 25.0998 7.8999 28.8998 10.5999C32.6998 13.2999 33.1998 15.6999 33.1998 15.9999L30.7998 16.9999ZM25.7998 40.5999C25.7998 40.5999 24.5998 38.7999 24.7998 36.8999C24.8998 35.8999 25.3998 34.8999 26.1998 34.5999C27.6998 33.8999 28.2998 35.5999 28.2998 35.5999C28.2998 35.5999 26.1998 36.0999 25.7998 40.5999Z" fill="#343434"/>
<path d="M39.4 43.2998C39.5 43.3998 39.5 43.4998 39.5 43.4998C39.5 43.4998 35.6 46.3998 31.7 43.4998C29.6 41.8998 29.8 37.9998 30.4 36.3998C32.1 36.7998 33.5 37.4998 34.7 38.2998C33.2 36.8998 31.9 35.9998 31.9 35.8998L30.2 35.3998L26.9 34.2998C26.9 34.5998 25.6 40.2998 29.2 44.1998C30.8 45.8998 38.1 49.7998 41.6 43.1998L39.4 43.2998Z" fill="#343434"/>
<path d="M39 43.6998C41.2 46.9998 46.7 45.0998 46.6 41.5998C46.6 41.5998 42.9 43.5998 39.7 39.8998C37.8 37.6998 31.7 31.6998 23.5 33.6998C29.2 34.9998 36.7 40.1998 39 43.6998Z" fill="#343434"/>
<path d="M22.6999 53.1C23.1999 53.4 25.0999 55.3 25.0999 58.2C25.0999 59.6 24.9999 66.8 24.1999 71.2C25.2999 71.9 25.9999 72 27.0999 72.7C27.5999 67.6 27.9999 60.2 27.7999 57.2C27.5999 53.8 25.7999 51.5 24.0999 50.5C23.5999 50.2 22.9999 49.9 22.4999 49.6C19.5999 48 16.5999 46.4 16.5999 43.7C16.5999 41.5 17.3999 40.9 18.2999 40.1L18.3999 40C18.9999 39.5 19.6999 39 20.0999 38.1C21.1999 35.7 21.3999 29.5 20.0999 27.9C19.4999 27.1 17.7999 24.5 18.2999 22.7C18.4999 22 18.8999 21.5 19.5999 21.2C20.2999 20.8 21.2999 20.6 22.4999 20.6C24.8999 20.6 27.4999 21.3 28.8999 21.8C33.7999 23.3 39.6999 27.8 41.3999 29.1L41.4999 29.2L42.5999 30L41.8999 29C41.8999 28.9 37.5999 21.9 29.8999 19.3C28.3999 18.8 25.4999 18 22.5999 18C20.8999 18 19.3999 18.3 18.2999 18.9C16.8999 19.6 15.8999 20.8 15.5999 22.2C14.5999 25.7 17.7999 29.7 17.8999 29.8C18.2999 30.5 18.3999 35.2 17.5999 37.1C17.4999 37.4 17.1999 37.6 16.7999 37.9C16.6999 38 16.4999 38.1 16.3999 38.2C15.1999 39.1 13.3999 40.5 13.3999 43.6C13.3999 47.9 17.7999 50.2 21.2999 52.1C21.6999 52.5 22.1999 52.8 22.6999 53.1Z" fill="#343434"/>
<path d="M23.4 19.9998C21.5 18.3998 22.9 16.9998 22.8 15.1998C22.7 14.2998 22.6 13.3998 22.3 12.8998C20.6 10.1998 16.5 9.29981 16.5 9.29981L14.5 8.9998L15.8 7.4998C16 7.2998 21.2 2.3998 29.2 4.8998C34.8 6.6998 39 12.8998 39.1 13.0998L36.3 14.3998C36.3 14.2998 33 8.5998 28.2 6.9998C24.3 5.6998 20.7 6.8998 19.2 7.6998C20.8 8.3998 23 9.49981 24.3 11.5998C24.9 12.5998 25 13.7998 25.1 14.8998C25.2 16.4998 25.4 17.8998 26.5 18.8998L23.4 19.9998Z" fill="#343434"/>
<path d="M23.3 20.2999L23.2 20.1999C21.8 18.9999 22.1 17.8999 22.3 16.7999C22.4 16.2999 22.5 15.7999 22.5 15.1999C22.4 14.2999 22.4 13.3999 22.1 12.9999C20.5 10.3999 16.5 9.5999 16.4 9.5999L14 9.0999L15.6 7.2999C15.6 7.2999 19 3.8999 24.6 3.8999C26.1 3.8999 27.7 4.1999 29.3 4.6999C35.2 6.5999 39.4 12.9999 39.4 12.9999L39.6 13.2999L36.3 14.8999L36.2 14.6999C35.8 14.0999 32.7 8.8999 28.2 7.3999C27 6.9999 25.8 6.7999 24.6 6.7999C22.5 6.7999 20.7 7.3999 19.8 7.7999C21.3 8.4999 23.2 9.6999 24.4 11.4999C25 12.4999 25.1 13.7999 25.3 14.9999C25.4 16.4999 25.5 17.8999 26.6 18.7999L27 19.0999L23.3 20.2999Z" fill="#343434"/>
<path d="M30.7998 16.9999C30.7998 16.9999 29.9998 13.6999 27.8998 11.9999C24.8998 9.5999 21.2998 10.8999 21.2998 10.8999L20.7998 9.2999C20.9998 9.1999 25.0998 7.8999 28.8998 10.5999C32.6998 13.2999 33.1998 15.6999 33.1998 15.9999L30.7998 16.9999Z" fill="#343434"/>
<path d="M30.5999 17.4001L30.4999 17.1001C30.4999 17.1001 29.6999 13.9001 27.6999 12.3001C26.5999 11.4001 25.1999 10.9001 23.5999 10.9001C22.3999 10.9001 21.4999 11.2001 21.3999 11.2001L21.0999 11.3001L20.3999 9.1001L20.6999 9.0001C20.7999 9.0001 21.8999 8.6001 23.4999 8.6001C25.4999 8.6001 27.4999 9.2001 29.0999 10.3001C32.9999 13.1001 33.4999 15.6001 33.4999 15.9001V16.1001L30.5999 17.4001ZM23.6999 10.3001C25.3999 10.3001 26.8999 10.8001 28.1999 11.8001C29.9999 13.2001 30.7999 15.7001 31.0999 16.6001L32.9999 15.8001C32.7999 15.1001 32.0999 13.1001 28.7999 10.8001C27.2999 9.7001 25.4999 9.2001 23.4999 9.2001C22.3999 9.2001 21.5999 9.4001 21.1999 9.5001L21.4999 10.6001C21.8999 10.5001 22.6999 10.3001 23.6999 10.3001ZM41.1999 87.9001C40.3999 87.9001 39.4999 87.6001 38.8999 87.1001C38.3999 86.7001 36.8999 85.3001 36.1999 83.6001C35.9999 82.9001 35.9999 82.4001 36.3999 82.0001C36.6999 81.7001 37.1999 81.4001 38.1999 81.4001H38.9999C39.8999 81.4001 41.3999 81.4001 42.6999 81.4001H43.9999C44.7999 81.4001 45.3999 81.6001 45.6999 81.9001C46.0999 82.3001 45.9999 82.9001 45.8999 83.2001C45.6999 83.7001 44.7999 85.4001 43.3999 87.0001C42.7999 87.6001 41.9999 87.9001 41.1999 87.9001ZM42.0999 43.9001L39.0999 43.7001C39.0999 43.7001 39.8999 45.1001 40.3999 46.8001C40.9999 48.8001 39.8999 51.7001 39.8999 51.7001C39.8999 51.7001 43.7999 47.2001 42.0999 43.9001ZM38.2999 95.9001C27.4999 95.1001 23.6999 84.9001 23.6999 82.8001H26.4999C26.4999 83.7001 29.3999 92.4001 38.4999 93.1001L38.2999 95.9001Z" fill="#343434"/>
<path d="M35.3 77.7001C35.1 76.7001 35.1 75.8001 35.3 74.9001C34.5 74.3001 33 74.1001 31.9 73.7001C31 73.1001 26.4 74.3001 23 70.2001C18.8 65.1001 19.7 62.1001 19.7 62.1001C18.6 63.3001 17.6 62.8001 15.9 68.4001C14.3 74.0001 16.7 77.9001 21.2 81.8001C23.3 83.6001 26.3 84.4001 28.9 84.7001C28 83.8001 30.4 83.7001 32 83.1001C31.9 81.8001 32.1 80.5001 33.1 79.5001C33.7 78.9001 34.4 78.5001 35.2 78.2001C35.2 78.1001 35.3 78.0001 35.3 77.9001C35.3 77.9001 35.3 77.8001 35.3 77.7001Z" fill="white"/>
<path d="M31.9998 83.1C31.8998 82.8 31.7998 82.5 31.7998 82.3C31.6998 82 31.3998 81.1 31.7998 82.1C31.6998 81.8 31.5998 81.6 31.4998 81.3C24.1998 81.3 17.8998 76.3 19.0998 65.8C18.0998 64.5 16.7998 68.4 16.7998 68.4C16.7998 68.4 13.1998 78.9 22.5998 83C25.6998 84.4 28.4998 85.4 29.1998 85C30.5998 85.3 31.7998 84.3 32.2998 83.7C32.0998 83.5 32.0998 83.3 31.9998 83.1Z" fill="#C9C9C9"/>
<path d="M35.0999 76.1998C35.0999 75.2998 35.3 74.4998 35.7 73.5998C35.7 73.4998 35.7999 73.4998 35.7999 73.3998C33 73.3998 29.8 73.0998 27 71.9998C24 70.7998 20.2 66.6998 19.5 61.7998C19.5 61.7998 13.8 66.1998 15.5 75.5998C17.1 84.3998 24.5 87.2998 32.9 87.7998C32.9 87.6998 32 85.7998 32.2999 84.5998C27.4999 84.8998 22.2 83.0998 19.6 78.8998C17.2 74.9998 17.9 68.3998 18.9 67.3998C21.2 74.7998 29.7999 76.2998 35.0999 76.1998Z" fill="#343434"/>
<path d="M35.9999 70.8002C34.4999 75.2002 31.3999 78.8002 31.3999 78.8002C31.3999 78.8002 35.6999 78.6002 35.8999 77.9002C36.0999 77.3002 39.6999 68.7002 41.1999 58.7002C39.7999 60.9002 36.0999 70.4002 35.9999 70.8002Z" fill="#343434"/>
<path d="M60.0998 60.4999C60.0998 60.4999 64.8998 67.8999 68.4998 73.0999C69.0998 73.9999 64.9998 73.9999 64.9998 73.9999L60.0998 60.4999ZM57.7998 45.1999C57.7998 45.1999 59.2998 48.7999 60.0998 50.7999C60.9998 52.8999 64.2998 53.8999 64.2998 53.8999C64.2998 53.8999 62.5998 52.0999 62.5998 47.5999C62.5998 45.6999 60.0998 44.8999 60.0998 44.8999L57.7998 45.1999Z" fill="#999999"/>
<path d="M59.2998 47.3002C59.2998 47.3002 62.2998 50.9002 67.7998 48.9002C73.2998 46.9002 73.8998 39.8002 73.8998 37.8002C73.8998 35.8002 63.3998 39.8002 61.9998 40.6002C60.5998 41.5002 57.8998 44.9002 59.2998 47.3002ZM80.1998 9.30022C80.1998 9.30022 75.0998 8.30022 71.6998 11.0002C68.2998 13.7002 67.2998 15.8002 67.2998 15.8002L72.9998 20.4002C72.9998 20.4002 75.7998 19.1002 76.5998 15.4002C77.4998 11.8002 76.9998 10.1002 80.1998 9.30022Z" fill="#999999"/>
<path d="M60.7999 36.9999C62.9999 33.8999 66.6 32.4999 69.5 32.2999C74.4 31.8999 76.8 33.6999 76.8 33.6999C76.8 33.6999 68.7 33.9999 66.4 37.0999C62 42.7999 55.7 43.1999 54.7 41.9999C55.9 42.0999 57.2 41.4999 58.5 40.1999C59.4 39.2999 60.0999 37.9999 60.7999 36.9999ZM74.5 48.0999C74.5 48.0999 83.5 44.9999 81.8 41.8999C80 38.6999 81.4 36.9999 81.4 36.9999C81.4 36.9999 86.3999 40.6999 85.0999 44.6999C84.2999 47.0999 83 48.8999 75.8 52.2999C72.3 58.6999 75.1 70.2999 74.9 70.3999C74.6 70.4999 70 68.0999 70.3 57.2999C70.4 53.9999 70.7 49.3999 74.5 48.0999ZM62.7 14.8999C66.5 16.7999 71.5999 19.4999 71.5999 19.4999L69.5999 20.4999C69.7999 20.7999 69.9 20.9999 69.9 20.9999L67.8 21.8999C67.8 21.8999 62.6999 25.5999 59.5999 27.9999C60.5999 24.7999 63.7 19.7999 63.7 19.7999C63.7 19.7999 64.5 17.4999 62.7 14.8999ZM50.2 92.7999C61.8 92.7999 65.6999 86.8999 65.6999 86.8999L63.9 91.2999C63.2 93.1999 55.9 99.0999 50.2 99.0999" fill="#999999"/>
<path d="M64.3999 82.9998C64.3999 82.9998 63.2999 89.4998 59.0999 89.4998C55.4999 89.4998 54.3999 83.9998 54.3999 82.8998L64.3999 82.9998ZM71.4999 73.1998C71.0999 72.1998 69.7999 67.8998 69.3999 64.0998C68.8999 59.4998 68.9999 52.7998 68.9999 52.7998C68.9999 52.7998 70.0999 57.1998 71.0999 57.8998C72.0999 58.5998 73.8999 63.3998 73.8999 63.3998C73.8999 63.3998 74.8999 70.5998 75.3999 72.9998C74.1999 73.2998 73.0999 72.4998 71.4999 73.1998ZM81.7999 44.6998C81.7999 44.6998 79.3999 43.7998 78.6999 38.5998C77.9999 33.2998 79.5999 28.7998 79.5999 28.7998C79.5999 28.7998 79.4999 35.9998 80.2999 37.4998C81.1999 38.8998 81.8999 39.2998 82.8999 41.1998C83.7999 42.9998 82.3999 44.0998 81.7999 44.6998Z" fill="#999999"/>
<path d="M78.8999 10.5998L79.3999 10.2998C80.8999 10.2998 78.8999 10.5998 78.8999 10.5998Z" fill="#C9C9C9"/>
<path d="M60.6998 13.3C60.6998 13.3 62.9998 12.9 64.0998 11.2C65.1998 9.5 68.4998 6.1 73.5998 6C78.6998 6 83.7998 7.4 83.7998 7.4L79.3998 10.2C78.8998 10.2 78.0998 10.2 76.7998 10.2C71.1998 10.4 70.3998 15.9 70.3998 15.9L50.7998 13.2" fill="#B2B2B2"/>
<path d="M58.7998 43.6998C58.7998 43.6998 61.4998 46.3998 65.4998 45.4998C69.5998 44.5998 71.9998 42.7998 72.1998 39.6998C72.3998 36.5998 71.2998 35.2998 71.2998 35.2998C71.2998 35.2998 66.7998 36.6998 64.5998 38.5998C62.4998 40.5998 60.8998 43.5998 58.7998 43.6998Z" fill="white"/>
<path d="M61.9999 42.7999C61.9999 42.7999 64.2999 43.8999 66.8999 42.9999C70.2999 41.8999 70.4999 38.3999 70.4999 38.3999C70.4999 38.3999 72.5999 44.4999 66.7999 45.5999C62.1999 46.4999 59.3999 43.7999 59.3999 43.7999L61.9999 42.7999Z" fill="#C9C9C9"/>
<path d="M77.0998 19.9998C78.9998 18.3998 77.5998 16.9998 77.6998 15.1998C77.7998 14.2998 77.8998 13.3998 78.1998 12.8998C79.8998 10.1998 83.9998 9.29981 83.9998 9.29981L85.8998 8.9998L84.5998 7.4998C84.3998 7.2998 79.1998 2.3998 71.1998 4.8998C65.5998 6.6998 61.3998 12.8998 61.2998 13.0998L64.0998 14.3998C64.0998 14.2998 67.3998 8.5998 72.2998 6.9998C76.1998 5.6998 79.7998 6.8998 81.2998 7.6998C79.6998 8.3998 77.4998 9.49981 76.1998 11.5998C75.5998 12.5998 75.4998 13.7998 75.3998 14.8998C75.2998 16.4998 75.0998 17.8998 73.9998 18.8998L77.0998 19.9998ZM82.0998 42.6998C82.0998 42.6998 79.6998 39.7998 78.9998 34.0998C78.6998 31.8998 79.1998 27.3998 79.9998 25.6998C79.8998 29.8998 80.8998 34.0998 80.8998 34.0998C80.8998 34.0998 81.6998 41.7998 82.0998 42.6998Z" fill="#343434"/>
<path d="M69.6 16.9999C69.6 16.9999 70.4 13.6999 72.5 11.9999C75.5 9.5999 79.1 10.8999 79.1 10.8999L79.6 9.2999C79.4 9.1999 75.3 7.8999 71.5 10.5999C67.7 13.2999 67.2 15.6999 67.2 15.9999L69.6 16.9999ZM74.7 40.5999C74.7 40.5999 75.9 38.7999 75.7 36.8999C75.6 35.8999 75.1 34.8999 74.3 34.5999C72.8 33.8999 72.2 35.5999 72.2 35.5999C72.2 35.5999 74.3 36.0999 74.7 40.5999Z" fill="#343434"/>
<path d="M61.0999 43.3002C60.9999 43.4002 60.9999 43.4002 60.9999 43.4002C60.9999 43.4002 64.8999 46.3002 68.7999 43.4002C70.8999 41.8002 70.6999 37.9002 70.0999 36.3002C68.3999 36.7002 66.9999 37.4002 65.7999 38.2002C67.2999 36.8002 68.5999 35.9002 68.5999 35.8002L70.2999 35.3002L73.5999 34.2002C73.5999 34.5002 74.8999 40.2002 71.2999 44.1002C69.6999 45.8002 62.3999 49.7002 58.8999 43.1002L61.0999 43.3002Z" fill="#343434"/>
<path d="M61.3999 43.6998C59.1999 46.9998 53.6999 45.0998 53.7999 41.5998C53.7999 41.5998 57.4999 43.5998 60.6999 39.8998C62.5999 37.6998 68.6999 31.6998 76.8999 33.6998C71.2999 34.9998 63.6999 40.1998 61.3999 43.6998Z" fill="#343434"/>
<path d="M77.6998 53.1C77.1998 53.4 75.2998 55.3 75.2998 58.2C75.2998 59.6 75.3998 66.8 76.1998 71.2C75.0998 71.9 74.3998 72 73.2998 72.7C72.7998 67.6 72.3998 60.2 72.5998 57.2C72.7998 53.8 74.5998 51.5 76.2998 50.5C76.7998 50.2 77.3998 49.9 77.8998 49.6C80.7998 48 83.7998 46.4 83.7998 43.7C83.7998 41.5 82.9998 40.9 82.0998 40.1H81.9998C81.3998 39.6 80.6998 39.1 80.2998 38.2C79.1998 35.8 78.9998 29.6 80.2998 28C80.8998 27.2 82.5998 24.6 82.0998 22.8C81.8998 22.1 81.4998 21.6 80.7998 21.3C80.0998 20.9 79.0998 20.7 77.8998 20.7C75.4998 20.7 72.8998 21.4 71.4998 21.9C66.5998 23.4 60.6998 27.9 58.9998 29.2L58.8998 29.3L57.7998 30.1L58.4998 29C58.4998 28.9 62.7998 21.9 70.4998 19.3C71.9998 18.8 74.8998 18 77.7998 18C79.4998 18 80.9998 18.3 82.0998 18.9C83.4998 19.6 84.4998 20.8 84.7998 22.2C85.7998 25.7 82.5998 29.7 82.4998 29.8C82.0998 30.5 81.9998 35.2 82.7998 37.1C82.8998 37.4 83.1998 37.6 83.5998 37.9C83.6998 38 83.8998 38.1 83.9998 38.2C85.1998 39.1 86.9998 40.5 86.9998 43.6C86.9998 47.9 82.5998 50.2 79.0998 52.1C78.7998 52.5 78.1998 52.8 77.6998 53.1Z" fill="#343434"/>
<path d="M72.4999 19.5001C71.7999 18.3001 69.9999 16.0001 65.8999 14.0001C61.2999 11.8001 56.0999 10.6001 50.1999 10.6001C44.2999 10.6001 39.0999 11.7001 34.4999 14.0001C30.3999 16.0001 28.5999 18.3001 27.8999 19.4001L27.5999 19.8001L31.0999 20.6001L31.1999 20.5001L31.2999 20.4001C31.3999 20.2001 31.7999 18.9001 35.6999 17.0001C39.8999 15.0001 44.6999 13.9001 50.1999 13.9001C55.5999 13.9001 60.4999 14.9001 64.6999 17.0001C68.5999 18.9001 69.0999 20.2001 69.0999 20.4001L69.1999 20.5001L69.2999 20.6001L72.7999 19.8001L72.4999 19.5001Z" fill="#343434"/>
<path d="M77.0998 19.9998C78.9998 18.3998 77.5998 16.9998 77.6998 15.1998C77.7998 14.2998 77.8998 13.3998 78.1998 12.8998C79.8998 10.1998 83.9998 9.29981 83.9998 9.29981L85.8998 8.9998L84.5998 7.4998C84.3998 7.2998 79.1998 2.3998 71.1998 4.8998C65.5998 6.6998 61.3998 12.8998 61.2998 13.0998L64.0998 14.3998C64.0998 14.2998 67.3998 8.5998 72.2998 6.9998C76.1998 5.6998 79.7998 6.8998 81.2998 7.6998C79.6998 8.3998 77.4998 9.49981 76.1998 11.5998C75.5998 12.5998 75.4998 13.7998 75.3998 14.8998C75.2998 16.4998 75.0998 17.8998 73.9998 18.8998L77.0998 19.9998Z" fill="#343434"/>
<path d="M73.4999 19.0998L73.8999 18.7998C74.9999 17.8998 75.0999 16.4998 75.1999 14.9998C75.2999 13.7998 75.3999 12.5998 76.0999 11.4998C77.2999 9.5998 79.1999 8.4998 80.6999 7.7998C79.7999 7.3998 77.9999 6.7998 75.8999 6.7998C74.6999 6.7998 73.5999 6.9998 72.4999 7.2998C67.9999 8.6998 64.8999 13.9998 64.4999 14.5998L64.3999 14.7998L61.0999 13.1998L61.2999 12.8998C61.2999 12.7998 65.4999 6.4998 71.3999 4.5998C72.9999 4.0998 74.4999 3.7998 76.0999 3.7998C81.6999 3.7998 85.0999 7.1998 85.0999 7.1998L86.6999 8.9998L84.2999 9.4998C84.2999 9.4998 80.2999 10.2998 78.5999 12.8998C78.2999 13.2998 78.2999 14.1998 78.1999 15.0998C78.1999 15.5998 78.2999 16.1998 78.3999 16.6998C78.5999 17.7998 78.8999 18.8998 77.4999 20.0998L77.3999 20.1998L73.4999 19.0998Z" fill="#343434"/>
<path d="M69.6 16.9999C69.6 16.9999 70.4 13.6999 72.5 11.9999C75.5 9.5999 79.1 10.8999 79.1 10.8999L79.6 9.2999C79.4 9.1999 75.3 7.8999 71.5 10.5999C67.7 13.2999 67.2 15.6999 67.2 15.9999L69.6 16.9999Z" fill="#343434"/>
<path d="M66.8999 16.2002V16.0002C66.8999 15.7002 67.3999 13.2002 71.2999 10.4002C72.8999 9.3002 74.8999 8.7002 76.8999 8.7002C78.4999 8.7002 79.4999 9.0002 79.6999 9.1002H79.9999L79.2999 11.3002L78.9999 11.2002C78.8999 11.2002 77.9999 10.9002 76.7999 10.9002C75.1999 10.9002 73.7999 11.4002 72.6999 12.3002C70.6999 13.9002 69.8999 17.1002 69.8999 17.1002L69.7999 17.4002L66.8999 16.2002ZM78.8999 10.6002L79.1999 9.5002C78.7999 9.4002 77.9999 9.2002 76.8999 9.2002C74.8999 9.2002 73.1999 9.7002 71.5999 10.8002C68.3999 13.1002 67.5999 15.1002 67.3999 15.8002L69.2999 16.6002C69.5999 15.7002 70.3999 13.2002 72.1999 11.8002C73.3999 10.8002 74.9999 10.3002 76.6999 10.3002C77.6999 10.3002 78.4999 10.5002 78.8999 10.6002ZM57.0999 87.1002C55.5999 85.5002 54.7999 83.9002 54.5999 83.3002C54.4999 83.0002 54.2999 82.4002 54.7999 82.0002C55.0999 81.7002 55.6999 81.5002 56.4999 81.5002H57.6999C58.9999 81.5002 60.4999 81.5002 61.3999 81.5002H62.1999C63.2999 81.5002 63.7999 81.8002 63.9999 82.1002C64.3999 82.5002 64.3999 83.0002 64.1999 83.6002C63.4999 85.3002 61.9999 86.7002 61.4999 87.1002C60.8999 87.6002 60.0999 87.9002 59.1999 87.9002C58.3999 87.9002 57.5999 87.6002 57.0999 87.1002ZM58.3999 43.9002L61.3999 43.7002C61.3999 43.7002 60.5999 45.1002 60.0999 46.8002C59.4999 48.8002 60.5999 51.7002 60.5999 51.7002C60.5999 51.7002 56.5999 47.2002 58.3999 43.9002Z" fill="#343434"/>
<path d="M50.1999 33.1002C48.2999 33.1002 45.7999 33.0002 43.8999 31.7002C43.8999 31.7002 46.3999 36.0002 50.1999 36.0002C54.0999 36.0002 56.4999 31.7002 56.4999 31.7002C54.6999 33.0002 52.1999 33.1002 50.1999 33.1002Z" fill="#999999"/>
<path d="M55.4999 33.1001C53.5999 34.3001 51.7999 34.7001 50.1999 34.7001C48.4999 34.7001 46.7999 34.3001 44.8999 33.1001C44.8999 33.1001 47.6999 36.5001 50.1999 36.6001C52.6999 36.5001 55.4999 33.1001 55.4999 33.1001ZM62.1999 95.9001L61.9999 93.1001C71.0999 92.4001 73.9999 83.7001 73.9999 82.8001H76.7999C76.6999 84.9001 72.8999 95.1001 62.1999 95.9001Z" fill="#343434"/>
<path d="M65.2 77.7001C65.4 76.7001 65.4 75.8001 65.2 74.9001C66 74.3001 67.5 74.1001 68.6 73.7001C69.5 73.1001 74.1 74.3001 77.5 70.2001C81.7 65.1001 80.8 62.1001 80.8 62.1001C81.9 63.3001 82.9 62.8001 84.6 68.4001C86.2 74.0001 83.8 77.9001 79.3 81.8001C77.2 83.6001 74.2 84.4001 71.6 84.7001C72.5 83.8001 70.1 83.7001 68.5 83.1001C68.6 81.8001 68.4 80.5001 67.4 79.5001C66.8 78.9001 66.1 78.5001 65.3 78.2001C65.3 78.1001 65.2 78.0001 65.2 77.9001C65.2 77.9001 65.2 77.8001 65.2 77.7001Z" fill="white"/>
<path d="M68.5 83.1C68.6 82.8 68.7 82.5 68.7 82.3C68.8 82 69.1 81.1 68.7 82.1C68.8 81.8 68.9 81.6 69 81.3C76.3 81.3 82.6 76.3 81.4 65.8C82.4 64.5 83.7 68.4 83.7 68.4C83.7 68.4 87.3 79 77.9 83.1C74.8 84.5 72 85.5 71.3 85.1C69.9 85.4 68.7 84.4 68.2 83.8C68.3 83.5 68.4 83.3 68.5 83.1Z" fill="#C9C9C9"/>
<path d="M65.2999 76.1998C65.2999 75.2998 65.0999 74.4998 64.6999 73.5998C64.6999 73.4998 64.5999 73.4998 64.5999 73.3998C67.3999 73.3998 70.5999 73.0998 73.3999 71.9998C76.3999 70.7998 80.1999 66.6998 80.8999 61.7998C80.8999 61.7998 86.5999 66.1998 84.8999 75.5998C83.2999 84.3998 75.8999 87.2998 67.4999 87.7998C67.4999 87.6998 68.3999 85.7998 68.0999 84.5998C72.8999 84.8998 78.1999 83.0998 80.7999 78.8998C83.1999 74.9998 82.4999 68.3998 81.4999 67.3998C79.1999 74.7998 70.6999 76.2998 65.2999 76.1998Z" fill="#343434"/>
<path d="M68.7 78.4C67.7 77.3 65.8 76 61.6 76H50.2C46.9 76 38.8 76 38.8 76C34.5 76 32.7 77.3 31.7 78.4C30.3 80 30 82.2 31 84.9C33.7 92.2 37.5 99.7 50.2 99.7C62.9 99.7 66.7 92.2 69.4 84.9C70.4 82.2 70.2 80 68.7 78.4ZM66.8 84.4C65.5 88.1 62 97 50.2 97C38.4 97 35 88.1 33.7 84.4C33 82.4 33 80.8 33.9 79.9C34.5 79.3 35.8 78.5 38.7 78.5H41.8C44.1 78.5 46.9 78.5 50.3 78.5C53.7 78.5 56.5 78.5 58.8 78.5H61.9C64.8 78.5 66.1 79.3 66.7 79.9C67.4 80.8 67.5 82.4 66.8 84.4Z" fill="#343434"/>
<path d="M64.4 70.8002C65.9 75.2002 69 78.8002 69 78.8002C69 78.8002 64.7 78.6002 64.5 77.9002C64.3 77.3002 60.7 68.7002 59.2 58.7002C60.6 60.9002 64.3 70.4002 64.4 70.8002Z" fill="#343434"/>
</g>
</svg>
