<svg width="100" height="100" viewBox="0 0 100 100" fill="none" xmlns="http://www.w3.org/2000/svg">
<g clip-path="url(#clip0_755_20387)">
<path d="M0 0H100V100H0V0Z" fill="#6F6F6F"/>
<path d="M34.6 50.7002C34.6 50.8002 34.5 51.0002 34.3 51.3002C34.2 51.7002 34 52.1002 33.9 52.7002C33.7 53.2002 33.5 53.9002 33.3 54.5002C33.1 55.2002 32.9 55.9002 32.7 56.6002C32.5 57.3002 32.3 58.0002 32.1 58.7002C31.9 59.4002 31.7 60.0002 31.6 60.5002C31.4 61.0002 31.3 61.5002 31.2 61.9002C31.1 62.3002 31 62.5002 31 62.6002C30.9 62.8002 30.9 63.1002 30.7 63.3002C30.6 63.6002 30.4 63.8002 30.3 64.1002C30.1 64.3002 29.9 64.5002 29.7 64.7002C29.5 64.9002 29.3 64.9002 29.1 64.9002C28.7 64.9002 28.5 64.8002 28.3 64.5002C28.1 64.3002 28 63.8002 28 63.2002V62.9002C28 62.8002 28 62.7002 28 62.6002C28 62.4002 28.1 62.0002 28.3 61.4002C28.5 60.8002 28.7 60.1002 28.9 59.4002C29.1 58.7002 29.4 57.9002 29.6 57.0002C29.9 56.2002 30.1 55.5002 30.3 54.8002C29.7 55.5002 29 56.2002 28.3 56.8002C27.6 57.5002 26.9 58.1002 26.1 58.6002C25.4 59.1002 24.6 59.6002 23.8 59.9002C23 60.2002 22.3 60.4002 21.6 60.4002C20.8 60.4002 20.1 60.2002 19.5 59.9002C18.9 59.5002 18.4 59.1002 18.1 58.5002C17.7 57.9002 17.4 57.3002 17.3 56.6002C17.1 55.9002 17 55.2002 17 54.4002V54.1002C17 54.0002 17 53.9002 17 53.9002C17.1 52.6002 17.3 51.2002 17.6 49.9002C17.9 48.5002 18.3 47.2002 18.8 45.8002C19.3 44.4002 19.9 43.1002 20.5 41.8002C21.2 40.5002 21.9 39.3002 22.6 38.1002C23.4 36.9002 24.2 35.9002 25 34.9002C25.9 33.9002 26.7 33.1002 27.7 32.4002C28.6 31.7002 29.5 31.2002 30.5 30.8002C31.4 30.4002 32.3 30.2002 33.3 30.2002C34.3 30.2002 35.4 30.5002 36.3 31.1002C37.3 31.7002 38.2 32.6002 39 33.9002C39.2 34.2002 39.3 34.5002 39.4 34.8002C39.5 35.1002 39.5 35.4002 39.5 35.6002C39.5 36.2002 39.4 36.7002 39.1 37.1002C38.8 37.5002 38.5 37.6002 38.1 37.6002C37.7 37.6002 37.4 37.4002 37.1 37.0002C36.8 36.6002 36.4 36.1002 36 35.3002C35.6 34.6002 35.2 34.2002 34.8 33.9002C34.4 33.6002 33.9 33.5002 33.4 33.5002C32.6 33.5002 31.7 33.8002 30.8 34.5002C29.9 35.2002 29 36.1002 28.1 37.1002C27.2 38.2002 26.3 39.5002 25.5 40.9002C24.7 42.3002 23.9 43.8002 23.3 45.2002C22.7 46.7002 22.2 48.1002 21.8 49.6002C21.4 51.0002 21.2 52.3002 21.2 53.5002C21.2 53.9002 21.2 54.3002 21.3 54.7002C21.4 55.1002 21.4 55.5002 21.6 55.8002C21.7 56.1002 21.9 56.4002 22.2 56.6002C22.4 56.8002 22.8 56.9002 23.1 56.9002C23.5 56.9002 24 56.8002 24.5 56.5002C25 56.2002 25.6 55.8002 26.2 55.4002C26.8 54.9002 27.4 54.4002 28 53.8002C28.6 53.2002 29.1 52.6002 29.6 52.0002C30.1 51.4002 30.6 50.8002 30.9 50.3002C31.3 49.7002 31.6 49.3002 31.8 48.9002L33.4 44.1002C33.6 43.6002 33.9 43.2002 34.2 43.0002C34.5 42.8002 34.8 42.7002 35.2 42.7002C35.4 42.7002 35.5 42.7002 35.7 42.8002C35.9 42.9002 36 42.9002 36.1 43.1002C36.2 43.2002 36.3 43.4002 36.4 43.6002C36.5 43.8002 36.5 44.0002 36.5 44.2002C36.5 44.9002 36.4 45.5002 36.3 46.0002C36.2 46.6002 36 47.1002 35.9 47.7002C35.7 48.2002 35.5 48.8002 35.3 49.3002C35 49.5002 34.8 50.1002 34.6 50.7002ZM56.4 54.7002C55.9 55.4002 55.3 56.0002 54.6 56.7002C53.9 57.3002 53.2 57.9002 52.5 58.4002C51.8 58.9002 51.1 59.3002 50.4 59.6002C49.7 59.9002 49.1 60.1002 48.5 60.1002C47.9 60.1002 47.5 59.9002 47.2 59.5002C46.9 59.1002 46.7 58.5002 46.7 57.6002C46.7 57.0002 46.8 56.2002 47 55.4002C46.7 55.9002 46.3 56.5002 45.9 57.0002C45.5 57.5002 44.9 58.0002 44.4 58.5002C43.8 59.0002 43.2 59.3002 42.5 59.6002C41.8 59.9002 41 60.0002 40.2 60.0002C39.8 60.0002 39.5 60.0002 39.1 59.9002C38.7 59.8002 38.4 59.6002 38.2 59.4002C37.9 59.2002 37.7 58.9002 37.6 58.5002C37.4 58.1002 37.4 57.6002 37.4 57.0002C37.4 57.0002 37.4 56.8002 37.5 56.4002C37.5 56.0002 37.7 55.4002 37.9 54.5002C38.1 53.6002 38.5 52.5002 39 51.1002C39.5 49.7002 40.2 48.1002 41.2 46.1002C41.4 45.6002 41.7 45.2002 42 45.0002C42.3 44.8002 42.7 44.7002 43 44.7002C43.2 44.7002 43.3 44.7002 43.5 44.8002C43.7 44.8002 43.8 44.9002 44 45.0002C44.1 45.1002 44.3 45.2002 44.4 45.4002C44.5 45.6002 44.5 45.7002 44.5 45.9002C44.5 46.0002 44.5 46.2002 44.4 46.3002C44.3 46.5002 44.2 46.8002 44 47.2002C43.8 47.6002 43.6 48.0002 43.3 48.5002C43 49.0002 42.8 49.5002 42.5 50.1002C42.2 50.7002 42 51.2002 41.7 51.8002C41.5 52.4002 41.3 53.0002 41.1 53.6002C40.9 54.2002 40.8 54.8002 40.8 55.4002C40.8 55.6002 40.9 55.9002 41 56.1002C41.1 56.3002 41.3 56.4002 41.6 56.4002C42.3 56.4002 43.1 56.2002 43.7 55.7002C44.4 55.2002 45 54.6002 45.6 53.9002C46.2 53.2002 46.7 52.4002 47.2 51.5002C47.7 50.7002 48.1 49.9002 48.4 49.2002C48.6 48.7002 48.8 48.2002 49 47.7002C49.2 47.2002 49.3 46.7002 49.5 46.2002C49.7 45.7002 49.9 45.4002 50.2 45.1002C50.5 44.8002 50.8 44.6002 51.1 44.6002C51.5 44.6002 51.8 44.8002 52.1 45.1002C52.3 45.4002 52.5 45.8002 52.5 46.2002C52.5 46.4002 52.4 46.8002 52.3 47.2002C52.1 47.6002 51.9 48.1002 51.7 48.7002C51.5 49.3002 51.2 49.8002 50.9 50.5002C50.6 51.1002 50.4 51.8002 50.1 52.4002C49.9 53.0002 49.7 53.7002 49.5 54.3002C49.3 54.9002 49.3 55.5002 49.3 56.0002C49.3 56.5002 49.6 56.7002 50.1 56.7002C50.5 56.7002 50.9 56.6002 51.4 56.3002C51.9 56.0002 52.5 55.7002 53.1 55.3002C53.7 54.9002 54.3 54.3002 54.8 53.7002C55.4 53.1002 55.9 52.5002 56.3 51.8002L56.4 54.7002Z" fill="white" stroke="white" stroke-width="0.2641" stroke-miterlimit="10"/>
<path d="M56.9 53.7001C56.8 54.0001 56.6 54.4001 56.5 54.8001C56.4 55.2001 56.2999 55.6001 56.2999 55.9001C56.2999 56.1001 56.3 56.3001 56.4 56.4001C56.5 56.5001 56.5999 56.6001 56.7999 56.6001C56.9999 56.6001 57.3 56.5001 57.7 56.3001C58.1 56.1001 58.5 55.9001 58.9 55.6001C59.3 55.3001 59.8 55.0001 60.2 54.6001C60.7 54.2001 61.0999 53.9001 61.5999 53.5001C61.9999 53.1001 62.5 52.7001 62.9 52.3001C63.3 51.9001 63.7 51.6001 64 51.2001C64.1 51.1001 64.2 51.0001 64.3 51.0001C64.4 51.0001 64.4999 50.9001 64.5999 50.9001C64.7999 50.9001 64.9999 51.0001 65.1999 51.2001C65.2999 51.4001 65.4 51.6001 65.4 52.0001C65.4 52.3001 65.2999 52.6001 65.1999 53.0001C64.9999 53.4001 64.8 53.7001 64.4 54.0001C63.7 54.8001 62.9 55.6001 62.2 56.3001C61.5 57.0001 60.7 57.7001 60 58.2001C59.3 58.8001 58.4999 59.2001 57.7999 59.5001C57.0999 59.8001 56.4 60.0001 55.7 60.0001C55.2 60.0001 54.8 59.9001 54.5 59.8001C54.2 59.6001 53.9 59.4001 53.7 59.2001C53.5 58.9001 53.3999 58.6001 53.2999 58.3001C53.1999 58.0001 53.2 57.6001 53.2 57.2001C53.2 56.5001 53.3 55.8001 53.5 55.1001C53.7 54.4001 53.8999 53.8001 54.0999 53.2001C54.4999 52.1001 54.8999 51.1001 55.2999 50.0001C55.6999 49.0001 56.1 48.0001 56.4 47.1001L61.5 34.0001C61.7 33.5001 61.9999 33.1001 62.2999 32.9001C62.6999 32.7001 63 32.6001 63.4 32.6001C63.8 32.6001 64.1 32.7001 64.4 32.9001C64.7 33.1001 64.8 33.5001 64.8 34.0001C64.8 34.2001 64.7999 34.5001 64.6999 34.8001C64.5999 35.1001 64.5 35.4001 64.3 35.7001C64 36.3001 63.6999 37.1001 63.2999 38.1001C62.9 39.0001 62.5 40.0001 62 41.1001C61.5 42.2001 61.0999 43.3001 60.5999 44.5001C60.0999 45.7001 59.7 46.8001 59.2 47.9001C58.8 49.0001 58.3 50.0001 57.9 51.0001C57.5 52.0001 57.2 52.9001 56.9 53.7001Z" fill="white" stroke="white" stroke-width="0.2641" stroke-miterlimit="10"/>
<path d="M81.4001 49.9002C81.6001 49.8002 81.7001 49.7002 81.8001 49.6002C81.9001 49.5002 82.1 49.5002 82.2 49.5002C82.5 49.5002 82.6001 49.6002 82.8001 49.8002C82.9001 50.0002 83 50.3002 83 50.6002C83 51.0002 82.9001 51.3002 82.8001 51.7002C82.6001 52.1002 82.4 52.4002 82.1 52.6002C80.9 53.7002 79.8001 54.7002 78.8001 55.6002C77.8001 56.5002 76.9 57.3002 76.1 57.9002C75.2 58.5002 74.4 59.0002 73.6 59.4002C72.8 59.8002 71.9 59.9002 71 59.9002C70.1 59.9002 69.4 59.7002 69 59.3002C68.5 58.9002 68.3001 58.4002 68.3001 57.7002V57.5002C68.3001 57.5002 68.3001 57.4002 68.3001 57.3002C68.3001 56.9002 68.5001 56.4002 68.8001 55.9002C69.1001 55.4002 69.5001 54.8002 69.9001 54.2002C70.3001 53.6002 70.8001 53.0002 71.3001 52.5002C71.8001 51.9002 72.3 51.4002 72.7 50.8002C73.1 50.3002 73.5 49.8002 73.7 49.4002C74 49.0002 74.1 48.6002 74.1 48.3002C74.1 48.1002 74.0001 48.0002 73.9001 47.9002C73.8001 47.8002 73.6001 47.8002 73.3001 47.8002C72.8001 47.8002 72.4001 47.9002 71.9001 48.2002C71.4001 48.4002 70.9 48.8002 70.5 49.2002C70 49.6002 69.6 50.1002 69.1 50.6002C68.6 51.1002 68.2001 51.7002 67.8001 52.2002C67.4001 52.7002 67 53.3002 66.7 53.9002C66.4 54.5002 66.1001 55.0002 65.9001 55.5002C65.8001 55.7002 65.7 55.9002 65.6 56.1002C65.5 56.4002 65.3 56.7002 65.2 57.0002C65 57.3002 64.9 57.7002 64.7 58.1002C64.5 58.5002 64.4 58.8002 64.2 59.1002C64.1 59.4002 63.9 59.7002 63.8 60.0002C63.7 60.3002 63.6 60.4002 63.6 60.5002C63.5 60.6002 63.4 60.9002 63.3 61.2002C63.2 61.5002 63 61.9002 62.8 62.4002C62.6 62.9002 62.4 63.3002 62.3 63.8002C62.1 64.3002 61.9 64.8002 61.8 65.2002C61.6 65.7002 61.5001 66.0002 61.4001 66.4002C61.3001 66.7002 61.2001 67.0002 61.2001 67.1002C61.1001 67.5002 60.9 67.8002 60.8 68.1002C60.6 68.4002 60.5 68.7002 60.3 68.9002C60.1 69.1002 59.9 69.3002 59.6 69.5002C59.3 69.6002 59.0001 69.7002 58.7001 69.7002C58.3001 69.7002 57.9001 69.6002 57.7001 69.4002C57.4001 69.2002 57.3 68.8002 57.3 68.3002C57.3 68.0002 57.3001 67.7002 57.4001 67.5002C57.5001 67.2002 57.6001 66.9002 57.7001 66.7002C57.8001 66.4002 57.9 66.1002 58 65.9002C58.1 65.6002 58.2 65.4002 58.3 65.1002C58.9 63.7002 59.6001 62.4002 60.2001 61.0002C60.8001 59.6002 61.5 58.3002 62.1 56.9002C62.7 55.6002 63.2001 54.2002 63.7001 52.9002C64.2001 51.6002 64.6 50.4002 65 49.2002C65.1 49.0002 65.2001 48.6002 65.4001 48.2002C65.6001 47.7002 65.7 47.3002 66 46.9002C66.2 46.5002 66.4 46.1002 66.7 45.8002C67 45.5002 67.2 45.3002 67.5 45.3002C68 45.3002 68.3 45.4002 68.5 45.6002C68.7 45.8002 68.8001 46.1002 68.8001 46.5002C68.8001 46.6002 68.8001 46.7002 68.8001 46.9002C68.8001 47.1002 68.7 47.3002 68.7 47.5002C68.7 47.7002 68.6 47.9002 68.6 48.1002C68.6 48.3002 68.5 48.4002 68.5 48.5002C68.9 48.0002 69.4001 47.6002 69.9001 47.1002C70.4001 46.6002 70.9001 46.2002 71.4001 45.9002C71.9001 45.5002 72.5 45.2002 73 45.0002C73.6 44.8002 74.1 44.7002 74.7 44.7002C75.1 44.7002 75.5001 44.8002 75.8001 44.9002C76.2001 45.0002 76.5001 45.2002 76.8001 45.4002C77.1001 45.6002 77.3 45.9002 77.5 46.2002C77.7001 46.5002 77.8001 46.9002 77.8001 47.3002C77.8001 47.9002 77.7001 48.5002 77.4001 49.1002C77.1001 49.7002 76.8001 50.4002 76.3001 51.0002C75.9001 51.6002 75.4001 52.3002 74.9001 52.9002C74.4001 53.5002 73.9 54.1002 73.5 54.6002C73.1 55.1002 72.7001 55.5002 72.4001 55.9002C72.1001 56.2002 72.0001 56.5002 71.9001 56.6002C71.9001 56.8002 72 56.9002 72.1 57.0002C72 57.0002 72.2001 57.0002 72.4001 57.0002C72.6001 57.0002 72.9001 56.9002 73.3001 56.7002C73.7001 56.5002 74.2001 56.1002 74.9001 55.6002C75.6001 55.1002 76.5 54.3002 77.5 53.4002C78.5 52.5002 79.8001 51.3002 81.4001 49.9002Z" fill="white" stroke="white" stroke-width="0.2641" stroke-miterlimit="10"/>
</g>
<defs>
<clipPath id="clip0_755_20387">
<rect width="100" height="100" fill="white"/>
</clipPath>
</defs>
</svg>
