<svg width="100" height="100" viewBox="0 0 100 100" fill="none" xmlns="http://www.w3.org/2000/svg">
<g clip-path="url(#clip0_755_20396)">
<path d="M19.8 62.1002L80.8 41.7002C79.6 34.1002 78.6999 29.0002 77.6999 25.1002C76.5999 20.9002 75.8 19.8002 75.4 19.4002C74.2 18.1002 72.7999 17.0002 71.0999 16.3002C70.5999 16.1002 69.2999 15.6002 65 15.9002C60.4 16.2002 54.5 17.1002 45 18.6002C35.5 20.1002 29.6 21.1002 25.1 22.2002C20.9 23.3002 19.8 24.1002 19.4 24.5002C18.1 25.7002 17 27.1002 16.3 28.8002C16.1 29.3002 15.6 30.6002 15.9 34.9002C16.2 39.5002 17.1 45.4002 18.6 54.9002C19.1 57.6002 19.4 60.0002 19.8 62.1002Z" fill="url(#paint0_linear_755_20396)"/>
<path fill-rule="evenodd" clip-rule="evenodd" d="M3.00007 57.3998C0.100065 39.0998 -1.39993 29.9998 1.80007 22.5998C3.40007 18.7998 5.90007 15.2998 9.10007 12.5998C15.1001 7.29982 24.3001 5.89982 42.6001 2.99982C60.9001 0.0998213 70.0001 -1.40018 77.4001 1.79982C81.2001 3.39982 84.7001 5.89982 87.4001 9.09982C92.7001 15.0998 94.1001 24.2998 97.0001 42.5998C99.9001 60.8998 101.4 70.0998 98.2001 77.3998C96.6001 81.1998 94.1001 84.6998 90.9001 87.3998C84.9001 92.6998 75.7001 94.0998 57.4001 96.9998C39.1001 99.8998 29.9001 101.4 22.6001 98.1998C18.8001 96.5998 15.3001 94.0998 12.6001 90.8998C7.30007 84.8998 5.90007 75.7998 3.00007 57.3998ZM35.3001 89.9998C40.2001 89.6998 46.5001 88.6998 55.9001 87.1998C65.3001 85.6998 71.6001 84.6998 76.3001 83.4998C80.9001 82.2998 83.0001 81.0998 84.4001 79.8998C86.4001 78.0998 88.0001 75.8998 89.1001 73.4998C89.8001 71.7998 90.3001 69.3998 90.0001 64.6998C89.7001 59.7998 88.7001 53.4998 87.2001 44.0998C85.7001 34.6998 84.7001 28.3998 83.5001 23.6998C82.3001 19.0998 81.1001 16.9998 79.9001 15.5998C78.1001 13.5998 75.9001 11.9998 73.5001 10.8998C71.8001 10.1998 69.4001 9.69982 64.7001 9.99982C59.8001 10.2998 53.5001 11.2998 44.1001 12.7998C34.7001 14.2998 28.4001 15.2998 23.7001 16.4998C19.1001 17.6998 17.0001 18.8998 15.6001 20.0998C13.6001 21.8998 12.0001 24.0998 10.9001 26.4998C10.2001 28.1998 9.70007 30.5998 10.0001 35.2998C10.3001 40.1998 11.3001 46.4998 12.8001 55.8998C14.3001 65.2998 15.3001 71.5998 16.5001 76.2998C17.7001 80.8998 18.9001 82.9998 20.1001 84.3998C21.9001 86.3998 24.1001 87.9998 26.5001 89.0998C28.2001 89.7998 30.5001 90.2998 35.3001 89.9998Z" fill="url(#paint1_linear_755_20396)"/>
</g>
<defs>
<linearGradient id="paint0_linear_755_20396" x1="41.9137" y1="-0.440104" x2="57.7882" y2="98.7414" gradientUnits="userSpaceOnUse">
<stop stop-color="#C1C1C1"/>
<stop offset="1" stop-color="#787878"/>
</linearGradient>
<linearGradient id="paint1_linear_755_20396" x1="41.9137" y1="-0.440478" x2="57.7881" y2="98.741" gradientUnits="userSpaceOnUse">
<stop stop-color="#C1C1C1"/>
<stop offset="1" stop-color="#787878"/>
</linearGradient>
<clipPath id="clip0_755_20396">
<rect width="100" height="100" fill="white"/>
</clipPath>
</defs>
</svg>
