<svg width="100" height="100" viewBox="0 0 100 100" fill="none" xmlns="http://www.w3.org/2000/svg">
<path d="M85.8 0H14C9 0 5 4 5 9V91C5 96 9 100 14 100H85.8C90.8 100 94.8 96 94.8 91V9C94.8 4 90.8 0 85.8 0ZM89.8 91C89.8 93.2 88 95 85.8 95H14C11.8 95 10 93.2 10 91V9C10 6.8 11.8 5 14 5H85.8C88 5 89.8 6.8 89.8 9V91ZM27.5 85L38.7 75L27.5 65V85ZM68 44.5C66 42.5 62.2 40 56 40C49.2 40 42.2 41.8 37.2 43.5V15H27.2V58.2L34.2 55C34.2 55 45.7 49.8 55.7 49.8C60.7 49.8 61.9 52.6 61.9 55V85H71.9V55C72.2 54.3 72.2 48.8 68 44.5ZM54.8 31.3H64.8C69.3 26.1 71.6 20.8 72.3 15.1H62.3C61.2 20.8 58.8 26 54.8 31.3Z" fill="#252525"/>
</svg>
