<svg width="100" height="100" viewBox="0 0 100 100" fill="none" xmlns="http://www.w3.org/2000/svg">
<mask id="mask0_755_20402" style="mask-type:luminance" maskUnits="userSpaceOnUse" x="17" y="0" width="67" height="100">
<path d="M83.4 0H17V100H83.4V0Z" fill="white"/>
</mask>
<g mask="url(#mask0_755_20402)">
<path fill-rule="evenodd" clip-rule="evenodd" d="M44.5 18.5999C44.8 9.8999 41.9 4.7999 33.5 1.3999C31.1 9.7999 40.9 17.4999 44.5 18.5999Z" fill="#D3D3D3" stroke="black" stroke-width="1.7675" stroke-linejoin="round"/>
<path fill-rule="evenodd" clip-rule="evenodd" d="M67.3 33.3C67.6 26.2 65.8 23.3 64.4 21.3C63 19.4 59.7 16.4 55.7 16.2C51.9 16.1 51 18.2 47.4 18.3C46.8 11.9 51.7 8.4 51.7 8.4C51.7 8.4 50.4 6.5 49.3 6C47.7 7.4 43.4 12.1 44.4 18.1C41.2 17.5 38.9 15.6 35.5 16.3C30.9 17.2 27 20 24.9 26.2C22.7 32.4 25.7 39.5 26.3 41.6C26.9 43.7 31.7 52.4 35.4 53.6C39.1 54.9 39.1 54.3 41.1 53.5C43.1 52.7 46.1 51.3 50.5 52.9C54.9 54.5 55.5 54.9 58.2 53.1C61 51.3 64.5 45.7 65.4 44.1C66.2 42.5 66.7 41.7 66.9 40.8C69.6 39.6 67 39.6 67.3 33.3Z" fill="#D3D3D3" stroke="black" stroke-width="1.7675" stroke-linejoin="round"/>
<path d="M74.5 85.2998C75.4 85.2998 76.2 85.0998 77 84.7998C77.8 84.4998 78.5 83.9998 79.2 83.3998C79.8 82.7998 80.3 81.9998 80.6 81.1998C80.9 80.3998 81.1 79.4998 81.1 78.6998C81.1 71.9998 81.1 61.4998 81.1 54.7998C81.1 52.9998 80.4 51.2998 79.2 50.0998C78 48.8998 76.3 48.1998 74.5 48.1998H69C68.6 48.1998 68.2 47.9998 68 47.7998C67.7 47.4998 67.6 47.0998 67.6 46.7998V43.2998H24.3L24.4 94.2998C24.4 94.4998 24.5 94.7998 24.6 94.9998C24.7 95.1998 24.9 95.3998 25.1 95.4998C27 96.5998 33.2 98.6998 46.1 98.6998C59.3 98.6998 65.2 95.8998 66.9 94.5998C67.1 94.4998 67.2 94.2998 67.3 94.0998C67.4 93.8998 67.4 93.6998 67.4 93.4998C67.4 92.0998 67.4 88.7998 67.4 86.8998C67.4 86.6998 67.4 86.4998 67.5 86.2998C67.6 86.0998 67.7 85.9998 67.8 85.7998C67.9 85.6998 68.1 85.5998 68.3 85.4998C68.5 85.3998 68.7 85.3998 68.9 85.3998C70.7 85.2998 72.6 85.2998 74.5 85.2998ZM67.5 55.7998C67.5 55.2998 67.7 54.7998 68 54.4998C68.3 54.1998 68.8 53.9998 69.3 53.9998H74C74.5 53.9998 75 54.1998 75.3 54.4998C75.6 54.7998 75.8 55.2998 75.8 55.7998V77.2998C75.8 77.7998 75.6 78.2998 75.3 78.5998C75 78.8998 74.5 79.0998 74 79.0998H69.3C68.8 79.0998 68.3 78.8998 68 78.5998C67.7 78.2998 67.5 77.7998 67.5 77.2998V55.7998Z" fill="white" stroke="black" stroke-width="1.7675" stroke-linejoin="round"/>
<path fill-rule="evenodd" clip-rule="evenodd" d="M28.6 42.6997V88.4997C28.6 88.9997 28.9 89.4997 29.3 89.7997C31.2 90.6997 36.6 92.7997 46.1 92.7997C55.7 92.7997 60.9 90.1997 62.7 89.1997C62.9 89.0997 63.1 88.8997 63.2 88.6997C63.3 88.4997 63.4 88.1997 63.4 87.9997C63.4 81.8997 63.4 42.7997 63.4 42.7997H28.6V42.6997Z" fill="#BABABA"/>
<path d="M33.7 50.3999V85.7999" stroke="#DEDEDE" stroke-width="4.0672" stroke-linecap="round"/>
<path fill-rule="evenodd" clip-rule="evenodd" d="M53.4 52.0999C53.4 51.3999 53 50.4999 52.3 49.9999C51.1 49.2999 50.2 48.1999 49.7 46.8999C40.3 47.1999 31.6 45.5999 27.3 44.3999C26.2 44.0999 25.1 43.7999 23.9 43.5999C21.3 43.0999 19.3 40.7999 19.3 38.0999C19.3 35.0999 21.7 32.5999 24.7 32.4999C25.3 29.2999 28.1 26.8999 31.4 26.8999C35.2 26.8999 38.2 29.9999 38.2 33.6999C38.2 34.4999 38.1 35.2999 37.8 35.9999C38.6 33.3999 41.1 31.3999 44 31.3999C46.9 31.3999 49.4 33.2999 50.2 35.8999C50.2 35.6999 50.2 35.3999 50.2 35.1999C50.2 31.2999 53.4 28.0999 57.3 28.0999C60.5 28.0999 63.2 30.1999 64.1 33.0999L64.7 32.8999C65.5 32.3999 66.5 32.1999 67.4 32.1999C70.5 32.1999 73 34.6999 73 37.7999C73 40.5999 70.9 42.9999 68.2 43.2999C67.6 43.3999 67 43.4999 66.4 43.7999C64.8 44.3999 63.1 44.8999 61.4 45.2999C61.3 46.0999 61.1 46.8999 60.7 47.5999C60 48.8999 59.7 50.2999 59.8 51.7999C59.8 51.8999 59.8 52.2999 59.8 52.3999C59.8 54.1999 58.3 55.2999 56.5 55.2999C56.1 55.2999 55.6 55.1999 55.2 54.9999C54.8 54.7999 54.4 54.5999 54.1 54.2999C53.8 53.9999 53.5 53.5999 53.4 53.1999C53.5 52.8999 53.4 52.4999 53.4 52.0999Z" fill="white" stroke="black" stroke-width="1.7675" stroke-linecap="round" stroke-linejoin="round"/>
</g>
</svg>
