<svg width="100" height="100" viewBox="0 0 100 100" fill="none" xmlns="http://www.w3.org/2000/svg">
<mask id="mask0_755_20430" style="mask-type:luminance" maskUnits="userSpaceOnUse" x="0" y="2" width="100" height="96">
<path d="M100 2H0V97.2H100V2Z" fill="white"/>
</mask>
<g mask="url(#mask0_755_20430)">
<path d="M98.8 67V70.5V73.4C98.8 75.5 98.6 77.6 98.2 79.7C97.7 82.9 96.4 85.9 94.5 88.5C92.6 91.1 90.1 93.2 87.2 94.6C85.3 95.6 83.2 96.2 81.1 96.6C79 97 76.8 97.1 74.7 97.2C70.6 97.2 69.4 97.2 68.2 97.2H30.6C26.1 97.2 25.1 97.2 24.2 97.2C22.1 97.1 19.9 97 17.8 96.6C15.7 96.2 13.6 95.6 11.7 94.6C8.8 93.1 6.3 91 4.4 88.5C2.5 86 1.2 82.9 0.7 79.7C0.3 77.6 0.2 75.5 0.1 73.4C0.1 72.4 0.1 71.5 0.1 70.5L0 67V32.2V28.7V25.8C0.1 23.7 0.2 21.6 0.6 19.5C1.1 16.3 2.4 13.3 4.3 10.7C6.2 8.1 8.7 6 11.6 4.6C13.5 3.6 15.6 3 17.7 2.6C19.8 2.2 22 2.1 24.1 2C28.2 2 29.4 2 30.6 2H67.3H53H68.2C72.7 2 73.7 2 74.7 2C76.8 2.1 79 2.2 81.1 2.6C83.2 3 85.2 3.6 87.2 4.6C90.1 6 92.6 8.1 94.5 10.7C96.4 13.3 97.7 16.3 98.2 19.5C98.6 21.6 98.7 23.7 98.8 25.8C98.8 26.8 98.8 27.7 98.8 28.7V67Z" fill="black"/>
<path d="M74.7 97.1999L74.8 102.8H74.9L74.7 97.1999ZM67.3 1.9999V7.5999V-3.6001V1.9999ZM53 1.9999V-3.6001V7.5999V1.9999ZM93.2 66.9999V70.3999L104.3 70.4999V66.9999H93.2ZM93.2 70.4999C93.2 71.4999 93.2 72.3999 93.2 73.2999L104.3 73.5999V70.5999L93.2 70.4999ZM93.2 73.2999C93.2 75.2999 93 77.0999 92.7 78.7999L103.6 80.7999C104.1 78.2999 104.2 75.7999 104.2 73.5999L93.2 73.2999ZM92.7 78.7999C92.4 80.3999 91.9 81.8999 91.2 83.2999L101.1 88.3999C102.4 85.8999 103.2 83.3999 103.6 80.7999L92.7 78.7999ZM91.2 83.1999C90.5 84.5999 89.6 85.7999 88.5 86.8999L96.3 94.7999C98.2 92.8999 99.9 90.6999 101.1 88.2999L91.2 83.1999ZM88.5 86.9999C87.4 88.0999 86.1 88.9999 84.7 89.6999L89.7 99.5999C92.1 98.3999 94.4 96.7999 96.3 94.8999L88.5 86.9999ZM84.7 89.6999C83.3 90.3999 81.8 90.8999 80.1 91.1999L82 102.2C84.6 101.7 87.2 100.9 89.6 99.6999L84.7 89.6999ZM80.1 91.1999C78.4 91.4999 76.5 91.5999 74.5 91.6999L74.8 102.8C77 102.7 79.5 102.6 82 102.2L80.1 91.1999ZM74.6 91.5999C70.5 91.5999 69.4 91.5999 68.2 91.5999V102.7C69.4 102.7 70.6 102.7 74.7 102.7L74.6 91.5999ZM68.2 91.6999H44V102.8H68.3L68.2 91.6999ZM44 91.6999H30.6V102.8H44V91.6999ZM30.6 91.6999C26.1 91.6999 25.2 91.6999 24.3 91.6999L24 102.7C25.1 102.7 26.1 102.7 30.6 102.7V91.6999ZM24.3 91.5999C22.3 91.5999 20.4 91.3999 18.7 91.0999L16.7 102.1C19.2 102.5 21.7 102.7 23.9 102.7L24.3 91.5999ZM18.7 91.1999C17.1 90.8999 15.6 90.3999 14.1 89.6999L9.10003 99.5999C11.5 100.8 14.1 101.6 16.7 102.1L18.7 91.1999ZM14.1 89.6999C12.7 88.9999 11.4 88.0999 10.3 86.9999L2.50002 94.8999C4.40002 96.7999 6.70003 98.3999 9.10003 99.6999L14.1 89.6999ZM10.3 86.9999C9.20002 85.8999 8.30002 84.6999 7.60002 83.2999L-2.29998 88.3999C-1.09998 90.7999 0.600025 92.9999 2.50002 94.8999L10.3 86.9999ZM7.60002 83.1999C6.90002 81.7999 6.40002 80.2999 6.10002 78.6999L-4.79998 80.6999C-4.29998 83.2999 -3.49998 85.7999 -2.29998 88.2999L7.60002 83.1999ZM6.10002 78.6999C5.80002 76.9999 5.70002 75.1999 5.60002 73.1999L-5.49998 73.4999C-5.39998 75.6999 -5.29998 78.1999 -4.79998 80.6999L6.10002 78.6999ZM5.60002 73.2999V70.4999L-5.49998 70.5999C-5.49998 71.5999 -5.49998 72.5999 -5.49998 73.5999L5.60002 73.2999ZM5.60002 70.3999V66.9999H-5.59998V70.4999L5.60002 70.3999ZM5.60002 66.9999V55.5999H-5.59998V66.9999H5.60002ZM5.60002 55.5999V43.6999H-5.59998V55.5999H5.60002ZM5.60002 43.6999V32.1999H-5.59998V43.6999H5.60002ZM5.60002 32.1999V28.7999L-5.49998 28.6999V32.1999H5.60002ZM5.60002 28.7999C5.60002 27.7999 5.60002 26.8999 5.60002 25.9999L-5.49998 25.6999V28.6999L5.60002 28.7999ZM5.60002 25.9999C5.70002 23.9999 5.80002 22.1999 6.10002 20.4999L-4.79998 18.4999C-5.19998 20.8999 -5.39998 23.2999 -5.39998 25.6999L5.60002 25.9999ZM6.10002 20.4999C6.40002 18.8999 6.90002 17.3999 7.60002 15.9999L-2.29998 10.8999C-3.59998 13.3999 -4.39998 15.8999 -4.79998 18.4999L6.10002 20.4999ZM7.60002 15.9999C8.30002 14.5999 9.20002 13.3999 10.3 12.2999L2.50002 4.3999C0.600025 6.2999 -1.09998 8.4999 -2.29998 10.9999L7.60002 15.9999ZM10.3 12.2999C11.4 11.1999 12.7 10.2999 14.1 9.5999L9.10003 -0.400098C6.70003 0.799902 4.40002 2.4999 2.50002 4.3999L10.3 12.2999ZM14.1 9.5999C15.5 8.8999 17 8.3999 18.7 8.0999L16.7 -2.9001C14.1 -2.4001 11.6 -1.6001 9.10003 -0.400098L14.1 9.5999ZM18.7 8.0999C20.4 7.7999 22.2 7.6999 24.3 7.5999L24 -3.5001C21.8 -3.4001 19.3 -3.3001 16.8 -2.9001L18.7 8.0999ZM24.2 7.5999C28.3 7.5999 29.4 7.5999 30.6 7.5999V-3.6001C29.4 -3.6001 28.2 -3.6001 24.1 -3.6001L24.2 7.5999ZM30.6 7.5999H44V-3.6001H30.6V7.5999ZM44 7.5999H67.3V-3.6001H44V7.5999ZM67.3 -3.6001H53V7.5999H67.2V-3.6001H67.3ZM53 7.5999H68.2V-3.6001H53V7.5999ZM68.2 7.5999C72.7 7.5999 73.6 7.5999 74.5 7.5999L74.8 -3.5001C73.7 -3.5001 72.7 -3.5001 68.2 -3.5001V7.5999ZM74.5 7.5999C76.6 7.5999 78.4 7.7999 80.1 8.0999L82 -2.9001C79.6 -3.3001 77.2 -3.5001 74.8 -3.5001L74.5 7.5999ZM80.1 8.0999C81.8 8.3999 83.3 8.8999 84.7 9.5999L89.7 -0.300098C87.3 -1.5001 84.7 -2.3001 82.1 -2.8001L80.1 8.0999ZM84.7 9.5999C86.1 10.2999 87.4 11.1999 88.5 12.2999L96.3 4.3999C94.4 2.4999 92.1 0.899902 89.7 -0.400098L84.7 9.5999ZM88.5 12.2999C89.6 13.3999 90.5 14.5999 91.2 15.9999L101.1 10.8999C99.9 8.4999 98.2 6.2999 96.3 4.2999L88.5 12.2999ZM91.2 15.9999C91.9 17.3999 92.4 18.7999 92.7 20.4999L103.6 18.4999C103.1 15.8999 102.3 13.3999 101.1 10.8999L91.2 15.9999ZM92.7 20.4999C93 22.1999 93.1 23.9999 93.2 25.9999L104.3 25.6999C104.2 23.4999 104.1 20.9999 103.6 18.4999L92.7 20.4999ZM93.2 25.9999C93.2 26.8999 93.2 27.7999 93.2 28.7999L104.3 28.6999V25.6999L93.2 25.9999ZM93.2 28.7999V32.1999H104.3V28.6999L93.2 28.7999ZM93.2 32.1999V43.6999H104.3V32.1999H93.2ZM93.2 43.6999V55.5999H104.3V43.6999H93.2ZM93.2 55.5999V66.9999H104.3V55.5999H93.2Z" fill="url(#paint0_linear_755_20430)"/>
<path fill-rule="evenodd" clip-rule="evenodd" d="M38.9 42.9997C38.9 42.5997 39.2 42.1997 39.7 42.1997H54.3C54.7 42.1997 55.1 42.5997 55.1 42.9997V44.5997C55.1 44.7997 55 44.9997 54.9 45.1997C54.8 45.2997 54.5 45.3997 54.3 45.3997H39.7C39.5 45.3997 39.3 45.2997 39.1 45.1997C39 45.0997 38.9 44.7997 38.9 44.5997V42.9997ZM33.4 33.9997C33.5 33.8997 33.5 33.8997 33.5 33.7997C33.5 33.6997 33.5 33.5997 33.5 33.5997C33.5 33.4997 33.5 33.4997 33.4 33.3997C33.4 33.2997 33.3 33.2997 33.2 33.2997L27.5 30.2997C27.4 30.1997 27.3 30.1997 27.3 29.9997C27.3 29.8997 27.3 29.7997 27.3 29.6997L31.2 19.9997C31.4 19.4997 30.8 19.0997 30.4 19.4997L18.3 30.4997C18.2 30.4997 18.2 30.5997 18.2 30.6997C18.2 30.7997 18.2 30.7997 18.2 30.8997C18.2 30.9997 18.2 30.9997 18.3 31.0997C18.3 31.1997 18.4 31.1997 18.5 31.2997L24 34.9997C24.1 35.0997 24.2 35.1997 24.2 35.2997C24.2 35.3997 24.2 35.4997 24.2 35.5997L20.6 44.6997C20.4 45.1997 21 45.5997 21.4 45.1997L33.4 33.9997Z" fill="white"/>
</g>
<defs>
<linearGradient id="paint0_linear_755_20430" x1="49.3807" y1="1.9991" x2="49.3807" y2="102.523" gradientUnits="userSpaceOnUse">
<stop stop-color="#868686"/>
<stop offset="1" stop-color="#C4C4C4"/>
</linearGradient>
</defs>
</svg>
