<svg width="100" height="100" viewBox="0 0 100 100" fill="none" xmlns="http://www.w3.org/2000/svg">
<path d="M62.6999 10.3999V29.1999L83.7999 83.4999C83.7999 83.4999 90.2999 96.7999 71.7999 99.9999H29.6999C29.6999 99.9999 12.4999 98.1999 16.5999 84.5999L38.7999 29.1999V10.3999H62.6999Z" fill="#676767"/>
<path d="M63.2 8.2H37.8C35.7 8.2 34.1 6.4 34.1 4.1C34.1 1.8 35.8 0 37.8 0H63.2C65.3 0 66.9 1.8 66.9 4.1C66.9 6.3 65.2 8.2 63.2 8.2Z" fill="#343434"/>
<path d="M56.5 41.1001C59.2 41.1001 61.4 43.8001 61.4 47.1001C61.4 50.4001 59.2 53.0001 56.5 53.0001C53.8 53.0001 51.6 50.3001 51.6 47.1001C51.5 43.8001 53.7 41.1001 56.5 41.1001Z" fill="white"/>
<path d="M41.3 56.5C43.6 56.5 45.5 54.3 45.5 51.5C45.5 48.7 43.6 46.5 41.3 46.5C39 46.5 37.1 48.7 37.1 51.5C37.1 54.3 39 56.5 41.3 56.5Z" fill="white"/>
<path d="M64.6 27.9001V18.9001C64.6 18.9001 76 16.4001 81.6 29.6001C81.6 29.7001 72.8 36.1001 64.6 27.9001Z" fill="#343434"/>
<path d="M36.8 27.9001V18.9001C36.8 18.9001 25.4 16.4001 19.8 29.6001C19.8 29.7001 28.6 36.1001 36.8 27.9001Z" fill="#343434"/>
<path d="M71.4001 65.0001C52.9001 59.3001 37.4001 62.3001 29.8001 64.7001L22.2001 83.1001C18.8001 94.1001 33.1 95.5001 33.1 95.5001H68.3001C83.7001 92.9001 78.3001 82.2001 78.3001 82.2001L71.4001 65.0001Z" fill="white"/>
<path d="M44.8 71.8002C44.8 73.8002 42.1 75.4002 38.8 75.4002C35.5 75.4002 32.9 73.8002 32.9 71.8002C32.9 69.8002 35.6 68.2002 38.8 68.2002C42.2 68.2002 44.8 69.8002 44.8 71.8002Z" fill="#343434"/>
<path d="M66 71.8002C66 73.8002 63.3 75.4002 60.1 75.4002C56.8 75.4002 54.1 73.8002 54.1 71.8002C54.1 69.8002 56.8 68.2002 60.1 68.2002C63.3 68.2002 66 69.8002 66 71.8002Z" fill="#343434"/>
</svg>
