<svg width="100" height="100" viewBox="0 0 100 100" fill="none" xmlns="http://www.w3.org/2000/svg">
<path d="M17.7 1H82.3C92.1 1 100 8.9 100 18.7V80.8C100 90.6 92.1 98.5 82.3 98.5H17.7C7.9 98.5 0 90.6 0 80.8V18.7C0 8.9 7.9 1 17.7 1Z" fill="#1A1A1A"/>
<path d="M36.3 26.5V69.4C36.3 69.9 36.1 70.1 35.7 70.1H27.5C27.1 70.1 27 69.9 27 69.4V26.5C27 26.1 27.2 26 27.6 26H35.7C35.9 26 36.2 26.1 36.2 26.4C36.3 26.4 36.3 26.5 36.3 26.5Z" fill="#767676"/>
<path d="M60.4001 70.5998C57.3001 70.5998 54.2001 69.9998 51.4001 68.6998C48.8001 67.4998 46.6 65.4998 45.1 62.9998C43.6 60.4998 42.8 57.2998 42.8 53.4998C42.8 50.3998 43.6 47.3998 45.1 44.6998C46.7 41.9998 49.0001 39.6998 51.7001 38.1998C54.6 36.5998 58.1 35.7998 62.2001 35.7998C62.4001 35.7998 62.7 35.7998 63.1 35.7998C63.5 35.7998 63.9001 35.7998 64.4001 35.8998V22.7998C64.4001 22.4998 64.5001 22.2998 64.8001 22.2998H73.3001C73.5001 22.2998 73.7 22.3998 73.7 22.5998V22.6998V62.3998C73.7 63.1998 73.7001 63.9998 73.8001 64.8998C73.9001 65.7998 73.9 66.5998 74 67.2998C74 67.5998 73.9 67.7998 73.6 67.9998C71.4 68.8998 69.1001 69.5998 66.8001 69.9998C64.8001 70.3998 62.6001 70.5998 60.4001 70.5998ZM64.5 62.2998V43.8998C64.1 43.7998 63.7001 43.6998 63.4001 43.6998C62.9001 43.6998 62.5 43.5998 62 43.5998C60.4 43.5998 58.8 43.8998 57.3 44.6998C55.9 45.3998 54.7 46.4998 53.8 47.7998C52.9 49.0998 52.4001 50.8998 52.4001 53.0998C52.4001 54.5998 52.6 55.9998 53.1 57.3998C53.5 58.4998 54.1 59.4998 55 60.3998C55.8 61.1998 56.8 61.6998 57.8 62.0998C58.9 62.4998 60.1 62.5998 61.3 62.5998C61.9 62.5998 62.5 62.5998 63.1 62.4998C63.5 62.4998 64 62.3998 64.5 62.2998Z" fill="#767676"/>
</svg>
