<svg width="100" height="100" viewBox="0 0 100 100" fill="none" xmlns="http://www.w3.org/2000/svg">
<g clip-path="url(#clip0_755_20459)">
<path d="M100 52.3998C100 44.4998 98 37.0998 94.4 30.5998C109.6 -4.00022 78 1.09978 76.2 1.49978C69.5 2.79978 63.3 4.89978 57.6 7.59978C56.8 7.59978 55.9 7.49978 55.1 7.49978C33.7 7.49978 15.9 22.3998 11.3 42.3998C22.6 29.7998 30.4 24.6998 35.1 22.5998C34.4 23.2998 33.6 23.8998 32.9 24.5998C32.7 24.7998 32.4 25.0998 32.2 25.2998C31.7 25.7998 31.2 26.1998 30.8 26.6998C30.5 26.9998 30.3 27.2998 30 27.4998C29.6 27.8998 29.2 28.2998 28.8 28.7998C28.5 29.0998 28.2 29.3998 28 29.6998C27.6 30.0998 27.3 30.4998 26.9 30.8998C26.6 31.1998 26.3 31.4998 26.1 31.7998C25.5 32.4998 24.8 33.1998 24.2 33.9998C23.9 34.3998 23.6 34.7998 23.2 35.0998C22.9 35.3998 22.6 35.7998 22.4 36.0998C22.1 36.4998 21.8 36.7998 21.5 37.1998C21.2 37.5998 20.9 37.8998 20.7 38.2998C20.4 38.5998 20.2 38.9998 19.9 39.2998C19.6 39.6998 19.3 40.0998 19 40.3998C18.8 40.6998 18.6 40.8998 18.4 41.1998C16.7 43.4998 15.1 45.8998 13.5 48.2998C13.1 48.8998 12.7 49.4998 12.4 50.0998C12.4 50.0998 12.4 50.1998 12.3 50.1998C11.9 50.7998 11.6 51.3998 11.2 51.8998V51.9998C10.3 53.4998 9.50004 54.8998 8.60004 56.3998C4.60004 63.6998 2.60004 68.8998 2.50004 69.1998C-10.3 114.9 29.6 95.5998 35.2 92.6998C41.2 95.6998 47.9 97.2998 55.1 97.2998C74.6 97.2998 91.3 84.7998 97.5 67.3998H73.8C70.3 73.2998 63.6 77.2998 55.9 77.2998C44.6 77.2998 35.4 68.6998 35.4 58.0998H99.7C99.9 56.2998 100 54.3998 100 52.3998ZM91.6 8.19978C95.5 10.7998 98.6 14.8998 93.2 28.6998C88.1 20.4998 80.4 13.9998 71.3 10.4998C75.5 8.49978 85.8 4.19978 91.6 8.19978ZM9.40004 92.5998C6.20004 89.3998 5.70004 81.4998 12.6 67.0998C16.1 77.1998 23.1 85.5998 32.2 90.9998C27.7 93.5998 15.7 99.0998 9.40004 92.5998ZM35.3 45.8998C35.7 35.5998 44.6 27.3998 55.6 27.3998C66.6 27.3998 75.5 35.5998 75.9 45.8998H35.3Z" fill="#929292"/>
</g>
<defs>
<clipPath id="clip0_755_20459">
<rect width="100" height="100" fill="white"/>
</clipPath>
</defs>
</svg>
