<svg width="114" height="112" viewBox="0 0 114 112" fill="none" xmlns="http://www.w3.org/2000/svg">
<g opacity="0.7833">
<path d="M48.0999 9.2002L11.4 46.8002C-2.50005 60.7002 20.4 59.5002 28.7 64.8002C32.5 67.3002 16.4 70.5002 19.7 73.8002C22.9 77.1002 39 80.1002 42.2 83.3002C45.4 86.6002 35.7 90.1002 38.9 93.4002C42 96.7002 49.5 93.6002 50.7999 101.1C51.7999 106.6 64.4999 103.9 70.1999 99.1002C73.7999 96.1002 64.1 96.1002 67.3 92.8002C75.3 84.7002 82.4 89.1002 85.4 81.7002C87 77.7002 73.3 74.8002 76.9 72.3002C85.6 66.2002 117.7 63.0002 102.9 48.2002L64.9 9.3002C60.2 4.8002 52.5 4.8002 48.0999 9.2002ZM90.2 81.6002C90.2 83.5002 104.7 84.5002 103.9 81.2002C102.8 75.5002 91.7999 75.9002 90.2 81.6002ZM28.3 91.5002C31.6 94.4002 36.6 90.9002 38.2 86.9002C35 82.7002 23.1 87.2002 28.3 91.5002ZM88.4 85.6002C84.3 89.3002 89.1 93.3002 93.1 90.7002C94.2 89.9002 93.1 86.5002 88.4 85.6002Z" fill="black"/>
<g opacity="0.5764">
<path d="M48.0999 10.1004L11.4 47.7004C-2.50005 61.6004 20.4 60.4004 28.7 65.7004C32.5 68.2004 16.4 71.4004 19.7 74.7004C22.9 78.0004 39 81.0004 42.2 84.2004C45.4 87.5004 35.7 91.0004 38.9 94.3004C42 97.6004 49.5 94.5004 50.7999 102C51.7999 107.5 64.4999 104.8 70.1999 100C73.7999 97.0004 64.1 97.0004 67.3 93.7004C75.3 85.6004 82.4 90.0004 85.4 82.6004C87 78.6004 73.3 75.7004 76.9 73.2004C85.6 67.1004 117.7 63.9004 102.9 49.1004L64.9 10.2004C60.2 5.6004 52.5 5.6004 48.0999 10.1004ZM90.2 82.5004C90.2 84.4004 104.7 85.4004 103.9 82.1004C102.8 76.4004 91.7999 76.8004 90.2 82.5004ZM28.3 92.4004C31.6 95.3004 36.6 91.8004 38.2 87.8004C35 83.6004 23.1 88.0004 28.3 92.4004ZM88.4 86.4004C84.3 90.1004 89.1 94.1004 93.1 91.5004C94.2 90.8004 93.1 87.3004 88.4 86.4004Z" fill="black"/>
</g>
</g>
<path d="M48.0999 8.29981L11.4 45.8998C-2.50005 59.7998 20.4 58.5998 28.7 63.8998C32.5 66.3998 16.4 69.5998 19.7 72.8998C22.9 76.1998 39 79.1998 42.2 82.3998C45.4 85.6998 35.7 89.1998 38.9 92.4998C42 95.7998 49.5 92.6998 50.7999 100.2C51.7999 105.7 64.4999 103 70.1999 98.1998C73.7999 95.1998 64.1 95.1998 67.3 91.8998C75.3 83.7998 82.4 88.1998 85.4 80.7998C87 76.7998 73.3 73.8998 76.9 71.3998C85.6 65.2998 117.7 62.0998 102.9 47.2998L64.9 8.39981C60.2 3.89981 52.5 3.89981 48.0999 8.29981ZM90.2 80.7998C90.2 82.6998 104.7 83.6998 103.9 80.3998C102.8 74.5998 91.7999 75.0998 90.2 80.7998ZM28.3 90.6998C31.6 93.5998 36.6 90.0998 38.2 86.0998C35 81.7998 23.1 86.2998 28.3 90.6998ZM88.4 84.6998C84.3 88.3998 89.1 92.3998 93.1 89.7998C94.2 89.0998 93.1 85.5998 88.4 84.6998Z" fill="black"/>
<path d="M48.2001 8.8L11.8 46C-1.99995 59.8 20.7 58.6 28.9 63.8C32.7 66.3 16.7 69.4 20 72.7C23.2 76 39.2 79 42.3 82.1C45.5 85.4 35.9 88.8 39 92.1C42.1 95.4 49.5 92.3 50.8 99.7C51.8 105.2 64.4001 102.4 70 97.8C73.5 94.8 63.9 94.8 67.1 91.5C75 83.5 82.1001 87.9 85.0001 80.5C86.6001 76.5 73.0001 73.7 76.6001 71.1C85.2001 65 117 61.9 102.4 47.3L64.9001 8.8C60.2001 4.4 52.5 4.4 48.2001 8.8ZM39.4001 65.9C40.2001 65.9 66.6001 69.4 56.4001 72.2C52.6001 73.2 34.8001 65.9 39.4001 65.9ZM89.9001 80.5C89.9001 82.4 104.3 83.4 103.5 80.1C102.4 74.4 91.5001 74.9 89.9001 80.5ZM28.6 90.3C31.9 93.1 36.8001 89.7 38.4001 85.7C35.2001 81.6 23.5 86 28.6 90.3ZM88.2001 84.4C84.1001 88.1 88.9001 92 92.9001 89.4C93.9001 88.7 92.7001 85.3 88.2001 84.4Z" fill="url(#paint0_linear_755_20461)"/>
<path opacity="0.5053" d="M14.5999 48.0001C4.59995 57.9001 22.1999 55.1001 35.5999 60.4001L63.4999 11.4001C59.2999 7.10014 53.8999 7.40014 49.9999 11.4001L14.5999 48.0001Z" fill="url(#paint1_linear_755_20461)"/>
<path d="M62.7 10.9999L77.2 25.7999C78.5 27.0999 78.5 29.8999 77.7 30.6999L70.5 24.7999L69.1 33.3999L63.1 30.1999L53.4 36.2999L50.2 23.3999L45 34.5999L32.1 34.4999C29.6 34.4999 30 31.8999 32.5 29.2999C37.6 23.6999 47.5 14.1999 50.6 10.8999C53.9 7.6999 59.5 7.7999 62.7 10.9999Z" fill="url(#paint2_linear_755_20461)"/>
<path opacity="0.2167" fill-rule="evenodd" clip-rule="evenodd" d="M42.8 80.8999C42.8 80.8999 44.4 83.2999 44.2 84.3999C43.9 86.5999 39.1 87.6999 40.2 89.6999C41.2 91.6999 45 90.4999 48.2 92.5999C51.4 94.5999 50.5 98.7999 52.8 99.7999C57.3 101.8 69 96.2999 68.4 96.3999C67.8 96.4999 56.8 98.7999 54.3 96.7999C51.5 94.4999 50.7 92.8999 48.6 91.5999C46.6 90.2999 43.9 89.7999 43.3 88.7999C42.7 87.7999 44.6 86.3999 44.7 84.3999C44.7 83.1999 42.8 80.8999 42.8 80.8999Z" fill="url(#paint3_radial_755_20461)"/>
<g opacity="0.2759">
<path fill-rule="evenodd" clip-rule="evenodd" d="M42.8 80.8999C42.8 80.8999 44.4 83.2999 44.2 84.3999C43.9 86.5999 39.1 87.6999 40.2 89.6999C41.2 91.6999 45 90.4999 48.2 92.5999C51.4 94.5999 50.5 98.7999 52.8 99.7999C57.3 101.8 69 96.2999 68.4 96.3999C48.9 96.4999 52.5 91.3999 45 88.0999C43.9 87.5999 44.5 86.2999 44.7 84.2999C44.7 83.1999 42.8 80.8999 42.8 80.8999Z" fill="url(#paint4_radial_755_20461)"/>
</g>
<path opacity="0.4532" fill-rule="evenodd" clip-rule="evenodd" d="M75.9 70.6C93.4 64.2 99 63.3 104.8 57.5C98.1 63.1 84 66.2 72.5 71.2L75.9 70.6Z" fill="url(#paint5_radial_755_20461)"/>
<g opacity="0.5123">
<path fill-rule="evenodd" clip-rule="evenodd" d="M75.9 69.8002C104.7 59.6002 99.9 59.6002 104.8 56.7002C95.6 60.2002 78.5 60.6002 72.5 70.4002L75.9 69.8002Z" fill="url(#paint6_radial_755_20461)"/>
</g>
<path opacity="0.2857" d="M101.1 77.9999C101.1 78.2999 100.7 78.5999 100 78.7999C99.3 78.9999 98.3 79.0999 97.4 79.0999C96.5 79.0999 95.5 78.9999 94.8 78.7999C94.1 78.5999 93.7 78.2999 93.7 77.9999C93.7 77.6999 94.1 77.3999 94.8 77.1999C95.5 76.9999 96.5 76.8999 97.4 76.8999C98.3 76.8999 99.3 76.9999 100 77.1999C100.7 77.3999 101.1 77.6999 101.1 77.9999Z" fill="url(#paint7_linear_755_20461)"/>
<g opacity="0.6207">
<path d="M102.4 79.2998C102.4 79.9998 101.9 80.5998 100.9 81.0998C100 81.5998 98.7 81.7998 97.3 81.7998C95.9 81.7998 94.7 81.4998 93.7 81.0998C92.8 80.5998 92.2 79.9998 92.2 79.2998C92.2 78.5998 92.7 77.9998 93.7 77.4998C94.6 76.9998 95.9 76.7998 97.3 76.7998C98.7 76.7998 99.9 77.0998 100.9 77.4998C101.9 77.9998 102.4 78.5998 102.4 79.2998Z" fill="url(#paint8_linear_755_20461)"/>
</g>
<path fill-rule="evenodd" clip-rule="evenodd" d="M90.5 80.7002C92.3 82.3002 102.2 83.2002 103.8 80.2002C100.6 82.5002 93.5 81.7002 90.5 80.7002Z" fill="url(#paint9_radial_755_20461)"/>
<path opacity="0.2857" d="M90.5 86.1998C90.6 86.3998 90.6 86.5998 90.7 86.6998C90.7 86.8998 90.7 87.0998 90.7 87.2998C90.7 87.4998 90.6 87.5998 90.5 87.7998C90.4 87.8998 90.3 87.9998 90.1 88.0998C89.9 88.1998 89.8 88.1998 89.6 88.1998C89.4 88.1998 89.2 88.1998 89.1 88.0998C88.9 87.9998 88.8 87.8998 88.6 87.7998C88.5 87.6998 88.3 87.4998 88.3 87.2998C88.1 87.1998 88 86.9998 88 86.7998C88 86.5998 88 86.3998 88 86.1998C88 85.9998 88.1 85.8998 88.2 85.6998C88.3 85.5998 88.4 85.4998 88.6 85.3998C88.8 85.2998 88.9 85.2998 89.1 85.2998C89.3 85.2998 89.5 85.2998 89.6 85.3998C89.8 85.4998 89.9 85.5998 90.1 85.6998C90.3 85.7998 90.4 85.9998 90.5 86.1998Z" fill="url(#paint10_linear_755_20461)"/>
<g opacity="0.6207">
<path d="M91.2 86.4998C91.3 86.7998 91.4 86.9998 91.4 87.2998C91.4 87.5998 91.4 87.8998 91.3 88.0998C91.2 88.3998 91.1 88.5998 91 88.7998C90.8 88.9998 90.6 89.1998 90.4 89.2998C90.2 89.3998 89.9 89.4998 89.7 89.4998C89.4 89.4998 89.2 89.4998 88.9 89.3998C88.6 89.2998 88.4 89.1998 88.2 88.9998C88 88.7998 87.8 88.5998 87.7 88.2998C87.6 87.9998 87.5 87.7998 87.5 87.4998C87.5 87.1998 87.5 86.8998 87.6 86.6998C87.7 86.3998 87.8 86.1998 87.9 85.9998C88.1 85.7998 88.3 85.5998 88.5 85.4998C88.7 85.3998 89 85.2998 89.2 85.2998C89.5 85.2998 89.7 85.2998 90 85.3998C90.3 85.4998 90.5 85.5998 90.7 85.7998C90.9 85.9998 91.1 86.1998 91.2 86.4998Z" fill="url(#paint11_linear_755_20461)"/>
</g>
<path fill-rule="evenodd" clip-rule="evenodd" d="M88.1 89.5C89.5 90.6 94.9 90.8 92.9 87.5C93.4 90 89.7 89.8 88.1 89.5Z" fill="url(#paint12_radial_755_20461)"/>
<path fill-rule="evenodd" clip-rule="evenodd" d="M21.6 72.5999C21.6 72.2999 39.9 78.1999 43.1 81.2999C40.5 78.7999 27.5 72.9999 25.5 72.9999C23.5 72.8999 21.9 72.6999 21.6 72.5999Z" fill="url(#paint13_radial_755_20461)"/>
<path opacity="0.2857" d="M35.4 85.1998C35.5 85.3998 35.2 85.6998 34.6 85.9998C34 86.2998 33.2 86.5998 32.4 86.6998C31.5 86.8998 30.7 86.9998 30 86.9998C29.3 86.9998 28.9 86.8998 28.8 86.5998C28.7 86.3998 29 86.0998 29.6 85.7998C30.2 85.4998 31 85.1998 31.8 85.0998C32.7 84.8998 33.5 84.7998 34.2 84.7998C34.9 84.8998 35.3 84.9998 35.4 85.1998Z" fill="url(#paint14_linear_755_20461)"/>
<g opacity="0.6207">
<path d="M36.9 85.9002C37.1 86.4002 36.7 86.9002 36 87.4002C35.3 87.9002 34.2 88.3002 33 88.6002C31.8 88.9002 30.6 88.9002 29.7 88.8002C28.8 88.7002 28.1 88.3002 28 87.9002C27.8 87.4002 28.2 86.9002 28.9 86.4002C29.6 85.9002 30.7 85.5002 31.9 85.2002C33.1 84.9002 34.3 84.9002 35.2 85.0002C36.1 85.1002 36.7 85.4002 36.9 85.9002Z" fill="url(#paint15_linear_755_20461)"/>
</g>
<g opacity="0.6158">
<path fill-rule="evenodd" clip-rule="evenodd" d="M27.5 88.2C27.5 88.2 28.5 90.9 31.2 91C34 91.1 37.1 87.7 37.4 86.5C36.9 87.6 34.3 90.8 30.9 90.7C28.9 90.7 27.5 88.2 27.5 88.2Z" fill="url(#paint16_radial_755_20461)"/>
</g>
<path d="M56.4001 6.2998C53.6001 6.2998 50.9 7.2998 49 9.2998L12.3001 46.7998C8.90005 50.1998 8.10005 52.3998 8.30005 53.5998C8.40005 54.1998 8.70005 54.7998 9.40005 55.2998C10 55.8998 11.0001 56.3998 12.2001 56.8998C14.6001 57.8998 17.7001 58.6998 20.9001 59.4998C24.0001 60.3998 27.1 61.2998 29.4 62.6998C29.8 62.8998 30.1 63.1998 30.3 63.5998C30.5 63.9998 30.6 64.4998 30.5 64.9998C30.3 65.8998 29.8001 66.3998 29.2001 66.7998C28.1001 67.6998 26.5 68.3998 24.9 69.0998C23.3 69.8998 21.8001 70.5998 21.0001 71.2998C20.6001 71.5998 20.5001 71.8998 20.5001 71.8998C20.5001 71.8998 20.4001 71.6998 20.6001 71.7998C21.1001 72.2998 22.6 73.1998 24.6 73.8998C26.6 74.6998 28.9 75.4998 31.4 76.1998C33.9 76.8998 36.3 77.7998 38.3 78.5998C40.4 79.3998 42.1001 80.1998 43.2001 81.2998C43.8001 81.8998 44.1001 82.5998 44.2001 83.2998C44.3001 83.9998 44.1 84.6998 43.8 85.2998C43.2 86.3998 42.4 87.2998 41.5 88.1998C40.7 88.9998 40.0001 89.8998 39.7001 90.3998C39.6001 90.6998 39.5 90.7998 39.6 90.9998C39.6 91.0998 39.6001 91.1998 39.9001 91.4998C41.0001 92.5998 43.3001 92.7998 45.9001 93.3998C47.2001 93.6998 48.6001 94.1998 49.7001 95.1998C50.9001 96.1998 51.7 97.7998 52.1 99.7998C52.3 100.7 52.7001 101.1 53.9001 101.5C55.0001 101.9 56.7 101.9 58.6 101.6C62.4 101 66.9001 99.1998 69.4001 97.0998C69.6001 96.9998 69.5 96.9998 69.6 96.8998C69.4 96.7998 69.0001 96.4998 68.3001 96.1998C67.5001 95.7998 66.6001 95.3998 65.8001 94.4998C65.4001 93.9998 65.2001 93.2998 65.3001 92.5998C65.4001 91.8998 65.8001 91.2998 66.3001 90.7998C70.5001 86.4998 74.7001 85.4998 77.8001 84.6998C79.4001 84.2998 80.7001 83.8998 81.7001 83.2998C82.7001 82.6998 83.5001 81.7998 84.1001 80.1998C84.2001 79.9998 84.2001 79.9998 84.1001 79.7998C84.0001 79.5998 83.7001 79.1998 83.3001 78.8998C82.5001 78.1998 81.1001 77.3998 79.7001 76.5998C78.3001 75.7998 77.0001 75.0998 76.0001 74.1998C75.5001 73.6998 75.0001 73.1998 74.9001 72.2998C74.8001 71.3998 75.4001 70.6998 76.1001 70.1998C78.5001 68.4998 82.2001 67.1998 86.3001 65.7998C90.3001 64.3998 94.6001 62.9998 98.2001 61.2998C101.7 59.6998 104.3 57.7998 105.1 55.7998C105.5 54.7998 105.6 53.8998 105.2 52.5998C104.8 51.2998 103.8 49.7998 102 48.0998L64 9.2998C61.9 7.2998 59.1001 6.2998 56.4001 6.2998ZM97.3001 77.5998C95.0001 77.6998 92.8001 78.7998 91.9001 80.3998C92.2001 80.4998 92.4001 80.5998 92.8001 80.6998C94.0001 80.9998 95.7001 81.1998 97.4001 81.1998C99.1001 81.1998 100.8 81.0998 101.8 80.7998C102.2 80.6998 102.5 80.4998 102.6 80.4998C102.4 79.4998 101.8 78.7998 100.9 78.2998C100 77.7998 98.7001 77.4998 97.3001 77.5998ZM34.5 85.6998C32.6 85.5998 30.3001 86.2998 29.2001 87.1998C28.6001 87.6998 28.4 88.0998 28.4 88.3998C28.4 88.6998 28.5001 89.0998 29.2001 89.6998C30.4001 90.6998 31.8 90.5998 33.3 89.7998C34.6 89.0998 35.8 87.7998 36.5 86.2998C36 85.9998 35.4 85.6998 34.5 85.6998ZM88.8001 86.1998C88.4001 86.6998 88.2001 87.1998 88.2001 87.4998C88.2001 87.9998 88.3001 88.2998 88.6001 88.5998C89.3001 89.1998 90.7001 89.4998 92.1001 88.6998C92.1001 88.4998 92.0001 88.2998 91.8001 87.8998C91.4001 87.3998 90.4001 86.6998 88.8001 86.1998Z" stroke="url(#paint17_radial_755_20461)" stroke-width="0.4351"/>
<g opacity="0.3251">
<path fill-rule="evenodd" clip-rule="evenodd" d="M36.3 65.2002C34.1 65.9002 26.9 68.6002 27.9 70.6002C28.9 72.6002 45.6 73.4002 48.1 79.3002C49.2 81.9002 45.5 83.8002 46.5 86.5002C47.2 88.5002 52.8 93.7002 56.3 96.1002C59.1 98.0002 62.7 94.6002 61.2 91.7002C58.9 87.2002 69.2 81.6002 73.9 79.1002C76.6 77.6002 68.2 70.4002 68.2 70.4002L36.3 65.2002Z" fill="url(#paint18_linear_755_20461)"/>
</g>
<path fill-rule="evenodd" clip-rule="evenodd" d="M37.1 67.1999C39.1 68.6999 43 67.7999 45.4 68.7999C51.1 71.2999 58 74.1999 56.7 69.1999L55.3 70.3999V68.0999L52 68.8999C52 68.8999 49.4 66.7999 48.2 66.0999C48 65.9999 46.7 67.2999 46.7 67.2999L46.5 65.8999C44.8 65.6999 43.2 65.5999 41.8 65.6999C38.1 65.6999 35.8 66.1999 37.1 67.1999Z" fill="url(#paint19_linear_755_20461)"/>
<g opacity="0.4778">
<path fill-rule="evenodd" clip-rule="evenodd" d="M74.2 71.7998C73.4 74.5998 83.6 78.3998 82.8 80.3998C81.2 84.6998 72 81.7998 65 90.6998C64 91.9998 66.4 96.5998 66.1 95.9998C65.8 95.4998 63.3 91.6998 63.9 89.7998C65.9 83.9998 85.2 81.7998 81.7 78.9998C79.6 77.3998 72.3 72.9998 74.2 71.7998Z" fill="url(#paint20_radial_755_20461)"/>
</g>
<path opacity="0.5862" d="M97.1 77.6002C97.1 77.7002 97 77.8002 96.8 77.9002C96.6 78.0002 96.3 78.0002 96 78.0002C95.7 78.0002 95.4 78.0002 95.2 77.9002C95 77.8002 94.9 77.7002 94.9 77.6002C94.9 77.5002 95 77.4002 95.2 77.3002C95.4 77.2002 95.7 77.2002 96 77.2002C96.3 77.2002 96.6 77.2002 96.8 77.3002C97 77.4002 97.1 77.5002 97.1 77.6002Z" fill="white"/>
<path opacity="0.5862" d="M89.7 86.1002C89.7 86.2002 89.6 86.3002 89.5 86.4002C89.4 86.5002 89.2 86.5002 89 86.5002C88.8 86.5002 88.6 86.5002 88.5 86.4002C88.4 86.3002 88.3 86.2002 88.3 86.1002C88.3 86.0002 88.4 85.9002 88.5 85.8002C88.6 85.7002 88.8 85.7002 89 85.7002C89.2 85.7002 89.4 85.7002 89.5 85.8002C89.6 85.9002 89.7 86.0002 89.7 86.1002Z" fill="white"/>
<path opacity="0.5862" d="M33.2999 85.6998C33.2999 85.7998 33.2 85.8998 32.9 85.9998C32.6 86.0998 32.3 86.0998 32 86.0998C31.7 86.0998 31.4 86.0998 31.1 85.9998C30.9 85.8998 30.7 85.7998 30.7 85.6998C30.7 85.5998 30.8 85.4998 31.1 85.3998C31.3 85.2998 31.7 85.2998 32 85.2998C32.3 85.2998 32.6 85.2998 32.9 85.3998C33.1 85.4998 33.2999 85.5998 33.2999 85.6998Z" fill="white"/>
<path opacity="0.2512" d="M32.5999 65.3999C26.1999 69.2999 16.2999 70.7999 27.1999 73.3999C25.7999 70.4999 29.8999 70.7999 32.5999 65.3999Z" fill="url(#paint21_linear_755_20461)"/>
<g opacity="0.3632">
<path d="M55.2 101.3C55.2 101.3 65 100.4 67.3 97.5001C68.6 95.8001 62 93.9001 63.4 92.3001C68.8 86.2001 73.3 86.4001 79.5 83.9001C85.7 81.3001 83.4 80.1001 81.4 79.0001C77.9 77.1001 70.3 75.0001 72.8 70.5001C75.4 65.9001 97.7 59.5001 97.7 59.5001C104.5 57.2001 103.6 53.0001 100.3 49.5001L80.3 29.6001C80.3 29.6001 81.3 48.5001 77.3 56.6001C72.3 66.6001 45.7 77.8001 56.9 79.0001C60.8 79.4001 62.7 80.8001 64.3 83.8001C67.6 89.9001 55.2 101.3 55.2 101.3Z" fill="url(#paint22_linear_755_20461)"/>
</g>
<defs>
<linearGradient id="paint0_linear_755_20461" x1="88.8427" y1="33.0262" x2="69.3219" y2="50.6772" gradientUnits="userSpaceOnUse">
<stop stop-color="#CECECE"/>
<stop offset="1" stop-color="#0C0C0C" stop-opacity="0.288"/>
</linearGradient>
<linearGradient id="paint1_linear_755_20461" x1="31.3468" y1="26.1974" x2="53.8259" y2="48.6765" gradientUnits="userSpaceOnUse">
<stop stop-color="white"/>
<stop offset="1" stop-color="white" stop-opacity="0"/>
</linearGradient>
<linearGradient id="paint2_linear_755_20461" x1="46.2581" y1="22.1094" x2="72.9875" y2="48.8388" gradientUnits="userSpaceOnUse">
<stop stop-color="white"/>
<stop offset="1" stop-color="white" stop-opacity="0"/>
</linearGradient>
<radialGradient id="paint3_radial_755_20461" cx="0" cy="0" r="1" gradientUnits="userSpaceOnUse" gradientTransform="translate(39.9881 98.8536) scale(22.6717 15.1755)">
<stop stop-color="white"/>
<stop offset="1" stop-color="white" stop-opacity="0"/>
</radialGradient>
<radialGradient id="paint4_radial_755_20461" cx="0" cy="0" r="1" gradientUnits="userSpaceOnUse" gradientTransform="translate(51.9445 99.3981) scale(28.9272 19.3627)">
<stop stop-color="white"/>
<stop offset="1" stop-color="white" stop-opacity="0"/>
</radialGradient>
<radialGradient id="paint5_radial_755_20461" cx="0" cy="0" r="1" gradientUnits="userSpaceOnUse" gradientTransform="translate(88.6601 64.3787) scale(16.1628 6.8426)">
<stop stop-color="white"/>
<stop offset="1" stop-color="white" stop-opacity="0"/>
</radialGradient>
<radialGradient id="paint6_radial_755_20461" cx="0" cy="0" r="1" gradientUnits="userSpaceOnUse" gradientTransform="translate(92.081 66.2659) scale(16.1628 6.8426)">
<stop stop-color="white"/>
<stop offset="1" stop-color="white" stop-opacity="0"/>
</radialGradient>
<linearGradient id="paint7_linear_755_20461" x1="97.3243" y1="76.1512" x2="97.3833" y2="79.1301" gradientUnits="userSpaceOnUse">
<stop stop-color="white"/>
<stop offset="1" stop-color="white" stop-opacity="0"/>
</linearGradient>
<linearGradient id="paint8_linear_755_20461" x1="97.3603" y1="75.7928" x2="97.3603" y2="80.3159" gradientUnits="userSpaceOnUse">
<stop stop-color="white"/>
<stop offset="1" stop-color="white" stop-opacity="0"/>
</linearGradient>
<radialGradient id="paint9_radial_755_20461" cx="0" cy="0" r="1" gradientUnits="userSpaceOnUse" gradientTransform="translate(97.1498 81.1832) scale(6.6509 0.9826)">
<stop stop-color="white"/>
<stop offset="1" stop-color="white" stop-opacity="0"/>
</radialGradient>
<linearGradient id="paint10_linear_755_20461" x1="88.4465" y1="85.1802" x2="89.9128" y2="87.771" gradientUnits="userSpaceOnUse">
<stop stop-color="white"/>
<stop offset="1" stop-color="white" stop-opacity="0"/>
</linearGradient>
<linearGradient id="paint11_linear_755_20461" x1="87.9146" y1="84.2309" x2="89.9601" y2="88.2651" gradientUnits="userSpaceOnUse">
<stop stop-color="white"/>
<stop offset="1" stop-color="white" stop-opacity="0"/>
</linearGradient>
<radialGradient id="paint12_radial_755_20461" cx="0" cy="0" r="1" gradientUnits="userSpaceOnUse" gradientTransform="translate(90.7266 89.6482) rotate(-26.8858) scale(2.87563 0.982633)">
<stop stop-color="white"/>
<stop offset="1" stop-color="white" stop-opacity="0"/>
</radialGradient>
<radialGradient id="paint13_radial_755_20461" cx="0" cy="0" r="1" gradientUnits="userSpaceOnUse" gradientTransform="translate(31.8531 75.5692) scale(10.7358 4.3704)">
<stop stop-color="white" stop-opacity="0.33"/>
<stop offset="1" stop-color="white" stop-opacity="0"/>
</radialGradient>
<linearGradient id="paint14_linear_755_20461" x1="31.8225" y1="84.6515" x2="32.3238" y2="86.7716" gradientUnits="userSpaceOnUse">
<stop stop-color="white"/>
<stop offset="1" stop-color="white" stop-opacity="0"/>
</linearGradient>
<linearGradient id="paint15_linear_755_20461" x1="31.8903" y1="84.3718" x2="32.5983" y2="87.5964" gradientUnits="userSpaceOnUse">
<stop stop-color="white"/>
<stop offset="1" stop-color="white" stop-opacity="0"/>
</linearGradient>
<radialGradient id="paint16_radial_755_20461" cx="0" cy="0" r="1" gradientUnits="userSpaceOnUse" gradientTransform="translate(32.1321 90.8377) rotate(-15.4871) scale(6.07519 2.27302)">
<stop stop-color="white"/>
<stop offset="1" stop-color="white" stop-opacity="0"/>
</radialGradient>
<radialGradient id="paint17_radial_755_20461" cx="0" cy="0" r="1" gradientUnits="userSpaceOnUse" gradientTransform="translate(60.8288 16.7163) scale(84.0597 82.7332)">
<stop stop-color="white"/>
<stop offset="1" stop-color="white" stop-opacity="0"/>
</radialGradient>
<linearGradient id="paint18_linear_755_20461" x1="37.3547" y1="76.7572" x2="62.5888" y2="83.4293" gradientUnits="userSpaceOnUse">
<stop stop-color="white"/>
<stop offset="1" stop-color="white" stop-opacity="0"/>
</linearGradient>
<linearGradient id="paint19_linear_755_20461" x1="48.3777" y1="65.0171" x2="45.5432" y2="71.5116" gradientUnits="userSpaceOnUse">
<stop stop-color="#EEEEEE"/>
<stop offset="1" stop-color="#EEEEEE" stop-opacity="0"/>
</linearGradient>
<radialGradient id="paint20_radial_755_20461" cx="0" cy="0" r="1" gradientUnits="userSpaceOnUse" gradientTransform="translate(73.5551 83.6829) scale(13.2104 16.7883)">
<stop stop-color="white"/>
<stop offset="1" stop-color="white" stop-opacity="0"/>
</radialGradient>
<linearGradient id="paint21_linear_755_20461" x1="26.7954" y1="67.9181" x2="30.7655" y2="71.0724" gradientUnits="userSpaceOnUse">
<stop stop-color="white"/>
<stop offset="1" stop-color="white" stop-opacity="0"/>
</linearGradient>
<linearGradient id="paint22_linear_755_20461" x1="80.8384" y1="82.1957" x2="69.0426" y2="50.4355" gradientUnits="userSpaceOnUse">
<stop stop-color="#979797"/>
<stop offset="1" stop-color="#979797" stop-opacity="0"/>
</linearGradient>
</defs>
</svg>
