<svg width="100" height="100" viewBox="0 0 100 100" fill="none" xmlns="http://www.w3.org/2000/svg">
<g clip-path="url(#clip0_755_20511)">
<path d="M90.9 0H9.1C4.1 0 0 4.1 0 9.1V91C0 96 4.1 100.1 9.1 100.1H91C96 100.1 100.1 96 100.1 91V9.1C100 4.1 95.9 0 90.9 0Z" fill="#6E6E6E"/>
<path d="M33.4 31.5C36.7 31.5 39.5 28.9 39.5 25.5C39.5 22.1 36.7 19.5 33.4 19.5C30.1 19.5 27.2999 22.1 27.2999 25.5C27.2999 28.9 30.1 31.5 33.4 31.5ZM20.7999 63.7C20.3999 65.2 20.2999 66.9 20.2999 68.2C20.2999 73.5 23.1999 77 29.2999 77C34.4 77 38.5 74 41.4 69.1L39.5999 76.3H49.7L55.5 53.2C56.9 47.4 59.7 44.3 63.9 44.3C67.2 44.3 69.3 46.4 69.3 49.8C69.3 50.8 69.2 51.9 68.9 53L65.9 63.6C65.5 65.1 65.3 66.7 65.3 68.1C65.3 73.1 68.2999 76.8 74.5 76.8C79.7999 76.8 83.9999 73.4 86.3999 65.2L82.3999 63.7C80.3999 69.2 78.7 70.2 77.4 70.2C76.1 70.2 75.3 69.3 75.3 67.5C75.3 66.7 75.4999 65.8 75.6999 64.7L78.5999 54.4C79.2999 52 79.5999 49.8 79.5999 47.8C79.5999 40.1 74.9 36 69.3 36C64 36 58.6 40.8 55.9 45.8L57.9 36.8H42.2999L40.0999 44.8H47.2999L42.9 62.5C39.4 70.2 33 70.4 32.2 70.2C30.9 69.9 30 69.4 30 67.7C30 66.7 30.2 65.3 30.6 63.6L37.5 37H20.4L18.2 45H25.2999L20.7999 63.7Z" fill="white"/>
</g>
<defs>
<clipPath id="clip0_755_20511">
<rect width="100" height="100" fill="white"/>
</clipPath>
</defs>
</svg>
