<svg width="100" height="100" viewBox="0 0 100 100" fill="none" xmlns="http://www.w3.org/2000/svg">
<g clip-path="url(#clip0_755_20514)">
<path fill-rule="evenodd" clip-rule="evenodd" d="M95.1 28.3L95.5 29.3C98.5 35.9 100 42.8 100 50C100 77.6 77.6 100 50 100C22.4 100 0 77.6 0 50C0 22.4 22.4 0 50 0C58.1 0 65.8 1.9 72.9 5.4L73.9 5.9L73 6.6C71 8.2 69.4 10.3 68.4 12.7L68.1 13.4L67.5 13.1C62 10.5 56.1 9.1 50 9.1C27.4 9.1 9.1 27.4 9.1 50C9.1 72.6 27.4 90.9 50 90.9C72.6 90.9 90.9 72.5 90.9 50C90.9 44.6 89.9 39.3 87.8 34.4L87.5 33.7L88.2 33.4C90.6 32.5 92.8 31 94.5 29.1L95.1 28.3ZM82.7 29.3C88.4 29.3 93.1 24.6 93.1 18.9C93.1 13.2 88.5 8.4 82.7 8.4C77 8.4 72.3 13.1 72.3 18.8C72.3 24.5 77 29.3 82.7 29.3ZM50 27.2C37.4 27.2 27.2 37.4 27.2 50C27.2 62.6 37.4 72.8 50 72.8C62.6 72.8 72.8 62.6 72.8 50C72.8 37.4 62.6 27.2 50 27.2Z" fill="#787878"/>
</g>
<defs>
<clipPath id="clip0_755_20514">
<rect width="100" height="100" fill="white"/>
</clipPath>
</defs>
</svg>
