<svg width="100" height="100" viewBox="0 0 100 100" fill="none" xmlns="http://www.w3.org/2000/svg">
<g clip-path="url(#clip0_755_20540)">
<path d="M81.2 0H18.7C8.4 0 0 8.4 0 18.8V81.3C0 91.6 8.4 100 18.7 100H81.2C91.6 100 100 91.6 100 81.2V18.8C100 8.4 91.6 0 81.2 0Z" fill="#EDEDED"/>
<path d="M15.5 0.3C11.7 1 8.50001 2.6 5.70001 5.3C3.20001 7.7 1.50001 10.6 0.500006 14.2L0.100006 15.9V50V84.1L0.500006 85.7C2.40001 92.6 7.30001 97.5 14.2 99.4L15.9 99.8H50H84.1L85.8 99.4C92.7 97.5 97.7 92.5 99.5 85.7L99.9 84V50C99.9 12.1 100 15.2 98.6 11.7C96.6 6.6 92 2.4 86.7 0.8C84.1 0 84.1 0 49.8 0C22.4 0 16.8 0.1 15.5 0.3ZM84.1 5C85 5.2 86.4 5.7 87.5 6.2C89.1 7 89.6 7.4 91.1 8.9C92.6 10.4 93 11 93.8 12.5C95.4 15.9 95.3 13.2 95.3 50.7C95.2 87.9 95.4 84.5 93.8 87.6C92.5 90.3 89.5 93.1 86.7 94.3C84.1 95.4 85.4 95.3 50.1 95.3C14.8 95.3 16 95.3 13.5 94.3C10.7 93.1 7.70001 90.4 6.40001 87.6C4.80001 84.4 5.00001 87.8 4.90001 50.7C4.70001 13.2 4.60001 15.8 6.20001 12.5C7.00001 10.9 7.40001 10.4 8.90001 8.9C10.4 7.4 11 7 12.5 6.2C15.8 4.6 13.1 4.7 49.9 4.7C78.8 4.7 82.8 4.7 84.1 5Z" fill="#454545"/>
<path d="M34.1 31.7L34 48.4L29.9 48.5H25.7V42.3V36.1H21.5H17.3V41.4V46.7L20.3 49.7L23.3 52.7H30H36.6L39.5 49.8L42.4 46.9V30.9V15H38.3H34.2L34.1 31.7Z" fill="#454545"/>
<path d="M53.7 18L50.7 21V25.3V29.6L56.9 35.9L63.1 42.1V45.3V48.5H61.1H59.1L55 46.4C52.8 45.3 50.8 44.3 50.7 44.3C50.6 44.3 50.5 44.8 50.5 45.4V46.5L53.5 49.5L56.5 52.5H61H65.5L68.5 49.5L71.5 46.5V42.2V38L65.3 31.8L59 25.6V22.4V19.2H61.1H63.2L67.3 21.3C69.5 22.4 71.4 23.4 71.5 23.4C71.6 23.4 71.6 22.9 71.6 22.3V21L68.6 18L65.6 15H61.1H56.6L53.7 18Z" fill="#454545"/>
<path d="M16.4 73.3999V87.4999H24.2H32V85.8999V84.2999H27.3H22.6V71.8999V59.3999H19.5H16.4V73.3999Z" fill="#454545"/>
<path d="M38.3 60.9001V62.5H41.4H44.5V60.9001V59.3H41.4H38.3V60.9001Z" fill="#454545"/>
<path d="M75.8 62.4999V65.5999H74.2H72.6V67.1999V68.7999H74.2H75.8V75.9999V83.1999L78 85.3999L80.2 87.5999H82.7H85.2V85.9999V84.3999H83.6H82V76.5999V68.7999H83.6H85.2V67.1999V65.5999H83.6H82V62.4999V59.3999H78.9H75.8V62.4999Z" fill="#454545"/>
<path d="M38.3 76.6001V87.5001H41.4H44.5V76.6001V65.6001H41.4H38.3V76.6001Z" fill="#454545"/>
<path d="M50.8 76.6001V87.5001H53.9H57V78.1001V68.7001H60.1H63.2V78.1001V87.5001H66.3H69.4V78.7001V70.0001L67.2 67.8001L65 65.6001H57.8H50.6V76.6001H50.8Z" fill="#454545"/>
</g>
<defs>
<clipPath id="clip0_755_20540">
<rect width="100" height="100" fill="white"/>
</clipPath>
</defs>
</svg>
