<svg width="106" height="103" viewBox="0 0 106 103" fill="none" xmlns="http://www.w3.org/2000/svg">
<g clip-path="url(#clip0_755_20559)">
<path d="M94.3 24.5C93.7 22.7 92.4 21.2 90.6 20.3L55.7 3.6C54.8 3.1 53.8 3 52.9 3C52 3 51 3 50 3.2L15.1 20C13.4 20.8 12.1 22.3 11.7 24.2L3.09998 61.9C2.79998 63.8 3.19998 65.8 4.39998 67.4L28.5 97.2C29.9 98.6 31.8 99.5 33.8 99.6H72.2C74.3 99.8 76.2 98.9 77.5 97.2L101.6 67.4C102.7 65.8 103.2 63.9 103 61.9L94.3 24.5Z" fill="white" stroke="white" stroke-width="5" stroke-miterlimit="10"/>
<path d="M94.3 24.5C93.7 22.7 92.4 21.2 90.6 20.3L55.7 3.6C54.8 3.1 53.8 3 52.9 3C52 3 51 3 50 3.2L15.1 20C13.4 20.8 12.1 22.3 11.7 24.2L3.09998 61.9C2.79998 63.8 3.19998 65.8 4.39998 67.4L28.5 97.2C29.9 98.6 31.8 99.5 33.8 99.6H72.2C74.3 99.8 76.2 98.9 77.5 97.2L101.6 67.4C102.7 65.8 103.2 63.9 103 61.9L94.3 24.5Z" fill="#696969"/>
<path d="M88.9 60.4001C88.8 60.4001 88.7 60.4001 88.7 60.3001C88.7 60.2001 88.5 60.2001 88.2 60.2001C87.7 60.1001 87.3 60.1001 86.8 60.1001C86.6 60.1001 86.3 60.1001 86.1 60.0001H86C84.7 59.9001 83.4 59.7001 82.1 59.3001C81.8 59.2001 81.4 58.8001 81.3 58.5001L80.4 58.3001C80.9 55.0001 80.6 51.6001 79.9 48.2001C79.1 44.9001 77.7 41.7001 75.9 38.8001L76.6 38.1001V38.0001C76.6 37.7001 76.7 37.2001 76.9 37.0001C77.9 36.1001 79 35.4001 80.1 34.7001C80.3 34.6001 80.6 34.5001 80.8 34.4001C81.3 34.2001 81.6 33.9001 82.1 33.7001C82.2 33.6001 82.3 33.6001 82.4 33.5001C82.5 33.4001 82.4 33.4001 82.4 33.3001C83.4 32.5001 83.7 31.1001 82.9 30.1001C82.6 29.6001 81.9 29.3001 81.3 29.3001C80.7 29.3001 80.2 29.5001 79.7 29.9001L79.6 30.0001C79.5 30.1001 79.4 30.2001 79.3 30.2001C79 30.5001 78.6 30.9001 78.4 31.2001C78.3 31.4001 78.1 31.5001 77.9 31.7001C77.1 32.6001 76.1 33.5001 75 34.2001C74.8 34.3001 74.5 34.4001 74.3 34.4001C74.2 34.4001 74 34.4001 73.8 34.3001H73.7L72.8 34.9001C72 33.9001 70.9 33.0001 70 32.0001C65.8 28.7001 60.5 26.6001 55.1 26.1001L55 25.2001V25.3001C54.7 25.1001 54.5 24.7001 54.4 24.4001C54.4 23.1001 54.4 21.9001 54.6 20.5001V20.4001C54.6 20.2001 54.7 19.9001 54.7 19.7001C54.8 19.2001 54.8 18.8001 54.9 18.3001V17.6001C55 16.5001 54.1 15.3001 53 15.2001C52.3 15.1001 51.6 15.4001 51.1 16.0001C50.6 16.5001 50.4 17.0001 50.4 17.6001V18.2001C50.4 18.7001 50.5 19.1001 50.6 19.6001C50.7 19.8001 50.7 20.1001 50.7 20.3001V20.4001C50.9 21.7001 50.9 22.9001 50.9 24.3001C50.8 24.6001 50.7 25.0001 50.3 25.2001V25.4001L50.2 26.3001C48.9 26.4001 47.7 26.6001 46.3 26.9001C40.9 28.0001 36 30.9001 32.2 34.9001L31.5 34.4001H31.4C31.3 34.4001 31.2 34.5001 30.9 34.5001C30.7 34.5001 30.4 34.4001 30.2 34.3001C29.2 33.5001 28.1 32.6001 27.3 31.7001C27.2 31.5001 27 31.4001 26.8 31.2001C26.5 30.9001 26.2 30.5001 25.9 30.2001C25.8 30.1001 25.7 30.1001 25.6 30.0001C25.5 29.9001 25.5 29.9001 25.5 29.9001C25 29.6001 24.5 29.3001 23.9 29.3001C23.2 29.3001 22.6 29.5001 22.3 30.1001C21.6 31.1001 21.8 32.5001 22.8 33.3001C22.9 33.3001 22.9 33.4001 22.9 33.4001C22.9 33.4001 23.1 33.6001 23.2 33.6001C23.5 33.8001 24 34.1001 24.5 34.3001C24.7 34.4001 25 34.5001 25.2 34.6001C26.3 35.3001 27.5 36.0001 28.4 36.9001C28.6 37.1001 28.9 37.6001 28.7 37.9001V37.8001L29.4 38.5001C29.3 38.7001 29.2 38.8001 29.1 39.1001C25.6 44.7001 24.1 51.3001 25.1 57.9001L24.2 58.1001C24.2 58.2001 24.1 58.2001 24.1 58.2001C24 58.5001 23.6 58.8001 23.3 59.0001C22 59.3001 20.8 59.6001 19.4 59.7001C19.2 59.7001 18.9 59.7001 18.7 59.8001C18.2 59.8001 17.8 59.9001 17.3 59.9001C17.2 59.9001 17.1 60.0001 16.8 60.0001C16.7 60.0001 16.7 60.0001 16.6 60.1001C15.3 60.3001 14.5 61.5001 14.8 62.7001C15 63.7001 16.1 64.4001 17.1 64.3001C17.3 64.3001 17.4 64.3001 17.7 64.2001C17.8 64.2001 17.8 64.2001 17.8 64.1001C17.8 64.0001 18.1 64.1001 18.3 64.1001C18.8 64.0001 19.2 63.8001 19.6 63.6001C19.8 63.5001 20.1 63.4001 20.3 63.4001H20.4C21.7 62.9001 22.8 62.6001 24.2 62.4001H24.3C24.6 62.4001 25 62.5001 25.2 62.7001C25.3 62.7001 25.3 62.8001 25.3 62.8001L26.3 62.7001C28 68.0001 31.2 72.6001 35.7 76.1001C36.7 76.9001 37.6 77.6001 38.8 78.2001L38.3 79.0001C38.3 79.1001 38.4 79.1001 38.4 79.1001C38.6 79.4001 38.6 79.9001 38.5 80.2001C38 81.3001 37.4 82.5001 36.7 83.5001V83.6001C36.6 83.8001 36.5 83.9001 36.2 84.2001C36 84.4001 35.7 84.9001 35.4 85.3001C35.3 85.4001 35.3 85.5001 35.2 85.6001C35.2 85.6001 35.2 85.7001 35.1 85.7001C34.6 87.1001 35 88.4001 36 89.0001C36.2 89.1001 36.6 89.2001 36.8 89.2001C37.7 89.2001 38.5 88.6001 39 87.8001C39 87.8001 39 87.7001 39.1 87.7001C39.1 87.6001 39.2 87.5001 39.3 87.4001C39.4 86.9001 39.6 86.6001 39.8 86.1001L40 85.4001C40.3 84.1001 40.9 83.0001 41.5 81.9001C41.7 81.6001 42.1 81.3001 42.4 81.2001C42.5 81.2001 42.5 81.2001 42.5 81.1001L43 80.2001C46.2 81.5001 49.5 82.0001 52.9 82.0001C55 82.0001 57 81.8001 59.1 81.2001C60.4 81.0001 61.6 80.5001 62.8 80.2001L63.3 81.0001C63.4 81.0001 63.4 81.0001 63.4 81.1001C63.7 81.2001 64.1 81.4001 64.3 81.8001C64.9 82.9001 65.4 84.1001 65.8 85.3001V85.4001L66 86.1001C66.1 86.6001 66.2 87.0001 66.5 87.4001C66.6 87.5001 66.6 87.6001 66.7 87.7001C66.7 87.7001 66.7 87.8001 66.8 87.8001C67.3 88.6001 68.1 89.2001 69 89.2001C69.3 89.2001 69.6 89.1001 69.9 89.0001C70.4 88.8001 70.8 88.3001 70.9 87.7001C71 87.1001 71 86.6001 70.8 86.0001C70.8 85.9001 70.7 85.9001 70.7 85.9001C70.7 85.8001 70.6 85.7001 70.5 85.6001C70.3 85.1001 70 84.8001 69.7 84.5001C69.6 84.3001 69.5 84.2001 69.2 83.9001V83.7001C68.4 82.7001 67.8 81.5001 67.4 80.4001C67.3 80.1001 67.3 79.6001 67.5 79.3001C67.5 79.2001 67.6 79.2001 67.6 79.2001L67.3 78.3001C73.1 74.8001 77.6 69.3001 79.7 62.7001L80.6 62.8001C80.7 62.8001 80.7 62.7001 80.7 62.7001C80.9 62.5001 81.3 62.4001 81.6 62.4001H81.7C83 62.6001 84.2 63.0001 85.4 63.4001H85.5C85.7 63.5001 86 63.6001 86.2 63.6001C86.7 63.8001 87 64.1001 87.5 64.2001C87.6 64.2001 87.7 64.3001 88 64.3001C88.1 64.3001 88.1 64.3001 88.2 64.4001C88.4 64.5001 88.5 64.5001 88.8 64.5001C89.8 64.5001 90.7 63.8001 91.1 62.9001C90.8 61.5001 89.9 60.6001 88.9 60.4001ZM55.8 56.9001L52.7 58.4001L49.6 56.9001L48.8 53.6001L51 50.9001H54.4L56.6 53.6001L55.8 56.9001ZM74.5 49.4001C75.1 51.8001 75.2 54.2001 75 56.6001L64.1 53.5001C63.1 53.3001 62.5 52.2001 62.7 51.2001C62.8 50.9001 62.9 50.6001 63.2 50.4001L71.8 42.6001C73 44.7001 73.9 47.0001 74.5 49.4001ZM68.3 38.4001L58.9 45.0001C58.1 45.5001 57 45.3001 56.4 44.5001C56.2 44.3001 56.1 44.0001 56.1 43.7001L55.4 32.2001C60.4 32.8001 64.9 35.0001 68.3 38.4001ZM47.6 32.6001L49.9 32.1001L49.3 43.5001C49.3 44.5001 48.4 45.3001 47.4 45.3001C47.1 45.3001 46.8 45.2001 46.5 45.1001L37 38.4001C39.9 35.6001 43.6 33.5001 47.6 32.6001ZM33.6 42.7001L42.1 50.2001C42.9 50.9001 43 52.0001 42.3 52.8001C42.1 53.1001 41.8 53.3001 41.4 53.4001L30.3 56.6001C30 51.8001 31.1 46.9001 33.6 42.7001ZM31.7 62.0001L43 60.1001C43.9 60.1001 44.8 60.7001 44.9 61.6001C45 61.9001 45 62.4001 44.8 62.7001L40.5 73.2001C36.5 70.6001 33.3 66.6001 31.7 62.0001ZM57.7 76.2001C56.1 76.5001 54.5 76.8001 52.8 76.8001C50.4 76.8001 47.9 76.3001 45.6 75.7001L51.2 65.5001C51.8 64.8001 52.7 64.6001 53.5 65.0001C53.8 65.2001 54.1 65.5001 54.4 65.8001L59.9 75.7001C59.1 75.8001 58.5 76.0001 57.7 76.2001ZM71.6 66.2001C69.9 68.9001 67.5 71.3001 64.7 73.1001L60.2 62.4001C60 61.5001 60.4 60.6001 61.2 60.2001C61.5 60.1001 61.9 60.0001 62.2 60.0001L73.6 61.9001C73.2 63.5001 72.5 65.0001 71.6 66.2001Z" fill="white"/>
</g>
<defs>
<clipPath id="clip0_755_20559">
<rect width="106" height="103" fill="white"/>
</clipPath>
</defs>
</svg>
