<svg width="102" height="100" viewBox="0 0 102 100" fill="none" xmlns="http://www.w3.org/2000/svg">
<path d="M95.9 63.8C95.9 68.5 92.1 72.4 87.3 72.4H15.4C10.7 72.4 6.79999 68.6 6.79999 63.8V36.6C6.79999 31.9 10.6 28 15.4 28H87.3C92 28 95.9 31.8 95.9 36.6V63.8Z" fill="url(#paint0_linear_755_20565)"/>
<path d="M80.8 49.6C84.6 50.9 86.4 53.2 86.4 56.4C86.4 58.5 85.6 60.2 84.1 61.4C82.5 62.6 80.3 63.4 77.5 63.4C74.6 63.4 72 62.6 69.5 61.2C69.5 60.5 69.7 59.7 70.1 58.8C70.5 57.9 70.9 57.2 71.3 56.7C73.6 57.9 75.5 58.5 77.2 58.5C78 58.5 78.6 58.4 79 58.1C79.4 57.8 79.6 57.5 79.6 57C79.6 56.2 78.9 55.5 77.7 55.1L75.4 54.2C71.9 52.9 70.1 50.8 70.1 47.9C70.1 45.8 70.8 44.1 72.3 42.8C73.8 41.6 75.8 40.5 78.3 40.5C79.5 40.5 80.9 40.7 82.4 41C83.9 41.4 85.1 42.2 86.1 42.7C86.2 43.5 86 44.3 85.6 45.3C85.2 46.2 84.8 46.9 84.2 47.3C81.8 46.2 79.9 45.7 78.3 45.7C77.7 45.7 77.3 45.8 77 46.1C76.7 46.4 76.6 46.7 76.6 47.1C76.6 47.8 77.1 48.3 78.2 48.7L80.8 49.6Z" fill="#F6F6F6"/>
<path d="M62.1 49.6C65.9 50.9 67.7 53.2 67.7 56.4C67.7 58.5 66.9 60.2 65.4 61.4C63.8 62.6 61.6 63.4 58.7 63.4C55.8 63.4 53.2 62.6 50.7 61.2C50.7 60.5 50.9 59.7 51.3 58.8C51.7 57.9 52.1 57.2 52.5 56.7C54.8 57.9 56.7 58.5 58.4 58.5C59.2 58.5 59.8 58.4 60.2 58.1C60.6 57.8 60.8 57.5 60.8 57C60.8 56.2 60.1 55.5 58.9 55.1L56.6 54.2C53.1 52.9 51.3 50.8 51.3 47.9C51.3 45.8 52 44.1 53.5 42.8C55 41.6 57 40.5 59.5 40.5C60.7 40.5 62.1 40.7 63.6 41C65.1 41.4 66.3 42.2 67.3 42.7C67.4 43.5 67.2 44.3 66.8 45.3C66.4 46.2 66 46.9 65.4 47.3C63 46.2 61.1 45.7 59.5 45.7C58.9 45.7 58.5 45.8 58.2 46.1C57.9 46.4 57.8 46.7 57.8 47.1C57.8 47.8 58.3 48.3 59.4 48.7L62.1 49.6Z" fill="#F6F6F6"/>
<path d="M48.4 49.9001C48.4 48.6001 48.2 47.4001 47.8 46.3001C47.4 45.2001 46.8 44.3001 46 43.5001C45.2 42.7001 44.3 42.1001 43.2 41.7001C42.1 41.3001 40.9 40.6001 39.5 40.6001C37.9 40.6001 36.5 41.3001 35.3 41.9001C34.1 42.5001 33.1 43.2001 32.3 44.2001C31.5 45.2001 30.9 46.3001 30.6 47.7001C30.3 49.1001 30 50.5001 30 52.0001C30 53.6001 30.2 55.1001 30.5 56.5001C30.8 57.9001 31.3 59.1001 32.1 60.1001C32.8 61.1001 33.8 61.9001 35 62.4001C36.2 63.0001 37.7 63.4001 39.5 63.4001C42.8 63.4001 45.5 62.5001 47.8 60.9001C47.6 59.3001 47 58.0001 46.1 57.0001C44.9 57.4001 43.9 57.7001 43 57.9001C42.1 58.1001 41.3 58.2001 40.7 58.2001C39.3 58.2001 38.4 57.9001 37.8 57.2001C37.2 56.5001 36.9 55.7001 36.8 54.4001H47.8C48.2 53.2001 48.4 51.6001 48.4 49.9001ZM36.8 50.2001C36.9 48.8001 37.1 47.2001 37.6 46.6001C38 46.0001 38.7 45.7001 39.6 45.7001C40.5 45.7001 41.2 46.0001 41.7 46.7001C42.2 47.4001 42.4 48.7001 42.4 49.8001V50.3001H36.8V50.2001Z" fill="#F6F6F6"/>
<path d="M98.1 53C96.9 54 96.2 55.6 96.2 57.5V64.8C96.2 67.2 95.5 69.1 93.8 70.4C92.1 71.7 90.1 72.3 87.9 72.4H86.6V68.7C87.8 68.4 88.3 68 88.7 67.5C89.5 66.7 90.2 65.5 90.2 63.8V57.9C90.2 55.9 90.4 54.3 91.1 53.2C91.8 52.1 93.3 51.1 95.4 50.2C93.1 49.1 91.5 47.7 90.7 46C90.2 45 90.2 43.6 90.2 41.8V36.4C90.2 34.6 89.6 33.4 88.9 32.6C88.4 32.1 87.9 31.8 86.6 31.5V28C88.2 28 89 28 89.9 28C91.3 28 92.5 28.8 93.6 29.6C94.7 30.5 95.5 31.7 96 33.2C96.3 34.1 96.3 34.9 96.3 35.7V42C96.3 44.2 97 45.9 98.1 46.9C98.7 47.5 99.6 48.1 101.1 48.6V51.4C99.6 51.8 98.8 52.3 98.1 53Z" fill="#F6F6F6" stroke="#404040" stroke-width="0.5388" stroke-miterlimit="10"/>
<path d="M13.8 27.9999C13.3 27.9999 12.9 27.9999 12.6 27.9999C11.2 27.9999 10 28.7999 8.9 29.5999C7.8 30.4999 6.8 31.5999 6.5 33.1999C6.3 34.0999 6.4 34.8999 6.4 35.6999V41.9999C6.4 44.1999 5.6 45.8999 4.5 46.8999C3.9 47.4999 2.5 48.0999 1 48.5999V51.3999C2.4 51.7999 3.7 52.2999 4.4 52.8999C5.6 53.8999 6.5 55.4999 6.5 57.3999V64.6999C6.5 67.0999 7.1 68.9999 8.8 70.2999C10.5 71.5999 12.5 72.1999 14.7 72.2999H16.2V68.5999C15 68.2999 14.4 67.8999 13.9 67.3999C13.1 66.5999 12.6 65.3999 12.6 63.6999V57.7999C12.6 55.7999 12.2 54.1999 11.5 53.0999C10.8 51.9999 9.3 50.9999 7.2 50.0999C9.5 48.9999 11.1 47.5999 11.9 45.8999C12.4 44.8999 12.6 43.4999 12.6 41.6999V36.2999C12.6 34.4999 13 33.2999 13.7 32.4999C14.1 32.0999 14.8 31.7999 15.8 31.4999H17.3C17.3 30.1999 17.3 29.3999 17.3 27.8999L13.8 27.9999Z" fill="#F6F6F6" stroke="#404040" stroke-width="0.5388" stroke-miterlimit="10"/>
<path d="M27.9 57.7H26.8C25.6 57.7 25.1 57 25.1 55.7V31.6C25.1 30.1 24.7 29.1 24.1 28.5C23.6 28 22.6 28 21.3 28H18.7H18.4V31.6V56.9C18.4 58.9 18.9 60.4 19.7 61.3C20.5 62.2 21.9 62.7 23.8 62.7C25.1 62.7 26.6 62.6 28.3 62.3C28.4 62 28.4 61.4 28.4 60.5C28.4 59.6 28.3 58.7 27.9 57.7Z" fill="#F6F6F6"/>
<defs>
<linearGradient id="paint0_linear_755_20565" x1="51.3657" y1="28.0244" x2="51.3657" y2="72.3596" gradientUnits="userSpaceOnUse">
<stop offset="0.1497" stop-color="#4A4A4A"/>
<stop offset="0.3884" stop-color="#494949"/>
<stop offset="1" stop-color="#2B2B2B"/>
</linearGradient>
</defs>
</svg>
