<svg width="100" height="100" viewBox="0 0 100 100" fill="none" xmlns="http://www.w3.org/2000/svg">
<path d="M17.7 1H82.3C92.1 1 100 8.9 100 18.7V80.8C100 90.6 92.1 98.5 82.3 98.5H17.7C7.9 98.5 0 90.6 0 80.8V18.7C0 8.9 7.9 1 17.7 1Z" fill="#181818"/>
<path d="M52.5 69.9H26.1C25.6 69.9 25.4 69.7 25.4 69.2V26.6C25.4 26.3 25.6 26.1 25.9 26C25.9 26 26 26 26.1 26H34.3C34.5 26 34.8 26.1 34.8 26.4V26.5V61.5H54.1C54.5 61.5 54.6 61.7 54.6 62.1L53.4 69.4C53.4 69.6 53.3 69.8 53.2 69.9C52.8 69.9 52.7 69.9 52.5 69.9Z" fill="#8E8E8E"/>
<path d="M59.2001 36.6H66.5C66.9 36.6 67.2001 36.9 67.4001 37.3C67.6001 37.6 67.7001 37.9 67.8001 38.3C67.9001 38.7 68 39.2 68 39.6C68 40.1 68.1 40.6 68.1 41.1C69.3 39.7 70.9 38.4 72.5 37.5C74.4 36.4 76.6 35.9 78.7 36C79 36 79.2001 36.2 79.3001 36.5C79.3001 36.5 79.3001 36.6 79.3001 36.7V44.9001C79.3001 45.3 79.1 45.4001 78.6 45.4001C75.9 45.2001 73.2 45.8 70.7 46.8C69.9 47.2 69.1001 47.7001 68.4001 48.4001V69.7C68.4001 70.1 68.2001 70.3001 67.9001 70.3001H59.8C59.4 70.3001 59.2 70.1001 59.1 69.8001C59.1 69.8001 59.1 69.7 59.1 69.6V46.2C59.1 45.2 59.1 44.2 59.1 43.1C59.1 42 59.1 40.9001 59 39.9001C59 39.0001 58.9 38.1 58.8 37.1C58.8 36.9 58.9 36.7 59.1 36.6C59 36.5 59.1001 36.5 59.2001 36.6Z" fill="#8E8E8E"/>
</svg>
