<svg width="100" height="100" viewBox="0 0 100 100" fill="none" xmlns="http://www.w3.org/2000/svg">
<path fill-rule="evenodd" clip-rule="evenodd" d="M39.0999 11.3C41.8999 6.8 45.5999 2.9 49.9999 0C54.2999 2.9 57.9999 6.6 60.7999 11C68.0999 21.1 71.7999 33.4 71.2999 45.9C73.5999 47.7 75.8999 49.5 78.0999 51.4C81.2999 54.3 82.7999 58.6 81.9999 62.8C80.9999 68 79.8999 73.2 78.7999 78.4C77.9999 80.7 75.5999 81.9 73.2999 81.1C72.8999 81 72.4999 80.8 72.1999 80.5C68.4999 77.6 64.9999 74.5 61.2999 71.6C58.4999 74.2 54.7999 75.8 50.9999 76.1C46.5999 76.3 42.1999 74.7 38.8999 71.7C36.2999 73.6 33.7999 76 31.2999 78C30.1999 79.1 28.8999 80.1 27.5999 80.9C25.3999 81.8 22.8999 80.7 21.9999 78.4C21.9999 78.3 21.8999 78.2 21.8999 78.1C20.6999 73 19.4999 68 18.3999 62.9C17.4999 58.5 19.0999 53.9 22.5999 51C24.5999 49.4 26.5999 47.8 28.5999 46.2C29.1999 45.9 28.8999 45.3 28.8999 44.8C28.4999 32.9 32.0999 21.1 39.0999 11.3ZM42.6999 27C39.9999 30.4 40.3999 35.3 43.3999 38.3C46.9999 41.8 52.5999 41.9 56.2999 38.6C58.8999 36.2 59.7999 32.5 58.5999 29.2C57.2999 26 54.3999 23.8 50.9999 23.5C47.7999 23.2 44.6999 24.5 42.6999 27Z" fill="#636363"/>
<path d="M37.8 82.3999C37.9 81.1999 38.9 80.2999 40.1 80.3999C40.4 80.3999 40.7 80.4999 41 80.6999C46.7 83.3999 53.3 83.3999 59 80.6999C60.1 80.0999 61.4 80.4999 62 81.5999C62.1 81.7999 62.2001 82.0999 62.2001 82.2999C62.2001 85.4999 62.2001 88.6999 62.2001 91.7999C62.1 92.9999 61 93.7999 59.8 93.6999C59.4 93.6999 59.1 93.4999 58.8 93.2999C57.8 92.4999 57 91.5999 56.1 90.6999C54.6 93.3999 53.3 96.1999 51.8 98.8999C51.1 99.8999 49.8 100.2 48.8 99.4999C48.6 99.2999 48.4001 99.0999 48.2001 98.8999C46.7001 96.1999 45.4001 93.3999 43.9001 90.6999C43.0001 91.5999 42.1001 92.4999 41.2001 93.2999C40.2001 93.9999 38.9001 93.6999 38.2001 92.6999C38.0001 92.3999 37.9 92.0999 37.8 91.6999C37.8 88.6999 37.8 85.5999 37.8 82.3999Z" fill="#636363"/>
<path d="M49.9 36.5999C52.3 36.6999 54.3 34.6999 54.4 32.2999C54.4 29.8999 52.4 27.9999 50 27.9999C47.6 27.8999 45.6 29.8999 45.5 32.2999C45.5 34.7999 47.5 36.6999 49.9 36.5999Z" fill="#636363"/>
</svg>
