<svg width="100" height="100" viewBox="0 0 100 100" fill="none" xmlns="http://www.w3.org/2000/svg">
<g clip-path="url(#clip0_755_22310)">
<path d="M93.2 27.5999C98.6 38.0999 99.9 50.2999 97 61.6999C94.1 73.0999 87.1 83.1999 77.4 89.8999C67.7 96.5999 55.8 99.4999 44.1 98.0999C32.4 96.6999 21.5 91.0999 13.6 82.2999C5.59999 73.5999 1.19999 62.1999 0.999993 50.3999C0.799993 38.5999 4.99999 27.0999 12.7 18.0999C20.4 9.09988 31 3.19988 42.7 1.49988C54.4 -0.200121 66.3 2.39988 76.2 8.89988" stroke="#808080" stroke-width="1.1309" stroke-dasharray="4.25 4.25"/>
<path d="M49.7 87.4C70.5 87.4 87.4 70.5 87.4 49.7C87.4 28.9 70.6 12 49.7 12C28.8 12 12 28.9 12 49.7C12 70.5 28.9 87.4 49.7 87.4Z" fill="#0E0E0E"/>
<path d="M65.3999 45.2C71.4999 45.2 76.3999 40.3 76.3999 34.2C76.3999 28.1 71.4999 23.2 65.3999 23.2C59.2999 23.2 54.3999 28.1 54.3999 34.2C54.2999 40.2 59.2999 45.2 65.3999 45.2Z" fill="white"/>
<path d="M87.3999 23.1001C93.4999 23.1001 98.3999 18.2001 98.3999 12.1001C98.3999 6.0001 93.4999 1.1001 87.3999 1.1001C81.2999 1.1001 76.3999 6.0001 76.3999 12.1001C76.3999 18.1001 81.2999 23.1001 87.3999 23.1001Z" fill="#0E0E0E"/>
<path d="M39.5001 68.6V65.8001H27.3001V43.8H24.1001V68.5H39.5001V68.6Z" fill="white"/>
<path d="M56.5 68.6V50.8H53.7001V60.6C53.7001 64.2 51.8 66.6 48.8 66.6C46.6 66.6 45.1 65.2 45.1 63.1V50.8H42.3V64.2C42.3 67.2 44.5 69.1 48 69.1C50.6 69.1 52.3001 68.2001 53.9001 65.8001V68.5H56.5V68.6Z" fill="white"/>
<path d="M77.2 68.5V66.4001C76.9 66.5001 76.8 66.5 76.6 66.5C75.6 66.5 75.1 66 75.1 65.1V55.2001C75.1 52.0001 72.8 50.3 68.4 50.3C64.1 50.3 61.4 52 61.3 56.1H64.1C64.3 53.9 65.6 52.9001 68.3 52.9001C70.8 52.9001 72.3 53.9 72.3 55.5V56.2001C72.3 57.4001 71.6 57.9001 69.3 58.2001C65.3 58.7001 64.7 58.8 63.6 59.3C61.5 60.1 60.5 61.7001 60.5 63.9001C60.5 67.1001 62.7 69 66.3 69C68.6 69 70.8 68.1001 72.3 66.4001C72.6 67.8001 73.8 68.7 75.2 68.7C75.8 68.8 76.2 68.8 77.2 68.5ZM72.2 62.4001C72.2 64.9001 69.6 66.6 66.9 66.6C64.7 66.6 63.4 65.8001 63.4 63.9001C63.4 62.0001 64.7 61.2 67.7 60.8C70.7 60.4 71.3 60.3 72.2 59.8V62.4001Z" fill="white"/>
</g>
<defs>
<clipPath id="clip0_755_22310">
<rect width="100" height="100" fill="white"/>
</clipPath>
</defs>
</svg>
