<svg width="100" height="100" viewBox="0 0 100 100" fill="none" xmlns="http://www.w3.org/2000/svg">
<g clip-path="url(#clip0_755_22318)">
<path d="M0 40C0 26 0 19 2.7 13.7C5.1 8.9 8.9 5.1 13.7 2.7C19 0 26 0 40 0H60C74 0 81 0 86.3 2.7C91 5.1 94.8 8.9 97.2 13.6C100 19 100 26 100 40V60C100 74 100 81 97.3 86.4C94.9 91.1 91.1 94.9 86.4 97.3C81 100 74 100 60 100H40C26 100 19 100 13.7 97.3C9 94.9 5.2 91.1 2.8 86.4C0 81 0 74 0 60V40Z" fill="#7C7C7C"/>
<path d="M77.5 34.5999C75.2 33.7999 73.2 32.4 71.5 30.7C69.8 29 68.4999 26.9 67.5999 24.7C66.7999 27 65.4 29 63.7 30.7C62 32.4 59.9 33.6999 57.7 34.5999C60 35.3999 62 36.8 63.7 38.5C65.4 40.2 66.6999 42.2999 67.5999 44.5C68.3999 42.2 69.8 40.2 71.5 38.5C73.2 36.8 75.2 35.4999 77.5 34.5999Z" fill="white"/>
<path d="M50.1001 25H25.1001V75H75.1001V50L50.1001 75V25Z" fill="white"/>
</g>
<defs>
<clipPath id="clip0_755_22318">
<rect width="100" height="100" fill="white"/>
</clipPath>
</defs>
</svg>
