<svg width="100" height="100" viewBox="0 0 100 100" fill="none" xmlns="http://www.w3.org/2000/svg">
<path d="M57 45.4001L66 24.2C66.1 23.9 66.4 23.8 66.7 23.9C67 24 67.1 24.3 67 24.6L59 43.2001L57 45.4001Z" fill="#959595"/>
<path d="M64.6999 34.6001C64.6999 34.6001 60.3999 40.2001 57.3999 43.5001C54.3999 46.8001 49.8999 51.9001 49.8999 51.9001V63.4001H49.9999C50.6999 63.4001 51.2999 64.0001 51.2999 64.7001C51.2999 65.4001 50.6999 66.0001 49.9999 66.0001H49.8999V77.6001C49.8999 77.6001 55.4999 73.8001 59.4999 70.1001C64.0999 66.0001 69.0999 59.5001 69.0999 59.5001L64.6999 34.6001Z" fill="#404040"/>
<path d="M46.8001 13.5V18L30.6001 24.5L30.9001 20.5L46.8001 13.5Z" fill="#A9A9A9"/>
<path d="M69.4001 20.4L69.7001 24.4L53.4001 18L53.3001 13.5L69.4001 20.4ZM50.0001 12.1V16.7L26.3001 7.39995L26.8001 2.19995L50.0001 12.1ZM26.8001 2.19995L26.3001 7.39995L23.1001 9.29995L23.6001 4.19995L26.8001 2.19995Z" fill="#BEBEBE"/>
<path d="M73.2 2L73.7 7.2L50 16.7V12.1L73.2 2Z" fill="#A9A9A9"/>
<path d="M76.3 4L76.9 9.1L73.7 7.3L73.2 2L76.3 4Z" fill="#BEBEBE"/>
<path d="M33.7001 25.4L30.5001 24.5L46.8001 18L23.1001 9.29995L26.3001 7.39995L50.0001 16.7L73.7001 7.19995L76.9001 8.99995L53.4001 18L69.7001 24.4L66.5001 25.2999L50.1001 19.2L33.7001 25.4Z" fill="#828282"/>
<path d="M23.3999 38.6C23.0999 38.6 22.8999 38.3 22.8999 38L25.7999 9.1C25.7999 8.8 26.0999 8.6 26.3999 8.7C26.6999 8.7 26.8999 9 26.8999 9.2L23.9999 38.1C23.8999 38.4 23.6999 38.6 23.3999 38.6ZM75.4999 38.6C75.1999 38.6 74.9999 38.4 74.9999 38.1L73.1999 9C73.1999 8.7 73.3999 8.5 73.6999 8.5C73.9999 8.5 74.1999 8.7 74.1999 9L75.9999 38C75.9999 38.3 75.7999 38.5 75.4999 38.6ZM41.6999 44.4L33.2999 24.7C33.1999 24.4 33.2999 24.2 33.5999 24C33.8999 23.9 34.1999 24 34.2999 24.3L43.5999 46.2L41.6999 44.4Z" fill="#959595"/>
<path d="M48.7 64.6C48.7 63.9 49.2 63.3 49.9 63.3V51.8C49.9 51.8 45.5 46.7 42.4 43.4C39.4 40.1 35.0999 34.5 35.0999 34.5L30.7 59.4C30.7 59.4 35.7999 65.9 40.2999 70C44.2999 73.7 49.9 77.5 49.9 77.5V65.9C49.3 65.9 48.7 65.3 48.7 64.6Z" fill="#494949"/>
<path d="M50 65.4C49.9 65.4 49.8001 65.4 49.7001 65.3L32.3 49.2999V47.9L50 64.1999L67.6 47.7L67.7 49L50.4001 65.1999C50.3001 65.2999 50.2001 65.4 50 65.4Z" fill="#959595"/>
<path d="M86.4999 38.1001L64.6999 34.6001C64.6999 34.6001 66.6999 46.1001 66.6999 65.4001C66.6999 84.7001 63.9999 97.8001 63.9999 97.8001L85.9999 95.4001C85.9999 95.4001 88.7999 84.9001 88.7999 66.7001C88.8999 48.6001 86.4999 38.1001 86.4999 38.1001ZM76.3999 88.9001C75.7999 88.9001 75.2999 88.4001 75.2999 87.8001C75.2999 87.2001 75.7999 86.7001 76.3999 86.7001C76.9999 86.7001 77.4999 87.2001 77.4999 87.8001C77.4999 88.4001 76.9999 88.9001 76.3999 88.9001ZM33.0999 65.4001C33.0999 46.1001 35.0999 34.6001 35.0999 34.6001L13.2999 38.1001C13.2999 38.1001 10.8999 48.6001 10.8999 66.8001C10.8999 85.0001 13.6999 95.5001 13.6999 95.5001L35.6999 97.9001C35.7999 97.8001 33.0999 84.6001 33.0999 65.4001ZM23.0999 88.8001C22.4999 88.8001 22.0999 88.4001 22.0999 87.8001C22.0999 87.3001 22.4999 86.8001 23.0999 86.8001C23.6999 86.8001 24.0999 87.2001 24.0999 87.8001C24.0999 88.4001 23.5999 88.8001 23.0999 88.8001Z" fill="#565656"/>
<path d="M76.3999 45.3999C76.8999 45.3999 77.3999 44.9999 77.3999 44.3999C77.3999 43.7999 76.9999 43.3999 76.3999 43.3999C75.8999 43.3999 75.3999 43.7999 75.3999 44.3999C75.3999 44.9999 75.8999 45.3999 76.3999 45.3999Z" fill="#434343"/>
<path d="M76.4 88.3H76.3C76 88.2 75.9 88 75.9 87.7C75.9 87.6 77.4 81.2 77.4 66.4C77.4 51.5 75.9 44.5 75.9 44.5C75.8 44.2 76 44 76.3 43.9C76.6 43.8 76.8 44 76.9 44.3C76.9 44.4 78.4 51.5 78.4 66.5C78.4 81.5 76.9 87.8 76.9 88C76.9 88.2 76.7 88.3 76.4 88.3Z" fill="#959595"/>
<path d="M23.0999 45.5001C23.6999 45.5001 24.2999 45.0001 24.2999 44.3001C24.2999 43.7001 23.7999 43.1001 23.0999 43.1001C22.4999 43.1001 21.8999 43.6001 21.8999 44.3001C21.8999 45.0001 22.3999 45.5001 23.0999 45.5001Z" fill="#434343"/>
<path d="M23.1 88.3C22.9 88.3 22.6 88.1 22.6 87.9C22.6 87.8 21.3 79.4 21.3 66.2C21.3 53 22.6 44.4 22.6 44.3C22.6 44 22.9001 43.8 23.2001 43.9C23.5001 43.9 23.7 44.2 23.6 44.5C23.6 44.6 22.3 53.1 22.3 66.2C22.3 79.3 23.5001 87.7 23.6 87.8C23.6 88 23.4 88.3 23.1 88.3Z" fill="#959595"/>
</svg>
