<svg width="100" height="100" viewBox="0 0 100 100" fill="none" xmlns="http://www.w3.org/2000/svg">
<g clip-path="url(#clip0_755_22322)">
<path fill-rule="evenodd" clip-rule="evenodd" d="M97.8001 17C96.3001 17.1 96.7001 17.7 93.4001 18.6C90.0001 19.4 86.0001 18.9 82.4001 20.4C73.0001 24.4 71.4001 39.7 60.2001 45.6C52.8001 49.8 45.3001 50.7 38.6001 52.8C33.2001 55 29.8001 56.4 25.9001 59.8C22.8001 62.4 22.1001 65 18.9001 68.3C15.6001 72.7 3.3001 68.8 0.100098 74.3C1.8001 75.4 2.7001 75.7 5.7001 75.3C5.1001 76.5 1.2001 78 1.9001 79.7C1.9001 79.7 11.3001 81.4 19.1001 76.6C22.8001 75.1 26.2001 71.9 31.9001 71.2C39.3001 70.2 47.6001 72.8 56.6001 73.5C54.8001 77.2 52.8001 79.3 50.8001 82.3C50.2001 83 51.3001 83.6 53.5001 83.2C57.4001 82.2 60.2001 81.2 63.0001 79.2C66.7001 76.7 68.2001 74.4 71.3001 70.7C74.0001 75 83.4001 75.9 85.4001 72.2C81.8001 70.7 81.0001 62.7 82.3001 59.3C83.8001 56 84.8001 51.4 86.0001 47.1C87.1001 43.2 87.7001 37.3 89.0001 34.3C90.5001 30.5 93.5001 29.4 95.7001 27.4C97.9001 25.4 100.1 23.7 100.1 19.2C100 17.8 99.2001 17 97.8001 17Z" fill="#303030"/>
<path d="M2.79995 78.9999C8.59995 79.1999 10.2 78.9999 14.8 76.9999C18.7 75.2999 23.9 70.6999 28.5 69.2999C35.2999 67.0999 42.5 67.4999 49.7 68.2999C52.1 68.5999 54.5 68.9999 56.2999 68.7999C59 67.0999 59.0999 62.6999 60.7999 62.2999C60.2999 70.9999 56.6 76.4999 52.9 81.5999C60.7 80.1999 66 75.2999 69.2 69.2999C70.2 67.4999 71.8 64.4999 72.5 62.3999C73.1 63.7999 71.7 64.5999 72.4 66.0999C77.4 61.8999 79.8 57.1999 81.9 50.1999C84.3 42.1999 86.7 35.1999 88.2 32.8999C89.7 30.5999 92 29.0999 94.1 27.6999C96.5 25.9999 98.7 24.1999 99 20.9999C96.5 20.7999 95.9 20.1999 95.5 18.8999C94.2 19.5999 93.1 19.7999 91.7 19.7999C90.6 19.7999 89.3 19.7999 87.8 19.8999C75 21.1999 74.3999 33.5999 65.1999 42.7999C64.5999 43.3999 63.6 44.1999 62.9 44.6999C60 46.7999 57 47.9999 53.7999 49.1999C48.5999 51.1999 43.6 51.7999 38.7 53.4999C35.1 54.7999 31.7999 56.1999 28.7999 58.1999C28.0999 58.6999 27.1 59.5999 26.4 60.0999C24.6999 61.4999 23.5 63.0999 22.4 64.6999C21.2999 66.3999 20.2 68.0999 18.5 69.6999C15.8 72.3999 5.69995 70.4999 2.09995 72.8999C1.69995 73.1999 1.39995 73.4999 1.19995 73.8999C3.09995 74.7999 4.39995 74.1999 6.69995 74.4999C6.99995 76.7999 2.09995 77.9999 2.79995 78.9999Z" fill="#898989"/>
<path fill-rule="evenodd" clip-rule="evenodd" d="M83.5 25.1999C85.3 26.7999 89.1 25.4999 88.4 22.3999C85.6 22.0999 84 23.0999 83.5 25.1999Z" fill="#303030"/>
<path d="M96 21.5C95.5 22.5 94.6 23.8 94.6 26.4C94.6 26.8 94.3 27.1 94.3 26.5C94.3 24 95 22.9 95.7 21.5C96 20.9 96.2 21.1 96 21.5Z" fill="#303030"/>
<path d="M95.5999 21.2C94.9999 22.2 93.6999 23.9 93.4999 26.5C93.4999 26.9 93.0999 27.2 93.1999 26.5C93.3999 24 94.4999 22.5 95.3999 21.1C95.5999 20.5 95.7999 20.7 95.5999 21.2Z" fill="#303030"/>
<path d="M95.0999 20.7C94.4999 21.6 92.3999 23.7 91.8999 26.2C91.7999 26.6 91.3999 26.9 91.5999 26.2C92.0999 23.7 93.8999 21.8 94.7999 20.5C95.1999 20 95.3999 20.3 95.0999 20.7Z" fill="#303030"/>
<path d="M94.7 20.0999C93.9 20.8999 91.4 23.5999 90.7 25.9999C90.6 26.3999 90.2 26.5999 90.4 25.9999C91.2 23.5999 93.4 21.0999 94.5 19.8999C94.9 19.4999 95 19.6999 94.7 20.0999Z" fill="#303030"/>
</g>
<defs>
<clipPath id="clip0_755_22322">
<rect width="100" height="100" fill="white"/>
</clipPath>
</defs>
</svg>
