<svg width="100" height="100" viewBox="0 0 100 100" fill="none" xmlns="http://www.w3.org/2000/svg">
<mask id="mask0_755_22355" style="mask-type:luminance" maskUnits="userSpaceOnUse" x="0" y="17" width="100" height="67">
<path d="M100 17H0V83.8H100V17Z" fill="white"/>
</mask>
<g mask="url(#mask0_755_22355)">
<path d="M10.8 60.7999C10.8 64.5999 11.6 67.4999 12.7 69.2999C14.1 71.5999 16.3 72.5999 18.5 72.5999C21.3 72.5999 23.9 71.8999 28.9 64.9999C32.9 59.4999 37.6 51.7999 40.7 46.8999L46 38.6999C49.7 32.9999 54 26.6999 58.9 22.3999C62.9 18.8999 67.3 16.8999 71.6 16.8999C79 16.9999 86 21.1999 91.3 29.1999C97.1 37.8999 100 48.8999 100 60.1999C100 66.8999 98.7 71.8999 96.4 75.7999C94.2 79.5999 90 83.3999 82.8 83.3999V72.5999C88.9 72.5999 90.5 66.9999 90.5 60.4999C90.5 51.2999 88.4 41.0999 83.6 33.7999C80.3 28.5999 75.9 25.4999 71.1 25.4999C65.9 25.4999 61.8 29.3999 57.1 36.2999C54.6 39.9999 52.1 44.4999 49.2 49.5999L46 55.1999C39.8 66.4999 38.2 68.9999 35 73.1999C29.5 80.5999 24.7 83.3999 18.5 83.3999C11.1 83.3999 6.4 80.1999 3.5 75.3999C1.2 71.4999 0 66.2999 0 60.3999L10.8 60.7999Z" fill="#686868"/>
<path d="M8.5 30C13.5 22.4 20.6 17 28.8 17C33.5 17 38.3 18.4 43.2 22.4C48.6 26.8 54.3 34 61.5 46L64.1 50.3C70.3 60.6 73.8 66 75.9 68.5C78.6 71.7 80.4 72.7 82.8 72.7C88.9 72.7 90.5 67.1 90.5 60.6L100 60.3C100 67 98.7 72 96.4 75.9C94.2 79.7 90 83.5 82.8 83.5C78.3 83.5 74.4 82.5 70 78.4C66.6 75.2 62.7 69.6 59.7 64.6L50.7 49.6C46.2 42.1 42.1 36.5 39.7 33.9C37.1 31.2 33.8 27.9 28.6 27.9C24.3 27.9 20.7 30.9 17.7 35.5L8.5 30Z" fill="url(#paint0_linear_755_22355)"/>
<path d="M28.6 27.9C24.3 27.9 20.7 30.9 17.7 35.5C13.4 42 10.8 51.6 10.8 60.9C10.8 64.7 11.6 67.6 12.7 69.4L3.5 75.5C1.2 71.5 0 66.3 0 60.4C0 49.7 2.9 38.6 8.5 30C13.5 22.4 20.6 17 28.8 17L28.6 27.9Z" fill="url(#paint1_linear_755_22355)"/>
</g>
<defs>
<linearGradient id="paint0_linear_755_22355" x1="1460.51" y1="121.161" x2="8337.83" y2="468.511" gradientUnits="userSpaceOnUse">
<stop stop-color="#545454"/>
<stop offset="0.4" stop-color="#545454"/>
<stop offset="0.83" stop-color="#5E5E5E"/>
<stop offset="1" stop-color="#686868"/>
</linearGradient>
<linearGradient id="paint1_linear_755_22355" x1="14.4057" y1="4850.76" x2="14.4057" y2="2312.19" gradientUnits="userSpaceOnUse">
<stop stop-color="#686868"/>
<stop offset="1" stop-color="#545454"/>
</linearGradient>
</defs>
</svg>
