<svg width="100" height="100" viewBox="0 0 100 100" fill="none" xmlns="http://www.w3.org/2000/svg">
<path d="M91.3 76.9L52.7 99.3C51.9 99.7 51 100 50 100C49.1 100 48.1 99.8 47.3 99.3L8.7 76.9C7 76 6 74.2 6 72.3V27.7C6 25.8 7 24.1 8.7 23.1L47.3 0.7C48.1 0.2 49.1 0 50 0C50.9 0 51.9 0.2 52.7 0.7L91.3 23C93 24 94 25.7 94 27.6V72.3C94 74.2 93 76 91.3 76.9Z" fill="#6F6F6F"/>
<path d="M50 6.80005C49.2 6.80005 48.4 7.00005 47.7 7.40005L14.3 26.7001C12.9 27.5 12 29.1 12 30.7001V69.2C12 70.9 12.9 72.4 14.3 73.2L47.7 92.5C48.4 92.9 49.2 93.1 50 93.1C50.8 93.1 51.6 92.9 52.3 92.5L85.7 73.2C87.1 72.4 88 70.8 88 69.2V30.7001C88 29 87.1 27.5 85.7 26.7001L52.3 7.40005C51.6 7.00005 50.8 6.80005 50 6.80005ZM50 8.40005C50.5 8.40005 51 8.60005 51.5 8.80005L84.9 28.1C85.8 28.6 86.4 29.7001 86.4 30.7001V69.2C86.4 70.3 85.8 71.3 84.9 71.8L51.5 91.2C51 91.5 50.5 91.6 50 91.6C49.5 91.6 48.9 91.4 48.5 91.2L15.1 71.9C14.2 71.4 13.6 70.3001 13.6 69.3001V30.7001C13.6 29.6 14.2 28.6 15.1 28.1L48.5 8.80005C48.9 8.60005 49.5 8.40005 50 8.40005ZM46.9 42H51.4C51.6 42 51.7 41.9 51.8 41.8C54.5 38.8 54.8 32.5 54.8 30.6C54.8 30.3 54.6 30.1 54.3 30.1H44.1C43.8 30.1 43.6 30.3 43.6 30.6C43.6 32.4 43.9 38.7 46.6 41.8C46.6 41.9 46.7 42 46.9 42ZM45.6 31.8H52.7C53 31.8 53.2 32 53.2 32.3C53.2 33.8 52.9 38 51.1 40.2001C50.9 40.3 50.8 40.4001 50.7 40.4001H47.5C47.3 40.4001 47.2 40.3 47.1 40.2001C45.3 38.1 45.1 33.8 45 32.3C45.1 32.1 45.3 31.8 45.6 31.8ZM50.1 29.1C50.1 29.1 52 28 50.9 25.9C50.2 24.8 49.9 23.9 50.1 23.5C49.4 24.4 48.2 25.3001 49.5 27.2001C50 27.7001 50.2 28.7 50.1 29.1ZM48 29.2001C48 29.2001 49.3 28.4 48.5 27.1C48 26.4 47.8 25.8 48 25.5C47.5 26.1 46.8 26.7001 47.6 28C47.9 28.3 48 29 48 29.2001ZM47.8 39.8H50.5C50.6 39.8 50.7 39.7 50.8 39.6C51.7 38.5 52.1 36.9001 52.4 35.4001C52.4 35.4001 52.3 35.9001 51.1 36.4001C49.3 37.0001 46.2 36.6 46.2 36.6C46.5 37.7 46.9 38.8 47.5 39.6C47.6 39.7 47.7 39.8 47.8 39.8ZM27.7 54.9001V44.1H25.7L22.4 49.1L19.1 44.1H17.1V54.9001H19V47.2001L22.3 52.2001H22.4L25.8 47.2001V54.9001H27.7ZM39.7 44.4001C39 44.1001 38.3 44 37.4 44C36.6 44 35.8 44.1001 35.1 44.4001C34.4 44.7001 33.8 45.1 33.3 45.6C32.8 46.1 32.4 46.7001 32.1 47.4001C31.8 48.1001 31.7 48.8 31.7 49.5V49.6C31.7 50.4 31.9 51.1001 32.1 51.7001C32.4 52.4001 32.7 53 33.2 53.5C33.7 54 34.3 54.4001 35 54.7001C35.7 55 36.4 55.1 37.3 55.1C38.1 55.1 38.9 55 39.6 54.7001C40.3 54.4001 40.9 54 41.4 53.5C41.9 53 42.3 52.4001 42.6 51.7001C42.9 51 43 50.3 43 49.6V49.5C43 48.7001 42.8 48 42.6 47.4001C42.3 46.7001 42 46.1 41.5 45.6C41 45.1 40.4 44.6001 39.7 44.4001ZM41 49.6C41 50.1 40.9 50.6 40.7 51C40.5 51.4001 40.3 51.9001 39.9 52.2001C39.6 52.5 39.2 52.8 38.8 53C38.4 53.2001 37.9 53.3 37.4 53.3C36.9 53.3 36.4 53.2001 36 53C35.6 52.8 35.2 52.5 34.9 52.2001C34.6 51.8 34.3 51.4001 34.1 51C33.9 50.5 33.8 50 33.8 49.5V49.4001C33.8 48.9001 33.9 48.4001 34.1 48C34.3 47.6 34.5 47.1 34.9 46.8C35.2 46.5 35.6 46.2001 36 46C36.4 45.8 36.9 45.7001 37.4 45.7001C37.9 45.7001 38.4 45.8 38.8 46C39.2 46.2001 39.6 46.5 39.9 46.8C40.2 47.2001 40.5 47.6 40.7 48C40.9 48.5 41 49 41 49.6ZM48.9 48C49.1 47.6 49.3 47.1 49.7 46.8C50 46.5 50.4 46.2001 50.8 46C51.2 45.8 51.7 45.7001 52.2 45.7001C52.8 45.7001 53.4 45.8 53.9 46.1C54.4 46.4 54.8 46.7 55.2 47.1L56.4 45.7001C56.1 45.4001 55.9 45.2001 55.6 45C55.3 44.8 55 44.6 54.7 44.5C54.3 44.4001 54 44.3 53.6 44.2001C53.2 44.1001 52.7 44.1 52.3 44.1C51.4 44.1 50.7 44.3 50 44.5C49.3 44.8 48.7 45.2001 48.2 45.7001C47.7 46.2001 47.3 46.8 47.1 47.5C46.8 48.2001 46.7 48.9 46.7 49.6V49.7001C46.7 50.5 46.9 51.1 47.1 51.8C47.4 52.5 47.7 53.1 48.2 53.6C48.7 54.1 49.3 54.5 49.9 54.8C50.6 55.1 51.3 55.2001 52 55.2001C52.5 55.2001 53 55.2 53.4 55.1C53.8 55 54.2 54.9001 54.5 54.7001C54.8 54.5 55.1 54.4 55.5 54.1C55.8 53.8 56.1 53.6 56.4 53.3L55.2 52.1C54.7 52.5 54.2 52.9 53.8 53.1C53.4 53.4 52.8 53.5 52.1 53.5C51.6 53.5 51.1 53.3 50.7 53.2001C50.3 53 49.9 52.7001 49.6 52.4001C49.3 52 49 51.6001 48.8 51.2001C48.6 50.7001 48.5 50.2001 48.5 49.7001V49.6C48.6 48.9 48.8 48.4001 48.9 48ZM60.2 44.1V54.8H62.1V50.3H67.3V54.8H69.2V44.1H67.3V48.6H62.1V44.1H60.2ZM80.9 52.3L82 54.9001H84L79.3 44.1H77.6L72.9 54.9001H74.8L75.9 52.3H80.9ZM78.3 46.3L80.1 50.6H76.5L78.3 46.3ZM15.8 58.9001H84.2V58.3H15.8V58.9001ZM55.1 38.1C55.1 38.3 55 38.5 55 38.7001H84.1V38.1H55.1ZM43.2 38.1H15.8V38.7001H43.2C43.2 38.5 43.2 38.3 43.2 38.1Z" fill="white"/>
</svg>
