<svg width="100" height="100" viewBox="0 0 100 100" fill="none" xmlns="http://www.w3.org/2000/svg">
<path d="M87 54.2999C87 55.1999 87.4 55.7999 88.6 55.7999C89.9 55.7999 91.4 54.7999 91.5 52.5999C90.9 52.4999 90.2 52.3999 89.6 52.3999C88.2 52.3999 87 52.7999 87 54.2999Z" fill="black"/>
<path d="M0 34V66.1H100V34H0ZM28.3 58.2H22.8V50.8C22.8 48.5 22 47.6 20.5 47.6C18.7 47.6 18 48.9 18 50.7V55.3H19.7V58.2H14.2V50.8C14.2 48.5 13.4 47.6 11.9 47.6C10.1 47.6 9.4 48.9 9.4 50.7V55.3H11.9V58.2H3.8V55.3H5.6V47.8H3.7V45H9.4V47C10.2 45.6 11.6 44.7 13.4 44.7C15.3 44.7 17.1 45.6 17.7 47.5C18.4 45.7 19.9 44.7 22 44.7C24.4 44.7 26.5 46.1 26.5 49.3V55.3H28.3V58.2ZM36.7 58.5C32.6 58.5 29.8 56 29.8 51.8C29.8 47.9 32.1 44.7 36.9 44.7C41.6 44.7 44 47.9 44 51.6C44 55.8 40.9 58.5 36.7 58.5ZM57.8 58.2H46.2L45.8 56.2L53.1 47.8H49L48.4 49.9L45.7 49.6L46.2 45H57.8L58.1 47L50.8 55.4H55L55.6 53.3L58.6 53.6L57.8 58.2ZM64.9 58.2H60.9V53.5H64.9V58.2ZM64.9 49.7H60.9V45H64.9V49.7ZM67 58.2L72.7 38H76.4L70.7 58.2H67ZM74.7 58.2L80.4 38H84.1L78.4 58.2H74.7ZM94.3 58.5C92.5 58.5 91.6 57.5 91.4 55.9C90.6 57.2 89.3 58.5 87.2 58.5C85.3 58.5 83.1 57.5 83.1 54.7C83.1 51.4 86.2 50.7 89.3 50.7C90 50.7 90.7 50.7 91.5 50.8V50.4C91.5 49.1 91.5 47.4 89.3 47.4C88.5 47.4 87.9 47.5 87.3 47.8L86.8 49.7L83.8 49.4L84.4 46C86.7 45.1 87.9 44.8 90.1 44.8C92.9 44.8 95.3 46.3 95.3 49.3V55C95.3 55.8 95.6 56 96.2 56C96.4 56 96.6 56 96.8 55.9V57.9C96 58.3 95.2 58.5 94.3 58.5Z" fill="black"/>
<path d="M36.9 47.6001C35 47.6001 33.8 49.0001 33.8 51.5001C33.8 53.8001 34.9 55.5001 36.9 55.5001C38.9 55.5001 40.2 53.9001 40.2 51.4001C40.1 48.8001 38.7 47.6001 36.9 47.6001Z" fill="black"/>
</svg>
