<svg width="100" height="100" viewBox="0 0 100 100" fill="none" xmlns="http://www.w3.org/2000/svg">
<g clip-path="url(#clip0_755_22393)">
<path d="M59.8 64.7L35.3 59.6C35.2 59.8 35.1 60 35 60.2L57.3 92.8L58.6 91.5L62.4 67.9C61.8 67.6 61.2 67.2 60.7 66.7C60.3 66 60 65.4 59.8 64.7ZM50.9 32.7C50 34.1 48.4 35 46.6 35C46.3 35 46.1 35 45.8 34.9L34.5 52.4L64.4 39.5C64.4 39.4 64.4 39.3 64.4 39.1C64.4 38.8 64.4 38.6 64.5 38.4L50.9 32.7ZM51.7 29.5L66.2 35.7C66.7 35.3 67.2 35.1 67.8 34.9L70.2 20.1L61 11L50.8 27C51.3 27.7 51.6 28.6 51.7 29.5ZM82 32L72.9 22.9L70.9 35.2C71.4 35.5 71.9 35.8 72.2 36.2L82 32ZM60.2 61.5C60.6 60.9 61.1 60.3 61.7 59.9C62.3 59.5 63 59.3 63.8 59.2L66.4 43C66.2 42.9 66 42.7 65.8 42.5L35.8 55.4C35.9 55.7 35.9 56 36 56.4L60.2 61.5ZM84.5 34.5L74 39L99.9 50.1L100 50L84.5 34.5ZM65.7 67.8L62.5 87.4L80.8 69.1L67.6 66.3C67.2 67 66.5 67.5 65.7 67.8ZM30 62.8C29.3 62.8 28.7 62.7 28.1 62.5L22 72L19.6 69.6L25.4 60.6C25.3 60.4 25.1 60.2 25 60L14.5 64.5L12 62L23.4 57.1L2.9 52.8L0.1 50L1 49.1L24.9 54.1C25.2 53.6 25.5 53.1 25.9 52.7L14.3 35.8L16.6 33.5L28.7 51.2C29.1 51.1 29.6 51 30 51C30.5 51 31 51.1 31.5 51.2L42.8 33.5C41.9 32.5 41.4 31.3 41.4 29.9C41.4 29.5 41.5 29.1 41.5 28.7L27.4 22.7L29.9 20.2L43.3 25.9C44 25.3 44.8 25 45.7 24.8C46.6 24.6 47.5 24.7 48.3 25L58.7 8.7L50 0L0 50L50 100L54.9 95.1L32.4 62.3C31.7 62.6 30.9 62.8 30 62.8ZM69.6 43.7L66.9 60.2C67.4 60.6 67.7 61 68 61.6C68.3 62.1 68.5 62.7 68.5 63.3L83.6 66.4L97.4 52.6L72.5 41.9C71.8 42.9 70.8 43.5 69.6 43.7Z" fill="#959595"/>
</g>
<defs>
<clipPath id="clip0_755_22393">
<rect width="100" height="100" fill="white"/>
</clipPath>
</defs>
</svg>
