<svg width="100" height="100" viewBox="0 0 100 100" fill="none" xmlns="http://www.w3.org/2000/svg">
<mask id="mask0_755_22404" style="mask-type:luminance" maskUnits="userSpaceOnUse" x="0" y="40" width="100" height="21">
<path d="M100 40H0V60.3H100V40Z" fill="white"/>
</mask>
<g mask="url(#mask0_755_22404)">
<path d="M66.5 40H83.9V43.2H77V60.1H73.5V43.2H66.4V40H66.5Z" fill="black"/>
<path d="M37.8 40V43.2H23.8V48.4H35V51.6H23.9V56.9H37.9V60.1H20.4V43.2V40H37.8Z" fill="black"/>
<path d="M46.5 40H42L58.2 60.1H62.7L54.6 50L62.7 40H58.2L52.4 47.2L46.5 40Z" fill="black"/>
<path d="M51.2 54.4001L48.9 51.6001L42 60.2001H46.5L51.2 54.4001Z" fill="black"/>
<path fill-rule="evenodd" clip-rule="evenodd" d="M20.5 60.1L4.3 40H0V60.1H3.5V44.3L16.2 60.1H20.5Z" fill="black"/>
<path d="M84.7 60C84.4 60 84.2 59.9 84.1 59.7C84 59.5 83.8 59.2999 83.8 59.0999C83.8 58.8999 83.9 58.6 84.1 58.5C84.3 58.4 84.5 58.2 84.7 58.2C84.9 58.2 85.2 58.3 85.3 58.5C85.5 58.7 85.6 58.8999 85.6 59.0999C85.6 59.2999 85.6 59.3999 85.5 59.5999C85.4 59.6999 85.3 59.8 85.2 59.9C85 60 84.8 60 84.7 60Z" fill="black"/>
<path d="M90.6 51.5H92.1V57.4C92.1 57.9 92 58.4 91.8 58.8C91.6 59.2 91.2 59.5 90.8 59.7C90.4 59.9 89.9 60 89.4 60C88.9 60 88.5 59.9 88.1 59.7C87.7 59.5 87.4 59.3 87.2 58.9C87 58.6 86.9 58.1 86.9 57.6H88.4C88.4 57.8 88.5 58 88.6 58.2C88.7 58.4 88.8 58.5 89 58.6C89.2 58.7 89.4 58.7 89.6 58.7C89.8 58.7 90.1 58.6 90.2 58.5C90.4 58.4 90.5 58.2 90.6 58C90.7 57.8 90.7 57.6 90.7 57.3V51.5H90.6Z" fill="black"/>
<path d="M98.4 53.8C98.4 53.4 98.2 53.2 97.9 53C97.6 52.8 97.2 52.7 96.8 52.7C96.5 52.7 96.2 52.7 96 52.8C95.8 52.9 95.6 53 95.5 53.2C95.4 53.4 95.3 53.6 95.3 53.8C95.3 54 95.3 54.1 95.4 54.3C95.5 54.4 95.6 54.5 95.7 54.6C95.8 54.7 96 54.8 96.2 54.8C96.4 54.9 96.5 54.9 96.7 55L97.5 55.2C97.8 55.3 98.1 55.4 98.4 55.5C98.7 55.6 99 55.8 99.2 56C99.4 56.2 99.6 56.4 99.8 56.7C99.9 57 100 57.3 100 57.7C100 58.2 99.9 58.6 99.6 59C99.3 59.4 99 59.7 98.5 59.9C98 60.1 97.4 60.2 96.8 60.2C96.1 60.2 95.6 60.1 95.1 59.9C94.6 59.7 94.2 59.4 94 59C93.7 58.6 93.6 58.1 93.6 57.6H95C95 57.9 95.1 58.1 95.3 58.3C95.5 58.5 95.7 58.6 95.9 58.7C96.2 58.8 96.5 58.8 96.8 58.8C97.1 58.8 97.4 58.7 97.7 58.6C98 58.5 98.2 58.4 98.3 58.2C98.4 58 98.5 57.8 98.5 57.6C98.5 57.4 98.4 57.2 98.3 57.1C98.2 57 98 56.8 97.8 56.7C97.6 56.6 97.3 56.5 97 56.4L96 56.2C95.3 56 94.7 55.8 94.3 55.4C93.9 55 93.7 54.6 93.7 54C93.7 53.5 93.8 53.1 94.1 52.7C94.4 52.3 94.7 52 95.2 51.8C95.7 51.6 96.2 51.5 96.8 51.5C97.4 51.5 97.9 51.6 98.4 51.8C98.9 52 99.2 52.3 99.5 52.7C99.8 53.1 99.9 53.5 99.9 54H98.4V53.8Z" fill="black"/>
</g>
</svg>
