<svg width="100" height="100" viewBox="0 0 100 100" fill="none" xmlns="http://www.w3.org/2000/svg">
<g clip-path="url(#clip0_755_22422)">
<path d="M50.4 16C50.4 16 46.6 19 42.7 22C38.7 21.9 30.8 22.8 26.5 24.3C22.6 21.8 19.1 19.1 19.1 19.1C19.1 19.1 16.1 24.2 14.3 27.2C11.5 28.7 8.8 30.3 6.3 32.5C3.4 31.4 0.1 30 0 29.9C3.8 37.6 6.3 45.2 13.3 49.8C24.3 32.4 75.7 34 87 49.7C94.3 45.9 97.1 37.7 100 30.2C99.7 30.3 95.8 31.6 93.3 32.6C91.8 31 88.2 28.4 86.2 27.2C84.3 23.7 81.5 18.9 81.5 18.9C81.5 18.9 78.2 21.4 74.4 24C69.2 23 63 21.9 57.7 22.2C54 19.3 50.4 16 50.4 16Z" fill="#C6C6C6"/>
<path d="M3.90002 46.2001C3.90002 46.2001 9.30002 59.2001 13 68.3001C28.9 89.2001 69.3 90.6001 87 68.7001C91.2 59.3001 96.8 46.1001 96.8 46.1001C92.3 52.8001 84.9 57.4001 80.4 59.9001C77.2 61.7001 69.7 62.7001 69.7 62.7001L50.2 52.6001L30.6 62.5001C30.6 62.5001 23.3 61.3001 19.9 59.8001C13.2 56.2001 8.70002 52.0001 3.90002 46.2001Z" fill="#DFDFDF"/>
</g>
<defs>
<clipPath id="clip0_755_22422">
<rect width="100" height="100" fill="white"/>
</clipPath>
</defs>
</svg>
