<svg width="100" height="100" viewBox="0 0 100 100" fill="none" xmlns="http://www.w3.org/2000/svg">
<g clip-path="url(#clip0_755_22425)">
<path fill-rule="evenodd" clip-rule="evenodd" d="M88 17.5C70.1 -3.49999 38.6 -5.99999 17.6 12C-3.49998 29.9 -5.99998 61.4 12 82.4C29.9 103.4 61.5 105.9 82.5 88C103.5 70.1 106 38.6 88 17.5ZM63.1 43.8C65 43.8 66.3 45.9 65.3 47.6L65 48L46.1 79C45.7 79.6 45.1 79.9 44.4 79.9H42.6C41.4 79.9 40.5 78.7 40.8 77.5L46 57.8C46.4 56.2 45.2 54.7 43.6 54.7H35.7C34.1 54.7 32.9 53.2 33.3 51.6L41 21.7C41.3 20.7 42.2 20 43.2 20C43.3 20 43.4 20 43.5 20H51.4C52.9 20 54.1 21.3 53.9 22.8V23.2L50.9 40.9C50.6 42.4 51.8 43.8 53.4 43.8H63.1Z" fill="url(#paint0_radial_755_22425)"/>
<path d="M2.8001 33.6001C0.200105 41.0001 -0.599895 49.0001 0.500105 56.9001C1.6001 64.7001 4.50011 72.2001 9.10011 78.7001C13.6001 85.2001 19.7001 90.5001 26.7001 94.2001C33.7001 97.9001 41.5001 99.9001 49.4001 100C57.3001 100.1 65.1001 98.3001 72.2001 94.8001C79.3001 91.3001 85.5001 86.2001 90.2001 79.8001C94.9001 73.4001 98.1001 66.1001 99.4001 58.3001C100.7 50.5001 100.2 42.5001 97.8001 34.9001L83.3001 39.5001C85.0001 44.7001 85.3001 50.3001 84.4001 55.7001C83.5001 61.1001 81.3001 66.3001 78.0001 70.7001C74.7001 75.1001 70.4001 78.7001 65.5001 81.1001C60.6001 83.5001 55.1001 84.8001 49.6001 84.7001C44.1001 84.6001 38.7001 83.2001 33.8001 80.7001C28.9001 78.1001 24.8001 74.4001 21.6001 69.9001C18.4001 65.4001 16.4001 60.2001 15.6001 54.7001C14.8001 49.2001 15.4001 43.7001 17.2001 38.5001L2.8001 33.6001Z" fill="white"/>
</g>
<defs>
<radialGradient id="paint0_radial_755_22425" cx="0" cy="0" r="1" gradientUnits="userSpaceOnUse" gradientTransform="translate(10.0037 49.9772) scale(97.4983 994.24)">
<stop stop-color="#929292"/>
<stop offset="0.474" stop-color="#ACACAC"/>
<stop offset="1" stop-color="#8F8F8F"/>
</radialGradient>
<clipPath id="clip0_755_22425">
<rect width="100" height="100" fill="white"/>
</clipPath>
</defs>
</svg>
