<svg width="100" height="100" viewBox="0 0 100 100" fill="none" xmlns="http://www.w3.org/2000/svg">
<g clip-path="url(#clip0_755_22438)">
<path d="M56.1 83.7H93.3C94.5 83.7 95.6 83.4 96.7 82.8C97.7 82.2 98.6 81.4 99.2 80.4C99.8 79.4 100.1 78.2 100.1 77.1C100.1 75.9 99.8 74.8 99.2 73.8L74.2 30.9C73.6 29.9 72.8 29 71.7 28.5C70.7 27.9 69.5 27.6 68.3 27.6C67.1 27.6 66 27.9 64.9 28.5C63.9 29.1 63 29.9 62.4 30.9L56 41.9L43.6 20.3C43 19.3 42.2 18.4 41.1 17.9C40.1 17.3 38.9 17 37.7 17C36.5 17 35.4 17.3 34.3 17.9C33.3 18.5 32.4 19.3 31.8 20.3L0.9 73.7C0.3 74.7 0 75.8 0 77C0 78.2 0.3 79.3 0.9 80.3C1.5 81.3 2.3 82.2 3.4 82.7C4.4 83.3 5.6 83.6 6.8 83.6H30.1C39.3 83.6 46.2 79.6 50.9 71.7L62.3 52.1L68.4 41.6L86.7 73H62.2L56.1 83.7ZM29.7 73.2H13.4L37.8 31.3L50 52.3L41.8 66.3C38.7 71.3 35.2 73.2 29.7 73.2Z" fill="#909090"/>
</g>
<defs>
<clipPath id="clip0_755_22438">
<rect width="100" height="100" fill="white"/>
</clipPath>
</defs>
</svg>
