<svg width="100" height="100" viewBox="0 0 100 100" fill="none" xmlns="http://www.w3.org/2000/svg">
<g clip-path="url(#clip0_755_22440)">
<path d="M51.8999 83.5999C51.6999 82.7999 52.0999 81.7999 51.6999 80.9999C51.4999 80.1999 50.8999 80.1999 50.6999 79.5999C49.8999 77.9999 48.8999 76.1999 48.8999 74.2999C48.8999 72.6999 48.2999 71.0999 48.0999 69.4999C48.0999 68.6999 48.0999 67.8999 48.0999 67.0999C48.0999 66.6999 48.0999 66.2999 47.8999 65.8999C47.8999 65.6999 47.8999 65.2999 47.6999 65.2999L47.8999 64.6999C47.8999 64.4999 49.6999 64.4999 50.2999 64.4999C51.2999 64.4999 52.0999 64.4999 53.0999 64.6999C55.0999 64.6999 56.6999 64.6999 58.5999 64.4999C62.7999 63.8999 64.4999 62.0999 65.4999 61.4999C69.2999 58.8999 70.9999 54.3999 70.9999 54.3999C71.5999 52.9999 71.5999 50.3999 72.9999 49.3999C74.5999 47.9999 77.1999 48.1999 78.8999 47.3999C79.8999 46.9999 80.6999 46.5999 81.8999 46.7999C82.6999 46.9999 84.0999 47.9999 84.4999 46.5999C84.2999 46.3999 84.0999 46.1999 83.8999 45.9999C85.4999 45.7999 83.8999 42.3999 83.2999 41.5999C82.2999 40.5999 80.8999 39.9999 79.2999 39.5999C77.2999 38.9999 75.4999 38.3999 73.7999 38.7999C70.5999 39.3999 70.7999 37.5999 68.9999 37.5999C66.7999 37.5999 62.8999 37.7999 62.0999 39.9999C61.6999 40.9999 61.4999 40.9999 60.8999 41.7999C60.4999 42.3999 60.8999 42.9999 60.6999 43.7999C60.4999 44.5999 60.0999 47.3999 59.6999 48.3999C59.0999 49.9999 58.2999 51.9999 56.8999 51.9999C54.8999 52.1999 53.2999 52.3999 51.7999 51.7999C50.7999 51.3999 49.1999 50.7999 48.3999 50.5999C44.5999 48.9999 43.9999 47.3999 43.9999 47.3999C43.5999 46.7999 42.5999 45.5999 42.1999 44.1999C41.7999 42.5999 40.9999 41.3999 40.7999 40.5999C40.3999 39.7999 39.7999 38.3999 39.1999 36.9999C38.3999 35.1999 37.3999 33.7999 36.5999 33.1999C35.3999 32.1999 34.3999 30.5999 31.9999 30.9999C31.5999 30.9999 29.9999 31.1999 28.7999 32.1999C27.9999 32.7999 27.7999 34.1999 26.9999 35.3999C26.5999 35.9999 25.7999 37.9999 25.1999 39.5999C24.7999 40.7999 24.5999 41.5999 23.9999 41.9999C23.9999 42.5999 23.5999 42.9999 22.9999 42.7999C22.5999 42.5999 22.1999 42.3999 21.7999 42.1999C21.1999 41.7999 19.9999 39.5999 19.1999 38.1999C18.5999 36.7999 17.1999 34.7999 16.3999 33.7999C15.1999 32.1999 14.5999 31.7999 12.7999 31.7999C9.1999 31.7999 8.7999 33.7999 7.2999 36.7999C6.4999 38.1999 6.2999 40.1999 4.8999 41.7999C4.2999 42.5999 1.6999 46.3999 -0.100098 46.8999V74.1999V73.9999C0.0999023 73.5999 0.0999023 73.1999 0.299902 72.9999C1.0999 71.5999 2.6999 70.1999 3.4999 68.5999C3.9999 67.9999 4.5999 67.1999 4.9999 66.1999C5.1999 65.5999 5.3999 64.3999 5.7999 63.7999C6.1999 62.9999 6.9999 62.7999 7.7999 62.5999C9.1999 62.3999 10.1999 64.3999 11.7999 65.1999C12.3999 65.5999 15.5999 66.5999 16.5999 66.7999C18.1999 67.1999 19.7999 67.3999 21.3999 67.7999C22.1999 67.9999 22.9999 67.9999 23.9999 68.1999C24.7999 68.1999 27.7999 68.3999 27.7999 68.5999C26.3999 69.3999 25.3999 71.3999 24.7999 72.9999C24.1999 74.5999 23.7999 76.3999 23.1999 77.7999C22.3999 79.3999 20.7999 80.1999 20.9999 82.1999C20.9999 82.9999 21.1999 83.7999 20.9999 84.5999C20.7999 85.5999 20.3999 86.1999 20.1999 87.1999C19.7999 88.3999 19.3999 92.1999 18.9999 93.0999L22.1999 92.6999C22.5999 91.8999 22.7999 88.2999 22.9999 87.8999C23.5999 86.0999 24.3999 84.6999 25.5999 83.2999C26.7999 81.8999 26.7999 80.2999 27.3999 78.6999C28.1999 76.8999 29.1999 75.6999 30.1999 74.0999C31.9999 71.2999 33.1999 67.5999 36.6999 66.7999C37.0999 66.7999 39.2999 68.3999 40.2999 69.3999C41.4999 70.5999 42.6999 71.7999 43.4999 73.3999C44.8999 76.3999 46.2999 80.6999 46.6999 82.8999C46.8999 84.2999 47.0999 84.2999 48.0999 85.4999C48.4999 85.8999 49.2999 87.4999 49.6999 88.0999C49.8999 88.6999 50.4999 90.0999 50.6999 90.8999C50.8999 91.2999 51.4999 92.6999 51.8999 93.8999H54.8999C53.2999 90.3999 52.2999 86.9999 51.8999 83.5999Z" fill="white"/>
<path d="M50.3 90.6C49.9 89.8 49.5 88.4 49.3 87.8C49.1 87.2 48.1 85.6 47.7001 85.2C46.7001 84.2 46.5 84 46.3 82.6C45.9 80.2 44.5 75.9 43.1 73.1C42.3 71.5 41.1001 70.3 39.9001 69.1C38.9001 68.1 36.7 66.5 36.3 66.5C32.5 67.3 31.5 70.9 29.8 73.8C28.8 75.4 27.8 76.8 27 78.4C26.2 80 26.4001 81.8 25.2001 83C24.0001 84.4 23.2 85.8 22.6 87.6C22.4 88 22.2 91.6 21.8 92.4L27.3 92C32.4 92.4 30.9 94.4 39 94L51.7001 93.6C51.1 92.3 50.5 91 50.3 90.6Z" fill="url(#paint0_linear_755_22440)"/>
<path d="M87.1 7H12.5C5.5 7 0 12.7 0 19.7V47.2C1.8 46.4 4.4 42.6 5.1 41.7C6.5 40.1 6.7 37.9 7.5 36.7C9.1 33.7 9.5 31.7 13 31.7C14.8 31.7 15.4 32.1 16.6 33.7C17.4 34.7 18.8 36.7 19.4 37.9C20.2 39.5 21.4 41.5 22 41.9C22.4 42.3 22.8 42.5 23.2 42.5C23.8 42.7 24.2 42.3 24.6 41.9C25.2 41.5 25.4 40.7 25.8 39.5C26.4 37.9 27.2 35.9 27.6 35.3C28.4 34.1 28.6 32.7 29.4 32.1C30.6 31.1 32 31.1 32.6 30.9C35 30.5 36 32.1 37.2 33.1C38 33.7 39 35.1 39.8 36.9C40.4 38.3 41.2 39.7 41.4 40.5C41.6 41.3 42.4 42.5 42.8 44.1C43.2 45.5 44.2 46.5 44.6 47.3C44.6 47.3 45.2 49.1 49 50.5C49.8 50.9 51.4 51.3 52.4 51.7C54 52.3 55.6 52.3 57.5 51.9C58.9 51.9 59.7 49.9 60.3 48.3C60.7 47.3 61.1 44.5 61.3 43.7C61.5 42.9 60.9 42.3 61.5 41.7C62.1 40.9 62.3 40.9 62.7 39.9C63.3 37.7 67.5 37.5 69.6 37.5C71.4 37.5 71.2 39.3 74.4 38.7C76.2 38.3 78 38.9 79.9 39.5C81.5 39.9 83.1 40.5 83.9 41.5C84.5 42.1 85.9 45.7 84.5 45.9C84.7 46.1 84.7 46.3 85.1 46.5C84.7 47.9 83.3 46.9 82.5 46.7C81.5 46.5 80.7 46.7 79.5 47.3C77.7 48.1 74.9 48.1 73.6 49.3C72.2 50.5 72.2 52.9 71.6 54.3C71.6 54.3 69.8 58.9 66.1 61.4C65.1 62.2 63.3 63.8 59.2 64.4C57.4 64.6 55.6 64.8 53.7 64.6C52.7 64.6 51.9 64.6 50.9 64.4C50.3 64.4 48.5 64.4 48.5 64.6L47.9 65C47.9 65.2 47.9 65.6 48.1 65.6C48.1 66 48.1 66.4 48.3 66.8C48.3 67.6 48.3 68.4 48.3 69.2C48.3 70.8 48.9 72.4 49.1 74C49.1 75.8 50.1 77.8 50.9 79.3C51.3 79.9 51.7 79.9 51.9 80.7C52.1 81.5 51.9 82.3 52.1 83.3C52.5 86.7 53.5 90 55.1 93.2C56.9 92.8 58.9 92.2 61.2 91.8C65.6 91.2 71.7 91.4 75.7 91.2C85.6 90.2 91.1 95.4 100.1 93.2V19.7C99.8 12.7 94.3 7 87.1 7Z" fill="url(#paint1_linear_755_22440)"/>
<path d="M23 77.7001C23.8 76.1001 24.2001 74.5001 24.6 72.9001C25.2001 71.3001 26 69.3001 27.6 68.5001C27.4 68.3001 24.4 68.1001 23.8 68.1001C23 68.1001 22.2001 67.9001 21.2001 67.7001C19.6 67.3001 17.8 67.1001 16.4 66.7001C15.4 66.5001 12.4 65.3001 11.6 65.1001C10 64.3001 9.00005 62.3001 7.60005 62.5001C6.80005 62.7001 6.00005 62.9001 5.60005 63.7001C5.20005 64.3001 5.00005 65.5001 4.80005 66.3001C4.40005 67.1001 4.00005 68.1001 3.40005 68.9001C2.40005 70.5001 0.800049 71.9001 0.200049 73.3001C4.88311e-05 73.7001 4.88311e-05 73.9001 -0.199951 74.3001V91.3001C0.600049 91.5001 1.40005 91.7001 2.40005 91.9001C9.30005 93.7001 11.1 93.9001 18 93.1001H18.6C19.2001 91.9001 19.6 88.3001 19.8 87.2001C20 86.4001 20.4 85.6001 20.6 84.6001C20.8001 83.8001 20.6 83.0001 20.6 82.2001C20.6 80.1001 22.2001 79.3001 23 77.7001Z" fill="url(#paint2_linear_755_22440)"/>
</g>
<defs>
<linearGradient id="paint0_linear_755_22440" x1="36.9307" y1="66.6628" x2="36.9307" y2="93.9806" gradientUnits="userSpaceOnUse">
<stop stop-color="#9E9E9E"/>
<stop offset="1" stop-color="#858585"/>
</linearGradient>
<linearGradient id="paint1_linear_755_22440" x1="50" y1="6.9996" x2="50" y2="93.9929" gradientUnits="userSpaceOnUse">
<stop stop-color="#9E9E9E"/>
<stop offset="1" stop-color="#858585"/>
</linearGradient>
<linearGradient id="paint2_linear_755_22440" x1="13.7624" y1="62.5942" x2="13.7624" y2="93.433" gradientUnits="userSpaceOnUse">
<stop stop-color="#9E9E9E"/>
<stop offset="1" stop-color="#858585"/>
</linearGradient>
<clipPath id="clip0_755_22440">
<rect width="100" height="100" fill="white"/>
</clipPath>
</defs>
</svg>
