<svg width="100" height="100" viewBox="0 0 100 100" fill="none" xmlns="http://www.w3.org/2000/svg">
<g clip-path="url(#clip0_755_22445)">
<path d="M58.9 53.3C58.9 53.3 80.3 41.3 80.7 41.5C78.7 33.5 73.5 26.6 66.4 22.4C59.3 18.2 50.8 16.9 42.8 19C35.3 20.9 28.7 25.6 24.5 32.1C24.8 32.1 58.9 53.3 58.9 53.3Z" fill="#505050"/>
<path d="M38.1001 35.8001C34.2001 33.4001 29.6001 32.1001 25.0001 32.1001H24.6001C18.0001 32.2001 11.7001 34.9001 7.10006 39.7001C2.50006 44.4001 5.61476e-05 50.8001 0.100056 57.4001C0.200056 62.4001 1.70006 67.3001 4.50006 71.4001L38.9001 67.9001L59.0001 48.5001L38.1001 35.8001Z" fill="#636363"/>
<path d="M80.9001 41.5H79.6001C76.9001 41.5 74.2001 42 71.7001 43.2L59.1001 48.4L72.8001 63.6L97.6001 71.4C98.9001 69 99.7001 66.5 99.9001 63.8C100.2 61.1 99.9001 58.5 99.1001 55.9C98.3001 53.3 97.1001 51 95.4001 48.9C93.7001 46.8 91.6001 45.1 89.3001 43.9C86.6001 42.4 83.8001 41.7 80.9001 41.5Z" fill="#737373"/>
<path d="M79.5999 60.6999L74.3999 57.5999L62.5999 50.5999L58.8999 48.3999L49.4999 52.4999L31.1999 60.2999L22.8999 63.5999L4.3999 71.1999C6.6999 74.4999 9.7999 77.1999 13.2999 79.0999C16.9999 80.9999 20.8999 81.8999 24.8999 81.9999H79.3999C83.0999 81.9999 86.6999 80.9999 89.7999 79.0999C92.9999 77.1999 95.4999 74.4999 97.2999 71.2999L79.5999 60.6999Z" fill="#898989"/>
</g>
<defs>
<clipPath id="clip0_755_22445">
<rect width="100" height="100" fill="white"/>
</clipPath>
</defs>
</svg>
