<svg width="100" height="100" viewBox="0 0 100 100" fill="none" xmlns="http://www.w3.org/2000/svg">
<g clip-path="url(#clip0_755_22453)">
<mask id="mask0_755_22453" style="mask-type:luminance" maskUnits="userSpaceOnUse" x="0" y="0" width="100" height="100">
<path d="M100 0H0V100H100V0Z" fill="white"/>
</mask>
<g mask="url(#mask0_755_22453)">
<path d="M33.5 78.2C28 71.7 24.4 62 24.1 51.2V48.8C24.3 38 27.9 28.3 33.5 21.8C40.7 12.5 51.3 6.6 63.2 6.6C70.5 6.6 77.4 8.8 83.2 12.7C74.5 4.9 62.9 0.1 50.2 0H50C22.4 0 0 22.4 0 50C0 76.8 21.1 98.7 47.6 99.9C48.4 99.9 49.2 100 50 100C62.8 100 74.5 95.2 83.3 87.3C77.4 91.2 70.6 93.4 63.3 93.4C51.4 93.4 40.7 87.5 33.5 78.2Z" fill="url(#paint0_linear_755_22453)"/>
<path d="M33.5 21.8001C38.1 16.4001 44 13.1001 50.5 13.1001C65.1 13.1001 76.8 29.6001 76.8 50.0001C76.8 70.4001 65.1 86.9001 50.5 86.9001C44 86.9001 38.1 83.6001 33.5 78.2001C40.7 87.5001 51.3 93.4001 63.2 93.4001C70.5 93.4001 77.4 91.2001 83.2 87.3001C93.6 78.1001 100 64.8001 100 50.0001C100 35.2001 93.6 21.9001 83.3 12.7001C77.4 8.8001 70.6 6.6001 63.3 6.6001C51.4 6.6001 40.7 12.5001 33.5 21.8001Z" fill="url(#paint1_linear_755_22453)"/>
</g>
</g>
<defs>
<linearGradient id="paint0_linear_755_22453" x1="41.66" y1="1.6309" x2="41.66" y2="98.5451" gradientUnits="userSpaceOnUse">
<stop offset="0.3" stop-color="#616161"/>
<stop offset="0.4381" stop-color="#5F5F5F"/>
<stop offset="0.5939" stop-color="#585858"/>
<stop offset="0.7581" stop-color="#4C4C4C"/>
<stop offset="0.9272" stop-color="#3D3D3D"/>
<stop offset="1" stop-color="#343434"/>
</linearGradient>
<linearGradient id="paint1_linear_755_22453" x1="66.77" y1="7.3431" x2="66.77" y2="93.059" gradientUnits="userSpaceOnUse">
<stop stop-color="#2F2F2F"/>
<stop offset="0.7" stop-color="#818181"/>
</linearGradient>
<clipPath id="clip0_755_22453">
<rect width="100" height="100" fill="white"/>
</clipPath>
</defs>
</svg>
