<svg width="100" height="100" viewBox="0 0 100 100" fill="none" xmlns="http://www.w3.org/2000/svg">
<g clip-path="url(#clip0_755_22463)">
<path d="M1 11.5C1 5.1 6.1 0 12.5 0H88.5C94.8 0 100 5.1 100 11.5V88.6C100 94.9 94.9 100.1 88.5 100.1H12.5C6.1 100 1 94.9 1 88.5V11.5Z" fill="#DADADA"/>
<path d="M64.4 22.4C58.9 20.8 53.4 20.6 47.7 21.1C44.5 21.4 41.5 22.1 38.5 23.2C32.1 25.6 27.4 29.7 24.5 36C22.5 40.5 21.7 45.2 21.6 50.1C21.5 55.2 22.2 60.3 23.2 65.4C24.1 70 25.4 74.4 27.1 78.8C27.3 79.2 27.5 79.3 27.9 79.3C33.5 79.3 39.1 79.3 44.7 79.3C46.4 79.3 48 79.3 49.7 79.3C49.8 79.3 50 79.3 50.1 79.3C50.2 79.3 50.3 79.3 50.3 79.3C50.3 79.2 50.2 79.1 50.2 79.1C50.1 79 50.1 78.8 50 78.7C49.6 77.8 49.2 77 48.8 76.1C47.9 74.2 47 72.4 46.2 70.5C43.7 64.7 41.9 58.8 41.3 52.5C41 49.7 41.1 47 41.9 44.3C42.8 41.2 44.7 39 47.8 38.1C50.7 37.3 53.6 37.3 56.5 38.2C59.1 39 60.7 40.8 61.4 43.4C61.9 45.4 61.9 47.4 61.5 49.5C61.2 51.1 60.5 52.5 59.4 53.6C57.3 55.6 54.8 56.1 52 56C51.5 56 51 55.9 50.5 55.9C50.3 55.9 50 55.8 49.8 55.8C49.8 55.9 49.8 55.9 49.8 56C49.8 56.1 49.8 56.2 49.8 56.4C49.9 56.9 50 57.3 50.1 57.8C50.4 58.9 50.6 60.1 51 61.2C51.7 63.4 52.5 65.5 53.4 67.6C59.8 67.1 65.7 65.5 72 61.7C72.1 61.6 72.2 61.6 72.3 61.5C75 59.8 77.2 57.7 78.7 54.8C81.1 50.3 81.6 45.4 80.9 40.4C80.2 35.2 77.8 30.9 73.8 27.5C71.1 24.9 67.9 23.4 64.4 22.4Z" fill="black"/>
</g>
<defs>
<clipPath id="clip0_755_22463">
<rect width="100" height="100" fill="white"/>
</clipPath>
</defs>
</svg>
