<svg width="100" height="100" viewBox="0 0 100 100" fill="none" xmlns="http://www.w3.org/2000/svg">
<path fill-rule="evenodd" clip-rule="evenodd" d="M44.3 49.1999C51 42.7999 48.9 34.8999 42.9 25.3999C36.8 15.8999 24.6 12.4999 22.4 14.5999C20.2 16.6999 19.6 32.2999 25.7 41.7999C31.8 51.2999 37.6 55.4999 44.3 49.1999Z" fill="url(#paint0_linear_755_22470)"/>
<path fill-rule="evenodd" clip-rule="evenodd" d="M50.1 50.0001C55 57.8001 61.7 54.9001 69.9 47.1001C78.1 39.3001 81.5 24.4001 79.8 21.7001C78.1 19.0001 65.3 19.2001 57.1 27.0001C48.9 34.9001 45.2 42.2001 50.1 50.0001Z" fill="url(#paint1_linear_755_22470)"/>
<path fill-rule="evenodd" clip-rule="evenodd" d="M47.4 45.7C55.6 46.7 58.8 39.0999 60.4 26.7999C61.9 14.4999 55.7 1.59995 52.9 1.19995C50.1 0.999951 40.7 11.9999 39.2 24.2999C37.7 36.5999 39.2 44.7 47.4 45.7Z" fill="url(#paint2_linear_755_22470)"/>
<path fill-rule="evenodd" clip-rule="evenodd" d="M45.3 100C62.5 100 76.5 95 76.5 72.3C76.5 49.6 62.6 31 45.3 31C28.1 31 14.1 49.6 14.1 72.3C14.1 95 28.1 100 45.3 100Z" fill="url(#paint3_linear_755_22470)"/>
<path d="M61.1 67.7C63.6 67.7 65.6 66.8 65.6 65.6C65.6 64.5 63.6 63.5 61.1 63.5C58.6 63.5 56.6 64.4 56.6 65.6C56.6 66.7 58.6 67.7 61.1 67.7Z" fill="#C3C3C3"/>
<path d="M28.1 66.3999C30.5 66.6999 32.6 65.9999 32.8 64.8999C32.9 63.7999 31.1 62.5999 28.6 62.2999C26.1 61.9999 24.1 62.6999 23.9 63.7999C23.8 64.8999 25.6 66.0999 28.1 66.3999Z" fill="#C3C3C3"/>
<path d="M48.2 64.9C46.9 66 45.3 66.4 43.6 66.2C41.8 66 40.5 65.3 39.7 64" stroke="black" stroke-width="1.2434" stroke-linecap="round" stroke-linejoin="round"/>
<path fill-rule="evenodd" clip-rule="evenodd" d="M30.9 54.1001C32.1 54.1001 33.3 54.5001 34.1 55.3001C34.9 56.1001 35.5 57.2001 35.5 58.4001C35.5 59.6001 35.1 60.8001 34.3 61.6001C33.5 62.4001 32.4 63.0001 31.2 63.0001C30 63.0001 28.8 62.6001 28 61.8001C27.2 61.0001 26.6 59.9001 26.6 58.7001C26.6 57.5001 27 56.3001 27.8 55.5001C28.6 54.7001 29.7 54.1001 30.9 54.1001Z" fill="black"/>
<path fill-rule="evenodd" clip-rule="evenodd" d="M31.2 57.7999C31.2 56.9999 30.5 56.3999 29.7 56.3999C28.9 56.3999 28.3 57.0999 28.3 57.8999C28.3 58.6999 29 59.2999 29.8 59.2999C30.6 59.2999 31.2 58.5999 31.2 57.7999Z" fill="white"/>
<path fill-rule="evenodd" clip-rule="evenodd" d="M57.9 55.2C59.1 55.2 60.3 55.6 61.1 56.4C61.9 57.2 62.5 58.3 62.5 59.5C62.5 60.7 62.1 61.9 61.3 62.7C60.5 63.5 59.4 64.0999 58.2 64.0999C57 64.0999 55.8 63.7 55 62.9C54.2 62.1 53.6 60.9999 53.6 59.7999C53.6 58.5999 54 57.3999 54.8 56.5999C55.6 55.7999 56.7 55.3 57.9 55.2Z" fill="black"/>
<path d="M34.9 58.4001C35 60.5001 33.3 62.3001 31.2 62.4001C29.1 62.5001 27.3 60.8001 27.2 58.7001C27.1 56.6001 28.8 54.8001 30.9 54.7001C33.1 54.6001 34.8 56.3001 34.9 58.4001ZM36.2 58.4001C36.1 55.6001 33.8 53.4001 30.9 53.5001C28.1 53.6001 25.9 55.9001 26 58.8001C26.1 61.6001 28.4 63.8001 31.3 63.7001C34.1 63.5001 36.3 61.2001 36.2 58.4001Z" fill="white" stroke="white" stroke-width="0.6217"/>
<path d="M61.9 59.5C62 61.6 60.3 63.4 58.2 63.5C56.1 63.6 54.3 61.9 54.2 59.8C54.1 57.7 55.8 55.9 57.9 55.8C60.1 55.8 61.8 57.4 61.9 59.5ZM63.2 59.5C63.1 56.7 60.8 54.5 57.9 54.6C55.1 54.7 52.9 57 53 59.9C53.1 62.7 55.4 64.9 58.3 64.8C61.1 64.6 63.3 62.3 63.2 59.5Z" fill="white" stroke="white" stroke-width="0.6217"/>
<path fill-rule="evenodd" clip-rule="evenodd" d="M58.2 58.9C58.2 58.1 57.5 57.5 56.7 57.5C55.9 57.5 55.3 58.2 55.3 59C55.3 59.8 56 60.4 56.8 60.4C57.6 60.4 58.2 59.7 58.2 58.9Z" fill="white"/>
<path d="M21.7 74.3999L37 90.3999" stroke="#B8B8B8" stroke-width="2.2796" stroke-linecap="round"/>
<path d="M35 76.3L25.3 86.7" stroke="#B8B8B8" stroke-width="2.2796" stroke-linecap="round"/>
<path d="M68.8 74.3999L53.5 90.3999" stroke="#B8B8B8" stroke-width="2.2796" stroke-linecap="round"/>
<path d="M55.5 76.3L65.2 86.7" stroke="#B8B8B8" stroke-width="2.2796" stroke-linecap="round"/>
<path d="M51.5 39.2L41.4 49.2999" stroke="#C8C8C8" stroke-width="2.2796" stroke-linecap="round"/>
<path d="M49.5 49.2999L39.3 39.2" stroke="#C8C8C8" stroke-width="2.2796" stroke-linecap="round"/>
<defs>
<linearGradient id="paint0_linear_755_22470" x1="-421.422" y1="-1242.4" x2="2348.27" y2="6506.84" gradientUnits="userSpaceOnUse">
<stop stop-color="#9D9D9D"/>
<stop offset="1" stop-color="#818181"/>
</linearGradient>
<linearGradient id="paint1_linear_755_22470" x1="1341.25" y1="-418.687" x2="-6408.69" y2="2349.64" gradientUnits="userSpaceOnUse">
<stop stop-color="#9D9D9D"/>
<stop offset="1" stop-color="#818181"/>
</linearGradient>
<linearGradient id="paint2_linear_755_22470" x1="52.7391" y1="1.29926" x2="-1477.62" y2="12465.1" gradientUnits="userSpaceOnUse">
<stop stop-color="#C4C4C4"/>
<stop offset="1" stop-color="#9D9D9D"/>
</linearGradient>
<linearGradient id="paint3_linear_755_22470" x1="-263.471" y1="5143.05" x2="-1916.73" y2="32290.8" gradientUnits="userSpaceOnUse">
<stop stop-color="#DFDFDF"/>
<stop offset="1" stop-color="#C8C8C8"/>
</linearGradient>
</defs>
</svg>
