<svg width="100" height="100" viewBox="0 0 100 100" fill="none" xmlns="http://www.w3.org/2000/svg">
<path d="M50.3 0C29.7 0 13 16.7 13 37.3C13 37.7 13 38.1 13 38.5V74.3V77.9V86.9C13 87 13 87 13 87.1C13 87.2 13 87.2 13 87.3V87.5C13.2 94.4 18.9 100 25.8 100C32.8 100 38.5 94.5 38.7 87.5V74.3H49.3C49.6 74.3 49.9 74.3 50.2 74.3C70.8 74.3 87.5 57.8 87.5 37.3C87.5 16.7 70.9 0 50.3 0ZM50.3 48.6C48 48.6 42.2 48.6 39.9 48.6H38.8V37.3C38.8 31 44 25.8 50.3 25.8C56.6 25.8 61.8 30.9 61.8 37.3C61.7 43.6 56.6 48.6 50.3 48.6Z" fill="#646464"/>
<path opacity="0.15" d="M25.5 74.3H38.7V87.5H38.6C38.4 94.4 32.7 100 25.8 100C18.9 100 13.2 94.5 13 87.5V87.3C13 87.2 13 87.2 13 87.1C13 87 13 87 13 86.9V86C13.4 79.8 19.2 74.3 25.5 74.3Z" fill="#1D1D1D"/>
<g opacity="0.05">
<path opacity="0.5" d="M13 58.4V74.3C13 60.3 24.8 48.8 38.7 48.6V43.5C28.4 44.6 19.2 50.2 13 58.4Z" fill="black"/>
<path d="M13 86.3001C16 84.1001 19.7 82.8001 23.7 82.8001H38.7V74.4001H25.9C19.1 74.3001 13.5 79.6001 13 86.3001Z" fill="black"/>
</g>
<g opacity="0.05">
<path opacity="0.5" d="M38.8 48.6V44C28.3 45 19 50.7 13 59.1V74.3C13 60.3 24.8 48.8 38.8 48.6Z" fill="black"/>
<path d="M25.9 74.3C19.3 74.3 13.8 79.3 13.1 85.7C16.1 83.3 19.9 81.9 23.9 81.9H38.7V74.2L25.9 74.3Z" fill="black"/>
</g>
<g opacity="0.05">
<path opacity="0.5" d="M38.8 48.6V44.5C28.2 45.5 18.9 51.3 13.1 59.9V74.4C13 60.3 24.8 48.8 38.8 48.6Z" fill="black"/>
<path d="M25.9 74.3C19.5 74.3 14.1 79 13.2 85.2C16.2 82.7 20 81.2 24.2 81.2H38.8V74.3H25.9Z" fill="black"/>
</g>
<g opacity="0.05">
<path opacity="0.5" d="M38.8 48.5999V44.8999C28.1 45.7999 18.8 51.7999 13.1 60.5999V74.2999C13 60.2999 24.8 48.7999 38.8 48.5999Z" fill="black"/>
<path d="M25.9 74.2998C19.6 74.2998 14.4 78.7998 13.3 84.6998C16.3 82.0998 20.1 80.4998 24.4 80.4998H38.8V74.3998H25.9V74.2998Z" fill="black"/>
</g>
<g opacity="0.05">
<path opacity="0.5" d="M38.8 48.5999V45.3999C28 46.1999 18.6 52.3999 13.1 61.3999V74.2999C13 60.2999 24.8 48.7999 38.8 48.5999Z" fill="black"/>
<path d="M25.9 74.3C19.8 74.3 14.8 78.5 13.4 84.1C16.3 81.3 20.3 79.6 24.5 79.6H38.7V74.2L25.9 74.3Z" fill="black"/>
</g>
<g opacity="0.05">
<path opacity="0.5" d="M38.8 48.5999V45.8999C27.8 46.5999 18.3 52.9999 13 62.2999V74.3999C13 60.2999 24.8 48.7999 38.8 48.5999Z" fill="black"/>
<path d="M25.9 74.2998C20 74.2998 15.1 78.1998 13.5 83.5998C16.4 80.6998 20.3 78.8998 24.7 78.8998H38.8V74.2998H25.9Z" fill="black"/>
</g>
<g opacity="0.05">
<path opacity="0.5" d="M38.8 48.6V46.3C27.6 46.9 18 53.6 13 63.2001V74.3001C13 60.3001 24.8 48.8 38.8 48.6Z" fill="black"/>
<path d="M25.9 74.3C20.2 74.3 15.4 78 13.7 83.1C16.5 80.1 20.5 78.2 24.9 78.2H38.8V74.4H25.9V74.3Z" fill="black"/>
</g>
<g opacity="0.05">
<path opacity="0.5" d="M38.8 48.6V46.8C27.4 47.3 17.7 54.3 13 64.2V74.3001C13 60.3001 24.8 48.8 38.8 48.6Z" fill="black"/>
<path d="M25.9 74.3C20.4 74.3 15.7 77.7 13.9 82.6C16.7 79.4 20.7 77.4 25.1 77.4H38.8V74.3H25.9Z" fill="black"/>
</g>
<g opacity="0.05">
<path opacity="0.5" d="M38.8 48.6V47.3C27.2 47.7 17.3 55.1001 13 65.4001V74.3001C13 60.3001 24.8 48.8 38.8 48.6Z" fill="black"/>
<path d="M25.9 74.3C20.6 74.3 16.1 77.5 14.1 82C16.8 78.7 20.8 76.6 25.3 76.6H38.8V74.3H25.9Z" fill="black"/>
</g>
</svg>
