<svg width="100" height="100" viewBox="0 0 100 100" fill="none" xmlns="http://www.w3.org/2000/svg">
<path d="M35.4 54.5C32.2 55.4 30.1 56.9999 28.7 58.5999C30 57.3999 31.8 56.4 34.2 55.7C36.7 55 38.8 55 40.5 55.2999V54C39.1 53.9 37.4 54 35.4 54.5ZM28.6 43.0999L16.6 46.2999C16.6 46.2999 16.8 46.6 17.2 47L27.3 44.2999C27.3 44.2999 27.2 46.1999 25.9 47.7999C28.3 45.9999 28.6 43.0999 28.6 43.0999ZM38.6 71.1999C21.8 75.6999 12.9 56.1999 10.2 46.0999C9.00002 41.3999 8.40002 37.8999 8.30002 35.5999C8.30002 35.3999 8.30002 35.2 8.30002 35C7.40002 35.1 7.00002 35.4999 7.10002 36.7999C7.20002 39.0999 7.80002 42.5999 9.00002 47.2999C11.6 57.4 20.6 77 37.4 72.4C41.1 71.4 43.8 69.6 45.9 67.3C44 69.1 41.6 70.3999 38.6 71.1999ZM41.7 31.2V32.4H48.3C48.2 32 48 31.6 47.9 31.2H41.7Z" fill="#3F3F3F"/>
<path d="M49.8 41C52.8 41.8 54.3 43.9 55.2 45.8L58.5 46.7C58.5 46.7 58 40.3 52.2 38.6C46.7 37 43.4 41.6 43 42.2C44.6 41.1 46.9 40.2 49.8 41ZM76.2 45.8C70.7 44.2 67.4 48.8 67 49.4C68.6 48.3 70.9 47.3 73.8 48.2C76.8 49 78.3 51.1 79.2 53L82.5 53.9C82.5 53.9 82 47.5 76.2 45.8ZM72.9 62.8L45.4 55.1C45.4 55.1 45.7 56.6 46.8 58.6L70 65.1C71.9 64 72.9 62.8 72.9 62.8ZM53.8 79.4C32 73.6 34.6 45.8 38.2 32.6C39.7 27.2 41.1 23.1 42.4 20.4C41.7 20.2 41 20.6 40.4 21.9C39.1 24.6 37.4 28.9 35.8 35C32.3 48.2 29.6 76 51.4 81.8C61.7 84.6 69.7 80.4 75.7 73.8C70 78.9 62.8 81.8 53.8 79.4Z" fill="#3F3F3F"/>
<path d="M41.7 64.6999V59.0999L26.1 63.4999C26.1 63.4999 27.3 56.7999 35.4 54.4999C37.9 53.7999 40 53.7999 41.7 54.0999V31.0999H49.5C48.7 28.4999 47.8 26.4999 47.1 24.9999C46 22.6999 44.8 24.1999 42.1 26.3999C40.2 27.9999 35.5 31.2999 28.4 33.1999C21.3 35.0999 15.5 34.5999 13.1 34.1999C9.70001 33.5999 7.90001 32.8999 8.10001 35.4999C8.20001 37.7999 8.80001 41.2999 10 45.9999C12.7 56.0999 21.6 75.5999 38.4 71.0999C42.8 69.8999 45.9 67.5999 48.1 64.5999L41.7 64.6999ZM16.6 46.2999L28.6 43.0999C28.6 43.0999 28.3 47.6999 23.8 48.8999C19.2 50.0999 16.6 46.2999 16.6 46.2999Z" fill="#7F7F7F"/>
<path d="M86.8 31.4C83.7 32 76.2 32.7 67 30.2C57.8 27.7 51.7 23.4 49.2 21.4C45.8 18.5 44.3 16.5 42.8 19.5C41.5 22.2 39.8 26.5 38.2 32.6C34.7 45.8 32 73.6 53.8 79.4C75.6 85.2 87.2 59.9 90.7 46.7C92.3 40.6 93 36 93.2 33C93.5 29.7 91.2 30.7 86.8 31.4ZM43 42.3C43 42.3 46.4 37 52.3 38.6C58.1 40.3 58.6 46.7 58.6 46.7L43 42.3ZM57.2 66.3C46.9 63.3 45.4 55.1 45.4 55.1L72.9 62.8C72.9 62.8 67.3 69.3 57.2 66.3ZM66.9 49.5C66.9 49.5 70.3 44.2 76.2 45.8C82 47.5 82.5 53.9 82.5 53.9L66.9 49.5Z" fill="#797979"/>
<path d="M36.3 60.5999L26.2 63.5C26.2 63.5 27.3 57.2 34.8 54.7L29 33.2L28.5 33.4C21.4 35.3 15.6 34.8 13.2 34.4C9.79999 33.8 7.99999 33.1 8.19999 35.7C8.29999 38 8.89999 41.5 10.1 46.2C12.8 56.3 21.7 75.8 38.5 71.3L39 71.0999L36.3 60.5999ZM16.6 46.2999L28.6 43.0999C28.6 43.0999 28.3 47.7 23.8 48.9C19.2 50.1 16.6 46.2999 16.6 46.2999Z" fill="#797979"/>
<path d="M57.7 66.4L57.2 66.3C46.9 63.3 45.4 55.1 45.4 55.1L59.6 59.1L67.1 30.2H67C57.8 27.7 51.7 23.4 49.2 21.4C45.8 18.5 44.3 16.5 42.8 19.5C41.5 22.2 39.8 26.5 38.2 32.6C34.7 45.8 32 73.6 53.8 79.4L54.2 79.5L57.7 66.4ZM43 42.3C43 42.3 46.4 37 52.3 38.6C58.1 40.3 58.6 46.7 58.6 46.7L43 42.3Z" fill="#606060"/>
<path d="M36.8 60.5L34.1 61.2999C34.7 64.8999 35.9 68.4 37.7 71.5C38 71.4 38.3 71.4 38.6 71.3C39.4 71.1 40.2 70.7999 40.9 70.5C38.9 67.5 37.6 64.0999 36.8 60.5ZM35.8 35C34.4 40.2 33.2 47.7 33.5 55.2C34.1 54.9 34.8 54.7 35.5 54.5L36 54.4C35.4 46.4 36.7 38.1999 38.2 32.5999C38.6 31.1999 39 29.9 39.3 28.7C38.7 29.1 38 29.5 37.3 29.9C36.8 31.4 36.3 33.1 35.8 35Z" fill="#6D6D6D"/>
</svg>
