<svg width="100" height="100" viewBox="0 0 100 100" fill="none" xmlns="http://www.w3.org/2000/svg">
<g clip-path="url(#clip0_755_22555)">
<path fill-rule="evenodd" clip-rule="evenodd" d="M58.7 12C69.9 12 81.2 12 92.4 12C99.1 12 101 14.3 99.5 20.9C95.3 40.2 91 59.5 86.6 78.8C85.2 84.9 82 87.4 75.6 87.4C53.1 87.5 30.6 87.5 8.10004 87.4C0.800042 87.4 -1.19996 84.9 0.400042 77.9C4.70004 59 9.00004 40.1 13.4 21.2C15.1 14 17.6 12 25 12C36.2 12 47.5 12 58.7 12Z" fill="#E8E8E8"/>
<path fill-rule="evenodd" clip-rule="evenodd" d="M41.6999 85.2C30.4999 85.2 19.1999 85.2 7.99994 85.2C2.29994 85.2 1.29994 83.7999 2.49994 78.1999C6.89994 59.2999 11.2999 40.4 15.5999 21.5C16.6999 16.4 19.1999 14.2 24.5999 14.2C47.0999 14.4 69.5999 14.3 92.0999 14.3C97.6999 14.3 98.6999 15.5 97.3999 21.2C93.2999 39.8 89.1999 58.4 84.9999 76.9C83.3999 83.7999 81.5999 85.2 74.2999 85.2C63.3999 85.2 52.5999 85.2 41.6999 85.2Z" fill="#636363"/>
<path fill-rule="evenodd" clip-rule="evenodd" d="M51.3 48.1C50.5 47.2 49.7 46.2 48.8 45.2C43.8 39.7 38.9 34.1 33.8 28.7C31.5 26.2 30.7 23.8 33.5 21.3C36.2 18.9 38.9 19.1 41.5 21.9C48.5 29.7 55.5 37.5 62.7 45.1C65.4 48 64.7 49.9 61.8 52C50.5 60.2 39.3 68.4 28.2 76.6C25.7 78.5 23.3 78.9 21.3 76.2C19.1 73.2 21.1 71.4 23.5 69.7C31.8 63.6 40.1 57.6 48.4 51.4C49.4 50.7 51.1 50.2 51.3 48.1Z" fill="#FDFDFD"/>
<path fill-rule="evenodd" clip-rule="evenodd" d="M54.8 77.4001C51.8 77.4001 48.7 77.5001 45.7 77.4001C43.3 77.3001 41.8 75.9001 41.9 73.4001C41.9 71.0001 43.1 69.2001 45.5 69.1001C52.1 68.9001 58.7 69.0001 65.4 69.1001C67.5 69.1001 69.1 70.5001 69 72.7001C69 75.2001 67.7 77.2001 65 77.3001C61.6 77.5001 58.2 77.3001 54.8 77.4001Z" fill="#FDFDFD"/>
</g>
<defs>
<clipPath id="clip0_755_22555">
<rect width="100" height="100" fill="white"/>
</clipPath>
</defs>
</svg>
