<svg width="100" height="100" viewBox="0 0 100 100" fill="none" xmlns="http://www.w3.org/2000/svg">
<path d="M50.3 0L93.6 25V75L50.3 100L7 75V25L50.3 0Z" fill="#555555"/>
<path d="M18.8 74.5999C24.6 81.9999 42.9 76.3999 60.1 62.8999C77.4 49.3999 87.3 32.9999 81.5 25.5999C75.7 18.1999 57.4 23.7999 40.2 37.2999C22.9 50.7999 13 67.1999 18.8 74.5999ZM21.3 72.6999C19.4 70.2999 20.2 65.4999 23.9 59.3999C27.6 52.9999 34.1 45.9999 42.1 39.7999C50.1 33.5999 58.4 28.9999 65.5 26.7999C72.2 24.6999 77.1 25.0999 79 27.4999C80.9 29.8999 80.1 34.6999 76.4 40.7999C72.6 47.1999 66.1 54.1999 58.1 60.3999C50.1 66.5999 41.8 71.1999 34.7 73.3999C28 75.4999 23.2 75.0999 21.3 72.6999Z" fill="white"/>
<path d="M81.5 74.5999C87.3 67.1999 77.4 50.7999 60.1 37.2999C42.8 23.7999 24.6 18.1999 18.8 25.5999C13 32.9999 22.9 49.3999 40.2 62.7999C57.5 76.2999 75.7 81.9999 81.5 74.5999ZM79 72.6999C77.1 75.0999 72.2 75.4999 65.5 73.3999C58.4 71.1999 50 66.5999 42.1 60.3999C34.1 54.1999 27.6 47.1999 23.8 40.7999C20.2 34.7999 19.3 29.9999 21.2 27.4999C23.1 25.0999 28 24.6999 34.7 26.7999C41.8 28.9999 50.2 33.5999 58.1 39.7999C66.1 45.9999 72.6 52.9999 76.4 59.3999C80.1 65.3999 81 70.1999 79 72.6999Z" fill="white"/>
<path d="M50.2 56.7C53.9 56.7 56.8 53.7 56.8 50.1C56.8 46.4 53.8 43.5 50.2 43.5C46.6 43.5 43.6 46.5 43.6 50.1C43.5 53.8 46.5 56.7 50.2 56.7Z" fill="white"/>
</svg>
