<svg width="100" height="100" viewBox="0 0 100 100" fill="none" xmlns="http://www.w3.org/2000/svg">
<path d="M57.6 16.5C59.4 14.7 59.4 11.9 57.6 10.1C55.8 8.3 53 8.3 51.2 10.1C49.4 11.9 49.4 14.7 51.2 16.5C53 18.3 55.8 18.3 57.6 16.5Z" fill="#848484"/>
<path d="M70.3 29.2999C72.3 27.2999 72.3 24.2 70.3 22.2C68.3 20.2 65.2 20.2 63.2 22.2C61.2 24.2 61.2 27.2999 63.2 29.2999C65.2 31.2999 68.4 31.1999 70.3 29.2999Z" fill="#848484"/>
<path d="M83 42C85.1 39.9 85.1 36.4 83 34.2C80.9 32.1 77.4 32.1 75.2 34.2C73 36.3 73.1 39.8 75.2 42C77.4 44.1 80.9 44.1 83 42Z" fill="#848484"/>
<path d="M95.8 54.7001C98.1 52.4001 98.1 48.6001 95.8 46.2001C93.5 43.9001 89.7 43.9001 87.3 46.2001C85 48.5001 85 52.3001 87.3 54.7001C89.6 57.1001 93.4 57.1001 95.8 54.7001Z" fill="#848484"/>
<path d="M32.5 16.2C34.1 14.6 34.1 12.1 32.5 10.5C30.9 8.90005 28.4 8.90005 26.8 10.5C25.2 12.1 25.2 14.6 26.8 16.2C28.4 17.8 30.9 17.8 32.5 16.2Z" fill="#ACACAC"/>
<path d="M45.2 28.8999C47 27.0999 47 24.2999 45.2 22.4999C43.4 20.6999 40.6 20.6999 38.8 22.4999C37 24.2999 37 27.0999 38.8 28.8999C40.6 30.6999 43.5 30.6999 45.2 28.8999Z" fill="#ACACAC"/>
<path d="M57.9001 41.6C59.9001 39.6 59.9001 36.5 57.9001 34.5C55.9001 32.5 52.8 32.5 50.8 34.5C48.8 36.5 48.8 39.6 50.8 41.6C52.8 43.6 56.0001 43.6 57.9001 41.6Z" fill="#ACACAC"/>
<path d="M70.6999 54.3999C72.7999 52.2999 72.7999 48.7999 70.6999 46.5999C68.5999 44.4999 65.1 44.4999 62.9 46.5999C60.8 48.6999 60.8 52.1999 62.9 54.3999C65 56.4999 68.4999 56.4999 70.6999 54.3999Z" fill="#ACACAC"/>
<path d="M83.4 67.1C85.7 64.8 85.7 61 83.4 58.6C81.1 56.3 77.3 56.3 74.9 58.6C72.6 60.9 72.6 64.7 74.9 67.1C77.3 69.4 81.1 69.4 83.4 67.1Z" fill="#ACACAC"/>
<path d="M7.39998 15.9001C8.79998 14.5001 8.79998 12.3001 7.39998 10.9001C5.99998 9.5001 3.79998 9.5001 2.39998 10.9001C0.999976 12.3001 0.999976 14.5001 2.39998 15.9001C3.79998 17.2001 6.09998 17.2001 7.39998 15.9001Z" fill="black"/>
<path d="M20.1 28.6C21.7 27 21.7 24.5 20.1 22.9C18.5 21.3 16 21.3 14.4 22.9C12.8 24.5 12.8 27 14.4 28.6C16 30.1 18.6 30.1 20.1 28.6Z" fill="black"/>
<path d="M32.9 41.3C34.7 39.5 34.7 36.7 32.9 34.9C31.1 33.1 28.3 33.1 26.5 34.9C24.7 36.7 24.7 39.5 26.5 41.3C28.3 43.1 31.1 43.1 32.9 41.3Z" fill="black"/>
<path d="M45.6 53.9999C47.6 51.9999 47.6 48.8999 45.6 46.8999C43.6 44.8999 40.5 44.8999 38.5 46.8999C36.5 48.8999 36.5 51.9999 38.5 53.9999C40.5 55.9999 43.6 55.9999 45.6 53.9999Z" fill="black"/>
<path d="M58.3 66.6999C60.4 64.5999 60.4 61.1 58.3 58.9C56.2 56.8 52.7 56.8 50.5 58.9C48.4 61 48.4 64.4999 50.5 66.6999C52.7 68.8999 56.2 68.8999 58.3 66.6999Z" fill="black"/>
<path d="M71 79.4C73.3 77.1 73.3 73.3 71 70.9C68.7 68.6 64.9 68.6 62.5 70.9C60.2 73.2 60.2 77 62.5 79.4C64.9 81.8 68.7 81.8 71 79.4Z" fill="black"/>
<path d="M32.5 65.7C34.1 64.1 34.1 61.6 32.5 60C30.9 58.4 28.4 58.4 26.8 60C25.2 61.6 25.2 64.1 26.8 65.7C28.4 67.2 30.9 67.2 32.5 65.7Z" fill="#848484"/>
<path d="M17.3 79.2C19.5 79.2 21.3 77.4 21.3 75.2C21.3 73 19.5 71.2 17.3 71.2C15.1 71.2 13.3 73 13.3 75.2C13.3 77.4 15.1 79.2 17.3 79.2Z" fill="#848484"/>
<path d="M4.90002 91.6001C7.10002 91.6001 8.90002 89.8001 8.90002 87.6001C8.90002 85.4001 7.10002 83.6001 4.90002 83.6001C2.70002 83.6001 0.900024 85.4001 0.900024 87.6001C0.900024 89.8001 2.70002 91.6001 4.90002 91.6001Z" fill="#848484"/>
<path d="M29.7 91.6001C31.9 91.6001 33.7 89.8001 33.7 87.6001C33.7 85.4001 31.9 83.6001 29.7 83.6001C27.5 83.6001 25.7 85.4001 25.7 87.6001C25.7 89.8001 27.5 91.6001 29.7 91.6001Z" fill="#848484"/>
<path d="M57.2 90.4C58.8 88.8 58.8 86.3 57.2 84.7C55.6 83.1 53.1 83.1 51.5 84.7C49.9 86.3 49.9 88.8 51.5 90.4C53.1 92 55.7 92 57.2 90.4Z" fill="#848484"/>
<path d="M44.9 78.0001C46.5 76.4001 46.5 73.9001 44.9 72.3001C43.3 70.7001 40.8 70.7001 39.2 72.3001C37.6 73.9001 37.6 76.4001 39.2 78.0001C40.8 79.6001 43.3 79.6001 44.9 78.0001Z" fill="#848484"/>
</svg>
