<svg width="100" height="100" viewBox="0 0 100 100" fill="none" xmlns="http://www.w3.org/2000/svg">
<g clip-path="url(#clip0_755_22635)">
<path d="M83.7001 38.2C83.5001 34.8 84.0001 31.7 82.5001 29.1C78.7001 22.7 69.3001 19 50.6001 19C31.9001 19 22.0001 22.7 18.3001 29.2C16.8001 31.9 17.0001 34.8 16.7001 38.3C16.5001 41 15.3001 43.9 15.8001 47C16.4001 51.1 16.7001 55.1 17.3001 58.9C17.8001 61.9 22.0001 64.5 22.4001 67.4C23.5001 75.4 31.8001 79 50.5001 79C69.2001 79 77.2001 75.3 78.2001 67.4C78.6001 64.4 82.5001 61.9 83.0001 58.9C83.6001 55.2 83.9001 51.1 84.5001 47C85.1001 43.9 83.8001 40.9 83.7001 38.2Z" fill="#D2D2D2"/>
<path d="M50.3001 41C53.7001 41.1 56.0001 43.2 58.2001 45.1C60.8001 47.4 65.1001 48.9 66.9001 50.9C68.7001 52.9 71.0001 54.8 71.9001 57.8C72.8001 60.8 73.0001 64.7 73.0001 65.8C73.0001 66.8 73.5001 66.6 75.1001 65.8C78.8001 64 82.8001 59.2 82.8001 59.2C82.3001 62.2 78.4001 65 78.0001 67.9C77.1001 75.9 69.3001 79.7 50.2001 79.7H50.1001H50.6001" fill="#B2B2B2"/>
<path d="M62.6 34.9001C63.3 37.3001 65.8 45.5001 61 42.8001C61 42.8001 63 44.0001 64.3 48.4001C65.6 52.8001 68.8 53.4001 68.8 53.4001C68.8 53.4001 74 54.4001 77.9 51.1001C81.2 48.3001 81.7 43.3001 80.3 39.5001C78.9 35.8001 76.4 34.6001 72.7 33.8001C69.1 32.9001 61.7 32.2001 62.6 34.9001Z" fill="#B2B2B2"/>
<path d="M71.9 50.7C75.7 50.7 78.8 47.6 78.8 43.8C78.8 40 75.7 37 71.9 37C68.1 37 65 40 65 43.8C65 47.6 68.1 50.7 71.9 50.7Z" fill="black"/>
<path d="M70.1 42.6C71.1 42.6 71.9 41.8 71.9 40.8C71.9 39.8 71.1 39 70.1 39C69.1 39 68.3 39.8 68.3 40.8C68.3 41.8 69.1 42.6 70.1 42.6Z" fill="white"/>
<path d="M61.3999 43.5C61.3999 43.5 67.5999 47.7 70.8999 51.9C74.2999 56 74.1999 56.8 74.1999 56.8L71.7999 57.9C71.7999 57.9 68.3999 51.4 64.1999 49C59.8999 46.6 59.3999 44.6 59.3999 44.6L61.3999 43.5Z" fill="#D2D2D2"/>
<path d="M50.4999 41C47.0999 41.1 44.5999 43.2 42.3999 45.1C39.7999 47.4 35.2999 48.9 33.4999 50.9C31.6999 52.9 29.2999 54.8 28.3999 57.8C27.4999 60.8 27.1999 64.7 27.1999 65.8C27.1999 66.8 27.3999 66.9 25.0999 65.8C21.3999 64.1 17.3999 59.2 17.3999 59.2C17.8999 62.2 21.7999 65 22.1999 67.9C23.2999 75.9 30.9999 79.7 50.0999 79.7H50.4999" fill="#B2B2B2"/>
<path d="M68.5999 54.2001C64.8999 49.6001 58.7999 45.3 50.4999 45.3H50.3999C41.9999 45.3 35.9999 49.6001 32.2999 54.2001C28.3999 59.0001 28.6999 60.8001 28.6999 65.4001C28.6999 81.8 34.4999 77.1 38.2999 79.1C42.1999 81.1 46.2999 80.4001 50.3999 80.4001H50.4999C54.6999 80.4001 58.6999 80.9001 62.5999 79C66.3999 77 72.1999 81.9 72.1999 65.5C72.2999 61 72.4999 59.0001 68.5999 54.2001Z" fill="#3D3D3D"/>
<path d="M50.1 49.3999C50.1 49.3999 49.6 56.9999 48.5 58.4999L50.5 57.9999L50.1 49.3999Z" fill="#303030"/>
<path d="M50.7001 49.3999C50.7001 49.3999 51.2 56.9999 52.3 58.4999L50.3 57.9999L50.7001 49.3999Z" fill="#303030"/>
<path d="M44.0999 47.6C43.2999 45.8 46.0999 42.9 50.5999 42.8C54.9999 42.8 57.8999 45.7 57.0999 47.6C56.2999 49.5 53.4999 50 50.5999 50.1C47.7999 50 44.8999 49.4 44.0999 47.6Z" fill="#3D3D3D"/>
<path d="M50.5999 49.3999C50.5999 49.0999 53.2999 48.9999 54.6999 48.0999C54.6999 48.0999 51.7999 48.9999 51.1999 48.5999C50.5999 48.2999 50.3999 47.3999 50.3999 47.3999C50.3999 47.3999 50.1999 48.2999 49.6999 48.5999C49.1999 48.8999 45.8999 48.0999 45.8999 48.0999C45.8999 48.0999 50.2999 49.1999 50.2999 49.3999C50.2999 49.5999 50.1999 50.3999 50.1999 50.9999C50.1999 52.9999 50.1999 57.7999 50.4999 58.1999C50.9999 58.8999 50.7999 52.9999 50.7999 50.9999C50.6999 50.2999 50.6999 49.6999 50.5999 49.3999Z" fill="black"/>
<path d="M50.7 59.7999C52 59.7999 54.4 60.6999 56.5 62.1999C54.5 59.8999 52.1 58.3999 50.7 58.3999C49.3 58.3999 46.3 60.0999 44.2 62.5999C46.4 60.8999 49.3 59.7999 50.7 59.7999Z" fill="#595959"/>
<path d="M50.2001 73.6C47.2001 73.6 44.3001 72.7 41.7001 72C41.2001 71.8 40.6 72.2 40.1 72.1C35.2 70.5 31.2 67.9 28.8 64.5V65.3C28.8 81.7 34.6001 77.1 38.4001 79C42.3001 81 46.4 80.3 50.5 80.3H50.6C54.8 80.3 58.8001 80.8 62.7001 78.9C66.5 76.9 72.3001 81.7 72.3001 65.3C72.3001 64.7 72.3001 64.1 72.4001 63.5C70.1001 67.2 66 70.1 60.8 71.8C60.3 72 59.2 71.6 58.8 71.6C55.9 72.6 53.4001 73.6 50.2001 73.6Z" fill="#303030"/>
<path d="M42.7999 64.8C42.7999 64.8 40.7999 70.7 42.1999 73.2L40.3999 72.4C40.3999 72.5 41.6999 66.5 42.7999 64.8ZM58.1999 64.8C58.1999 64.8 60.1999 70.7 58.7999 73.2L60.5999 72.4C60.6999 72.5 59.1999 66.5 58.1999 64.8Z" fill="#303030"/>
<path d="M37.7999 34.9001C37.0999 37.3001 34.5999 45.5001 39.3999 42.8001C39.3999 42.8001 37.3999 44.0001 36.0999 48.4001C34.8999 52.8001 31.5999 53.4001 31.5999 53.4001C31.5999 53.4001 26.3999 54.4001 22.4999 51.1001C19.1999 48.3001 18.6999 43.3001 20.0999 39.5001C21.4999 35.7001 23.9999 34.6001 27.6999 33.8001C31.2999 32.9001 38.5999 32.2001 37.7999 34.9001Z" fill="#B2B2B2"/>
<path d="M50.5 58.4001C52.6 58.4001 59.2001 62.9 59.2001 68.5V68.2C59.2001 62.4 53.9 57.8 50.5 57.8C47.1 57.8 41.8 62.5 41.8 68.2V68.5C41.8 62.9 48.4 58.4001 50.5 58.4001Z" fill="black"/>
<path d="M52.2 47.5999C52.5 47.4999 52.7 46.8999 52.5 46.2999C52.3 45.6999 51.9 45.1999 51.6 45.2999C51.3 45.3999 51.1 45.9999 51.3 46.5999C51.5 47.2999 51.9 47.6999 52.2 47.5999Z" fill="#1F1F1F"/>
<path d="M48.2 47.6001C48.5 47.7001 49 47.3001 49.1 46.7001C49.3 46.1001 49.2 45.5001 48.9 45.4001C48.6 45.3001 48.1 45.7001 48 46.3001C47.8 46.9001 47.9 47.5001 48.2 47.6001Z" fill="#1F1F1F"/>
<path d="M28.9 50.7C32.7 50.7 35.8 47.6 35.8 43.8C35.8 40 32.7 37 28.9 37C25.1 37 22 40 22 43.8C22 47.6 25.1 50.7 28.9 50.7Z" fill="black"/>
<path d="M30.6999 42.6C31.6999 42.6 32.4999 41.8 32.4999 40.8C32.4999 39.8 31.6999 39 30.6999 39C29.6999 39 28.8999 39.8 28.8999 40.8C28.8999 41.8 29.6999 42.6 30.6999 42.6Z" fill="white"/>
<path d="M52.4999 43.9001C52.4999 43.8001 50.6999 44.7001 50.1999 44.8001C49.6999 44.7001 47.8999 43.9001 47.8999 43.9001H52.4999Z" fill="#595959"/>
<path d="M38.8999 43.5C38.8999 43.5 32.6999 47.7 29.3999 51.9C25.9999 56 26.0999 56.8 26.0999 56.8L28.4999 57.9C28.4999 57.9 31.8999 51.4 36.0999 49C40.2999 46.6 40.8999 44.6 40.8999 44.6L38.8999 43.5Z" fill="#D2D2D2"/>
<path d="M25.4001 31C25.4001 31 23.3001 36.8 18.6001 39.2C18.6001 39.2 25.9001 38.4 25.4001 31ZM74.6001 31C74.6001 31 76.7001 36.8 81.4001 39.2C81.4001 39.2 74.1001 38.4 74.6001 31ZM61.3001 41.7999C61.3001 41.7999 56.7001 36.9999 50.5001 36.7999H50.6001H50.7001C44.5001 36.9999 39.9001 41.7999 39.9001 41.7999C45.3001 38.0999 49.9001 38.0999 50.7001 38.0999C50.6001 38.0999 55.9001 37.9999 61.3001 41.7999ZM55.9001 31.6C55.9001 31.6 53.6001 28.3 50.4001 28.2H50.6001C48.3001 28.3 45.2001 31.6 45.2001 31.6C47.9001 29 50.6001 29.1 50.6001 29.1C50.6001 29.1 53.2001 29.1 55.9001 31.6ZM28.9001 55.5999C28.9001 55.5999 25.2001 57.4 22.6001 56.2999H22.5001C20.1001 55 19.0001 51 19.0001 51C19.0001 51 21.3001 57.9999 28.9001 55.5999ZM71.7001 55.5999C71.7001 55.5999 75.4001 57.4 78.0001 56.2999C81.1001 55 81.6001 51 81.6001 51C81.6001 51 79.2001 57.9999 71.7001 55.5999Z" fill="#B2B2B2"/>
<path d="M33.1 30.6C35.1 30.2 38.5 30.1 41.1 31C44.5 32.2 41.7 36.5 42.4 36.7C43.1 36.9 44 33.7 50.3 34C56.6 34.3 57.3 37.1 58.2 36.7C59.1 36.2 57.3 28.9 66.8 30.6C66.8 30.6 56.9 27.9 57.4 35.1C57.4 35.1 51.7 30.7 43.7 34.6C43.8 34.7 45.8 28 33.1 30.6ZM67.7 30.6C67.9 30.6 67.9 30.7 68 30.7C68.1 30.7 67.9 30.6 67.7 30.6ZM30.4 21C30.4 21 22 31.6 20.7 35.7C19.5 39.8 18.5 56.8 17.4 59.2L13.5 42.5L20.7 25.1L30.4 21ZM70 21C70 21 78.4 31.6 79.7 35.7C80.9 39.8 81.9 56.8 83 59.2L86.9 42.5L79.7 25.1L70 21Z" fill="#B2B2B2"/>
<path d="M69.6 21C69.6 21 78.7 28.6 81.3 37.3C84 46 82.9 56.7 84.9 58C87.8 59.9 91.1 48.7 92.2 47.5C93.9 45.6 99.6 40.9 100 40C100.4 39.1 88.4 26.1 83.2 23.5C76.9 20.6 69.1 20.4 69.6 21Z" fill="#3D3D3D"/>
<path d="M77.3999 25.7C77.3999 25.7 88.0999 39.4 87.8999 56.4L92.1999 47.7C92.0999 47.6 88.3999 36.5 77.3999 25.7Z" fill="#303030"/>
<path d="M30.4 21C30.4 21 21.3 28.6 18.7 37.3C16 46.1 17.1 56.7 15.1 58C12.2 59.9 8.89999 48.7 7.79999 47.5C6.09999 45.6 0.399994 40.9 -6.09551e-06 40C-0.400006 39.1 11.6 26.1 16.8 23.5C23.1 20.6 30.9 20.4 30.4 21Z" fill="#3D3D3D"/>
<path d="M22.5999 25.7C22.5999 25.7 11.8999 39.4 12.0999 56.4L7.8999 47.7C7.8999 47.6 11.5999 36.5 22.5999 25.7Z" fill="#303030"/>
<path d="M16.8999 56.7001C16.8999 56.7001 17.6999 60.9001 18.8999 62.2001C20.0999 63.5001 19.2999 61.2001 19.2999 61.2001C19.2999 61.2001 17.9999 60.5001 18.1999 55.1001C18.3999 49.8001 16.8999 56.7001 16.8999 56.7001ZM83.3999 56.7001C83.3999 56.7001 82.5999 60.9001 81.3999 62.2001C80.1999 63.5001 80.9999 61.2001 80.9999 61.2001C80.9999 61.2001 82.2999 60.5001 82.0999 55.1001C81.8999 49.8001 83.3999 56.7001 83.3999 56.7001Z" fill="#B2B2B2"/>
<path d="M42.4001 54.0999C42.7001 54.0999 43 53.7999 43 53.4999C43 53.1999 42.7001 52.8999 42.4001 52.8999C42.1001 52.8999 41.8 53.1999 41.8 53.4999C41.8 53.7999 42.0001 54.0999 42.4001 54.0999Z" fill="#303030"/>
<path d="M38.7999 57.9C39.0999 57.9 39.4 57.5999 39.4 57.2999C39.4 56.9999 39.0999 56.7 38.7999 56.7C38.4999 56.7 38.2 56.9999 38.2 57.2999C38.2 57.5999 38.4999 57.9 38.7999 57.9Z" fill="#303030"/>
<path d="M37.6 54.0999C37.9 54.0999 38.2 53.7999 38.2 53.4999C38.2 53.1999 37.9 52.8999 37.6 52.8999C37.3 52.8999 37 53.1999 37 53.4999C37 53.7999 37.3 54.0999 37.6 54.0999Z" fill="#303030"/>
<path d="M57.6 54.0999C57.9 54.0999 58.2 53.7999 58.2 53.4999C58.2 53.1999 57.9 52.8999 57.6 52.8999C57.3 52.8999 57 53.1999 57 53.4999C57 53.7999 57.3 54.0999 57.6 54.0999Z" fill="#303030"/>
<path d="M61.2001 57.9C61.5001 57.9 61.8001 57.5999 61.8001 57.2999C61.8001 56.9999 61.5001 56.7 61.2001 56.7C60.9001 56.7 60.6001 56.9999 60.6001 57.2999C60.6001 57.5999 60.9001 57.9 61.2001 57.9Z" fill="#303030"/>
<path d="M62.3999 54.0999C62.6999 54.0999 62.9999 53.7999 62.9999 53.4999C62.9999 53.1999 62.6999 52.8999 62.3999 52.8999C62.0999 52.8999 61.7999 53.1999 61.7999 53.4999C61.6999 53.7999 61.9999 54.0999 62.3999 54.0999Z" fill="#303030"/>
</g>
<defs>
<clipPath id="clip0_755_22635">
<rect width="100" height="100" fill="white"/>
</clipPath>
</defs>
</svg>
