<svg width="100" height="100" viewBox="0 0 100 100" fill="none" xmlns="http://www.w3.org/2000/svg">
<path d="M75.5 31.8L68.9 38.4C79.7 49.2 79.7 66.6 68.9 77.2C58.1 88 40.7 88 30.1 77.2C19.3 66.4 19.3 49 30.1 38.4L47.2 21.3L49.6 18.9V6L23.8 31.8C9.4 46.2 9.4 69.4 23.8 83.8C38.2 98.2 61.4 98.2 75.5 83.8C89.9 69.3 89.9 46.2 75.5 31.8Z" fill="#797979"/>
<path d="M62.6 30.2001C65.3 30.2001 67.4001 28.1001 67.4001 25.4001C67.4001 22.7001 65.3 20.6001 62.6 20.6001C59.9 20.6001 57.8 22.7001 57.8 25.4001C57.8 28.1001 59.9 30.2001 62.6 30.2001Z" fill="#797979"/>
</svg>
