<svg width="100" height="100" viewBox="0 0 100 100" fill="none" xmlns="http://www.w3.org/2000/svg">
<g clip-path="url(#clip0_755_22684)">
<path d="M85.8001 100L67.8001 82.1H67.5001V82L29.4001 44.3L38.8001 35.2L33.3001 3.5L7.00009 36C2.50009 40.5 1.70009 47.8 4.90009 53.2L21.3001 80.4C23.8001 84.6 28.4001 87.1 33.3001 87.1L41.4001 87L85.8001 100Z" fill="#8E8E8E"/>
<path d="M95.6 35.4L92 28.7L90.1 25.3L89.4 24H89.3L79.4 6.9C76.9 2.6 72.3 0 67.3 0L58.5999 0.2L32.7999 0.3C27.9 0.3 23.4 2.9 21 7.1L5.19995 38.3L33.2999 3.4L70.2 43.9L63.7 50.5L67.5999 82.2H67.5L67.5999 82.3L70.7 85.3L85.6 99.8C86.2 100.4 87.2 99.7 86.8 98.9L77.6 80.9L93.6 51.3L94.1 50.7C94.2999 50.5 94.5 50.2 94.6 50C97.7 45.7 98.2 40 95.6 35.4Z" fill="#999999"/>
<path d="M70.3 43.6999L33.2999 3.3999L38.5999 34.9999L29.2 44.0999L67.5 82.0999L64 50.5999L70.3 43.6999Z" fill="white"/>
</g>
<defs>
<clipPath id="clip0_755_22684">
<rect width="100" height="100" fill="white"/>
</clipPath>
</defs>
</svg>
