<svg width="100" height="100" viewBox="0 0 100 100" fill="none" xmlns="http://www.w3.org/2000/svg">
<g clip-path="url(#clip0_755_22699)">
<mask id="mask0_755_22699" style="mask-type:luminance" maskUnits="userSpaceOnUse" x="0" y="0" width="100" height="100">
<path d="M100 0H0V100H100V0Z" fill="white"/>
</mask>
<g mask="url(#mask0_755_22699)">
<path d="M0.5 42.7999C0.3 44.4999 0.1 46.1999 0 47.7999H76C75.7 47.2999 75.4 46.7999 75 46.3999C62 29.5999 55 31.0999 45 30.5999C41.7 30.4999 39.4 30.3999 26.1 30.3999C19 30.3999 11.3 30.3999 3.8 30.3999C2.8 32.9999 1.9 35.5999 1.4 37.5999H40.3V42.6999H0.5V42.7999ZM76.6 52.8999H0C0.1 54.2999 0.2 55.5999 0.4 56.8999H71C74.2 56.8999 76 55.0999 76.6 52.8999ZM4.4 70.6999C4.4 70.6999 16.1 99.4999 50 99.9999C70.2 99.9999 87.6 87.9999 95.5 70.6999H4.4Z" fill="black"/>
<path d="M49.9 0C31.2 0 15 10.3 6.4 25.5C13.1 25.5 26.2 25.5 26.2 25.5C41.7 25.5 42.2 25.6 45.3 25.7L47.2 25.8C53.7 26 61.7 26.7 68 31.5C71.4 34.1 76.4 39.8 79.3 43.9C82 47.7 82.8 52 81 56.1C79.3 59.9 75.6 62.2 71.2 62.2H1.6C1.6 62.2 2 64 2.6 65.9H97.4C99.1 60.8 99.9 55.5 99.9 50.2C100 22.4 77.6 0 49.9 0Z" fill="black"/>
</g>
</g>
<defs>
<clipPath id="clip0_755_22699">
<rect width="100" height="100" fill="white"/>
</clipPath>
</defs>
</svg>
