<svg width="100" height="100" viewBox="0 0 100 100" fill="none" xmlns="http://www.w3.org/2000/svg">
<path d="M66.7 55.6C73.3 55.6 82.8 54.2 82.8 46.4C82.8 45.8 82.8 45.2 82.6 44.6L78.7 27.6C77.8 23.9 77 22.2 70.4 18.9C65.3 16.3 54.2 12 51 12C47.9 12 47.1 15.9 43.4 15.9C39.9 15.9 37.3 13 34 13C30.8 13 28.8 15.1 27.2 19.6C27.2 19.6 22.8 32.1 22.2 33.9C22.1 34.2 22.1 34.6 22.1 34.9C22.1 39.7 41.2 55.6 66.7 55.6ZM83.8 49.6C84.7 53.9 84.7 54.4 84.7 54.9C84.7 62.3 76.4 66.3 65.6 66.3C41 66.4 19.5 52 19.5 42.5C19.5 41.2 19.8 39.9 20.3 38.6C11.4 39.1 0 40.6 0 50.7C0 67.2 39.2 87.6 70.2 87.6C94 87.6 100 76.9 100 68.4C100 61.7 94.2 54.1 83.8 49.6Z" fill="#474747"/>
<path d="M83.8 49.6C84.7 53.9 84.7 54.4001 84.7 54.9001C84.7 62.3001 76.4 66.3001 65.6 66.3001C41 66.4001 19.5 52 19.5 42.5C19.5 41.2 19.8 39.9 20.3 38.6L22.2 33.8C22.1 34.1 22.1 34.5 22.1 34.8C22.1 39.6 41.2 55.5 66.7 55.5C73.3 55.5 82.8 54.1 82.8 46.3C82.8 45.7 82.8 45.1 82.6 44.5L83.8 49.6Z" fill="black"/>
</svg>
