<svg width="100" height="100" viewBox="0 0 100 100" fill="none" xmlns="http://www.w3.org/2000/svg">
<mask id="mask0_755_22741" style="mask-type:luminance" maskUnits="userSpaceOnUse" x="0" y="19" width="100" height="62">
<path d="M100 19H0V80.3H100V19Z" fill="white"/>
</mask>
<g mask="url(#mask0_755_22741)">
<path d="M50.8 56.6C50.8 58.7 49.3 60.4 47.3 60.6C44.9 66.1 40.2 71.4 33.6 75.2C28 78.4 22.2 80 16.9 80C10.2 80 4.50002 77.5 1.70002 72.6C-2.89998 64.7 1.60002 53.7 12.1 46.2C12.1 47.9 12.2 49.5 12.5 50.8C11.7 51.5 10.9 52.1 10.1 52.9C8.20002 54.9 6.60002 57 5.50002 59.3C3.50002 63.5 3.40002 67.5 5.10002 70.5C7.10002 73.9 11.3 75.8 16.7 75.8C21.4 75.8 26.6 74.3 31.3 71.6C34 70 36.4 68.1 38.5 66C40.4 64 42 61.8 43 59.5C43.1 59.3 43.2 59.1 43.3 58.9C42.8 58.2 42.5 57.4 42.5 56.4C42.5 54.2 44.3 52.3 46.6 52.3C49 52.5 50.8 54.3 50.8 56.6ZM32.6 19C41.7 19 49.2 28.6 50.5 41.1C49.1 40.2 47.6 39.5 46.1 39C45.9 38 45.7 37.1 45.4 36.1C44.6 33.4 43.5 31 42.1 29C39.5 25.2 36.1 23.1 32.6 23.1C29.1 23.1 25.8 25.2 23.1 29C21.7 31 20.6 33.4 19.8 36.1C19 39 18.5 42 18.5 45.1C18.5 48.2 18.9 51.3 19.8 54.1C20.6 56.8 21.7 59.2 23.1 61.2C23.2 61.4 23.4 61.6 23.5 61.8C23.7 61.8 24 61.7 24.2 61.7C26.4 61.7 28.3 63.5 28.3 65.8C28.3 68 26.5 69.9 24.2 69.9C22 69.9 20.1 68.1 20.1 65.8C20.1 65.3 20.2 64.9 20.3 64.5C16.6 59.7 14.3 52.8 14.3 45C14.5 30.7 22.6 19 32.6 19ZM48.3 75.9C53.3 75.9 57.3 74.3 59.4 71.4C60.6 72.1 62 72.5 63.5 72.7C60.7 77.5 55 80.1 48.3 80.1C44.2 80.1 39.7 79.2 35.3 77.2C37 76.3 38.5 75.3 39.6 74.5C42.6 75.4 45.5 75.9 48.3 75.9ZM55 52.9C52.9 50.7 50.5 48.9 47.8 47.3C43.1 44.6 38 43.1 33.2 43.1C32.2 43.1 31.2 43.2 30.3 43.3C30.3 43.3 30.3 43.3 30.2 43.3C29.8 45.1 28.2 46.4 26.2 46.4C24 46.4 22.1 44.6 22.1 42.3C22.1 40.1 23.9 38.2 26.2 38.2C27.3 38.2 28.2 38.6 28.9 39.3C30.2 39.1 31.7 38.9 33.1 38.9C38.3 38.9 44.2 40.5 49.7 43.6C58.8 48.8 64.5 57.1 65 64.5C63.4 64.3 62 63.8 60.7 63.1C60.4 61.9 60 60.6 59.4 59.3C58.5 57.1 57 55 55 52.9Z" fill="#999999"/>
<path d="M96.5 46.8C98.3 49.5 94.6 51.6 93 48.9C92 47.2 90.5 45.6 88.5 44.2C86.5 42.8 84.1 41.7 81.4 40.9C78.5 40.1 75.5 39.6 72.4 39.6C69.3 39.6 66.2 40 63.4 40.9C62.9 41 62.4 41.2 62 41.4C61.9 43.6 60.1 45.4 57.9 45.4C55.7 45.4 53.8 43.6 53.8 41.3C53.8 39 55.6 37.2 57.9 37.2C58.6 37.2 59.3 37.4 59.9 37.8C63.6 36.4 67.9 35.6 72.4 35.6C83.2 35.5 92.6 40.1 96.5 46.8ZM99.9 56.6C99.9 58.6 98.4 60.3 96.4 60.6C92.5 67.2 83.1 71.8 72.2 71.8C63.7 71.8 56.1 69 51.3 64.6C49 62.3 51.8 59.6 53.9 61.5C54.5 62.1 55.2 62.6 56 63.2C58 64.6 60.4 65.7 63.1 66.5C66 67.3 69 67.8 72.1 67.8C75.2 67.8 78.3 67.4 81.1 66.5C83.8 65.7 86.2 64.6 88.2 63.2C90 62 91.4 60.6 92.4 59.1C91.9 58.4 91.6 57.6 91.6 56.6C91.6 54.4 93.4 52.5 95.7 52.5C98.1 52.5 99.9 54.3 99.9 56.6Z" fill="#B5B5B5"/>
</g>
</svg>
