<svg width="100" height="100" viewBox="0 0 100 100" fill="none" xmlns="http://www.w3.org/2000/svg">
<g clip-path="url(#clip0_755_22766)">
<path d="M77.4999 65.8L20.3999 99.7L94.2999 94.7L99.9999 20.2L77.4999 65.8Z" fill="url(#paint0_linear_755_22766)"/>
<path d="M94.4 94.7L88 50.8L70.8 73.7L94.4 94.7Z" fill="url(#paint1_linear_755_22766)"/>
<path d="M94.5 94.7L48 91L20.7 99.6L94.5 94.7Z" fill="url(#paint2_linear_755_22766)"/>
<path d="M20.7 99.6L32.2999 61.5L6.69995 67L20.7 99.6Z" fill="url(#paint3_linear_755_22766)"/>
<path d="M70.7999 73.7999L60.0999 31.8999L29.3999 60.5999L70.7999 73.7999Z" fill="url(#paint4_linear_755_22766)"/>
<path d="M97.6 32.5L68.6 8.80005L60.5 34.9001L97.6 32.5Z" fill="url(#paint5_linear_755_22766)"/>
<path d="M84 0.400049L67 9.80005L56.3 0.300049L84 0.400049Z" fill="url(#paint6_linear_755_22766)"/>
<path d="M0 79.8001L7.1 66.8001L1.4 51.3L0 79.8001Z" fill="url(#paint7_linear_755_22766)"/>
<path d="M1 50.8L6.8 67.3L32 61.6L60.8 34.8L68.9 9L56.1 0L34.4 8.1C27.5 14.5 14.2 27.1 13.8 27.3C13.3 27.6 5 43.3 1 50.8Z" fill="white"/>
<path d="M21.4001 21.2001C36.3001 6.50007 55.4001 -2.19993 62.8001 5.20007C70.1001 12.6001 62.4001 30.6001 47.5001 45.4001C32.6001 60.1001 13.6001 69.3001 6.30006 61.9001C-0.999938 54.4001 6.50006 35.9001 21.4001 21.2001Z" fill="url(#paint8_linear_755_22766)"/>
<path d="M20.7 99.5999L32.2 61.3999L70.5 73.6999C56.7 86.6999 41.3 97.6999 20.7 99.5999Z" fill="url(#paint9_linear_755_22766)"/>
<path d="M60.8 34.7999L70.6 73.7999C82.2 61.5999 92.6 48.4999 97.6 32.3999L60.8 34.7999Z" fill="url(#paint10_linear_755_22766)"/>
<path d="M97.6 32.4999C101.5 20.5999 102.4 3.5999 83.9 0.399902L68.7 8.7999L97.6 32.4999Z" fill="url(#paint11_linear_755_22766)"/>
<path d="M0 79.6C0.5 99.2 14.7 99.5 20.7 99.7L6.8 67.2L0 79.6Z" fill="#3B3B3B"/>
<path d="M60.8999 34.8C69.7999 40.3 87.6999 51.2001 88.0999 51.4001C88.6999 51.7001 95.7999 39.3 97.4999 32.3L60.8999 34.8Z" fill="url(#paint12_radial_755_22766)"/>
<path d="M32.2 61.3999L47.5999 91.1999C56.6999 86.2999 63.9 80.1999 70.4 73.7999L32.2 61.3999Z" fill="url(#paint13_radial_755_22766)"/>
<path d="M6.7 67.2001L4.5 93.2001C8.6 98.8001 14.3 99.3001 20.2 98.9001C16 88.2001 7.4 66.8001 6.7 67.2001Z" fill="url(#paint14_linear_755_22766)"/>
<path d="M68.6001 8.8999L99.2001 13.1999C97.6001 6.2999 92.6001 1.7999 84.0001 0.399902L68.6001 8.8999Z" fill="url(#paint15_linear_755_22766)"/>
</g>
<defs>
<linearGradient id="paint0_linear_755_22766" x1="87.8267" y1="108.81" x2="66.7548" y2="71.5509" gradientUnits="userSpaceOnUse">
<stop stop-color="#9A9A9A"/>
<stop offset="0.41" stop-color="#616161"/>
<stop offset="0.99" stop-color="#2E2E2E"/>
<stop offset="1" stop-color="#2E2E2E"/>
</linearGradient>
<linearGradient id="paint1_linear_755_22766" x1="99.0043" y1="74.243" x2="69.3826" y2="68.4566" gradientUnits="userSpaceOnUse">
<stop stop-color="#333333"/>
<stop offset="0.99" stop-color="#373737"/>
<stop offset="1" stop-color="#373737"/>
</linearGradient>
<linearGradient id="paint2_linear_755_22766" x1="57.8379" y1="110.302" x2="57.4562" y2="91.514" gradientUnits="userSpaceOnUse">
<stop stop-color="#333333"/>
<stop offset="0.99" stop-color="#373737"/>
<stop offset="1" stop-color="#373737"/>
</linearGradient>
<linearGradient id="paint3_linear_755_22766" x1="19.5342" y1="64.2958" x2="28.3414" y2="90.1213" gradientUnits="userSpaceOnUse">
<stop stop-color="white"/>
<stop offset="0.23" stop-color="#919191"/>
<stop offset="0.46" stop-color="#696969"/>
<stop offset="0.99" stop-color="#323232"/>
<stop offset="1" stop-color="#323232"/>
</linearGradient>
<linearGradient id="paint4_linear_755_22766" x1="48.475" y1="38.7231" x2="50.0724" y2="66.6756" gradientUnits="userSpaceOnUse">
<stop stop-color="white"/>
<stop offset="0.23" stop-color="#909090"/>
<stop offset="0.56" stop-color="#4A4A4A"/>
<stop offset="0.99" stop-color="#3A3A3A"/>
<stop offset="1" stop-color="#3A3A3A"/>
</linearGradient>
<linearGradient id="paint5_linear_755_22766" x1="76.6459" y1="12.6052" x2="78.9818" y2="32.9063" gradientUnits="userSpaceOnUse">
<stop stop-color="white"/>
<stop offset="0.18" stop-color="#868686"/>
<stop offset="0.4" stop-color="#535353"/>
<stop offset="0.99" stop-color="#3A3A3A"/>
<stop offset="1" stop-color="#3A3A3A"/>
</linearGradient>
<linearGradient id="paint6_linear_755_22766" x1="68.3926" y1="7.79335" x2="71.686" y2="-6.17155" gradientUnits="userSpaceOnUse">
<stop stop-color="white"/>
<stop offset="0.54" stop-color="#505050"/>
<stop offset="0.99" stop-color="#3F3F3F"/>
<stop offset="1" stop-color="#3F3F3F"/>
</linearGradient>
<linearGradient id="paint7_linear_755_22766" x1="-2.0957" y1="63.8003" x2="6.5171" y2="69.1989" gradientUnits="userSpaceOnUse">
<stop stop-color="white"/>
<stop offset="0.31" stop-color="#6C6C6C"/>
<stop offset="0.99" stop-color="#494949"/>
<stop offset="1" stop-color="#494949"/>
</linearGradient>
<linearGradient id="paint8_linear_755_22766" x1="-9.30144" y1="78.347" x2="68.0956" y2="-1.46583" gradientUnits="userSpaceOnUse">
<stop stop-color="#3B3B3B"/>
<stop offset="0.07" stop-color="white"/>
<stop offset="0.17" stop-color="white"/>
<stop offset="0.27" stop-color="#5B5B5B"/>
<stop offset="0.33" stop-color="#2E2E2E"/>
<stop offset="0.46" stop-color="#3E3E3E"/>
<stop offset="0.72" stop-color="#414141"/>
<stop offset="0.99" stop-color="#5D5D5D"/>
<stop offset="1" stop-color="#5D5D5D"/>
</linearGradient>
<linearGradient id="paint9_linear_755_22766" x1="49.2247" y1="88.1818" x2="27.3219" y2="78.9824" gradientUnits="userSpaceOnUse">
<stop stop-color="#313131"/>
<stop offset="0.54" stop-color="#353535"/>
<stop offset="0.99" stop-color="#3C3C3C"/>
<stop offset="1" stop-color="#3C3C3C"/>
</linearGradient>
<linearGradient id="paint10_linear_755_22766" x1="90.6232" y1="57.5742" x2="68.0617" y2="41.5488" gradientUnits="userSpaceOnUse">
<stop stop-color="#313131"/>
<stop offset="0.99" stop-color="#363636"/>
<stop offset="1" stop-color="#363636"/>
</linearGradient>
<linearGradient id="paint11_linear_755_22766" x1="98.1506" y1="23.7764" x2="87.5407" y2="13.0059" gradientUnits="userSpaceOnUse">
<stop stop-color="#313131"/>
<stop offset="0.99" stop-color="#3B3B3B"/>
<stop offset="1" stop-color="#3B3B3B"/>
</linearGradient>
<radialGradient id="paint12_radial_755_22766" cx="0" cy="0" r="1" gradientUnits="userSpaceOnUse" gradientTransform="translate(72.5937 40.0689) scale(25.4167 13.2811)">
<stop stop-color="#3A3A3A"/>
<stop offset="0.99" stop-color="#2F2F2F"/>
<stop offset="1" stop-color="#2F2F2F"/>
</radialGradient>
<radialGradient id="paint13_radial_755_22766" cx="0" cy="0" r="1" gradientUnits="userSpaceOnUse" gradientTransform="translate(37.3952 73.566) scale(33.7877 26.3022)">
<stop stop-color="#383838"/>
<stop offset="0.99" stop-color="#303030"/>
<stop offset="1" stop-color="#303030"/>
</radialGradient>
<linearGradient id="paint14_linear_755_22766" x1="19.6536" y1="92.14" x2="0.630997" y2="76.3496" gradientUnits="userSpaceOnUse">
<stop stop-color="#3F3F3F"/>
<stop offset="0.43" stop-color="#3A3A3A"/>
<stop offset="0.99" stop-color="#404040"/>
<stop offset="1" stop-color="#404040"/>
</linearGradient>
<linearGradient id="paint15_linear_755_22766" x1="81.1278" y1="3.7293" x2="86.527" y2="17.3882" gradientUnits="userSpaceOnUse">
<stop stop-color="#3F3F3F"/>
<stop offset="0.44" stop-color="#353535"/>
<stop offset="0.99" stop-color="#373737"/>
<stop offset="1" stop-color="#373737"/>
</linearGradient>
<clipPath id="clip0_755_22766">
<rect width="100" height="100" fill="white"/>
</clipPath>
</defs>
</svg>
