<svg width="100" height="100" viewBox="0 0 100 100" fill="none" xmlns="http://www.w3.org/2000/svg">
<mask id="mask0_755_22788" style="mask-type:luminance" maskUnits="userSpaceOnUse" x="0" y="0" width="100" height="100">
<path d="M100 0H0V99.5H100V0Z" fill="white"/>
</mask>
<g mask="url(#mask0_755_22788)">
<g opacity="0.53">
<path d="M95.5999 51.3001C95.5999 57.1001 94.3999 62.8001 92.0999 68.1001C89.7999 73.4001 86.3999 78.3001 82.1999 82.3001C77.9999 86.4001 72.8999 89.6002 67.3999 91.8001C61.8999 94.0001 55.9999 95.2001 49.9999 95.2001C43.9999 95.2001 38.0999 94.1001 32.4999 91.9001C26.8999 89.7001 21.9999 86.4001 17.7999 82.4001C13.5999 78.3001 10.1999 73.5001 7.8999 68.2001C5.5999 62.9001 4.3999 57.2001 4.3999 51.4001C4.3999 39.8001 9.1999 28.6001 17.7999 20.3001C26.2999 12.0001 37.8999 7.40015 49.9999 7.40015C55.9999 7.40015 61.8999 8.50015 67.4999 10.7001C72.9999 12.9001 78.0999 16.1001 82.2999 20.2001C86.4999 24.3001 89.8999 29.1001 92.1999 34.4001C94.3999 39.8001 95.5999 45.5001 95.5999 51.3001Z" fill="black"/>
</g>
<path d="M97.3 47.4001C97.3 53.6001 96.1 59.8001 93.7 65.5001C91.2999 71.2001 87.8 76.5001 83.4 80.9001C79 85.3001 73.8 88.8001 68 91.2001C62.3 93.6001 56.1 94.8001 49.9 94.8001C37.2999 94.8001 25.2999 89.8001 16.4 80.9001C7.59995 72.0001 2.69995 60.0001 2.69995 47.4001C2.69995 34.8001 7.69995 22.8001 16.6 13.9001C25.4 5.1001 37.3999 0.100098 50 0.100098C56.2 0.100098 62.4 1.3001 68.1 3.7001C73.7999 6.1001 79.1 9.6001 83.5 14.0001C87.9 18.4001 91.4 23.6001 93.8 29.4001C96.1 35.1001 97.3 41.2001 97.3 47.4001Z" fill="url(#paint0_linear_755_22788)" stroke="#CDCDCD" stroke-width="0.1406" stroke-linecap="round" stroke-linejoin="round"/>
<path d="M93.5999 47.4001C93.5999 59.0001 88.9999 70.1001 80.7999 78.3C72.6999 86.5 61.5999 91.1 49.9999 91.1C38.3999 91.1 27.2999 86.5 19.0999 78.3C10.8999 70.1001 6.3999 59.0001 6.3999 47.4001C6.3999 35.8 10.9999 24.7 19.1999 16.5C27.3999 8.30005 38.3999 3.80005 49.9999 3.80005C61.5999 3.80005 72.6999 8.40005 80.8999 16.6C88.9999 24.8 93.5999 35.9001 93.5999 47.4001Z" fill="url(#paint1_radial_755_22788)"/>
<path d="M50 6.1001C49.5999 6.1001 49.4 6.4001 49.4 6.7001V14.0001C49.4 14.4001 49.7 14.6001 50 14.6001C50.4 14.6001 50.5999 14.3001 50.5999 14.0001V6.7001C50.5999 6.4001 50.4 6.1001 50 6.1001ZM45.7999 6.3001H45.7C45.2999 6.3001 45.0999 6.6001 45.0999 7.0001L45.4 10.1001C45.4 10.5001 45.6999 10.7001 46.0999 10.7001C46.5 10.7001 46.7 10.4001 46.7 10.0001L46.4 6.9001C46.4 6.6001 46.0999 6.4001 45.7999 6.3001ZM54.2 6.3001C53.9 6.3001 53.6999 6.6001 53.5999 6.9001L53.2999 10.0001C53.2999 10.4001 53.5 10.7001 53.9 10.7001C54.3 10.7001 54.5999 10.5001 54.5999 10.1001L54.9 7.0001C54.9 6.6001 54.7 6.3001 54.2999 6.3001H54.2ZM41.5999 7.0001H41.5C41.2 7.1001 40.9 7.4001 41 7.8001L42.5 15.0001C42.5999 15.3001 42.8999 15.6001 43.2999 15.5001C43.5999 15.4001 43.8999 15.1001 43.7999 14.7001L42.2999 7.5001C42.0999 7.2001 41.8999 7.0001 41.5999 7.0001ZM58.5 7.0001C58.2 7.0001 57.9 7.2001 57.9 7.5001L56.4 14.7001C56.3 15.0001 56.5 15.4001 56.9 15.5001C57.2 15.6001 57.6 15.4001 57.7 15.0001L59.2 7.8001C59.2 7.4001 58.8999 7.0001 58.5999 7.0001H58.5ZM37.5 8.1001C37.4 8.1001 37.3 8.1001 37.2 8.1001C36.9 8.2001 36.6999 8.6001 36.7999 8.9001L37.7999 11.8001C37.9 12.1001 38.2999 12.3001 38.5999 12.2001C38.8999 12.1001 39.1 11.7001 39 11.4001L38 8.5001C38 8.3001 37.7 8.1001 37.5 8.1001ZM62.5 8.1001C62.2999 8.1001 62 8.3001 61.9 8.5001L60.9 11.4001C60.8 11.7001 61 12.1001 61.2999 12.2001C61.5999 12.3001 62 12.1001 62.0999 11.8001L63.0999 8.9001C63.1999 8.6001 63 8.2001 62.7 8.1001C62.7 8.1001 62.5999 8.1001 62.5 8.1001ZM33.4 9.6001C33.3 9.6001 33.2 9.6001 33.2 9.7001C32.9 9.8001 32.7 10.2001 32.9 10.5001L35.9 17.2001C36 17.5001 36.4 17.7001 36.7 17.5001C37 17.4001 37.2 17.0001 37 16.7001L34 10.0001C33.9 9.7001 33.7 9.6001 33.4 9.6001ZM66.5999 9.6001C66.3999 9.6001 66.0999 9.7001 66 10.0001L63 16.7001C62.9 17.0001 63 17.4001 63.2999 17.5001C63.5999 17.6001 64 17.5001 64.0999 17.2001L67.0999 10.5001C67.1999 10.2001 67.1 9.8001 66.8 9.7001C66.8 9.6001 66.6999 9.6001 66.5999 9.6001ZM29.7 11.6001C29.6 11.6001 29.5 11.6001 29.2999 11.7001C29 11.9001 28.9 12.3001 29.1 12.6001L30.6 15.3001C30.8 15.6001 31.2 15.7001 31.5 15.5001C31.7999 15.3001 31.9 14.9001 31.7 14.6001L30.2 11.9001C30.1 11.7001 29.9 11.6001 29.7 11.6001ZM70.3 11.6001C70.1 11.6001 69.9 11.7001 69.8 11.9001L68.3 14.6001C68.1 14.9001 68.2 15.3001 68.5 15.5001C68.7999 15.7001 69.2 15.6001 69.4 15.3001L70.9 12.6001C71.1 12.3001 70.9999 11.9001 70.6999 11.7001C70.4999 11.6001 70.4 11.6001 70.3 11.6001ZM26.1 13.8001C26 13.8001 25.9 13.8001 25.7 13.9001C25.4 14.1001 25.4 14.5001 25.6 14.8001L29.9 20.7001C30.1 21.0001 30.5 21.0001 30.7999 20.8001C31.0999 20.6001 31.1 20.2001 30.9 19.9001L26.6 14.0001C26.5 13.9001 26.3 13.8001 26.1 13.8001ZM74 13.9001C73.8 13.9001 73.6 14.0001 73.5 14.2001L69.1999 20.1001C68.9999 20.4001 69.1 20.8001 69.3 21.0001C69.6 21.2001 69.9999 21.1001 70.1999 20.9001L74.5 15.0001C74.7 14.7001 74.6 14.3001 74.4 14.1001C74.2 13.9001 74.1 13.9001 74 13.9001ZM22.8 16.6001C22.6 16.6001 22.5 16.6001 22.3 16.8001C22 17.0001 22 17.4001 22.3 17.7001L24.4 20.0001C24.6 20.3001 25 20.3001 25.2999 20.0001C25.5999 19.8001 25.5999 19.4001 25.2999 19.1001L23.2 16.8001C23.1 16.6001 23 16.6001 22.8 16.6001ZM77.2 16.6001C77 16.6001 76.9 16.7001 76.8 16.8001L74.7 19.1001C74.5 19.4001 74.5 19.8001 74.7 20.0001C75 20.2001 75.4 20.2001 75.6 20.0001L77.7 17.7001C77.8999 17.4001 77.8999 17.0001 77.7 16.8001C77.5 16.6001 77.3999 16.6001 77.2 16.6001ZM19.7 19.5001C19.5 19.5001 19.4 19.6001 19.3 19.7001C19.1 20.0001 19.1 20.4001 19.3 20.6001L24.7999 25.5001C25.0999 25.7001 25.5 25.7001 25.7 25.5001C25.9 25.2001 25.9 24.8001 25.7 24.6001L20.2 19.7001C20 19.6001 19.9 19.5001 19.7 19.5001ZM80.3 19.6001C80.1 19.6001 80 19.6001 79.8 19.8001L74.3 24.7001C74 24.9001 74 25.3001 74.3 25.6001C74.6 25.9001 74.8999 25.9001 75.2 25.6001L80.7 20.7001C81 20.5001 81 20.1001 80.7 19.8001C80.6 19.7001 80.5 19.6001 80.3 19.6001ZM17.1 22.9001C16.9 22.9001 16.7 23.0001 16.6 23.2001C16.4 23.5001 16.5 23.9001 16.7 24.1001L19.2 25.9001C19.5 26.1001 19.9 26.0001 20.1 25.8001C20.3 25.5001 20.2 25.1001 20 24.9001L17.5 23.0001C17.4 22.9001 17.2 22.9001 17.1 22.9001ZM82.9 22.9001C82.8 22.9001 82.7 22.9001 82.5 23.0001L80 24.8001C79.7 25.0001 79.7 25.4001 79.9 25.7001C80.1 26.0001 80.5 26.0001 80.8 25.8001L83.3 24.0001C83.6 23.8001 83.6 23.4001 83.4 23.1001C83.3 23.0001 83.1 22.9001 82.9 22.9001ZM14.7 26.4001C14.5 26.4001 14.3 26.5001 14.2 26.7001C14 27.0001 14.1 27.4001 14.4 27.6001L20.8 31.3001C21.1 31.5001 21.5 31.4001 21.7 31.1001C21.9 30.8001 21.8 30.4001 21.5 30.2001L15.1 26.5001C14.9 26.5001 14.8 26.4001 14.7 26.4001ZM85.3 26.4001C85.2 26.4001 85.1 26.4001 84.9 26.5001L78.5 30.2001C78.2 30.4001 78.1 30.8001 78.3 31.1001C78.5 31.4001 78.8999 31.5001 79.2 31.3001L85.6 27.6001C85.9 27.4001 86 27.0001 85.8 26.7001C85.7 26.6001 85.5 26.4001 85.3 26.4001ZM12.9 30.2001C12.7 30.2001 12.4 30.3001 12.3 30.6001C12.2 30.9001 12.3 31.3001 12.6 31.4001L15.4 32.7001C15.7 32.8001 16.1 32.7001 16.2 32.4001C16.3 32.1001 16.2 31.7001 15.9 31.6001L13.1 30.3001C13 30.2001 12.9 30.2001 12.9 30.2001ZM87.2 30.2001C87.1 30.2001 87 30.2001 87 30.3001L84.2 31.6001C83.8999 31.7001 83.7 32.1001 83.9 32.4001C84 32.7001 84.3999 32.9001 84.7 32.7001L87.5 31.4001C87.8 31.3001 88 30.9001 87.8 30.6001C87.6 30.4001 87.3999 30.2001 87.2 30.2001ZM11.2 34.2001C11 34.2001 10.7 34.4001 10.6 34.6001C10.5 34.9001 10.7 35.3001 11 35.4001L18 37.7001C18.3 37.8001 18.7 37.6001 18.8 37.3001C18.9 37.0001 18.7 36.6001 18.4 36.5001L11.4 34.2001C11.4 34.2001 11.3 34.2001 11.2 34.2001ZM88.8 34.2001C88.7 34.2001 88.6 34.2001 88.5 34.2001L81.5 36.5001C81.2 36.6001 81 37.0001 81.1 37.3001C81.2 37.6001 81.6 37.8001 81.9 37.7001L88.9 35.4001C89.2 35.3001 89.4 34.9001 89.3 34.6001C89.3 34.4001 89 34.2001 88.8 34.2001ZM10.2 38.3001C9.89995 38.3001 9.59995 38.5001 9.59995 38.8001C9.49995 39.1001 9.69995 39.5001 10.1 39.6001L13.1 40.2001C13.4 40.3001 13.8 40.1001 13.9 39.7001C14 39.4001 13.8 39.0001 13.4 38.9001L10.4 38.3001C10.3 38.3001 10.3 38.3001 10.2 38.3001ZM89.8 38.3001H89.7L86.7 38.9001C86.3999 39.0001 86.1 39.3001 86.2 39.7001C86.2999 40.0001 86.6 40.3001 87 40.2001L90 39.6001C90.3 39.5001 90.6 39.2001 90.5 38.8001C90.4 38.5001 90.1 38.3001 89.8 38.3001ZM9.39995 42.5001C9.09995 42.5001 8.89995 42.8001 8.79995 43.1001C8.79995 43.5001 8.99995 43.8001 9.39995 43.8001L16.7 44.6001C17.1 44.6001 17.4 44.4001 17.4 44.0001C17.4 43.6001 17.2 43.3001 16.8 43.3001L9.49995 42.5001C9.49995 42.5001 9.49995 42.5001 9.39995 42.5001ZM90.6 42.6001H90.5L83.2 43.4001C82.7999 43.4001 82.6 43.7001 82.6 44.1001C82.6 44.5001 82.9 44.7001 83.3 44.7001L90.6 43.9001C91 43.9001 91.2 43.6001 91.2 43.2001C91.1 42.8001 90.9 42.6001 90.6 42.6001ZM9.29995 46.8001C8.89995 46.8001 8.69995 47.1001 8.69995 47.4001C8.69995 47.8001 8.99995 48.0001 9.29995 48.0001H12.4C12.8 48.0001 13 47.7001 13 47.4001C13 47.0001 12.7 46.8001 12.4 46.8001H9.29995ZM87.6 46.8001C87.2 46.8001 87 47.1001 87 47.4001C87 47.8001 87.2999 48.0001 87.6 48.0001H90.7C91.1 48.0001 91.3 47.7001 91.3 47.4001C91.3 47.0001 91 46.8001 90.7 46.8001H87.6ZM16.9 50.3001H16.8L9.39995 51.0001C8.99995 51.0001 8.79995 51.3001 8.79995 51.7001C8.79995 52.1001 9.09995 52.3001 9.49995 52.3001L16.8 51.5001C17.2 51.5001 17.4 51.2001 17.4 50.8001C17.4 50.5001 17.2 50.3001 16.9 50.3001ZM83.1 50.3001C82.7999 50.3001 82.6 50.6001 82.5 50.9001C82.5 51.3001 82.7 51.6001 83.1 51.6001L90.4 52.4001C90.8 52.4001 91.1 52.2001 91.1 51.8001C91.1 51.4001 90.9 51.1001 90.5 51.1001L83.2 50.3001C83.2 50.3001 83.2 50.3001 83.1 50.3001ZM13.2 54.6001H13.1L10.1 55.2001C9.79995 55.3001 9.49995 55.6001 9.59995 56.0001C9.69995 56.3001 9.99995 56.6001 10.4 56.5001L13.4 55.9001C13.7 55.8001 14 55.5001 13.9 55.1001C13.8 54.8001 13.5 54.6001 13.2 54.6001ZM86.8 54.6001C86.5 54.6001 86.2 54.8001 86.2 55.1001C86.1 55.4001 86.2999 55.8001 86.7 55.9001L89.7 56.5001C90 56.6001 90.4 56.4001 90.5 56.0001C90.6 55.7001 90.4 55.3001 90 55.2001L87 54.6001C86.9 54.6001 86.8 54.6001 86.8 54.6001ZM18.3 57.1001C18.2 57.1001 18.1 57.1001 18 57.1001L11 59.4001C10.7 59.5001 10.5 59.9001 10.6 60.2001C10.7 60.5001 11.1 60.7001 11.4 60.6001L18.4 58.3001C18.7 58.2001 18.9 57.8001 18.8 57.5001C18.8 57.3001 18.6 57.1001 18.3 57.1001ZM81.7 57.1001C81.5 57.1001 81.2 57.3001 81.1 57.5001C81 57.8001 81.2 58.2001 81.5 58.3001L88.5 60.6001C88.8 60.7001 89.2 60.5001 89.3 60.2001C89.4 59.9001 89.2 59.5001 88.9 59.4001L81.9 57.1001C81.9 57.1001 81.7999 57.1001 81.7 57.1001ZM15.6 62.1001C15.5 62.1001 15.4 62.1001 15.4 62.2001L12.6 63.5001C12.3 63.6001 12.1 64.0001 12.3 64.3001C12.4 64.6001 12.8 64.8001 13.1 64.6001L15.9 63.3001C16.2 63.2001 16.4 62.8001 16.2 62.5001C16.1 62.2001 15.9 62.1001 15.6 62.1001ZM84.3 62.1001C84.1 62.1001 83.7999 62.2001 83.7 62.5001C83.6 62.8001 83.7 63.2001 84 63.3001L86.8 64.6001C87.1 64.7001 87.5 64.6001 87.6 64.3001C87.7 64.0001 87.6 63.6001 87.3 63.5001L84.5 62.2001C84.5 62.1001 84.4 62.1001 84.3 62.1001ZM21.1 63.5001C21 63.5001 20.9 63.5001 20.7 63.6001L14.3 67.3001C14 67.5001 13.9 67.9001 14.1 68.2001C14.3 68.5001 14.7 68.6001 15 68.4001L21.4 64.7001C21.7 64.5001 21.8 64.1001 21.6 63.8001C21.5 63.6001 21.3 63.5001 21.1 63.5001ZM78.9 63.5001C78.7 63.5001 78.5 63.6001 78.4 63.8001C78.2 64.1001 78.2999 64.5001 78.6 64.7001L85 68.4001C85.3 68.6001 85.7 68.5001 85.9 68.2001C86.1 67.9001 86 67.5001 85.7 67.3001L79.3 63.6001C79.1 63.5001 79 63.5001 78.9 63.5001ZM19.5 68.9001C19.4 68.9001 19.3 68.9001 19.1 69.0001L16.6 70.8001C16.3 71.0001 16.3 71.4001 16.5 71.7001C16.7 72.0001 17.1 72.0001 17.4 71.8001L19.9 70.0001C20.2 69.8001 20.2 69.4001 20 69.1001C20 69.0001 19.8 68.9001 19.5 68.9001ZM80.4 68.9001C80.2 68.9001 80 69.0001 79.9 69.2001C79.7 69.5001 79.8 69.9001 80 70.1001L82.5 71.9001C82.8 72.1001 83.2 72.0001 83.4 71.8001C83.6 71.5001 83.5 71.1001 83.3 70.9001L80.8 69.0001C80.7 68.9001 80.6 68.9001 80.4 68.9001ZM25.2 69.1001C25 69.1001 24.9 69.1001 24.7 69.3001L19.2 74.2001C18.9 74.4001 18.9 74.8001 19.2 75.1001C19.4 75.4001 19.8 75.4001 20.1 75.1001L25.6 70.2001C25.9 70.0001 25.9 69.6001 25.6 69.3001C25.5 69.2001 25.4 69.1001 25.2 69.1001ZM74.8 69.1001C74.6 69.1001 74.5 69.2001 74.4 69.3001C74.2 69.6001 74.2 70.0001 74.4 70.2001L79.9 75.1001C80.2 75.3001 80.6 75.3001 80.8 75.1001C81 74.8001 81 74.4001 80.8 74.2001L75.3 69.3001C75.1 69.2001 74.9 69.1001 74.8 69.1001ZM30.4 73.8001C30.2 73.8001 30 73.9001 29.9 74.1001L25.5 80.0001C25.2999 80.3001 25.4 80.7001 25.6 80.9001C25.9 81.1001 26.2999 81.0001 26.5 80.8001L30.7999 74.9001C31 74.6001 30.9 74.2001 30.7 74.0001C30.6 73.8001 30.5 73.8001 30.4 73.8001ZM69.5999 73.8001C69.5 73.8001 69.3999 73.8001 69.1999 73.9001C68.8999 74.1001 68.8999 74.5001 69.0999 74.8001L73.4 80.7001C73.6 81.0001 74 81.0001 74.3 80.8001C74.6 80.6001 74.6 80.2001 74.4 79.9001L70.0999 74.0001C70 73.9001 69.7999 73.8001 69.5999 73.8001ZM24.7999 74.7001C24.5999 74.7001 24.5 74.8001 24.4 74.9001L22.3 77.2001C22.1 77.5001 22.1 77.9001 22.3 78.1001C22.6 78.3001 23 78.3001 23.2 78.1001L25.2999 75.8001C25.5 75.5001 25.5 75.1001 25.2999 74.9001C25.0999 74.8001 25 74.7001 24.7999 74.7001ZM75.2 74.7001C75 74.7001 74.8999 74.7001 74.7 74.9001C74.3999 75.1001 74.3999 75.5001 74.7 75.8001L76.8 78.1001C77 78.4001 77.3999 78.4001 77.7 78.1001C78 77.9001 78 77.5001 77.7 77.2001L75.6 74.9001C75.5 74.8001 75.2999 74.7001 75.2 74.7001ZM36.4 77.3001C36.2 77.3001 35.9 77.4001 35.7999 77.7001L32.7999 84.4001C32.6999 84.7001 32.7999 85.1001 33.0999 85.2001C33.3999 85.3001 33.8 85.2001 33.9 84.9001L36.9 78.2001C37 77.9001 36.8999 77.5001 36.5999 77.4001C36.5999 77.3001 36.5 77.3001 36.4 77.3001ZM63.5 77.3001C63.4 77.3001 63.2999 77.3001 63.2999 77.4001C63 77.5001 62.7999 77.9001 63 78.2001L66 84.9001C66.0999 85.2001 66.5 85.4001 66.8 85.2001C67.1 85.1001 67.2999 84.7001 67.0999 84.4001L64.0999 77.7001C64 77.4001 63.7999 77.3001 63.5 77.3001ZM31.2 79.4001C31 79.4001 30.8 79.5001 30.7 79.7001L29.2 82.4001C29 82.7001 29.1 83.1001 29.4 83.3001C29.7 83.5001 30.0999 83.4001 30.2999 83.1001L31.7999 80.4001C32 80.1001 31.9 79.7001 31.6 79.5001C31.4 79.4001 31.3 79.3001 31.2 79.4001ZM68.8 79.4001C68.7 79.4001 68.6 79.4001 68.4 79.5001C68.1 79.7001 67.9999 80.1001 68.1999 80.4001L69.6999 83.1001C69.8999 83.4001 70.2999 83.5001 70.5999 83.3001C70.8999 83.1001 71 82.7001 70.8 82.4001L69.3 79.7001C69.2 79.5001 69 79.4001 68.8 79.4001ZM43.0999 79.4001C42.7999 79.4001 42.5 79.6001 42.5 79.9001L41 87.1001C40.9 87.4001 41.0999 87.8001 41.5 87.9001C41.7999 88.0001 42.2 87.8001 42.2999 87.4001L43.7999 80.2001C43.8999 79.9001 43.7 79.5001 43.2999 79.4001C43.2 79.5001 43.0999 79.4001 43.0999 79.4001ZM56.9 79.5001H56.7999C56.5 79.6001 56.2 79.9001 56.2999 80.3001L57.7999 87.5001C57.8999 87.8001 58.1999 88.1001 58.5999 88.0001C59 87.9001 59.1999 87.6001 59.0999 87.2001L57.5 80.0001C57.5 79.7001 57.2 79.5001 56.9 79.5001ZM50 80.2001C49.5999 80.2001 49.4 80.5001 49.4 80.8001V88.1001C49.4 88.5001 49.7 88.7001 50 88.7001C50.4 88.7001 50.5999 88.4001 50.5999 88.1001V80.8001C50.5999 80.5001 50.4 80.2001 50 80.2001ZM38.2999 82.5001C38.0999 82.5001 37.8 82.7001 37.7 82.9001L36.7 85.8001C36.6 86.1001 36.7999 86.5001 37.0999 86.6001C37.3999 86.7001 37.8 86.5001 37.9 86.2001L38.9 83.3001C39 83.0001 38.7999 82.6001 38.5 82.5001C38.5 82.6001 38.4 82.5001 38.2999 82.5001ZM61.7 82.6001C61.6 82.6001 61.5 82.6001 61.4 82.6001C61.1 82.7001 60.9 83.1001 61 83.4001L62 86.3001C62.0999 86.6001 62.5 86.8001 62.7999 86.7001C63.0999 86.6001 63.2999 86.2001 63.2 85.9001L62.2 83.0001C62.1 82.7001 61.9 82.6001 61.7 82.6001ZM46 84.2001C45.7 84.2001 45.5 84.5001 45.4 84.8001L45.0999 87.9001C45.0999 88.3001 45.2999 88.6001 45.7 88.6001C46.1 88.6001 46.4 88.4001 46.4 88.0001L46.7 84.9001C46.7 84.5001 46.5 84.2001 46.0999 84.2001H46ZM54 84.2001H53.9C53.5 84.2001 53.2999 84.5001 53.2999 84.9001L53.5999 88.0001C53.5999 88.4001 53.8999 88.6001 54.2999 88.6001C54.7 88.6001 54.9 88.3001 54.9 87.9001L54.5999 84.8001C54.5 84.4001 54.2999 84.2001 54 84.2001Z" fill="#F3F3F3"/>
<g opacity="0.409">
<path d="M79.8 22L45 42.2L23 76.8L55.2 53L79.8 22Z" fill="black"/>
</g>
<path d="M55 52.7001L45 42.2001L80.4 18.4001L55 52.7001Z" fill="#858585"/>
<path d="M54.9999 52.7002L44.9999 42.2002L19.5999 76.5002L54.9999 52.7002Z" fill="#F1F1F1"/>
<path opacity="0.243" d="M19.5999 76.5001L54.9999 52.7001L80.3999 18.4001L19.5999 76.5001Z" fill="black"/>
</g>
<defs>
<linearGradient id="paint0_linear_755_22788" x1="50.0001" y1="94.7729" x2="50.0001" y2="0.0859995" gradientUnits="userSpaceOnUse">
<stop stop-color="#BDBDBD"/>
<stop offset="1" stop-color="white"/>
</linearGradient>
<radialGradient id="paint1_radial_755_22788" cx="0" cy="0" r="1" gradientUnits="userSpaceOnUse" gradientTransform="translate(50.1963 41.0654) scale(47.3433 47.3433)">
<stop stop-color="#8E8E8E"/>
<stop offset="0.25" stop-color="#8A8A8A"/>
<stop offset="0.5" stop-color="#878787"/>
<stop offset="0.75" stop-color="#747474"/>
<stop offset="1" stop-color="#676767"/>
</radialGradient>
</defs>
</svg>
