<svg width="100" height="100" viewBox="0 0 100 100" fill="none" xmlns="http://www.w3.org/2000/svg">
<path fill-rule="evenodd" clip-rule="evenodd" d="M18.1001 37.2C19.0001 38.4 26.3001 40.7 37.3001 43C48.3001 45.1 59.7001 53.4 68.6001 50.8C74.6001 49.1 81.1001 33.6 81.1001 31.3V31.1C81.1001 29.5 79.9001 28.2 77.9001 27.1C69.5001 22.8 67.9001 21.2 64.8001 22.1C48.7001 26.6 20.2001 24.4 18.1001 37.2Z" fill="#191919"/>
<path fill-rule="evenodd" clip-rule="evenodd" d="M18.1001 68.6C19.0001 69.8 26.3001 72.1 37.3001 74.4C49.6001 76.6 60.2001 83.9 69.1001 81.4C75.1001 79.7 81.1001 65.1 81.1001 62.8V62.6C81.1001 61 79.9001 59.7 77.9001 58.6C71.5001 55.2 63.1001 51.5 60.0001 52.3C43.8001 56.8 22.2001 57.7 18.1001 68.6Z" fill="#191919"/>
<path fill-rule="evenodd" clip-rule="evenodd" d="M69.1001 6.1C54.3001 10.4 30.7001 12.8 18.1001 12.8V37C18.1001 37.1 18.1001 37.2 18.2001 37.2C26.9001 37.2 53.6001 34.4 69.7001 29.9C72.5001 29.2 75.3001 28.3 77.9001 27.2C79.9001 26.3 81.1001 25.4 81.1001 24.4V0C81.1001 2.3 75.1001 4.3 69.1001 6.1Z" fill="#656565"/>
<path fill-rule="evenodd" clip-rule="evenodd" d="M69.1 37.4999C60.2 39.9999 48.2 41.8999 37.3 42.9999C30 43.7999 23.1 44.1999 18 44.1999V68.3999C18 68.4999 18 68.5999 18.1 68.5999C26.8 68.5999 53.5 65.7999 69.6 61.2999C72.4 60.5999 75.2 59.6999 77.8 58.5999C79.8 57.6999 81 56.7999 81 55.7999V31.3999C81.1 33.6999 75.1 35.6999 69.1 37.4999Z" fill="#656565"/>
<path fill-rule="evenodd" clip-rule="evenodd" d="M69.1 68.9001C60.2 71.5001 48.2 73.4 37.3 74.5C30 75.2 23.1 75.6 18 75.6V100C26.6 100 53.4 97.2 69.6 92.7C75.6 91.1 81.1 89.2 81.1 87.2V62.8C81.1 65.1 75.1 67.1001 69.1 68.9001Z" fill="#656565"/>
</svg>
