<svg width="100" height="100" viewBox="0 0 100 100" fill="none" xmlns="http://www.w3.org/2000/svg">
<g clip-path="url(#clip0_755_22813)">
<path d="M0 0H100V100H0V0Z" fill="#939393"/>
<path d="M65.8001 34.0001C60.5001 30.9001 55.8001 28.5001 49.7001 28.6001C46.2001 28.7001 43.2001 30.6001 42.5 34.1001C41.9 37.3001 44.8 39.1001 47.8 40.3001C52.8 42.1001 57.1 44.1001 62 46.1001C71 49.8001 75.5 55.8001 75 63.5001C74.3 73.3001 68.4 80.3001 59 82.6001C46.8 85.6001 34.9 81.0001 24.8 74.6001C27.3 70.7001 30.3 68.1001 32.8 64.3001C38.6 66.8001 43.2001 70.1001 49.2001 70.6001C53.5 71.0001 58.3 70.8001 59.3 65.7001C60.2001 61.2001 56.2001 58.7001 52.4001 57.4001C47.8001 55.8001 43.2001 53.8001 38.7001 52.0001C30.4001 48.6001 27.0001 42.0001 27.6 34.1001C27.6 29.5001 31.4001 20.2001 40.7001 17.4001C55 13.0001 62.9001 17.5001 73.3001 24.2001C70.7001 27.8001 68.5001 30.4001 65.8001 34.0001Z" fill="white"/>
</g>
<defs>
<clipPath id="clip0_755_22813">
<rect width="100" height="100" fill="white"/>
</clipPath>
</defs>
</svg>
