<svg width="100" height="100" viewBox="0 0 100 100" fill="none" xmlns="http://www.w3.org/2000/svg">
<path fill-rule="evenodd" clip-rule="evenodd" d="M0.5 36.6L20.8 9C21 8.7 21.3 8.5 21.6 8.3C21.9 8.1 22.2 8 22.6 8L49.7 5C49.9 5 50.1 5 50.3 5L77.4 8C77.7 8 78.1 8.1 78.4 8.3C78.7 8.5 79 8.8 79.2 9L99.5 36.6C99.8 37.1 100 37.6 100 38.2C100 38.8 99.8 39.3 99.4 39.8L51.4 95.2C51.2 95.4 51 95.6 50.8 95.7C50.6 95.8 50.3 95.9 50 95.9C49.7 95.9 49.5 95.8 49.2 95.7C49 95.6 48.7 95.4 48.6 95.2L0.6 39.8C0.2 39.4 0 38.8 0 38.2C0 37.7 0.2 37.1 0.5 36.6ZM57 13.2L76.2 31.3C76.4 31.5 76.6 31.6 76.9 31.6C77.2 31.6 77.4 31.6 77.6 31.5C77.8 31.4 78 31.2 78.2 31C78.3 30.8 78.4 30.5 78.4 30.3L77.5 17.5C77.5 17.3 77.5 17.2 77.6 17.1C77.7 17 77.8 16.9 78 16.9C78.2 16.9 78.3 16.9 78.4 17C78.5 17.1 78.6 17.2 78.7 17.4L82.9 32.1C83 32.6 83.3 33 83.7 33.4C84.1 33.8 84.5 34.1 85 34.2L94 37.2C94.1 37.2 94.3 37.3 94.3 37.5C94.4 37.6 94.4 37.8 94.4 37.9C94.4 38 94.3 38.2 94.2 38.3C94.1 38.4 93.9 38.5 93.8 38.5H85C84.5 38.5 83.9 38.6 83.5 38.9C83 39.2 82.6 39.5 82.4 40L58.8 76.7C58.7 76.9 58.5 77 58.2 77.1C58 77.2 57.7 77.1 57.5 77C57.3 76.9 57.1 76.7 57.1 76.5C57 76.3 57 76 57.1 75.8L74 41C74.1 40.7 74.2 40.4 74.2 40.1C74.2 39.8 74.1 39.5 73.9 39.2C73.7 38.9 73.5 38.7 73.2 38.5C72.9 38.3 72.6 38.3 72.3 38.3H27.7C27.4 38.3 27.1 38.4 26.8 38.5C26.5 38.7 26.3 38.9 26.1 39.2C25.9 39.5 25.8 39.8 25.8 40.1C25.8 40.4 25.8 40.7 26 41L42.8 75.7C42.9 75.9 42.9 76.2 42.9 76.4C42.8 76.6 42.7 76.8 42.5 76.9C42.3 77 42 77.1 41.8 77C41.6 76.9 41.4 76.8 41.2 76.6L17.7 39.7C17.4 39.2 17 38.9 16.6 38.6C16.1 38.3 15.6 38.2 15.1 38.2H6.1C5.9 38.2 5.8 38.1 5.7 38C5.6 37.9 5.5 37.8 5.5 37.6C5.5 37.5 5.5 37.3 5.6 37.2C5.7 37.1 5.8 37 5.9 36.9L15.1 33.9C15.6 33.7 16 33.5 16.4 33.1C16.8 32.7 17 32.3 17.2 31.8L21.4 17.1C21.4 16.9 21.5 16.8 21.7 16.7C21.8 16.6 22 16.6 22.1 16.6C22.3 16.6 22.4 16.7 22.5 16.8C22.6 16.9 22.6 17.1 22.6 17.2L21.7 30C21.7 30.3 21.7 30.5 21.9 30.7C22 30.9 22.2 31.1 22.5 31.2C22.7 31.3 23 31.3 23.2 31.3C23.5 31.3 23.7 31.1 23.9 31L43 13.2C43.1 13.1 43.3 13 43.4 13C43.6 13 43.7 13.1 43.8 13.2C43.9 13.3 44 13.5 44 13.6C44 13.8 44 13.9 43.8 14L31.1 29.9C30.9 30.1 30.9 30.3 30.8 30.5C30.8 30.7 30.8 31 30.9 31.2C31 31.4 31.2 31.6 31.4 31.7C31.6 31.8 31.8 31.9 32.1 31.9H68C68.2 31.9 68.5 31.8 68.7 31.7C68.9 31.6 69.1 31.4 69.2 31.2C69.3 31 69.3 30.7 69.3 30.5C69.3 30.3 69.2 30 69 29.9L56.1 14C56 13.9 55.9 13.7 55.9 13.6C55.9 13.4 56 13.3 56.1 13.2C56.2 13.1 56.4 13 56.5 13C56.7 13 56.9 13.1 57 13.2Z" fill="black"/>
</svg>
