<svg width="100" height="100" viewBox="0 0 100 100" fill="none" xmlns="http://www.w3.org/2000/svg">
<path d="M100 22.7001C100 22.7001 66.7 -1.7999 40.9 3.8001L39 4.5001C35.2 5.8001 32.1 7.6001 30.2 10.2001L28.9 12.0001L19.5 28.4001L35.9 31.5001C42.8 35.9001 51.6 37.8001 59.8 35.9001L88.7 41.6001L100 22.7001Z" fill="#A6A6A6"/>
<path opacity="0.3" d="M100 22.7001C100 22.7001 66.7 -1.7999 40.9 3.8001L39 4.5001C35.2 5.8001 32.1 7.6001 30.2 10.2001L28.9 12.0001L19.5 28.4001L35.9 31.5001C42.8 35.9001 51.6 37.8001 59.8 35.9001L88.7 41.6001L100 22.7001Z" fill="url(#paint0_linear_755_22850)"/>
<path d="M30.2 22.7001L27.7 23.3001C17 26.4001 13.9 36.5001 19.5 45.3001C25.8 53.5001 39 57.9001 49.7 54.7001L88.7 41.5001C88.7 41.6001 55.3 17.1001 30.2 22.7001Z" fill="#808080"/>
<path opacity="0.3" d="M30.2 22.7001L27.7 23.3001C17 26.4001 13.9 36.5001 19.5 45.3001C25.8 53.5001 39 57.9001 49.7 54.7001L88.7 41.5001C88.7 41.6001 55.3 17.1001 30.2 22.7001Z" fill="url(#paint1_linear_755_22850)"/>
<path d="M81.8 50.9999C78.3 46.5999 73.5 43.3999 68.1 41.6999C62.7 39.9999 57 39.9999 51.6 41.5999L12.6 54.1999L0 76.1999L70.4 88.0999L83 65.4999C85.5 61.0999 84.9 55.9999 81.8 50.9999Z" fill="url(#paint2_linear_755_22850)"/>
<path d="M69.2 72.9999C65.7 68.5999 60.9 65.3999 55.5 63.6999C50.2 61.9999 44.4 61.9999 39 63.5999L0 76.1999C0 76.1999 33.3 101.4 59.1 95.0999L61 94.4999C71.7 91.2999 75.5 81.1999 69.2 72.9999Z" fill="url(#paint3_linear_755_22850)"/>
<defs>
<linearGradient id="paint0_linear_755_22850" x1="14.7201" y1="2.7129" x2="93.022" y2="40.7631" gradientUnits="userSpaceOnUse">
<stop offset="0.1" stop-color="#A6A6A6"/>
<stop offset="0.3" stop-color="#EDEDED"/>
<stop offset="1" stop-color="#A6A6A6"/>
</linearGradient>
<linearGradient id="paint1_linear_755_22850" x1="57.7697" y1="21.2165" x2="44.059" y2="66.8769" gradientUnits="userSpaceOnUse">
<stop stop-color="#A6A6A6"/>
<stop offset="0.5" stop-color="#6F6F6F"/>
<stop offset="1" stop-color="#393939"/>
</linearGradient>
<linearGradient id="paint2_linear_755_22850" x1="9.0004" y1="41.163" x2="88.1828" y2="94.9995" gradientUnits="userSpaceOnUse">
<stop stop-color="#565656"/>
<stop offset="0.5" stop-color="#808080"/>
<stop offset="1" stop-color="#565656"/>
</linearGradient>
<linearGradient id="paint3_linear_755_22850" x1="44.8447" y1="47.576" x2="12.895" y2="164.746" gradientUnits="userSpaceOnUse">
<stop stop-color="#6F6F6F"/>
<stop offset="0.5" stop-color="#323232"/>
<stop offset="1" stop-color="#323232"/>
</linearGradient>
</defs>
</svg>
