<svg width="100" height="100" viewBox="0 0 100 100" fill="none" xmlns="http://www.w3.org/2000/svg">
<g clip-path="url(#clip0_755_22857)">
<path d="M91.1 5.7C89.7 9.2 87.8 12.3 85.7 15.1C76.6 5.9 64 0 50 0C22.5 0 0 22.3 0 49.9C0 64.3 6.2 77.3 16 86.5L17.9 88.2C26.5 95.5 37.8 99.9 50 99.9C76.3 99.9 97.9 79.4 99.7 53.6C101.2 41 97.4 24.9 91.1 5.7ZM23.2 86.9C21.8 88.8 19.1 89 17.2 87.5C15.3 86.1 15.1 83.4 16.6 81.5C18 79.6 20.7 79.4 22.6 80.9C24.3 82.4 24.6 85.1 23.2 86.9ZM90.8 72C78.5 88.4 52.1 82.8 35.3 83.6C35.3 83.6 32.3 83.8 29.3 84.2C29.3 84.2 30.4 83.7 31.9 83.2C43.7 79.1 49.3 78.2 56.5 74.6C70 67.7 83.5 52.6 86.2 36.9C81 51.9 65.4 64.9 51.2 70.2C41.4 73.8 23.8 77.3 23.8 77.3L23.1 76.9C11.2 70.9 10.8 45 32.6 36.6C42.2 32.9 51.3 34.9 61.7 32.5C72.7 29.9 85.5 21.7 90.6 10.9C96.3 28.3 103.3 55.3 90.8 72Z" fill="#909090"/>
<path d="M23.2 86.9001C21.8 88.8001 19.1 89.0001 17.2 87.5001C15.3 86.1001 15.1 83.4001 16.6 81.5001C18 79.6001 20.7 79.4001 22.6 80.9001C24.3 82.4001 24.6 85.1001 23.2 86.9001Z" fill="#909090"/>
</g>
<defs>
<clipPath id="clip0_755_22857">
<rect width="100" height="100" fill="white"/>
</clipPath>
</defs>
</svg>
