<svg width="100" height="100" viewBox="0 0 100 100" fill="none" xmlns="http://www.w3.org/2000/svg">
<path fill-rule="evenodd" clip-rule="evenodd" d="M20.1 12.1001H80.7V72.7001H20.1V12.1001Z" fill="white"/>
<path d="M57.3 46.0999H37.7V55.2999H56.8C57.9 55.2999 59 54.7999 59.8 54.0999C60.6 53.3999 61 52.3 61 50.9C61 49.7 60.7 48.4999 60 47.5999C59.3 46.6999 58.5 46.0999 57.3 46.0999ZM58 34.9C58.8 34.3 59.2 33.1 59.2 31.6C59.2 30.2 58.8 29.2 58.2 28.6C57.5 28 56.7 27.7 55.8 27.7H37.8V36H55.4C56.3 36 57.2 35.5 58 34.9Z" fill="#808080"/>
<path d="M89.1 0H12.4C10 0 8 1.9 8 4.3V80.9C8 83.2 10 84.7 12.3 84.7H23.6V100L37.7 84.8H89.1C91.4 84.8 92.9 83.3 92.9 80.9V4.4C93 2 91.5 0.1 89.1 0ZM76.2 62.1C75.2 63.9 73.7 65.3 72 66.4C70.1 67.6 68.1 68.6 65.7 69.1C63.4 69.7 60.8 70.2 58.2 70.2H23.6V15.6H62.9C64.9 15.6 66.5 16 68.1 16.9C69.6 17.7 70.9 18.8 72 20C74.2 22.7 75.4 26 75.3 29.5C75.3 32 74.6 34.5 73.3 36.8C72.1 39.1 70 41 67.5 42C70.6 42.9 73.1 44.4 74.9 46.7C76.7 49 77.5 52.1 77.5 55.9C77.6 58.3 77.1 60.3 76.2 62.1Z" fill="#808080"/>
</svg>
