<svg width="100" height="100" viewBox="0 0 100 100" fill="none" xmlns="http://www.w3.org/2000/svg">
<g clip-path="url(#clip0_755_22864)">
<path d="M13.1 92.1L10 9.6C10 8.3 10.4 7 11.3 6C12.2 5 13.4 4.4 14.7 4.4L84.9 0C85.6 0 86.3 0.1 86.9 0.3C87.5 0.5 88.1 0.9 88.6 1.4C89.1 1.9 89.5 2.4 89.8 3.1C90.1 3.7 90.2 4.4 90.2 5.1V95C90.2 95.7 90.1 96.4 89.8 97C89.5 97.6 89.1 98.2 88.7 98.7C88.2 99.2 87.6 99.5 87 99.8C86.4 100 85.7 100.1 85 100.1L17.9 97.1C16.6 97 15.4 96.5 14.6 95.6C13.7 94.6 13.2 93.4 13.1 92.1Z" fill="#858585"/>
<path fill-rule="evenodd" clip-rule="evenodd" d="M79.4 0.399902L69.7 0.999902L69.2 12.2999C69.2 12.3999 69.2 12.5999 69.3 12.6999C69.4 12.7999 69.5 12.8999 69.6 12.9999C69.7 13.0999 69.9 13.0999 70 13.0999C70.1 13.0999 70.3 12.9999 70.4 12.9999L74.8 9.6999L78.5 12.5999C78.6 12.6999 78.7 12.6999 78.9 12.7999C79 12.7999 79.2 12.7999 79.3 12.6999C79.4 12.5999 79.5 12.4999 79.6 12.3999C79.7 12.2999 79.7 12.0999 79.7 11.9999L79.4 0.399902ZM71.9 38.2999C70.1 39.6999 57 40.5999 57 38.6999C57.3 31.1999 53.9 30.8999 52.1 30.8999C50.3 30.8999 47.4 31.3999 47.4 35.3999C47.4 39.4999 51.7 41.7999 56.8 44.4999C64 48.2999 72.8 52.9999 72.8 64.6999C72.7 75.7999 63.6 81.9999 52 81.9999C40 81.9999 29.6 77.1999 30.7 60.3999C31.2 58.3999 46.4 58.8999 46.4 60.3999C46.2 67.2999 47.8 69.3999 51.8 69.3999C54.9 69.3999 56.3 67.6999 56.3 64.8999C56.3 60.5999 51.8 58.0999 46.6 55.0999C39.6 51.0999 31.3 46.4999 31.3 35.7999C31.3 25.0999 38.6 17.9999 51.7 17.9999C64.8 17.9999 71.9 24.9999 71.9 38.2999Z" fill="white"/>
</g>
<defs>
<clipPath id="clip0_755_22864">
<rect width="100" height="100" fill="white"/>
</clipPath>
</defs>
</svg>
