<svg width="100" height="100" viewBox="0 0 100 100" fill="none" xmlns="http://www.w3.org/2000/svg">
<g clip-path="url(#clip0_755_22867)">
<path d="M2.9 0C1.3 0 0 1.3 0 2.9V26.9C0 28.4 0 29.1 0.3 29.5C0.6 29.8 0.9 30.1 1.4 30.1C1.9 30.1 2.5 29.7 3.8 29C17.2 20.7 33 15.9 50 15.9C67 15.9 82.8 20.7 96.2 29C97.5 29.8 98.1 30.2 98.6 30.1C99 30.1 99.4 29.9 99.7 29.5C100 29.1 100 28.4 100 26.9V2.9C100 1.3 98.7 0 97.1 0L2.9 0Z" fill="#888888"/>
<path d="M10.6 100C11.4 100 11.8 100 12.2 99.8C12.5 99.7 12.7 99.4 12.8 99.2C13 98.9 13 98.5 13 97.7V44C13 42.7 13 42 12.7 41.6C12.4 41.3 12 41 11.6 41C11.1 41 10.6 41.3 9.49998 42C6.39998 44 3.49998 46.2 0.799976 48.7C0.499976 48.9 0.399976 49.1 0.299976 49.2C0.199976 49.3 0.0999756 49.5 0.0999756 49.7C0.0999756 49.9 0.0999756 50.1 0.0999756 50.5V97.1C0.0999756 98.7 1.39998 100 2.99998 100H10.6Z" fill="#888888"/>
<path d="M32.4 100C33.2 100 33.6 100 33.9 99.8C34.2 99.7 34.4 99.4 34.5 99.2C34.7 98.9 34.7 98.5 34.7 97.6V34.5C34.7 33.5 34.7 33 34.5 32.7C34.3 32.4 34 32.2 33.7 32.1C33.3 32 32.7999 32.1 31.9 32.3C28.9 33 26.1 34 23.2 35.1C22.7 35.3 22.4 35.4 22.2 35.6C22 35.8 21.8999 36 21.7999 36.2C21.6999 36.5 21.7 36.7 21.7 37.3V97.8C21.7 98.6 21.7 99 21.9 99.4C22 99.7 22.3 99.9 22.5 100C22.8 100.2 23.2 100.2 24 100.2H32.4V100Z" fill="#888888"/>
<path d="M54.1 100C54.9 100 55.3 100 55.7 99.8C56 99.7 56.2 99.4 56.3 99.2C56.5 98.9 56.5 98.5 56.5 97.7V32.4C56.5 31.6 56.5 31.3 56.4 31C56.3 30.7 56.1 30.5 55.8 30.4C55.5 30.2 55.1 30.2 54.4 30.2C52.9 30 51.4 30 50 30C48.6 30 47.1 30 45.7 30.1C45 30.1 44.6 30.2 44.3 30.3C44 30.4 43.8 30.7 43.7 30.9C43.6 31.2 43.6 31.6 43.6 32.3V97.5C43.6 98.3 43.6 98.7 43.8 99C43.9 99.3 44.2 99.5 44.4 99.6C44.7 99.8 45.1 99.8 45.9 99.8H54.1V100Z" fill="#888888"/>
<path d="M75.9 100C76.7 100 77.1 100 77.5 99.8C77.8 99.7 78 99.4 78.1 99.2C78.3 98.9 78.3 98.5 78.3 97.6V37.1C78.3 36.5 78.3 36.2 78.2 36C78.1 35.8 78 35.6 77.8 35.4C77.6 35.2 77.3 35.1 76.8 34.9C74 33.8 71.1 32.9 68.1 32.1C67.2 31.9 66.7 31.7 66.3 31.9C66 32 65.7 32.2 65.5 32.5C65.3 32.9 65.3 33.3 65.3 34.3V97.5C65.3 98.3 65.3 98.7 65.5 99.1C65.6 99.4 65.9 99.6 66.1 99.7C66.4 99.9 66.8 99.9 67.7 99.9H75.9V100Z" fill="#888888"/>
<path d="M100 50.4C100 50 100 49.8 100 49.6C100 49.4 99.9 49.3 99.8 49.1C99.7 48.9 99.6 48.8 99.3 48.6C96.6 46.2 93.7 43.9 90.6 41.9C89.5 41.2 89 40.8 88.5 40.9C88.1 40.9 87.7 41.1 87.4 41.5C87.1 41.9 87.1 42.6 87.1 43.9V97.6C87.1 98.4 87.1 98.8 87.3 99.1C87.4 99.4 87.7 99.6 87.9 99.7C88.2 99.9 88.6 99.9 89.4 99.9H97C98.6 99.9 99.9 98.6 99.9 97V50.4H100Z" fill="#888888"/>
</g>
<defs>
<clipPath id="clip0_755_22867">
<rect width="100" height="100" fill="white"/>
</clipPath>
</defs>
</svg>
