<svg width="100" height="100" viewBox="0 0 100 100" fill="none" xmlns="http://www.w3.org/2000/svg">
<g clip-path="url(#clip0_755_22874)">
<path fill-rule="evenodd" clip-rule="evenodd" d="M65.2 41.6L97.1 39.5C99.2 39.5 100.8 41.6 99.6 43.2L77.2 73.9C76.6 74.2 76 74.8 75.1 74.8H24.7C24.3 74.8 24 74.6 23.6 74.4C23.3 74.2 23 73.9 22.8 73.6L0.500027 43.2C-0.699973 41.7 0.500027 39.2 2.60003 39.5L34.5 41.6L48 26.9C48.9 25.7 51.1 25.7 51.7 26.9L65.2 41.3V41.6ZM72 69.9L51.1 62.2V69.9H72ZM48.6 69.9V62.2L27.7 69.9H49H48.6ZM46.2 60.7L25 68.3L9.70003 46.9L46.5 60.4L46.2 60.7ZM53.6 60.7L75 68.3L90.3 46.8L53.6 60.4V60.7ZM48.6 58.8V33.4L31.4 52.4L48.6 58.5V58.8ZM51.1 58.8V33.4L68.6 52.4L51.1 58.5V58.8ZM26.3 50.5L30.3 46.2L10.6 45L26.3 50.5ZM73.5 50.5L69.5 46.2L88.8 45L73.5 50.5Z" fill="#5C5C5C"/>
</g>
<defs>
<clipPath id="clip0_755_22874">
<rect width="100" height="100" fill="white"/>
</clipPath>
</defs>
</svg>
