<svg width="100" height="100" viewBox="0 0 100 100" fill="none" xmlns="http://www.w3.org/2000/svg">
<path fill-rule="evenodd" clip-rule="evenodd" d="M50.7 97.8C61.6 58.4 61.3 58.3 69.2 30.2L71.1 31.3C72.1 31.9 73 31.4 73 30.2V16.8C75.1 9.4 76.7 3.7 77.2 2H85.8L100 15.3L90.7 23.4L97.8 31.1L51.1 97.8C50.9 98.2 50.6 98.1 50.7 97.8Z" fill="black"/>
<path fill-rule="evenodd" clip-rule="evenodd" d="M55.8 13.0001C56.2 13.0001 56.6 13.2001 56.6 13.5001V20.4001C56.6 20.7001 56.3 20.9001 55.9 20.9001H44.3C43.9 20.9001 43.5 20.7001 43.5 20.4001V13.5001C43.5 13.2001 43.9 13.0001 44.3 13.0001H55.8ZM70 5.40007L57.3 12.8001C57.4 13.0001 57.5 13.3001 57.5 13.6001V20.5001C57.5 20.9001 57.4 21.2001 57.1 21.4001L69.9 28.8001C70.7 29.3001 71.5 28.9001 71.5 27.9001V6.30007C71.5 5.30007 70.8 4.90007 70 5.40007ZM42.5 20.4001V13.5001C42.5 13.2001 42.6 13.0001 42.7 12.7001L30.1 5.40007C29.2 4.90007 28.5 5.30007 28.5 6.30007V27.8001C28.5 28.8001 29.2 29.2001 30.1 28.7001L42.9 21.3001C42.6 21.0001 42.5 20.7001 42.5 20.4001Z" fill="black"/>
<path fill-rule="evenodd" clip-rule="evenodd" d="M48.8 97.8H49.3C38.4 58.4 38.7 58.3 30.8 30.2L28.9 31.3C27.9 31.9 27 31.4 27 30.2V16.8C24.9 9.4 23.3 3.7 22.8 2H14.3L0 15.3L9.3 23.4L2.2 31.1L48.8 97.8Z" fill="black"/>
<path d="M49.7 35.2C51.6 35.2 53.2 33.6 53.2 31.7C53.2 29.8 51.7 28.2 49.7 28.2C47.8 28.2 46.2 29.8 46.2 31.7C46.2 33.6 47.7 35.2 49.7 35.2Z" fill="black"/>
<path d="M49.7 55.8999C51.6 55.8999 53.2 54.2999 53.2 52.3999C53.2 50.4999 51.7 48.8999 49.7 48.8999C47.8 48.8999 46.2 50.4999 46.2 52.3999C46.2 54.2999 47.7 55.8999 49.7 55.8999Z" fill="black"/>
<path d="M49.7 76.5C51.6 76.5 53.2 74.9 53.2 73C53.2 71.1 51.7 69.5 49.7 69.5C47.8 69.5 46.2 71.1 46.2 73C46.2 75 47.7 76.5 49.7 76.5Z" fill="black"/>
</svg>
