<svg width="100" height="100" viewBox="0 0 100 100" fill="none" xmlns="http://www.w3.org/2000/svg">
<g clip-path="url(#clip0_755_22883)">
<path d="M96.1 100H3.9C1.7 100 0 98.2 0 96.1V3.9C0 1.7 1.7 0 3.9 0H96.2C98.3 0 100.1 1.7 100.1 3.9V96.2C100 98.3 98.3 100 96.1 100Z" fill="#4D4D4D"/>
<path d="M23.1 30.1999L75.4 13.5999C75.4 13.5999 79.1 11.6999 78.2 15.2999L78.3 31.2999C78.3 31.2999 78.9 33.6999 75.7 34.1999L54.4 40.7999L23.1 30.1999Z" fill="#A8A8A8"/>
<path d="M23.1 30.2C23.1 30.2 21 30.7 21.6 34.2L21.5 49.5999C21.5 49.5999 21.3 51.5 25 52.2999L76.9 69C76.9 69 78.6 69.7 78.4 67.5V50.2999C78.4 50.2999 78.9 48.5 75.7 47.4L54.5 40.7999L23.1 30.2Z" fill="#A8A8A8"/>
<path d="M45.9 59.1001L23.8 65.8001C23.8 65.8001 21.1 65.9001 21.4 70.9001C21.7 75.9001 21.4 85.9001 21.4 85.9001C21.4 85.9001 21.6 87.8001 24.2 86.7001L76.6 70.0001C76.6 70.0001 78.5 69.5001 76.9 69.0001C75.3 68.5001 45.9 59.1001 45.9 59.1001Z" fill="url(#paint0_linear_755_22883)"/>
</g>
<defs>
<linearGradient id="paint0_linear_755_22883" x1="24.5227" y1="76.7696" x2="77.4554" y2="58.4553" gradientUnits="userSpaceOnUse">
<stop offset="0.233" stop-color="#A8A8A8"/>
<stop offset="1" stop-color="#848484"/>
</linearGradient>
<clipPath id="clip0_755_22883">
<rect width="100" height="100" fill="white"/>
</clipPath>
</defs>
</svg>
