<svg width="100" height="100" viewBox="0 0 100 100" fill="none" xmlns="http://www.w3.org/2000/svg">
<g clip-path="url(#clip0_755_22899)">
<path d="M22.2001 0H77.6C80.3 0 82.9 0.4 85.4 1.3C89.1 2.6 92.4 5 94.9 8C97.4 11 99.1 14.8 99.7 18.7C99.9 20.1 100 21.6 100 23V77C100 78.7 99.9 80.5 99.6 82.2C98.8 86.1 97 89.7 94.3 92.6C91.7001 95.5 88.2 97.7 84.5 98.9C82.2 99.6 79.9 99.9 77.5 99.9C76.4 99.9 22 99.9 21.2001 99.9C17.2001 99.7 13.3 98.4 10 96.2C6.80005 94 4.10005 91 2.40005 87.4C0.900049 84.4 0.200049 81 0.200049 77.7V22.2C0.100049 18.9 0.800049 15.6 2.30005 12.6C4.00005 9.1 6.60005 6 9.80005 3.8C13.1 1.6 17 0.3 21 0.1C21.4 0 21.8001 0 22.2001 0Z" fill="url(#paint0_linear_755_22899)"/>
<path d="M84.3 81.8C83.9 81.3 83.6 80.7 83.1 80.2C82.1 79 81 78 79.7 77.2C78.1 76.1 76.3 75.5 74.4 75.4C73.1 75.3 71.7 75.6 70.5 76C69.3 76.4 68 77.1 66.9 77.7C65.5 78.4 64.2 79.1 62.7 79.7C61 80.4 59.2 80.9 57.4 81.3C55.1 81.7 52.8 81.9 50.4 81.8C46.2 81.7 42 81.1 38.1 79.9C34.6 78.8 31.2 77.4 28.1 75.6C25.3 74 22.8 72.2 20.3 70.1C18.3 68.4 16.5 66.5 14.8 64.6C13.6 63.2 12.5 61.8 11.4 60.3C11 59.7 10.6 59.1 10.2 58.5L0 47.3V22.1C0 9.9 9.9 0 22.1 0H41.8L56.4 14.8C89.4 37.3 78.7 62 78.7 62C78.7 62 88.1 72.5 84.3 81.8Z" fill="url(#paint1_linear_755_22899)"/>
<path d="M56.4999 14.8C89.4999 37.3 78.7999 62 78.7999 62C78.7999 62 88.1999 72.6 84.3999 81.8C84.3999 81.8 80.4999 75.3001 74.0999 75.3001C67.8999 75.3001 64.1999 81.8 51.5999 81.8C23.5999 81.8 10.3999 58.4001 10.3999 58.4001C35.5999 75.0001 52.7999 63.2001 52.7999 63.2001C41.3999 56.6001 17.2999 25 17.2999 25C38.2999 42.9 47.3999 47.7001 47.3999 47.7001C41.9999 43.2001 26.6999 21.3 26.6999 21.3C38.8999 33.6 63.0999 50.9001 63.0999 50.9001C69.9999 31.8001 56.4999 14.8 56.4999 14.8Z" fill="white"/>
</g>
<defs>
<linearGradient id="paint0_linear_755_22899" x1="59.5032" y1="-3.5656" x2="40.6076" y2="103.553" gradientUnits="userSpaceOnUse">
<stop stop-color="#B9B9B9"/>
<stop offset="1" stop-color="#727272"/>
</linearGradient>
<linearGradient id="paint1_linear_755_22899" x1="51.0121" y1="1.622" x2="37.1743" y2="80.0691" gradientUnits="userSpaceOnUse">
<stop stop-color="#A8A8A8"/>
<stop offset="1" stop-color="#656565"/>
</linearGradient>
<clipPath id="clip0_755_22899">
<rect width="100" height="100" fill="white"/>
</clipPath>
</defs>
</svg>
