<svg width="101" height="100" viewBox="0 0 101 100" fill="none" xmlns="http://www.w3.org/2000/svg">
<mask id="mask0_755_22913" style="mask-type:luminance" maskUnits="userSpaceOnUse" x="0" y="32" width="101" height="36">
<path d="M100.7 32.5H0.699951V67.6H100.7V32.5Z" fill="white"/>
</mask>
<g mask="url(#mask0_755_22913)">
<path fill-rule="evenodd" clip-rule="evenodd" d="M8.40005 53H12.4L14.8 38.5H10.8L8.40005 53ZM13.2 36.7C14.4 36.7 15.5 35.8 15.6 34.7C15.7 33.6 14.9 32.7 13.7 32.7C12.5 32.7 11.5 33.6 11.3 34.7C11.2 35.8 12.1 36.7 13.2 36.7ZM10 38.5H7.20005L7.80005 35H3.80005L3.30005 38.5H1.30005L0.800049 41.5999H2.70005L1.50005 49.0999C1.00005 51.8999 2.60005 53.3 5.60005 53.2C6.60005 53.2 7.40005 53 7.80005 52.7999L7.70005 49.7999H7.60005L6.70005 49.9C5.90005 49.9 5.40005 49.6 5.60005 48.5L6.70005 41.5999H9.50005L10 38.5ZM22.6 41.7C21 41.7 19.6 42.8 19.3 44.7L17.9 53H13.9L16.3 38.5H20.1L19.7001 41H20C20.9 39.4 22.7 38.2 24.8 38.2C27.8 38.2 29.5 40.3 28.9 43.7L27.3 53H23.3L24.7001 44.5C25 42.7 24.2001 41.7 22.6 41.7ZM35.8 54.5C35.3 55.6 34.6 56.5 33.8 57.2H73.4L76.5 38.5H80.5L79.9 41H80.1C80.8 39.8 82.2 38.2999 84.7 38.2999C87.9 38.2999 90.1001 40.8 89.3 45.7C88.5 50.6 85.5 53.0999 82.2 53.0999C79.9 53.0999 78.9 51.7999 78.5 50.5999H78.4L77.3 57.0999H94L89.6 52.7L92.1 50.2L100.6 58.7L100.5 58.9L100.6 59L92.1 67.5L89.6 65L93.8 60.7999H0.900049V57.2H27.7001L28.7001 55C30 55.5 30.9 55.3999 31.8 54.0999L32.2001 53.5L29.4 38.5999H33.5L34.7001 49.2999H34.8L39.6 38.5999H44.1L35.8 54.5ZM50.6 41.7C49 41.7 47.6 42.8 47.3 44.7L46.1 53H42L45.3 33.7H49.2001L48 41H48.2001C49.1001 39.3 50.7001 38.2 53 38.2C56 38.2 57.6 40.2 57.1 43.7L55.4001 53H51.3L52.7001 44.5C53.1001 42.7 52.3 41.7 50.6 41.7ZM66.8 38.5H64.3001L64.8 35H60.8L60.2001 38.5H58.3L57.8 41.5999H59.8L58.5 49.0999C58 51.8999 59.7001 53.3 62.7001 53.2C63.7001 53.2 64.5 53 64.9 52.7999L64.8 49.7999H64.7L63.8 49.9C63 49.9 62.5 49.6 62.6 48.5L63.8 41.5999H68.4L67.2 49.0999C66.7 51.8999 68.3 53.3 71.3 53.2C72.3 53.2 73.1 53 73.5 52.7999L73.4 49.7999H73.3L72.4 49.9C71.6 49.9 71.1001 49.6 71.3 48.5L72.4 41.5999H75L75.5 38.5H72.7L73.3 35H69.2L68.7 38.5H66.8ZM79.1 45.7999C79.5 43.2999 80.9 41.5999 82.9 41.5999C84.9 41.5999 85.7 43.2999 85.2 45.7999C84.7 48.2999 83.4 50.0999 81.4 50.0999C79.5 49.9999 78.7 48.2999 79.1 45.7999Z" fill="url(#paint0_linear_755_22913)"/>
</g>
<defs>
<linearGradient id="paint0_linear_755_22913" x1="50.6952" y1="32.6008" x2="50.6952" y2="67.4631" gradientUnits="userSpaceOnUse">
<stop stop-color="#7D7D7D"/>
<stop offset="1" stop-color="#939393"/>
</linearGradient>
</defs>
</svg>
