<svg width="100" height="100" viewBox="0 0 100 100" fill="none" xmlns="http://www.w3.org/2000/svg">
<g clip-path="url(#clip0_755_22920)">
<path d="M70.7 0H29.3C13.1 0 0 13.1 0 29.3V70.7C0 86.9 13.1 100 29.3 100H70.7C86.9 100 100 86.9 100 70.7V29.3C100 13.1 86.9 0 70.7 0Z" fill="#7A7A7A"/>
<path fill-rule="evenodd" clip-rule="evenodd" d="M49.9 14.6001L63.7999 22.6001V27.0001L80.6 36.7001V53.3001L85.1 55.9001V71.9001L71.1999 79.9001L65 76.3001L50 84.9001L35.0999 76.3001L29.1 80.0001L15.2 72.0001V56.0001L19.5 53.5001V36.8001L36 27.3001V22.7001L49.9 14.6001ZM63.7999 31.2001V38.6001L49.9 46.6001L36 38.6001V31.4001L23.2 38.8001V51.3001L29.1 47.9001L43 56.0001V72.0001L38.7999 74.4001L50.0999 80.9001L61.5 74.3001L57.2999 72.0001V56.0001L71.1999 48.0001L77 51.3001V38.8001L63.7999 31.2001ZM60.9 69.9001V60.1001L69.4 65.0001V74.8001L60.9 69.9001ZM81.5 60.1001L73 65.0001V74.8001L81.5 69.9001V60.1001ZM18.9 69.9001V60.1001L27.4 65.0001V74.8001L18.9 69.9001ZM39.4 60.1001L30.9 65.0001V74.8001L39.4 69.9001V60.1001ZM62.7 57.0001L71.1999 52.1001L79.7 57.0001L71.1999 61.9001L62.7 57.0001ZM29.1 52.1001L20.7 57.0001L29.2 61.9001L37.7 57.0001L29.1 52.1001ZM39.5999 36.6001V26.8001L48.0999 31.7001V41.5001L39.5999 36.6001ZM60.2 26.8001L51.7 31.7001V41.5001L60.2 36.6001V26.8001ZM41.4 23.7001L49.9 18.8001L58.4 23.7001L49.9 28.6001L41.4 23.7001Z" fill="white"/>
</g>
<defs>
<clipPath id="clip0_755_22920">
<rect width="100" height="100" fill="white"/>
</clipPath>
</defs>
</svg>
