<svg width="100" height="100" viewBox="0 0 100 100" fill="none" xmlns="http://www.w3.org/2000/svg">
<path d="M11.7 59.7001C17.1 59.7001 21.4 55.3 21.4 50C21.4 44.7 17 40.3 11.7 40.3C6.4 40.3 2 44.6 2 50C2 55.4 6.4 59.7001 11.7 59.7001Z" fill="#888888"/>
<path d="M81.5 100C86.9 100 91.2 95.6001 91.2 90.3001C91.2 85.0001 86.8 80.6001 81.5 80.6001C76.1 80.6001 71.8 85.0001 71.8 90.3001C71.8 95.6001 76.1 100 81.5 100Z" fill="#BABABA"/>
<path d="M81.5 19.5001C86.9 19.5001 91.2 15.1001 91.2 9.8001C91.2 4.4001 86.8 0.100098 81.5 0.100098C76.1 0.100098 71.8 4.5001 71.8 9.8001C71.7 15.1001 76.1 19.5001 81.5 19.5001Z" fill="#3F3F3F"/>
<path d="M58.1999 25.8999C70.2999 25.8999 80.3999 34.8999 81.9999 46.5999H98.6999C97.8999 37.3999 94.0999 28.8999 87.7999 22.1999C83.6999 24.2999 78.6999 24.2999 74.4999 21.8999C70.1999 19.3999 67.7999 15.0999 67.4999 10.4999C64.3999 9.7999 61.2999 9.3999 58.1999 9.3999C52.0999 9.3999 46.1999 10.6999 40.8999 13.1999L49.1999 27.6999C52.0999 26.4999 55.1999 25.8999 58.1999 25.8999Z" fill="#888888"/>
<path d="M34.2001 50.0001C34.2001 42.3001 37.8001 35.5001 43.4001 31.1001L35 16.6001C33 18.0001 31.2 19.5001 29.5 21.2001C24.7 26.0001 21.2 31.9001 19.3 38.2001C23.1 40.7001 25.7001 45.0001 25.7001 49.9001C25.7001 54.8001 23.2 59.1001 19.3 61.6001C21.2 68.0001 24.7 73.8001 29.5 78.6001C31.2 80.3001 33.1 81.9001 35 83.2001L43.3 68.7001C37.8 64.5001 34.2001 57.7001 34.2001 50.0001Z" fill="#BABABA"/>
<path d="M82.1 53.3999C80.4 65.0999 70.4 74.0999 58.3 74.0999C55.1 74.0999 52.1 73.4999 49.3 72.3999L41 86.8999C46.3 89.3999 52.2 90.6999 58.3 90.6999C61.5 90.6999 64.6 90.2999 67.6 89.5999C67.8 84.9999 70.3 80.6999 74.6 78.1999C78.9 75.6999 83.9 75.7999 87.9 77.8999C94.2 71.1999 98 62.5999 98.8 53.4999H82.1V53.3999Z" fill="#3F3F3F"/>
</svg>
