<svg width="100" height="100" viewBox="0 0 100 100" fill="none" xmlns="http://www.w3.org/2000/svg">
<g clip-path="url(#clip0_755_22933)">
<path d="M99.9 0H0V99.9H99.9V0Z" fill="black"/>
<path d="M99.9 0H0V99.9H99.9V0Z" fill="white"/>
<path d="M99.7 100C66.5 100 33.3 100 0.100006 100C0.100006 66.7001 0.100006 33.4001 0.100006 0.100098C33.4 0.100098 66.7 0.100098 100 0.100098C100 33.4001 100 66.7001 100 100C99.9 100 99.8 100 99.7 100ZM82.5 65.4001C82.3 65.2001 82.2 65.0001 82 64.9001C80.1 63.0001 77.8 62.6001 75.2 62.8001C73 63.0001 71.1 64.0001 69.5 65.4001C69.4 65.5001 69.3 65.5001 69.2 65.7001C69.2 65.5001 69.2 65.3001 69.2 65.2001C69.2 64.5001 68.8 63.9001 68.2 63.6001C67.6 63.3001 66.9 63.3001 66.3 63.7001C65.6 64.1001 65.4 64.8001 65.4 65.5001C65.4 71.2001 65.4 77.0001 65.4 82.7001C65.4 83.1001 65.4 83.4001 65.4 83.8001C65.4 84.7001 65.9 85.4001 66.7 85.7001C68 86.1001 69.2 85.2001 69.2 83.8001C69.2 79.9001 69.2 75.9001 69.2 72.0001C69.2 70.9001 69.5 69.9001 70.2 69.0001C71.8 67.0001 74 66.1001 76.6 66.4001C77.9 66.5001 78.9 67.1001 79.6 68.2001C80.3 69.2001 80.5 70.4001 80.5 71.5001C80.5 74.7001 80.5 78.0001 80.5 81.2001C80.5 82.1001 80.5 83.0001 80.5 83.9001C80.5 85.3001 82 86.1001 83.2 85.5001C84 85.1001 84.3 84.4001 84.3 83.5001C84.3 79.8001 84.3 76.1001 84.3 72.5001C84.3 71.6001 84.3 70.7001 84.2 69.9001C84 68.3001 83.5 66.7001 82.5 65.4001ZM58.6 63.3001C58.4 63.3001 58.1 63.3001 57.9 63.4001C57 63.6001 56.5 64.4001 56.5 65.4001C56.5 69.1001 56.5 72.9001 56.5 76.6001C56.5 77.2001 56.5 77.8001 56.4 78.5001C56.1 80.1001 55.3 81.3001 53.7 81.9001C52.2 82.5001 50.6 82.5001 49.1 82.1001C47.9 81.8001 47 81.1001 46.4 80.0001C46 79.2001 45.8 78.4001 45.8 77.5001C45.8 75.7001 45.8 74.0001 45.8 72.2001C45.8 69.9001 45.8 67.6001 45.8 65.3001C45.8 64.2001 45.1 63.3001 44.1 63.2001C42.9 63.1001 42 64.0001 42 65.2001C42 69.1001 42 72.9001 42 76.8001C42 78.2001 42.2 79.5001 42.7 80.8001C43.7 83.3001 45.6 84.7001 48 85.5001C49.6 86.0001 51.2 86.0001 52.8 85.8001C54 85.7001 55.2 85.3001 56.3 84.7001C58.9 83.2001 60.2 80.9001 60.3 78.0001C60.4 73.7001 60.4 69.5001 60.4 65.2001C60.3 64.2001 59.6 63.5001 58.6 63.3001Z" fill="#D2D2D2"/>
<path d="M82.5 65.3999C83.5 66.6999 84 68.2999 84.1 69.8999C84.2 70.7999 84.2 71.5999 84.2 72.4999C84.2 76.1999 84.2 79.8999 84.2 83.4999C84.2 84.2999 83.9 84.9999 83.1 85.4999C81.9 86.1999 80.4 85.2999 80.4 83.8999C80.4 82.9999 80.4 82.0999 80.4 81.1999C80.4 77.9999 80.4 74.6999 80.4 71.4999C80.4 70.2999 80.2 69.1999 79.5 68.1999C78.8 67.0999 77.8 66.4999 76.5 66.3999C73.9 66.0999 71.8 66.9999 70.1 68.9999C69.4 69.8999 69.1 70.8999 69.1 71.9999C69.1 75.8999 69.1 79.8999 69.1 83.7999C69.1 85.1999 67.9 86.0999 66.6 85.6999C65.9 85.4999 65.4 84.6999 65.3 83.7999C65.3 83.3999 65.3 83.0999 65.3 82.6999C65.3 76.9999 65.3 71.1999 65.3 65.4999C65.3 64.6999 65.5 64.0999 66.2 63.6999C66.8 63.2999 67.4 63.2999 68.1 63.5999C68.7 63.8999 69.1 64.4999 69.1 65.1999C69.1 65.2999 69.1 65.4999 69.1 65.6999C69.2 65.5999 69.3 65.4999 69.4 65.3999C71 63.8999 72.9 62.9999 75.1 62.7999C77.6 62.5999 80 62.9999 81.9 64.8999C82.2 64.9999 82.3 65.1999 82.5 65.3999Z" fill="#181818"/>
<path d="M58.6 63.2999C59.6 63.4999 60.3 64.1999 60.3 65.2999C60.3 69.5999 60.3 73.7999 60.2 78.0999C60.1 80.9999 58.8 83.2999 56.2 84.7999C55.1 85.3999 53.9 85.7999 52.7 85.8999C51.1 86.0999 49.5 86.0999 47.9 85.5999C45.4 84.8999 43.6 83.3999 42.6 80.8999C42.1 79.5999 41.9 78.1999 41.9 76.8999C41.9 72.9999 41.9 69.1999 41.9 65.2999C41.9 63.9999 42.8 63.1999 44 63.2999C45 63.3999 45.7 64.1999 45.7 65.3999C45.7 67.6999 45.7 69.9999 45.7 72.2999C45.7 74.0999 45.7 75.7999 45.7 77.5999C45.7 78.4999 45.9 79.2999 46.3 80.0999C46.9 81.1999 47.8 81.8999 49 82.1999C50.6 82.5999 52.1 82.5999 53.6 81.9999C55.1 81.3999 56 80.1999 56.3 78.5999C56.4 77.9999 56.4 77.3999 56.4 76.6999C56.4 72.9999 56.4 69.1999 56.4 65.4999C56.4 64.4999 56.9 63.6999 57.8 63.4999C58.1 63.2999 58.3 63.2999 58.6 63.2999Z" fill="#181818"/>
</g>
<defs>
<clipPath id="clip0_755_22933">
<rect width="100" height="100" fill="white"/>
</clipPath>
</defs>
</svg>
