<svg width="100" height="100" viewBox="0 0 100 100" fill="none" xmlns="http://www.w3.org/2000/svg">
<path d="M7.1 48.1001C7 48.8001 7 50.4001 7 51.2001C7 75.6001 26.2 95.4001 49.8 95.4001C73.4 95.4001 92.6 75.6001 92.6 51.2001C92.6 50.5001 92.6 49.8001 92.5 49.1001L7.1 48.1001Z" fill="url(#paint0_linear_755_22939)"/>
<path d="M53.8 89.9999C75.2 89.9999 92.6 72.5999 92.6 51.1999C92.6 29.7999 75.2 12.3999 53.8 12.3999C32.4 12.3999 15 29.6999 15 51.1999C15 72.5999 32.4 89.9999 53.8 89.9999Z" fill="#646464"/>
<path d="M76.5 12.6C69.3 7.4 60 4 50.7 4C26.6 4 7 24.2 7 49H15C15.7 31 30.6 16.3 48.9 16.3C56.5 16.3 63.6 18.8 69.3 23.1C72.2 25 76 24.3 78 21.4C80 18.5 79.3 14.6 76.5 12.6Z" fill="url(#paint1_linear_755_22939)"/>
<path opacity="0.5" d="M92.1 57.4001L74.2 39.5L62.7 38.5H52.2L51.1 52.1L36.3 37.3L32.7 42.5L34 64.9001L58.8 89.7C75.9 87.4 89.4 74.2001 92.1 57.4001Z" fill="url(#paint2_linear_755_22939)"/>
<path d="M50.2 35.8V55.6C50.2 59.2 47.3 62.2001 43.6 62.2001C39.9 62.2001 37 59.3001 37 55.7001V39.2001C37 37.4001 35.5 35.9001 33.7 35.9001C31.9 35.9001 30.4 37.4001 30.4 39.2001V55.7001C30.4 63 36.3 68.9001 43.6 68.9001C50.9 68.9001 56.7 63 56.7 55.7001V42.5H66.6C68.4 42.5 69.9 44 69.9 45.8C69.9 47.6 68.4 49.1 66.6 49.1H63.5C61.7 49.1 60.2 50.6001 60.2 52.4001C60.2 54.2001 61.6 55.7001 63.4 55.7001L70.4 67.3001C71 68.3001 72 68.9001 73.3 68.9001C75.1 68.9001 76.6 67.4 76.6 65.6C76.6 64.9 76.3 64.2 75.9 63.6L70.6 54.8C74.1 53.3 76.5 49.8001 76.5 45.7001C76.5 40.2001 72 35.8 66.6 35.8H50.2Z" fill="white"/>
<path d="M72.8 21.1C74.7 21.1 76.3 19.5 76.3 17.6C76.3 15.7 74.8 14 72.8 14C70.9 14 69.3 15.6 69.3 17.5C69.3 19.4 70.9 21.1 72.8 21.1Z" fill="white"/>
<path d="M70.9 20.5C70.9 20.5 58.8 9.8 43.4 11.8C37.6 12.7 32.9 14.5 28.4 17.2C23.9 19.9 30.4 15.3 32.4 14.3C34.4 13.2 43.6 7.5 58.8 9.8C74.1 12.1 75.7 15.5 75.7 15.5L70.9 20.5Z" fill="white"/>
<defs>
<linearGradient id="paint0_linear_755_22939" x1="7" y1="71.7048" x2="92.5859" y2="71.7048" gradientUnits="userSpaceOnUse">
<stop stop-color="#757575"/>
<stop offset="1" stop-color="#A5A5A5"/>
</linearGradient>
<linearGradient id="paint1_linear_755_22939" x1="7.0195" y1="26.5192" x2="79.1723" y2="26.5192" gradientUnits="userSpaceOnUse">
<stop stop-color="#757575"/>
<stop offset="1" stop-color="#A5A5A5"/>
</linearGradient>
<linearGradient id="paint2_linear_755_22939" x1="42.3555" y1="40.3805" x2="81.2793" y2="79.3043" gradientUnits="userSpaceOnUse">
<stop/>
<stop offset="1" stop-opacity="0"/>
</linearGradient>
</defs>
</svg>
