<svg width="103" height="104" viewBox="0 0 103 104" fill="none" xmlns="http://www.w3.org/2000/svg">
<g clip-path="url(#clip0_755_22947)">
<path d="M52.3 6.19995L6.5 52.0999L52.1 97.8L97.9 51.9L52.3 6.19995Z" fill="#606060" stroke="black" stroke-width="0.2673"/>
<path d="M52.1 6.3999V2.3999L2.3 52.1999H6.5L52.1 6.3999Z" fill="#C5C5C5" stroke="black" stroke-width="0.2673"/>
<path d="M52 6.3999V2.3999L101.8 52.2999H97.6L52 6.3999Z" fill="#ABABAB" stroke="black" stroke-width="0.2673"/>
<path d="M52.1 98.0001V102L2.3 52.1001H6.5L52.1 98.0001Z" fill="#4D4D4D" stroke="black" stroke-width="0.2673"/>
<path d="M11.6 7.3999H43.7L45.7 9.3999V15.3999L44.1 17.2999H40.6V47.1999L70.8 17.2999H65.8L64 15.3999V9.0999L65.6 7.5999H98.1L99.7 9.1999V15.0999L26.3 90.6999H17.9L15.5 89.2999V16.9999H11.4L9.89999 15.4999V9.1999L11.6 7.3999Z" stroke="black" stroke-width="5.3467"/>
<path d="M52 98.0001V102L101.8 52.1001H97.6L52 98.0001Z" fill="#373737" stroke="black" stroke-width="0.2673"/>
<path d="M52 2L2 52.1L51.8 102L101.8 51.9L52 2Z" stroke="black" stroke-width="1.604"/>
<path d="M44 10.5L45.8 9.49995L44 7.69995H11.6L9.89999 9.29995V15.5L11.7 17.3L12.6 15.5L11.5 14.4V9.99995L12.4 9.19995H43.3L44 10.5Z" fill="#FEFEFE" stroke="black" stroke-width="0.2673"/>
<path d="M66.9 9.1001L65.8 10.2001V14.4001L66.8 15.4001H72.1V19.5001L37.1 55.0001V15.5001H42.9L44.1 14.3001V10.0001L43 9.2001H12.3L11.3 10.2001V14.5001L12.3 15.5001H17.6V88.3001L18.6 89.3001H24.7L98.1 13.5001V10.2001L97 9.1001H66.9Z" stroke="black" stroke-width="0.2673"/>
<path d="M17.6 15.3999V88.3999L18.5 89.4999L17.8 90.8999L15.7 88.7999V17.2999L17.6 15.3999Z" fill="#FEFEFE" stroke="black" stroke-width="0.2673"/>
<path d="M12.4 15.3999L11.9 17.1999H15.8L18 15.3999H12.4Z" fill="#808080" stroke="black" stroke-width="0.2673"/>
<path d="M66.2 17.3999L67.1 15.5999L65.9 14.4999V10.5999L67.3 9.1999H97.2L98.3 10.6999L99.9 9.5999L98.2 7.8999H66.1L64.5 9.4999V15.7999L66.2 17.3999ZM40.2 47.3999L37.1 54.9999L72.3 19.5999V15.3999L40.2 47.3999Z" fill="#FEFEFE"/>
<path d="M66.2 17.3999L67.1 15.5999L65.9 14.4999V10.5999L67.3 9.1999H97.2L98.3 10.6999L99.9 9.5999L98.2 7.8999H66.1L64.5 9.4999V15.7999L66.2 17.3999ZM40.2 47.3999L37.1 54.9999L72.3 19.5999V15.3999L40.2 47.3999Z" stroke="black" stroke-width="0.2673"/>
<path d="M43.9 10.3L45.5 9.30005V15.4L43.7 17.2H40.2V47.5L37.1 55V15.4H42.9L44 14.5V10.3H43.9Z" fill="#808080" stroke="black" stroke-width="0.2673"/>
<path d="M66.9 9.1001L65.8 10.2001V14.4001L66.8 15.4001H72.1V19.5001L37.1 55.0001V15.5001H42.9L44.1 14.3001V10.0001L43 9.2001H12.3L11.3 10.2001V14.5001L12.3 15.5001H17.6V88.3001L18.6 89.3001H24.7L98.1 13.5001V10.2001L97 9.1001H66.9Z" fill="#CCCCCC" stroke="black" stroke-width="0.2673"/>
<path d="M98.2 10.2999L99.8 9.3999V15.2999L25.9 90.8999H18.1L18.8 89.3999H24.8L98.1 13.5999L98.2 10.2999Z" fill="#808080" stroke="black" stroke-width="0.2673"/>
<path d="M72.1 15.5L70.4 17.2H66.1L67.1 15.5C67.2 15.5 72.1 15.5 72.1 15.5Z" fill="#808080" stroke="black" stroke-width="0.2673"/>
<path d="M54.5 58.1001C54.4 58.1001 54.4 58.1001 54.3 58.2001L52.9 59.4001L52.8 59.5001L51.4 63.5001C51.4 63.6001 51.4 63.6001 51.4 63.7001C51.4 63.8001 51.4 63.8001 51.5 63.9001L52.6 65.0001C52.7 65.1001 52.7 65.1001 52.8 65.1001H57.2C57.3 65.1001 57.4 65.1001 57.4 65.0001L58.5 63.8001L58.6 63.7001L59.8 59.5001C59.8 59.4001 59.8 59.4001 59.8 59.3001C59.8 59.2001 59.8 59.2001 59.7 59.1001L58.8 58.2001C58.7 58.1001 58.7 58.1001 58.6 58.1001H54.5ZM46.5 69.4001C46.4 69.4001 46.4 69.4001 46.3 69.5001C46.3 69.5001 46.2 69.6001 46.2 69.7001L45.7 71.9001V72.0001C45.7 72.0001 45.7 72.1001 45.8 72.1001L45.9 72.2001H46H48.6L42.2 90.5001C42.2 90.5001 42.2 90.6001 42.2 90.7001C42.2 90.8001 42.2 90.8001 42.3 90.8001L42.4 90.9001H42.5H51.8C51.9 90.9001 51.9 90.9001 52 90.8001C52.1 90.8001 52.1 90.7001 52.1 90.6001L52.7 88.6001C52.7 88.6001 52.7 88.5001 52.7 88.4001C52.7 88.3001 52.7 88.3001 52.6 88.3001L52.5 88.2001H52.4H50.3L56.6 69.7001C56.6 69.7001 56.6 69.6001 56.6 69.5001C56.6 69.4001 56.6 69.4001 56.5 69.4001L56.4 69.3001H56.3H46.5C46.5 69.4001 46.5 69.4001 46.5 69.4001ZM76.1 69.4001C76 69.4001 76 69.5001 75.9 69.5001L74 71.7001H70.9L68.8 69.6001L68.7 69.5001H68.6H61.2C61.1 69.5001 61.1 69.5001 61 69.6001C60.9 69.6001 60.9 69.7001 60.9 69.8001L60.2 71.8001C60.2 71.8001 60.2 71.9001 60.2 72.0001C60.2 72.1001 60.2 72.1001 60.3 72.1001L60.4 72.2001H60.5H62.5L56.4 90.3001C56.4 90.3001 56.4 90.4001 56.4 90.5001C56.4 90.6001 56.4 90.6001 56.5 90.6001L56.6 90.7001H56.7H64.5C64.6 90.7001 64.6 90.7001 64.7 90.6001C64.8 90.6001 64.8 90.5001 64.8 90.4001L65.4 88.6001C65.4 88.6001 65.4 88.5001 65.4 88.4001C65.4 88.3001 65.4 88.3001 65.3 88.3001L65.2 88.2001H65.1H63.7L67.7 76.0001H74.8L70.3 90.3001C70.3 90.3001 70.3 90.4001 70.3 90.5001C70.3 90.6001 70.3 90.6001 70.4 90.6001L70.5 90.7001H70.6H78.2C78.3 90.7001 78.3 90.7001 78.4 90.6001C78.5 90.6001 78.5 90.5001 78.5 90.5001L79.2 88.9001C79.2 88.9001 79.2 88.8001 79.2 88.7001C79.2 88.6001 79.2 88.6001 79.1 88.6001L79 88.5001C79 88.5001 78.9 88.5001 78.8 88.5001H77.4L81.4 76.0001H88.1L83.6 90.4001C83.6 90.4001 83.6 90.5001 83.6 90.6001C83.6 90.7001 83.6 90.7001 83.7 90.7001L83.8 90.8001H83.9H92.2C92.3 90.8001 92.3 90.8001 92.4 90.7001C92.5 90.7001 92.5 90.6001 92.5 90.5001L93.2 88.7001C93.2 88.7001 93.2 88.6001 93.2 88.5001C93.2 88.4001 93.2 88.4001 93.1 88.4001L93 88.3001C93 88.3001 92.9 88.3001 92.8 88.3001H91.2L96.2 72.0001C96.2 71.9001 96.2 71.9001 96.2 71.8001C96.2 71.7001 96.2 71.7001 96.1 71.7001L94.5 69.6001L94.4 69.5001H94.3H88.4H88.3C88.3 69.5001 88.2 69.5001 88.2 69.6001L86.3 71.7001H83L81.1 69.6001L81 69.5001H80.9H76.1C76.1 69.4001 76.1 69.4001 76.1 69.4001Z" fill="#CCCCCC" stroke="black" stroke-width="2.1387" stroke-miterlimit="10"/>
<path d="M54.6 58.5L53.2 59.7L51.8 63.7L52.9 64.8H57.3L58.4 63.6L59.6 59.4L58.7 58.5H54.6ZM46.5 69.7L46 71.9H49L42.5 90.6H51.8L52.4 88.6H49.8L56.3 69.7H46.5ZM76.1 69.8L74.1 72.1H70.7L68.5 69.9H61.1L60.4 71.9H63L56.7 90.4H64.5L65.1 88.6H63.3L67.4 75.6H75.2L70.6 90.3H78.2L78.9 88.7H77L81.2 75.5H88.6L84 90.4H92.3L93 88.6H90.9L96 71.9L94.4 69.8H88.5L86.5 72H83L81 69.8H76.1Z" fill="#CCCCCC" stroke="black" stroke-width="0.2673" stroke-miterlimit="10"/>
</g>
<defs>
<clipPath id="clip0_755_22947">
<rect width="103" height="104" fill="white"/>
</clipPath>
</defs>
</svg>
