<svg width="102" height="102" viewBox="0 0 102 102" fill="none" xmlns="http://www.w3.org/2000/svg">
<g clip-path="url(#clip0_755_22967)">
<path d="M51.4 100C79 100 101.4 77.6 101.4 50C101.4 22.4 79 0 51.4 0C23.8 0 1.39999 22.4 1.39999 50C1.39999 77.6 23.8 100 51.4 100Z" fill="#3D3D3D"/>
<path opacity="0.1" d="M16.7 14.1001C11.6 18.6001 7.50001 24.1001 4.60001 30.3001C1.70001 36.5001 0.200011 43.1001 1.12969e-05 50.0001C-0.199989 56.8001 1.00001 63.6001 3.50001 69.9001C6.00001 76.2001 9.80001 82.0001 14.6 86.8001C19.4 91.6001 25.2 95.4001 31.5 97.9001C37.8 100.4 44.6 101.6 51.4 101.4C58.2 101.2 64.9 99.6001 71.1 96.7001C77.3 93.8001 82.8 89.7001 87.3 84.6001L16.7 14.1001Z" fill="white"/>
<path d="M53.4 30.3001L38.9 69.7001H33.8L19.5 30.3001H24.6L35.5 61.5001C35.9 62.6001 36.1 63.8001 36.3 65.0001H36.4C36.6 63.8001 36.9 62.6001 37.3 61.4001L48.4 30.1001L53.4 30.3001Z" fill="white"/>
<path d="M59.1 69.6999V30.2999H70.3C73.2 30.0999 76.1 30.9999 78.4 32.7999C79.4 33.5999 80.1 34.5999 80.7 35.6999C81.2 36.7999 81.5 38.0999 81.4 39.2999C81.4 41.3999 80.8 43.3999 79.5 45.0999C78.3 46.7999 76.5 47.9999 74.5 48.5999V48.6999C76.9 48.8999 79.2 49.9999 80.9 51.6999C82.5 53.4999 83.4 55.8999 83.3 58.2999C83.4 59.7999 83.1 61.3999 82.4 62.7999C81.7 64.1999 80.8 65.4999 79.7 66.4999C77.1 68.5999 73.9 69.6999 70.6 69.5999H59.1V69.6999ZM63.8 34.4999V47.1999H68.5C70.6 47.2999 72.7 46.5999 74.4 45.2999C75.1 44.6999 75.7 43.8999 76.1 42.9999C76.5 42.0999 76.6 41.0999 76.6 40.1999C76.6 36.3999 74.1 34.4999 69.1 34.4999H63.8ZM63.8 51.2999V65.4999H70C72.2 65.5999 74.5 64.8999 76.2 63.5999C76.9 62.8999 77.5 62.0999 77.9 61.1999C78.3 60.2999 78.5 59.2999 78.4 58.2999C78.4 53.6999 75.2 51.2999 68.9 51.2999H63.8Z" fill="white"/>
</g>
<defs>
<clipPath id="clip0_755_22967">
<rect width="102" height="102" fill="white"/>
</clipPath>
</defs>
</svg>
