<svg width="100" height="100" viewBox="0 0 100 100" fill="none" xmlns="http://www.w3.org/2000/svg">
<g clip-path="url(#clip0_755_22975)">
<path d="M75 31.6999L51.1 66.1999C50.8 66.5999 50.5 66.7999 50.1 66.9999C49.7 67.1999 49.2 67.0999 48.8 66.9999C48.4 66.8999 48 66.5999 47.8 66.1999C47.5 65.7999 47.4 65.3999 47.4 64.8999L48.4 45.7999L33 42.4999C32.7 42.3999 32.4 42.2999 32.1 42.0999C31.8 41.8999 31.6 41.5999 31.5 41.2999C31.4 40.9999 31.3 40.5999 31.4 40.2999C31.4 39.9999 31.6 39.5999 31.7 39.3999L55.6 4.8999C55.9 4.4999 56.2 4.2999 56.6 4.0999C57 3.9999 57.5 3.9999 57.9 4.0999C58.3 4.1999 58.7 4.4999 58.9 4.8999C59.2 5.2999 59.3 5.6999 59.3 6.1999L58.3 25.2999L73.7 28.5999C74 28.6999 74.3 28.7999 74.6 28.9999C74.9 29.1999 75.1 29.4999 75.2 29.7999C75.3 30.0999 75.4 30.4999 75.3 30.7999C75.4 31.0999 75.2 31.3999 75 31.6999Z" fill="#C6C6C6"/>
<path d="M50 95.2C49.4 95.2 48.7 95.1001 48.1 94.8001C47.5 94.6001 47 94.2 46.5 93.7L24 71.2C23.1 70.3 22.6 69.1001 22.6 67.8001C22.6 66.5001 23.1 65.3001 24 64.4001C24.9 63.5001 26.1 63 27.4 63C28.7 63 29.9 63.5001 30.8 64.4001L50 83.5L91.8 41.7001C92.7 40.8001 93.9 40.3 95.2 40.3C96.5 40.3 97.7 40.8001 98.6 41.7001C99.5 42.6001 100 43.8 100 45.1C100 46.4 99.5 47.6 98.6 48.5L53.4 93.8001C53 94.3001 52.4 94.6001 51.8 94.9001C51.3 95.1001 50.6 95.2 50 95.2Z" fill="#818181"/>
<path d="M50 95.1999C50.6 95.1999 51.3 95.0999 51.9 94.7999C52.5 94.5999 53 94.1999 53.5 93.6999L76 71.1999C76.9 70.2999 77.4 69.0999 77.4 67.7999C77.4 66.4999 76.9 65.2999 76 64.3999C75.1 63.4999 73.9 62.9999 72.6 62.9999C71.3 62.9999 70.1 63.4999 69.2 64.3999L50 83.4999L8.2 41.7999C7.3 40.8999 6.1 40.3999 4.8 40.3999C3.5 40.3999 2.3 40.8999 1.4 41.7999C0.5 42.6999 0 43.8999 0 45.1999C0 46.4999 0.5 47.6999 1.4 48.5999L46.6 93.7999C47 94.2999 47.6 94.5999 48.2 94.8999C48.7 95.0999 49.4 95.1999 50 95.1999Z" fill="#818181" fill-opacity="0.5"/>
</g>
<defs>
<clipPath id="clip0_755_22975">
<rect width="100" height="100" fill="white"/>
</clipPath>
</defs>
</svg>
