<svg width="100" height="100" viewBox="0 0 100 100" fill="none" xmlns="http://www.w3.org/2000/svg">
<g clip-path="url(#clip0_755_22988)">
<path d="M61.4 0C61.4 0.2 61.4 0.4 61.4 0.5C61.4 3.5 60.2 6.5 58 8.6C55.9 10.8 53 12 50 12C47 12 44 10.8 41.9 8.6C39.7 6.4 38.5 3.5 38.5 0.5C38.5 0.3 38.5 0.1 38.5 0H0V100H100V0H61.4ZM47.7 89.3L42.8 65.2H42.7L37.4 89.3H30.7L23.1 53.9H29.7L34.4 78H34.5L40 53.9H46.2L51 78.3H51.1L56.3 53.9H62.8L54.4 89.3H47.7ZM84.2 89.3L81.9 81.4H70L68.3 89.3H61.7L70.3 53.9H80.8L91.2 89.3H84.2Z" fill="#676767"/>
<path d="M74.2 62.6001L71.3 75.6001H80.3L77 62.6001H74.2Z" fill="#676767"/>
</g>
<defs>
<clipPath id="clip0_755_22988">
<rect width="100" height="100" fill="white"/>
</clipPath>
</defs>
</svg>
