<svg width="100" height="100" viewBox="0 0 100 100" fill="none" xmlns="http://www.w3.org/2000/svg">
<g clip-path="url(#clip0_755_22995)">
<path d="M7.09998 50C7.09998 67 17 81.7 31.3 88.6L10.8 32.5C8.39998 38 7.09998 44 7.09998 50ZM79 47.8C79 42.5 77.1 38.8 75.5 36C73.3 32.5 71.3 29.5 71.3 25.9C71.3 22 74.3 18.3 78.5 18.3C78.7 18.3 78.9 18.3 79.1 18.3C71.5 11.3 61.3 7 50.1 7C35.1 7 21.9 14.7 14.3 26.3C15.3 26.3 16.3 26.4 17.1 26.4C21.6 26.4 28.5 25.9 28.5 25.9C30.8 25.8 31.1 29.2 28.8 29.4C28.8 29.4 26.5 29.7 23.9 29.8L39.5 76.3L48.9 48.1L42 29.9C39.7 29.8 37.5 29.5 37.5 29.5C35.2 29.4 35.5 25.8 37.8 26C37.8 26 44.9 26.5 49.1 26.5C53.6 26.5 60.5 26 60.5 26C62.8 25.9 63.1 29.3 60.8 29.5C60.8 29.5 58.5 29.8 55.9 29.9L71.4 76L75.7 61.7C77.5 55.8 79 51.5 79 47.8Z" fill="#555555"/>
<path d="M50.8 53.7999L37.9 91.0999C41.8 92.2999 45.9 92.7999 50 92.7999C55 92.7999 59.8 91.8999 64.2 90.3999C64.1 90.1999 64 89.9999 63.9 89.7999L50.8 53.7999ZM87.6 29.3999C87.8 30.7999 87.9 32.1999 87.9 33.7999C87.9 38.1999 87.1 42.9999 84.6 49.1999L71.6 87.0999C84.3 79.5999 92.9 65.7999 92.9 49.9999C92.9 42.7999 91.1 35.6999 87.6 29.3999Z" fill="#555555"/>
<path d="M50 0C22.4 0 0 22.4 0 50C0 77.6 22.4 100 50 100C77.6 100 100 77.6 100 50C100 22.4 77.6 0 50 0ZM50 97.7C23.7 97.7 2.3 76.3 2.3 50C2.3 23.7 23.7 2.3 50 2.3C76.3 2.3 97.7 23.7 97.7 50C97.7 76.3 76.3 97.7 50 97.7Z" fill="#555555"/>
</g>
<defs>
<clipPath id="clip0_755_22995">
<rect width="100" height="100" fill="white"/>
</clipPath>
</defs>
</svg>
