<svg width="100" height="100" viewBox="0 0 100 100" fill="none" xmlns="http://www.w3.org/2000/svg">
<path fill-rule="evenodd" clip-rule="evenodd" d="M28.9 5C26.2 5 23.6 6.5 22.2 8.9L1.00002 45.7C-0.299976 48.1 -0.299976 51.1 1.00002 53.5L22.1 90.3C23.5 92.6 26.1 94.2 28.8 94.2H71.1C73.8 94.2 76.4 92.7 77.8 90.3L99 53.5C100.3 51.1 100.3 48.1 99 45.7L77.9 8.9C76.5 6.6 73.9 5 71.2 5H28.9ZM29.2 26.5C29.3 26.5 29.3 26.5 29.4 26.5H36.7C37 26.5 37.3 26.7 37.5 27L49.9 49.1C50 49.2 50 49.3 50 49.5C50 49.4 50.1 49.3 50.1 49.1L62.5 27C62.7 26.7 63 26.5 63.3 26.5H70.6C71.2 26.5 71.7 27.3 71.4 27.9L59.3 49.6L71.4 71.2C71.7 71.8 71.2 72.6 70.6 72.6H63.3C63 72.6 62.6 72.4 62.5 72.1L50.1 50.1C50 50 50 49.9 50 49.7C50 49.8 49.9 49.9 49.9 50.1L37.5 72.2C37.3 72.5 37 72.7 36.7 72.7H29.4C28.7 72.7 28.2 71.9 28.6 71.3L40.7 49.7L28.6 27.9C28.3 27.4 28.7 26.7 29.2 26.5Z" fill="#818181"/>
</svg>
