<svg width="100" height="100" viewBox="0 0 100 100" fill="none" xmlns="http://www.w3.org/2000/svg">
<path d="M17.7 1H82.3C92.1 1 100 8.9 100 18.7V80.8C100 90.6 92.1 98.5 82.3 98.5H17.7C7.9 98.5 0 90.6 0 80.8V18.7C0 8.9 7.9 1 17.7 1Z" fill="#1C1C1C"/>
<path d="M52.6 26.6L40.1 47.3L53.4 69.2C53.5 69.4 53.5 69.5 53.5 69.7C53.5 69.9 53.3 69.7 53 69.8H43.5C42.8 69.8 42.4 69.8 42.1 69.3C41.2 67.5 40.3 65.8 39.4 64.1C38.5 62.4 37.6 60.6 36.6 58.9C35.6 57.1 34.6 55.3 33.6 53.5H33.5C32.6 55.3 31.7 57.1 30.7 58.9C29.7 60.7 28.8 62.5 27.9 64.2C26.9 66 26 67.7 25 69.4C24.8 69.8 24.5 69.9 24 69.9H14.8C14.6 69.9 14.5 70 14.5 69.8C14.5 69.6 14.5 69.5 14.6 69.3L27.6 48.1L15 26.6C14.9 26.4 14.8 26.3 14.9 26.2C15 26 15.2 26 15.3 26H24.8C25 26 25.2 26 25.4 26.1C25.6 26.2 25.7 26.3 25.8 26.5C26.6 28.3 27.5 30.1 28.5 31.9C29.5 33.7 30.5 35.4 31.5 37.2C32.5 39 33.4 40.7 34.3 42.5H34.4C35.3 40.7 36.2 38.9 37.1 37.1C38 35.3 39 33.6 39.9 31.9C40.9 30.1 41.8 28.4 42.7 26.7C42.7 26.5 42.8 26.4 42.9 26.3C43.1 26.2 43.2 26.2 43.4 26.2H52.2C52.4 26.2 52.6 26.3 52.7 26.5C52.8 26.4 52.7 26.5 52.6 26.6Z" fill="#A1A1A1"/>
<path d="M71.8 70.6C68.7 70.6 65.5999 70 62.7999 68.7C60.1999 67.5 58 65.5 56.5 63C55 60.5 54.2 57.3 54.2 53.5C54.2 50.4 55 47.4001 56.5 44.7001C58.1 42 60.3999 39.7001 63.0999 38.2001C65.9999 36.6 69.4999 35.8 73.5999 35.8C73.7999 35.8 74.1 35.8 74.5 35.8C74.9 35.8 75.3 35.8001 75.8 35.9001V22.8C75.8 22.5 75.8999 22.3 76.1999 22.3H84.6999C84.8999 22.3 85.0999 22.4 85.0999 22.6V22.7001V62.4001C85.0999 63.2001 85.0999 64 85.1999 64.9001C85.2999 65.8001 85.3 66.6001 85.4 67.3001C85.4 67.6001 85.2999 67.8 85 68C82.7999 68.9001 80.4999 69.6 78.1999 70C76.0999 70.4001 74 70.6 71.8 70.6ZM75.9 62.3V43.9001C75.5 43.8001 75.1 43.7001 74.8 43.7001C74.3 43.7001 73.9 43.6 73.4 43.6C71.8 43.6 70.1999 43.9001 68.6999 44.7001C67.2999 45.4001 66.0999 46.5 65.1999 47.8C64.2999 49.1 63.7999 50.9 63.7999 53.1C63.7999 54.6 64 56 64.5 57.4001C64.9 58.5 65.5 59.5 66.4 60.4001C67.2 61.2001 68.1999 61.7 69.1999 62.1C70.2999 62.5 71.4999 62.6 72.6999 62.6C73.2999 62.6 73.9 62.6 74.5 62.5C75 62.5 75.4 62.4 75.9 62.3Z" fill="#A1A1A1"/>
</svg>
