<svg width="100" height="100" viewBox="0 0 100 100" fill="none" xmlns="http://www.w3.org/2000/svg">
<g clip-path="url(#clip0_755_23005)">
<path d="M50 100C77.6 100 100 77.6 100 50C100 22.4 77.6 0 50 0C22.4 0 0 22.4 0 50C0 77.6 22.4 100 50 100Z" fill="#373737"/>
<path d="M50.4 70.6999C54.4 63.6999 54.7 54.9999 50.4 47.4999C46.1 40.0999 38.3 35.8999 30.3 35.8999C26.3 42.8999 26 51.5999 30.3 59.0999C34.6 66.4999 42.4 70.6999 50.4 70.6999Z" stroke="#C6C6C6" stroke-width="3.3784" stroke-miterlimit="10"/>
<path d="M49.6001 70.6999C57.6001 70.6999 65.3001 66.5999 69.7001 59.0999C74.0001 51.6999 73.7001 42.8999 69.7001 35.8999C61.7001 35.8999 54.0001 39.9999 49.6001 47.4999C45.3001 54.8999 45.6001 63.6999 49.6001 70.6999Z" stroke="#C6C6C6" stroke-width="3.3784" stroke-miterlimit="10"/>
<path d="M49.9999 69.9C56.8999 65.9 61.5999 58.4 61.5999 49.7999C61.5999 41.1999 56.8999 33.7 49.9999 29.7C43.0999 33.7 38.3999 41.1999 38.3999 49.7999C38.3999 58.4 43.0999 65.9 49.9999 69.9Z" stroke="#C6C6C6" stroke-width="3.3784" stroke-miterlimit="10"/>
</g>
<defs>
<clipPath id="clip0_755_23005">
<rect width="100" height="100" fill="white"/>
</clipPath>
</defs>
</svg>
