<svg width="1000" height="1000" viewBox="0 0 1000 1000" fill="none" xmlns="http://www.w3.org/2000/svg">
<path d="M768.54 828H758.54V838V943.104L591.865 829.732L589.319 828H586.24H225C175.294 828 135 787.706 135 738V238C135 188.294 175.294 148 225 148H875C924.706 148 965 188.294 965 238V738C965 787.706 924.706 828 875 828H768.54Z" stroke="#3A3A3A" stroke-width="20"/>
<path d="M25 138C25 82.7715 69.7715 38 125 38H775C830.228 38 875 82.7715 875 138V638C875 693.228 830.228 738 775 738H668.54V862L486.24 738H125C69.7715 738 25 693.228 25 638V138Z" fill="url(#paint0_linear_149_32)"/>
<defs>
<linearGradient id="paint0_linear_149_32" x1="937.22" y1="1611.84" x2="-533.182" y2="-513.139" gradientUnits="userSpaceOnUse">
<stop offset="0.39705" stop-color="#4F68EE"/>
<stop offset="0.62624" stop-color="#7385F2"/>
</linearGradient>
</defs>
</svg>
