<svg width="100" height="100" viewBox="0 0 100 100" fill="none" xmlns="http://www.w3.org/2000/svg">
<g clip-path="url(#clip0_8_9)">
<path d="M24.4189 63.0166V71.6494H28.4497C29.8885 71.6494 30.9147 71.9245 31.5283 72.4746C32.1631 73.0247 32.4805 73.924 32.4805 75.1724C32.4805 76.3996 32.1737 77.2777 31.5601 77.8066C30.9465 78.3356 29.9097 78.6001 28.4497 78.6001H14.9927C13.5327 78.6001 12.5065 78.3356 11.9141 77.8066C11.3216 77.2988 11.0254 76.4207 11.0254 75.1724C11.0254 73.924 11.3216 73.0247 11.9141 72.4746C12.5277 71.9245 13.5539 71.6494 14.9927 71.6494H16.8652V43.6245H16.3574C15.236 43.6245 14.3791 43.3283 13.7866 42.7358C13.1942 42.1434 12.8979 41.2759 12.8979 40.1333C12.8979 38.8849 13.1942 37.9963 13.7866 37.4673C14.3791 36.9383 15.4053 36.6738 16.8652 36.6738H21.7529C22.3665 36.6738 22.8215 36.7902 23.1177 37.0229C23.4139 37.2345 23.562 37.5519 23.562 37.9751V40.2603C24.6411 38.8215 25.9424 37.7424 27.4658 37.0229C29.0104 36.2824 30.7454 35.9121 32.6709 35.9121C37.0085 35.9121 40.6055 37.298 43.4619 40.0698C46.3184 42.8416 47.7466 46.3328 47.7466 50.5435C47.7466 54.9445 46.3607 58.5944 43.5889 61.4932C40.8171 64.3708 37.3258 65.8096 33.1152 65.8096C31.4014 65.8096 29.7933 65.5768 28.291 65.1113C26.8099 64.6247 25.5192 63.9264 24.4189 63.0166ZM31.7505 42.6724C29.6558 42.6724 27.9313 43.4447 26.5771 44.9893C25.223 46.5339 24.5459 48.5122 24.5459 50.9243C24.5459 53.3364 25.223 55.3148 26.5771 56.8594C27.9313 58.404 29.6558 59.1763 31.7505 59.1763C33.8452 59.1763 35.5697 58.404 36.9238 56.8594C38.2992 55.2936 38.9868 53.3153 38.9868 50.9243C38.9868 48.5122 38.3097 46.5339 36.9556 44.9893C35.6014 43.4447 33.8664 42.6724 31.7505 42.6724ZM79.0405 66C78.5962 66 78.2788 65.8942 78.0884 65.6826C77.9191 65.4499 77.8345 65.0161 77.8345 64.3813V61.7788C76.5649 63.3657 74.978 64.6035 73.0737 65.4922C71.1694 66.3597 69.1064 66.7935 66.8848 66.7935C62.8857 66.7935 59.5321 65.3758 56.8237 62.5405C54.1366 59.6841 52.793 56.14 52.793 51.9082C52.793 47.5283 54.2318 43.889 57.1094 40.9902C59.987 38.0703 63.5734 36.6104 67.8687 36.6104C70.048 36.6104 72.0052 37.0018 73.7402 37.7847C75.4753 38.5464 76.967 39.6784 78.2153 41.1807V29.0249H76.5332C74.6924 29.0249 73.4969 28.8662 72.9468 28.5488C72.4178 28.2103 72.1533 27.6073 72.1533 26.7397C72.1533 25.978 72.3649 25.4067 72.7881 25.0259C73.2324 24.645 73.8672 24.4546 74.6924 24.4546H81.1987C81.8335 24.4546 82.2884 24.5604 82.5635 24.772C82.8597 24.9836 83.0078 25.3115 83.0078 25.7559V61.5249H84.436C85.4728 61.5249 86.224 61.7048 86.6895 62.0645C87.1549 62.403 87.3877 62.9531 87.3877 63.7148C87.3877 64.4342 87.1867 64.995 86.7847 65.397C86.3826 65.799 85.8431 66 85.166 66H79.0405ZM58.252 51.7495C58.252 54.6694 59.1935 57.0604 61.0767 58.9224C62.9598 60.7843 65.3507 61.7153 68.2495 61.7153C71.1694 61.7153 73.571 60.7526 75.4541 58.8271C77.3372 56.8805 78.2788 54.4155 78.2788 51.4321C78.2788 48.491 77.3372 46.0684 75.4541 44.1641C73.5921 42.2598 71.1906 41.3076 68.2495 41.3076C65.2661 41.3076 62.854 42.2703 61.0132 44.1958C59.1724 46.1213 58.252 48.6392 58.252 51.7495Z" fill="#3C3C3C"/>
</g>
<defs>
<clipPath id="clip0_8_9">
<rect width="100" height="100" fill="white"/>
</clipPath>
</defs>
</svg>
