<svg width="1221" height="1653" viewBox="0 0 1221 1653" fill="none" xmlns="http://www.w3.org/2000/svg">
<rect x="334" y="347" width="202" height="1306" rx="20" fill="#3A3A3A"/>
<rect x="684" y="652" width="202" height="1001" rx="20" fill="#3A3A3A"/>
<rect x="684" y="347" width="202" height="202" rx="20" fill="url(#paint0_linear_144_707)"/>
<path d="M1220.06 42.3071H1016.72L1062.84 39C1103.69 36.0714 1143.37 24.0532 1178.98 3.82373C1197.31 -6.58816 1220.06 6.64995 1220.06 27.7292V42.3071Z" fill="url(#paint1_linear_144_707)"/>
<path d="M0 246.057H203.343L157.215 249.364C116.364 252.293 76.6842 264.311 41.0736 284.54C22.7453 294.952 0 281.714 0 260.635V246.057Z" fill="url(#paint2_linear_144_707)"/>
<path d="M0 246.057C0 133.754 91.0398 42.7137 203.343 42.7137V246.057H0Z" fill="url(#paint3_linear_144_707)"/>
<path d="M203.343 42.3071H406.686V245.65H203.343V42.3071Z" fill="url(#paint4_linear_144_707)"/>
<path d="M406.686 42.3071H610.029V245.65H406.686V42.3071Z" fill="url(#paint5_linear_144_707)"/>
<path d="M610.029 42.3071H813.372V245.65H610.029V42.3071Z" fill="url(#paint6_linear_144_707)"/>
<path d="M813.372 42.3071H1016.72V245.65H813.372V42.3071Z" fill="url(#paint7_linear_144_707)"/>
<path d="M1016.72 42.3071H1220.06C1220.06 154.61 1129.02 245.65 1016.72 245.65V42.3071Z" fill="url(#paint8_linear_144_707)"/>
<path d="M1220.25 42.1184H1016.87L1063.01 38.8108C1103.87 35.8817 1143.55 23.8617 1179.17 3.62898C1197.5 -6.78454 1220.25 6.45565 1220.25 27.5382V42.1184Z" fill="url(#paint9_linear_144_707)"/>
<path d="M1016.87 42.1184H1220.25C1180.78 105.37 1111.49 143.806 1036.94 143.806H1016.87V42.1184Z" fill="url(#paint10_linear_144_707)"/>
<path d="M406.75 143.806H203.375C147.215 143.806 0 189.333 0 245.493C0 133.172 91.0541 42.1184 203.375 42.1184H406.75V143.806Z" fill="url(#paint11_linear_144_707)"/>
<path d="M406.75 42.1184H610.125V143.806H406.75V42.1184Z" fill="url(#paint12_linear_144_707)"/>
<path d="M610.125 42.1184H813.5V143.806H610.125V42.1184Z" fill="url(#paint13_linear_144_707)"/>
<path d="M813.5 42.1184H1016.87V143.806H813.5V42.1184Z" fill="url(#paint14_linear_144_707)"/>
<defs>
<linearGradient id="paint0_linear_144_707" x1="917.31" y1="503.617" x2="579.055" y2="460.665" gradientUnits="userSpaceOnUse">
<stop offset="0.101333" stop-color="#4F68EE"/>
<stop offset="0.62624" stop-color="#7385F2"/>
</linearGradient>
<linearGradient id="paint1_linear_144_707" x1="1309.37" y1="550.224" x2="1129.45" y2="-517.689" gradientUnits="userSpaceOnUse">
<stop offset="0.39705" stop-color="#4F68EE"/>
<stop offset="0.62624" stop-color="#7385F2"/>
</linearGradient>
<linearGradient id="paint2_linear_144_707" x1="1309.37" y1="550.224" x2="1129.45" y2="-517.689" gradientUnits="userSpaceOnUse">
<stop offset="0.39705" stop-color="#4F68EE"/>
<stop offset="0.62624" stop-color="#7385F2"/>
</linearGradient>
<linearGradient id="paint3_linear_144_707" x1="1309.37" y1="550.224" x2="1129.45" y2="-517.689" gradientUnits="userSpaceOnUse">
<stop offset="0.39705" stop-color="#4F68EE"/>
<stop offset="0.62624" stop-color="#7385F2"/>
</linearGradient>
<linearGradient id="paint4_linear_144_707" x1="1309.37" y1="550.224" x2="1129.45" y2="-517.689" gradientUnits="userSpaceOnUse">
<stop offset="0.39705" stop-color="#4F68EE"/>
<stop offset="0.62624" stop-color="#7385F2"/>
</linearGradient>
<linearGradient id="paint5_linear_144_707" x1="1309.37" y1="550.224" x2="1129.45" y2="-517.689" gradientUnits="userSpaceOnUse">
<stop offset="0.39705" stop-color="#4F68EE"/>
<stop offset="0.62624" stop-color="#7385F2"/>
</linearGradient>
<linearGradient id="paint6_linear_144_707" x1="1309.37" y1="550.224" x2="1129.45" y2="-517.689" gradientUnits="userSpaceOnUse">
<stop offset="0.39705" stop-color="#4F68EE"/>
<stop offset="0.62624" stop-color="#7385F2"/>
</linearGradient>
<linearGradient id="paint7_linear_144_707" x1="1309.37" y1="550.224" x2="1129.45" y2="-517.689" gradientUnits="userSpaceOnUse">
<stop offset="0.39705" stop-color="#4F68EE"/>
<stop offset="0.62624" stop-color="#7385F2"/>
</linearGradient>
<linearGradient id="paint8_linear_144_707" x1="1309.37" y1="550.224" x2="1129.45" y2="-517.689" gradientUnits="userSpaceOnUse">
<stop offset="0.39705" stop-color="#4F68EE"/>
<stop offset="0.62624" stop-color="#7385F2"/>
</linearGradient>
<linearGradient id="paint9_linear_144_707" x1="1114.09" y1="464.935" x2="751.66" y2="-322.791" gradientUnits="userSpaceOnUse">
<stop offset="0.289224" stop-color="#4F68EE"/>
<stop offset="0.937373" stop-color="#7385F2"/>
</linearGradient>
<linearGradient id="paint10_linear_144_707" x1="1114.09" y1="464.935" x2="751.66" y2="-322.791" gradientUnits="userSpaceOnUse">
<stop offset="0.289224" stop-color="#4F68EE"/>
<stop offset="0.937373" stop-color="#7385F2"/>
</linearGradient>
<linearGradient id="paint11_linear_144_707" x1="1114.09" y1="464.935" x2="751.66" y2="-322.791" gradientUnits="userSpaceOnUse">
<stop offset="0.289224" stop-color="#4F68EE"/>
<stop offset="0.937373" stop-color="#7385F2"/>
</linearGradient>
<linearGradient id="paint12_linear_144_707" x1="1114.09" y1="464.935" x2="751.66" y2="-322.791" gradientUnits="userSpaceOnUse">
<stop offset="0.289224" stop-color="#4F68EE"/>
<stop offset="0.937373" stop-color="#7385F2"/>
</linearGradient>
<linearGradient id="paint13_linear_144_707" x1="1114.09" y1="464.935" x2="751.66" y2="-322.791" gradientUnits="userSpaceOnUse">
<stop offset="0.289224" stop-color="#4F68EE"/>
<stop offset="0.937373" stop-color="#7385F2"/>
</linearGradient>
<linearGradient id="paint14_linear_144_707" x1="1114.09" y1="464.935" x2="751.66" y2="-322.791" gradientUnits="userSpaceOnUse">
<stop offset="0.289224" stop-color="#4F68EE"/>
<stop offset="0.937373" stop-color="#7385F2"/>
</linearGradient>
</defs>
</svg>
