<svg width="92" height="16" viewBox="0 0 92 16" fill="none" xmlns="http://www.w3.org/2000/svg">
<path d="M3.97949 11.1738V13.5645H5.0957C5.49414 13.5645 5.77832 13.6406 5.94824 13.793C6.12402 13.9453 6.21191 14.1943 6.21191 14.54C6.21191 14.8799 6.12695 15.123 5.95703 15.2695C5.78711 15.416 5.5 15.4893 5.0957 15.4893H1.36914C0.964844 15.4893 0.680664 15.416 0.516602 15.2695C0.352539 15.1289 0.270508 14.8857 0.270508 14.54C0.270508 14.1943 0.352539 13.9453 0.516602 13.793C0.686523 13.6406 0.970703 13.5645 1.36914 13.5645H1.8877V5.80371H1.74707C1.43652 5.80371 1.19922 5.72168 1.03516 5.55762C0.871094 5.39355 0.789062 5.15332 0.789062 4.83691C0.789062 4.49121 0.871094 4.24512 1.03516 4.09863C1.19922 3.95215 1.4834 3.87891 1.8877 3.87891H3.24121C3.41113 3.87891 3.53711 3.91113 3.61914 3.97559C3.70117 4.03418 3.74219 4.12207 3.74219 4.23926V4.87207C4.04102 4.47363 4.40137 4.1748 4.82324 3.97559C5.25098 3.77051 5.73145 3.66797 6.26465 3.66797C7.46582 3.66797 8.46191 4.05176 9.25293 4.81934C10.0439 5.58691 10.4395 6.55371 10.4395 7.71973C10.4395 8.93848 10.0557 9.94922 9.28809 10.752C8.52051 11.5488 7.55371 11.9473 6.3877 11.9473C5.91309 11.9473 5.46777 11.8828 5.05176 11.7539C4.6416 11.6191 4.28418 11.4258 3.97949 11.1738ZM6.00977 5.54004C5.42969 5.54004 4.95215 5.75391 4.57715 6.18164C4.20215 6.60938 4.01465 7.15723 4.01465 7.8252C4.01465 8.49316 4.20215 9.04102 4.57715 9.46875C4.95215 9.89648 5.42969 10.1104 6.00977 10.1104C6.58984 10.1104 7.06738 9.89648 7.44238 9.46875C7.82324 9.03516 8.01367 8.4873 8.01367 7.8252C8.01367 7.15723 7.82617 6.60938 7.45117 6.18164C7.07617 5.75391 6.5957 5.54004 6.00977 5.54004ZM17.8486 5.80371H17.708C17.3916 5.80371 17.1514 5.72168 16.9873 5.55762C16.8291 5.39355 16.75 5.15332 16.75 4.83691C16.75 4.49121 16.832 4.24512 16.9961 4.09863C17.1602 3.95215 17.4443 3.87891 17.8486 3.87891H19.5098C19.668 3.87891 19.791 3.91406 19.8789 3.98438C19.9668 4.04883 20.0107 4.13965 20.0107 4.25684V10.0752H20.1514C20.4678 10.0752 20.708 10.1572 20.8721 10.3213C21.042 10.4854 21.127 10.7197 21.127 11.0244C21.127 11.376 21.042 11.6279 20.8721 11.7803C20.7021 11.9268 20.415 12 20.0107 12H18.5342C18.3701 12 18.2412 11.9648 18.1475 11.8945C18.0596 11.8242 18.0156 11.7275 18.0156 11.6045V10.9365C17.7344 11.3584 17.3887 11.6748 16.9785 11.8857C16.5742 12.0967 16.0967 12.2021 15.5459 12.2021C14.6025 12.2021 13.9023 11.918 13.4453 11.3496C12.9883 10.7812 12.7598 9.91113 12.7598 8.73926V5.80371H12.6104C12.2939 5.80371 12.0537 5.72168 11.8896 5.55762C11.7256 5.39355 11.6436 5.15332 11.6436 4.83691C11.6436 4.49121 11.7256 4.24512 11.8896 4.09863C12.0596 3.95215 12.3496 3.87891 12.7598 3.87891H14.4121C14.5703 3.87891 14.6904 3.91406 14.7725 3.98438C14.8545 4.04883 14.8955 4.13965 14.8955 4.25684V8.34375C14.8955 9.06445 14.9951 9.57129 15.1943 9.86426C15.3936 10.1572 15.7217 10.3037 16.1787 10.3037C16.665 10.3037 17.0635 10.125 17.374 9.76758C17.6904 9.4043 17.8486 8.92969 17.8486 8.34375V5.80371ZM29.8809 4.35352C29.9512 4.125 30.0596 3.95508 30.2061 3.84375C30.3584 3.72656 30.5518 3.66797 30.7861 3.66797C31.1025 3.66797 31.3281 3.76465 31.4629 3.95801C31.5977 4.14551 31.665 4.47363 31.665 4.94238V6.38379C31.665 6.74121 31.5918 7.00488 31.4453 7.1748C31.2988 7.34473 31.0732 7.42969 30.7686 7.42969C30.5518 7.42969 30.3701 7.37988 30.2236 7.28027C30.0771 7.18066 29.9219 6.99023 29.7578 6.70898C29.5234 6.31055 29.2158 6.01758 28.835 5.83008C28.4541 5.63672 27.9883 5.54004 27.4375 5.54004C26.752 5.54004 26.1895 5.76562 25.75 6.2168C25.3164 6.66211 25.0996 7.2334 25.0996 7.93066C25.0996 8.66309 25.3252 9.25195 25.7764 9.69727C26.2275 10.1426 26.834 10.3652 27.5957 10.3652C28.2871 10.3652 28.9727 10.1748 29.6523 9.79395C30.3379 9.40723 30.7568 9.21387 30.9092 9.21387C31.126 9.21387 31.3047 9.29883 31.4453 9.46875C31.5918 9.63281 31.665 9.84082 31.665 10.0928C31.665 10.6436 31.2461 11.1357 30.4082 11.5693C29.5762 12.0029 28.5859 12.2197 27.4375 12.2197C26.0195 12.2197 24.8652 11.8213 23.9746 11.0244C23.0898 10.2275 22.6475 9.20215 22.6475 7.94824C22.6475 6.72363 23.0869 5.7041 23.9658 4.88965C24.8447 4.0752 25.9521 3.66797 27.2881 3.66797C27.7393 3.66797 28.1787 3.72363 28.6064 3.83496C29.0342 3.94629 29.459 4.11914 29.8809 4.35352ZM36.666 4.7666C36.8711 4.40918 37.1611 4.13672 37.5361 3.94922C37.9111 3.76172 38.3594 3.66797 38.8809 3.66797C39.8066 3.66797 40.5186 3.9375 41.0166 4.47656C41.5205 5.01562 41.7725 5.78906 41.7725 6.79688V10.0752H41.9219C42.2324 10.0752 42.4668 10.1572 42.625 10.3213C42.7891 10.4795 42.8711 10.7139 42.8711 11.0244C42.8711 11.3701 42.7861 11.6191 42.6162 11.7715C42.4521 11.9238 42.1709 12 41.7725 12H39.5928C39.2002 12 38.9189 11.9238 38.749 11.7715C38.585 11.6191 38.5029 11.3701 38.5029 11.0244C38.5029 10.708 38.582 10.4707 38.7402 10.3125C38.8984 10.1543 39.1357 10.0752 39.4521 10.0752H39.5928V7.51758C39.5928 6.76758 39.499 6.24902 39.3115 5.96191C39.1299 5.66895 38.8164 5.52246 38.3711 5.52246C37.9023 5.52246 37.501 5.71289 37.167 6.09375C36.833 6.46875 36.666 6.94336 36.666 7.51758V10.0752H36.8066C37.123 10.0752 37.3604 10.1572 37.5186 10.3213C37.6826 10.4795 37.7646 10.7139 37.7646 11.0244C37.7646 11.3701 37.6797 11.6191 37.5098 11.7715C37.3398 11.9238 37.0586 12 36.666 12H34.4863C34.082 12 33.7979 11.9268 33.6338 11.7803C33.4697 11.6279 33.3877 11.376 33.3877 11.0244C33.3877 10.7139 33.4668 10.4795 33.625 10.3213C33.7891 10.1572 34.0264 10.0752 34.3369 10.0752H34.4863V2.44629H34.3369C34.0264 2.44629 33.7861 2.36426 33.6162 2.2002C33.4521 2.03027 33.3701 1.78711 33.3701 1.4707C33.3701 1.125 33.4551 0.875977 33.625 0.723633C33.7949 0.571289 34.082 0.495117 34.4863 0.495117H36.1387C36.3379 0.495117 36.4756 0.536133 36.5518 0.618164C36.6279 0.700195 36.666 0.852539 36.666 1.0752V4.7666ZM48.8916 5.54004C48.2061 5.54004 47.6406 5.76562 47.1953 6.2168C46.7559 6.66211 46.5361 7.2334 46.5361 7.93066C46.5361 8.63379 46.7559 9.2168 47.1953 9.67969C47.6406 10.1367 48.2061 10.3652 48.8916 10.3652C49.5771 10.3652 50.1426 10.1367 50.5879 9.67969C51.0332 9.2168 51.2559 8.63379 51.2559 7.93066C51.2559 7.2334 51.0332 6.66211 50.5879 6.2168C50.1484 5.76562 49.583 5.54004 48.8916 5.54004ZM48.8916 3.68555C50.3154 3.68555 51.4697 4.08398 52.3545 4.88086C53.2393 5.67773 53.6816 6.7002 53.6816 7.94824C53.6816 9.20215 53.2393 10.2275 52.3545 11.0244C51.4697 11.8213 50.3154 12.2197 48.8916 12.2197C47.4736 12.2197 46.3223 11.8213 45.4375 11.0244C44.5527 10.2275 44.1104 9.20215 44.1104 7.94824C44.1104 6.7002 44.5527 5.67773 45.4375 4.88086C46.3281 4.08398 47.4795 3.68555 48.8916 3.68555ZM55.8537 11.244C55.8537 10.98 55.9437 10.758 56.1237 10.578C56.3157 10.386 56.5437 10.29 56.8077 10.29C57.0717 10.29 57.2937 10.386 57.4737 10.578C57.6657 10.758 57.7617 10.98 57.7617 11.244C57.7617 11.508 57.6657 11.736 57.4737 11.928C57.2937 12.108 57.0717 12.198 56.8077 12.198C56.5437 12.198 56.3157 12.108 56.1237 11.928C55.9437 11.736 55.8537 11.508 55.8537 11.244ZM67.3574 12C67.2344 12 67.1465 11.9707 67.0938 11.9121C67.0469 11.8477 67.0234 11.7275 67.0234 11.5518V10.8311C66.6719 11.2705 66.2324 11.6133 65.7051 11.8594C65.1777 12.0996 64.6064 12.2197 63.9912 12.2197C62.8838 12.2197 61.9551 11.8271 61.2051 11.042C60.4609 10.251 60.0889 9.26953 60.0889 8.09766C60.0889 6.88477 60.4873 5.87695 61.2842 5.07422C62.0811 4.26562 63.0742 3.86133 64.2637 3.86133C64.8672 3.86133 65.4092 3.96973 65.8896 4.18652C66.3701 4.39746 66.7832 4.71094 67.1289 5.12695V1.76074H66.6631C66.1533 1.76074 65.8223 1.7168 65.6699 1.62891C65.5234 1.53516 65.4502 1.36816 65.4502 1.12793C65.4502 0.916992 65.5088 0.758789 65.626 0.65332C65.749 0.547852 65.9248 0.495117 66.1533 0.495117H67.9551C68.1309 0.495117 68.2568 0.524414 68.333 0.583008C68.415 0.641602 68.4561 0.732422 68.4561 0.855469V10.7607H68.8516C69.1387 10.7607 69.3467 10.8105 69.4756 10.9102C69.6045 11.0039 69.6689 11.1562 69.6689 11.3672C69.6689 11.5664 69.6133 11.7217 69.502 11.833C69.3906 11.9443 69.2412 12 69.0537 12H67.3574ZM61.6006 8.05371C61.6006 8.8623 61.8613 9.52441 62.3828 10.04C62.9043 10.5557 63.5664 10.8135 64.3691 10.8135C65.1777 10.8135 65.8428 10.5469 66.3643 10.0137C66.8857 9.47461 67.1465 8.79199 67.1465 7.96582C67.1465 7.15137 66.8857 6.48047 66.3643 5.95312C65.8486 5.42578 65.1836 5.16211 64.3691 5.16211C63.543 5.16211 62.875 5.42871 62.3652 5.96191C61.8555 6.49512 61.6006 7.19238 61.6006 8.05371ZM72.5518 8.32617C72.5986 9.16992 72.8828 9.82324 73.4043 10.2861C73.9316 10.7432 74.6494 10.9717 75.5576 10.9717C76.2432 10.9717 76.9902 10.79 77.7988 10.4268C78.6074 10.0576 79.0967 9.87305 79.2666 9.87305C79.4424 9.87305 79.5889 9.92871 79.7061 10.04C79.8232 10.1514 79.8818 10.2891 79.8818 10.4531C79.8818 10.623 79.8203 10.7783 79.6973 10.9189C79.5742 11.0596 79.3779 11.1973 79.1084 11.332C78.5225 11.6191 77.916 11.8389 77.2891 11.9912C76.668 12.1436 76.0498 12.2197 75.4346 12.2197C74.0986 12.2197 73.0293 11.8359 72.2266 11.0684C71.4238 10.2949 71.0225 9.27246 71.0225 8.00098C71.0225 6.70605 71.4473 5.65723 72.2969 4.85449C73.1465 4.05176 74.2539 3.65039 75.6191 3.65039C76.8555 3.65039 77.8809 4.02539 78.6953 4.77539C79.5098 5.52539 79.917 6.43359 79.917 7.5C79.917 7.82812 79.8467 8.04785 79.7061 8.15918C79.5713 8.27051 79.1992 8.32617 78.5898 8.32617H78.458H72.5518ZM72.5957 7.1748H78.3174C78.2295 6.47754 77.9365 5.91797 77.4385 5.49609C76.9463 5.06836 76.3398 4.85449 75.6191 4.85449C74.8398 4.85449 74.1836 5.05957 73.6504 5.46973C73.1172 5.87988 72.7656 6.44824 72.5957 7.1748ZM82.3076 5.12695C81.9209 5.12695 81.6543 5.08008 81.5078 4.98633C81.3672 4.89258 81.2969 4.72852 81.2969 4.49414C81.2969 4.28906 81.3555 4.13672 81.4727 4.03711C81.5898 3.93164 81.7656 3.87891 82 3.87891H84.4609C84.7949 3.87891 85.0176 3.92578 85.1289 4.01953C85.2402 4.10742 85.2959 4.26562 85.2959 4.49414C85.2959 4.72852 85.2227 4.89258 85.0762 4.98633C84.9297 5.08008 84.6602 5.12695 84.2676 5.12695H83.9424L86.2275 10.8135L88.7676 5.12695H88.2402C87.7891 5.12695 87.4844 5.08301 87.3262 4.99512C87.168 4.90137 87.0889 4.73438 87.0889 4.49414C87.0889 4.26562 87.1445 4.10742 87.2559 4.01953C87.3672 3.92578 87.5898 3.87891 87.9238 3.87891H90.6396C90.874 3.87891 91.0498 3.93164 91.167 4.03711C91.2842 4.13672 91.3428 4.28906 91.3428 4.49414C91.3428 4.72852 91.2695 4.89258 91.123 4.98633C90.9824 5.08008 90.7188 5.12695 90.332 5.12695H90.1738L87.2734 11.5342C87.127 11.8564 86.9805 12.0645 86.834 12.1582C86.6934 12.2578 86.4854 12.3076 86.21 12.3076C85.958 12.3076 85.7617 12.2607 85.6211 12.167C85.4863 12.0732 85.3457 11.8623 85.1992 11.5342L82.3076 5.12695Z" fill="#3C3C3C"/>
</svg>
