<svg width="3501" height="1653" viewBox="0 0 3501 1653" fill="none" xmlns="http://www.w3.org/2000/svg">
<rect x="1800" y="347" width="202" height="1306" rx="20" fill="#3A3A3A"/>
<rect x="2150" y="652" width="202" height="1001" rx="20" fill="#3A3A3A"/>
<rect x="2150" y="347" width="202" height="202" rx="20" fill="url(#paint0_linear_138_658)"/>
<rect x="151" y="347" width="202" height="1306" rx="20" fill="#3A3A3A"/>
<rect y="854" width="202" height="502" rx="20" transform="rotate(-90 0 854)" fill="#3A3A3A"/>
<rect x="1450" y="652" width="202" height="1001" rx="20" fill="#3A3A3A"/>
<circle cx="1152" cy="1152" r="400" stroke="#3A3A3A" stroke-width="200"/>
<rect x="3299" y="652" width="202" height="1001" rx="20" fill="#3A3A3A"/>
<circle cx="3001" cy="1152" r="400" stroke="#3A3A3A" stroke-width="200"/>
<path d="M2686.06 42.3071H2482.72L2528.84 39C2569.69 36.0714 2609.37 24.0532 2644.98 3.82373C2663.31 -6.58816 2686.06 6.64995 2686.06 27.7292V42.3071Z" fill="url(#paint1_linear_138_658)"/>
<path d="M1466 246.057H1669.34L1623.21 249.364C1582.36 252.293 1542.68 264.311 1507.07 284.54C1488.75 294.952 1466 281.714 1466 260.635V246.057Z" fill="url(#paint2_linear_138_658)"/>
<path d="M1466 246.057C1466 133.754 1557.04 42.7137 1669.34 42.7137V246.057H1466Z" fill="url(#paint3_linear_138_658)"/>
<path d="M1669.34 42.3071H1872.69V245.65H1669.34V42.3071Z" fill="url(#paint4_linear_138_658)"/>
<path d="M1872.69 42.3071H2076.03V245.65H1872.69V42.3071Z" fill="url(#paint5_linear_138_658)"/>
<path d="M2076.03 42.3071H2279.37V245.65H2076.03V42.3071Z" fill="url(#paint6_linear_138_658)"/>
<path d="M2279.37 42.3071H2482.72V245.65H2279.37V42.3071Z" fill="url(#paint7_linear_138_658)"/>
<path d="M2482.72 42.3071H2686.06C2686.06 154.61 2595.02 245.65 2482.72 245.65V42.3071Z" fill="url(#paint8_linear_138_658)"/>
<path d="M2686.25 42.1184H2482.87L2529.01 38.8108C2569.87 35.8817 2609.55 23.8617 2645.17 3.62898C2663.5 -6.78454 2686.25 6.45565 2686.25 27.5382V42.1184Z" fill="url(#paint9_linear_138_658)"/>
<path d="M2482.87 42.1184H2686.25C2646.78 105.37 2577.49 143.806 2502.94 143.806H2482.87V42.1184Z" fill="url(#paint10_linear_138_658)"/>
<path d="M1872.75 143.806H1669.37C1613.21 143.806 1466 189.333 1466 245.493C1466 133.172 1557.05 42.1184 1669.37 42.1184H1872.75V143.806Z" fill="url(#paint11_linear_138_658)"/>
<path d="M1872.75 42.1184H2076.12V143.806H1872.75V42.1184Z" fill="url(#paint12_linear_138_658)"/>
<path d="M2076.12 42.1184H2279.5V143.806H2076.12V42.1184Z" fill="url(#paint13_linear_138_658)"/>
<path d="M2279.5 42.1184H2482.87V143.806H2279.5V42.1184Z" fill="url(#paint14_linear_138_658)"/>
<defs>
<linearGradient id="paint0_linear_138_658" x1="2383.31" y1="503.617" x2="2045.05" y2="460.665" gradientUnits="userSpaceOnUse">
<stop offset="0.101333" stop-color="#4F68EE"/>
<stop offset="0.62624" stop-color="#7385F2"/>
</linearGradient>
<linearGradient id="paint1_linear_138_658" x1="2775.37" y1="550.224" x2="2595.45" y2="-517.689" gradientUnits="userSpaceOnUse">
<stop offset="0.39705" stop-color="#4F68EE"/>
<stop offset="0.62624" stop-color="#7385F2"/>
</linearGradient>
<linearGradient id="paint2_linear_138_658" x1="2775.37" y1="550.224" x2="2595.45" y2="-517.689" gradientUnits="userSpaceOnUse">
<stop offset="0.39705" stop-color="#4F68EE"/>
<stop offset="0.62624" stop-color="#7385F2"/>
</linearGradient>
<linearGradient id="paint3_linear_138_658" x1="2775.37" y1="550.224" x2="2595.45" y2="-517.689" gradientUnits="userSpaceOnUse">
<stop offset="0.39705" stop-color="#4F68EE"/>
<stop offset="0.62624" stop-color="#7385F2"/>
</linearGradient>
<linearGradient id="paint4_linear_138_658" x1="2775.37" y1="550.224" x2="2595.45" y2="-517.689" gradientUnits="userSpaceOnUse">
<stop offset="0.39705" stop-color="#4F68EE"/>
<stop offset="0.62624" stop-color="#7385F2"/>
</linearGradient>
<linearGradient id="paint5_linear_138_658" x1="2775.37" y1="550.224" x2="2595.45" y2="-517.689" gradientUnits="userSpaceOnUse">
<stop offset="0.39705" stop-color="#4F68EE"/>
<stop offset="0.62624" stop-color="#7385F2"/>
</linearGradient>
<linearGradient id="paint6_linear_138_658" x1="2775.37" y1="550.224" x2="2595.45" y2="-517.689" gradientUnits="userSpaceOnUse">
<stop offset="0.39705" stop-color="#4F68EE"/>
<stop offset="0.62624" stop-color="#7385F2"/>
</linearGradient>
<linearGradient id="paint7_linear_138_658" x1="2775.37" y1="550.224" x2="2595.45" y2="-517.689" gradientUnits="userSpaceOnUse">
<stop offset="0.39705" stop-color="#4F68EE"/>
<stop offset="0.62624" stop-color="#7385F2"/>
</linearGradient>
<linearGradient id="paint8_linear_138_658" x1="2775.37" y1="550.224" x2="2595.45" y2="-517.689" gradientUnits="userSpaceOnUse">
<stop offset="0.39705" stop-color="#4F68EE"/>
<stop offset="0.62624" stop-color="#7385F2"/>
</linearGradient>
<linearGradient id="paint9_linear_138_658" x1="2580.09" y1="464.935" x2="2217.66" y2="-322.791" gradientUnits="userSpaceOnUse">
<stop offset="0.289224" stop-color="#4F68EE"/>
<stop offset="0.937373" stop-color="#7385F2"/>
</linearGradient>
<linearGradient id="paint10_linear_138_658" x1="2580.09" y1="464.935" x2="2217.66" y2="-322.791" gradientUnits="userSpaceOnUse">
<stop offset="0.289224" stop-color="#4F68EE"/>
<stop offset="0.937373" stop-color="#7385F2"/>
</linearGradient>
<linearGradient id="paint11_linear_138_658" x1="2580.09" y1="464.935" x2="2217.66" y2="-322.791" gradientUnits="userSpaceOnUse">
<stop offset="0.289224" stop-color="#4F68EE"/>
<stop offset="0.937373" stop-color="#7385F2"/>
</linearGradient>
<linearGradient id="paint12_linear_138_658" x1="2580.09" y1="464.935" x2="2217.66" y2="-322.791" gradientUnits="userSpaceOnUse">
<stop offset="0.289224" stop-color="#4F68EE"/>
<stop offset="0.937373" stop-color="#7385F2"/>
</linearGradient>
<linearGradient id="paint13_linear_138_658" x1="2580.09" y1="464.935" x2="2217.66" y2="-322.791" gradientUnits="userSpaceOnUse">
<stop offset="0.289224" stop-color="#4F68EE"/>
<stop offset="0.937373" stop-color="#7385F2"/>
</linearGradient>
<linearGradient id="paint14_linear_138_658" x1="2580.09" y1="464.935" x2="2217.66" y2="-322.791" gradientUnits="userSpaceOnUse">
<stop offset="0.289224" stop-color="#4F68EE"/>
<stop offset="0.937373" stop-color="#7385F2"/>
</linearGradient>
</defs>
</svg>
