<svg width="3500" height="1306" viewBox="0 0 3500 1306" fill="none" xmlns="http://www.w3.org/2000/svg">
<rect x="1799" width="202" height="1306" rx="20" fill="#3A3A3A"/>
<rect x="2149" y="305" width="202" height="1001" rx="20" fill="#3A3A3A"/>
<rect x="2149" width="202" height="202" rx="20" fill="url(#paint0_linear_223_56)"/>
<path d="M2149 101H2230C2241.05 101 2250 109.954 2250 121V202H2169C2157.95 202 2149 193.046 2149 182V101Z" fill="#B8C3F7"/>
<rect x="150" width="202" height="1306" rx="20" fill="#3A3A3A"/>
<rect y="507" width="202" height="502" rx="20" transform="rotate(-90 0 507)" fill="#3A3A3A"/>
<rect x="1449" y="305" width="202" height="1001" rx="20" fill="#3A3A3A"/>
<circle cx="1151" cy="805" r="400" stroke="#3A3A3A" stroke-width="200"/>
<rect x="3298" y="305" width="202" height="1001" rx="20" fill="#3A3A3A"/>
<circle cx="3000" cy="805" r="400" stroke="#3A3A3A" stroke-width="200"/>
<defs>
<linearGradient id="paint0_linear_223_56" x1="2382.31" y1="156.617" x2="2044.05" y2="113.665" gradientUnits="userSpaceOnUse">
<stop offset="0.101333" stop-color="#4F68EE"/>
<stop offset="0.62624" stop-color="#7385F2"/>
</linearGradient>
</defs>
</svg>
