<svg width="24" height="24" viewBox="0 0 24 24" fill="none" xmlns="http://www.w3.org/2000/svg">
<g clip-path="url(#clip0_155_311)">
<path d="M21.7788 4.99993H15.4428C15.0501 4.94281 14.6784 4.78697 14.3623 4.54701C14.0463 4.30706 13.7963 3.99083 13.6358 3.62793C13.5514 3.86172 13.5081 4.10836 13.5078 4.35693C13.5163 4.88847 13.7169 5.39896 14.0726 5.79402C14.4283 6.18907 14.9151 6.44196 15.4428 6.50593H21.7788C21.9986 6.51768 22.2185 6.48485 22.4252 6.40943C22.632 6.33401 22.8213 6.21755 22.9819 6.06705C23.1425 5.91656 23.271 5.73514 23.3596 5.53371C23.4483 5.33228 23.4953 5.115 23.4978 4.89493C23.4987 4.64306 23.4397 4.39457 23.3258 4.16993C23.1593 4.4279 22.93 4.63937 22.6594 4.78454C22.3888 4.92971 22.0858 5.00382 21.7788 4.99993Z" fill="#B8C3F7"/>
<path d="M15.4428 6.50582C14.9151 6.44186 14.4283 6.18896 14.0726 5.79391C13.7169 5.39885 13.5163 4.88836 13.5078 4.35682C13.5079 4.06814 13.5662 3.78244 13.6792 3.51681C13.7923 3.25119 13.9578 3.01111 14.1658 2.81094C14.3738 2.61077 14.6201 2.45462 14.8898 2.35185C15.1596 2.24908 15.4473 2.20179 15.7358 2.21282C15.9796 1.70044 16.3646 1.2683 16.8456 0.967159C17.3265 0.666021 17.8834 0.508403 18.4508 0.512824C19.2245 0.505756 19.9726 0.789683 20.5468 1.30831C21.121 1.82694 21.4794 2.54239 21.5508 3.31282C21.7861 3.26265 22.0296 3.2658 22.2634 3.32203C22.4973 3.37826 22.7156 3.48615 22.9023 3.63778C23.0891 3.78941 23.2395 3.98092 23.3425 4.19827C23.4456 4.41562 23.4986 4.65329 23.4978 4.89382C23.4954 5.11397 23.4485 5.33137 23.3599 5.53292C23.2713 5.73446 23.1429 5.916 22.9823 6.0666C22.8217 6.2172 22.6323 6.33375 22.4254 6.40924C22.2186 6.48472 21.9987 6.51757 21.7788 6.50582H15.4428Z" stroke="url(#paint0_linear_155_311)" stroke-linecap="round" stroke-linejoin="round"/>
<path d="M8.79944 8.50002H2.45844C2.06531 8.4426 1.69323 8.2862 1.37715 8.04551C1.06106 7.80481 0.811339 7.48772 0.651439 7.12402C0.566441 7.35801 0.523119 7.60508 0.523439 7.85402C0.532618 8.38504 0.733578 8.89481 1.08923 9.28924C1.44488 9.68367 1.9312 9.93613 2.45844 10H8.79944C9.01921 10.0118 9.23908 9.97895 9.44583 9.90352C9.65258 9.8281 9.84195 9.71164 10.0025 9.56115C10.1631 9.41066 10.2916 9.22924 10.3803 9.0278C10.4689 8.82637 10.5159 8.60909 10.5184 8.38902C10.519 8.13719 10.46 7.88879 10.3464 7.66402C10.1805 7.92304 9.95154 8.13565 9.68094 8.28188C9.41034 8.42811 9.10701 8.50318 8.79944 8.50002Z" fill="#B8C3F7"/>
<path d="M2.45844 9.99993C1.9312 9.93603 1.44487 9.68357 1.08923 9.28914C0.733577 8.89471 0.532617 8.38494 0.523438 7.85393C0.523227 7.56521 0.581306 7.27941 0.694193 7.01368C0.807081 6.74794 0.972454 6.50773 1.1804 6.30744C1.38835 6.10715 1.6346 5.9509 1.90438 5.84805C2.17416 5.74521 2.46193 5.69789 2.75044 5.70893C2.99446 5.1967 3.3795 4.76469 3.86039 4.46358C4.34128 4.16247 4.89807 4.00475 5.46544 4.00893C6.23921 4.00163 6.98745 4.28547 7.56169 4.80414C8.13594 5.32282 8.49421 6.03841 8.56544 6.80893C8.80019 6.75971 9.04296 6.76346 9.27607 6.81991C9.50919 6.87636 9.72678 6.98409 9.913 7.13525C10.0992 7.28642 10.2494 7.47721 10.3526 7.69374C10.4557 7.91026 10.5093 8.14707 10.5094 8.38693C10.5071 8.60636 10.4606 8.82308 10.3726 9.02412C10.2846 9.22516 10.157 9.40639 9.99736 9.55697C9.83773 9.70756 9.64936 9.82439 9.44353 9.9005C9.2377 9.97661 9.01864 10.0104 8.79944 9.99993H2.45844Z" stroke="url(#paint1_linear_155_311)" stroke-linecap="round" stroke-linejoin="round"/>
<path d="M6.625 22.489L7.207 18.989C7.46141 17.4563 8.25117 16.0635 9.43584 15.0583C10.6205 14.053 12.1233 13.5005 13.677 13.499C15.0308 13.499 16.3549 13.8963 17.4851 14.6417C18.6152 15.387 19.5018 16.4476 20.035 17.692L20.486 18.744C22.599 18.744 23.719 19.844 23.43 22.055C23.4141 22.1761 23.3545 22.2871 23.2624 22.3673C23.1703 22.4474 23.0521 22.4911 22.93 22.49L6.625 22.489Z" fill="white" fill-opacity="0.66"/>
<path d="M14.2286 15.51C15.3691 15.5101 16.4968 15.7518 17.5372 16.2192C18.5775 16.6867 19.5071 17.3693 20.2646 18.222L20.0366 17.691C19.5031 16.447 18.6164 15.3868 17.4862 14.6418C16.3561 13.8968 15.0322 13.4998 13.6786 13.5C12.1249 13.5015 10.6221 14.054 9.43741 15.0592C8.25273 16.0645 7.46297 17.4573 7.20856 18.99L6.85156 21.136C7.29638 19.5203 8.25881 18.0952 9.5913 17.0789C10.9238 16.0627 12.5528 15.5116 14.2286 15.51Z" fill="#B8C3F7"/>
<path d="M6.625 22.489L7.207 18.989C7.46141 17.4563 8.25117 16.0635 9.43584 15.0583C10.6205 14.053 12.1233 13.5005 13.677 13.499C15.0308 13.499 16.3549 13.8963 17.4851 14.6417C18.6152 15.387 19.5018 16.4476 20.035 17.692L20.486 18.744C22.599 18.744 23.719 19.844 23.43 22.055C23.4141 22.1761 23.3545 22.2871 23.2624 22.3673C23.1703 22.4474 23.0521 22.4911 22.93 22.49L6.625 22.489Z" stroke="url(#paint2_linear_155_311)" stroke-linecap="round" stroke-linejoin="round"/>
<path d="M18.6172 21.9892C18.6172 22.1859 18.6559 22.3807 18.7312 22.5625C18.8065 22.7442 18.9168 22.9094 19.0559 23.0485C19.195 23.1876 19.3602 23.2979 19.5419 23.3732C19.7237 23.4485 19.9185 23.4872 20.1152 23.4872C20.3119 23.4872 20.5067 23.4485 20.6884 23.3732C20.8702 23.2979 21.0353 23.1876 21.1744 23.0485C21.3135 22.9094 21.4239 22.7442 21.4992 22.5625C21.5744 22.3807 21.6132 22.1859 21.6132 21.9892C21.6132 21.7925 21.5744 21.5977 21.4992 21.416C21.4239 21.2342 21.3135 21.0691 21.1744 20.93C21.0353 20.7909 20.8702 20.6805 20.6884 20.6052C20.5067 20.53 20.3119 20.4912 20.1152 20.4912C19.9185 20.4912 19.7237 20.53 19.5419 20.6052C19.3602 20.6805 19.195 20.7909 19.0559 20.93C18.9168 21.0691 18.8065 21.2342 18.7312 21.416C18.6559 21.5977 18.6172 21.7925 18.6172 21.9892Z" fill="white" fill-opacity="0.66" stroke="url(#paint3_linear_155_311)" stroke-linecap="round" stroke-linejoin="round"/>
<path d="M8.463 22.4888H5.875" stroke="url(#paint4_linear_155_311)" stroke-linecap="round" stroke-linejoin="round"/>
<path d="M8.375 21.9892C8.375 22.3865 8.53282 22.7675 8.81375 23.0485C9.09468 23.3294 9.47571 23.4872 9.873 23.4872C10.2703 23.4872 10.6513 23.3294 10.9322 23.0485C11.2132 22.7675 11.371 22.3865 11.371 21.9892C11.371 21.5919 11.2132 21.2109 10.9322 20.93C10.6513 20.649 10.2703 20.4912 9.873 20.4912C9.47571 20.4912 9.09468 20.649 8.81375 20.93C8.53282 21.2109 8.375 21.5919 8.375 21.9892Z" fill="white" fill-opacity="0.66" stroke="url(#paint5_linear_155_311)" stroke-linecap="round" stroke-linejoin="round"/>
<path d="M10.0156 18.4931C10.2334 17.6361 10.7306 16.876 11.4287 16.3332C12.1268 15.7903 12.9858 15.4956 13.8701 15.4956C14.7544 15.4956 15.6135 15.7903 16.3116 16.3332C17.0096 16.876 17.5068 17.6361 17.7246 18.4931H10.0156Z" fill="white" fill-opacity="0.66"/>
<path d="M15.2556 15.7461C14.8127 15.5805 14.3435 15.4958 13.8706 15.4961C12.9864 15.498 12.1279 15.7938 11.4301 16.3368C10.7322 16.8799 10.2347 17.6394 10.0156 18.4961H12.5086L15.2556 15.7461Z" fill="#B8C3F7"/>
<path d="M10.0156 18.4931C10.2334 17.6361 10.7306 16.876 11.4287 16.3332C12.1268 15.7903 12.9858 15.4956 13.8701 15.4956C14.7544 15.4956 15.6135 15.7903 16.3116 16.3332C17.0096 16.876 17.5068 17.6361 17.7246 18.4931H10.0156Z" stroke="url(#paint6_linear_155_311)" stroke-linecap="round" stroke-linejoin="round"/>
<path d="M0.5 21.2402C0.5 21.4042 0.532306 21.5666 0.595074 21.7182C0.657843 21.8697 0.749843 22.0074 0.865824 22.1234C0.981804 22.2394 1.11949 22.3314 1.27103 22.3941C1.42256 22.4569 1.58498 22.4892 1.749 22.4892C1.91302 22.4892 2.07544 22.4569 2.22697 22.3941C2.37851 22.3314 2.5162 22.2394 2.63218 22.1234C2.74816 22.0074 2.84016 21.8697 2.90293 21.7182C2.96569 21.5666 2.998 21.4042 2.998 21.2402C2.998 21.0762 2.96569 20.9138 2.90293 20.7622C2.84016 20.6107 2.74816 20.473 2.63218 20.357C2.5162 20.2411 2.37851 20.1491 2.22697 20.0863C2.07544 20.0235 1.91302 19.9912 1.749 19.9912C1.58498 19.9912 1.42256 20.0235 1.27103 20.0863C1.11949 20.1491 0.981804 20.2411 0.865824 20.357C0.749843 20.473 0.657843 20.6107 0.595074 20.7622C0.532306 20.9138 0.5 21.0762 0.5 21.2402Z" fill="#B8C3F7" stroke="url(#paint7_linear_155_311)" stroke-linecap="round" stroke-linejoin="round"/>
</g>
<defs>
<linearGradient id="paint0_linear_155_311" x1="24.2291" y1="11.964" x2="15.9531" y2="-7.35523" gradientUnits="userSpaceOnUse">
<stop offset="0.39705" stop-color="#4F68EE"/>
<stop offset="0.62624" stop-color="#7385F2"/>
</linearGradient>
<linearGradient id="paint1_linear_155_311" x1="11.2404" y1="15.4554" x2="2.96785" y2="-3.85596" gradientUnits="userSpaceOnUse">
<stop offset="0.39705" stop-color="#4F68EE"/>
<stop offset="0.62624" stop-color="#7385F2"/>
</linearGradient>
<linearGradient id="paint2_linear_155_311" x1="24.7083" y1="30.6719" x2="13.3032" y2="0.727323" gradientUnits="userSpaceOnUse">
<stop offset="0.39705" stop-color="#4F68EE"/>
<stop offset="0.62624" stop-color="#7385F2"/>
</linearGradient>
<linearGradient id="paint3_linear_155_311" x1="21.8325" y1="26.2136" x2="16.4297" y2="18.6444" gradientUnits="userSpaceOnUse">
<stop offset="0.39705" stop-color="#4F68EE"/>
<stop offset="0.62624" stop-color="#7385F2"/>
</linearGradient>
<linearGradient id="paint4_linear_155_311" x1="8.65244" y1="24.3988" x2="7.67496" y2="20.8547" gradientUnits="userSpaceOnUse">
<stop offset="0.39705" stop-color="#4F68EE"/>
<stop offset="0.62624" stop-color="#7385F2"/>
</linearGradient>
<linearGradient id="paint5_linear_155_311" x1="11.5903" y1="26.2136" x2="6.18748" y2="18.6444" gradientUnits="userSpaceOnUse">
<stop offset="0.39705" stop-color="#4F68EE"/>
<stop offset="0.62624" stop-color="#7385F2"/>
</linearGradient>
<linearGradient id="paint6_linear_155_311" x1="18.2889" y1="21.2209" x2="15.3431" y2="10.607" gradientUnits="userSpaceOnUse">
<stop offset="0.39705" stop-color="#4F68EE"/>
<stop offset="0.62624" stop-color="#7385F2"/>
</linearGradient>
<linearGradient id="paint7_linear_155_311" x1="3.18085" y1="24.7624" x2="-1.32391" y2="18.4514" gradientUnits="userSpaceOnUse">
<stop offset="0.39705" stop-color="#4F68EE"/>
<stop offset="0.62624" stop-color="#7385F2"/>
</linearGradient>
<clipPath id="clip0_155_311">
<rect width="24" height="24" fill="white"/>
</clipPath>
</defs>
</svg>
