<svg width="24" height="24" viewBox="0 0 24 24" fill="none" xmlns="http://www.w3.org/2000/svg">
<path d="M22.5222 9.57764C22.8281 11.3121 22.7134 13.0947 22.1875 14.7756C21.6616 16.4566 20.7401 17.9867 19.5002 19.2376C18.2603 20.4885 16.7383 21.4235 15.062 21.9642C13.3858 22.5048 11.6043 22.6353 9.86719 22.3446L10.9782 16.4446C11.7493 16.5555 12.5357 16.4846 13.2745 16.2377C14.0134 15.9907 14.6844 15.5745 15.2339 15.0223C15.7834 14.4701 16.1963 13.7971 16.4396 13.057C16.6829 12.3169 16.7498 11.5302 16.6352 10.7596L22.5222 9.57764Z" fill="#B8C3F7"/>
<path d="M19.7619 1.88782C20.1365 2.26283 20.347 2.77124 20.347 3.30132C20.347 3.8314 20.1365 4.3398 19.7619 4.71482L17.2869 7.19182C17.1931 7.28555 17.066 7.33821 16.9334 7.33821C16.8008 7.33821 16.6737 7.28555 16.5799 7.19182L14.4589 5.07082C14.3652 4.97706 14.3125 4.8499 14.3125 4.71732C14.3125 4.58474 14.3652 4.45758 14.4589 4.36382L16.9339 1.88782C17.3089 1.51288 17.8176 1.30225 18.3479 1.30225C18.8782 1.30225 19.3868 1.51288 19.7619 1.88782Z" fill="#B8C3F7"/>
<path d="M19.7629 1.88783C19.5772 1.70203 19.3567 1.55464 19.1139 1.45408C18.8712 1.35352 18.6111 1.30176 18.3484 1.30176C18.0857 1.30176 17.8255 1.35352 17.5828 1.45408C17.3401 1.55464 17.1196 1.70203 16.9339 1.88783L14.4589 4.36383C14.3652 4.45759 14.3125 4.58475 14.3125 4.71733C14.3125 4.84991 14.3652 4.97707 14.4589 5.07083L15.5189 6.13083L19.7629 1.88783Z" fill="white" fill-opacity="0.66"/>
<path d="M19.7619 1.88782C20.1365 2.26283 20.347 2.77124 20.347 3.30132C20.347 3.8314 20.1365 4.3398 19.7619 4.71482L17.2869 7.19182C17.1931 7.28555 17.066 7.33821 16.9334 7.33821C16.8008 7.33821 16.6737 7.28555 16.5799 7.19182L14.4589 5.07082C14.3652 4.97706 14.3125 4.8499 14.3125 4.71732C14.3125 4.58474 14.3652 4.45758 14.4589 4.36382L16.9339 1.88782C17.3089 1.51288 17.8176 1.30225 18.3479 1.30225C18.8782 1.30225 19.3868 1.51288 19.7619 1.88782Z" stroke="url(#paint0_linear_183_22)" stroke-linecap="round" stroke-linejoin="round"/>
<path d="M7.38905 16.3826C7.48279 16.4764 7.53544 16.6035 7.53544 16.7361C7.53544 16.8687 7.48279 16.9958 7.38905 17.0896L4.91405 19.5656C4.5389 19.9406 4.03014 20.1513 3.4997 20.1512C2.96925 20.1511 2.46057 19.9403 2.08555 19.5651C1.71054 19.19 1.49991 18.6812 1.5 18.1508C1.50009 17.6203 1.7109 17.1116 2.08605 16.7366L4.56105 14.2626C4.65482 14.1689 4.78197 14.1162 4.91455 14.1162C5.04713 14.1162 5.17429 14.1689 5.26805 14.2626L7.38905 16.3826Z" fill="#B8C3F7"/>
<path d="M2.08557 19.5656L6.32757 15.3226L5.26757 14.2626C5.17381 14.1689 5.04666 14.1162 4.91407 14.1162C4.78149 14.1162 4.65434 14.1689 4.56057 14.2626L2.08557 16.7366C1.71063 17.1117 1.5 17.6203 1.5 18.1506C1.5 18.6809 1.71063 19.1905 2.08557 19.5656Z" fill="white" fill-opacity="0.66"/>
<path d="M7.38905 16.3826C7.48279 16.4764 7.53544 16.6035 7.53544 16.7361C7.53544 16.8687 7.48279 16.9958 7.38905 17.0896L4.91405 19.5656C4.5389 19.9406 4.03014 20.1513 3.4997 20.1512C2.96925 20.1511 2.46057 19.9403 2.08555 19.5651C1.71054 19.19 1.49991 18.6812 1.5 18.1508C1.50009 17.6203 1.7109 17.1116 2.08605 16.7366L4.56105 14.2626C4.65482 14.1689 4.78197 14.1162 4.91455 14.1162C5.04713 14.1162 5.17429 14.1689 5.26805 14.2626L7.38905 16.3826Z" stroke="url(#paint1_linear_183_22)" stroke-linecap="round" stroke-linejoin="round"/>
<path d="M8.45135 8.25163C8.03333 8.66952 7.70173 9.16566 7.47549 9.71172C7.24926 10.2578 7.13281 10.8431 7.13281 11.4341C7.13281 12.0252 7.24926 12.6105 7.47549 13.1565C7.70173 13.7026 8.03333 14.1987 8.45135 14.6166L14.8154 8.25163C14.3975 7.83376 13.9014 7.50229 13.3554 7.27614C12.8095 7.04999 12.2243 6.93359 11.6334 6.93359C11.0424 6.93359 10.4572 7.04999 9.91126 7.27614C9.36529 7.50229 8.86922 7.83376 8.45135 8.25163Z" fill="white"/>
<path d="M11.6351 11.4346L14.8171 8.25163C14.3993 7.83376 13.9032 7.50229 13.3572 7.27614C12.8112 7.04999 12.2261 6.93359 11.6351 6.93359C11.0442 6.93359 10.459 7.04999 9.91304 7.27614C9.36707 7.50229 8.87099 7.83376 8.45312 8.25163L11.6351 11.4346Z" fill="white" fill-opacity="0.66"/>
<path d="M8.45135 8.25163C8.03333 8.66952 7.70173 9.16566 7.47549 9.71172C7.24926 10.2578 7.13281 10.8431 7.13281 11.4341C7.13281 12.0252 7.24926 12.6105 7.47549 13.1565C7.70173 13.7026 8.03333 14.1987 8.45135 14.6166L14.8154 8.25163C14.3975 7.83376 13.9014 7.50229 13.3554 7.27614C12.8095 7.04999 12.2243 6.93359 11.6334 6.93359C11.0424 6.93359 10.4572 7.04999 9.91126 7.27614C9.36529 7.50229 8.86922 7.83376 8.45135 8.25163Z" stroke="url(#paint2_linear_183_22)" stroke-linecap="round" stroke-linejoin="round"/>
<path d="M13.0626 10C13.4438 10.385 13.6614 10.9025 13.67 11.4443C13.6785 11.986 13.4774 12.5101 13.1086 12.907C12.7133 13.2724 12.1912 13.4693 11.6532 13.4561C11.1151 13.4428 10.6033 13.2204 10.2266 12.836L13.0626 10Z" fill="#B8C3F7" stroke="url(#paint3_linear_183_22)" stroke-linecap="round" stroke-linejoin="round"/>
<path d="M16.6414 10.7598C16.7562 11.5304 16.6893 12.3172 16.4461 13.0574C16.2029 13.7977 15.7901 14.4708 15.2405 15.0231C14.691 15.5755 14.02 15.9918 13.281 16.2388C12.5421 16.4858 11.7556 16.5567 10.9844 16.4458" stroke="url(#paint4_linear_183_22)" stroke-linecap="round" stroke-linejoin="round"/>
<path d="M19.6419 10.6099C19.7751 11.8035 19.6378 13.0117 19.2403 14.145C18.8427 15.2783 18.1951 16.3076 17.3455 17.1564C16.4959 18.0053 15.4661 18.6519 14.3324 19.0484C13.1987 19.445 11.9903 19.5811 10.7969 19.4469" stroke="url(#paint5_linear_183_22)" stroke-linecap="round" stroke-linejoin="round"/>
<path d="M22.5222 9.57764C22.8281 11.3121 22.7134 13.0947 22.1875 14.7756C21.6616 16.4566 20.7401 17.9867 19.5002 19.2376C18.2603 20.4885 16.7383 21.4235 15.062 21.9642C13.3858 22.5048 11.6043 22.6353 9.86719 22.3446" stroke="url(#paint6_linear_183_22)" stroke-linecap="round" stroke-linejoin="round"/>
<defs>
<linearGradient id="paint0_linear_183_22" x1="20.7887" y1="12.8309" x2="9.90287" y2="-2.41589" gradientUnits="userSpaceOnUse">
<stop offset="0.39705" stop-color="#4F68EE"/>
<stop offset="0.62624" stop-color="#7385F2"/>
</linearGradient>
<linearGradient id="paint1_linear_183_22" x1="7.97724" y1="25.643" x2="-2.90556" y2="10.3953" gradientUnits="userSpaceOnUse">
<stop offset="0.39705" stop-color="#4F68EE"/>
<stop offset="0.62624" stop-color="#7385F2"/>
</linearGradient>
<linearGradient id="paint2_linear_183_22" x1="15.3777" y1="21.6082" x2="1.52224" y2="2.19846" gradientUnits="userSpaceOnUse">
<stop offset="0.39705" stop-color="#4F68EE"/>
<stop offset="0.62624" stop-color="#7385F2"/>
</linearGradient>
<linearGradient id="paint3_linear_183_22" x1="13.9223" y1="16.6023" x2="7.68108" y2="7.8915" gradientUnits="userSpaceOnUse">
<stop offset="0.39705" stop-color="#4F68EE"/>
<stop offset="0.62624" stop-color="#7385F2"/>
</linearGradient>
<linearGradient id="paint4_linear_183_22" x1="17.1141" y1="21.7172" x2="6.75368" y2="7.26672" gradientUnits="userSpaceOnUse">
<stop offset="0.39705" stop-color="#4F68EE"/>
<stop offset="0.62624" stop-color="#7385F2"/>
</linearGradient>
<linearGradient id="paint5_linear_183_22" x1="20.3423" y1="27.5843" x2="4.31989" y2="5.11937" gradientUnits="userSpaceOnUse">
<stop offset="0.39705" stop-color="#4F68EE"/>
<stop offset="0.62624" stop-color="#7385F2"/>
</linearGradient>
<linearGradient id="paint6_linear_183_22" x1="23.6281" y1="34.2508" x2="0.276949" y2="1.77875" gradientUnits="userSpaceOnUse">
<stop offset="0.39705" stop-color="#4F68EE"/>
<stop offset="0.62624" stop-color="#7385F2"/>
</linearGradient>
</defs>
</svg>
