<svg width="24" height="24" viewBox="0 0 24 24" fill="none" xmlns="http://www.w3.org/2000/svg">
<g clip-path="url(#clip0_155_336)">
<path d="M13.5 16.2739V21.0739H10.5V16.2739H13.5Z" fill="#B8C3F7"/>
<path d="M21.5 16.2739V21.0739H18.5V16.2739H21.5Z" fill="#B8C3F7"/>
<path d="M13.5 16.2739V18.4369H10.5V16.2739H13.5Z" fill="white" fill-opacity="0.66"/>
<path d="M21.5 16.2739V18.4369H18.5V16.2739H21.5Z" fill="white" fill-opacity="0.66"/>
<path d="M2.20312 4.75515L2.96112 1.38315C2.99291 1.25655 3.07293 1.14739 3.18411 1.07901C3.29529 1.01062 3.4288 0.988417 3.55612 1.01715L12.2921 2.84115C12.355 2.85284 12.4148 2.87697 12.4682 2.91212C12.5216 2.94727 12.5674 2.99272 12.603 3.04581C12.6386 3.0989 12.6632 3.15857 12.6754 3.2213C12.6876 3.28404 12.6872 3.34858 12.6741 3.41114L11.5641 8.30015C11.5326 8.42672 11.4528 8.53594 11.3418 8.6045C11.2308 8.67307 11.0974 8.69555 10.9701 8.66714L10.5031 8.56715" fill="white" fill-opacity="0.66"/>
<path d="M2.20312 4.75515L2.96112 1.38315C2.99291 1.25655 3.07293 1.14739 3.18411 1.07901C3.29529 1.01062 3.4288 0.988417 3.55612 1.01715L12.2921 2.84115C12.355 2.85284 12.4148 2.87697 12.4682 2.91212C12.5216 2.94727 12.5674 2.99272 12.603 3.04581C12.6386 3.0989 12.6632 3.15857 12.6754 3.2213C12.6876 3.28404 12.6872 3.34858 12.6741 3.41114L11.5641 8.30015C11.5326 8.42672 11.4528 8.53594 11.3418 8.6045C11.2308 8.67307 11.0974 8.69555 10.9701 8.66714L10.5031 8.56715" stroke="url(#paint0_linear_155_336)" stroke-linecap="round" stroke-linejoin="round"/>
<path d="M15.719 8.2922C15.8019 8.23975 15.8979 8.21191 15.996 8.21191C16.0941 8.21191 16.1901 8.23975 16.273 8.2922L23.273 12.7712C23.3408 12.8137 23.3968 12.8727 23.4358 12.9426C23.4747 13.0125 23.4955 13.0912 23.496 13.1712V13.8712C23.4947 13.9356 23.4807 13.999 23.4549 14.058C23.4291 14.1169 23.3919 14.1702 23.3454 14.2148C23.299 14.2594 23.2442 14.2943 23.1843 14.3178C23.1243 14.3412 23.0604 14.3525 22.996 14.3512H9C8.93565 14.3525 8.87167 14.3412 8.81171 14.3178C8.75175 14.2943 8.69699 14.2594 8.65056 14.2148C8.60413 14.1702 8.56693 14.1169 8.5411 14.058C8.51527 13.999 8.5013 13.9356 8.5 13.8712V12.9482L15.719 8.2922Z" fill="#B8C3F7"/>
<path d="M13 10.0342L15.723 8.2922C15.8059 8.23975 15.9019 8.21191 16 8.21191C16.0981 8.21191 16.1941 8.23975 16.277 8.2922L23.277 12.7712C23.3448 12.8137 23.4008 12.8727 23.4398 12.9426C23.4787 13.0125 23.4995 13.0912 23.5 13.1712V13.8712C23.4987 13.9356 23.4847 13.999 23.4589 14.058C23.4331 14.1169 23.3959 14.1702 23.3494 14.2148C23.303 14.2594 23.2482 14.2943 23.1883 14.3178C23.1283 14.3412 23.0644 14.3525 23 14.3512H9C8.93565 14.3525 8.87167 14.3412 8.81171 14.3178C8.75175 14.2943 8.69699 14.2594 8.65056 14.2148C8.60413 14.1702 8.56693 14.1169 8.5411 14.058C8.51527 13.999 8.5013 13.9356 8.5 13.8712" stroke="url(#paint1_linear_155_336)" stroke-linecap="round" stroke-linejoin="round"/>
<path d="M8 22.9941H23.5" stroke="url(#paint2_linear_155_336)" stroke-linecap="round" stroke-linejoin="round"/>
<path d="M10.5 21.0739V16.2739" stroke="url(#paint3_linear_155_336)" stroke-linecap="round" stroke-linejoin="round"/>
<path d="M13.5 21.0739V16.2739" stroke="url(#paint4_linear_155_336)" stroke-linecap="round" stroke-linejoin="round"/>
<path d="M18.5 21.0739V16.2739" stroke="url(#paint5_linear_155_336)" stroke-linecap="round" stroke-linejoin="round"/>
<path d="M21.5 21.0739V16.2739" stroke="url(#paint6_linear_155_336)" stroke-linecap="round" stroke-linejoin="round"/>
<path d="M9.5 16.2739H14.5" stroke="url(#paint7_linear_155_336)" stroke-linecap="round" stroke-linejoin="round"/>
<path d="M17.5 16.2739H22.5" stroke="url(#paint8_linear_155_336)" stroke-linecap="round" stroke-linejoin="round"/>
<path d="M0.5 5.25391C0.5 5.1213 0.552678 4.99412 0.646447 4.90035C0.740215 4.80658 0.867392 4.75391 1 4.75391H10C10.1326 4.75391 10.2598 4.80658 10.3536 4.90035C10.4473 4.99412 10.5 5.1213 10.5 5.25391V10.9739C10.5 11.1065 10.4473 11.2337 10.3536 11.3275C10.2598 11.4212 10.1326 11.4739 10 11.4739H1C0.867392 11.4739 0.740215 11.4212 0.646447 11.3275C0.552678 11.2337 0.5 11.1065 0.5 10.9739V5.25391Z" fill="#B8C3F7"/>
<path d="M1 4.75391C0.867392 4.75391 0.740215 4.80658 0.646447 4.90035C0.552678 4.99412 0.5 5.1213 0.5 5.25391V10.9749C0.5 11.1075 0.552678 11.2347 0.646447 11.3285C0.740215 11.4222 0.867392 11.4749 1 11.4749H2.259L8.979 4.75391H1Z" fill="#B8C3F7"/>
<path d="M0.5 5.25391C0.5 5.1213 0.552678 4.99412 0.646447 4.90035C0.740215 4.80658 0.867392 4.75391 1 4.75391H10C10.1326 4.75391 10.2598 4.80658 10.3536 4.90035C10.4473 4.99412 10.5 5.1213 10.5 5.25391V10.9739C10.5 11.1065 10.4473 11.2337 10.3536 11.3275C10.2598 11.4212 10.1326 11.4739 10 11.4739H1C0.867392 11.4739 0.740215 11.4212 0.646447 11.3275C0.552678 11.2337 0.5 11.1065 0.5 10.9739V5.25391Z" stroke="url(#paint9_linear_155_336)" stroke-linecap="round" stroke-linejoin="round"/>
<path d="M5.50249 9.55385C5.69611 9.56107 5.88919 9.52917 6.0702 9.46005C6.2512 9.39093 6.41641 9.28602 6.55595 9.1516C6.69548 9.01717 6.80647 8.85598 6.88228 8.67768C6.95809 8.49937 6.99716 8.30761 6.99716 8.11385C6.99716 7.9201 6.95809 7.72834 6.88228 7.55003C6.80647 7.37172 6.69548 7.21054 6.55595 7.07611C6.41641 6.94168 6.2512 6.83677 6.0702 6.76765C5.88919 6.69854 5.69611 6.66663 5.50249 6.67385C5.30887 6.66663 5.11578 6.69854 4.93478 6.76765C4.75377 6.83677 4.58856 6.94168 4.44903 7.07611C4.3095 7.21054 4.19851 7.37172 4.1227 7.55003C4.04689 7.72834 4.00781 7.9201 4.00781 8.11385C4.00781 8.30761 4.04689 8.49937 4.1227 8.67768C4.19851 8.85598 4.3095 9.01717 4.44903 9.1516C4.58856 9.28602 4.75377 9.39093 4.93478 9.46005C5.11578 9.52917 5.30887 9.56107 5.50249 9.55385Z" stroke="url(#paint10_linear_155_336)" stroke-linecap="round" stroke-linejoin="round"/>
</g>
<defs>
<linearGradient id="paint0_linear_155_336" x1="13.4515" y1="15.6627" x2="1.4372" y2="-7.32502" gradientUnits="userSpaceOnUse">
<stop offset="0.39705" stop-color="#4F68EE"/>
<stop offset="0.62624" stop-color="#7385F2"/>
</linearGradient>
<linearGradient id="paint1_linear_155_336" x1="24.598" y1="19.9381" x2="18.2957" y2="-1.63404" gradientUnits="userSpaceOnUse">
<stop offset="0.39705" stop-color="#4F68EE"/>
<stop offset="0.62624" stop-color="#7385F2"/>
</linearGradient>
<linearGradient id="paint2_linear_155_336" x1="24.6346" y1="24.9041" x2="24.4593" y2="21.0986" gradientUnits="userSpaceOnUse">
<stop offset="0.39705" stop-color="#4F68EE"/>
<stop offset="0.62624" stop-color="#7385F2"/>
</linearGradient>
<linearGradient id="paint3_linear_155_336" x1="11.5732" y1="25.4419" x2="6.64983" y2="24.005" gradientUnits="userSpaceOnUse">
<stop offset="0.39705" stop-color="#4F68EE"/>
<stop offset="0.62624" stop-color="#7385F2"/>
</linearGradient>
<linearGradient id="paint4_linear_155_336" x1="14.5732" y1="25.4419" x2="9.64983" y2="24.005" gradientUnits="userSpaceOnUse">
<stop offset="0.39705" stop-color="#4F68EE"/>
<stop offset="0.62624" stop-color="#7385F2"/>
</linearGradient>
<linearGradient id="paint5_linear_155_336" x1="19.5732" y1="25.4419" x2="14.6498" y2="24.005" gradientUnits="userSpaceOnUse">
<stop offset="0.39705" stop-color="#4F68EE"/>
<stop offset="0.62624" stop-color="#7385F2"/>
</linearGradient>
<linearGradient id="paint6_linear_155_336" x1="22.5732" y1="25.4419" x2="17.6498" y2="24.005" gradientUnits="userSpaceOnUse">
<stop offset="0.39705" stop-color="#4F68EE"/>
<stop offset="0.62624" stop-color="#7385F2"/>
</linearGradient>
<linearGradient id="paint7_linear_155_336" x1="14.866" y1="18.1839" x2="14.3324" y2="14.4465" gradientUnits="userSpaceOnUse">
<stop offset="0.39705" stop-color="#4F68EE"/>
<stop offset="0.62624" stop-color="#7385F2"/>
</linearGradient>
<linearGradient id="paint8_linear_155_336" x1="22.866" y1="18.1839" x2="22.3324" y2="14.4465" gradientUnits="userSpaceOnUse">
<stop offset="0.39705" stop-color="#4F68EE"/>
<stop offset="0.62624" stop-color="#7385F2"/>
</linearGradient>
<linearGradient id="paint9_linear_155_336" x1="11.232" y1="17.5891" x2="1.23851" y2="-3.24498" gradientUnits="userSpaceOnUse">
<stop offset="0.39705" stop-color="#4F68EE"/>
<stop offset="0.62624" stop-color="#7385F2"/>
</linearGradient>
<linearGradient id="paint10_linear_155_336" x1="7.21598" y1="12.1775" x2="2.08318" y2="4.71876" gradientUnits="userSpaceOnUse">
<stop offset="0.39705" stop-color="#4F68EE"/>
<stop offset="0.62624" stop-color="#7385F2"/>
</linearGradient>
<clipPath id="clip0_155_336">
<rect width="24" height="24" fill="white"/>
</clipPath>
</defs>
</svg>
