<svg width="24" height="24" viewBox="0 0 24 24" fill="none" xmlns="http://www.w3.org/2000/svg">
<g clip-path="url(#clip0_155_328)">
<path d="M14.5 18.5H11.5C11.5 17.4391 11.0786 16.4217 10.3284 15.6716C9.57828 14.9214 8.56087 14.5 7.5 14.5H0.5V22.5H18.5C18.5 21.4391 18.0786 20.4217 17.3284 19.6716C16.5783 18.9214 15.5609 18.5 14.5 18.5Z" fill="#B8C3F7"/>
<path d="M11.5 18.5H14.5C15.5609 18.5 16.5783 18.9214 17.3284 19.6716C18.0786 20.4217 18.5 21.4391 18.5 22.5H0.5" stroke="url(#paint0_linear_155_328)" stroke-linecap="round" stroke-linejoin="round"/>
<path d="M0.5 14.5H7.5C8.56087 14.5 9.57828 14.9214 10.3284 15.6716C11.0786 16.4217 11.5 17.4391 11.5 18.5H7" stroke="url(#paint1_linear_155_328)" stroke-linecap="round" stroke-linejoin="round"/>
<path d="M0.5 13.5V23.5" stroke="url(#paint2_linear_155_328)" stroke-linecap="round" stroke-linejoin="round"/>
<path d="M23.5 5C23.5 4.86739 23.4473 4.74021 23.3536 4.64645C23.2598 4.55268 23.1326 4.5 23 4.5H19.5V1C19.5 0.867392 19.4473 0.740215 19.3536 0.646447C19.2598 0.552678 19.1326 0.5 19 0.5H16C15.8674 0.5 15.7402 0.552678 15.6464 0.646447C15.5527 0.740215 15.5 0.867392 15.5 1V4.5H12C11.8674 4.5 11.7402 4.55268 11.6464 4.64645C11.5527 4.74021 11.5 4.86739 11.5 5V8C11.5 8.13261 11.5527 8.25979 11.6464 8.35355C11.7402 8.44732 11.8674 8.5 12 8.5H15.5V12C15.5 12.1326 15.5527 12.2598 15.6464 12.3536C15.7402 12.4473 15.8674 12.5 16 12.5H19C19.1326 12.5 19.2598 12.4473 19.3536 12.3536C19.4473 12.2598 19.5 12.1326 19.5 12V8.5H23C23.1326 8.5 23.2598 8.44732 23.3536 8.35355C23.4473 8.25979 23.5 8.13261 23.5 8V5Z" fill="white" fill-opacity="0.66"/>
<path d="M20.021 4.5H19.5V1C19.5 0.867392 19.4473 0.740215 19.3536 0.646447C19.2598 0.552678 19.1326 0.5 19 0.5H16C15.8674 0.5 15.7402 0.552678 15.6464 0.646447C15.5527 0.740215 15.5 0.867392 15.5 1V4.5H12C11.8674 4.5 11.7402 4.55268 11.6464 4.64645C11.5527 4.74021 11.5 4.86739 11.5 5V8C11.5 8.13261 11.5527 8.25979 11.6464 8.35355C11.7402 8.44732 11.8674 8.5 12 8.5H15.5V9.021L20.021 4.5Z" fill="#B8C3F7"/>
<path d="M23.5 5C23.5 4.86739 23.4473 4.74021 23.3536 4.64645C23.2598 4.55268 23.1326 4.5 23 4.5H19.5V1C19.5 0.867392 19.4473 0.740215 19.3536 0.646447C19.2598 0.552678 19.1326 0.5 19 0.5H16C15.8674 0.5 15.7402 0.552678 15.6464 0.646447C15.5527 0.740215 15.5 0.867392 15.5 1V4.5H12C11.8674 4.5 11.7402 4.55268 11.6464 4.64645C11.5527 4.74021 11.5 4.86739 11.5 5V8C11.5 8.13261 11.5527 8.25979 11.6464 8.35355C11.7402 8.44732 11.8674 8.5 12 8.5H15.5V12C15.5 12.1326 15.5527 12.2598 15.6464 12.3536C15.7402 12.4473 15.8674 12.5 16 12.5H19C19.1326 12.5 19.2598 12.4473 19.3536 12.3536C19.4473 12.2598 19.5 12.1326 19.5 12V8.5H23C23.1326 8.5 23.2598 8.44732 23.3536 8.35355C23.4473 8.25979 23.5 8.13261 23.5 8V5Z" stroke="url(#paint3_linear_155_328)" stroke-linecap="round" stroke-linejoin="round"/>
</g>
<defs>
<linearGradient id="paint0_linear_155_328" x1="19.8176" y1="26.14" x2="17.4573" y2="11.2598" gradientUnits="userSpaceOnUse">
<stop offset="0.39705" stop-color="#4F68EE"/>
<stop offset="0.62624" stop-color="#7385F2"/>
</linearGradient>
<linearGradient id="paint1_linear_155_328" x1="12.3052" y1="22.14" x2="8.59562" y2="7.8483" gradientUnits="userSpaceOnUse">
<stop offset="0.39705" stop-color="#4F68EE"/>
<stop offset="0.62624" stop-color="#7385F2"/>
</linearGradient>
<linearGradient id="paint2_linear_155_328" x1="1.5732" y1="32.6" x2="-3.66673" y2="31.8659" gradientUnits="userSpaceOnUse">
<stop offset="0.39705" stop-color="#4F68EE"/>
<stop offset="0.62624" stop-color="#7385F2"/>
</linearGradient>
<linearGradient id="paint3_linear_155_328" x1="24.3784" y1="23.42" x2="2.73824" y2="-6.89706" gradientUnits="userSpaceOnUse">
<stop offset="0.39705" stop-color="#4F68EE"/>
<stop offset="0.62624" stop-color="#7385F2"/>
</linearGradient>
<clipPath id="clip0_155_328">
<rect width="24" height="24" fill="white"/>
</clipPath>
</defs>
</svg>
