<svg width="24" height="24" viewBox="0 0 24 24" fill="none" xmlns="http://www.w3.org/2000/svg">
<path d="M20.2461 9.99998C19.5601 9.99985 18.8988 9.74337 18.3921 9.28086C17.8853 8.81835 17.5697 8.18319 17.5071 7.49998H17.4841C17.4232 8.18481 17.1079 8.82196 16.6004 9.28576C16.0929 9.74956 15.4299 10.0063 14.7424 10.0055C14.0549 10.0046 13.3926 9.74611 12.8863 9.28101C12.38 8.81591 12.0663 8.17796 12.0071 7.49298H11.9851C11.9262 8.18003 11.6113 8.81986 11.1028 9.28557C10.5942 9.75128 9.92921 10.0089 9.23964 10.0072C8.55008 10.0056 7.88631 9.74485 7.37998 9.27673C6.87366 8.80862 6.56175 8.1673 6.50613 7.47998H6.48612C6.45107 7.88759 6.32557 8.28225 6.11877 8.63525C5.91197 8.98824 5.62906 9.29069 5.29065 9.52058C4.95224 9.75047 4.56682 9.90201 4.16246 9.96418C3.7581 10.0264 3.34497 9.99759 2.95312 9.87998V21C2.95312 21.2652 3.05848 21.5196 3.24602 21.7071C3.43355 21.8946 3.68791 22 3.95312 22H19.9531C20.2183 22 20.4727 21.8946 20.6602 21.7071C20.8478 21.5196 20.9531 21.2652 20.9531 21V9.90798C20.7224 9.96917 20.4848 10.0001 20.2461 9.99998Z" stroke="url(#paint0_linear_155_355)" stroke-linecap="round" stroke-linejoin="round"/>
<path d="M13.9531 22V13.5C13.9531 13.3674 14.0058 13.2402 14.0996 13.1464C14.1933 13.0527 14.3205 13 14.4531 13H18.4531C18.5857 13 18.7129 13.0527 18.8067 13.1464C18.9004 13.2402 18.9531 13.3674 18.9531 13.5V22H13.9531Z" fill="white" fill-opacity="0.66" stroke="url(#paint1_linear_155_355)" stroke-linecap="round" stroke-linejoin="round"/>
<path d="M3.6927 2C3.49011 2.0001 3.29232 2.06173 3.12553 2.17673C2.95875 2.29173 2.83082 2.45468 2.7587 2.644L1.1777 6.792C1.00822 7.23726 1.00325 7.7284 1.1637 8.177C1.38261 8.78636 1.80944 9.29898 2.36908 9.62463C2.92871 9.95029 3.58528 10.0681 4.22323 9.95737C4.86117 9.84663 5.43962 9.51441 5.85675 9.01919C6.27388 8.52397 6.50297 7.89749 6.5037 7.25C6.5037 7.97935 6.79343 8.67882 7.30916 9.19454C7.82488 9.71027 8.52435 10 9.2537 10C9.98304 10 10.6825 9.71027 11.1982 9.19454C11.714 8.67882 12.0037 7.97935 12.0037 7.25C12.0037 7.97935 12.2934 8.67882 12.8092 9.19454C13.3249 9.71027 14.0244 10 14.7537 10C15.483 10 16.1825 9.71027 16.6982 9.19454C17.214 8.67882 17.5037 7.97935 17.5037 7.25C17.5044 7.89749 17.7335 8.52397 18.1507 9.01919C18.5678 9.51441 19.1462 9.84663 19.7842 9.95737C20.4221 10.0681 21.0787 9.95029 21.6383 9.62463C22.198 9.29898 22.6248 8.78636 22.8437 8.177C23.0044 7.72837 22.999 7.23704 22.8287 6.792L21.2487 2.644C21.1766 2.45468 21.0487 2.29173 20.8819 2.17673C20.7151 2.06173 20.5173 2.0001 20.3147 2H3.6927Z" fill="white" fill-opacity="0.66"/>
<path d="M2.28106 5.548H21.7131C21.9857 5.55075 22.2486 5.64994 22.4551 5.828L21.2421 2.644C21.1699 2.45468 21.042 2.29173 20.8752 2.17673C20.7084 2.06173 20.5107 2.0001 20.3081 2H3.68606C3.48347 2.0001 3.28569 2.06173 3.1189 2.17673C2.95211 2.29173 2.82419 2.45468 2.75206 2.644L1.53906 5.828C1.74555 5.64994 2.00842 5.55075 2.28106 5.548Z" fill="#B8C3F7"/>
<path d="M3.6927 2C3.49011 2.0001 3.29232 2.06173 3.12553 2.17673C2.95875 2.29173 2.83082 2.45468 2.7587 2.644L1.1777 6.792C1.00822 7.23726 1.00325 7.7284 1.1637 8.177C1.38261 8.78636 1.80944 9.29898 2.36908 9.62463C2.92871 9.95029 3.58528 10.0681 4.22323 9.95737C4.86117 9.84663 5.43962 9.51441 5.85675 9.01919C6.27388 8.52397 6.50297 7.89749 6.5037 7.25C6.5037 7.97935 6.79343 8.67882 7.30916 9.19454C7.82488 9.71027 8.52435 10 9.2537 10C9.98304 10 10.6825 9.71027 11.1982 9.19454C11.714 8.67882 12.0037 7.97935 12.0037 7.25C12.0037 7.97935 12.2934 8.67882 12.8092 9.19454C13.3249 9.71027 14.0244 10 14.7537 10C15.483 10 16.1825 9.71027 16.6982 9.19454C17.214 8.67882 17.5037 7.97935 17.5037 7.25C17.5044 7.89749 17.7335 8.52397 18.1507 9.01919C18.5678 9.51441 19.1462 9.84663 19.7842 9.95737C20.4221 10.0681 21.0787 9.95029 21.6383 9.62463C22.198 9.29898 22.6248 8.78636 22.8437 8.177C23.0044 7.72837 22.999 7.23704 22.8287 6.792L21.2487 2.644C21.1766 2.45468 21.0487 2.29173 20.8819 2.17673C20.7151 2.06173 20.5173 2.0001 20.3147 2H3.6927Z" stroke="url(#paint2_linear_155_355)" stroke-linecap="round" stroke-linejoin="round"/>
<path d="M5.45312 13H11.4531C11.4531 13 11.9531 13 11.9531 13.5V18.5C11.9531 18.5 11.9531 19 11.4531 19H5.45312C5.45312 19 4.95312 19 4.95312 18.5V13.5C4.95312 13.5 4.95312 13 5.45312 13Z" fill="white" fill-opacity="0.66"/>
<path d="M5.45312 13C5.32052 13 5.19334 13.0527 5.09957 13.1464C5.0058 13.2402 4.95312 13.3674 4.95312 13.5V18.5C4.95341 18.631 5.00512 18.7567 5.09713 18.85L10.9461 13H5.45312Z" fill="#B8C3F7"/>
<path d="M5.45312 13H11.4531C11.4531 13 11.9531 13 11.9531 13.5V18.5C11.9531 18.5 11.9531 19 11.4531 19H5.45312C5.45312 19 4.95312 19 4.95312 18.5V13.5C4.95312 13.5 4.95312 13 5.45312 13Z" stroke="url(#paint3_linear_155_355)" stroke-linecap="round" stroke-linejoin="round"/>
<defs>
<linearGradient id="paint0_linear_155_355" x1="22.2707" y1="35.2132" x2="-1.67455" y2="-6.37333" gradientUnits="userSpaceOnUse">
<stop offset="0.39705" stop-color="#4F68EE"/>
<stop offset="0.62624" stop-color="#7385F2"/>
</linearGradient>
<linearGradient id="paint1_linear_155_355" x1="19.3191" y1="30.19" x2="2.68297" y2="17.2419" gradientUnits="userSpaceOnUse">
<stop offset="0.39705" stop-color="#4F68EE"/>
<stop offset="0.62624" stop-color="#7385F2"/>
</linearGradient>
<linearGradient id="paint2_linear_155_355" x1="24.5645" y1="17.28" x2="17.1198" y2="-11.2891" gradientUnits="userSpaceOnUse">
<stop offset="0.39705" stop-color="#4F68EE"/>
<stop offset="0.62624" stop-color="#7385F2"/>
</linearGradient>
<linearGradient id="paint3_linear_155_355" x1="12.4655" y1="24.46" x2="2.27898" y2="7.81053" gradientUnits="userSpaceOnUse">
<stop offset="0.39705" stop-color="#4F68EE"/>
<stop offset="0.62624" stop-color="#7385F2"/>
</linearGradient>
</defs>
</svg>
